<svg id="icons" xmlns="http://www.w3.org/2000/svg" viewBox="0 0 64 64"><title>changa</title><g id="_Group_" data-name="&lt;Group&gt;"><path id="_Compound_Path_" data-name="&lt;Compound Path&gt;" d="M49.89,2.83a12.91,12.91,0,0,1,8,2.64c4.08,3.23,6,9.43,4.71,15.41-1,4.86-4.25,9-7.36,13-.52.66-1,1.32-1.54,2-4.11,5.38-7.23,9.09-11.19,13.76A131.08,131.08,0,0,1,32.31,60.84,91,91,0,0,1,17.86,46.07c-2.28-3-4.4-6.13-6.44-9.2-1-1.55-2.09-3.15-3.17-4.71-2.36-3.42-4.8-6.95-6.18-10.88C.58,17,.66,12.77,2.28,9.58a12.65,12.65,0,0,1,10.94-6.5h.23A16.81,16.81,0,0,1,25.31,8.49a24.16,24.16,0,0,1,5.93,12.34l1.43,7.73.56-7.84c.46-6.43,3.52-12.16,8.2-15.33a15.24,15.24,0,0,1,8.47-2.56m0-1a16.27,16.27,0,0,0-9,2.73c-5.22,3.53-8.2,9.81-8.64,16.09A25.28,25.28,0,0,0,26,7.8,17.71,17.71,0,0,0,13.46,2.08h-.25a13.62,13.62,0,0,0-11.82,7c-1.93,3.81-1.68,8.44-.27,12.48S5,29.21,7.42,32.73c3.21,4.65,6.18,9.48,9.64,14A93.27,93.27,0,0,0,32.34,62.17a125.76,125.76,0,0,0,11-12c4.2-5,7.21-8.55,11.2-13.78,3.66-4.79,7.84-9.45,9.09-15.34s-.34-12.65-5.06-16.4a13.83,13.83,0,0,0-8.64-2.85Z"/></g></svg>