<svg id="icons" xmlns="http://www.w3.org/2000/svg" viewBox="0 0 64 64"><defs><style>.cls-1{fill:#fff;}</style></defs><title>changa</title><g id="_Group_" data-name="&lt;Group&gt;"><path id="_Path_" data-name="&lt;Path&gt;" class="cls-1" d="M13,60.84c1.73-1.68,4.11-4.63,3.41-7.61l-.08-.36L16,52.72C15.89,52.65,1.43,45.83.92,30.21v-.12a21.56,21.56,0,0,1,4.25-16C10.46,7.35,20,3.65,33.63,3.06c0,0,.36,0,1,0,3.47,0,15.35.59,22.69,8.13,4.19,4.31,6.22,10.23,6,17.58.06,1.1,1.11,25.35-25.52,27.6,0,0-2.42.2-5.36.2a32.69,32.69,0,0,1-8.23-.81l-.39-.11-.31.26C23.43,55.95,18.42,60.17,13,60.84Z"/><path id="_Compound_Path_" data-name="&lt;Compound Path&gt;" d="M34.59,3.79h0c3.39,0,15,.57,22.15,7.9,4,4.16,6,9.89,5.8,17v.13c.05,1,1,24.56-24.84,26.75,0,0-2.4.19-5.3.19a32,32,0,0,1-8-.78l-.77-.22-.61.52a24.93,24.93,0,0,1-7.83,4.29c1.4-1.79,2.59-4.13,2-6.56L17,52.34,16.35,52C16.21,52,2.16,45.32,1.67,30.19v-.12l0-.12a20.66,20.66,0,0,1,4.09-15.4C10.89,8,20.29,4.39,33.68,3.81c0,0,.35,0,.91,0m0-1.5c-.63,0-1,0-1,0C-4.95,4,.17,30.24.17,30.24.7,46.53,15.72,53.4,15.72,53.4c1,4-4.76,8.25-4.76,8.25l.7,0c6.22,0,12.31-5.21,12.31-5.21a34.14,34.14,0,0,0,8.43.83c3,0,5.42-.2,5.42-.2C65.53,54.76,64,28.77,64,28.77,64.74,3.63,39.9,2.29,34.59,2.29Z"/></g></svg>