<svg id="icons" xmlns="http://www.w3.org/2000/svg" viewBox="0 0 64 64"><defs><style>.cls-1{fill:#fff;}</style></defs><title>changa</title><g id="_Group_" data-name="&lt;Group&gt;"><polygon id="_Path_" data-name="&lt;Path&gt;" class="cls-1" points="32 47.06 13.74 60.33 20.72 38.86 2.46 25.6 25.03 25.6 32 4.14 38.97 25.6 61.54 25.6 43.28 38.86 50.26 60.33 32 47.06"/><path id="_Compound_Path_" data-name="&lt;Compound Path&gt;" d="M32,6.56l6.09,18.75.34,1h20.8L43.28,37.94l-.88.64.34,1,6.09,18.75L32.88,46.78,32,46.14l-.88.64L15.17,58.36l6.09-18.75.34-1-.88-.64L4.77,26.35h20.8l.34-1L32,6.56m0-4.85L24.48,24.85H.15l19.68,14.3L12.32,62.29,32,48l19.68,14.3L44.17,39.15l19.68-14.3H39.52L32,1.71Z"/></g></svg>