<svg id="icons" xmlns="http://www.w3.org/2000/svg" viewBox="0 0 64 64"><defs><style>.cls-1{fill:#fff;}.cls-2{fill:none;stroke:#000;stroke-miterlimit:10;stroke-width:1.5px;}</style></defs><title>changa</title><g id="_Group_" data-name="&lt;Group&gt;"><path id="_Path_" data-name="&lt;Path&gt;" class="cls-1" d="M32,63.25A31.25,31.25,0,1,1,63.25,32,31.29,31.29,0,0,1,32,63.25Z"/><path id="_Compound_Path_" data-name="&lt;Compound Path&gt;" d="M32,1.5A30.5,30.5,0,1,1,1.5,32,30.53,30.53,0,0,1,32,1.5M32,0A32,32,0,1,0,64,32,32,32,0,0,0,32,0Z"/></g><g id="_Group_2" data-name="&lt;Group&gt;"><path id="_Path_2" data-name="&lt;Path&gt;" class="cls-2" d="M21.38,46.77a1.11,1.11,0,0,0,1.67,1l13-7.4L49.15,33a1.11,1.11,0,0,0,0-1.94L36,23.65l-13-7.4a1.11,1.11,0,0,0-1.67,1V46.77Z"/></g></svg>