<svg id="icons" xmlns="http://www.w3.org/2000/svg" viewBox="0 0 64 64"><defs><style>.cls-1{fill:#fff;}</style></defs><title>changa</title><path id="_Path_" data-name="&lt;Path&gt;" d="M63.84,34.41c.06-.8.12-1.59.12-2.41s-.06-1.61-.12-2.41l-8.4-2.1a23.63,23.63,0,0,0-.89-3.3l6.23-6A31.91,31.91,0,0,0,58.39,14L50,16.38A24,24,0,0,0,47.62,14L50,5.61a31.92,31.92,0,0,0-4.17-2.38l-6,6.23a23.64,23.64,0,0,0-3.3-.89L34.41.16C33.61.1,32.81,0,32,0S30.39.1,29.59.16l-2.1,8.4a23.64,23.64,0,0,0-3.3.89l-6-6.23A31.92,31.92,0,0,0,14,5.61L16.38,14A24,24,0,0,0,14,16.38L5.61,14a31.91,31.91,0,0,0-2.38,4.17l6.23,6a23.63,23.63,0,0,0-.89,3.3l-8.4,2.1C.1,30.39,0,31.19,0,32s.06,1.61.12,2.41l8.4,2.1a23.63,23.63,0,0,0,.89,3.3l-6.23,6A31.92,31.92,0,0,0,5.61,50L14,47.62A24,24,0,0,0,16.38,50L14,58.39a31.93,31.93,0,0,0,4.17,2.38l6-6.23a23.64,23.64,0,0,0,3.3.89l2.1,8.4c.8.06,1.59.12,2.41.12s1.61-.06,2.41-.12l2.1-8.4a23.64,23.64,0,0,0,3.3-.89l6,6.23A31.93,31.93,0,0,0,50,58.39L47.62,50A24,24,0,0,0,50,47.62L58.39,50a31.92,31.92,0,0,0,2.38-4.17l-6.23-6a23.63,23.63,0,0,0,.89-3.3Z"/><path id="_Path_2" data-name="&lt;Path&gt;" class="cls-1" d="M52.92,33.58,47.4,35a15.52,15.52,0,0,1-.59,2.17l4.09,4a21,21,0,0,1-1.56,2.74l-5.49-1.57a15.77,15.77,0,0,1-1.59,1.59l1.57,5.49a21,21,0,0,1-2.74,1.56l-4-4.09A15.54,15.54,0,0,1,35,47.4l-1.38,5.52c-.52,0-1,.08-1.58.08s-1.06,0-1.58-.08L29,47.4a15.54,15.54,0,0,1-2.17-.59l-4,4.09a21,21,0,0,1-2.74-1.56l1.57-5.49a15.77,15.77,0,0,1-1.59-1.59l-5.49,1.57a21,21,0,0,1-1.56-2.74l4.09-4A15.52,15.52,0,0,1,16.6,35l-5.52-1.38c0-.52-.08-1-.08-1.58s0-1.06.08-1.58L16.6,29a15.52,15.52,0,0,1,.59-2.17l-4.09-4a21,21,0,0,1,1.56-2.74l5.49,1.57a15.77,15.77,0,0,1,1.59-1.59l-1.57-5.49a21,21,0,0,1,2.74-1.56l4,4.09A15.54,15.54,0,0,1,29,16.6l1.38-5.52c.52,0,1-.08,1.58-.08s1.06,0,1.58.08L35,16.6a15.54,15.54,0,0,1,2.17.59l4-4.09a21,21,0,0,1,2.74,1.56l-1.57,5.49a15.77,15.77,0,0,1,1.59,1.59l5.49-1.57a21,21,0,0,1,1.56,2.74l-4.09,4A15.52,15.52,0,0,1,47.4,29l5.52,1.38c0,.52.08,1,.08,1.58S53,33.06,52.92,33.58Z"/><g id="_Group_" data-name="&lt;Group&gt;"><path id="_Path_3" data-name="&lt;Path&gt;" d="M39.14,32.54,37.26,33a5.3,5.3,0,0,1-.2.74l1.4,1.35a7.16,7.16,0,0,1-.53.94L36,35.5a5.38,5.38,0,0,1-.54.54L36,37.92a7.16,7.16,0,0,1-.94.53l-1.35-1.4a5.3,5.3,0,0,1-.74.2l-.47,1.88-.54,0-.54,0L31,37.26a5.3,5.3,0,0,1-.74-.2l-1.35,1.4a7.16,7.16,0,0,1-.94-.53L28.5,36A5.38,5.38,0,0,1,28,35.5L26.08,36a7.16,7.16,0,0,1-.53-.94l1.4-1.35a5.3,5.3,0,0,1-.2-.74l-1.88-.47c0-.18,0-.36,0-.54s0-.36,0-.54L26.74,31a5.3,5.3,0,0,1,.2-.74l-1.4-1.35a7.15,7.15,0,0,1,.53-.94L28,28.5A5.38,5.38,0,0,1,28.5,28L28,26.08a7.16,7.16,0,0,1,.94-.53l1.35,1.4a5.3,5.3,0,0,1,.74-.2l.47-1.88.54,0,.54,0L33,26.74a5.3,5.3,0,0,1,.74.2l1.35-1.4a7.16,7.16,0,0,1,.94.53L35.5,28a5.38,5.38,0,0,1,.54.54L37.92,28a7.15,7.15,0,0,1,.53.94l-1.4,1.35a5.3,5.3,0,0,1,.2.74l1.88.47c0,.18,0,.36,0,.54S39.15,32.36,39.14,32.54Z"/></g></svg>