<svg id="icons" xmlns="http://www.w3.org/2000/svg" viewBox="0 0 64 64"><title>changa</title><g id="_Group_" data-name="&lt;Group&gt;"><polygon id="_Path_" data-name="&lt;Path&gt;" points="64 12.51 64 12.51 64 12.51 64 12.51"/><polygon id="_Path_2" data-name="&lt;Path&gt;" points="61.77 12.51 2.23 12.51 32 30.64 61.77 12.51"/><polygon id="_Path_3" data-name="&lt;Path&gt;" points="62.17 51.49 37.04 30.29 32 33.36 26.96 30.29 1.83 51.49 62.17 51.49"/><polygon id="_Path_4" data-name="&lt;Path&gt;" points="64 49.95 64 13.87 39.16 29 64 49.95"/><polygon id="_Path_5" data-name="&lt;Path&gt;" points="0 12.51 0 12.51 0 12.51 0 12.51"/><polygon id="_Path_6" data-name="&lt;Path&gt;" points="0 51.49 0 51.49 0 51.49 0 51.49"/><polygon id="_Path_7" data-name="&lt;Path&gt;" points="64 51.49 64 51.49 64 51.49 64 51.49"/><polygon id="_Path_8" data-name="&lt;Path&gt;" points="24.84 29 0 13.87 0 49.95 24.84 29"/></g></svg>