<svg id="icons" xmlns="http://www.w3.org/2000/svg" viewBox="0 0 64 64"><defs><style>.cls-1{fill:#fff;}</style></defs><title>changa</title><g id="_Group_" data-name="&lt;Group&gt;"><g id="_Rectangle_" data-name="&lt;Rectangle&gt;"><rect id="_Path_" data-name="&lt;Path&gt;" class="cls-1" x="23.37" y="2.5" width="17.25" height="11.75" rx="5.17" ry="5.17"/><path id="_Compound_Path_" data-name="&lt;Compound Path&gt;" d="M35.46,3.25a4.42,4.42,0,0,1,4.42,4.42V9.08a4.42,4.42,0,0,1-4.42,4.42H28.54a4.42,4.42,0,0,1-4.42-4.42V7.67a4.42,4.42,0,0,1,4.42-4.42h6.92m0-1.5H28.54a5.93,5.93,0,0,0-5.92,5.92V9.08A5.93,5.93,0,0,0,28.54,15h6.92a5.93,5.93,0,0,0,5.92-5.92V7.67a5.93,5.93,0,0,0-5.92-5.92Z"/></g><g id="_Group_2" data-name="&lt;Group&gt;"><path id="_Compound_Path_2" data-name="&lt;Compound Path&gt;" d="M10.39,15,16.1,60.92C17.76,62.79,32,63.57,32,63.57c12.26,0,15.48-3.29,15.48-3.29L53.61,15Z"/></g><rect id="_Rectangle_2" data-name="&lt;Rectangle&gt;" x="9.24" y="9.08" width="45.53" height="5.92"/></g><rect id="_Rectangle_3" data-name="&lt;Rectangle&gt;" class="cls-1" x="30.58" y="17.25" width="2.83" height="40.75" rx="0.71" ry="0.71"/><rect id="_Rectangle_4" data-name="&lt;Rectangle&gt;" class="cls-1" x="21.21" y="17.25" width="2.83" height="40.75" rx="0.71" ry="0.71" transform="translate(-3.18 2.1) rotate(-4.97)"/><rect id="_Rectangle_5" data-name="&lt;Rectangle&gt;" class="cls-1" x="39.96" y="17.25" width="2.83" height="40.75" rx="0.71" ry="0.71" transform="matrix(1, 0.09, -0.09, 1, 3.42, -3.44)"/></svg>