<svg id="icons" xmlns="http://www.w3.org/2000/svg" viewBox="0 0 64 64"><defs><style>.cls-1{fill:#fff;}</style></defs><title>changa</title><g id="_Group_" data-name="&lt;Group&gt;"><rect id="_Path_" data-name="&lt;Path&gt;" class="cls-1" x="0.72" y="18.68" width="62.55" height="26.64" rx="11.79" ry="11.79"/><path id="_Compound_Path_" data-name="&lt;Compound Path&gt;" d="M51.49,19.43a11.05,11.05,0,0,1,11,11v3.07a11.05,11.05,0,0,1-11,11h-39a11.05,11.05,0,0,1-11-11V30.47a11.05,11.05,0,0,1,11-11h39m0-1.5h-39A12.55,12.55,0,0,0,0,30.47v3.07A12.55,12.55,0,0,0,12.51,46.07h39A12.55,12.55,0,0,0,64,33.53V30.47A12.55,12.55,0,0,0,51.49,17.93Z"/></g><ellipse id="_Path_2" data-name="&lt;Path&gt;" cx="15.15" cy="32" rx="11.41" ry="11.33"/></svg>