<svg id="icons" xmlns="http://www.w3.org/2000/svg" viewBox="0 0 64 64"><title>changa</title><g id="_Group_" data-name="&lt;Group&gt;"><g id="_Group_2" data-name="&lt;Group&gt;"><path id="_Path_" data-name="&lt;Path&gt;" d="M63.93,32.28a42.87,42.87,0,0,1-.57,6.6,39.88,39.88,0,0,1-5.86,15.34,37.09,37.09,0,0,1-2.7,3.66,2.74,2.74,0,0,1-4.71-.4,3.57,3.57,0,0,1-.18-3.14,4.22,4.22,0,0,1,.72-1.15A31,31,0,0,0,54.1,48a33.09,33.09,0,0,0,2.67-6.68,34.75,34.75,0,0,0,1.16-12.14,33.64,33.64,0,0,0-1.8-8.6A31.36,31.36,0,0,0,50.83,11,5.45,5.45,0,0,1,50,9.77a3.56,3.56,0,0,1-.12-2.71,2.91,2.91,0,0,1,2.23-2,2.76,2.76,0,0,1,2.79,1.19,38.23,38.23,0,0,1,6.37,11,40.91,40.91,0,0,1,2.06,7.55,43.8,43.8,0,0,1,.54,4.7C63.89,30.29,63.91,31.14,63.93,32.28Z"/><path id="_Path_2" data-name="&lt;Path&gt;" d="M54.12,31.79a28.76,28.76,0,0,1-1,8.11,28.12,28.12,0,0,1-3.87,8.37,26.57,26.57,0,0,1-1.82,2.35,2.62,2.62,0,0,1-3.25.81,3,3,0,0,1-1.75-2.37A3.62,3.62,0,0,1,43.2,46a23.74,23.74,0,0,0,2.19-3.07,21.25,21.25,0,0,0,2.11-5.06A22.31,22.31,0,0,0,48.18,30a21.49,21.49,0,0,0-1.28-5.73,20.78,20.78,0,0,0-2.28-4.44c-.52-.77-1.15-1.43-1.68-2.2a3.55,3.55,0,0,1,.82-4.92,2.68,2.68,0,0,1,3.67.67,27.11,27.11,0,0,1,4.91,8.41A28.36,28.36,0,0,1,54.12,31.79Z"/><path id="_Path_3" data-name="&lt;Path&gt;" d="M37.81,44.31A3.1,3.1,0,0,1,35,41.14a3.55,3.55,0,0,1,1-2.62,9.26,9.26,0,0,0,1.75-2.68,9.75,9.75,0,0,0,.65-5.45A9.09,9.09,0,0,0,36,25.57a3.64,3.64,0,0,1-1-1.84,3.48,3.48,0,0,1,.83-3.14,2.67,2.67,0,0,1,1.85-.91,2.4,2.4,0,0,1,1.72.53A11.91,11.91,0,0,1,42,23.36,16.23,16.23,0,0,1,44.09,29a17.21,17.21,0,0,1,0,6,15.89,15.89,0,0,1-4.31,8.54A2.72,2.72,0,0,1,37.81,44.31Z"/></g><path id="_Path_4" data-name="&lt;Path&gt;" d="M31.52,8.17a1.35,1.35,0,0,0-1.39.09L13,20.21l-9.77.06A3.37,3.37,0,0,0,.07,22.39v18a3.37,3.37,0,0,0,3.22,2.44l9.61-.06,17.23,12a1.35,1.35,0,0,0,2.11-1.1V9.37A1.35,1.35,0,0,0,31.52,8.17Z"/></g></svg>