<svg id="icons" xmlns="http://www.w3.org/2000/svg" viewBox="0 0 64 64"><title>changa</title><path id="_Compound_Path_" data-name="&lt;Compound Path&gt;" d="M32,0A32,32,0,1,0,64,32,32,32,0,0,0,32,0ZM16.72,54a9.22,9.22,0,0,1-4.41-2.56A8.41,8.41,0,0,1,10,44.18a7.5,7.5,0,0,1,7.89-6.34,8.92,8.92,0,0,1,8.39,8.41A7.61,7.61,0,0,1,16.72,54Zm22.06-9.47A3.95,3.95,0,0,1,30.91,44,11,11,0,0,0,30.32,40,10.55,10.55,0,0,0,20.08,33a4.21,4.21,0,0,1-2.47-.63,3.94,3.94,0,0,1-.85-6,3.53,3.53,0,0,1,2.08-1.19,14.69,14.69,0,0,1,5.09.22,18,18,0,0,1,6.76,2.8,18.45,18.45,0,0,1,8.1,16.33Zm12.55,5.36a4.23,4.23,0,0,1-4.18-.37,4.53,4.53,0,0,1-2.08-3.87,32.64,32.64,0,0,0-.58-5.33,27.16,27.16,0,0,0-2.58-7.16,27,27,0,0,0-6.73-8.22,26.38,26.38,0,0,0-6.9-4.12A27.22,27.22,0,0,0,21.55,19c-1.31-.18-2.63-.13-3.94-.3a4.5,4.5,0,0,1,.8-9,36.16,36.16,0,0,1,13.42,2.75,34.61,34.61,0,0,1,11.49,7.64A34.87,34.87,0,0,1,50,29.08a36.37,36.37,0,0,1,3.83,12.26,37.09,37.09,0,0,1,.28,4.24A4.36,4.36,0,0,1,51.34,49.89Z"/></svg>