<svg id="icons" xmlns="http://www.w3.org/2000/svg" viewBox="0 0 64 64"><title>changa</title><g id="_Group_" data-name="&lt;Group&gt;"><path id="_Path_" data-name="&lt;Path&gt;" d="M38.94,22.35,34.1,17.44a.27.27,0,0,0-.46.19v9.72a.27.27,0,0,0,.46.19l4.84-4.81A.27.27,0,0,0,38.94,22.35Z"/><path id="_Path_2" data-name="&lt;Path&gt;" d="M33.63,36.76v9.72a.27.27,0,0,0,.46.19l4.84-4.81a.27.27,0,0,0,0-.38L34.1,36.57A.27.27,0,0,0,33.63,36.76Z"/><path id="_Compound_Path_" data-name="&lt;Compound Path&gt;" d="M32,0A32,32,0,1,0,64,32,32,32,0,0,0,32,0Zm3.13,32.37,9.1,9.16a.27.27,0,0,1,0,.38L30.67,55.47a.27.27,0,0,1-.46-.19V37.85a.27.27,0,0,0-.46-.19l-6.82,7a.27.27,0,0,1-.38,0l-2.76-2.71a.27.27,0,0,1,0-.38l9.12-9.31a.27.27,0,0,0,0-.38l-9.12-9.31a.27.27,0,0,1,0-.38l2.76-2.71a.27.27,0,0,1,.38,0l6.82,7a.27.27,0,0,0,.46-.19V8.72a.27.27,0,0,1,.46-.19L44.23,22.27a.27.27,0,0,1,0,.38L35.13,32A.27.27,0,0,0,35.13,32.37Z"/></g></svg>