<svg id="icons" xmlns="http://www.w3.org/2000/svg" viewBox="0 0 64 64"><title>changa</title><path id="_Compound_Path_" data-name="&lt;Compound Path&gt;" d="M64,28.77C64.83.63,33.6,2.31,33.6,2.31-4.95,4,.17,30.24.17,30.24.7,46.53,15.72,53.4,15.72,53.4c1,4-4.76,8.25-4.76,8.25,6.45.42,13-5.18,13-5.18,4.87,1.38,13.86.63,13.86.63C65.53,54.76,64,28.77,64,28.77ZM16.6,37.6A5.6,5.6,0,1,1,22.2,32,5.6,5.6,0,0,1,16.6,37.6Zm15.4,0A5.6,5.6,0,1,1,37.6,32,5.6,5.6,0,0,1,32,37.6Zm15.4,0A5.6,5.6,0,1,1,53,32,5.6,5.6,0,0,1,47.4,37.6Z"/></svg>