<?xml version="1.0" encoding="utf-8"?>
<!-- Generator: Adobe Illustrator 19.0.0, SVG Export Plug-In . SVG Version: 6.00 Build 0)  -->
<svg version="1.1" id="icons" xmlns="http://www.w3.org/2000/svg" xmlns:xlink="http://www.w3.org/1999/xlink" x="0px" y="0px"
	 viewBox="0 0 64 64" style="enable-background:new 0 0 64 64;" xml:space="preserve">
<style type="text/css">
	.st0{fill:#FFFFFF;}
	.st1{fill:#FFFFFF;stroke:#000000;stroke-width:1.5;stroke-miterlimit:10;}
	.st2{fill:none;stroke:#000000;stroke-miterlimit:10;}
	.st3{fill:none;}
	.st4{fill:none;stroke:#000000;stroke-width:1.5;stroke-miterlimit:10;}
	.st5{stroke:#FFFFFF;stroke-width:1.5;stroke-miterlimit:10;}
</style>
<g id="XMLID_6370_">
	<circle id="XMLID_6396_" cx="200" cy="284" r="32"/>
</g>
<circle id="XMLID_755_" cx="116" cy="116" r="32"/>
<g id="XMLID_421_">
	<path id="XMLID_777_" class="st0" d="M536,63.2c-17.2,0-31.2-14-31.2-31.2s14-31.2,31.2-31.2s31.2,14,31.2,31.2
		S553.2,63.2,536,63.2z"/>
	<path id="XMLID_702_" d="M536,1.6c16.8,0,30.4,13.6,30.4,30.4S552.8,62.4,536,62.4S505.6,48.8,505.6,32S519.2,1.6,536,1.6 M536,0.1
		c-17.6,0-31.9,14.3-31.9,31.9s14.3,31.9,31.9,31.9s31.9-14.3,31.9-31.9S553.6,0.1,536,0.1L536,0.1z"/>
</g>
<g id="XMLID_8817_">
	<path id="XMLID_3463_" class="st0" d="M264.5,129.3c-6.5,0-11.8-5.3-11.8-11.8v-3.1c0-6.5,5.3-11.8,11.8-11.8h39
		c6.5,0,11.8,5.3,11.8,11.8v3.1c0,6.5-5.3,11.8-11.8,11.8H264.5z"/>
	<path id="XMLID_3460_" d="M303.5,103.4c6.1,0,11,5,11,11v3.1c0,6.1-5,11-11,11h-39c-6.1,0-11-5-11-11v-3.1c0-6.1,5-11,11-11H303.5
		 M303.5,101.9h-39c-6.9,0-12.5,5.6-12.5,12.5v3.1c0,6.9,5.6,12.5,12.5,12.5h39c6.9,0,12.5-5.6,12.5-12.5v-3.1
		C316,107.6,310.4,101.9,303.5,101.9L303.5,101.9z"/>
</g>
<g id="XMLID_8795_">
	<path id="XMLID_950_" class="st0" d="M200,147.2c-17.2,0-31.2-14-31.2-31.2s14-31.2,31.2-31.2s31.2,14,31.2,31.2
		S217.2,147.2,200,147.2z"/>
	<path id="XMLID_947_" d="M200,85.5c16.8,0,30.5,13.7,30.5,30.5s-13.7,30.5-30.5,30.5s-30.5-13.7-30.5-30.5S183.2,85.5,200,85.5
		 M200,84c-17.7,0-32,14.3-32,32s14.3,32,32,32s32-14.3,32-32S217.7,84,200,84L200,84z"/>
</g>
<g id="XMLID_8969_">
	<path id="XMLID_945_" class="st0" d="M536,315.2c-17.2,0-31.2-14-31.2-31.2s14-31.2,31.2-31.2s31.2,14,31.2,31.2
		S553.2,315.2,536,315.2z"/>
	<path id="XMLID_942_" d="M536,253.5c16.8,0,30.5,13.7,30.5,30.5s-13.7,30.5-30.5,30.5s-30.5-13.7-30.5-30.5S519.2,253.5,536,253.5
		 M536,252c-17.7,0-32,14.3-32,32s14.3,32,32,32s32-14.3,32-32S553.7,252,536,252L536,252z"/>
</g>
<g id="XMLID_1010_">
	<path id="XMLID_1018_" class="st0" d="M284,315.2c-17.2,0-31.2-14-31.2-31.2s14-31.2,31.2-31.2s31.2,14,31.2,31.2
		S301.2,315.2,284,315.2z"/>
	<path id="XMLID_1012_" d="M284,253.5c16.8,0,30.5,13.7,30.5,30.5s-13.7,30.5-30.5,30.5s-30.5-13.7-30.5-30.5S267.2,253.5,284,253.5
		 M284,252c-17.7,0-32,14.3-32,32s14.3,32,32,32c17.7,0,32-14.3,32-32S301.7,252,284,252L284,252z"/>
</g>
<g id="XMLID_9010_">
	<path id="XMLID_940_" class="st0" d="M620,483.2c-17.2,0-31.2-14-31.2-31.2s14-31.2,31.2-31.2s31.2,14,31.2,31.2
		S637.2,483.2,620,483.2z"/>
	<path id="XMLID_937_" d="M620,421.5c16.8,0,30.5,13.7,30.5,30.5s-13.7,30.5-30.5,30.5s-30.5-13.7-30.5-30.5S603.2,421.5,620,421.5
		 M620,420c-17.7,0-32,14.3-32,32s14.3,32,32,32s32-14.3,32-32S637.7,420,620,420L620,420z"/>
</g>
<g id="XMLID_423_">
	<path id="XMLID_935_" class="st0" d="M284,567.2c-17.2,0-31.2-14-31.2-31.2s14-31.2,31.2-31.2s31.2,14,31.2,31.2
		S301.2,567.2,284,567.2z"/>
	<path id="XMLID_932_" d="M284,505.5c16.8,0,30.5,13.7,30.5,30.5s-13.7,30.5-30.5,30.5s-30.5-13.7-30.5-30.5S267.2,505.5,284,505.5
		 M284,504c-17.7,0-32,14.3-32,32s14.3,32,32,32c17.7,0,32-14.3,32-32S301.7,504,284,504L284,504z"/>
</g>
<g id="XMLID_452_">
	<path id="XMLID_930_" class="st0" d="M116,735.2c-17.2,0-31.2-14-31.2-31.2s14-31.2,31.2-31.2s31.2,14,31.2,31.2
		S133.2,735.2,116,735.2z"/>
	<path id="XMLID_927_" d="M116,673.5c16.8,0,30.5,13.7,30.5,30.5s-13.7,30.5-30.5,30.5S85.5,720.8,85.5,704S99.2,673.5,116,673.5
		 M116,672c-17.7,0-32,14.3-32,32s14.3,32,32,32s32-14.3,32-32S133.7,672,116,672L116,672z"/>
</g>
<g id="XMLID_424_">
	<path id="XMLID_922_" class="st0" d="M200,651.2c-17.2,0-31.2-14-31.2-31.2s14-31.2,31.2-31.2s31.2,14,31.2,31.2
		S217.2,651.2,200,651.2z"/>
	<path id="XMLID_919_" d="M200,589.5c16.8,0,30.5,13.7,30.5,30.5s-13.7,30.5-30.5,30.5s-30.5-13.7-30.5-30.5S183.2,589.5,200,589.5
		 M200,588c-17.7,0-32,14.3-32,32s14.3,32,32,32s32-14.3,32-32S217.7,588,200,588L200,588z"/>
</g>
<g id="XMLID_425_">
	<path id="XMLID_917_" class="st0" d="M620,651.2c-17.2,0-31.2-14-31.2-31.2s14-31.2,31.2-31.2s31.2,14,31.2,31.2
		S637.2,651.2,620,651.2z"/>
	<path id="XMLID_914_" d="M620,589.5c16.8,0,30.5,13.7,30.5,30.5s-13.7,30.5-30.5,30.5s-30.5-13.7-30.5-30.5S603.2,589.5,620,589.5
		 M620,588c-17.7,0-32,14.3-32,32s14.3,32,32,32s32-14.3,32-32S637.7,588,620,588L620,588z"/>
</g>
<g id="XMLID_426_">
	<path id="XMLID_912_" class="st0" d="M200,567.2c-17.2,0-31.2-14-31.2-31.2s14-31.2,31.2-31.2s31.2,14,31.2,31.2
		S217.2,567.2,200,567.2z"/>
	<path id="XMLID_909_" d="M200,505.5c16.8,0,30.5,13.7,30.5,30.5s-13.7,30.5-30.5,30.5s-30.5-13.7-30.5-30.5S183.2,505.5,200,505.5
		 M200,504c-17.7,0-32,14.3-32,32s14.3,32,32,32s32-14.3,32-32S217.7,504,200,504L200,504z"/>
</g>
<g id="XMLID_441_">
	<path id="XMLID_903_" class="st0" d="M200,399.2c-17.2,0-31.2-14-31.2-31.2s14-31.2,31.2-31.2s31.2,14,31.2,31.2
		S217.2,399.2,200,399.2z"/>
	<path id="XMLID_899_" d="M200,337.5c16.8,0,30.5,13.7,30.5,30.5s-13.7,30.5-30.5,30.5s-30.5-13.7-30.5-30.5S183.2,337.5,200,337.5
		 M200,336c-17.7,0-32,14.3-32,32s14.3,32,32,32s32-14.3,32-32S217.7,336,200,336L200,336z"/>
</g>
<path id="XMLID_3149_" class="st1" d="M316,28.8c0.8-28.1-30.4-26.5-30.4-26.5c-38.5,1.7-33.4,27.9-33.4,27.9
	c0.5,16.3,15.5,23.2,15.5,23.2c1,4-4.8,8.3-4.8,8.3c6.5,0.4,13-5.2,13-5.2c4.9,1.4,13.9,0.6,13.9,0.6C317.5,54.8,316,28.8,316,28.8z
	"/>
<path id="XMLID_3170_" class="st1" d="M280.3,48c0,0,5.7,0.5,8.8-0.4c0,0,4.2,3.6,8.3,3.3c0,0-3.6-2.7-3-5.3c0,0,9.6-4.4,9.9-14.7
	c0,0,3.3-16.7-21.3-17.8c0,0-19.9-1.1-19.4,16.8C263.6,29.9,262.6,46.5,280.3,48z"/>
<path id="XMLID_427_" class="st1" d="M232,28.8c0.8-28.1-30.4-26.5-30.4-26.5c-38.5,1.7-33.4,27.9-33.4,27.9
	c0.5,16.3,15.5,23.2,15.5,23.2c1,4-4.8,8.3-4.8,8.3c6.5,0.4,13-5.2,13-5.2c4.9,1.4,13.9,0.6,13.9,0.6C233.5,54.8,232,28.8,232,28.8z
	 M184.6,37.6c-3.1,0-5.6-2.5-5.6-5.6s2.5-5.6,5.6-5.6c3.1,0,5.6,2.5,5.6,5.6S187.7,37.6,184.6,37.6z M200,37.6
	c-3.1,0-5.6-2.5-5.6-5.6s2.5-5.6,5.6-5.6s5.6,2.5,5.6,5.6S203.1,37.6,200,37.6z M215.4,37.6c-3.1,0-5.6-2.5-5.6-5.6s2.5-5.6,5.6-5.6
	c3.1,0,5.6,2.5,5.6,5.6S218.5,37.6,215.4,37.6z"/>
<path id="XMLID_884_" d="M146,484H86c-1.1,0-2-0.9-2-2v-60c0-1.1,0.9-2,2-2h60c1.1,0,2,0.9,2,2v60C148,483.1,147.1,484,146,484z"/>
<path id="XMLID_570_" d="M734,400h-60c-1.1,0-2-0.9-2-2v-60c0-1.1,0.9-2,2-2h60c1.1,0,2,0.9,2,2v60C736,399.1,735.1,400,734,400z"/>
<circle id="XMLID_432_" cx="704.1" cy="284" r="32"/>
<g id="XMLID_1336_">
	<path id="XMLID_1357_" d="M-52,337.5c16.8,0,30.5,13.7,30.5,30.5s-13.7,30.5-30.5,30.5s-30.5-13.7-30.5-30.5S-68.8,337.5-52,337.5
		 M-52,336c-17.7,0-32,14.3-32,32c0,17.7,14.3,32,32,32c17.7,0,32-14.3,32-32C-20,350.3-34.3,336-52,336L-52,336z"/>
</g>
<g id="XMLID_433_">
	<path id="XMLID_434_" d="M-52,523c-12.4,0-22.5,10.1-22.5,22.5c0,12.4,10.1,22.5,22.5,22.5s22.5-10.1,22.5-22.5
		C-29.5,533.1-39.6,523-52,523z M-50.5,545.3v13.8h-3.3v-13.9c-1.6-0.7-2.8-2.3-2.8-4.2c0-2.5,2.1-4.6,4.6-4.6
		c2.5,0,4.6,2.1,4.6,4.6C-47.4,543-48.7,544.7-50.5,545.3z"/>
	<path id="XMLID_437_" d="M-62.6,524.5v-5c0-5.8,4.2-10.4,9.4-10.4h2.3c5.2,0,9.4,4.7,9.4,10.4v5c1.8,0.9,3.6,2.1,5.1,3.5v-8.5
		c0-8.6-6.5-15.5-14.5-15.5h-2.3c-8,0-14.5,7-14.5,15.5v8.5C-66.1,526.6-64.4,525.5-62.6,524.5z"/>
</g>
<path id="XMLID_438_" d="M32,523c-12.4,0-22.5,10.1-22.5,22.5C9.5,557.9,19.6,568,32,568s22.5-10.1,22.5-22.5
	C54.5,533.1,44.4,523,32,523z M33.5,545.3v13.8h-3.3v-13.9c-1.6-0.7-2.8-2.3-2.8-4.2c0-2.5,2.1-4.6,4.6-4.6c2.5,0,4.6,2.1,4.6,4.6
	C36.6,543,35.3,544.7,33.5,545.3z"/>
<path id="XMLID_442_" d="M452,503.9c-17.7,0-32.1,14.4-32.1,32.1s14.4,32.1,32.1,32.1c17.7,0,32.1-14.4,32.1-32.1
	S469.7,503.9,452,503.9z M476.7,521.8c1.8,3.1,3,6.5,3.5,10.1h-12.7c-0.4-3.2-1.1-6.6-2.4-10.1H476.7z M473.7,517.6h-10.4
	c-1.5-3.1-3.3-6.3-5.7-9.5C464.1,509.4,469.7,512.8,473.7,517.6z M464.6,536c0.1,3.6-0.4,7-1.3,10.1h-21.8
	c-0.8-3.1-1.3-6.4-1.2-10.1H464.6z M440.7,531.9c0.4-3.2,1.3-6.6,2.7-10.1h18.4c1.4,3.5,2.2,6.9,2.6,10.1H440.7z M452,507.5
	c0.4,0,0.9,0,1.3,0c2.7,3.5,4.9,6.8,6.5,10.1h-14.6c1.7-3.3,3.8-6.6,6.6-10.1C451.9,507.5,451.9,507.5,452,507.5z M447.6,507.9
	c-2.4,3.3-4.4,6.6-5.8,9.8h-11.5C434.6,512.5,440.7,508.9,447.6,507.9z M427.3,521.8H440c-1.3,3.5-2,6.9-2.4,10.1h-13.8
	C424.3,528.2,425.6,524.8,427.3,521.8z M423.5,536h13.8c0,3.6,0.4,7,1.2,10.1h-13.1C424.2,543,423.5,539.6,423.5,536z M427.3,550.2
	h12.4c2.2,6.1,5.4,10.9,7.8,13.9C438.9,562.8,431.6,557.5,427.3,550.2z M452,564.5C452,564.5,452,564.5,452,564.5
	c-2-2-6.3-7-9.1-14.3H462c-2.8,7.3-7.2,12.3-9.1,14.2C452.6,564.5,452.3,564.5,452,564.5z M457.5,563.9c2.4-3,5.5-7.7,7.7-13.7h11.4
	C472.6,557.2,465.7,562.3,457.5,563.9z M466.5,546.1c0.8-3.1,1.2-6.5,1.2-10.1h12.8c0,3.6-0.7,7-1.9,10.1H466.5z"/>
<path id="XMLID_457_" d="M-83.8,30.2c0,0-5.1-26.3,33.4-27.9c0,0,31.2-1.7,30.4,26.5c0,0,1.5,26-26.2,28.3c0,0-9,0.7-13.9-0.6
	c0,0-6.6,5.6-13,5.2c0,0,5.7-4.2,4.8-8.3C-68.3,53.4-83.3,46.5-83.8,30.2z"/>
<g id="XMLID_3031_">
	<path id="XMLID_564_" class="st0" d="M13,60.8c1.7-1.7,4.1-4.6,3.4-7.6l-0.1-0.4L16,52.7c-0.1-0.1-14.6-6.9-15.1-22.5l0-0.1l0-0.1
		c0-0.1-1.6-8.6,4.2-16C10.5,7.4,20,3.6,33.6,3.1c0,0,0.4,0,1,0c3.5,0,15.4,0.6,22.7,8.1c4.2,4.3,6.2,10.2,6,17.6
		c0.1,1.1,1.1,25.4-25.5,27.6c0,0-2.4,0.2-5.4,0.2c-3.5,0-6.4-0.3-8.2-0.8l-0.4-0.1l-0.3,0.3C23.4,55.9,18.4,60.2,13,60.8z"/>
	<path id="XMLID_556_" d="M34.6,3.8L34.6,3.8c3.4,0,15,0.6,22.2,7.9c4,4.2,6,9.9,5.8,17l0,0.1l0,0.1c0.1,1,1,24.6-24.8,26.8
		c0,0-2.4,0.2-5.3,0.2c-3.5,0-6.2-0.3-8-0.8l-0.8-0.2L23,55.3c0,0-3.6,3-7.8,4.3c1.4-1.8,2.6-4.1,2-6.6L17,52.3L16.3,52
		C16.2,52,2.2,45.3,1.7,30.2l0-0.1l0-0.1c0-0.1-1.5-8.3,4.1-15.4C10.9,8,20.3,4.4,33.7,3.8C33.7,3.8,34,3.8,34.6,3.8 M34.6,2.3
		c-0.6,0-1,0-1,0C-4.9,4,0.2,30.2,0.2,30.2c0.5,16.3,15.5,23.2,15.5,23.2c1,4-4.8,8.3-4.8,8.3c0.2,0,0.5,0,0.7,0
		c6.2,0,12.3-5.2,12.3-5.2c2.3,0.7,5.6,0.8,8.4,0.8c3,0,5.4-0.2,5.4-0.2C65.5,54.8,64,28.8,64,28.8C64.7,3.6,39.9,2.3,34.6,2.3
		L34.6,2.3z"/>
</g>
<path id="XMLID_459_" d="M651.8,34.4c0.1-0.8,0.1-1.6,0.1-2.4c0-0.8-0.1-1.6-0.1-2.4l-8.4-2.1c-0.2-1.1-0.5-2.2-0.9-3.3l6.2-6
	c-0.7-1.5-1.5-2.9-2.4-4.2l-8.4,2.4c-0.7-0.9-1.6-1.7-2.4-2.4l2.4-8.4c-1.3-0.9-2.7-1.7-4.2-2.4l-6,6.2c-1.1-0.4-2.2-0.7-3.3-0.9
	l-2.1-8.4C621.6,0.1,620.8,0,620,0s-1.6,0.1-2.4,0.1l-2.1,8.4c-1.1,0.2-2.2,0.5-3.3,0.9l-6-6.2c-1.5,0.7-2.9,1.5-4.2,2.4l2.4,8.4
	c-0.9,0.7-1.7,1.6-2.4,2.4l-8.4-2.4c-0.9,1.3-1.7,2.7-2.4,4.2l6.2,6c-0.4,1.1-0.7,2.2-0.9,3.3l-8.4,2.1c-0.1,0.8-0.1,1.6-0.1,2.4
	c0,0.8,0.1,1.6,0.1,2.4l8.4,2.1c0.2,1.1,0.5,2.2,0.9,3.3l-6.2,6c0.7,1.5,1.5,2.9,2.4,4.2l8.4-2.4c0.7,0.9,1.6,1.7,2.4,2.4l-2.4,8.4
	c1.3,0.9,2.7,1.7,4.2,2.4l6-6.2c1.1,0.4,2.2,0.7,3.3,0.9l2.1,8.4c0.8,0.1,1.6,0.1,2.4,0.1s1.6-0.1,2.4-0.1l2.1-8.4
	c1.1-0.2,2.2-0.5,3.3-0.9l6,6.2c1.5-0.7,2.9-1.5,4.2-2.4l-2.4-8.4c0.9-0.7,1.7-1.6,2.4-2.4l8.4,2.4c0.9-1.3,1.7-2.7,2.4-4.2l-6.2-6
	c0.4-1.1,0.7-2.2,0.9-3.3L651.8,34.4z"/>
<path id="XMLID_460_" class="st0" d="M640.9,33.6l-5.5,1.4c-0.1,0.7-0.3,1.5-0.6,2.2l4.1,4c-0.5,1-1,1.9-1.6,2.7l-5.5-1.6
	c-0.5,0.6-1,1.1-1.6,1.6l1.6,5.5c-0.9,0.6-1.8,1.1-2.7,1.6l-4-4.1c-0.7,0.2-1.4,0.4-2.2,0.6l-1.4,5.5c-0.5,0-1,0.1-1.6,0.1
	s-1.1,0-1.6-0.1l-1.4-5.5c-0.7-0.1-1.5-0.3-2.2-0.6l-4,4.1c-1-0.5-1.9-1-2.7-1.6l1.6-5.5c-0.6-0.5-1.1-1-1.6-1.6l-5.5,1.6
	c-0.6-0.9-1.1-1.8-1.6-2.7l4.1-4c-0.2-0.7-0.4-1.4-0.6-2.2l-5.5-1.4c0-0.5-0.1-1-0.1-1.6c0-0.5,0-1.1,0.1-1.6l5.5-1.4
	c0.1-0.7,0.3-1.5,0.6-2.2l-4.1-4c0.5-1,1-1.9,1.6-2.7l5.5,1.6c0.5-0.6,1-1.1,1.6-1.6l-1.6-5.5c0.9-0.6,1.8-1.1,2.7-1.6l4,4.1
	c0.7-0.2,1.4-0.4,2.2-0.6l1.4-5.5c0.5,0,1-0.1,1.6-0.1s1.1,0,1.6,0.1l1.4,5.5c0.7,0.1,1.5,0.3,2.2,0.6l4-4.1c1,0.5,1.9,1,2.7,1.6
	l-1.6,5.5c0.6,0.5,1.1,1,1.6,1.6l5.5-1.6c0.6,0.9,1.1,1.8,1.6,2.7l-4.1,4c0.2,0.7,0.4,1.4,0.6,2.2l5.5,1.4c0,0.5,0.1,1,0.1,1.6
	C641,32.5,641,33.1,640.9,33.6z"/>
<g id="XMLID_461_">
	<g id="XMLID_462_">
		<path id="XMLID_897_" class="st0" d="M700.5,14.2c-2.8,0-5.2-2.3-5.2-5.2V7.7c0-2.8,2.3-5.2,5.2-5.2h6.9c2.8,0,5.2,2.3,5.2,5.2
			v1.4c0,2.8-2.3,5.2-5.2,5.2H700.5z"/>
		<path id="XMLID_894_" d="M707.5,3.2c2.4,0,4.4,2,4.4,4.4v1.4c0,2.4-2,4.4-4.4,4.4h-6.9c-2.4,0-4.4-2-4.4-4.4V7.7
			c0-2.4,2-4.4,4.4-4.4H707.5 M707.5,1.8h-6.9c-3.3,0-5.9,2.7-5.9,5.9v1.4c0,3.3,2.7,5.9,5.9,5.9h6.9c3.3,0,5.9-2.7,5.9-5.9V7.7
			C713.4,4.4,710.7,1.8,707.5,1.8L707.5,1.8z"/>
	</g>
	<g id="XMLID_463_">
		<path id="XMLID_464_" d="M682.4,15l5.7,45.9c1.7,1.9,15.9,2.6,15.9,2.6c12.3,0,15.5-3.3,15.5-3.3l6.1-45.3H682.4z"/>
	</g>
	<rect id="XMLID_466_" x="681.2" y="9.1" width="45.5" height="5.9"/>
</g>
<path id="XMLID_473_" d="M536,84.1c-9.3,0-16.9,7.6-16.9,16.9c0,3,0.8,5.9,2.2,8.3l14.7,38.5l14.7-38.5c1.4-2.5,2.2-5.3,2.2-8.3
	C552.9,91.7,545.3,84.1,536,84.1z M536.4,108.8c-4.2,0-7.7-3.4-7.7-7.7c0-4.2,3.4-7.7,7.7-7.7s7.7,3.4,7.7,7.7
	C544.1,105.3,540.6,108.8,536.4,108.8z"/>
<path id="XMLID_478_" d="M147.5,206.3c-1.4-4.6-5.6-7.9-10.5-8.2c-0.5,0-0.7-0.2-0.7-0.7c0-0.8,0-1.6-0.1-2.4
	c-1.8-13.1-15.7-19.8-27.2-13.8c-4.1,2.1-6.7,5.6-8.3,9.9c-0.2,0.5-0.3,0.6-0.9,0.6c-1.3-0.1-2.7-0.1-4,0.2
	c-7.7,1.5-12.6,8.3-11.8,16.1c0.7,7.1,6.8,12.9,14,12.9c6.4,0,13,0,19,0c0,0,0,0,0,0c7,0,13.1,0,19.5,0
	C144.9,221,149.6,212.8,147.5,206.3z"/>
<g id="XMLID_8884_">
	<path id="XMLID_886_" class="st0" d="M181,220.2c-6.4,0-11.5-5-12.2-12.2c-0.8-7.4,4-13.8,11.2-15.3c0.8-0.2,1.6-0.2,2.4-0.2
		c0.4,0,0.9,0,1.3,0.1c0.1,0,0.2,0,0.3,0c1,0,1.3-0.8,1.4-1.1c1.6-4.4,4.2-7.6,7.9-9.5c2.7-1.4,5.6-2.1,8.6-2.1
		c8.9,0,16.3,6.5,17.5,15.4c0.1,0.7,0.1,1.5,0.1,2.3c0,0.9,0.5,1.4,1.4,1.5c4.5,0.3,8.5,3.4,9.8,7.7c0.9,2.8,0.2,6.1-1.8,8.8
		c-2.3,3.1-5.7,4.8-9.5,4.8h0c-2.5,0-5,0-7.6,0l-13.7,0v0l-10.1,0C185.9,220.2,181,220.2,181,220.2z"/>
	<path id="XMLID_882_" d="M202,179l0,1.5c8.5,0,15.6,6.2,16.8,14.7c0.1,0.7,0.1,1.4,0.1,2.2c0,1.3,0.7,2.1,2.1,2.2
		c4.2,0.3,7.9,3.2,9.1,7.1c0.8,2.6,0.2,5.6-1.6,8.2c-2.1,2.9-5.4,4.5-8.9,4.5c-2.5,0-5,0-7.6,0c-2.1,0-4.2,0-6.4,0
		c-2.2,0-4.3,0-6.5,0l-1.4,0l-4,0l-5.4,0c-2.3,0-4.7,0-7.2,0c-6,0-10.8-4.7-11.5-11.5c-0.7-7,3.7-13.1,10.6-14.5
		c0.7-0.1,1.5-0.2,2.3-0.2c0.4,0,0.8,0,1.3,0.1c0.1,0,0.3,0,0.4,0c1,0,1.7-0.5,2.1-1.6c1.5-4.3,4-7.3,7.5-9.1
		c2.6-1.4,5.4-2.1,8.3-2.1V179 M202,179c-3,0-6,0.7-9,2.2c-4.1,2.1-6.7,5.6-8.3,9.9c-0.1,0.4-0.3,0.6-0.7,0.6c-0.1,0-0.1,0-0.2,0
		c-0.5-0.1-0.9-0.1-1.4-0.1c-0.9,0-1.7,0.1-2.5,0.3c-7.7,1.5-12.6,8.3-11.8,16.1c0.7,7.1,5.8,12.9,13,12.9c0,0,0,0,0,0
		c2.5,0,4.9,0,7.2,0c3.6,0,7.1,0,10.8,0c0,0,0,0,0,0c4.3,0,8.7,0,12.9,0c2.6,0,5.2,0,7.6,0c0,0,0,0,0.1,0c8.4,0,14-8.1,12-14.6
		c-1.4-4.6-5.6-7.9-10.5-8.2c-0.5,0-0.7-0.2-0.7-0.7c0-0.8,0-1.6-0.1-2.4C218.9,185.3,210.8,179,202,179L202,179z"/>
</g>
<g id="XMLID_491_">
	<path id="XMLID_492_" d="M339.5,313.7c0,1.7,1.9,2.8,3.3,1.9l26.1-14.9l26.4-14.8c1.5-0.9,1.5-3,0-3.9L369,267.2l-26.1-14.9
		c-1.5-0.8-3.3,0.2-3.3,1.9V284V313.7z"/>
</g>
<path id="XMLID_493_" d="M148,28.8c0.8-28.1-30.4-26.5-30.4-26.5C79.1,4,84.2,30.2,84.2,30.2c0.5,16.3,15.5,23.2,15.5,23.2
	c1,4-4.8,8.3-4.8,8.3c6.5,0.4,13-5.2,13-5.2c4.9,1.4,13.9,0.6,13.9,0.6C149.5,54.8,148,28.8,148,28.8z M100.6,37.6
	c-3.1,0-5.6-2.5-5.6-5.6s2.5-5.6,5.6-5.6c3.1,0,5.6,2.5,5.6,5.6S103.7,37.6,100.6,37.6z M116,37.6c-3.1,0-5.6-2.5-5.6-5.6
	s2.5-5.6,5.6-5.6s5.6,2.5,5.6,5.6S119.1,37.6,116,37.6z M131.4,37.6c-3.1,0-5.6-2.5-5.6-5.6s2.5-5.6,5.6-5.6c3.1,0,5.6,2.5,5.6,5.6
	S134.5,37.6,131.4,37.6z"/>
<g id="XMLID_498_">
	<path id="XMLID_621_" d="M284.1,259.4c4.6,0,9.1,1.3,13,3.7L263.1,297c-2.4-3.9-3.7-8.3-3.7-13
		C259.4,270.4,270.5,259.4,284.1,259.4 M304.3,270c2.9,4.1,4.4,8.9,4.4,14c0,13.6-11,24.6-24.6,24.6c-5.1,0-9.8-1.5-14-4.4
		L304.3,270 M284.1,257.9c-14.4,0-26.1,11.7-26.1,26.1c0,5.7,1.9,11,5,15.3l36.5-36.5C295.1,259.7,289.8,257.9,284.1,257.9
		L284.1,257.9z M304.5,267.7l-36.7,36.7c4.5,3.6,10.1,5.7,16.3,5.7c14.4,0,26.1-11.7,26.1-26.1C310.2,277.9,308.1,272.2,304.5,267.7
		L304.5,267.7z"/>
</g>
<g id="XMLID_6361_">
	<path id="XMLID_616_" class="st0" d="M173.9,284c0-14.4,11.7-26.1,26.1-26.1c5.7,0,11,1.9,15.3,5l-36.5,36.5
		C175.8,295,173.9,289.7,173.9,284z M200.1,310.1c-6.1,0-11.8-2.1-16.3-5.7l36.7-36.7c3.6,4.5,5.7,10.1,5.7,16.3
		C226.2,298.4,214.5,310.1,200.1,310.1z"/>
</g>
<path id="XMLID_502_" d="M220.4,438c-0.9-2.8-3.5-4.8-6.4-5c-0.3,0-0.4-0.1-0.4-0.4c0-0.5,0-1-0.1-1.5c-1.1-8-9.6-12.1-16.7-8.5
	c-2.5,1.3-4.1,3.5-5.1,6.1c-0.1,0.3-0.2,0.4-0.5,0.4c-0.8-0.1-1.6-0.1-2.4,0.1c-4.7,0.9-7.8,5.1-7.3,9.9c0.3,2.9,2.1,5.4,4.6,6.8
	c0,0,0,0.1,0,0.1v3h-5.1c-4.4,0-7.9,3.4-7.9,7.8v7.4c0,4.4,3.5,7.8,7.9,7.8h5.1v5c0,2.2,1.8,4,4,4h23c2.2,0,4-1.8,4-4v-30.8
	C220,444.7,221.3,441,220.4,438z M181,469.4c-3,0-6-2.9-6-6.1v-5.4c0-3.2,3-6.2,6-6.2h5v17.8H181z M195,474.7c0,2-1.4,3.6-3.4,3.6
	s-3.4-1.6-3.4-3.6v-24.9c0-2,1.4-3.6,3.4-3.6s3.4,1.6,3.4,3.6V474.7z M204.4,474.7c0,2-1.4,3.6-3.4,3.6c-2,0-3.4-1.6-3.4-3.6v-24.9
	c0-2,1.4-3.6,3.4-3.6c2,0,3.4,1.6,3.4,3.6V474.7z M213.7,474.7c0,2-1.4,3.6-3.4,3.6s-3.4-1.6-3.4-3.6v-24.9c0-2,1.4-3.6,3.4-3.6
	s3.4,1.6,3.4,3.6V474.7z M215.4,443.3h-27.7c0,0,0,0,0,0c-1.1-1.1-1.9-2.5-2-4.1c-0.4-3.8,2-7.1,5.7-7.8c0.6-0.1,1.3-0.2,1.9-0.1
	c0.3,0,0.3,0,0.4-0.3c0.7-2.1,2-3.8,4-4.8c5.5-2.9,12.2,0.3,13.1,6.7c0.1,0.4,0.1,0.8,0.1,1.2c0,0.3,0.1,0.3,0.3,0.3
	c2.3,0.2,4.3,1.8,5,4C216.6,440.1,216.4,441.9,215.4,443.3z"/>
<g id="XMLID_509_">
	<g id="XMLID_1681_">
		<path id="XMLID_3828_" d="M307.2,465.4v3.2h-53.5v-3.2H307.2 M308.2,463.9h-55.5c-0.3,0-0.5,0.2-0.5,0.5v5.3
			c0,0.3,0.2,0.5,0.5,0.5h55.5c0.3,0,0.5-0.2,0.5-0.5v-5.3C308.7,464.2,308.5,463.9,308.2,463.9L308.2,463.9z"/>
	</g>
	<path id="XMLID_1680_" d="M311.6,470.2h-2c-0.2,0-0.4-0.2-0.4-0.4v-5.5c0-0.2,0.2-0.4,0.4-0.4h2c0.2,0,0.4,0.2,0.4,0.4v5.5
		C311.9,470,311.8,470.2,311.6,470.2z"/>
	<path id="XMLID_1679_" d="M315.2,470.2h-2.1c-0.2,0-0.3-0.1-0.3-0.3v-5.6c0-0.2,0.1-0.3,0.3-0.3h2.1c0.2,0,0.3,0.1,0.3,0.3v5.6
		C315.5,470,315.3,470.2,315.2,470.2z"/>
</g>
<g id="XMLID_512_">
	<path id="XMLID_513_" d="M705.4,484c-3.1,0-6-0.5-8.2-3.1c-1.6-1.8-2-3.8-2.4-6.1c-2.9,0-5.9,0-8.8,0c-2.7,0-7.7,1-10-1.1
		c-3.9-3.7,1.5-6.1,3.7-9c7-9.1,6.8-18.6,8.6-29.3c0.6-3.7,2.8-6.8,6-8.7c2-1.1,4.3-1.6,6.5-2.1c-0.6-2.1,0.2-4.7,3.2-4.7
		c4.5,0,3.7,4.7,3.7,4.7c3.9,0.6,8.2,2.7,10.3,6.1c4.4,7.2,2.3,17.7,5.6,25.7c1.6,3.7,3.7,7.2,6.5,10.2c2.4,2.7,6.2,6.7-0.3,8
		c-5.1,1-11.4,0.1-16.6,0.1C713,479.6,709.8,482.8,705.4,484C704.5,484,707.4,483.5,705.4,484z M703.9,481.2
		c1.6-1.3-1.2-1.4-2.1-1.8c-2.4-1-2.1-3.3-3.6-5.1C696.6,477.7,700.7,481.1,703.9,481.2C704,481.1,700.7,481.1,703.9,481.2z"/>
</g>
<circle id="XMLID_530_" cx="116" cy="536" r="32"/>
<circle id="XMLID_711_" cx="32" cy="452" r="32"/>
<circle id="XMLID_531_" cx="620" cy="368" r="32"/>
<circle id="XMLID_536_" cx="284" cy="536" r="8.1"/>
<g id="XMLID_537_">
	<path id="XMLID_538_" d="M536.3,508.1c-1.3,0-2.4,0-3.4,0.1c-1.9,0.1-3.7,0.4-5.6,0.7c-3.1,0.6-6.1,1.5-8.9,2.8
		c-4.8,2.1-9.2,4.9-13,8.5c-1.1,1-1.7,2.2-1.4,3.7c0.3,1.4,1.1,2.4,2.4,3c1.1,0.4,2.2,0.4,3.2-0.2c0.6-0.3,1-0.7,1.5-1.2
		c3.3-3.1,7.1-5.4,11.3-7.1c3.3-1.3,6.7-2.1,10.2-2.4c4.9-0.4,9.7,0.1,14.4,1.6c2.8,0.9,5.4,2.1,7.9,3.6c2.2,1.3,4.2,2.9,6.1,4.6
		c0.4,0.4,0.8,0.7,1.4,1c1.3,0.6,2.5,0.5,3.7-0.2c1.2-0.7,1.8-1.8,1.8-3.1c0.1-1.3-0.5-2.3-1.4-3.2c-1.4-1.3-2.8-2.5-4.3-3.6
		c-5.5-4-11.5-6.6-18.2-7.8C541.4,508.4,538.7,508.1,536.3,508.1z M535.7,521.2c-3.9,0-7.9,0.8-11.8,2.4c-3.7,1.5-7,3.8-10,6.6
		c-1.5,1.5-1.7,3.4-0.8,4.9c1.2,2.1,3.9,2.6,5.8,1.1c0.9-0.7,1.7-1.5,2.6-2.2c1.6-1.2,3.4-2.3,5.3-3.1c2.2-0.9,4.4-1.5,6.8-1.7
		c3.1-0.3,6.2,0,9.2,0.9c2.1,0.7,4.1,1.6,6,2.8c1.3,0.9,2.5,1.9,3.6,2.9c1,1,2.2,1.4,3.7,1.1c1.3-0.3,2.3-1.1,2.8-2.3
		c0.6-1.6,0.3-3.1-1-4.4c-0.9-0.9-1.8-1.7-2.8-2.4c-3-2.3-6.3-4-9.9-5.2C542.3,521.7,539.2,521.2,535.7,521.2z M550.6,543.1
		c0-0.9-0.3-2-0.9-2.6c-2.7-3-6.1-5-10.1-5.8c-2.4-0.5-4.7-0.5-7.1,0c-2.4,0.5-4.7,1.4-6.7,2.8c-1.4,1-2.7,2-3.7,3.4
		c-0.5,0.7-0.7,1.5-0.6,2.3c0.1,0.9,0.4,1.8,1.1,2.5c1,1.1,2.3,1.4,3.7,1.1c0.9-0.2,1.6-0.7,2.2-1.3c1.6-1.6,3.5-2.7,5.7-3.1
		c2.2-0.4,4.4-0.1,6.4,0.9c1.2,0.6,2.2,1.4,3.2,2.3c0.8,0.9,1.9,1.4,3.1,1.3C548.9,546.8,550.5,545.2,550.6,543.1z M535.9,563.9
		c1.9,0,3.5-0.4,4.9-1.3c4.5-2.7,5.1-8.7,1.3-12.2c-3.3-3-8.5-3-11.8,0c-2.9,2.6-3.4,6.9-1.1,10
		C530.9,562.8,533.3,563.8,535.9,563.9z"/>
</g>
<path id="XMLID_543_" d="M620,504c-17.7,0-32,14.3-32,32c0,17.7,14.3,32,32,32s32-14.3,32-32C652,518.3,637.7,504,620,504z
	 M623.6,557.3c-1,0.6-2.2,0.9-3.6,1c-1.9-0.1-3.7-0.8-5-2.6c-1.7-2.3-1.3-5.4,0.8-7.4c2.4-2.2,6.3-2.2,8.7,0
	C627.3,550.9,626.9,555.3,623.6,557.3z M628,545.7c-0.9,0-1.7-0.3-2.3-1c-0.7-0.7-1.4-1.3-2.3-1.7c-1.5-0.7-3.1-0.9-4.8-0.6
	c-1.7,0.3-3.1,1.1-4.2,2.3c-0.4,0.5-1,0.8-1.6,1c-1.1,0.2-2,0-2.7-0.8c-0.5-0.5-0.8-1.1-0.8-1.8c0-0.6,0.1-1.2,0.5-1.7
	c0.7-1,1.7-1.8,2.8-2.5c1.5-1,3.2-1.7,5-2.1c1.7-0.3,3.5-0.3,5.2,0c3,0.6,5.4,2,7.5,4.3c0.4,0.5,0.7,1.3,0.7,1.9
	C630.7,544.4,629.5,545.6,628,545.7z M637,536.6c-0.4,0.9-1.1,1.5-2.1,1.7c-1.1,0.2-1.9-0.1-2.7-0.8c-0.8-0.8-1.7-1.5-2.7-2.2
	c-1.4-0.9-2.9-1.6-4.4-2.1c-2.2-0.7-4.5-0.9-6.8-0.7c-1.7,0.2-3.4,0.6-5,1.3c-1.4,0.6-2.7,1.3-3.9,2.3c-0.7,0.5-1.3,1.1-1.9,1.7
	c-1.4,1.1-3.4,0.7-4.3-0.8c-0.7-1.1-0.5-2.6,0.6-3.6c2.1-2.1,4.6-3.7,7.4-4.9c2.8-1.2,5.8-1.8,8.7-1.8c2.5,0,4.8,0.3,7.1,1
	c2.7,0.8,5.1,2.1,7.3,3.8c0.7,0.6,1.4,1.2,2.1,1.8C637.2,534.3,637.5,535.4,637,536.6z M642.3,530.7c-0.9,0.5-1.8,0.6-2.7,0.2
	c-0.4-0.2-0.7-0.4-1-0.7c-1.4-1.3-2.9-2.4-4.5-3.4c-1.8-1.1-3.8-2-5.8-2.6c-3.5-1.1-7-1.5-10.6-1.1c-2.6,0.2-5.1,0.8-7.5,1.8
	c-3.1,1.2-5.9,3-8.3,5.2c-0.3,0.3-0.7,0.6-1.1,0.9c-0.8,0.4-1.6,0.4-2.4,0.1c-1-0.4-1.6-1.1-1.8-2.2c-0.2-1.1,0.2-2,1-2.8
	c2.8-2.7,6-4.8,9.6-6.3c2.1-0.9,4.3-1.6,6.6-2c1.4-0.3,2.7-0.4,4.1-0.5c0.7-0.1,1.5-0.1,2.5-0.1c1.8,0,3.8,0.2,5.8,0.6
	c4.9,0.9,9.4,2.9,13.4,5.8c1.1,0.8,2.2,1.7,3.2,2.7c0.7,0.6,1.1,1.4,1,2.4C643.6,529.4,643.1,530.2,642.3,530.7z"/>
<path id="XMLID_549_" d="M368,588c-17.7,0-32,14.3-32,32c0,17.7,14.3,32,32,32s32-14.3,32-32C400,602.3,385.7,588,368,588z
	 M352.7,642c-1.6-0.4-3-1.2-4.4-2.6c-1.8-1.9-2.7-4.4-2.3-7.3c0.6-3.8,3.9-6.5,7.9-6.3c4.5,0.2,8.2,3.9,8.4,8.4
	C362.5,639.5,357.9,643.2,352.7,642z M374.8,632.5c0,0.9-0.6,1.9-1.2,2.5c-1.5,1.5-3.8,1.4-5.4,0.1c-0.9-0.8-1.3-1.9-1.3-3.1
	c0-1.3-0.1-2.7-0.6-3.9c-0.8-2.2-2.1-3.9-4-5.2c-1.9-1.3-4-1.9-6.3-1.9c-0.9,0-1.7-0.1-2.5-0.6c-1.2-0.8-1.9-1.9-1.9-3.4
	c0-1,0.4-1.8,1-2.5c0.5-0.6,1.2-1.1,2.1-1.2c1.7-0.3,3.4-0.1,5.1,0.2c2.4,0.5,4.7,1.4,6.8,2.8c2,1.4,3.7,3,5,5
	C374,624.7,375,628.4,374.8,632.5z M387.3,637.9c-1.4,0.6-2.9,0.5-4.2-0.4c-1.4-0.9-2-2.3-2.1-3.9c-0.1-1.8-0.2-3.6-0.6-5.3
	c-0.5-2.5-1.4-4.9-2.6-7.2c-1.7-3.2-4-5.9-6.7-8.2c-2.1-1.7-4.4-3.1-6.9-4.1c-2.2-0.9-4.4-1.5-6.7-1.8c-1.3-0.2-2.6-0.1-3.9-0.3
	c-2.7-0.4-4.5-2.9-3.8-5.6c0.5-2,2.2-3.4,4.6-3.3c4.6,0.1,9.1,1,13.4,2.7c4.4,1.8,8.3,4.4,11.5,7.6c2.8,2.8,5,5.7,6.7,8.9
	c2,3.9,3.3,7.9,3.8,12.3c0.2,1.4,0.3,2.8,0.3,4.2C390.1,635.6,389.2,637.1,387.3,637.9z"/>
<g id="XMLID_554_">
	<path id="XMLID_2151_" d="M295.3,608.1c2.8,2.8,5,5.7,6.7,8.9c2,3.9,3.3,7.9,3.8,12.3c0.2,1.4,0.3,2.8,0.3,4.2c0,2-0.9,3.5-2.8,4.3
		c-1.4,0.6-2.9,0.5-4.2-0.4c-1.4-0.9-2-2.3-2.1-3.9c-0.1-1.8-0.2-3.6-0.6-5.3c-0.5-2.5-1.4-4.9-2.6-7.2c-1.7-3.2-4-5.9-6.7-8.2
		c-2.1-1.7-4.4-3.1-6.9-4.1c-2.2-0.9-4.4-1.5-6.7-1.8c-1.3-0.2-2.6-0.1-3.9-0.3c-2.7-0.4-4.5-2.9-3.8-5.6c0.5-2,2.2-3.4,4.6-3.3
		c4.6,0.1,9.1,1,13.4,2.7C288.2,602.3,292.2,604.9,295.3,608.1z"/>
	<path id="XMLID_2150_" d="M289.6,635c-1.5,1.5-3.8,1.4-5.4,0.1c-0.9-0.8-1.3-1.9-1.3-3.1c0-1.3-0.1-2.7-0.6-3.9
		c-0.8-2.2-2.1-3.9-4-5.2c-1.9-1.3-4-1.9-6.3-1.9c-0.9,0-1.7-0.1-2.5-0.6c-1.2-0.8-1.9-1.9-1.9-3.4c0-1,0.4-1.8,1-2.5
		c0.5-0.6,1.2-1.1,2.1-1.2c1.7-0.3,3.4-0.1,5.1,0.2c2.4,0.5,4.7,1.4,6.8,2.8c2,1.4,3.7,3,5,5c2.3,3.4,3.3,7.2,3.1,11.3
		C290.7,633.4,290.2,634.5,289.6,635z"/>
	<path id="XMLID_2149_" d="M264.3,639.4c-1.8-1.9-2.7-4.4-2.3-7.3c0.6-3.8,3.9-6.5,7.9-6.3c4.5,0.2,8.2,3.9,8.4,8.4
		c0.2,5.2-4.4,9-9.6,7.7C267.1,641.6,265.7,640.8,264.3,639.4z"/>
</g>
<path id="XMLID_559_" d="M387.5,102h-38.9c-6.9,0-12.5,5.6-12.5,12.5v2.9c0,6.9,5.6,12.5,12.5,12.5h38.9c6.9,0,12.5-5.6,12.5-12.5
	v-2.9C400,107.6,394.4,102,387.5,102z M385.6,127.3c-6.3,0-11.3-5.1-11.3-11.3s5.1-11.3,11.3-11.3s11.3,5.1,11.3,11.3
	S391.8,127.3,385.6,127.3z"/>
<ellipse id="XMLID_562_" cx="267.2" cy="116" rx="11.4" ry="11.3"/>
<g id="XMLID_566_">
	<polygon id="XMLID_567_" points="484,600.5 484,600.5 484,600.5 	"/>
	<polygon id="XMLID_568_" points="481.8,600.5 422.2,600.5 452,618.6 	"/>
	<polygon id="XMLID_569_" points="482.2,639.5 457,618.3 452,621.4 447,618.3 421.8,639.5 	"/>
	<polygon id="XMLID_571_" points="484,637.9 484,601.9 459.2,617 	"/>
	<polygon id="XMLID_572_" points="420,600.5 420,600.5 420,600.5 	"/>
	<polygon id="XMLID_573_" points="420,639.5 420,639.5 420,639.5 	"/>
	<polygon id="XMLID_574_" points="484,639.5 484,639.5 484,639.5 	"/>
	<polygon id="XMLID_575_" points="444.8,617 420,601.9 420,637.9 	"/>
</g>
<path id="XMLID_576_" d="M535.7,588c-17.7,0.2-31.9,14.6-31.7,32.3c0.2,17.7,14.6,31.9,32.3,31.7c17.7-0.2,31.9-14.6,31.7-32.3
	C567.8,602.1,553.4,587.8,535.7,588z M554.8,607.7L536,619.1l-18.8-11.4H554.8z M515.8,607.7L515.8,607.7L515.8,607.7L515.8,607.7z
	 M515.8,608.6l15.6,9.5l-15.6,13.2V608.6z M515.8,632.3L515.8,632.3L515.8,632.3L515.8,632.3z M517,632.3l15.8-13.4l3.2,1.9l3.2-1.9
	l15.8,13.4H517z M556.2,632.3L556.2,632.3L556.2,632.3L556.2,632.3z M556.2,631.3l-15.6-13.2l15.6-9.5V631.3z M556.2,607.7
	L556.2,607.7L556.2,607.7L556.2,607.7z"/>
<g id="XMLID_586_">
	<polygon id="XMLID_587_" points="640.2,607.7 640.2,607.7 640.2,607.7 	"/>
	<polygon id="XMLID_588_" points="638.8,607.7 601.2,607.7 620,619.1 	"/>
	<polygon id="XMLID_589_" points="639,632.3 623.2,618.9 620,620.9 616.8,618.9 601,632.3 	"/>
	<polygon id="XMLID_590_" points="640.2,631.3 640.2,608.6 624.5,618.1 	"/>
	<polygon id="XMLID_591_" points="599.8,607.7 599.8,607.7 599.8,607.7 	"/>
	<polygon id="XMLID_592_" points="599.8,632.3 599.8,632.3 599.8,632.3 	"/>
	<polygon id="XMLID_593_" points="640.2,632.3 640.2,632.3 640.2,632.3 	"/>
	<polygon id="XMLID_594_" points="615.5,618.1 599.8,608.6 599.8,631.3 	"/>
</g>
<g id="XMLID_595_">
	<path id="XMLID_832_" d="M536,8.9c0.4,4.4,0.6,8.9,0.7,13.3c0,2.2,0.1,4.4,0,6.7c0,2.2,0,4.4-0.1,6.7l-0.3-0.7
		c1.1,1.1,2.2,2.3,3.4,3.4c1.1,1.1,2.2,2.3,3.3,3.5c1.1,1.2,2.2,2.4,3.2,3.6c1.1,1.2,2.1,2.4,3.1,3.7c-1.3-1-2.5-2-3.7-3.1
		c-1.2-1-2.4-2.1-3.6-3.2c-1.2-1.1-2.4-2.1-3.5-3.2c-1.2-1.1-2.3-2.2-3.5-3.3l-0.3-0.3l0-0.4c0-2.2,0-4.4,0.1-6.7
		c0-2.2,0.1-4.4,0.2-6.6C535.2,17.7,535.5,13.3,536,8.9z"/>
</g>
<g id="XMLID_596_">
	<path id="XMLID_597_" d="M265.4,226.1v-52.2c1-0.5,1.7-1.5,1.7-2.8c0-1.7-1.4-3.1-3.1-3.1s-3.1,1.4-3.1,3.1c0,1.2,0.7,2.3,1.7,2.8
		v52.2c-1,0.5-1.7,1.5-1.7,2.8c0,1.7,1.4,3.1,3.1,3.1s3.1-1.4,3.1-3.1C267.1,227.7,266.4,226.6,265.4,226.1z"/>
	<g id="XMLID_1188_">
		<path id="XMLID_1228_" d="M267.2,199c0.2-7.6-0.1-14.7,0-22.3c0-0.8,0.1-1.7,0.5-2.5c0.7-1.1,2.2-1.3,3.5-1.4
			c4.7-0.3,9.4,0.3,13.9,1.6c3.9,1.1,7.7,2.8,11.8,3.3c4.1,0.5,8.6-0.6,10.9-4c-0.6,4.5-1,9.1-1.3,13.6c-0.3,4.6-0.3,9.3,1.6,13.5
			c-0.8-0.5-1.9-0.5-2.8-0.2s-1.7,0.8-2.6,1.2c-3.3,1.5-7.2,1.3-10.8,0.3c-3.5-1-6.8-2.6-10.2-4c-3.4-1.4-7-2.4-10.7-2.1
			c-0.9,0.1-1.8,0.2-2.5,0.7S267.1,198.1,267.2,199"/>
	</g>
</g>
<g id="XMLID_875_">
	<path id="XMLID_1196_" d="M348.9,226.1v-52.2c1-0.5,1.7-1.5,1.7-2.8c0-1.7-1.4-3.1-3.1-3.1s-3.1,1.4-3.1,3.1c0,1.2,0.7,2.3,1.7,2.8
		v52.2c-1,0.5-1.7,1.5-1.7,2.8c0,1.7,1.4,3.1,3.1,3.1s3.1-1.4,3.1-3.1C350.6,227.7,349.9,226.6,348.9,226.1z"/>
	<path id="XMLID_876_" class="st2" d="M350.7,199c0.2-7.6-0.1-14.7,0-22.3c0-0.8,0.1-1.7,0.5-2.5c0.7-1.1,2.2-1.3,3.5-1.4
		c4.7-0.3,9.4,0.3,13.9,1.6c3.9,1.1,7.7,2.8,11.8,3.3c4.1,0.5,8.6-0.6,10.9-4c-0.6,4.5-1,9.1-1.3,13.6c-0.3,4.6-0.3,9.3,1.6,13.5
		c-0.8-0.5-1.9-0.5-2.8-0.2s-1.7,0.8-2.6,1.2c-3.3,1.5-7.2,1.3-10.8,0.3c-3.5-1-6.8-2.6-10.2-4c-3.4-1.4-7-2.4-10.7-2.1
		c-0.9,0.1-1.8,0.2-2.5,0.7C351.2,197.3,350.7,198.1,350.7,199"/>
</g>
<g id="XMLID_599_">
	<path id="XMLID_600_" d="M358.3,520.1c-1.6,3.9-2.5,7.7-3,11.3h26.5c-0.5-3.6-1.4-7.4-3-11.3H358.3z"/>
	<path id="XMLID_601_" d="M356.3,547.3h24.4c0.9-3.4,1.5-7.2,1.4-11.3H355C354.9,540.1,355.4,543.9,356.3,547.3z"/>
	<path id="XMLID_602_" d="M367.8,504.1c-3.1,3.9-5.5,7.7-7.4,11.3h16.3c-1.9-3.6-4.3-7.4-7.3-11.3c-0.5,0-1,0-1.4,0
		C367.9,504.1,367.9,504.1,367.8,504.1z"/>
	<path id="XMLID_603_" d="M374.3,504.7c2.6,3.7,4.7,7.2,6.3,10.7h11.7C387.8,510,381.5,506.2,374.3,504.7z"/>
	<path id="XMLID_604_" d="M384.2,547.3h13.6c1.3-3.5,2.1-7.3,2.1-11.3h-14.3C385.6,540,385.1,543.8,384.2,547.3z"/>
	<path id="XMLID_605_" d="M385.3,531.4h14.3c-0.6-4.1-2-7.9-3.9-11.3h-13C384,524,384.9,527.8,385.3,531.4z"/>
	<path id="XMLID_606_" d="M363,567.5c-2.7-3.4-6.3-8.7-8.7-15.6h-13.9C345.1,560.1,353.3,566,363,567.5z"/>
	<path id="XMLID_607_" d="M363,504.5c-7.7,1.2-14.5,5.2-19.4,10.9h12.8C358.2,511.9,360.3,508.2,363,504.5z"/>
	<path id="XMLID_608_" d="M382.8,551.9c-2.4,6.7-5.9,12-8.6,15.4c9.1-1.8,16.9-7.5,21.4-15.4H382.8z"/>
	<path id="XMLID_609_" d="M369,567.9c2.1-2.2,7-7.8,10.2-15.9h-21.4c3.1,8.1,8,13.7,10.2,16c0,0,0,0,0,0
		C368.3,567.9,368.7,567.9,369,567.9z"/>
	<path id="XMLID_610_" d="M336.4,531.4h15.4c0.4-3.6,1.3-7.4,2.7-11.3h-14.2C338.4,523.5,337,527.3,336.4,531.4z"/>
	<path id="XMLID_611_" d="M352.9,547.3c-0.9-3.5-1.4-7.3-1.3-11.3h-15.5c0,4,0.7,7.8,2.1,11.3H352.9z"/>
</g>
<g id="XMLID_612_">
	<path id="XMLID_613_" d="M679.5,593.8c4.4,5.5,8.7,10.9,12.9,16.1c-0.3,0.7-0.7,1.2-0.9,1.8c-0.3,1.1,0.1,2.1,0.5,3.1
		c1,2.3,2.4,4.3,3.8,6.2c3.2,4.5,6.8,8.6,11,12.2c0.4,0.4,0.9,0.7,1.4,1c1.2,0.8,2.4,1.1,3.7,0.1c4.2,5.3,8.4,10.6,12.6,15.9
		c-0.7,0.6-1.5,0.9-2.3,1.1c-2.9,0.7-5.8,0.4-8.7-0.4c-4.6-1.3-8.6-3.8-12.3-6.7c-5.7-4.5-10.3-10-14.5-15.8
		c-2.7-3.8-5.1-7.8-7-12.1c-1.9-4.3-3.2-8.8-3-13.6c0.1-2.8,0.6-5.5,2.2-8c0.1-0.2,0.3-0.4,0.5-0.7
		C679.3,594.1,679.4,594,679.5,593.8"/>
	<path id="XMLID_614_" d="M694.4,608.5c-4.3-5.4-8.6-10.8-13-16.3c0.1-0.1,0.3-0.1,0.4-0.2c1.3-1.1,2.6-2.1,3.9-3.2
		c1.3-1,2.5-0.9,3.6,0.4c3.2,4,6.5,8,9.7,12.1c1.2,1.5,1,2.7-0.4,3.9C697.2,606.3,695.8,607.4,694.4,608.5"/>
	<path id="XMLID_615_" d="M726.1,648.7c-4.2-5.3-8.4-10.6-12.7-15.9c0.6-0.5,1.3-1,1.9-1.5c0.8-0.6,1.6-1.3,2.4-1.9
		c1.3-1.1,2.6-0.9,3.7,0.4c3.1,3.9,6.3,7.9,9.4,11.8c1.1,1.4,1,2.6-0.4,3.7C729,646.5,727.6,647.5,726.1,648.7"/>
</g>
<path id="XMLID_626_" d="M32,672.1c-17.6,0-31.9,14.3-31.9,31.9s14.3,31.9,31.9,31.9c17.6,0,31.9-14.3,31.9-31.9
	S49.6,672.1,32,672.1z M17.4,685.6c0.9-0.7,1.7-1.4,2.6-2.1c0.8-0.7,1.7-0.6,2.3,0.3c2.1,2.6,4.3,5.3,6.4,7.9c0.8,1,0.7,1.8-0.3,2.6
	c-0.9,0.7-1.8,1.4-2.7,2.2c-2.9-3.6-5.7-7.1-8.6-10.7C17.2,685.7,17.3,685.7,17.4,685.6z M43.9,724.6c-1.9,0.5-3.8,0.3-5.7-0.3
	c-3-0.9-5.7-2.5-8.1-4.4c-3.7-3-6.8-6.6-9.5-10.4c-1.8-2.5-3.4-5.1-4.6-7.9c-1.2-2.8-2.1-5.8-2-8.9c0-1.9,0.4-3.6,1.4-5.2
	c0.1-0.1,0.2-0.3,0.3-0.4c0.1-0.1,0.1-0.1,0.2-0.3c2.9,3.6,5.7,7.1,8.5,10.6c-0.2,0.4-0.5,0.8-0.6,1.2c-0.2,0.7,0.1,1.4,0.3,2.1
	c0.7,1.5,1.6,2.8,2.5,4.1c2.1,2.9,4.5,5.6,7.2,8c0.3,0.2,0.6,0.5,0.9,0.7c0.8,0.5,1.6,0.7,2.4,0c2.8,3.5,5.5,6.9,8.3,10.4
	C44.9,724.3,44.4,724.5,43.9,724.6z M49.3,720.6c-0.9,0.7-1.8,1.5-2.8,2.2c-2.8-3.5-5.5-7-8.3-10.5c0.4-0.3,0.8-0.7,1.2-1
	c0.5-0.4,1-0.8,1.6-1.2c0.9-0.7,1.7-0.6,2.4,0.3c2.1,2.6,4.1,5.2,6.2,7.8C50.3,719.1,50.2,719.9,49.3,720.6z"/>
<g id="XMLID_631_">
	<path id="XMLID_632_" d="M112.7,691.7c-2.1-2.6-4.3-5.3-6.4-7.9c-0.7-0.8-1.5-0.9-2.3-0.3c-0.9,0.7-1.7,1.4-2.6,2.1
		c-0.1,0.1-0.2,0.1-0.3,0.2c2.9,3.6,5.7,7.1,8.6,10.7c0.9-0.7,1.8-1.5,2.7-2.2C113.4,693.5,113.5,692.7,112.7,691.7z"/>
	<path id="XMLID_633_" d="M130.5,722.9c1-0.8,1.9-1.5,2.8-2.2c0.9-0.7,1-1.5,0.3-2.5c-2-2.6-4.1-5.2-6.2-7.8c-0.7-0.9-1.5-1-2.4-0.3
		c-0.5,0.4-1,0.8-1.6,1.2c-0.4,0.3-0.8,0.6-1.2,1C125,715.9,127.7,719.4,130.5,722.9z"/>
	<path id="XMLID_634_" d="M97.9,692.7c-0.1,3.1,0.8,6.1,2,8.9c1.2,2.8,2.8,5.4,4.6,7.9c2.8,3.8,5.8,7.4,9.5,10.4
		c2.4,2,5.1,3.6,8.1,4.4c1.9,0.5,3.8,0.7,5.7,0.3c0.5-0.1,1.1-0.3,1.5-0.7c-2.8-3.5-5.5-7-8.3-10.4c-0.8,0.6-1.6,0.5-2.4,0
		c-0.3-0.2-0.6-0.4-0.9-0.7c-2.7-2.4-5.1-5.1-7.2-8c-0.9-1.3-1.9-2.6-2.5-4.1c-0.3-0.7-0.6-1.3-0.3-2.1c0.1-0.4,0.4-0.8,0.6-1.2
		c-2.8-3.5-5.6-7-8.5-10.6c-0.1,0.1-0.2,0.2-0.2,0.3c-0.1,0.1-0.2,0.3-0.3,0.4C98.3,689.1,98,690.8,97.9,692.7z"/>
</g>
<path id="XMLID_635_" d="M-25.9,672h-52.2c-3.2,0-5.9,2.6-5.9,5.9v52.2c0,3.2,2.6,5.9,5.9,5.9h52.2c3.2,0,5.9-2.6,5.9-5.9v-52.2
	C-20,674.6-22.6,672-25.9,672z M-66.6,685.6c0.9-0.7,1.7-1.4,2.6-2.1c0.8-0.7,1.7-0.6,2.3,0.3c2.1,2.6,4.3,5.3,6.4,7.9
	c0.8,1,0.7,1.8-0.3,2.6c-0.9,0.7-1.8,1.4-2.7,2.2c-2.9-3.6-5.7-7.1-8.6-10.7C-66.8,685.7-66.7,685.7-66.6,685.6z M-40.1,724.6
	c-1.9,0.5-3.8,0.3-5.7-0.3c-3-0.9-5.7-2.5-8.1-4.4c-3.7-3-6.8-6.6-9.5-10.4c-1.8-2.5-3.4-5.1-4.6-7.9c-1.2-2.8-2.1-5.8-2-8.9
	c0-1.9,0.4-3.6,1.4-5.2c0.1-0.1,0.2-0.3,0.3-0.4c0.1-0.1,0.1-0.1,0.2-0.3c2.9,3.6,5.7,7.1,8.5,10.6c-0.2,0.4-0.5,0.8-0.6,1.2
	c-0.2,0.7,0.1,1.4,0.3,2.1c0.7,1.5,1.6,2.8,2.5,4.1c2.1,2.9,4.5,5.6,7.2,8c0.3,0.2,0.6,0.5,0.9,0.7c0.8,0.5,1.6,0.7,2.4,0
	c2.8,3.5,5.5,6.9,8.3,10.4C-39.1,724.3-39.6,724.5-40.1,724.6z M-34.7,720.6c-0.9,0.7-1.8,1.5-2.8,2.2c-2.8-3.5-5.5-7-8.3-10.5
	c0.4-0.3,0.8-0.7,1.2-1c0.5-0.4,1-0.8,1.6-1.2c0.9-0.7,1.7-0.6,2.4,0.3c2.1,2.6,4.1,5.2,6.2,7.8C-33.7,719.1-33.8,719.9-34.7,720.6z
	"/>
<g id="XMLID_640_">
	<path id="XMLID_968_" d="M392.3,9.5h-5.5v1.3c0,1.9-1.5,3.4-3.4,3.4h-2.3c-1.9,0-3.4-1.5-3.4-3.4V9.5h-20.5v1.3
		c0,1.9-1.5,3.4-3.4,3.4h-2.3c-1.9,0-3.4-1.5-3.4-3.4V9.5h-4.5c-3.3,0-6,2.7-6,6V58c0,3.3,2.7,6,6,6h48.6c3.3,0,6-2.7,6-6V15.6
		C398.3,12.2,395.6,9.5,392.3,9.5z"/>
	<path id="XMLID_641_" class="st0" d="M393.3,60.5h-50.7c-1.1,0-2-0.9-2-2V15c0-1.1,0.9-2,2-2h50.7c1.1,0,2,0.9,2,2v43.6
		C395.3,59.6,394.4,60.5,393.3,60.5z"/>
	<path id="XMLID_642_" d="M351.7,0c-1.2,0-2.2,1-2.2,2.2v8c0,1.2,1,2.2,2.2,2.2h2.1c1.2,0,2.2-1,2.2-2.2v-8c0-1.2-1-2.2-2.2-2.2
		H351.7z"/>
	<path id="XMLID_644_" d="M381.2,0c-1.2,0-2.2,1-2.2,2.2v8c0,1.2,1,2.2,2.2,2.2h2.1c1.2,0,2.2-1,2.2-2.2v-8c0-1.2-1-2.2-2.2-2.2
		H381.2z"/>
	<g id="XMLID_965_">
		<g id="XMLID_646_">
			<path id="XMLID_871_" d="M353.3,24.8c2,0,3.6,1.6,3.6,3.6v0.1c0,2-1.6,3.6-3.6,3.6s-3.6-1.6-3.6-3.6v-0.1
				C349.7,26.4,351.3,24.8,353.3,24.8 M353.3,23.8c-2.5,0-4.6,2.1-4.6,4.6v0.1c0,2.5,2.1,4.6,4.6,4.6c2.5,0,4.6-2.1,4.6-4.6v-0.1
				C357.9,25.8,355.8,23.8,353.3,23.8L353.3,23.8z"/>
		</g>
		<g id="XMLID_647_">
			<path id="XMLID_867_" d="M368,24.8c2,0,3.6,1.6,3.6,3.6v0.1c0,2-1.6,3.6-3.6,3.6s-3.6-1.6-3.6-3.6v-0.1
				C364.4,26.4,366,24.8,368,24.8 M368,23.8L368,23.8c-2.5,0-4.6,2.1-4.6,4.6v0.1c0,2.5,2.1,4.6,4.6,4.6l0,0c2.5,0,4.6-2.1,4.6-4.6
				v-0.1C372.6,25.8,370.5,23.8,368,23.8L368,23.8z"/>
		</g>
		<g id="XMLID_648_">
			<path id="XMLID_863_" d="M382.7,24.8c2,0,3.6,1.6,3.6,3.6v0.1c0,2-1.6,3.6-3.6,3.6s-3.6-1.6-3.6-3.6v-0.1
				C379.1,26.4,380.8,24.8,382.7,24.8 M382.7,23.8L382.7,23.8c-2.5,0-4.6,2.1-4.6,4.6v0.1c0,2.5,2.1,4.6,4.6,4.6l0,0
				c2.5,0,4.6-2.1,4.6-4.6v-0.1C387.3,25.8,385.3,23.8,382.7,23.8L382.7,23.8z"/>
		</g>
		<g id="XMLID_649_">
			<path id="XMLID_859_" d="M353.3,41.2c2,0,3.6,1.6,3.6,3.6v0.1c0,2-1.6,3.6-3.6,3.6s-3.6-1.6-3.6-3.6v-0.1
				C349.7,42.8,351.3,41.2,353.3,41.2 M353.3,40.2c-2.5,0-4.6,2.1-4.6,4.6v0.1c0,2.5,2.1,4.6,4.6,4.6c2.5,0,4.6-2.1,4.6-4.6v-0.1
				C357.9,42.3,355.8,40.2,353.3,40.2L353.3,40.2z"/>
		</g>
		<g id="XMLID_650_">
			<path id="XMLID_855_" d="M368,41.2c2,0,3.6,1.6,3.6,3.6v0.1c0,2-1.6,3.6-3.6,3.6s-3.6-1.6-3.6-3.6v-0.1
				C364.4,42.8,366,41.2,368,41.2 M368,40.2L368,40.2c-2.5,0-4.6,2.1-4.6,4.6v0.1c0,2.5,2.1,4.6,4.6,4.6l0,0c2.5,0,4.6-2.1,4.6-4.6
				v-0.1C372.6,42.3,370.5,40.2,368,40.2L368,40.2z"/>
		</g>
		<g id="XMLID_651_">
			<path id="XMLID_851_" d="M382.7,41.2c2,0,3.6,1.6,3.6,3.6v0.1c0,2-1.6,3.6-3.6,3.6s-3.6-1.6-3.6-3.6v-0.1
				C379.1,42.8,380.8,41.2,382.7,41.2 M382.7,40.2L382.7,40.2c-2.5,0-4.6,2.1-4.6,4.6v0.1c0,2.5,2.1,4.6,4.6,4.6l0,0
				c2.5,0,4.6-2.1,4.6-4.6v-0.1C387.3,42.3,385.3,40.2,382.7,40.2L382.7,40.2z"/>
		</g>
	</g>
</g>
<g id="XMLID_652_">
	<g id="XMLID_653_">
		<path id="XMLID_1574_" d="M315.9,368.3c0,2-0.2,4.3-0.6,6.6c-0.9,5.6-2.9,10.7-5.9,15.3c-0.8,1.3-1.7,2.5-2.7,3.7
			c-0.6,0.8-1.4,1.2-2.4,1.2c-1-0.1-1.8-0.6-2.3-1.6c-0.6-1-0.6-2.1-0.2-3.1c0.2-0.4,0.4-0.8,0.7-1.2c1.3-1.6,2.5-3.3,3.5-5.2
			c1.1-2.1,2-4.3,2.7-6.7c1.1-4,1.5-8,1.2-12.1c-0.2-3-0.8-5.8-1.8-8.6c-1.2-3.5-3-6.7-5.3-9.5c-0.3-0.4-0.6-0.8-0.9-1.3
			c-0.4-0.9-0.4-1.8-0.1-2.7c0.4-1.1,1.2-1.8,2.2-2c1.1-0.2,2,0.3,2.8,1.2c2.7,3.2,4.8,6.9,6.4,11c0.9,2.4,1.6,5,2.1,7.6
			c0.3,1.6,0.4,3.1,0.5,4.7C315.9,366.3,315.9,367.1,315.9,368.3z"/>
		<path id="XMLID_1573_" d="M306.1,367.8c0,2.9-0.3,5.5-1,8.1c-0.9,3-2.1,5.8-3.9,8.4c-0.6,0.8-1.2,1.6-1.8,2.4
			c-0.9,1.1-2,1.3-3.3,0.8c-0.9-0.4-1.5-1.2-1.7-2.4c-0.2-1.2,0.1-2.2,0.8-3.1c0.8-1,1.5-2,2.2-3.1c0.9-1.6,1.6-3.3,2.1-5.1
			c0.7-2.5,0.9-5.1,0.7-7.8c-0.2-2-0.6-3.9-1.3-5.7c-0.6-1.6-1.4-3.1-2.3-4.4c-0.5-0.8-1.2-1.4-1.7-2.2c-1.1-1.6-0.7-3.9,0.8-4.9
			c1.2-0.8,2.6-0.6,3.7,0.7c2.1,2.5,3.8,5.3,4.9,8.4C305.5,361.1,306.2,364.5,306.1,367.8z"/>
		<path id="XMLID_1572_" d="M289.8,380.3c-1.6,0-2.8-1.4-2.9-3.2c0-1,0.3-1.9,1-2.6c0.7-0.8,1.3-1.7,1.7-2.7c0.7-1.7,1-3.6,0.6-5.4
			c-0.3-1.9-1.1-3.5-2.3-4.8c-0.5-0.5-0.8-1.1-1-1.8c-0.2-1.2,0-2.3,0.8-3.1c0.5-0.6,1.2-0.9,1.9-0.9c0.6,0,1.2,0.1,1.7,0.5
			c1,0.9,1.8,2,2.6,3.2c1,1.7,1.7,3.6,2.1,5.7c0.3,2,0.3,4,0,6c-0.6,3.4-2,6.2-4.3,8.5C291.3,380,290.5,380.3,289.8,380.3z"/>
	</g>
	<path id="XMLID_654_" d="M283.5,344.2c-0.2-0.1-0.4-0.2-0.6-0.2c-0.3,0-0.5,0.1-0.8,0.2L265,356.2l-9.8,0.1c-1.4,0-2.6,0.9-3.1,2.1
		v18c0.4,1.4,1.7,2.4,3.2,2.4l9.6-0.1l17.2,12c0.2,0.2,0.5,0.2,0.8,0.2c0.2,0,0.4-0.1,0.6-0.2c0.4-0.2,0.7-0.7,0.7-1.2v-44.3
		C284.2,344.9,284,344.4,283.5,344.2z"/>
</g>
<g id="XMLID_655_">
	<g id="XMLID_656_">
		<path id="XMLID_657_" d="M557.2,385.4c-2.2-0.1-3.8-1.9-3.9-4.3c-0.1-1.4,0.4-2.6,1.3-3.6c1-1.1,1.8-2.3,2.4-3.6
			c1-2.4,1.3-4.8,0.9-7.4c-0.4-2.6-1.5-4.8-3.1-6.6c-0.6-0.7-1.1-1.5-1.3-2.5c-0.3-1.7,0-3.1,1.1-4.3c0.7-0.8,1.6-1.2,2.5-1.2
			c0.8-0.1,1.6,0.2,2.3,0.7c1.4,1.2,2.5,2.7,3.5,4.3c1.4,2.3,2.3,4.9,2.8,7.7c0.5,2.7,0.5,5.4,0,8.1c-0.8,4.6-2.8,8.5-5.9,11.6
			C559.2,385.1,558.1,385.5,557.2,385.4z"/>
	</g>
	<path id="XMLID_658_" d="M548.7,336.3c-0.3-0.1-0.6-0.2-0.8-0.2c-0.4,0-0.7,0.1-1,0.3l-23.4,16.2l-13.3,0.1c-1.9,0-3.6,1.2-4.2,2.9
		v24.5c0.6,1.9,2.3,3.3,4.4,3.3l13.1-0.1l23.4,16.3c0.3,0.2,0.7,0.3,1,0.3c0.3,0,0.6-0.1,0.8-0.2c0.6-0.3,1-0.9,1-1.6v-60.2
		C549.6,337.2,549.3,336.6,548.7,336.3z"/>
</g>
<g id="XMLID_659_">
	<g id="XMLID_660_">
		<path id="XMLID_661_" class="st0" d="M633,377.5c-1.2,0-2.1-1.1-2.1-2.3c0-0.8,0.2-1.4,0.7-1.9c0.5-0.6,1-1.2,1.3-2
			c0.5-1.3,0.7-2.6,0.5-4c-0.2-1.4-0.8-2.6-1.7-3.6c-0.4-0.4-0.6-0.8-0.7-1.4c-0.2-0.9,0-1.7,0.6-2.3c0.4-0.4,0.9-0.6,1.4-0.7
			c0.5,0,0.9,0.1,1.3,0.4c0.8,0.6,1.4,1.5,1.9,2.3c0.8,1.3,1.3,2.7,1.5,4.2c0.3,1.5,0.3,2.9,0,4.4c-0.4,2.5-1.5,4.6-3.2,6.3
			C634.1,377.3,633.5,377.5,633,377.5z"/>
	</g>
	<path id="XMLID_662_" class="st0" d="M625.5,350.7c-0.1-0.1-0.3-0.1-0.5-0.1c-0.2,0-0.4,0.1-0.6,0.2l-12.7,8.8l-7.2,0
		c-1,0-1.9,0.7-2.3,1.6v13.3c0.3,1,1.3,1.8,2.4,1.8l7.1,0l12.8,8.9c0.2,0.1,0.4,0.2,0.6,0.2c0.2,0,0.3,0,0.5-0.1
		c0.3-0.2,0.5-0.5,0.5-0.9v-32.8C626,351.2,625.8,350.9,625.5,350.7z"/>
</g>
<g id="XMLID_668_">
	<g id="XMLID_670_">
		<path id="XMLID_671_" class="st0" d="M717,377.5c-1.2,0-2.1-1.1-2.1-2.3c0-0.8,0.2-1.4,0.7-1.9c0.5-0.6,1-1.2,1.3-2
			c0.5-1.3,0.7-2.6,0.5-4c-0.2-1.4-0.8-2.6-1.7-3.6c-0.4-0.4-0.6-0.8-0.7-1.4c-0.2-0.9,0-1.7,0.6-2.3c0.4-0.4,0.9-0.6,1.4-0.7
			c0.5,0,0.9,0.1,1.3,0.4c0.8,0.6,1.4,1.5,1.9,2.3c0.8,1.3,1.3,2.7,1.5,4.2c0.3,1.5,0.3,2.9,0,4.4c-0.4,2.5-1.5,4.6-3.2,6.3
			C718.1,377.3,717.5,377.5,717,377.5z"/>
	</g>
	<path id="XMLID_669_" class="st0" d="M709.5,350.7c-0.1-0.1-0.3-0.1-0.5-0.1c-0.2,0-0.4,0.1-0.6,0.2l-12.7,8.8l-7.2,0
		c-1,0-1.9,0.7-2.3,1.6v13.3c0.3,1,1.3,1.8,2.4,1.8l7.1,0l12.8,8.9c0.2,0.1,0.4,0.2,0.6,0.2c0.2,0,0.3,0,0.5-0.1
		c0.3-0.2,0.5-0.5,0.5-0.9v-32.8C710,351.2,709.8,350.9,709.5,350.7z"/>
</g>
<g id="XMLID_663_">
	<path id="XMLID_664_" d="M-47,424.5c-0.2-0.1-0.5-0.2-0.7-0.2c-0.3,0-0.6,0.1-0.9,0.3l-20.3,14.1l-11.5,0.1c-1.7,0-3.1,1.1-3.7,2.5
		v21.2c0.5,1.7,2,2.9,3.8,2.9l11.3-0.1l20.3,14.1c0.3,0.2,0.6,0.3,0.9,0.3c0.3,0,0.5-0.1,0.7-0.2c0.5-0.3,0.9-0.8,0.9-1.4v-52.2
		C-46.2,425.3-46.5,424.8-47,424.5z"/>
	<path id="XMLID_665_" d="M-26.3,452.6l5.6-5.6c1.1-1.1,1.1-2.9,0-4l-0.9-0.9c-1.1-1.1-2.9-1.1-4,0l-5.6,5.6l-5.6-5.6
		c-1.1-1.1-2.9-1.1-4,0l-0.9,0.9c-1.1,1.1-1.1,2.9,0,4l5.6,5.6l-5.6,5.6c-1.1,1.1-1.1,2.9,0,4l0.9,0.9c1.1,1.1,2.9,1.1,4,0l5.6-5.6
		l5.6,5.6c1.1,1.1,2.9,1.1,4,0l0.9-0.9c1.1-1.1,1.1-2.9,0-4L-26.3,452.6z"/>
</g>
<g id="XMLID_738_">
	<path id="XMLID_740_" class="st0" d="M35.1,434.7c-0.1-0.1-0.3-0.1-0.5-0.1c-0.2,0-0.4,0.1-0.6,0.2l-12.7,8.8l-7.2,0
		c-1,0-1.9,0.7-2.3,1.6v13.3c0.3,1,1.3,1.8,2.4,1.8l7.1,0l12.7,8.9c0.2,0.1,0.4,0.2,0.6,0.2c0.2,0,0.3,0,0.5-0.1
		c0.3-0.2,0.5-0.5,0.5-0.9v-32.7C35.6,435.3,35.4,434.9,35.1,434.7z"/>
	<path id="XMLID_739_" class="st0" d="M48.1,452.4l3.5-3.5c0.7-0.7,0.7-1.8,0-2.5l-0.6-0.6c-0.7-0.7-1.8-0.7-2.5,0l-3.5,3.5
		l-3.5-3.5c-0.7-0.7-1.8-0.7-2.5,0l-0.6,0.6c-0.7,0.7-0.7,1.8,0,2.5l3.5,3.5l-3.5,3.5c-0.7,0.7-0.7,1.8,0,2.5l0.6,0.6
		c0.7,0.7,1.8,0.7,2.5,0l3.5-3.5l3.5,3.5c0.7,0.7,1.8,0.7,2.5,0l0.6-0.6c0.7-0.7,0.7-1.8,0-2.5L48.1,452.4z"/>
</g>
<g id="XMLID_924_">
	<path id="XMLID_926_" class="st0" d="M119.1,434.7c-0.1-0.1-0.3-0.1-0.5-0.1c-0.2,0-0.4,0.1-0.6,0.2l-12.7,8.8l-7.2,0
		c-1,0-1.9,0.7-2.3,1.6v13.3c0.3,1,1.3,1.8,2.4,1.8l7.1,0l12.7,8.9c0.2,0.1,0.4,0.2,0.6,0.2c0.2,0,0.3,0,0.5-0.1
		c0.3-0.2,0.5-0.5,0.5-0.9v-32.7C119.6,435.3,119.4,434.9,119.1,434.7z"/>
	<path id="XMLID_925_" class="st0" d="M132.1,452.4l3.5-3.5c0.7-0.7,0.7-1.8,0-2.5l-0.6-0.6c-0.7-0.7-1.8-0.7-2.5,0l-3.5,3.5
		l-3.5-3.5c-0.7-0.7-1.8-0.7-2.5,0l-0.6,0.6c-0.7,0.7-0.7,1.8,0,2.5l3.5,3.5l-3.5,3.5c-0.7,0.7-0.7,1.8,0,2.5l0.6,0.6
		c0.7,0.7,1.8,0.7,2.5,0l3.5-3.5l3.5,3.5c0.7,0.7,1.8,0.7,2.5,0l0.6-0.6c0.7-0.7,0.7-1.8,0-2.5L132.1,452.4z"/>
</g>
<path id="XMLID_666_" d="M478.1,336h-52.2c-3.2,0-5.9,2.6-5.9,5.9v52.2c0,3.2,2.6,5.9,5.9,5.9h52.2c3.2,0,5.9-2.6,5.9-5.9v-52.2
	C484,338.6,481.4,336,478.1,336z M452.2,384c0,0.4-0.2,0.7-0.5,0.9c-0.1,0.1-0.3,0.1-0.5,0.1c-0.2,0-0.4-0.1-0.6-0.2l-12.8-8.9
	l-7.1,0c-1.1,0-2.1-0.8-2.4-1.8v-13.3c0.4-0.9,1.3-1.6,2.3-1.6l7.2,0l12.7-8.8c0.2-0.1,0.4-0.2,0.6-0.2c0.2,0,0.3,0,0.5,0.1
	c0.3,0.2,0.5,0.5,0.5,0.9V384z M456.3,377.1c-1.2,0-2.1-1.1-2.1-2.3c0-0.8,0.2-1.4,0.7-1.9c0.5-0.6,1-1.2,1.3-2
	c0.5-1.3,0.7-2.6,0.5-4c-0.2-1.4-0.8-2.6-1.7-3.6c-0.4-0.4-0.6-0.8-0.7-1.4c-0.2-0.9,0-1.7,0.6-2.3c0.4-0.4,0.9-0.6,1.4-0.7
	c0.5,0,0.9,0.1,1.3,0.4c0.8,0.6,1.4,1.5,1.9,2.3c0.8,1.3,1.3,2.7,1.5,4.2c0.3,1.5,0.3,2.9,0,4.4c-0.4,2.5-1.5,4.6-3.2,6.3
	C457.4,376.9,456.8,377.1,456.3,377.1z M463.4,381.8c-0.7,0.8-1.5,1-2.4,0.6c-0.7-0.3-1.1-0.9-1.3-1.8c-0.2-0.9,0.1-1.6,0.6-2.3
	c0.6-0.7,1.1-1.5,1.6-2.3c0.7-1.2,1.2-2.4,1.6-3.7c0.5-1.9,0.7-3.8,0.5-5.8c-0.1-1.5-0.4-2.9-0.9-4.2c-0.4-1.2-1-2.3-1.7-3.3
	c-0.4-0.6-0.9-1.1-1.2-1.6c-0.8-1.2-0.6-2.9,0.6-3.6c0.9-0.6,1.9-0.4,2.7,0.5c1.6,1.8,2.8,3.9,3.6,6.2c0.9,2.4,1.3,4.9,1.3,7.4
	c0,2.2-0.2,4.1-0.8,6c-0.6,2.3-1.6,4.3-2.9,6.2C464.3,380.7,463.9,381.2,463.4,381.8z M475.2,373.1c-0.7,4.2-2.1,7.9-4.3,11.4
	c-0.6,1-1.3,1.9-2,2.7c-0.5,0.6-1.1,0.9-1.8,0.9c-0.7-0.1-1.3-0.4-1.7-1.2c-0.4-0.7-0.4-1.5-0.1-2.3c0.1-0.3,0.3-0.6,0.5-0.9
	c1-1.2,1.8-2.5,2.6-3.8c0.8-1.6,1.5-3.2,2-4.9c0.8-2.9,1.1-5.9,0.9-9c-0.2-2.2-0.6-4.3-1.3-6.4c-0.9-2.6-2.2-5-3.9-7.1
	c-0.2-0.3-0.5-0.6-0.6-0.9c-0.3-0.7-0.3-1.3-0.1-2c0.3-0.8,0.9-1.3,1.7-1.5c0.8-0.2,1.5,0.2,2.1,0.9c2,2.4,3.6,5.1,4.7,8.1
	c0.7,1.8,1.2,3.7,1.5,5.6c0.2,1.1,0.3,2.3,0.4,3.5c0,0.6,0.1,1.3,0.1,2.1C475.6,369.7,475.5,371.4,475.2,373.1z"/>
<path id="XMLID_676_" d="M368,336c-17.7,0-32,14.3-32,32c0,17.7,14.3,32,32,32s32-14.3,32-32C400,350.3,385.7,336,368,336z
	 M368.2,384c0,0.4-0.2,0.7-0.5,0.9c-0.1,0.1-0.3,0.1-0.5,0.1c-0.2,0-0.4-0.1-0.6-0.2l-12.8-8.9l-7.1,0c-1.1,0-2.1-0.8-2.4-1.8v-13.3
	c0.4-0.9,1.3-1.6,2.3-1.6l7.2,0l12.7-8.8c0.2-0.1,0.4-0.2,0.6-0.2c0.2,0,0.3,0,0.5,0.1c0.3,0.2,0.5,0.5,0.5,0.9V384z M372.3,377.1
	c-1.2,0-2.1-1.1-2.1-2.3c0-0.8,0.2-1.4,0.7-1.9c0.5-0.6,1-1.2,1.3-2c0.5-1.3,0.7-2.6,0.5-4c-0.2-1.4-0.8-2.6-1.7-3.6
	c-0.4-0.4-0.6-0.8-0.7-1.4c-0.2-0.9,0-1.7,0.6-2.3c0.4-0.4,0.9-0.6,1.4-0.7c0.5,0,0.9,0.1,1.3,0.4c0.8,0.6,1.4,1.5,1.9,2.3
	c0.8,1.3,1.3,2.7,1.5,4.2c0.3,1.5,0.3,2.9,0,4.4c-0.4,2.5-1.5,4.6-3.2,6.3C373.4,376.9,372.8,377.1,372.3,377.1z M379.4,381.8
	c-0.7,0.8-1.5,1-2.4,0.6c-0.7-0.3-1.1-0.9-1.3-1.8c-0.2-0.9,0.1-1.6,0.6-2.3c0.6-0.7,1.1-1.5,1.6-2.3c0.7-1.2,1.2-2.4,1.6-3.7
	c0.5-1.9,0.7-3.8,0.5-5.8c-0.1-1.5-0.4-2.9-0.9-4.2c-0.4-1.2-1-2.3-1.7-3.3c-0.4-0.6-0.9-1.1-1.2-1.6c-0.8-1.2-0.6-2.9,0.6-3.6
	c0.9-0.6,1.9-0.4,2.7,0.5c1.6,1.8,2.8,3.9,3.6,6.2c0.9,2.4,1.3,4.9,1.3,7.4c0,2.2-0.2,4.1-0.8,6c-0.6,2.3-1.6,4.3-2.9,6.2
	C380.3,380.7,379.9,381.2,379.4,381.8z M386.9,384.4c-0.6,1-1.3,1.9-2,2.7c-0.5,0.6-1.1,0.9-1.8,0.9c-0.7-0.1-1.3-0.4-1.7-1.2
	c-0.4-0.7-0.4-1.5-0.1-2.3c0.1-0.3,0.3-0.6,0.5-0.9c1-1.2,1.8-2.5,2.6-3.8c0.8-1.6,1.5-3.2,2-4.9c0.8-2.9,1.1-5.9,0.9-9
	c-0.2-2.2-0.6-4.3-1.3-6.4c-0.9-2.6-2.2-5-3.9-7.1c-0.2-0.3-0.5-0.6-0.6-0.9c-0.3-0.7-0.3-1.3-0.1-2c0.3-0.8,0.9-1.3,1.7-1.5
	c0.8-0.2,1.5,0.2,2.1,0.9c2,2.4,3.6,5.1,4.7,8.1c0.7,1.8,1.2,3.7,1.5,5.6c0.2,1.1,0.3,2.3,0.4,3.5c0,0.6,0.1,1.3,0.1,2.1
	c0,1.5-0.2,3.2-0.4,4.9C390.5,377.2,389.1,381,386.9,384.4z"/>
<g id="XMLID_682_">
	<g id="XMLID_683_">
		<path id="XMLID_684_" class="st3" d="M704,516.8c-9.1,0-16.5,7.4-16.5,16.5c0,4.3,1.7,8.2,4.4,11.1l3.5-5.1
			c-1.2-1.7-1.9-3.8-1.9-6c0-5.8,4.7-10.6,10.6-10.6s10.6,4.7,10.6,10.6c0,2.2-0.7,4.3-1.9,6l3.5,5.1c2.7-2.9,4.4-6.8,4.4-11.1
			C720.5,524.2,713.1,516.8,704,516.8z"/>
		<path id="XMLID_685_" class="st3" d="M729.8,533.3c0-14.2-11.6-25.8-25.8-25.8s-25.8,11.6-25.8,25.8c0,7.5,3.2,14.3,8.3,19
			l3.3-4.9c-3.6-3.6-5.8-8.6-5.8-14.1c0-11,9-20,20-20s20,9,20,20c0,5.5-2.2,10.5-5.8,14.1l3.3,4.9
			C726.6,547.5,729.8,540.7,729.8,533.3z"/>
		<path id="XMLID_686_" d="M696.9,533.3c0-3.9,3.2-7.1,7.1-7.1s7.1,3.2,7.1,7.1c0,1-0.2,2-0.6,2.8l2.2,3.2c1.2-1.7,1.9-3.8,1.9-6
			c0-5.8-4.7-10.6-10.6-10.6s-10.6,4.7-10.6,10.6c0,2.2,0.7,4.3,1.9,6l2.2-3.2C697.1,535.2,696.9,534.3,696.9,533.3z"/>
		<path id="XMLID_687_" d="M687.5,533.3c0-9.1,7.4-16.5,16.5-16.5s16.5,7.4,16.5,16.5c0,4.3-1.7,8.2-4.4,11.1l2,2.9
			c3.6-3.6,5.8-8.6,5.8-14.1c0-11-9-20-20-20s-20,9-20,20c0,5.5,2.2,10.5,5.8,14.1l2-2.9C689.2,541.4,687.5,537.5,687.5,533.3z"/>
		<path id="XMLID_688_" d="M678.2,533.3c0-14.2,11.6-25.8,25.8-25.8s25.8,11.6,25.8,25.8c0,7.5-3.2,14.3-8.3,19l2,2.9
			c6-5.4,9.8-13.2,9.8-21.9c0-16.1-13.1-29.3-29.3-29.3s-29.3,13.1-29.3,29.3c0,8.7,3.8,16.5,9.8,21.9l2-2.9
			C681.4,547.5,678.2,540.7,678.2,533.3z"/>
	</g>
	<path id="XMLID_2122_" d="M707.3,568v-31.5c0-1.8-1.5-3.3-3.3-3.3l0,0c-1.8,0-3.3,1.5-3.3,3.3V568H707.3z"/>
</g>
<path id="XMLID_698_" d="M33.2,504h-2.3c-7.2,0-13.2,5.6-14.3,13h5.2c1-4.5,4.7-7.9,9.1-7.9h2.3c5.2,0,9.4,4.7,9.4,10.4v5
	c1.8,0.9,3.6,2.1,5.1,3.5v-8.5C47.7,511,41.2,504,33.2,504z"/>
<circle id="XMLID_699_" cx="116" cy="284" r="32"/>
<g id="XMLID_703_">
	<path id="XMLID_704_" d="M466.3,30.3c2.4-2.8,4.2-5.9,5.6-9.3c1.1-2.8,1.9-5.6,2.4-8.5c0.5-3.1,0.8-6.2,0.7-9.4
		c0-0.6,0.1-0.8,0.7-0.7c0.7,0,1.4,0,2,0c0.1-0.1,0.1-0.1,0.1-0.2c0-0.7,0-1.4,0-2h-51.7c0,0.1,0,0.3,0,0.4c0,0.6,0,1.2,0,1.8h2.9
		c0,1.2,0,2.3,0,3.4c0.2,6.3,1.6,12.4,4.4,18.1c1.5,2.9,3.3,5.5,5.6,7.8c0,0,0,0,0,0.1c-0.7,0.8-1.4,1.5-2,2.3
		c-2.3,2.8-3.9,5.9-5.2,9.2c-1.4,3.8-2.3,7.6-2.6,11.6c-0.2,2.1-0.2,4.2-0.2,6.2c0,0.3-0.3,0.6-0.6,0.6c-0.7,0-1.4,0-2.1,0
		c0,0.2-0.1,0.3-0.1,0.4c0,0.6,0,1.1,0,1.7h51.7v-2.1c-0.8,0-1.5,0-2.3,0c-0.4,0-0.5-0.1-0.5-0.5c0-2.5,0.1-5-0.3-7.5
		c-0.4-2.7-1-5.5-1.8-8.2c-0.6-2.1-1.4-4.1-2.4-6c-1.5-2.9-3.3-5.5-5.7-7.8v0C465.4,31.3,465.9,30.8,466.3,30.3z M459.7,32.7
		c4.8,3.3,8,7.8,10.2,13c1.9,4.7,3,9.5,3.4,14.5c0,0.2,0,0.4,0,0.7c-14.2,0-28.3,0-42.5,0c0.2-3.4,0.7-6.6,1.6-9.9
		c1.3-4.9,3.4-9.4,6.6-13.5c1.5-1.9,3.4-3.5,5.3-4.9c0.4-0.3,0.8-0.6,1.3-1c-0.6-0.5-1.2-0.9-1.7-1.3c-3.5-2.5-6.1-5.7-8-9.4
		c-3-5.7-4.5-11.8-4.9-18.2c0-0.1,0-0.1,0-0.3c14.1,0,28.2,0,42.5,0c-0.2,1.4-0.3,2.8-0.5,4.2c-0.4,3.3-1.2,6.6-2.4,9.7
		c-1.8,4.6-4.2,8.9-7.9,12.2c-1.1,0.9-2.2,1.7-3.3,2.6c-0.2,0.1-0.3,0.3-0.6,0.5C459,32.1,459.3,32.4,459.7,32.7z"/>
	<g id="XMLID_707_">
		<path id="XMLID_847_" d="M452.4,35c2.1,0,5,1.9,6,2.7c2.8,2.5,6.1,7.3,7.5,10.8c0.9,2.4,1.6,5,1.9,7.6c0.1,0.4,0.1,0.8,0.1,1.3
			h-31.1c0.5-4.7,1.7-8.8,3.7-12.5c1.6-3,3.6-5.4,6.1-7.2l0.1-0.1l0.1-0.1C447.7,36.9,450.3,35,452.4,35 M452.4,33
			c-3.4,0-6.9,3.2-6.9,3.2c-2.9,2.1-5.1,4.7-6.7,7.8c-2.5,4.8-3.7,9.9-4.1,15.2c0,0.1,0,0.1,0,0.2h35.5c-0.1-1.2-0.2-2.3-0.4-3.5
			c-0.4-2.8-1-5.5-2-8.1c-1.5-3.9-4.9-8.9-8.1-11.7C459.7,36.2,455.8,33,452.4,33L452.4,33z"/>
	</g>
	<g id="XMLID_708_">
		<path id="XMLID_843_" d="M467.9,6.6c0,0.4-0.1,0.8-0.1,1.3c-0.3,2.6-1,5.2-1.9,7.6c-1.4,3.6-4.6,8.3-7.5,10.8
			c-0.9,0.7-3.8,2.7-6,2.7c-2.1,0-4.7-1.9-5.6-2.7l-0.1-0.1l-0.1-0.1c-2.5-1.8-4.5-4.1-6.1-7.2c-2-3.7-3.2-7.8-3.7-12.5H467.9
			 M470.2,4.6h-35.5c0,0.1,0,0.2,0,0.2c0.4,5.3,1.6,10.4,4.1,15.2c1.7,3.1,3.8,5.8,6.7,7.8c0,0,3.5,3.2,6.9,3.2
			c3.4,0,7.3-3.2,7.3-3.2c3.1-2.8,6.6-7.8,8.1-11.7c1-2.6,1.7-5.3,2-8.1C469.9,7,470,5.8,470.2,4.6L470.2,4.6z"/>
	</g>
	<g id="XMLID_709_">
		<path id="XMLID_842_" d="M452.4,24.6c-1.7,0-3.5-1.6-3.5-1.6c-1.5-1.1-2.6-2.4-3.4-4c-1.3-2.4-1.9-5-2.1-7.7c0,0,0-0.1,0-0.1h18.1
			c-0.1,0.6-0.1,1.2-0.2,1.8c-0.2,1.4-0.5,2.8-1,4.1c-0.8,2-2.5,4.5-4.1,5.9C456.1,23,454.1,24.6,452.4,24.6z"/>
	</g>
	<g id="XMLID_710_">
		<path id="XMLID_840_" d="M452.4,40.2c-1.7,0-3.5,1.6-3.5,1.6c-1.5,1.1-2.6,2.4-3.4,4c-1.3,2.4-1.9,5-2.1,7.7c0,0,0,0.1,0,0.1h18.1
			c-0.1-0.6-0.1-1.2-0.2-1.8c-0.2-1.4-0.5-2.8-1-4.1c-0.8-2-2.5-4.5-4.1-5.9C456.1,41.8,454.1,40.2,452.4,40.2z"/>
	</g>
</g>
<g id="XMLID_712_">
	<path id="XMLID_713_" d="M398.7,425.6l-5.3-5.3c-0.5-0.5-1.3-0.5-1.7,0c-0.5,0.5-0.5,1.3,0,1.7l0.9,0.9l-5.2,5.2l-4.1-4.1
		c-0.5-0.5-1.3-0.5-1.7,0c-0.5,0.5-0.5,1.3,0,1.7l3.1,3.1L356,457.9c-0.2,0.2-0.4,0.5-0.4,0.9l0,0.1l0.5,2.5c-0.2,0-0.4,0.1-0.6,0.3
		l-5.5,5.5c-0.4,0.4-0.4,1.1,0,1.5l0.1,0.1l-12.6,12.6l-0.5,2.7l14.2-14.2c0.4,0.3,1,0.3,1.4-0.1l5.5-5.5c0.2-0.2,0.3-0.6,0.3-0.9
		l2.1,0.4l0.1,0c0.3,0,0.6-0.2,0.9-0.4l28.7-28.7l3,3c0.5,0.5,1.3,0.5,1.7,0c0.5-0.5,0.5-1.3,0-1.7l-3.9-3.9
		c1.4-1.4,3.8-3.8,5.2-5.2l0.8,0.8c0.5,0.5,1.3,0.5,1.7,0C399.2,426.9,399.2,426.1,398.7,425.6z M372.5,449.9l-3.2-3.2l16.5-16.5
		l3.2,3.2L372.5,449.9z"/>
	<path id="XMLID_716_" d="M373.5,447.7l-1.9-1.9c-0.1-0.1-0.1-0.4,0-0.5l0.4-0.4c0.1-0.1,0.4-0.1,0.5,0l1.9,1.9
		c0.1,0.1,0.1,0.4,0,0.5l-0.4,0.4C373.9,447.9,373.6,447.9,373.5,447.7z"/>
	<path id="XMLID_717_" d="M377,444.2l-1.9-1.9c-0.1-0.1-0.1-0.4,0-0.5l0.4-0.4c0.1-0.1,0.4-0.1,0.5,0l1.9,1.9c0.1,0.1,0.1,0.4,0,0.5
		l-0.4,0.4C377.4,444.4,377.1,444.4,377,444.2z"/>
	<path id="XMLID_718_" d="M380.5,440.7l-1.9-1.9c-0.1-0.1-0.1-0.4,0-0.5l0.4-0.4c0.1-0.1,0.4-0.1,0.5,0l1.9,1.9
		c0.1,0.1,0.1,0.4,0,0.5l-0.4,0.4C380.9,440.9,380.7,440.9,380.5,440.7z"/>
	<path id="XMLID_719_" d="M384,437.2l-1.9-1.9c-0.1-0.1-0.1-0.4,0-0.5l0.4-0.4c0.1-0.1,0.4-0.1,0.5,0l1.9,1.9c0.1,0.1,0.1,0.4,0,0.5
		l-0.4,0.4C384.4,437.3,384.2,437.3,384,437.2z"/>
</g>
<path id="XMLID_720_" d="M478.8,425.2c-7-7-18.4-7-25.4,0l-28.1,28.1c-7,7-7,18.4,0,25.4c7,7,18.4,7,25.4,0l28.1-28.1
	C485.7,443.7,485.7,432.2,478.8,425.2z M475.7,448.5l-11.8,11.8l-20-19.9l11.9-11.9c5.5-5.5,14.5-5.5,19.9,0S481.2,443,475.7,448.5z
	"/>
<g id="XMLID_2388_">
	<path id="XMLID_2389_" d="M538.4,437.2l-7.5,7.5l12.6,12.6l7.5-7.5c3.5-3.5,3.5-9.1,0-12.6C547.5,433.7,541.8,433.7,538.4,437.2z"
		/>
	<path id="XMLID_2392_" d="M536,420c-17.7,0-32,14.3-32,32c0,17.7,14.3,32,32,32c17.7,0,32-14.3,32-32C568,434.3,553.7,420,536,420z
		 M552.9,451.2l-17.8,17.8c-4.4,4.4-11.6,4.4-16.1,0s-4.4-11.6,0-16.1l17.8-17.8c4.4-4.4,11.6-4.4,16.1,0
		C557.3,439.5,557.3,446.8,552.9,451.2z"/>
</g>
<g id="XMLID_723_">
	<path id="XMLID_2432_" d="M636.8,435.2c-4.4-4.4-11.5-4.4-15.9,0l-17.6,17.6c-4.4,4.4-4.4,11.5,0,15.9c4.4,4.4,11.5,4.4,15.9,0
		l17.6-17.6C641.2,446.7,641.2,439.5,636.8,435.2z M634.9,449.7l-7.4,7.4L615,444.7l7.4-7.4c3.4-3.4,9-3.4,12.5,0
		S638.4,446.3,634.9,449.7z"/>
</g>
<g id="XMLID_2229_">
	<polygon id="XMLID_2230_" points="522.6,231.8 554.5,200.1 522.6,168.2 517.5,173.4 544.2,200.1 517.5,226.6 	"/>
</g>
<g id="XMLID_2231_">
	<polygon id="XMLID_2232_" points="633.4,231.8 601.5,200.1 633.4,168.2 638.5,173.4 611.8,200.1 638.5,226.6 	"/>
</g>
<polygon id="XMLID_4289_" points="681.4,225.2 719.5,199.8 681.4,174.7 681.4,168.3 681.5,168.1 726.6,197.8 726.6,201.7 
	681.5,231.9 681.4,231.7 "/>
<polygon id="XMLID_4286_" points="-33,309.4 -71.2,283.8 -33,258.6 -33,252.1 -33,252 -78.3,281.8 -78.3,285.8 -33.1,316 -33,315.9 
	"/>
<g id="XMLID_724_">
	<path id="XMLID_1718_" d="M611.8,312.6h-20.7c-1.7,0-3.1-1.4-3.1-3.1v-51.1c0-1.7,1.4-3.1,3.1-3.1h20.7c1.7,0,3.1,1.4,3.1,3.1v51.1
		C614.9,311.3,613.5,312.6,611.8,312.6z"/>
	<path id="XMLID_1717_" d="M648.9,312.6h-20.7c-1.7,0-3.1-1.4-3.1-3.1v-51.1c0-1.7,1.4-3.1,3.1-3.1h20.7c1.7,0,3.1,1.4,3.1,3.1v51.1
		C652,311.3,650.6,312.6,648.9,312.6z"/>
</g>
<g id="XMLID_725_">
	<path id="XMLID_1746_" class="st0" d="M698.5,297.5H692c-1.7,0-3.1-1.4-3.1-3.1v-20.8c0-1.7,1.4-3.1,3.1-3.1h6.5
		c1.7,0,3.1,1.4,3.1,3.1v20.8C701.6,296.1,700.2,297.5,698.5,297.5z"/>
	<path id="XMLID_1745_" class="st0" d="M716,297.5h-6.5c-1.7,0-3.1-1.4-3.1-3.1v-20.8c0-1.7,1.4-3.1,3.1-3.1h6.5
		c1.7,0,3.1,1.4,3.1,3.1v20.8C719,296.1,717.7,297.5,716,297.5z"/>
</g>
<g id="XMLID_726_">
	<g id="XMLID_1774_">
		<path id="XMLID_1391_" d="M-57.6,356c0.9,0,1.6,0.7,1.6,1.6v20.8c0,0.9-0.7,1.6-1.6,1.6h-6.5c-0.9,0-1.6-0.7-1.6-1.6v-20.8
			c0-0.9,0.7-1.6,1.6-1.6H-57.6 M-57.6,354.5h-6.5c-1.7,0-3.1,1.4-3.1,3.1v20.8c0,1.7,1.4,3.1,3.1,3.1h6.5c1.7,0,3.1-1.4,3.1-3.1
			v-20.8C-54.6,355.9-55.9,354.5-57.6,354.5L-57.6,354.5z"/>
	</g>
	<g id="XMLID_1773_">
		<path id="XMLID_1387_" d="M-40.2,356c0.9,0,1.6,0.7,1.6,1.6v20.8c0,0.9-0.7,1.6-1.6,1.6h-6.5c-0.9,0-1.6-0.7-1.6-1.6v-20.8
			c0-0.9,0.7-1.6,1.6-1.6H-40.2 M-40.2,354.5h-6.5c-1.7,0-3.1,1.4-3.1,3.1v20.8c0,1.7,1.4,3.1,3.1,3.1h6.5c1.7,0,3.1-1.4,3.1-3.1
			v-20.8C-37.1,355.9-38.5,354.5-40.2,354.5L-40.2,354.5z"/>
	</g>
</g>
<circle id="XMLID_727_" cx="452" cy="284" r="32"/>
<g id="XMLID_728_">
	<path id="XMLID_729_" class="st0" d="M441.3,298.8c0,0.9,0.9,1.4,1.7,1l13-7.4l13.1-7.4c0.8-0.4,0.8-1.5,0-1.9l-13.1-7.4l-13-7.4
		c-0.7-0.4-1.7,0.1-1.7,1V284V298.8z"/>
</g>
<g id="XMLID_730_">
	<path id="XMLID_731_" class="st4" d="M525.4,298.8c0,0.9,0.9,1.4,1.7,1l13-7.4l13.1-7.4c0.8-0.4,0.8-1.5,0-1.9l-13.1-7.4l-13-7.4
		c-0.7-0.4-1.7,0.1-1.7,1V284V298.8z"/>
</g>
<path id="XMLID_732_" d="M-35.4,606.8l-18.4-18.6c-0.2-0.2-0.6-0.1-0.6,0.3v23.8c0,0.3-0.4,0.5-0.6,0.3l-9.3-9.5
	c-0.1-0.1-0.4-0.1-0.5,0l-3.7,3.7c-0.1,0.1-0.1,0.4,0,0.5l12.4,12.6c0.1,0.1,0.1,0.4,0,0.5l-12.4,12.6c-0.1,0.1-0.1,0.4,0,0.5
	l3.7,3.7c0.1,0.1,0.4,0.1,0.5,0l9.3-9.5c0.2-0.2,0.6-0.1,0.6,0.3v23.7c0,0.3,0.4,0.5,0.6,0.3l18.4-18.4c0.1-0.1,0.1-0.4,0-0.5
	l-12.3-12.4c-0.1-0.1-0.1-0.4,0-0.5l12.3-12.7C-35.3,607.2-35.3,606.9-35.4,606.8z M-49.8,609.5v-9c0-0.3,0.4-0.5,0.6-0.3l6.6,6.7
	c0.1,0.1,0.1,0.4,0,0.5l-6.6,6.5c-0.2,0.2-0.6,0.1-0.6-0.3V609.5z M-42.6,633.4l-6.6,6.5c-0.2,0.2-0.6,0.1-0.6-0.3v-4.2v-9
	c0-0.3,0.4-0.5,0.6-0.3l6.6,6.7C-42.4,633-42.4,633.2-42.6,633.4z"/>
<g id="XMLID_736_">
	<path id="XMLID_737_" d="M122.9,610.3l-4.8-4.9c-0.2-0.2-0.5-0.1-0.5,0.2v6.6v3.1c0,0.2,0.3,0.4,0.5,0.2l4.8-4.8
		C123,610.6,123,610.5,122.9,610.3z"/>
	<path id="XMLID_741_" d="M117.6,624.8v6.6v3.1c0,0.2,0.3,0.4,0.5,0.2l4.8-4.8c0.1-0.1,0.1-0.3,0-0.4l-4.8-4.9
		C117.9,624.4,117.6,624.5,117.6,624.8z"/>
	<path id="XMLID_742_" d="M116,588c-17.7,0-32,14.3-32,32c0,17.7,14.3,32,32,32s32-14.3,32-32C148,602.3,133.7,588,116,588z
		 M119.1,620.4l9.1,9.2c0.1,0.1,0.1,0.3,0,0.4l-13.6,13.6c-0.2,0.2-0.5,0-0.5-0.2v-17.4c0-0.2-0.3-0.4-0.5-0.2l-6.8,7
		c-0.1,0.1-0.3,0.1-0.4,0l-2.8-2.7c-0.1-0.1-0.1-0.3,0-0.4l9.1-9.3c0.1-0.1,0.1-0.3,0-0.4l-9.1-9.3c-0.1-0.1-0.1-0.3,0-0.4l2.8-2.7
		c0.1-0.1,0.3-0.1,0.4,0l6.8,7c0.2,0.2,0.5,0.1,0.5-0.2v-17.5c0-0.2,0.3-0.4,0.5-0.2l13.6,13.7c0.1,0.1,0.1,0.3,0,0.4l-9.1,9.3
		C119,620.1,119,620.3,119.1,620.4z"/>
</g>
<path id="XMLID_745_" d="M212.2,610.3l-13.6-13.7c-0.2-0.2-0.5-0.1-0.5,0.2v17.5c0,0.2-0.3,0.4-0.5,0.2l-6.8-7
	c-0.1-0.1-0.3-0.1-0.4,0l-2.8,2.7c-0.1,0.1-0.1,0.3,0,0.4l9.1,9.3c0.1,0.1,0.1,0.3,0,0.4l-9.1,9.3c-0.1,0.1-0.1,0.3,0,0.4l2.8,2.7
	c0.1,0.1,0.3,0.1,0.4,0l6.8-7c0.2-0.2,0.5-0.1,0.5,0.2v17.4c0,0.2,0.3,0.4,0.5,0.2l13.6-13.6c0.1-0.1,0.1-0.3,0-0.4l-9.1-9.2
	c-0.1-0.1-0.1-0.3,0-0.4l9.1-9.3C212.3,610.5,212.3,610.4,212.2,610.3z M201.6,612.3v-6.6c0-0.2,0.3-0.4,0.5-0.2l4.8,4.9
	c0.1,0.1,0.1,0.3,0,0.4l-4.8,4.8c-0.2,0.2-0.5,0-0.5-0.2V612.3z M206.9,629.9l-4.8,4.8c-0.2,0.2-0.5,0-0.5-0.2v-3.1v-6.6
	c0-0.2,0.3-0.4,0.5-0.2l4.8,4.9C207,629.6,207,629.8,206.9,629.9z"/>
<g id="XMLID_749_">
	<path id="XMLID_750_" d="M38.9,610.3l-4.8-4.9c-0.2-0.2-0.5-0.1-0.5,0.2v6.6v3.1c0,0.2,0.3,0.4,0.5,0.2l4.8-4.8
		C39,610.6,39,610.5,38.9,610.3z"/>
	<path id="XMLID_751_" d="M32,588c-12.7,0-23,14.3-23,32s10.3,32,23,32s23-14.3,23-32S44.7,588,32,588z M35.1,620.4l9.1,9.2
		c0.1,0.1,0.1,0.3,0,0.4l-13.6,13.6c-0.2,0.2-0.5,0-0.5-0.2v-17.4c0-0.2-0.3-0.4-0.5-0.2l-6.8,7c-0.1,0.1-0.3,0.1-0.4,0l-2.8-2.7
		c-0.1-0.1-0.1-0.3,0-0.4l9.1-9.3c0.1-0.1,0.1-0.3,0-0.4l-9.1-9.3c-0.1-0.1-0.1-0.3,0-0.4l2.8-2.7c0.1-0.1,0.3-0.1,0.4,0l6.8,7
		c0.2,0.2,0.5,0.1,0.5-0.2v-17.5c0-0.2,0.3-0.4,0.5-0.2l13.6,13.7c0.1,0.1,0.1,0.3,0,0.4l-9.1,9.3C35,620.1,35,620.3,35.1,620.4z"/>
	<path id="XMLID_754_" d="M33.6,624.8v6.6v3.1c0,0.2,0.3,0.4,0.5,0.2l4.8-4.8c0.1-0.1,0.1-0.3,0-0.4l-4.8-4.9
		C33.9,624.4,33.6,624.5,33.6,624.8z"/>
</g>
<path id="XMLID_1800_" d="M62,400H2c-1.1,0-2-0.9-2-2v-60c0-1.1,0.9-2,2-2h60c1.1,0,2,0.9,2,2v60C64,399.1,63.1,400,62,400z"/>
<path id="XMLID_756_" d="M116,336c-17.7,0-32,14.3-32,32c0,17.7,14.3,32,32,32c17.7,0,32-14.3,32-32C148,350.3,133.7,336,116,336z
	 M130.3,380.3c0,1.1-0.9,2-2,2h-24.7c-1.1,0-2-0.9-2-2v-24.7c0-1.1,0.9-2,2-2h24.7c1.1,0,2,0.9,2,2V380.3z"/>
<path id="XMLID_1853_" d="M212.3,382.3h-24.7c-1.1,0-2-0.9-2-2v-24.7c0-1.1,0.9-2,2-2h24.7c1.1,0,2,0.9,2,2v24.7
	C214.3,381.4,213.4,382.3,212.3,382.3z"/>
<polygon id="XMLID_759_" points="-52,169.7 -44.5,192.8 -20.2,192.8 -39.8,207.2 -32.3,230.3 -52,216 -71.7,230.3 -64.2,207.2 
	-83.8,192.8 -59.5,192.8 "/>
<g id="XMLID_8856_">
	<polygon id="XMLID_837_" class="st0" points="32,215.1 13.7,228.3 20.7,206.9 2.5,193.6 25,193.6 32,172.1 39,193.6 61.5,193.6 
		43.3,206.9 50.3,228.3 	"/>
	<path id="XMLID_834_" d="M32,174.6l6.1,18.7l0.3,1h1.1h19.7l-15.9,11.6l-0.9,0.6l0.3,1l6.1,18.7l-15.9-11.6l-0.9-0.6l-0.9,0.6
		l-15.9,11.6l6.1-18.7l0.3-1l-0.9-0.6L4.8,194.3h19.7h1.1l0.3-1L32,174.6 M32,169.7l-7.5,23.1H0.2l19.7,14.3l-7.5,23.1L32,216
		l19.7,14.3l-7.5-23.1l19.7-14.3H39.5L32,169.7L32,169.7z"/>
</g>
<circle id="XMLID_760_" cx="536" cy="4.2" r="0.8"/>
<circle id="XMLID_761_" cx="536" cy="58.9" r="0.8"/>
<circle id="XMLID_762_" cx="507.7" cy="32" r="0.8"/>
<circle id="XMLID_763_" cx="563.5" cy="32" r="0.8"/>
<g id="XMLID_764_">
	<g id="XMLID_827_">
		<path id="XMLID_831_" d="M-70.6,114.3c3.9,7.8,7.7,15.6,11.6,23.5c0,0,2.9-0.7,2.9-0.8c0.2-17.4,8.2-33,22.7-42.7
			c-0.8,0.5-2.1,0.2-2.9,0.8c-14.5,9.7-22.6,25.3-22.7,42.7c1-0.3,1.9-0.5,2.9-0.8c-3.9-7.8-7.7-15.6-11.6-23.5
			C-67.8,113.3-70.5,114.4-70.6,114.3L-70.6,114.3z"/>
	</g>
</g>
<g id="XMLID_765_">
	<g id="XMLID_766_">
		<path id="XMLID_826_" class="st0" d="M8.6,143.7c-2.5,0-4.5-2-4.5-4.5V92.8c0-2.5,2-4.5,4.5-4.5H55c2.5,0,4.5,2,4.5,4.5v46.4
			c0,2.5-2,4.5-4.5,4.5H8.6z"/>
		<path id="XMLID_823_" d="M55,89c2.1,0,3.7,1.7,3.7,3.7v46.4c0,2.1-1.7,3.7-3.7,3.7H8.6c-2.1,0-3.7-1.7-3.7-3.7V92.8
			c0-2.1,1.7-3.7,3.7-3.7H55 M55,87.5H8.6c-2.9,0-5.2,2.3-5.2,5.2v46.4c0,2.9,2.3,5.2,5.2,5.2H55c2.9,0,5.2-2.3,5.2-5.2V92.8
			C60.2,89.9,57.9,87.5,55,87.5L55,87.5z"/>
	</g>
	<path id="XMLID_767_" class="st0" d="M54.5,91.5L54,90.9c-0.3-0.5-0.3-1.1,0.2-1.5l4.8-3.6c0.5-0.3,1.1-0.3,1.5,0.2l0.5,0.7
		c0.3,0.5,0.3,1.1-0.2,1.5l-4.8,3.6C55.5,92.1,54.8,92,54.5,91.5z"/>
	<path id="XMLID_768_" class="st0" d="M30.3,147.7h-3c-1.2,0-2.2-1-2.2-2.2v-3.2c0-1.2,1-2.2,2.2-2.2h3c1.2,0,2.2,1,2.2,2.2v3.2
		C32.5,146.7,31.5,147.7,30.3,147.7z"/>
	<g id="XMLID_769_">
		<path id="XMLID_770_" d="M11.1,113.4c5.6,11.3,11.2,22.6,16.8,33.9c0,0,3.2-0.8,3.2-0.9c0.2-25,11.9-47.9,32.9-61.7
			c-0.9,0.6-2.3,0.3-3.2,0.9c-21,13.9-32.7,36.7-32.9,61.7c1.1-0.3,2.1-0.6,3.2-0.9c-5.6-11.3-11.2-22.6-16.8-33.9
			C14.2,112.3,11.2,113.5,11.1,113.4L11.1,113.4z"/>
	</g>
</g>
<g id="XMLID_771_">
	<g id="XMLID_807_">
		<path id="XMLID_811_" class="st0" d="M97.4,114.3c3.9,7.8,7.7,15.6,11.6,23.5c0,0,2.9-0.7,2.9-0.8c0.2-17.4,8.2-33,22.7-42.7
			c-0.8,0.5-2.1,0.2-2.9,0.8c-14.5,9.7-22.6,25.3-22.7,42.7c1-0.3,1.9-0.5,2.9-0.8c-3.9-7.8-7.7-15.6-11.6-23.5
			C100.2,113.3,97.5,114.4,97.4,114.3L97.4,114.3z"/>
	</g>
</g>
<g id="XMLID_783_">
	<g id="XMLID_791_">
		<path id="XMLID_805_" d="M181.4,114.3c3.9,7.8,7.7,15.6,11.6,23.5c0,0,2.9-0.7,2.9-0.8c0.2-17.4,8.2-33,22.7-42.7
			c-0.8,0.5-2.1,0.2-2.9,0.8c-14.5,9.7-22.6,25.3-22.7,42.7c1-0.3,1.9-0.5,2.9-0.8c-3.9-7.8-7.7-15.6-11.6-23.5
			C184.2,113.3,181.5,114.4,181.4,114.3L181.4,114.3z"/>
	</g>
</g>
<path id="XMLID_772_" class="st0" d="M704.7,58h-1.4c-0.4,0-0.7-0.3-0.7-0.7V18c0-0.4,0.3-0.7,0.7-0.7h1.4c0.4,0,0.7,0.3,0.7,0.7
	v39.3C705.4,57.7,705.1,58,704.7,58z"/>
<path id="XMLID_3438_" class="st0" d="M697.1,57.9l-1.4,0.1c-0.4,0-0.7-0.3-0.8-0.6l-3.4-39.2c0-0.4,0.3-0.7,0.6-0.8l1.4-0.1
	c0.4,0,0.7,0.3,0.8,0.6l3.4,39.2C697.8,57.5,697.5,57.8,697.1,57.9z"/>
<path id="XMLID_3439_" class="st0" d="M712.3,58l-1.4-0.1c-0.4,0-0.7-0.4-0.6-0.8l3.4-39.2c0-0.4,0.4-0.7,0.8-0.6l1.4,0.1
	c0.4,0,0.7,0.4,0.6,0.8l-3.4,39.2C713,57.7,712.7,58,712.3,58z"/>
<circle id="XMLID_773_" class="st5" cx="535.7" cy="35.2" r="4.8"/>
<g id="XMLID_774_">
	<path id="XMLID_792_" d="M627.1,32.5l-1.9,0.5c0,0.3-0.1,0.5-0.2,0.7l1.4,1.4c-0.2,0.3-0.3,0.6-0.5,0.9l-1.9-0.5
		c-0.2,0.2-0.3,0.4-0.5,0.5l0.5,1.9c-0.3,0.2-0.6,0.4-0.9,0.5l-1.4-1.4c-0.2,0.1-0.5,0.2-0.7,0.2l-0.5,1.9c-0.2,0-0.4,0-0.5,0
		s-0.4,0-0.5,0l-0.5-1.9c-0.3,0-0.5-0.1-0.7-0.2l-1.4,1.4c-0.3-0.2-0.6-0.3-0.9-0.5l0.5-1.9c-0.2-0.2-0.4-0.3-0.5-0.5l-1.9,0.5
		c-0.2-0.3-0.4-0.6-0.5-0.9l1.4-1.4c-0.1-0.2-0.2-0.5-0.2-0.7l-1.9-0.5c0-0.2,0-0.4,0-0.5c0-0.2,0-0.4,0-0.5l1.9-0.5
		c0-0.3,0.1-0.5,0.2-0.7l-1.4-1.4c0.2-0.3,0.3-0.6,0.5-0.9l1.9,0.5c0.2-0.2,0.3-0.4,0.5-0.5l-0.5-1.9c0.3-0.2,0.6-0.4,0.9-0.5
		l1.4,1.4c0.2-0.1,0.5-0.2,0.7-0.2l0.5-1.9c0.2,0,0.4,0,0.5,0s0.4,0,0.5,0l0.5,1.9c0.3,0,0.5,0.1,0.7,0.2l1.4-1.4
		c0.3,0.2,0.6,0.3,0.9,0.5l-0.5,1.9c0.2,0.2,0.4,0.3,0.5,0.5l1.9-0.5c0.2,0.3,0.4,0.6,0.5,0.9l-1.4,1.4c0.1,0.2,0.2,0.5,0.2,0.7
		l1.9,0.5c0,0.2,0,0.4,0,0.5C627.2,32.2,627.2,32.4,627.1,32.5z"/>
</g>
<g id="XMLID_1015_">
	<path id="XMLID_1014_" d="M478.7,141.4c-0.6-3.7-1.8-7.3-3.7-10.6c-1.2-2.1-2.7-4-4.5-5.8c-1.6-1.6-3.4-3-5.4-4.3
		c-0.1,0-0.1-0.1-0.1-0.1c0,0,0,0-0.1,0.1c-1.6,1.6-3.4,3.1-5.4,4.3c-2.6,1.6-4.8,2.2-7.7,2.2c-3.2,0-6.8-2-9.9-4.3
		c-0.8-0.6-1.5-1.2-2.2-1.8l-0.6-0.5c-2.2,1.2-4.2,2.8-6,4.7c-1.7,1.8-3.2,3.9-4.5,6.1c-1.3,2.5-2.3,5.1-2.9,7.9
		c-0.1,0.6-0.2,1.2-0.4,1.8l-0.1,0.8v0.7c0.3,0.8,0.9,1.1,1.9,1.1v0.7l0-0.7c16.6,0,33.3,0,49.9,0c1,0,1.6-0.3,1.9-1.1l0-0.8
		C478.8,141.7,478.7,141.6,478.7,141.4z"/>
	<g id="XMLID_1017_">
		<path id="XMLID_954_" d="M439.2,93.5c3.9-5.3,8.5-6,13.6-6.1c5-0.2,10.3,2.6,12.4,7.3c1,2.3,1.2,5,1.2,7.6c0,3.8-0.4,7.7-1.8,11.3
			c-1.4,3.6-3.7,6.8-7,8.6s-7.4,2-10.7,0.3c-2.4-1.2-4.3-2.8-5.5-4.6c-2.5-3.6-3.6-7.8-3.9-12.2C437.5,105.7,436.1,97.5,439.2,93.5z
			"/>
	</g>
</g>
<g id="XMLID_1117_">
	<path id="XMLID_8131_" d="M620.3,146.2c-6.3-5.2-10.7-9.5-15.3-15.5c-3.5-4.5-6.4-9.3-9.6-14c-2.4-3.5-4.9-7.1-6.3-11.1
		c-1.4-4-1.7-8.7,0.3-12.5c2.2-4.3,7-7,11.8-7c4.8-0.1,9.5,2.2,12.8,5.7s5.3,8.1,6.2,12.8c0.4-6.3,3.4-12.6,8.6-16.1
		c5.2-3.5,12.7-3.8,17.7,0.1c4.7,3.7,6.3,10.5,5.1,16.4s-5.4,10.6-9.1,15.3c-4,5.2-7,8.8-11.2,13.8
		C631.3,134.2,625.4,141.6,620.3,146.2z"/>
</g>
<g id="XMLID_8110_">
	<path id="XMLID_8136_" d="M721.9,86.8c3,0,5.9,0.9,8,2.6c4.1,3.2,6,9.4,4.7,15.4c-1,4.9-4.2,9-7.4,13c-0.5,0.7-1,1.3-1.5,2
		c-4.1,5.4-7.2,9.1-11.2,13.8c-0.1,0.1-5.4,6.8-10.2,11.3c-6.2-5.2-10.3-9.4-14.5-14.8c-2.3-3-4.4-6.1-6.4-9.2
		c-1-1.5-2.1-3.1-3.2-4.7c-2.4-3.4-4.8-6.9-6.2-10.9c-1.5-4.2-1.4-8.5,0.2-11.7c1.9-3.8,6.3-6.4,10.9-6.5l0.2,0
		c4.2,0,8.6,2,11.9,5.4c3,3.1,5,7.4,5.9,12.3l1.4,7.7l0.6-7.8c0.5-6.4,3.5-12.2,8.2-15.3C715.9,87.7,718.9,86.8,721.9,86.8
		 M721.9,85.8c-3.2,0-6.4,0.9-9,2.7c-5.2,3.5-8.2,9.8-8.6,16.1c-0.9-4.7-2.9-9.3-6.2-12.8c-3.3-3.4-7.8-5.7-12.6-5.7
		c-0.1,0-0.2,0-0.2,0c-4.8,0.1-9.6,2.7-11.8,7c-1.9,3.8-1.7,8.4-0.3,12.5c1.4,4,3.9,7.6,6.3,11.1c3.2,4.7,6.2,9.5,9.6,14
		c4.6,6,9,10.3,15.3,15.5c5-4.6,11-12,11-12c4.2-5,7.2-8.6,11.2-13.8c3.7-4.8,7.8-9.4,9.1-15.3s-0.3-12.7-5.1-16.4
		C728.1,86.7,725,85.8,721.9,85.8L721.9,85.8z"/>
</g>
<rect id="XMLID_479_" x="450" y="174.5" width="4" height="51.7"/>
<rect id="XMLID_3739_" x="438" y="187.9" width="28" height="4"/>
<g id="XMLID_510_">
	<g id="XMLID_3814_">
		<path id="XMLID_3818_" d="M314.3,462.5c0.7-2.7,0.2-5.4-1.9-7.3c-1.8-1.7-4.3-1.8-5.7-4c-1.2-2-2.1-3.9-4.1-5.4
			c-2-1.6-4.4-2.5-6.9-2.7c-0.3,0-0.6,0.5-0.9,0.5c2.4,0.2,4.7,1,6.6,2.5c2.1,1.5,3,3.5,4.3,5.6c1.3,2.1,3.6,2.3,5.4,3.8
			c2.3,1.9,2.9,4.8,2.2,7.6C313.5,462.8,314.3,462.7,314.3,462.5L314.3,462.5z"/>
	</g>
</g>
<g id="XMLID_511_">
	<g id="XMLID_3821_">
		<path id="XMLID_3825_" d="M310.4,462.6c-0.3-2.2-0.8-4.7-3.1-5.6c-2.5-1-5.3,0.1-7.7-1c-4.5-2.1-3.1-8.8-8.9-9
			c-0.3,0-0.6,0.5-0.9,0.5c2.4,0.1,4.2,1.4,5.1,3.7c0.9,2.2,1.5,4.2,3.8,5.4c2.4,1.1,5,0.1,7.4,0.9c2.6,0.8,3.1,3.4,3.5,5.8
			C309.5,462.9,310.4,462.7,310.4,462.6L310.4,462.6z"/>
	</g>
</g>
<rect id="XMLID_3804_" x="253.1" y="464.7" width="18.1" height="4.6"/>
<g id="XMLID_486_">
	<g id="XMLID_484_">
		<path id="XMLID_8954_" class="st0" d="M24.7,292.3c-8.6,0-15.7-7-15.7-15.7s7-15.7,15.7-15.7s15.7,7,15.7,15.7
			S33.3,292.3,24.7,292.3z"/>
		<path id="XMLID_8951_" d="M24.7,261.7c8.2,0,14.9,6.7,14.9,14.9s-6.7,14.9-14.9,14.9c-8.2,0-14.9-6.7-14.9-14.9
			S16.4,261.7,24.7,261.7 M24.7,260.2c-9.1,0-16.4,7.3-16.4,16.4S15.6,293,24.7,293c9.1,0,16.4-7.3,16.4-16.4S33.7,260.2,24.7,260.2
			L24.7,260.2z"/>
	</g>
	<path id="XMLID_485_" d="M33.2,289.6c2.2,3.5,4.4,7,7.2,10c2.8,3,6.1,5.6,10,7.1c1.1,0.4,2.4,0.7,3.4,0.1c1-0.6,1.3-1.8,1.3-2.9
		c0.1-3.3-2.1-6.2-4.4-8.5c-3.9-3.9-8.4-7.2-13.4-9.6"/>
</g>
<g id="XMLID_6425_">
	<g id="XMLID_6427_">
		<path id="XMLID_8949_" d="M109.7,291c-7.4,0-13.4-6-13.4-13.4s6-13.4,13.4-13.4s13.4,6,13.4,13.4S117.1,291,109.7,291z"/>
		<path id="XMLID_8946_" class="st0" d="M109.7,264.9c7,0,12.6,5.7,12.6,12.6s-5.7,12.6-12.6,12.6s-12.6-5.7-12.6-12.6
			S102.7,264.9,109.7,264.9 M109.7,263.4c-7.8,0-14.1,6.3-14.1,14.1s6.3,14.1,14.1,14.1s14.1-6.3,14.1-14.1S117.5,263.4,109.7,263.4
			L109.7,263.4z"/>
	</g>
	<path id="XMLID_6426_" class="st0" d="M117,288.8c1.9,3,3.8,6,6.2,8.6c2.4,2.6,5.3,4.9,8.6,6.1c1,0.4,2.1,0.6,3,0.1
		c0.8-0.5,1.1-1.6,1.2-2.5c0.1-2.8-1.8-5.3-3.8-7.3c-3.3-3.4-7.3-6.2-11.6-8.2"/>
</g>
</svg>
