<?xml version="1.0" encoding="utf-8"?>
<!-- Generator: Adobe Illustrator 19.0.0, SVG Export Plug-In . SVG Version: 6.00 Build 0)  -->
<svg version="1.1" id="icons" xmlns="http://www.w3.org/2000/svg" xmlns:xlink="http://www.w3.org/1999/xlink" x="0px" y="0px"
	 viewBox="0 0 64 64" style="enable-background:new 0 0 64 64;" xml:space="preserve">
<style type="text/css">
	.st0{fill:#FFFFFF;}
	.st1{fill:#FFFFFF;stroke:#000000;stroke-width:1.5;stroke-miterlimit:10;}
	.st2{fill:none;stroke:#000000;stroke-miterlimit:10;}
	.st3{fill:none;}
	.st4{fill:none;stroke:#000000;stroke-width:1.5;stroke-miterlimit:10;}
	.st5{stroke:#FFFFFF;stroke-width:1.5;stroke-miterlimit:10;}
</style>
<g id="XMLID_6370_">
	<circle id="XMLID_6396_" cx="32" cy="284" r="32"/>
</g>
<circle id="XMLID_755_" cx="-52" cy="116" r="32"/>
<g id="XMLID_421_">
	<path id="XMLID_777_" class="st0" d="M368,63.2c-17.2,0-31.2-14-31.2-31.2s14-31.2,31.2-31.2s31.2,14,31.2,31.2
		S385.2,63.2,368,63.2z"/>
	<path id="XMLID_702_" d="M368,1.6c16.8,0,30.4,13.6,30.4,30.4S384.8,62.4,368,62.4S337.6,48.8,337.6,32S351.2,1.6,368,1.6 M368,0.1
		c-17.6,0-31.9,14.3-31.9,31.9s14.3,31.9,31.9,31.9s31.9-14.3,31.9-31.9S385.6,0.1,368,0.1L368,0.1z"/>
</g>
<g id="XMLID_8817_">
	<path id="XMLID_3463_" class="st0" d="M96.5,129.3c-6.5,0-11.8-5.3-11.8-11.8v-3.1c0-6.5,5.3-11.8,11.8-11.8h39
		c6.5,0,11.8,5.3,11.8,11.8v3.1c0,6.5-5.3,11.8-11.8,11.8H96.5z"/>
	<path id="XMLID_3460_" d="M135.5,103.4c6.1,0,11,5,11,11v3.1c0,6.1-5,11-11,11h-39c-6.1,0-11-5-11-11v-3.1c0-6.1,5-11,11-11H135.5
		 M135.5,101.9h-39c-6.9,0-12.5,5.6-12.5,12.5v3.1c0,6.9,5.6,12.5,12.5,12.5h39c6.9,0,12.5-5.6,12.5-12.5v-3.1
		C148,107.6,142.4,101.9,135.5,101.9L135.5,101.9z"/>
</g>
<g id="XMLID_8795_">
	<path id="XMLID_950_" class="st0" d="M32,147.2c-17.2,0-31.2-14-31.2-31.2s14-31.2,31.2-31.2s31.2,14,31.2,31.2
		S49.2,147.2,32,147.2z"/>
	<path id="XMLID_947_" d="M32,85.5c16.8,0,30.5,13.7,30.5,30.5S48.8,146.5,32,146.5S1.5,132.8,1.5,116S15.2,85.5,32,85.5 M32,84
		C14.3,84,0,98.3,0,116s14.3,32,32,32s32-14.3,32-32S49.7,84,32,84L32,84z"/>
</g>
<g id="XMLID_8969_">
	<path id="XMLID_945_" class="st0" d="M368,315.2c-17.2,0-31.2-14-31.2-31.2s14-31.2,31.2-31.2s31.2,14,31.2,31.2
		S385.2,315.2,368,315.2z"/>
	<path id="XMLID_942_" d="M368,253.5c16.8,0,30.5,13.7,30.5,30.5s-13.7,30.5-30.5,30.5s-30.5-13.7-30.5-30.5S351.2,253.5,368,253.5
		 M368,252c-17.7,0-32,14.3-32,32s14.3,32,32,32c17.7,0,32-14.3,32-32S385.7,252,368,252L368,252z"/>
</g>
<g id="XMLID_1010_">
	<path id="XMLID_1018_" class="st0" d="M116,315.2c-17.2,0-31.2-14-31.2-31.2s14-31.2,31.2-31.2s31.2,14,31.2,31.2
		S133.2,315.2,116,315.2z"/>
	<path id="XMLID_1012_" d="M116,253.5c16.8,0,30.5,13.7,30.5,30.5s-13.7,30.5-30.5,30.5S85.5,300.8,85.5,284S99.2,253.5,116,253.5
		 M116,252c-17.7,0-32,14.3-32,32s14.3,32,32,32s32-14.3,32-32S133.7,252,116,252L116,252z"/>
</g>
<g id="XMLID_9010_">
	<path id="XMLID_940_" class="st0" d="M452,483.2c-17.2,0-31.2-14-31.2-31.2s14-31.2,31.2-31.2s31.2,14,31.2,31.2
		S469.2,483.2,452,483.2z"/>
	<path id="XMLID_937_" d="M452,421.5c16.8,0,30.5,13.7,30.5,30.5s-13.7,30.5-30.5,30.5s-30.5-13.7-30.5-30.5S435.2,421.5,452,421.5
		 M452,420c-17.7,0-32,14.3-32,32s14.3,32,32,32s32-14.3,32-32S469.7,420,452,420L452,420z"/>
</g>
<g id="XMLID_423_">
	<path id="XMLID_935_" class="st0" d="M116,567.2c-17.2,0-31.2-14-31.2-31.2s14-31.2,31.2-31.2s31.2,14,31.2,31.2
		S133.2,567.2,116,567.2z"/>
	<path id="XMLID_932_" d="M116,505.5c16.8,0,30.5,13.7,30.5,30.5s-13.7,30.5-30.5,30.5S85.5,552.8,85.5,536S99.2,505.5,116,505.5
		 M116,504c-17.7,0-32,14.3-32,32s14.3,32,32,32s32-14.3,32-32S133.7,504,116,504L116,504z"/>
</g>
<g id="XMLID_452_">
	<path id="XMLID_930_" class="st0" d="M-52,735.2c-17.2,0-31.2-14-31.2-31.2s14-31.2,31.2-31.2s31.2,14,31.2,31.2
		S-34.8,735.2-52,735.2z"/>
	<path id="XMLID_927_" d="M-52,673.5c16.8,0,30.5,13.7,30.5,30.5s-13.7,30.5-30.5,30.5s-30.5-13.7-30.5-30.5S-68.8,673.5-52,673.5
		 M-52,672c-17.7,0-32,14.3-32,32s14.3,32,32,32s32-14.3,32-32S-34.3,672-52,672L-52,672z"/>
</g>
<g id="XMLID_424_">
	<path id="XMLID_922_" class="st0" d="M32,651.2c-17.2,0-31.2-14-31.2-31.2s14-31.2,31.2-31.2s31.2,14,31.2,31.2
		S49.2,651.2,32,651.2z"/>
	<path id="XMLID_919_" d="M32,589.5c16.8,0,30.5,13.7,30.5,30.5S48.8,650.5,32,650.5S1.5,636.8,1.5,620S15.2,589.5,32,589.5 M32,588
		c-17.7,0-32,14.3-32,32s14.3,32,32,32s32-14.3,32-32S49.7,588,32,588L32,588z"/>
</g>
<g id="XMLID_425_">
	<path id="XMLID_917_" class="st0" d="M452,651.2c-17.2,0-31.2-14-31.2-31.2s14-31.2,31.2-31.2s31.2,14,31.2,31.2
		S469.2,651.2,452,651.2z"/>
	<path id="XMLID_914_" d="M452,589.5c16.8,0,30.5,13.7,30.5,30.5s-13.7,30.5-30.5,30.5s-30.5-13.7-30.5-30.5S435.2,589.5,452,589.5
		 M452,588c-17.7,0-32,14.3-32,32s14.3,32,32,32c17.7,0,32-14.3,32-32S469.7,588,452,588L452,588z"/>
</g>
<g id="XMLID_426_">
	<path id="XMLID_912_" class="st0" d="M32,567.2c-17.2,0-31.2-14-31.2-31.2s14-31.2,31.2-31.2s31.2,14,31.2,31.2
		S49.2,567.2,32,567.2z"/>
	<path id="XMLID_909_" d="M32,505.5c16.8,0,30.5,13.7,30.5,30.5S48.8,566.5,32,566.5S1.5,552.8,1.5,536S15.2,505.5,32,505.5 M32,504
		c-17.7,0-32,14.3-32,32s14.3,32,32,32s32-14.3,32-32S49.7,504,32,504L32,504z"/>
</g>
<g id="XMLID_441_">
	<path id="XMLID_903_" class="st0" d="M32,399.2c-17.2,0-31.2-14-31.2-31.2s14-31.2,31.2-31.2s31.2,14,31.2,31.2
		S49.2,399.2,32,399.2z"/>
	<path id="XMLID_899_" d="M32,337.5c16.8,0,30.5,13.7,30.5,30.5S48.8,398.5,32,398.5S1.5,384.8,1.5,368S15.2,337.5,32,337.5 M32,336
		c-17.7,0-32,14.3-32,32s14.3,32,32,32s32-14.3,32-32S49.7,336,32,336L32,336z"/>
</g>
<path id="XMLID_3149_" class="st1" d="M148,28.8c0.8-28.1-30.4-26.5-30.4-26.5C79.1,4,84.2,30.2,84.2,30.2
	c0.5,16.3,15.5,23.2,15.5,23.2c1,4-4.8,8.3-4.8,8.3c6.5,0.4,13-5.2,13-5.2c4.9,1.4,13.9,0.6,13.9,0.6C149.5,54.8,148,28.8,148,28.8z
	"/>
<path id="XMLID_3170_" class="st1" d="M112.3,48c0,0,5.7,0.5,8.8-0.4c0,0,4.2,3.6,8.3,3.3c0,0-3.6-2.7-3-5.3c0,0,9.6-4.4,9.9-14.7
	c0,0,3.3-16.7-21.3-17.8c0,0-19.9-1.1-19.4,16.8C95.6,29.9,94.6,46.5,112.3,48z"/>
<path id="XMLID_427_" class="st1" d="M64,28.8C64.8,0.6,33.6,2.3,33.6,2.3C-4.9,4,0.2,30.3,0.2,30.3c0.5,16.3,15.5,23.2,15.5,23.2
	c1,4-4.8,8.3-4.8,8.3c6.5,0.4,13-5.2,13-5.2c4.9,1.4,13.9,0.6,13.9,0.6C65.5,54.8,64,28.8,64,28.8z M16.6,37.6
	c-3.1,0-5.6-2.5-5.6-5.6s2.5-5.6,5.6-5.6c3.1,0,5.6,2.5,5.6,5.6S19.7,37.6,16.6,37.6z M32,37.6c-3.1,0-5.6-2.5-5.6-5.6
	s2.5-5.6,5.6-5.6s5.6,2.5,5.6,5.6S35.1,37.6,32,37.6z M47.4,37.6c-3.1,0-5.6-2.5-5.6-5.6s2.5-5.6,5.6-5.6c3.1,0,5.6,2.5,5.6,5.6
	S50.5,37.6,47.4,37.6z"/>
<path id="XMLID_884_" d="M-22,484h-60c-1.1,0-2-0.9-2-2v-60c0-1.1,0.9-2,2-2h60c1.1,0,2,0.9,2,2v60C-20,483.1-20.9,484-22,484z"/>
<path id="XMLID_570_" d="M566,400h-60c-1.1,0-2-0.9-2-2v-60c0-1.1,0.9-2,2-2h60c1.1,0,2,0.9,2,2v60C568,399.1,567.1,400,566,400z"/>
<circle id="XMLID_432_" cx="536.1" cy="284" r="32"/>
<g id="XMLID_1336_">
	<path id="XMLID_1357_" d="M-220,337.5c16.8,0,30.5,13.7,30.5,30.5s-13.7,30.5-30.5,30.5s-30.5-13.7-30.5-30.5
		S-236.8,337.5-220,337.5 M-220,336c-17.7,0-32,14.3-32,32c0,17.7,14.3,32,32,32c17.7,0,32-14.3,32-32C-188,350.3-202.3,336-220,336
		L-220,336z"/>
</g>
<g id="XMLID_433_">
	<path id="XMLID_434_" d="M-220,523c-12.4,0-22.5,10.1-22.5,22.5c0,12.4,10.1,22.5,22.5,22.5s22.5-10.1,22.5-22.5
		C-197.5,533.1-207.6,523-220,523z M-218.5,545.3v13.8h-3.3v-13.9c-1.6-0.7-2.8-2.3-2.8-4.2c0-2.5,2.1-4.6,4.6-4.6
		c2.5,0,4.6,2.1,4.6,4.6C-215.4,543-216.7,544.7-218.5,545.3z"/>
	<path id="XMLID_437_" d="M-230.6,524.5v-5c0-5.8,4.2-10.4,9.4-10.4h2.3c5.2,0,9.4,4.7,9.4,10.4v5c1.8,0.9,3.6,2.1,5.1,3.5v-8.5
		c0-8.6-6.5-15.5-14.5-15.5h-2.3c-8,0-14.5,7-14.5,15.5v8.5C-234.1,526.6-232.4,525.5-230.6,524.5z"/>
</g>
<path id="XMLID_438_" d="M-136,523c-12.4,0-22.5,10.1-22.5,22.5c0,12.4,10.1,22.5,22.5,22.5s22.5-10.1,22.5-22.5
	C-113.5,533.1-123.6,523-136,523z M-134.5,545.3v13.8h-3.3v-13.9c-1.6-0.7-2.8-2.3-2.8-4.2c0-2.5,2.1-4.6,4.6-4.6
	c2.5,0,4.6,2.1,4.6,4.6C-131.4,543-132.7,544.7-134.5,545.3z"/>
<path id="XMLID_442_" d="M284,503.9c-17.7,0-32.1,14.4-32.1,32.1s14.4,32.1,32.1,32.1c17.7,0,32.1-14.4,32.1-32.1
	S301.7,503.9,284,503.9z M308.7,521.8c1.8,3.1,3,6.5,3.5,10.1h-12.7c-0.4-3.2-1.1-6.6-2.4-10.1H308.7z M305.7,517.6h-10.4
	c-1.5-3.1-3.3-6.3-5.7-9.5C296.1,509.4,301.7,512.8,305.7,517.6z M296.6,536c0.1,3.6-0.4,7-1.3,10.1h-21.8
	c-0.8-3.1-1.3-6.4-1.2-10.1H296.6z M272.7,531.9c0.4-3.2,1.3-6.6,2.7-10.1h18.4c1.4,3.5,2.2,6.9,2.6,10.1H272.7z M284,507.5
	c0.4,0,0.9,0,1.3,0c2.7,3.5,4.9,6.8,6.5,10.1h-14.6c1.7-3.3,3.8-6.6,6.6-10.1C283.9,507.5,283.9,507.5,284,507.5z M279.6,507.9
	c-2.4,3.3-4.4,6.6-5.8,9.8h-11.5C266.6,512.5,272.7,508.9,279.6,507.9z M259.3,521.8H272c-1.3,3.5-2,6.9-2.4,10.1h-13.8
	C256.3,528.2,257.6,524.8,259.3,521.8z M255.5,536h13.8c0,3.6,0.4,7,1.2,10.1h-13.1C256.2,543,255.5,539.6,255.5,536z M259.3,550.2
	h12.4c2.2,6.1,5.4,10.9,7.8,13.9C270.9,562.8,263.6,557.5,259.3,550.2z M284,564.5C284,564.5,284,564.5,284,564.5
	c-2-2-6.3-7-9.1-14.3H294c-2.8,7.3-7.2,12.3-9.1,14.2C284.6,564.5,284.3,564.5,284,564.5z M289.5,563.9c2.4-3,5.5-7.7,7.7-13.7h11.4
	C304.6,557.2,297.7,562.3,289.5,563.9z M298.5,546.1c0.8-3.1,1.2-6.5,1.2-10.1h12.8c0,3.6-0.7,7-1.9,10.1H298.5z"/>
<path id="XMLID_457_" d="M-251.8,30.2c0,0-5.1-26.3,33.4-27.9c0,0,31.2-1.7,30.4,26.5c0,0,1.5,26-26.2,28.3c0,0-9,0.7-13.9-0.6
	c0,0-6.6,5.6-13,5.2c0,0,5.7-4.2,4.8-8.3C-236.3,53.4-251.3,46.5-251.8,30.2z"/>
<g id="XMLID_3031_">
	<path id="XMLID_564_" class="st0" d="M-155,60.8c1.7-1.7,4.1-4.6,3.4-7.6l-0.1-0.4l-0.3-0.2c-0.1-0.1-14.6-6.9-15.1-22.5l0-0.1
		l0-0.1c0-0.1-1.6-8.6,4.2-16c5.3-6.7,14.9-10.4,28.5-11c0,0,0.4,0,1,0c3.5,0,15.4,0.6,22.7,8.1c4.2,4.3,6.2,10.2,6,17.6
		c0.1,1.1,1.1,25.4-25.5,27.6c0,0-2.4,0.2-5.4,0.2c-3.5,0-6.4-0.3-8.2-0.8l-0.4-0.1l-0.3,0.3C-144.6,55.9-149.6,60.2-155,60.8z"/>
	<path id="XMLID_556_" d="M-133.4,3.8L-133.4,3.8c3.4,0,15,0.6,22.2,7.9c4,4.2,6,9.9,5.8,17l0,0.1l0,0.1c0.1,1,1,24.6-24.8,26.8
		c0,0-2.4,0.2-5.3,0.2c-3.5,0-6.2-0.3-8-0.8l-0.8-0.2l-0.6,0.5c0,0-3.6,3-7.8,4.3c1.4-1.8,2.6-4.1,2-6.6l-0.2-0.7l-0.7-0.3
		c-0.1-0.1-14.2-6.7-14.7-21.9l0-0.1l0-0.1c0-0.1-1.5-8.3,4.1-15.4c5.2-6.5,14.6-10.2,27.9-10.7C-134.3,3.8-134,3.8-133.4,3.8
		 M-133.4,2.3c-0.6,0-1,0-1,0c-38.5,1.7-33.4,27.9-33.4,27.9c0.5,16.3,15.5,23.2,15.5,23.2c1,4-4.8,8.3-4.8,8.3c0.2,0,0.5,0,0.7,0
		c6.2,0,12.3-5.2,12.3-5.2c2.3,0.7,5.6,0.8,8.4,0.8c3,0,5.4-0.2,5.4-0.2c27.7-2.3,26.2-28.3,26.2-28.3
		C-103.3,3.6-128.1,2.3-133.4,2.3L-133.4,2.3z"/>
</g>
<path id="XMLID_459_" d="M483.8,34.4c0.1-0.8,0.1-1.6,0.1-2.4c0-0.8-0.1-1.6-0.1-2.4l-8.4-2.1c-0.2-1.1-0.5-2.2-0.9-3.3l6.2-6
	c-0.7-1.5-1.5-2.9-2.4-4.2l-8.4,2.4c-0.7-0.9-1.6-1.7-2.4-2.4l2.4-8.4c-1.3-0.9-2.7-1.7-4.2-2.4l-6,6.2c-1.1-0.4-2.2-0.7-3.3-0.9
	l-2.1-8.4C453.6,0.1,452.8,0,452,0s-1.6,0.1-2.4,0.1l-2.1,8.4c-1.1,0.2-2.2,0.5-3.3,0.9l-6-6.2c-1.5,0.7-2.9,1.5-4.2,2.4l2.4,8.4
	c-0.9,0.7-1.7,1.6-2.4,2.4l-8.4-2.4c-0.9,1.3-1.7,2.7-2.4,4.2l6.2,6c-0.4,1.1-0.7,2.2-0.9,3.3l-8.4,2.1c-0.1,0.8-0.1,1.6-0.1,2.4
	c0,0.8,0.1,1.6,0.1,2.4l8.4,2.1c0.2,1.1,0.5,2.2,0.9,3.3l-6.2,6c0.7,1.5,1.5,2.9,2.4,4.2l8.4-2.4c0.7,0.9,1.6,1.7,2.4,2.4l-2.4,8.4
	c1.3,0.9,2.7,1.7,4.2,2.4l6-6.2c1.1,0.4,2.2,0.7,3.3,0.9l2.1,8.4c0.8,0.1,1.6,0.1,2.4,0.1s1.6-0.1,2.4-0.1l2.1-8.4
	c1.1-0.2,2.2-0.5,3.3-0.9l6,6.2c1.5-0.7,2.9-1.5,4.2-2.4l-2.4-8.4c0.9-0.7,1.7-1.6,2.4-2.4l8.4,2.4c0.9-1.3,1.7-2.7,2.4-4.2l-6.2-6
	c0.4-1.1,0.7-2.2,0.9-3.3L483.8,34.4z"/>
<path id="XMLID_460_" class="st0" d="M472.9,33.6l-5.5,1.4c-0.1,0.7-0.3,1.5-0.6,2.2l4.1,4c-0.5,1-1,1.9-1.6,2.7l-5.5-1.6
	c-0.5,0.6-1,1.1-1.6,1.6l1.6,5.5c-0.9,0.6-1.8,1.1-2.7,1.6l-4-4.1c-0.7,0.2-1.4,0.4-2.2,0.6l-1.4,5.5c-0.5,0-1,0.1-1.6,0.1
	s-1.1,0-1.6-0.1l-1.4-5.5c-0.7-0.1-1.5-0.3-2.2-0.6l-4,4.1c-1-0.5-1.9-1-2.7-1.6l1.6-5.5c-0.6-0.5-1.1-1-1.6-1.6l-5.5,1.6
	c-0.6-0.9-1.1-1.8-1.6-2.7l4.1-4c-0.2-0.7-0.4-1.4-0.6-2.2l-5.5-1.4c0-0.5-0.1-1-0.1-1.6c0-0.5,0-1.1,0.1-1.6l5.5-1.4
	c0.1-0.7,0.3-1.5,0.6-2.2l-4.1-4c0.5-1,1-1.9,1.6-2.7l5.5,1.6c0.5-0.6,1-1.1,1.6-1.6l-1.6-5.5c0.9-0.6,1.8-1.1,2.7-1.6l4,4.1
	c0.7-0.2,1.4-0.4,2.2-0.6l1.4-5.5c0.5,0,1-0.1,1.6-0.1s1.1,0,1.6,0.1l1.4,5.5c0.7,0.1,1.5,0.3,2.2,0.6l4-4.1c1,0.5,1.9,1,2.7,1.6
	l-1.6,5.5c0.6,0.5,1.1,1,1.6,1.6l5.5-1.6c0.6,0.9,1.1,1.8,1.6,2.7l-4.1,4c0.2,0.7,0.4,1.4,0.6,2.2l5.5,1.4c0,0.5,0.1,1,0.1,1.6
	C473,32.5,473,33.1,472.9,33.6z"/>
<g id="XMLID_461_">
	<g id="XMLID_462_">
		<path id="XMLID_897_" class="st0" d="M532.5,14.2c-2.8,0-5.2-2.3-5.2-5.2V7.7c0-2.8,2.3-5.2,5.2-5.2h6.9c2.8,0,5.2,2.3,5.2,5.2
			v1.4c0,2.8-2.3,5.2-5.2,5.2H532.5z"/>
		<path id="XMLID_894_" d="M539.5,3.2c2.4,0,4.4,2,4.4,4.4v1.4c0,2.4-2,4.4-4.4,4.4h-6.9c-2.4,0-4.4-2-4.4-4.4V7.7
			c0-2.4,2-4.4,4.4-4.4H539.5 M539.5,1.8h-6.9c-3.3,0-5.9,2.7-5.9,5.9v1.4c0,3.3,2.7,5.9,5.9,5.9h6.9c3.3,0,5.9-2.7,5.9-5.9V7.7
			C545.4,4.4,542.7,1.8,539.5,1.8L539.5,1.8z"/>
	</g>
	<g id="XMLID_463_">
		<path id="XMLID_464_" d="M514.4,15l5.7,45.9c1.7,1.9,15.9,2.6,15.9,2.6c12.3,0,15.5-3.3,15.5-3.3l6.1-45.3H514.4z"/>
	</g>
	<rect id="XMLID_466_" x="513.2" y="9.1" width="45.5" height="5.9"/>
</g>
<path id="XMLID_473_" d="M368,84.1c-9.3,0-16.9,7.6-16.9,16.9c0,3,0.8,5.9,2.2,8.3l14.7,38.5l14.7-38.5c1.4-2.5,2.2-5.3,2.2-8.3
	C384.9,91.7,377.3,84.1,368,84.1z M368.4,108.8c-4.2,0-7.7-3.4-7.7-7.7c0-4.2,3.4-7.7,7.7-7.7s7.7,3.4,7.7,7.7
	C376.1,105.3,372.6,108.8,368.4,108.8z"/>
<path id="XMLID_478_" d="M-20.5,206.3c-1.4-4.6-5.6-7.9-10.5-8.2c-0.5,0-0.7-0.2-0.7-0.7c0-0.8,0-1.6-0.1-2.4
	c-1.8-13.1-15.7-19.8-27.2-13.8c-4.1,2.1-6.7,5.6-8.3,9.9c-0.2,0.5-0.3,0.6-0.9,0.6c-1.3-0.1-2.7-0.1-4,0.2
	c-7.7,1.5-12.6,8.3-11.8,16.1c0.7,7.1,6.8,12.9,14,12.9c6.4,0,13,0,19,0c0,0,0,0,0,0c7,0,13.1,0,19.5,0
	C-23.1,221-18.4,212.8-20.5,206.3z"/>
<g id="XMLID_8884_">
	<path id="XMLID_886_" class="st0" d="M13,220.2c-6.4,0-11.5-5-12.2-12.2c-0.8-7.4,4-13.8,11.2-15.3c0.8-0.2,1.6-0.2,2.4-0.2
		c0.4,0,0.9,0,1.3,0.1c0.1,0,0.2,0,0.3,0c1,0,1.3-0.8,1.4-1.1c1.6-4.4,4.2-7.6,7.9-9.5c2.7-1.4,5.6-2.1,8.6-2.1
		c8.9,0,16.3,6.5,17.5,15.4c0.1,0.7,0.1,1.5,0.1,2.3c0,0.9,0.5,1.4,1.4,1.5c4.5,0.3,8.5,3.4,9.8,7.7c0.9,2.8,0.2,6.1-1.8,8.8
		c-2.3,3.1-5.7,4.8-9.5,4.8h0c-2.5,0-5,0-7.6,0l-13.7,0v0l-10.1,0C17.9,220.2,13,220.2,13,220.2z"/>
	<path id="XMLID_882_" d="M34,179l0,1.5c8.5,0,15.6,6.2,16.8,14.7c0.1,0.7,0.1,1.4,0.1,2.2c0,1.3,0.7,2.1,2.1,2.2
		c4.2,0.3,7.9,3.2,9.1,7.1c0.8,2.6,0.2,5.6-1.6,8.2c-2.1,2.9-5.4,4.5-8.9,4.5c-2.5,0-5,0-7.6,0c-2.1,0-4.2,0-6.4,0
		c-2.2,0-4.3,0-6.5,0l-1.4,0l-4,0l-5.4,0c-2.3,0-4.7,0-7.2,0c-6,0-10.8-4.7-11.5-11.5c-0.7-7,3.7-13.1,10.6-14.5
		c0.7-0.1,1.5-0.2,2.3-0.2c0.4,0,0.8,0,1.3,0.1c0.1,0,0.3,0,0.4,0c1,0,1.7-0.5,2.1-1.6c1.5-4.3,4-7.3,7.5-9.1
		c2.6-1.4,5.4-2.1,8.3-2.1V179 M34,179c-3,0-6,0.7-9,2.2c-4.1,2.1-6.7,5.6-8.3,9.9c-0.1,0.4-0.3,0.6-0.7,0.6c-0.1,0-0.1,0-0.2,0
		c-0.5-0.1-0.9-0.1-1.4-0.1c-0.9,0-1.7,0.1-2.5,0.3c-7.7,1.5-12.6,8.3-11.8,16.1c0.7,7.1,5.8,12.9,13,12.9c0,0,0,0,0,0
		c2.5,0,4.9,0,7.2,0c3.6,0,7.1,0,10.8,0c0,0,0,0,0,0c4.3,0,8.7,0,12.9,0c2.6,0,5.2,0,7.6,0c0,0,0,0,0.1,0c8.4,0,14-8.1,12-14.6
		c-1.4-4.6-5.6-7.9-10.5-8.2c-0.5,0-0.7-0.2-0.7-0.7c0-0.8,0-1.6-0.1-2.4C50.9,185.3,42.8,179,34,179L34,179z"/>
</g>
<g id="XMLID_491_">
	<path id="XMLID_492_" d="M171.5,313.7c0,1.7,1.9,2.8,3.3,1.9l26.1-14.9l26.4-14.8c1.5-0.9,1.5-3,0-3.9L201,267.2l-26.1-14.9
		c-1.5-0.8-3.3,0.2-3.3,1.9V284V313.7z"/>
</g>
<path id="XMLID_493_" d="M-20,28.8C-19.2,0.6-50.4,2.3-50.4,2.3C-88.9,4-83.8,30.2-83.8,30.2c0.5,16.3,15.5,23.2,15.5,23.2
	c1,4-4.8,8.3-4.8,8.3c6.5,0.4,13-5.2,13-5.2c4.9,1.4,13.9,0.6,13.9,0.6C-18.5,54.8-20,28.8-20,28.8z M-67.4,37.6
	c-3.1,0-5.6-2.5-5.6-5.6s2.5-5.6,5.6-5.6c3.1,0,5.6,2.5,5.6,5.6S-64.3,37.6-67.4,37.6z M-52,37.6c-3.1,0-5.6-2.5-5.6-5.6
	s2.5-5.6,5.6-5.6s5.6,2.5,5.6,5.6S-48.9,37.6-52,37.6z M-36.6,37.6c-3.1,0-5.6-2.5-5.6-5.6s2.5-5.6,5.6-5.6c3.1,0,5.6,2.5,5.6,5.6
	S-33.5,37.6-36.6,37.6z"/>
<g id="XMLID_498_">
	<path id="XMLID_621_" d="M116.1,259.4c4.6,0,9.1,1.3,13,3.7L95.1,297c-2.4-3.9-3.7-8.3-3.7-13C91.4,270.4,102.5,259.4,116.1,259.4
		 M136.3,270c2.9,4.1,4.4,8.9,4.4,14c0,13.6-11,24.6-24.6,24.6c-5.1,0-9.8-1.5-14-4.4L136.3,270 M116.1,257.9
		c-14.4,0-26.1,11.7-26.1,26.1c0,5.7,1.9,11,5,15.3l36.5-36.5C127.1,259.7,121.8,257.9,116.1,257.9L116.1,257.9z M136.5,267.7
		l-36.7,36.7c4.5,3.6,10.1,5.7,16.3,5.7c14.4,0,26.1-11.7,26.1-26.1C142.2,277.9,140.1,272.2,136.5,267.7L136.5,267.7z"/>
</g>
<g id="XMLID_6361_">
	<path id="XMLID_616_" class="st0" d="M5.9,284c0-14.4,11.7-26.1,26.1-26.1c5.7,0,11,1.9,15.3,5l-36.5,36.5
		C7.8,295,5.9,289.7,5.9,284z M32.1,310.1c-6.1,0-11.8-2.1-16.3-5.7l36.7-36.7c3.6,4.5,5.7,10.1,5.7,16.3
		C58.2,298.4,46.5,310.1,32.1,310.1z"/>
</g>
<path id="XMLID_502_" d="M52.4,438c-0.9-2.8-3.5-4.8-6.4-5c-0.3,0-0.4-0.1-0.4-0.4c0-0.5,0-1-0.1-1.5c-1.1-8-9.6-12.1-16.7-8.5
	c-2.5,1.3-4.1,3.5-5.1,6.1c-0.1,0.3-0.2,0.4-0.5,0.4c-0.8-0.1-1.6-0.1-2.4,0.1c-4.7,0.9-7.8,5.1-7.3,9.9c0.3,2.9,2.1,5.4,4.6,6.8
	c0,0,0,0.1,0,0.1v3h-5.1c-4.4,0-7.9,3.4-7.9,7.8v7.4c0,4.4,3.5,7.8,7.9,7.8H18v5c0,2.2,1.8,4,4,4h23c2.2,0,4-1.8,4-4v-30.8
	C52,444.7,53.3,441,52.4,438z M13,469.4c-3,0-6-2.9-6-6.1v-5.4c0-3.2,3-6.2,6-6.2h5v17.8H13z M27,474.7c0,2-1.4,3.6-3.4,3.6
	s-3.4-1.6-3.4-3.6v-24.9c0-2,1.4-3.6,3.4-3.6s3.4,1.6,3.4,3.6V474.7z M36.4,474.7c0,2-1.4,3.6-3.4,3.6c-2,0-3.4-1.6-3.4-3.6v-24.9
	c0-2,1.4-3.6,3.4-3.6c2,0,3.4,1.6,3.4,3.6V474.7z M45.7,474.7c0,2-1.4,3.6-3.4,3.6c-2,0-3.4-1.6-3.4-3.6v-24.9c0-2,1.4-3.6,3.4-3.6
	c2,0,3.4,1.6,3.4,3.6V474.7z M47.4,443.3H19.7c0,0,0,0,0,0c-1.1-1.1-1.9-2.5-2-4.1c-0.4-3.8,2-7.1,5.7-7.8c0.6-0.1,1.3-0.2,1.9-0.1
	c0.3,0,0.3,0,0.4-0.3c0.7-2.1,2-3.8,4-4.8c5.5-2.9,12.2,0.3,13.1,6.7c0.1,0.4,0.1,0.8,0.1,1.2c0,0.3,0.1,0.3,0.3,0.3
	c2.3,0.2,4.3,1.8,5,4C48.6,440.1,48.4,441.9,47.4,443.3z"/>
<g id="XMLID_509_">
	<g id="XMLID_1681_">
		<path id="XMLID_3828_" d="M139.2,465.4v3.2H85.7v-3.2H139.2 M140.2,463.9H84.7c-0.3,0-0.5,0.2-0.5,0.5v5.3c0,0.3,0.2,0.5,0.5,0.5
			h55.5c0.3,0,0.5-0.2,0.5-0.5v-5.3C140.7,464.2,140.5,463.9,140.2,463.9L140.2,463.9z"/>
	</g>
	<path id="XMLID_1680_" d="M143.6,470.2h-2c-0.2,0-0.4-0.2-0.4-0.4v-5.5c0-0.2,0.2-0.4,0.4-0.4h2c0.2,0,0.4,0.2,0.4,0.4v5.5
		C143.9,470,143.8,470.2,143.6,470.2z"/>
	<path id="XMLID_1679_" d="M147.2,470.2h-2.1c-0.2,0-0.3-0.1-0.3-0.3v-5.6c0-0.2,0.1-0.3,0.3-0.3h2.1c0.2,0,0.3,0.1,0.3,0.3v5.6
		C147.5,470,147.3,470.2,147.2,470.2z"/>
</g>
<g id="XMLID_512_">
	<path id="XMLID_513_" d="M537.4,484c-3.1,0-6-0.5-8.2-3.1c-1.6-1.8-2-3.8-2.4-6.1c-2.9,0-5.9,0-8.8,0c-2.7,0-7.7,1-10-1.1
		c-3.9-3.7,1.5-6.1,3.7-9c7-9.1,6.8-18.6,8.6-29.3c0.6-3.7,2.8-6.8,6-8.7c2-1.1,4.3-1.6,6.5-2.1c-0.6-2.1,0.2-4.7,3.2-4.7
		c4.5,0,3.7,4.7,3.7,4.7c3.9,0.6,8.2,2.7,10.3,6.1c4.4,7.2,2.3,17.7,5.6,25.7c1.6,3.7,3.7,7.2,6.5,10.2c2.4,2.7,6.2,6.7-0.3,8
		c-5.1,1-11.4,0.1-16.6,0.1C545,479.6,541.8,482.8,537.4,484C536.5,484,539.4,483.5,537.4,484z M535.9,481.2
		c1.6-1.3-1.2-1.4-2.1-1.8c-2.4-1-2.1-3.3-3.6-5.1C528.6,477.7,532.7,481.1,535.9,481.2C536,481.1,532.7,481.1,535.9,481.2z"/>
</g>
<circle id="XMLID_530_" cx="-52" cy="536" r="32"/>
<circle id="XMLID_711_" cx="-136" cy="452" r="32"/>
<circle id="XMLID_531_" cx="452" cy="368" r="32"/>
<circle id="XMLID_536_" cx="116" cy="536" r="8.1"/>
<g id="XMLID_537_">
	<path id="XMLID_538_" d="M368.3,508.1c-1.3,0-2.4,0-3.4,0.1c-1.9,0.1-3.7,0.4-5.6,0.7c-3.1,0.6-6.1,1.5-8.9,2.8
		c-4.8,2.1-9.2,4.9-13,8.5c-1.1,1-1.7,2.2-1.4,3.7c0.3,1.4,1.1,2.4,2.4,3c1.1,0.4,2.2,0.4,3.2-0.2c0.6-0.3,1-0.7,1.5-1.2
		c3.3-3.1,7.1-5.4,11.3-7.1c3.3-1.3,6.7-2.1,10.2-2.4c4.9-0.4,9.7,0.1,14.4,1.6c2.8,0.9,5.4,2.1,7.9,3.6c2.2,1.3,4.2,2.9,6.1,4.6
		c0.4,0.4,0.8,0.7,1.4,1c1.3,0.6,2.5,0.5,3.7-0.2c1.2-0.7,1.8-1.8,1.8-3.1c0.1-1.3-0.5-2.3-1.4-3.2c-1.4-1.3-2.8-2.5-4.3-3.6
		c-5.5-4-11.5-6.6-18.2-7.8C373.4,508.4,370.7,508.1,368.3,508.1z M367.7,521.2c-3.9,0-7.9,0.8-11.8,2.4c-3.7,1.5-7,3.8-10,6.6
		c-1.5,1.5-1.7,3.4-0.8,4.9c1.2,2.1,3.9,2.6,5.8,1.1c0.9-0.7,1.7-1.5,2.6-2.2c1.6-1.2,3.4-2.3,5.3-3.1c2.2-0.9,4.4-1.5,6.8-1.7
		c3.1-0.3,6.2,0,9.2,0.9c2.1,0.7,4.1,1.6,6,2.8c1.3,0.9,2.5,1.9,3.6,2.9c1,1,2.2,1.4,3.7,1.1c1.3-0.3,2.3-1.1,2.8-2.3
		c0.6-1.6,0.3-3.1-1-4.4c-0.9-0.9-1.8-1.7-2.8-2.4c-3-2.3-6.3-4-9.9-5.2C374.3,521.7,371.2,521.2,367.7,521.2z M382.6,543.1
		c0-0.9-0.3-2-0.9-2.6c-2.7-3-6.1-5-10.1-5.8c-2.4-0.5-4.7-0.5-7.1,0c-2.4,0.5-4.7,1.4-6.7,2.8c-1.4,1-2.7,2-3.7,3.4
		c-0.5,0.7-0.7,1.5-0.6,2.3c0.1,0.9,0.4,1.8,1.1,2.5c1,1.1,2.3,1.4,3.7,1.1c0.9-0.2,1.6-0.7,2.2-1.3c1.6-1.6,3.5-2.7,5.7-3.1
		c2.2-0.4,4.4-0.1,6.4,0.9c1.2,0.6,2.2,1.4,3.2,2.3c0.8,0.9,1.9,1.4,3.1,1.3C380.9,546.8,382.5,545.2,382.6,543.1z M367.9,563.9
		c1.9,0,3.5-0.4,4.9-1.3c4.5-2.7,5.1-8.7,1.3-12.2c-3.3-3-8.5-3-11.8,0c-2.9,2.6-3.4,6.9-1.1,10
		C362.9,562.8,365.3,563.8,367.9,563.9z"/>
</g>
<path id="XMLID_543_" d="M452,504c-17.7,0-32,14.3-32,32c0,17.7,14.3,32,32,32s32-14.3,32-32C484,518.3,469.7,504,452,504z
	 M455.6,557.3c-1,0.6-2.2,0.9-3.6,1c-1.9-0.1-3.7-0.8-5-2.6c-1.7-2.3-1.3-5.4,0.8-7.4c2.4-2.2,6.3-2.2,8.7,0
	C459.3,550.9,458.9,555.3,455.6,557.3z M460,545.7c-0.9,0-1.7-0.3-2.3-1c-0.7-0.7-1.4-1.3-2.3-1.7c-1.5-0.7-3.1-0.9-4.8-0.6
	c-1.7,0.3-3.1,1.1-4.2,2.3c-0.4,0.5-1,0.8-1.6,1c-1.1,0.2-2,0-2.7-0.8c-0.5-0.5-0.8-1.1-0.8-1.8c0-0.6,0.1-1.2,0.5-1.7
	c0.7-1,1.7-1.8,2.8-2.5c1.5-1,3.2-1.7,5-2.1c1.7-0.3,3.5-0.3,5.2,0c3,0.6,5.4,2,7.5,4.3c0.4,0.5,0.7,1.3,0.7,1.9
	C462.7,544.4,461.5,545.6,460,545.7z M469,536.6c-0.4,0.9-1.1,1.5-2.1,1.7c-1.1,0.2-1.9-0.1-2.7-0.8c-0.8-0.8-1.7-1.5-2.7-2.2
	c-1.4-0.9-2.9-1.6-4.4-2.1c-2.2-0.7-4.5-0.9-6.8-0.7c-1.7,0.2-3.4,0.6-5,1.3c-1.4,0.6-2.7,1.3-3.9,2.3c-0.7,0.5-1.3,1.1-1.9,1.7
	c-1.4,1.1-3.4,0.7-4.3-0.8c-0.7-1.1-0.5-2.6,0.6-3.6c2.1-2.1,4.6-3.7,7.4-4.9c2.8-1.2,5.8-1.8,8.7-1.8c2.5,0,4.8,0.3,7.1,1
	c2.7,0.8,5.1,2.1,7.3,3.8c0.7,0.6,1.4,1.2,2.1,1.8C469.2,534.3,469.5,535.4,469,536.6z M474.3,530.7c-0.9,0.5-1.8,0.6-2.7,0.2
	c-0.4-0.2-0.7-0.4-1-0.7c-1.4-1.3-2.9-2.4-4.5-3.4c-1.8-1.1-3.8-2-5.8-2.6c-3.5-1.1-7-1.5-10.6-1.1c-2.6,0.2-5.1,0.8-7.5,1.8
	c-3.1,1.2-5.9,3-8.3,5.2c-0.3,0.3-0.7,0.6-1.1,0.9c-0.8,0.4-1.6,0.4-2.4,0.1c-1-0.4-1.6-1.1-1.8-2.2c-0.2-1.1,0.2-2,1-2.8
	c2.8-2.7,6-4.8,9.6-6.3c2.1-0.9,4.3-1.6,6.6-2c1.4-0.3,2.7-0.4,4.1-0.5c0.7-0.1,1.5-0.1,2.5-0.1c1.8,0,3.8,0.2,5.8,0.6
	c4.9,0.9,9.4,2.9,13.4,5.8c1.1,0.8,2.2,1.7,3.2,2.7c0.7,0.6,1.1,1.4,1,2.4C475.6,529.4,475.1,530.2,474.3,530.7z"/>
<path id="XMLID_549_" d="M200,588c-17.7,0-32,14.3-32,32c0,17.7,14.3,32,32,32s32-14.3,32-32C232,602.3,217.7,588,200,588z
	 M184.7,642c-1.6-0.4-3-1.2-4.4-2.6c-1.8-1.9-2.7-4.4-2.3-7.3c0.6-3.8,3.9-6.5,7.9-6.3c4.5,0.2,8.2,3.9,8.4,8.4
	C194.5,639.5,189.9,643.2,184.7,642z M206.8,632.5c0,0.9-0.6,1.9-1.2,2.5c-1.5,1.5-3.8,1.4-5.4,0.1c-0.9-0.8-1.3-1.9-1.3-3.1
	c0-1.3-0.1-2.7-0.6-3.9c-0.8-2.2-2.1-3.9-4-5.2c-1.9-1.3-4-1.9-6.3-1.9c-0.9,0-1.7-0.1-2.5-0.6c-1.2-0.8-1.9-1.9-1.9-3.4
	c0-1,0.4-1.8,1-2.5c0.5-0.6,1.2-1.1,2.1-1.2c1.7-0.3,3.4-0.1,5.1,0.2c2.4,0.5,4.7,1.4,6.8,2.8c2,1.4,3.7,3,5,5
	C206,624.7,207,628.4,206.8,632.5z M219.3,637.9c-1.4,0.6-2.9,0.5-4.2-0.4c-1.4-0.9-2-2.3-2.1-3.9c-0.1-1.8-0.2-3.6-0.6-5.3
	c-0.5-2.5-1.4-4.9-2.6-7.2c-1.7-3.2-4-5.9-6.7-8.2c-2.1-1.7-4.4-3.1-6.9-4.1c-2.2-0.9-4.4-1.5-6.7-1.8c-1.3-0.2-2.6-0.1-3.9-0.3
	c-2.7-0.4-4.5-2.9-3.8-5.6c0.5-2,2.2-3.4,4.6-3.3c4.6,0.1,9.1,1,13.4,2.7c4.4,1.8,8.3,4.4,11.5,7.6c2.8,2.8,5,5.7,6.7,8.9
	c2,3.9,3.3,7.9,3.8,12.3c0.2,1.4,0.3,2.8,0.3,4.2C222.1,635.6,221.2,637.1,219.3,637.9z"/>
<g id="XMLID_554_">
	<path id="XMLID_2151_" d="M127.3,608.1c2.8,2.8,5,5.7,6.7,8.9c2,3.9,3.3,7.9,3.8,12.3c0.2,1.4,0.3,2.8,0.3,4.2c0,2-0.9,3.5-2.8,4.3
		c-1.4,0.6-2.9,0.5-4.2-0.4c-1.4-0.9-2-2.3-2.1-3.9c-0.1-1.8-0.2-3.6-0.6-5.3c-0.5-2.5-1.4-4.9-2.6-7.2c-1.7-3.2-4-5.9-6.7-8.2
		c-2.1-1.7-4.4-3.1-6.9-4.1c-2.2-0.9-4.4-1.5-6.7-1.8c-1.3-0.2-2.6-0.1-3.9-0.3c-2.7-0.4-4.5-2.9-3.8-5.6c0.5-2,2.2-3.4,4.6-3.3
		c4.6,0.1,9.1,1,13.4,2.7C120.2,602.3,124.2,604.9,127.3,608.1z"/>
	<path id="XMLID_2150_" d="M121.6,635c-1.5,1.5-3.8,1.4-5.4,0.1c-0.9-0.8-1.3-1.9-1.3-3.1c0-1.3-0.1-2.7-0.6-3.9
		c-0.8-2.2-2.1-3.9-4-5.2c-1.9-1.3-4-1.9-6.3-1.9c-0.9,0-1.7-0.1-2.5-0.6c-1.2-0.8-1.9-1.9-1.9-3.4c0-1,0.4-1.8,1-2.5
		c0.5-0.6,1.2-1.1,2.1-1.2c1.7-0.3,3.4-0.1,5.1,0.2c2.4,0.5,4.7,1.4,6.8,2.8c2,1.4,3.7,3,5,5c2.3,3.4,3.3,7.2,3.1,11.3
		C122.7,633.4,122.2,634.5,121.6,635z"/>
	<path id="XMLID_2149_" d="M96.3,639.4c-1.8-1.9-2.7-4.4-2.3-7.3c0.6-3.8,3.9-6.5,7.9-6.3c4.5,0.2,8.2,3.9,8.4,8.4
		c0.2,5.2-4.4,9-9.6,7.7C99.1,641.6,97.7,640.8,96.3,639.4z"/>
</g>
<path id="XMLID_559_" d="M219.5,102h-38.9c-6.9,0-12.5,5.6-12.5,12.5v2.9c0,6.9,5.6,12.5,12.5,12.5h38.9c6.9,0,12.5-5.6,12.5-12.5
	v-2.9C232,107.6,226.4,102,219.5,102z M217.6,127.3c-6.3,0-11.3-5.1-11.3-11.3s5.1-11.3,11.3-11.3s11.3,5.1,11.3,11.3
	S223.8,127.3,217.6,127.3z"/>
<ellipse id="XMLID_562_" cx="99.2" cy="116" rx="11.4" ry="11.3"/>
<g id="XMLID_566_">
	<polygon id="XMLID_567_" points="316,600.5 316,600.5 316,600.5 	"/>
	<polygon id="XMLID_568_" points="313.8,600.5 254.2,600.5 284,618.6 	"/>
	<polygon id="XMLID_569_" points="314.2,639.5 289,618.3 284,621.4 279,618.3 253.8,639.5 	"/>
	<polygon id="XMLID_571_" points="316,637.9 316,601.9 291.2,617 	"/>
	<polygon id="XMLID_572_" points="252,600.5 252,600.5 252,600.5 	"/>
	<polygon id="XMLID_573_" points="252,639.5 252,639.5 252,639.5 	"/>
	<polygon id="XMLID_574_" points="316,639.5 316,639.5 316,639.5 	"/>
	<polygon id="XMLID_575_" points="276.8,617 252,601.9 252,637.9 	"/>
</g>
<path id="XMLID_576_" d="M367.7,588c-17.7,0.2-31.9,14.6-31.7,32.3c0.2,17.7,14.6,31.9,32.3,31.7c17.7-0.2,31.9-14.6,31.7-32.3
	C399.8,602.1,385.4,587.8,367.7,588z M386.8,607.7L368,619.1l-18.8-11.4H386.8z M347.8,607.7L347.8,607.7L347.8,607.7L347.8,607.7z
	 M347.8,608.6l15.6,9.5l-15.6,13.2V608.6z M347.8,632.3L347.8,632.3L347.8,632.3L347.8,632.3z M349,632.3l15.8-13.4l3.2,1.9l3.2-1.9
	l15.8,13.4H349z M388.2,632.3L388.2,632.3L388.2,632.3L388.2,632.3z M388.2,631.3l-15.6-13.2l15.6-9.5V631.3z M388.2,607.7
	L388.2,607.7L388.2,607.7L388.2,607.7z"/>
<g id="XMLID_586_">
	<polygon id="XMLID_587_" points="472.2,607.7 472.2,607.7 472.2,607.7 	"/>
	<polygon id="XMLID_588_" points="470.8,607.7 433.2,607.7 452,619.1 	"/>
	<polygon id="XMLID_589_" points="471,632.3 455.2,618.9 452,620.9 448.8,618.9 433,632.3 	"/>
	<polygon id="XMLID_590_" points="472.2,631.3 472.2,608.6 456.5,618.1 	"/>
	<polygon id="XMLID_591_" points="431.8,607.7 431.8,607.7 431.8,607.7 	"/>
	<polygon id="XMLID_592_" points="431.8,632.3 431.8,632.3 431.8,632.3 	"/>
	<polygon id="XMLID_593_" points="472.2,632.3 472.2,632.3 472.2,632.3 	"/>
	<polygon id="XMLID_594_" points="447.5,618.1 431.8,608.6 431.8,631.3 	"/>
</g>
<g id="XMLID_595_">
	<path id="XMLID_832_" d="M368,8.9c0.4,4.4,0.6,8.9,0.7,13.3c0,2.2,0.1,4.4,0,6.7c0,2.2,0,4.4-0.1,6.7l-0.3-0.7
		c1.1,1.1,2.2,2.3,3.4,3.4c1.1,1.1,2.2,2.3,3.3,3.5c1.1,1.2,2.2,2.4,3.2,3.6c1.1,1.2,2.1,2.4,3.1,3.7c-1.3-1-2.5-2-3.7-3.1
		c-1.2-1-2.4-2.1-3.6-3.2c-1.2-1.1-2.4-2.1-3.5-3.2c-1.2-1.1-2.3-2.2-3.5-3.3l-0.3-0.3l0-0.4c0-2.2,0-4.4,0.1-6.7
		c0-2.2,0.1-4.4,0.2-6.6C367.2,17.7,367.5,13.3,368,8.9z"/>
</g>
<g id="XMLID_596_">
	<path id="XMLID_597_" d="M97.4,226.1v-52.2c1-0.5,1.7-1.5,1.7-2.8c0-1.7-1.4-3.1-3.1-3.1c-1.7,0-3.1,1.4-3.1,3.1
		c0,1.2,0.7,2.3,1.7,2.8v52.2c-1,0.5-1.7,1.5-1.7,2.8c0,1.7,1.4,3.1,3.1,3.1c1.7,0,3.1-1.4,3.1-3.1
		C99.1,227.7,98.4,226.6,97.4,226.1z"/>
	<g id="XMLID_1188_">
		<path id="XMLID_1228_" d="M99.2,199c0.2-7.6-0.1-14.7,0-22.3c0-0.8,0.1-1.7,0.5-2.5c0.7-1.1,2.2-1.3,3.5-1.4
			c4.7-0.3,9.4,0.3,13.9,1.6c3.9,1.1,7.7,2.8,11.8,3.3c4.1,0.5,8.6-0.6,10.9-4c-0.6,4.5-1,9.1-1.3,13.6c-0.3,4.6-0.3,9.3,1.6,13.5
			c-0.8-0.5-1.9-0.5-2.8-0.2c-0.9,0.3-1.7,0.8-2.6,1.2c-3.3,1.5-7.2,1.3-10.8,0.3c-3.5-1-6.8-2.6-10.2-4c-3.4-1.4-7-2.4-10.7-2.1
			c-0.9,0.1-1.8,0.2-2.5,0.7C99.7,197.3,99.1,198.1,99.2,199"/>
	</g>
</g>
<g id="XMLID_875_">
	<path id="XMLID_1196_" d="M180.9,226.1v-52.2c1-0.5,1.7-1.5,1.7-2.8c0-1.7-1.4-3.1-3.1-3.1s-3.1,1.4-3.1,3.1c0,1.2,0.7,2.3,1.7,2.8
		v52.2c-1,0.5-1.7,1.5-1.7,2.8c0,1.7,1.4,3.1,3.1,3.1s3.1-1.4,3.1-3.1C182.6,227.7,181.9,226.6,180.9,226.1z"/>
	<path id="XMLID_876_" class="st2" d="M182.7,199c0.2-7.6-0.1-14.7,0-22.3c0-0.8,0.1-1.7,0.5-2.5c0.7-1.1,2.2-1.3,3.5-1.4
		c4.7-0.3,9.4,0.3,13.9,1.6c3.9,1.1,7.7,2.8,11.8,3.3c4.1,0.5,8.6-0.6,10.9-4c-0.6,4.5-1,9.1-1.3,13.6c-0.3,4.6-0.3,9.3,1.6,13.5
		c-0.8-0.5-1.9-0.5-2.8-0.2s-1.7,0.8-2.6,1.2c-3.3,1.5-7.2,1.3-10.8,0.3c-3.5-1-6.8-2.6-10.2-4c-3.4-1.4-7-2.4-10.7-2.1
		c-0.9,0.1-1.8,0.2-2.5,0.7C183.2,197.3,182.7,198.1,182.7,199"/>
</g>
<g id="XMLID_599_">
	<path id="XMLID_600_" d="M190.3,520.1c-1.6,3.9-2.5,7.7-3,11.3h26.5c-0.5-3.6-1.4-7.4-3-11.3H190.3z"/>
	<path id="XMLID_601_" d="M188.3,547.3h24.4c0.9-3.4,1.5-7.2,1.4-11.3H187C186.9,540.1,187.4,543.9,188.3,547.3z"/>
	<path id="XMLID_602_" d="M199.8,504.1c-3.1,3.9-5.5,7.7-7.4,11.3h16.3c-1.9-3.6-4.3-7.4-7.3-11.3c-0.5,0-1,0-1.4,0
		C199.9,504.1,199.9,504.1,199.8,504.1z"/>
	<path id="XMLID_603_" d="M206.3,504.7c2.6,3.7,4.7,7.2,6.3,10.7h11.7C219.8,510,213.5,506.2,206.3,504.7z"/>
	<path id="XMLID_604_" d="M216.2,547.3h13.6c1.3-3.5,2.1-7.3,2.1-11.3h-14.3C217.6,540,217.1,543.8,216.2,547.3z"/>
	<path id="XMLID_605_" d="M217.3,531.4h14.3c-0.6-4.1-2-7.9-3.9-11.3h-13C216,524,216.9,527.8,217.3,531.4z"/>
	<path id="XMLID_606_" d="M195,567.5c-2.7-3.4-6.3-8.7-8.7-15.6h-13.9C177.1,560.1,185.3,566,195,567.5z"/>
	<path id="XMLID_607_" d="M195,504.5c-7.7,1.2-14.5,5.2-19.4,10.9h12.8C190.2,511.9,192.3,508.2,195,504.5z"/>
	<path id="XMLID_608_" d="M214.8,551.9c-2.4,6.7-5.9,12-8.6,15.4c9.1-1.8,16.9-7.5,21.4-15.4H214.8z"/>
	<path id="XMLID_609_" d="M201,567.9c2.1-2.2,7-7.8,10.2-15.9h-21.4c3.1,8.1,8,13.7,10.2,16c0,0,0,0,0,0
		C200.3,567.9,200.7,567.9,201,567.9z"/>
	<path id="XMLID_610_" d="M168.4,531.4h15.4c0.4-3.6,1.3-7.4,2.7-11.3h-14.2C170.4,523.5,169,527.3,168.4,531.4z"/>
	<path id="XMLID_611_" d="M184.9,547.3c-0.9-3.5-1.4-7.3-1.3-11.3h-15.5c0,4,0.7,7.8,2.1,11.3H184.9z"/>
</g>
<g id="XMLID_612_">
	<path id="XMLID_613_" d="M511.5,593.8c4.4,5.5,8.7,10.9,12.9,16.1c-0.3,0.7-0.7,1.2-0.9,1.8c-0.3,1.1,0.1,2.1,0.5,3.1
		c1,2.3,2.4,4.3,3.8,6.2c3.2,4.5,6.8,8.6,11,12.2c0.4,0.4,0.9,0.7,1.4,1c1.2,0.8,2.4,1.1,3.7,0.1c4.2,5.3,8.4,10.6,12.6,15.9
		c-0.7,0.6-1.5,0.9-2.3,1.1c-2.9,0.7-5.8,0.4-8.7-0.4c-4.6-1.3-8.6-3.8-12.3-6.7c-5.7-4.5-10.3-10-14.5-15.8
		c-2.7-3.8-5.1-7.8-7-12.1c-1.9-4.3-3.2-8.8-3-13.6c0.1-2.8,0.6-5.5,2.2-8c0.1-0.2,0.3-0.4,0.5-0.7
		C511.3,594.1,511.4,594,511.5,593.8"/>
	<path id="XMLID_614_" d="M526.4,608.5c-4.3-5.4-8.6-10.8-13-16.3c0.1-0.1,0.3-0.1,0.4-0.2c1.3-1.1,2.6-2.1,3.9-3.2
		c1.3-1,2.5-0.9,3.6,0.4c3.2,4,6.5,8,9.7,12.1c1.2,1.5,1,2.7-0.4,3.9C529.2,606.3,527.8,607.4,526.4,608.5"/>
	<path id="XMLID_615_" d="M558.1,648.7c-4.2-5.3-8.4-10.6-12.7-15.9c0.6-0.5,1.3-1,1.9-1.5c0.8-0.6,1.6-1.3,2.4-1.9
		c1.3-1.1,2.6-0.9,3.7,0.4c3.1,3.9,6.3,7.9,9.4,11.8c1.1,1.4,1,2.6-0.4,3.7C561,646.5,559.6,647.5,558.1,648.7"/>
</g>
<path id="XMLID_626_" d="M-136,672.1c-17.6,0-31.9,14.3-31.9,31.9s14.3,31.9,31.9,31.9c17.6,0,31.9-14.3,31.9-31.9
	S-118.4,672.1-136,672.1z M-150.6,685.6c0.9-0.7,1.7-1.4,2.6-2.1c0.8-0.7,1.7-0.6,2.3,0.3c2.1,2.6,4.3,5.3,6.4,7.9
	c0.8,1,0.7,1.8-0.3,2.6c-0.9,0.7-1.8,1.4-2.7,2.2c-2.9-3.6-5.7-7.1-8.6-10.7C-150.8,685.7-150.7,685.7-150.6,685.6z M-124.1,724.6
	c-1.9,0.5-3.8,0.3-5.7-0.3c-3-0.9-5.7-2.5-8.1-4.4c-3.7-3-6.8-6.6-9.5-10.4c-1.8-2.5-3.4-5.1-4.6-7.9c-1.2-2.8-2.1-5.8-2-8.9
	c0-1.9,0.4-3.6,1.4-5.2c0.1-0.1,0.2-0.3,0.3-0.4c0.1-0.1,0.1-0.1,0.2-0.3c2.9,3.6,5.7,7.1,8.5,10.6c-0.2,0.4-0.5,0.8-0.6,1.2
	c-0.2,0.7,0.1,1.4,0.3,2.1c0.7,1.5,1.6,2.8,2.5,4.1c2.1,2.9,4.5,5.6,7.2,8c0.3,0.2,0.6,0.5,0.9,0.7c0.8,0.5,1.6,0.7,2.4,0
	c2.8,3.5,5.5,6.9,8.3,10.4C-123.1,724.3-123.6,724.5-124.1,724.6z M-118.7,720.6c-0.9,0.7-1.8,1.5-2.8,2.2c-2.8-3.5-5.5-7-8.3-10.5
	c0.4-0.3,0.8-0.7,1.2-1c0.5-0.4,1-0.8,1.6-1.2c0.9-0.7,1.7-0.6,2.4,0.3c2.1,2.6,4.1,5.2,6.2,7.8
	C-117.7,719.1-117.8,719.9-118.7,720.6z"/>
<g id="XMLID_631_">
	<path id="XMLID_632_" d="M-55.3,691.7c-2.1-2.6-4.3-5.3-6.4-7.9c-0.7-0.8-1.5-0.9-2.3-0.3c-0.9,0.7-1.7,1.4-2.6,2.1
		c-0.1,0.1-0.2,0.1-0.3,0.2c2.9,3.6,5.7,7.1,8.6,10.7c0.9-0.7,1.8-1.5,2.7-2.2C-54.6,693.5-54.5,692.7-55.3,691.7z"/>
	<path id="XMLID_633_" d="M-37.5,722.9c1-0.8,1.9-1.5,2.8-2.2c0.9-0.7,1-1.5,0.3-2.5c-2-2.6-4.1-5.2-6.2-7.8c-0.7-0.9-1.5-1-2.4-0.3
		c-0.5,0.4-1,0.8-1.6,1.2c-0.4,0.3-0.8,0.6-1.2,1C-43,715.9-40.3,719.4-37.5,722.9z"/>
	<path id="XMLID_634_" d="M-70.1,692.7c-0.1,3.1,0.8,6.1,2,8.9c1.2,2.8,2.8,5.4,4.6,7.9c2.8,3.8,5.8,7.4,9.5,10.4
		c2.4,2,5.1,3.6,8.1,4.4c1.9,0.5,3.8,0.7,5.7,0.3c0.5-0.1,1.1-0.3,1.5-0.7c-2.8-3.5-5.5-7-8.3-10.4c-0.8,0.6-1.6,0.5-2.4,0
		c-0.3-0.2-0.6-0.4-0.9-0.7c-2.7-2.4-5.1-5.1-7.2-8c-0.9-1.3-1.9-2.6-2.5-4.1c-0.3-0.7-0.6-1.3-0.3-2.1c0.1-0.4,0.4-0.8,0.6-1.2
		c-2.8-3.5-5.6-7-8.5-10.6c-0.1,0.1-0.2,0.2-0.2,0.3c-0.1,0.1-0.2,0.3-0.3,0.4C-69.7,689.1-70,690.8-70.1,692.7z"/>
</g>
<path id="XMLID_635_" d="M-193.9,672h-52.2c-3.2,0-5.9,2.6-5.9,5.9v52.2c0,3.2,2.6,5.9,5.9,5.9h52.2c3.2,0,5.9-2.6,5.9-5.9v-52.2
	C-188,674.6-190.6,672-193.9,672z M-234.6,685.6c0.9-0.7,1.7-1.4,2.6-2.1c0.8-0.7,1.7-0.6,2.3,0.3c2.1,2.6,4.3,5.3,6.4,7.9
	c0.8,1,0.7,1.8-0.3,2.6c-0.9,0.7-1.8,1.4-2.7,2.2c-2.9-3.6-5.7-7.1-8.6-10.7C-234.8,685.7-234.7,685.7-234.6,685.6z M-208.1,724.6
	c-1.9,0.5-3.8,0.3-5.7-0.3c-3-0.9-5.7-2.5-8.1-4.4c-3.7-3-6.8-6.6-9.5-10.4c-1.8-2.5-3.4-5.1-4.6-7.9c-1.2-2.8-2.1-5.8-2-8.9
	c0-1.9,0.4-3.6,1.4-5.2c0.1-0.1,0.2-0.3,0.3-0.4c0.1-0.1,0.1-0.1,0.2-0.3c2.9,3.6,5.7,7.1,8.5,10.6c-0.2,0.4-0.5,0.8-0.6,1.2
	c-0.2,0.7,0.1,1.4,0.3,2.1c0.7,1.5,1.6,2.8,2.5,4.1c2.1,2.9,4.5,5.6,7.2,8c0.3,0.2,0.6,0.5,0.9,0.7c0.8,0.5,1.6,0.7,2.4,0
	c2.8,3.5,5.5,6.9,8.3,10.4C-207.1,724.3-207.6,724.5-208.1,724.6z M-202.7,720.6c-0.9,0.7-1.8,1.5-2.8,2.2c-2.8-3.5-5.5-7-8.3-10.5
	c0.4-0.3,0.8-0.7,1.2-1c0.5-0.4,1-0.8,1.6-1.2c0.9-0.7,1.7-0.6,2.4,0.3c2.1,2.6,4.1,5.2,6.2,7.8
	C-201.7,719.1-201.8,719.9-202.7,720.6z"/>
<g id="XMLID_640_">
	<path id="XMLID_968_" d="M224.3,9.5h-5.5v1.3c0,1.9-1.5,3.4-3.4,3.4h-2.3c-1.9,0-3.4-1.5-3.4-3.4V9.5h-20.5v1.3
		c0,1.9-1.5,3.4-3.4,3.4h-2.3c-1.9,0-3.4-1.5-3.4-3.4V9.5h-4.5c-3.3,0-6,2.7-6,6V58c0,3.3,2.7,6,6,6h48.6c3.3,0,6-2.7,6-6V15.6
		C230.3,12.2,227.6,9.5,224.3,9.5z"/>
	<path id="XMLID_641_" class="st0" d="M225.3,60.5h-50.7c-1.1,0-2-0.9-2-2V15c0-1.1,0.9-2,2-2h50.7c1.1,0,2,0.9,2,2v43.6
		C227.3,59.6,226.4,60.5,225.3,60.5z"/>
	<path id="XMLID_642_" d="M183.7,0c-1.2,0-2.2,1-2.2,2.2v8c0,1.2,1,2.2,2.2,2.2h2.1c1.2,0,2.2-1,2.2-2.2v-8c0-1.2-1-2.2-2.2-2.2
		H183.7z"/>
	<path id="XMLID_644_" d="M213.2,0c-1.2,0-2.2,1-2.2,2.2v8c0,1.2,1,2.2,2.2,2.2h2.1c1.2,0,2.2-1,2.2-2.2v-8c0-1.2-1-2.2-2.2-2.2
		H213.2z"/>
	<g id="XMLID_965_">
		<g id="XMLID_646_">
			<path id="XMLID_871_" d="M185.3,24.8c2,0,3.6,1.6,3.6,3.6v0.1c0,2-1.6,3.6-3.6,3.6c-2,0-3.6-1.6-3.6-3.6v-0.1
				C181.7,26.4,183.3,24.8,185.3,24.8 M185.3,23.8c-2.5,0-4.6,2.1-4.6,4.6v0.1c0,2.5,2.1,4.6,4.6,4.6c2.5,0,4.6-2.1,4.6-4.6v-0.1
				C189.9,25.8,187.8,23.8,185.3,23.8L185.3,23.8z"/>
		</g>
		<g id="XMLID_647_">
			<path id="XMLID_867_" d="M200,24.8c2,0,3.6,1.6,3.6,3.6v0.1c0,2-1.6,3.6-3.6,3.6s-3.6-1.6-3.6-3.6v-0.1
				C196.4,26.4,198,24.8,200,24.8 M200,23.8L200,23.8c-2.5,0-4.6,2.1-4.6,4.6v0.1c0,2.5,2.1,4.6,4.6,4.6l0,0c2.5,0,4.6-2.1,4.6-4.6
				v-0.1C204.6,25.8,202.5,23.8,200,23.8L200,23.8z"/>
		</g>
		<g id="XMLID_648_">
			<path id="XMLID_863_" d="M214.7,24.8c2,0,3.6,1.6,3.6,3.6v0.1c0,2-1.6,3.6-3.6,3.6s-3.6-1.6-3.6-3.6v-0.1
				C211.1,26.4,212.8,24.8,214.7,24.8 M214.7,23.8L214.7,23.8c-2.5,0-4.6,2.1-4.6,4.6v0.1c0,2.5,2.1,4.6,4.6,4.6h0
				c2.5,0,4.6-2.1,4.6-4.6v-0.1C219.3,25.8,217.3,23.8,214.7,23.8L214.7,23.8z"/>
		</g>
		<g id="XMLID_649_">
			<path id="XMLID_859_" d="M185.3,41.2c2,0,3.6,1.6,3.6,3.6v0.1c0,2-1.6,3.6-3.6,3.6c-2,0-3.6-1.6-3.6-3.6v-0.1
				C181.7,42.8,183.3,41.2,185.3,41.2 M185.3,40.2c-2.5,0-4.6,2.1-4.6,4.6v0.1c0,2.5,2.1,4.6,4.6,4.6c2.5,0,4.6-2.1,4.6-4.6v-0.1
				C189.9,42.3,187.8,40.2,185.3,40.2L185.3,40.2z"/>
		</g>
		<g id="XMLID_650_">
			<path id="XMLID_855_" d="M200,41.2c2,0,3.6,1.6,3.6,3.6v0.1c0,2-1.6,3.6-3.6,3.6s-3.6-1.6-3.6-3.6v-0.1
				C196.4,42.8,198,41.2,200,41.2 M200,40.2L200,40.2c-2.5,0-4.6,2.1-4.6,4.6v0.1c0,2.5,2.1,4.6,4.6,4.6l0,0c2.5,0,4.6-2.1,4.6-4.6
				v-0.1C204.6,42.3,202.5,40.2,200,40.2L200,40.2z"/>
		</g>
		<g id="XMLID_651_">
			<path id="XMLID_851_" d="M214.7,41.2c2,0,3.6,1.6,3.6,3.6v0.1c0,2-1.6,3.6-3.6,3.6s-3.6-1.6-3.6-3.6v-0.1
				C211.1,42.8,212.8,41.2,214.7,41.2 M214.7,40.2L214.7,40.2c-2.5,0-4.6,2.1-4.6,4.6v0.1c0,2.5,2.1,4.6,4.6,4.6h0
				c2.5,0,4.6-2.1,4.6-4.6v-0.1C219.3,42.3,217.3,40.2,214.7,40.2L214.7,40.2z"/>
		</g>
	</g>
</g>
<g id="XMLID_652_">
	<g id="XMLID_653_">
		<path id="XMLID_1574_" d="M147.9,368.3c0,2-0.2,4.3-0.6,6.6c-0.9,5.6-2.9,10.7-5.9,15.3c-0.8,1.3-1.7,2.5-2.7,3.7
			c-0.6,0.8-1.4,1.2-2.4,1.2c-1-0.1-1.8-0.6-2.3-1.6c-0.6-1-0.6-2.1-0.2-3.1c0.2-0.4,0.4-0.8,0.7-1.2c1.3-1.6,2.5-3.3,3.5-5.2
			c1.1-2.1,2-4.3,2.7-6.7c1.1-4,1.5-8,1.2-12.1c-0.2-3-0.8-5.8-1.8-8.6c-1.2-3.5-3-6.7-5.3-9.5c-0.3-0.4-0.6-0.8-0.9-1.3
			c-0.4-0.9-0.4-1.8-0.1-2.7c0.4-1.1,1.2-1.8,2.2-2c1.1-0.2,2,0.3,2.8,1.2c2.7,3.2,4.8,6.9,6.4,11c0.9,2.4,1.6,5,2.1,7.6
			c0.3,1.6,0.4,3.1,0.5,4.7C147.9,366.3,147.9,367.1,147.9,368.3z"/>
		<path id="XMLID_1573_" d="M138.1,367.8c0,2.9-0.3,5.5-1,8.1c-0.9,3-2.1,5.8-3.9,8.4c-0.6,0.8-1.2,1.6-1.8,2.4
			c-0.9,1.1-2,1.3-3.3,0.8c-0.9-0.4-1.5-1.2-1.7-2.4c-0.2-1.2,0.1-2.2,0.8-3.1c0.8-1,1.5-2,2.2-3.1c0.9-1.6,1.6-3.3,2.1-5.1
			c0.7-2.5,0.9-5.1,0.7-7.8c-0.2-2-0.6-3.9-1.3-5.7c-0.6-1.6-1.4-3.1-2.3-4.4c-0.5-0.8-1.2-1.4-1.7-2.2c-1.1-1.6-0.7-3.9,0.8-4.9
			c1.2-0.8,2.6-0.6,3.7,0.7c2.1,2.5,3.8,5.3,4.9,8.4C137.5,361.1,138.2,364.5,138.1,367.8z"/>
		<path id="XMLID_1572_" d="M121.8,380.3c-1.6,0-2.8-1.4-2.9-3.2c0-1,0.3-1.9,1-2.6c0.7-0.8,1.3-1.7,1.7-2.7c0.7-1.7,1-3.6,0.6-5.4
			c-0.3-1.9-1.1-3.5-2.3-4.8c-0.5-0.5-0.8-1.1-1-1.8c-0.2-1.2,0-2.3,0.8-3.1c0.5-0.6,1.2-0.9,1.9-0.9c0.6,0,1.2,0.1,1.7,0.5
			c1,0.9,1.8,2,2.6,3.2c1,1.7,1.7,3.6,2.1,5.7c0.3,2,0.3,4,0,6c-0.6,3.4-2,6.2-4.3,8.5C123.3,380,122.5,380.3,121.8,380.3z"/>
	</g>
	<path id="XMLID_654_" d="M115.5,344.2c-0.2-0.1-0.4-0.2-0.6-0.2c-0.3,0-0.5,0.1-0.8,0.2L97,356.2l-9.8,0.1c-1.4,0-2.6,0.9-3.1,2.1
		v18c0.4,1.4,1.7,2.4,3.2,2.4l9.6-0.1l17.2,12c0.2,0.2,0.5,0.2,0.8,0.2c0.2,0,0.4-0.1,0.6-0.2c0.4-0.2,0.7-0.7,0.7-1.2v-44.3
		C116.2,344.9,116,344.4,115.5,344.2z"/>
</g>
<g id="XMLID_655_">
	<g id="XMLID_656_">
		<path id="XMLID_657_" d="M389.2,385.4c-2.2-0.1-3.8-1.9-3.9-4.3c-0.1-1.4,0.4-2.6,1.3-3.6c1-1.1,1.8-2.3,2.4-3.6
			c1-2.4,1.3-4.8,0.9-7.4c-0.4-2.6-1.5-4.8-3.1-6.6c-0.6-0.7-1.1-1.5-1.3-2.5c-0.3-1.7,0-3.1,1.1-4.3c0.7-0.8,1.6-1.2,2.5-1.2
			c0.8-0.1,1.6,0.2,2.3,0.7c1.4,1.2,2.5,2.7,3.5,4.3c1.4,2.3,2.3,4.9,2.8,7.7c0.5,2.7,0.5,5.4,0,8.1c-0.8,4.6-2.8,8.5-5.9,11.6
			C391.2,385.1,390.1,385.5,389.2,385.4z"/>
	</g>
	<path id="XMLID_658_" d="M380.7,336.3c-0.3-0.1-0.6-0.2-0.8-0.2c-0.4,0-0.7,0.1-1,0.3l-23.4,16.2l-13.3,0.1c-1.9,0-3.6,1.2-4.2,2.9
		v24.5c0.6,1.9,2.3,3.3,4.4,3.3l13.1-0.1l23.4,16.3c0.3,0.2,0.7,0.3,1,0.3c0.3,0,0.6-0.1,0.8-0.2c0.6-0.3,1-0.9,1-1.6v-60.2
		C381.6,337.2,381.3,336.6,380.7,336.3z"/>
</g>
<g id="XMLID_659_">
	<g id="XMLID_660_">
		<path id="XMLID_661_" class="st0" d="M465,377.5c-1.2,0-2.1-1.1-2.1-2.3c0-0.8,0.2-1.4,0.7-1.9c0.5-0.6,1-1.2,1.3-2
			c0.5-1.3,0.7-2.6,0.5-4c-0.2-1.4-0.8-2.6-1.7-3.6c-0.4-0.4-0.6-0.8-0.7-1.4c-0.2-0.9,0-1.7,0.6-2.3c0.4-0.4,0.9-0.6,1.4-0.7
			c0.5,0,0.9,0.1,1.3,0.4c0.8,0.6,1.4,1.5,1.9,2.3c0.8,1.3,1.3,2.7,1.5,4.2c0.3,1.5,0.3,2.9,0,4.4c-0.4,2.5-1.5,4.6-3.2,6.3
			C466.1,377.3,465.5,377.5,465,377.5z"/>
	</g>
	<path id="XMLID_662_" class="st0" d="M457.5,350.7c-0.1-0.1-0.3-0.1-0.5-0.1c-0.2,0-0.4,0.1-0.6,0.2l-12.7,8.8l-7.2,0
		c-1,0-1.9,0.7-2.3,1.6v13.3c0.3,1,1.3,1.8,2.4,1.8l7.1,0l12.8,8.9c0.2,0.1,0.4,0.2,0.6,0.2c0.2,0,0.3,0,0.5-0.1
		c0.3-0.2,0.5-0.5,0.5-0.9v-32.8C458,351.2,457.8,350.9,457.5,350.7z"/>
</g>
<g id="XMLID_668_">
	<g id="XMLID_670_">
		<path id="XMLID_671_" class="st0" d="M549,377.5c-1.2,0-2.1-1.1-2.1-2.3c0-0.8,0.2-1.4,0.7-1.9c0.5-0.6,1-1.2,1.3-2
			c0.5-1.3,0.7-2.6,0.5-4c-0.2-1.4-0.8-2.6-1.7-3.6c-0.4-0.4-0.6-0.8-0.7-1.4c-0.2-0.9,0-1.7,0.6-2.3c0.4-0.4,0.9-0.6,1.4-0.7
			c0.5,0,0.9,0.1,1.3,0.4c0.8,0.6,1.4,1.5,1.9,2.3c0.8,1.3,1.3,2.7,1.5,4.2c0.3,1.5,0.3,2.9,0,4.4c-0.4,2.5-1.5,4.6-3.2,6.3
			C550.1,377.3,549.5,377.5,549,377.5z"/>
	</g>
	<path id="XMLID_669_" class="st0" d="M541.5,350.7c-0.1-0.1-0.3-0.1-0.5-0.1c-0.2,0-0.4,0.1-0.6,0.2l-12.7,8.8l-7.2,0
		c-1,0-1.9,0.7-2.3,1.6v13.3c0.3,1,1.3,1.8,2.4,1.8l7.1,0l12.8,8.9c0.2,0.1,0.4,0.2,0.6,0.2c0.2,0,0.3,0,0.5-0.1
		c0.3-0.2,0.5-0.5,0.5-0.9v-32.8C542,351.2,541.8,350.9,541.5,350.7z"/>
</g>
<g id="XMLID_663_">
	<path id="XMLID_664_" d="M-215,424.5c-0.2-0.1-0.5-0.2-0.7-0.2c-0.3,0-0.6,0.1-0.9,0.3l-20.3,14.1l-11.5,0.1
		c-1.7,0-3.1,1.1-3.7,2.5v21.2c0.5,1.7,2,2.9,3.8,2.9l11.3-0.1l20.3,14.1c0.3,0.2,0.6,0.3,0.9,0.3c0.3,0,0.5-0.1,0.7-0.2
		c0.5-0.3,0.9-0.8,0.9-1.4v-52.2C-214.2,425.3-214.5,424.8-215,424.5z"/>
	<path id="XMLID_665_" d="M-194.3,452.6l5.6-5.6c1.1-1.1,1.1-2.9,0-4l-0.9-0.9c-1.1-1.1-2.9-1.1-4,0l-5.6,5.6l-5.6-5.6
		c-1.1-1.1-2.9-1.1-4,0l-0.9,0.9c-1.1,1.1-1.1,2.9,0,4l5.6,5.6l-5.6,5.6c-1.1,1.1-1.1,2.9,0,4l0.9,0.9c1.1,1.1,2.9,1.1,4,0l5.6-5.6
		l5.6,5.6c1.1,1.1,2.9,1.1,4,0l0.9-0.9c1.1-1.1,1.1-2.9,0-4L-194.3,452.6z"/>
</g>
<g id="XMLID_738_">
	<path id="XMLID_740_" class="st0" d="M-132.9,434.7c-0.1-0.1-0.3-0.1-0.5-0.1c-0.2,0-0.4,0.1-0.6,0.2l-12.7,8.8l-7.2,0
		c-1,0-1.9,0.7-2.3,1.6v13.3c0.3,1,1.3,1.8,2.4,1.8l7.1,0l12.7,8.9c0.2,0.1,0.4,0.2,0.6,0.2c0.2,0,0.3,0,0.5-0.1
		c0.3-0.2,0.5-0.5,0.5-0.9v-32.7C-132.4,435.3-132.6,434.9-132.9,434.7z"/>
	<path id="XMLID_739_" class="st0" d="M-119.9,452.4l3.5-3.5c0.7-0.7,0.7-1.8,0-2.5l-0.6-0.6c-0.7-0.7-1.8-0.7-2.5,0l-3.5,3.5
		l-3.5-3.5c-0.7-0.7-1.8-0.7-2.5,0l-0.6,0.6c-0.7,0.7-0.7,1.8,0,2.5l3.5,3.5l-3.5,3.5c-0.7,0.7-0.7,1.8,0,2.5l0.6,0.6
		c0.7,0.7,1.8,0.7,2.5,0l3.5-3.5l3.5,3.5c0.7,0.7,1.8,0.7,2.5,0l0.6-0.6c0.7-0.7,0.7-1.8,0-2.5L-119.9,452.4z"/>
</g>
<g id="XMLID_924_">
	<path id="XMLID_926_" class="st0" d="M-48.9,434.7c-0.1-0.1-0.3-0.1-0.5-0.1c-0.2,0-0.4,0.1-0.6,0.2l-12.7,8.8l-7.2,0
		c-1,0-1.9,0.7-2.3,1.6v13.3c0.3,1,1.3,1.8,2.4,1.8l7.1,0l12.7,8.9c0.2,0.1,0.4,0.2,0.6,0.2c0.2,0,0.3,0,0.5-0.1
		c0.3-0.2,0.5-0.5,0.5-0.9v-32.7C-48.4,435.3-48.6,434.9-48.9,434.7z"/>
	<path id="XMLID_925_" class="st0" d="M-35.9,452.4l3.5-3.5c0.7-0.7,0.7-1.8,0-2.5l-0.6-0.6c-0.7-0.7-1.8-0.7-2.5,0l-3.5,3.5
		l-3.5-3.5c-0.7-0.7-1.8-0.7-2.5,0l-0.6,0.6c-0.7,0.7-0.7,1.8,0,2.5l3.5,3.5l-3.5,3.5c-0.7,0.7-0.7,1.8,0,2.5l0.6,0.6
		c0.7,0.7,1.8,0.7,2.5,0l3.5-3.5l3.5,3.5c0.7,0.7,1.8,0.7,2.5,0l0.6-0.6c0.7-0.7,0.7-1.8,0-2.5L-35.9,452.4z"/>
</g>
<path id="XMLID_666_" d="M310.1,336h-52.2c-3.2,0-5.9,2.6-5.9,5.9v52.2c0,3.2,2.6,5.9,5.9,5.9h52.2c3.2,0,5.9-2.6,5.9-5.9v-52.2
	C316,338.6,313.4,336,310.1,336z M284.2,384c0,0.4-0.2,0.7-0.5,0.9c-0.1,0.1-0.3,0.1-0.5,0.1c-0.2,0-0.4-0.1-0.6-0.2l-12.8-8.9
	l-7.1,0c-1.1,0-2.1-0.8-2.4-1.8v-13.3c0.4-0.9,1.3-1.6,2.3-1.6l7.2,0l12.7-8.8c0.2-0.1,0.4-0.2,0.6-0.2c0.2,0,0.3,0,0.5,0.1
	c0.3,0.2,0.5,0.5,0.5,0.9V384z M288.3,377.1c-1.2,0-2.1-1.1-2.1-2.3c0-0.8,0.2-1.4,0.7-1.9c0.5-0.6,1-1.2,1.3-2
	c0.5-1.3,0.7-2.6,0.5-4c-0.2-1.4-0.8-2.6-1.7-3.6c-0.4-0.4-0.6-0.8-0.7-1.4c-0.2-0.9,0-1.7,0.6-2.3c0.4-0.4,0.9-0.6,1.4-0.7
	c0.5,0,0.9,0.1,1.3,0.4c0.8,0.6,1.4,1.5,1.9,2.3c0.8,1.3,1.3,2.7,1.5,4.2c0.3,1.5,0.3,2.9,0,4.4c-0.4,2.5-1.5,4.6-3.2,6.3
	C289.4,376.9,288.8,377.1,288.3,377.1z M295.4,381.8c-0.7,0.8-1.5,1-2.4,0.6c-0.7-0.3-1.1-0.9-1.3-1.8c-0.2-0.9,0.1-1.6,0.6-2.3
	c0.6-0.7,1.1-1.5,1.6-2.3c0.7-1.2,1.2-2.4,1.6-3.7c0.5-1.9,0.7-3.8,0.5-5.8c-0.1-1.5-0.4-2.9-0.9-4.2c-0.4-1.2-1-2.3-1.7-3.3
	c-0.4-0.6-0.9-1.1-1.2-1.6c-0.8-1.2-0.6-2.9,0.6-3.6c0.9-0.6,1.9-0.4,2.7,0.5c1.6,1.8,2.8,3.9,3.6,6.2c0.9,2.4,1.3,4.9,1.3,7.4
	c0,2.2-0.2,4.1-0.8,6c-0.6,2.3-1.6,4.3-2.9,6.2C296.3,380.7,295.9,381.2,295.4,381.8z M307.2,373.1c-0.7,4.2-2.1,7.9-4.3,11.4
	c-0.6,1-1.3,1.9-2,2.7c-0.5,0.6-1.1,0.9-1.8,0.9c-0.7-0.1-1.3-0.4-1.7-1.2c-0.4-0.7-0.4-1.5-0.1-2.3c0.1-0.3,0.3-0.6,0.5-0.9
	c1-1.2,1.8-2.5,2.6-3.8c0.8-1.6,1.5-3.2,2-4.9c0.8-2.9,1.1-5.9,0.9-9c-0.2-2.2-0.6-4.3-1.3-6.4c-0.9-2.6-2.2-5-3.9-7.1
	c-0.2-0.3-0.5-0.6-0.6-0.9c-0.3-0.7-0.3-1.3-0.1-2c0.3-0.8,0.9-1.3,1.7-1.5c0.8-0.2,1.5,0.2,2.1,0.9c2,2.4,3.6,5.1,4.7,8.1
	c0.7,1.8,1.2,3.7,1.5,5.6c0.2,1.1,0.3,2.3,0.4,3.5c0,0.6,0.1,1.3,0.1,2.1C307.6,369.7,307.5,371.4,307.2,373.1z"/>
<path id="XMLID_676_" d="M200,336c-17.7,0-32,14.3-32,32c0,17.7,14.3,32,32,32s32-14.3,32-32C232,350.3,217.7,336,200,336z
	 M200.2,384c0,0.4-0.2,0.7-0.5,0.9c-0.1,0.1-0.3,0.1-0.5,0.1c-0.2,0-0.4-0.1-0.6-0.2l-12.8-8.9l-7.1,0c-1.1,0-2.1-0.8-2.4-1.8v-13.3
	c0.4-0.9,1.3-1.6,2.3-1.6l7.2,0l12.7-8.8c0.2-0.1,0.4-0.2,0.6-0.2c0.2,0,0.3,0,0.5,0.1c0.3,0.2,0.5,0.5,0.5,0.9V384z M204.3,377.1
	c-1.2,0-2.1-1.1-2.1-2.3c0-0.8,0.2-1.4,0.7-1.9c0.5-0.6,1-1.2,1.3-2c0.5-1.3,0.7-2.6,0.5-4c-0.2-1.4-0.8-2.6-1.7-3.6
	c-0.4-0.4-0.6-0.8-0.7-1.4c-0.2-0.9,0-1.7,0.6-2.3c0.4-0.4,0.9-0.6,1.4-0.7c0.5,0,0.9,0.1,1.3,0.4c0.8,0.6,1.4,1.5,1.9,2.3
	c0.8,1.3,1.3,2.7,1.5,4.2c0.3,1.5,0.3,2.9,0,4.4c-0.4,2.5-1.5,4.6-3.2,6.3C205.4,376.9,204.8,377.1,204.3,377.1z M211.4,381.8
	c-0.7,0.8-1.5,1-2.4,0.6c-0.7-0.3-1.1-0.9-1.3-1.8c-0.2-0.9,0.1-1.6,0.6-2.3c0.6-0.7,1.1-1.5,1.6-2.3c0.7-1.2,1.2-2.4,1.6-3.7
	c0.5-1.9,0.7-3.8,0.5-5.8c-0.1-1.5-0.4-2.9-0.9-4.2c-0.4-1.2-1-2.3-1.7-3.3c-0.4-0.6-0.9-1.1-1.2-1.6c-0.8-1.2-0.6-2.9,0.6-3.6
	c0.9-0.6,1.9-0.4,2.7,0.5c1.6,1.8,2.8,3.9,3.6,6.2c0.9,2.4,1.3,4.9,1.3,7.4c0,2.2-0.2,4.1-0.8,6c-0.6,2.3-1.6,4.3-2.9,6.2
	C212.3,380.7,211.9,381.2,211.4,381.8z M218.9,384.4c-0.6,1-1.3,1.9-2,2.7c-0.5,0.6-1.1,0.9-1.8,0.9c-0.7-0.1-1.3-0.4-1.7-1.2
	c-0.4-0.7-0.4-1.5-0.1-2.3c0.1-0.3,0.3-0.6,0.5-0.9c1-1.2,1.8-2.5,2.6-3.8c0.8-1.6,1.5-3.2,2-4.9c0.8-2.9,1.1-5.9,0.9-9
	c-0.2-2.2-0.6-4.3-1.3-6.4c-0.9-2.6-2.2-5-3.9-7.1c-0.2-0.3-0.5-0.6-0.6-0.9c-0.3-0.7-0.3-1.3-0.1-2c0.3-0.8,0.9-1.3,1.7-1.5
	c0.8-0.2,1.5,0.2,2.1,0.9c2,2.4,3.6,5.1,4.7,8.1c0.7,1.8,1.2,3.7,1.5,5.6c0.2,1.1,0.3,2.3,0.4,3.5c0,0.6,0.1,1.3,0.1,2.1
	c0,1.5-0.2,3.2-0.4,4.9C222.5,377.2,221.1,381,218.9,384.4z"/>
<g id="XMLID_682_">
	<g id="XMLID_683_">
		<path id="XMLID_684_" class="st3" d="M536,516.8c-9.1,0-16.5,7.4-16.5,16.5c0,4.3,1.7,8.2,4.4,11.1l3.5-5.1
			c-1.2-1.7-1.9-3.8-1.9-6c0-5.8,4.7-10.6,10.6-10.6s10.6,4.7,10.6,10.6c0,2.2-0.7,4.3-1.9,6l3.5,5.1c2.7-2.9,4.4-6.8,4.4-11.1
			C552.5,524.2,545.1,516.8,536,516.8z"/>
		<path id="XMLID_685_" class="st3" d="M561.8,533.3c0-14.2-11.6-25.8-25.8-25.8s-25.8,11.6-25.8,25.8c0,7.5,3.2,14.3,8.3,19
			l3.3-4.9c-3.6-3.6-5.8-8.6-5.8-14.1c0-11,9-20,20-20s20,9,20,20c0,5.5-2.2,10.5-5.8,14.1l3.3,4.9
			C558.6,547.5,561.8,540.7,561.8,533.3z"/>
		<path id="XMLID_686_" d="M528.9,533.3c0-3.9,3.2-7.1,7.1-7.1s7.1,3.2,7.1,7.1c0,1-0.2,2-0.6,2.8l2.2,3.2c1.2-1.7,1.9-3.8,1.9-6
			c0-5.8-4.7-10.6-10.6-10.6s-10.6,4.7-10.6,10.6c0,2.2,0.7,4.3,1.9,6l2.2-3.2C529.1,535.2,528.9,534.3,528.9,533.3z"/>
		<path id="XMLID_687_" d="M519.5,533.3c0-9.1,7.4-16.5,16.5-16.5s16.5,7.4,16.5,16.5c0,4.3-1.7,8.2-4.4,11.1l2,2.9
			c3.6-3.6,5.8-8.6,5.8-14.1c0-11-9-20-20-20s-20,9-20,20c0,5.5,2.2,10.5,5.8,14.1l2-2.9C521.2,541.4,519.5,537.5,519.5,533.3z"/>
		<path id="XMLID_688_" d="M510.2,533.3c0-14.2,11.6-25.8,25.8-25.8s25.8,11.6,25.8,25.8c0,7.5-3.2,14.3-8.3,19l2,2.9
			c6-5.4,9.8-13.2,9.8-21.9c0-16.1-13.1-29.3-29.3-29.3s-29.3,13.1-29.3,29.3c0,8.7,3.8,16.5,9.8,21.9l2-2.9
			C513.4,547.5,510.2,540.7,510.2,533.3z"/>
	</g>
	<path id="XMLID_2122_" d="M539.3,568v-31.5c0-1.8-1.5-3.3-3.3-3.3l0,0c-1.8,0-3.3,1.5-3.3,3.3V568H539.3z"/>
</g>
<path id="XMLID_698_" d="M-134.8,504h-2.3c-7.2,0-13.2,5.6-14.3,13h5.2c1-4.5,4.7-7.9,9.1-7.9h2.3c5.2,0,9.4,4.7,9.4,10.4v5
	c1.8,0.9,3.6,2.1,5.1,3.5v-8.5C-120.3,511-126.8,504-134.8,504z"/>
<circle id="XMLID_699_" cx="-52" cy="284" r="32"/>
<g id="XMLID_703_">
	<path id="XMLID_704_" d="M298.3,30.3c2.4-2.8,4.2-5.9,5.6-9.3c1.1-2.8,1.9-5.6,2.4-8.5c0.5-3.1,0.8-6.2,0.7-9.4
		c0-0.6,0.1-0.8,0.7-0.7c0.7,0,1.4,0,2,0c0.1-0.1,0.1-0.1,0.1-0.2c0-0.7,0-1.4,0-2h-51.7c0,0.1,0,0.3,0,0.4c0,0.6,0,1.2,0,1.8h2.9
		c0,1.2,0,2.3,0,3.4c0.2,6.3,1.6,12.4,4.4,18.1c1.5,2.9,3.3,5.5,5.6,7.8c0,0,0,0,0,0.1c-0.7,0.8-1.4,1.5-2,2.3
		c-2.3,2.8-3.9,5.9-5.2,9.2c-1.4,3.8-2.3,7.6-2.6,11.6c-0.2,2.1-0.2,4.2-0.2,6.2c0,0.3-0.3,0.6-0.6,0.6c-0.7,0-1.4,0-2.1,0
		c0,0.2-0.1,0.3-0.1,0.4c0,0.6,0,1.1,0,1.7h51.7v-2.1c-0.8,0-1.5,0-2.3,0c-0.4,0-0.5-0.1-0.5-0.5c0-2.5,0.1-5-0.3-7.5
		c-0.4-2.7-1-5.5-1.8-8.2c-0.6-2.1-1.4-4.1-2.4-6c-1.5-2.9-3.3-5.5-5.7-7.8v0C297.4,31.3,297.9,30.8,298.3,30.3z M291.7,32.7
		c4.8,3.3,8,7.8,10.2,13c1.9,4.7,3,9.5,3.4,14.5c0,0.2,0,0.4,0,0.7c-14.2,0-28.3,0-42.5,0c0.2-3.4,0.7-6.6,1.6-9.9
		c1.3-4.9,3.4-9.4,6.6-13.5c1.5-1.9,3.4-3.5,5.3-4.9c0.4-0.3,0.8-0.6,1.3-1c-0.6-0.5-1.2-0.9-1.7-1.3c-3.5-2.5-6.1-5.7-8-9.4
		c-3-5.7-4.5-11.8-4.9-18.2c0-0.1,0-0.1,0-0.3c14.1,0,28.2,0,42.5,0c-0.2,1.4-0.3,2.8-0.5,4.2c-0.4,3.3-1.2,6.6-2.4,9.7
		c-1.8,4.6-4.2,8.9-7.9,12.2c-1.1,0.9-2.2,1.7-3.3,2.6c-0.2,0.1-0.3,0.3-0.6,0.5C291,32.1,291.3,32.4,291.7,32.7z"/>
	<g id="XMLID_707_">
		<path id="XMLID_847_" d="M284.4,35c2.1,0,5,1.9,6,2.7c2.8,2.5,6.1,7.3,7.5,10.8c0.9,2.4,1.6,5,1.9,7.6c0.1,0.4,0.1,0.8,0.1,1.3
			h-31.1c0.5-4.7,1.7-8.8,3.7-12.5c1.6-3,3.6-5.4,6.1-7.2l0.1-0.1l0.1-0.1C279.7,36.9,282.3,35,284.4,35 M284.4,33
			c-3.4,0-6.9,3.2-6.9,3.2c-2.9,2.1-5.1,4.7-6.7,7.8c-2.5,4.8-3.7,9.9-4.1,15.2c0,0.1,0,0.1,0,0.2h35.5c-0.1-1.2-0.2-2.3-0.4-3.5
			c-0.4-2.8-1-5.5-2-8.1c-1.5-3.9-4.9-8.9-8.1-11.7C291.7,36.2,287.8,33,284.4,33L284.4,33z"/>
	</g>
	<g id="XMLID_708_">
		<path id="XMLID_843_" d="M299.9,6.6c0,0.4-0.1,0.8-0.1,1.3c-0.3,2.6-1,5.2-1.9,7.6c-1.4,3.6-4.6,8.3-7.5,10.8
			c-0.9,0.7-3.8,2.7-6,2.7c-2.1,0-4.7-1.9-5.6-2.7l-0.1-0.1l-0.1-0.1c-2.5-1.8-4.5-4.1-6.1-7.2c-2-3.7-3.2-7.8-3.7-12.5H299.9
			 M302.2,4.6h-35.5c0,0.1,0,0.2,0,0.2c0.4,5.3,1.6,10.4,4.1,15.2c1.7,3.1,3.8,5.8,6.7,7.8c0,0,3.5,3.2,6.9,3.2
			c3.4,0,7.3-3.2,7.3-3.2c3.1-2.8,6.6-7.8,8.1-11.7c1-2.6,1.7-5.3,2-8.1C301.9,7,302,5.8,302.2,4.6L302.2,4.6z"/>
	</g>
	<g id="XMLID_709_">
		<path id="XMLID_842_" d="M284.4,24.6c-1.7,0-3.5-1.6-3.5-1.6c-1.5-1.1-2.6-2.4-3.4-4c-1.3-2.4-1.9-5-2.1-7.7c0,0,0-0.1,0-0.1h18.1
			c-0.1,0.6-0.1,1.2-0.2,1.8c-0.2,1.4-0.5,2.8-1,4.1c-0.8,2-2.5,4.5-4.1,5.9C288.1,23,286.1,24.6,284.4,24.6z"/>
	</g>
	<g id="XMLID_710_">
		<path id="XMLID_840_" d="M284.4,40.2c-1.7,0-3.5,1.6-3.5,1.6c-1.5,1.1-2.6,2.4-3.4,4c-1.3,2.4-1.9,5-2.1,7.7c0,0,0,0.1,0,0.1h18.1
			c-0.1-0.6-0.1-1.2-0.2-1.8c-0.2-1.4-0.5-2.8-1-4.1c-0.8-2-2.5-4.5-4.1-5.9C288.1,41.8,286.1,40.2,284.4,40.2z"/>
	</g>
</g>
<g id="XMLID_712_">
	<path id="XMLID_713_" d="M230.7,425.6l-5.3-5.3c-0.5-0.5-1.3-0.5-1.7,0c-0.5,0.5-0.5,1.3,0,1.7l0.9,0.9l-5.2,5.2l-4.1-4.1
		c-0.5-0.5-1.3-0.5-1.7,0c-0.5,0.5-0.5,1.3,0,1.7l3.1,3.1L188,457.9c-0.2,0.2-0.4,0.5-0.4,0.9l0,0.1l0.5,2.5c-0.2,0-0.4,0.1-0.6,0.3
		l-5.5,5.5c-0.4,0.4-0.4,1.1,0,1.5l0.1,0.1l-12.6,12.6l-0.5,2.7l14.2-14.2c0.4,0.3,1,0.3,1.4-0.1l5.5-5.5c0.2-0.2,0.3-0.6,0.3-0.9
		l2.1,0.4l0.1,0c0.3,0,0.6-0.2,0.9-0.4l28.7-28.7l3,3c0.5,0.5,1.3,0.5,1.7,0c0.5-0.5,0.5-1.3,0-1.7l-3.9-3.9
		c1.4-1.4,3.8-3.8,5.2-5.2l0.8,0.8c0.5,0.5,1.3,0.5,1.7,0C231.2,426.9,231.2,426.1,230.7,425.6z M204.5,449.9l-3.2-3.2l16.5-16.5
		l3.2,3.2L204.5,449.9z"/>
	<path id="XMLID_716_" d="M205.5,447.7l-1.9-1.9c-0.1-0.1-0.1-0.4,0-0.5l0.4-0.4c0.1-0.1,0.4-0.1,0.5,0l1.9,1.9
		c0.1,0.1,0.1,0.4,0,0.5l-0.4,0.4C205.9,447.9,205.6,447.9,205.5,447.7z"/>
	<path id="XMLID_717_" d="M209,444.2l-1.9-1.9c-0.1-0.1-0.1-0.4,0-0.5l0.4-0.4c0.1-0.1,0.4-0.1,0.5,0l1.9,1.9c0.1,0.1,0.1,0.4,0,0.5
		l-0.4,0.4C209.4,444.4,209.1,444.4,209,444.2z"/>
	<path id="XMLID_718_" d="M212.5,440.7l-1.9-1.9c-0.1-0.1-0.1-0.4,0-0.5l0.4-0.4c0.1-0.1,0.4-0.1,0.5,0l1.9,1.9
		c0.1,0.1,0.1,0.4,0,0.5l-0.4,0.4C212.9,440.9,212.7,440.9,212.5,440.7z"/>
	<path id="XMLID_719_" d="M216,437.2l-1.9-1.9c-0.1-0.1-0.1-0.4,0-0.5l0.4-0.4c0.1-0.1,0.4-0.1,0.5,0l1.9,1.9c0.1,0.1,0.1,0.4,0,0.5
		l-0.4,0.4C216.4,437.3,216.2,437.3,216,437.2z"/>
</g>
<path id="XMLID_720_" d="M310.8,425.2c-7-7-18.4-7-25.4,0l-28.1,28.1c-7,7-7,18.4,0,25.4c7,7,18.4,7,25.4,0l28.1-28.1
	C317.7,443.7,317.7,432.2,310.8,425.2z M307.7,448.5l-11.8,11.8l-20-19.9l11.9-11.9c5.5-5.5,14.5-5.5,19.9,0S313.2,443,307.7,448.5z
	"/>
<g id="XMLID_2388_">
	<path id="XMLID_2389_" d="M370.4,437.2l-7.5,7.5l12.6,12.6l7.5-7.5c3.5-3.5,3.5-9.1,0-12.6C379.5,433.7,373.8,433.7,370.4,437.2z"
		/>
	<path id="XMLID_2392_" d="M368,420c-17.7,0-32,14.3-32,32c0,17.7,14.3,32,32,32c17.7,0,32-14.3,32-32C400,434.3,385.7,420,368,420z
		 M384.9,451.2l-17.8,17.8c-4.4,4.4-11.6,4.4-16.1,0s-4.4-11.6,0-16.1l17.8-17.8c4.4-4.4,11.6-4.4,16.1,0
		C389.3,439.5,389.3,446.8,384.9,451.2z"/>
</g>
<g id="XMLID_723_">
	<path id="XMLID_2432_" d="M468.8,435.2c-4.4-4.4-11.5-4.4-15.9,0l-17.6,17.6c-4.4,4.4-4.4,11.5,0,15.9c4.4,4.4,11.5,4.4,15.9,0
		l17.6-17.6C473.2,446.7,473.2,439.5,468.8,435.2z M466.9,449.7l-7.4,7.4L447,444.7l7.4-7.4c3.4-3.4,9-3.4,12.5,0
		S470.4,446.3,466.9,449.7z"/>
</g>
<g id="XMLID_2229_">
	<polygon id="XMLID_2230_" points="354.6,231.8 386.5,200.1 354.6,168.2 349.5,173.4 376.2,200.1 349.5,226.6 	"/>
</g>
<g id="XMLID_2231_">
	<polygon id="XMLID_2232_" points="465.4,231.8 433.5,200.1 465.4,168.2 470.5,173.4 443.8,200.1 470.5,226.6 	"/>
</g>
<polygon id="XMLID_4289_" points="513.4,225.2 551.5,199.8 513.4,174.7 513.4,168.3 513.5,168.1 558.6,197.8 558.6,201.7 
	513.5,231.9 513.4,231.7 "/>
<polygon id="XMLID_4286_" points="-201,309.4 -239.2,283.8 -201,258.6 -201,252.1 -201,252 -246.3,281.8 -246.3,285.8 -201.1,316 
	-201,315.9 "/>
<g id="XMLID_724_">
	<path id="XMLID_1718_" d="M443.8,312.6h-20.7c-1.7,0-3.1-1.4-3.1-3.1v-51.1c0-1.7,1.4-3.1,3.1-3.1h20.7c1.7,0,3.1,1.4,3.1,3.1v51.1
		C446.9,311.3,445.5,312.6,443.8,312.6z"/>
	<path id="XMLID_1717_" d="M480.9,312.6h-20.7c-1.7,0-3.1-1.4-3.1-3.1v-51.1c0-1.7,1.4-3.1,3.1-3.1h20.7c1.7,0,3.1,1.4,3.1,3.1v51.1
		C484,311.3,482.6,312.6,480.9,312.6z"/>
</g>
<g id="XMLID_725_">
	<path id="XMLID_1746_" class="st0" d="M530.5,297.5H524c-1.7,0-3.1-1.4-3.1-3.1v-20.8c0-1.7,1.4-3.1,3.1-3.1h6.5
		c1.7,0,3.1,1.4,3.1,3.1v20.8C533.6,296.1,532.2,297.5,530.5,297.5z"/>
	<path id="XMLID_1745_" class="st0" d="M548,297.5h-6.5c-1.7,0-3.1-1.4-3.1-3.1v-20.8c0-1.7,1.4-3.1,3.1-3.1h6.5
		c1.7,0,3.1,1.4,3.1,3.1v20.8C551,296.1,549.7,297.5,548,297.5z"/>
</g>
<g id="XMLID_726_">
	<g id="XMLID_1774_">
		<path id="XMLID_1391_" d="M-225.6,356c0.9,0,1.6,0.7,1.6,1.6v20.8c0,0.9-0.7,1.6-1.6,1.6h-6.5c-0.9,0-1.6-0.7-1.6-1.6v-20.8
			c0-0.9,0.7-1.6,1.6-1.6H-225.6 M-225.6,354.5h-6.5c-1.7,0-3.1,1.4-3.1,3.1v20.8c0,1.7,1.4,3.1,3.1,3.1h6.5c1.7,0,3.1-1.4,3.1-3.1
			v-20.8C-222.6,355.9-223.9,354.5-225.6,354.5L-225.6,354.5z"/>
	</g>
	<g id="XMLID_1773_">
		<path id="XMLID_1387_" d="M-208.2,356c0.9,0,1.6,0.7,1.6,1.6v20.8c0,0.9-0.7,1.6-1.6,1.6h-6.5c-0.9,0-1.6-0.7-1.6-1.6v-20.8
			c0-0.9,0.7-1.6,1.6-1.6H-208.2 M-208.2,354.5h-6.5c-1.7,0-3.1,1.4-3.1,3.1v20.8c0,1.7,1.4,3.1,3.1,3.1h6.5c1.7,0,3.1-1.4,3.1-3.1
			v-20.8C-205.1,355.9-206.5,354.5-208.2,354.5L-208.2,354.5z"/>
	</g>
</g>
<circle id="XMLID_727_" cx="284" cy="284" r="32"/>
<g id="XMLID_728_">
	<path id="XMLID_729_" class="st0" d="M273.3,298.8c0,0.9,0.9,1.4,1.7,1l13-7.4l13.1-7.4c0.8-0.4,0.8-1.5,0-1.9l-13.1-7.4l-13-7.4
		c-0.7-0.4-1.7,0.1-1.7,1V284V298.8z"/>
</g>
<g id="XMLID_730_">
	<path id="XMLID_731_" class="st4" d="M357.4,298.8c0,0.9,0.9,1.4,1.7,1l13-7.4l13.1-7.4c0.8-0.4,0.8-1.5,0-1.9l-13.1-7.4l-13-7.4
		c-0.7-0.4-1.7,0.1-1.7,1V284V298.8z"/>
</g>
<path id="XMLID_732_" d="M-203.4,606.8l-18.4-18.6c-0.2-0.2-0.6-0.1-0.6,0.3v23.8c0,0.3-0.4,0.5-0.6,0.3l-9.3-9.5
	c-0.1-0.1-0.4-0.1-0.5,0l-3.7,3.7c-0.1,0.1-0.1,0.4,0,0.5l12.4,12.6c0.1,0.1,0.1,0.4,0,0.5l-12.4,12.6c-0.1,0.1-0.1,0.4,0,0.5
	l3.7,3.7c0.1,0.1,0.4,0.1,0.5,0l9.3-9.5c0.2-0.2,0.6-0.1,0.6,0.3v23.7c0,0.3,0.4,0.5,0.6,0.3l18.4-18.4c0.1-0.1,0.1-0.4,0-0.5
	l-12.3-12.4c-0.1-0.1-0.1-0.4,0-0.5l12.3-12.7C-203.3,607.2-203.3,606.9-203.4,606.8z M-217.8,609.5v-9c0-0.3,0.4-0.5,0.6-0.3
	l6.6,6.7c0.1,0.1,0.1,0.4,0,0.5l-6.6,6.5c-0.2,0.2-0.6,0.1-0.6-0.3V609.5z M-210.6,633.4l-6.6,6.5c-0.2,0.2-0.6,0.1-0.6-0.3v-4.2v-9
	c0-0.3,0.4-0.5,0.6-0.3l6.6,6.7C-210.4,633-210.4,633.2-210.6,633.4z"/>
<g id="XMLID_736_">
	<path id="XMLID_737_" d="M-45.1,610.3l-4.8-4.9c-0.2-0.2-0.5-0.1-0.5,0.2v6.6v3.1c0,0.2,0.3,0.4,0.5,0.2l4.8-4.8
		C-45,610.6-45,610.5-45.1,610.3z"/>
	<path id="XMLID_741_" d="M-50.4,624.8v6.6v3.1c0,0.2,0.3,0.4,0.5,0.2l4.8-4.8c0.1-0.1,0.1-0.3,0-0.4l-4.8-4.9
		C-50.1,624.4-50.4,624.5-50.4,624.8z"/>
	<path id="XMLID_742_" d="M-52,588c-17.7,0-32,14.3-32,32c0,17.7,14.3,32,32,32s32-14.3,32-32C-20,602.3-34.3,588-52,588z
		 M-48.9,620.4l9.1,9.2c0.1,0.1,0.1,0.3,0,0.4l-13.6,13.6c-0.2,0.2-0.5,0-0.5-0.2v-17.4c0-0.2-0.3-0.4-0.5-0.2l-6.8,7
		c-0.1,0.1-0.3,0.1-0.4,0l-2.8-2.7c-0.1-0.1-0.1-0.3,0-0.4l9.1-9.3c0.1-0.1,0.1-0.3,0-0.4l-9.1-9.3c-0.1-0.1-0.1-0.3,0-0.4l2.8-2.7
		c0.1-0.1,0.3-0.1,0.4,0l6.8,7c0.2,0.2,0.5,0.1,0.5-0.2v-17.5c0-0.2,0.3-0.4,0.5-0.2l13.6,13.7c0.1,0.1,0.1,0.3,0,0.4l-9.1,9.3
		C-49,620.1-49,620.3-48.9,620.4z"/>
</g>
<path id="XMLID_745_" d="M44.2,610.3l-13.6-13.7c-0.2-0.2-0.5-0.1-0.5,0.2v17.5c0,0.2-0.3,0.4-0.5,0.2l-6.8-7
	c-0.1-0.1-0.3-0.1-0.4,0l-2.8,2.7c-0.1,0.1-0.1,0.3,0,0.4l9.1,9.3c0.1,0.1,0.1,0.3,0,0.4l-9.1,9.3c-0.1,0.1-0.1,0.3,0,0.4l2.8,2.7
	c0.1,0.1,0.3,0.1,0.4,0l6.8-7c0.2-0.2,0.5-0.1,0.5,0.2v17.4c0,0.2,0.3,0.4,0.5,0.2l13.6-13.6c0.1-0.1,0.1-0.3,0-0.4l-9.1-9.2
	c-0.1-0.1-0.1-0.3,0-0.4l9.1-9.3C44.3,610.5,44.3,610.4,44.2,610.3z M33.6,612.3v-6.6c0-0.2,0.3-0.4,0.5-0.2l4.8,4.9
	c0.1,0.1,0.1,0.3,0,0.4l-4.8,4.8c-0.2,0.2-0.5,0-0.5-0.2V612.3z M38.9,629.9l-4.8,4.8c-0.2,0.2-0.5,0-0.5-0.2v-3.1v-6.6
	c0-0.2,0.3-0.4,0.5-0.2l4.8,4.9C39,629.6,39,629.8,38.9,629.9z"/>
<g id="XMLID_749_">
	<path id="XMLID_750_" d="M-129.1,610.3l-4.8-4.9c-0.2-0.2-0.5-0.1-0.5,0.2v6.6v3.1c0,0.2,0.3,0.4,0.5,0.2l4.8-4.8
		C-129,610.6-129,610.5-129.1,610.3z"/>
	<path id="XMLID_751_" d="M-136,588c-12.7,0-23,14.3-23,32s10.3,32,23,32s23-14.3,23-32S-123.3,588-136,588z M-132.9,620.4l9.1,9.2
		c0.1,0.1,0.1,0.3,0,0.4l-13.6,13.6c-0.2,0.2-0.5,0-0.5-0.2v-17.4c0-0.2-0.3-0.4-0.5-0.2l-6.8,7c-0.1,0.1-0.3,0.1-0.4,0l-2.8-2.7
		c-0.1-0.1-0.1-0.3,0-0.4l9.1-9.3c0.1-0.1,0.1-0.3,0-0.4l-9.1-9.3c-0.1-0.1-0.1-0.3,0-0.4l2.8-2.7c0.1-0.1,0.3-0.1,0.4,0l6.8,7
		c0.2,0.2,0.5,0.1,0.5-0.2v-17.5c0-0.2,0.3-0.4,0.5-0.2l13.6,13.7c0.1,0.1,0.1,0.3,0,0.4l-9.1,9.3C-133,620.1-133,620.3-132.9,620.4
		z"/>
	<path id="XMLID_754_" d="M-134.4,624.8v6.6v3.1c0,0.2,0.3,0.4,0.5,0.2l4.8-4.8c0.1-0.1,0.1-0.3,0-0.4l-4.8-4.9
		C-134.1,624.4-134.4,624.5-134.4,624.8z"/>
</g>
<path id="XMLID_1800_" d="M-106,400h-60c-1.1,0-2-0.9-2-2v-60c0-1.1,0.9-2,2-2h60c1.1,0,2,0.9,2,2v60C-104,399.1-104.9,400-106,400z
	"/>
<path id="XMLID_756_" d="M-52,336c-17.7,0-32,14.3-32,32c0,17.7,14.3,32,32,32c17.7,0,32-14.3,32-32C-20,350.3-34.3,336-52,336z
	 M-37.7,380.3c0,1.1-0.9,2-2,2h-24.7c-1.1,0-2-0.9-2-2v-24.7c0-1.1,0.9-2,2-2h24.7c1.1,0,2,0.9,2,2V380.3z"/>
<path id="XMLID_1853_" d="M44.3,382.3H19.7c-1.1,0-2-0.9-2-2v-24.7c0-1.1,0.9-2,2-2h24.7c1.1,0,2,0.9,2,2v24.7
	C46.3,381.4,45.4,382.3,44.3,382.3z"/>
<polygon id="XMLID_759_" points="-220,169.7 -212.5,192.8 -188.2,192.8 -207.8,207.2 -200.3,230.3 -220,216 -239.7,230.3 
	-232.2,207.2 -251.8,192.8 -227.5,192.8 "/>
<g id="XMLID_8856_">
	<polygon id="XMLID_837_" class="st0" points="-136,215.1 -154.3,228.3 -147.3,206.9 -165.5,193.6 -143,193.6 -136,172.1 
		-129,193.6 -106.5,193.6 -124.7,206.9 -117.7,228.3 	"/>
	<path id="XMLID_834_" d="M-136,174.6l6.1,18.7l0.3,1h1.1h19.7l-15.9,11.6l-0.9,0.6l0.3,1l6.1,18.7l-15.9-11.6l-0.9-0.6l-0.9,0.6
		l-15.9,11.6l6.1-18.7l0.3-1l-0.9-0.6l-15.9-11.6h19.7h1.1l0.3-1L-136,174.6 M-136,169.7l-7.5,23.1h-24.3l19.7,14.3l-7.5,23.1
		L-136,216l19.7,14.3l-7.5-23.1l19.7-14.3h-24.3L-136,169.7L-136,169.7z"/>
</g>
<circle id="XMLID_760_" cx="368" cy="4.2" r="0.8"/>
<circle id="XMLID_761_" cx="368" cy="58.9" r="0.8"/>
<circle id="XMLID_762_" cx="339.7" cy="32" r="0.8"/>
<circle id="XMLID_763_" cx="395.5" cy="32" r="0.8"/>
<g id="XMLID_764_">
	<g id="XMLID_827_">
		<path id="XMLID_831_" d="M-238.6,114.3c3.9,7.8,7.7,15.6,11.6,23.5c0,0,2.9-0.7,2.9-0.8c0.2-17.4,8.2-33,22.7-42.7
			c-0.8,0.5-2.1,0.2-2.9,0.8c-14.5,9.7-22.6,25.3-22.7,42.7c1-0.3,1.9-0.5,2.9-0.8c-3.9-7.8-7.7-15.6-11.6-23.5
			C-235.8,113.3-238.5,114.4-238.6,114.3L-238.6,114.3z"/>
	</g>
</g>
<g id="XMLID_765_">
	<g id="XMLID_766_">
		<path id="XMLID_826_" class="st0" d="M-159.4,143.7c-2.5,0-4.5-2-4.5-4.5V92.8c0-2.5,2-4.5,4.5-4.5h46.4c2.5,0,4.5,2,4.5,4.5v46.4
			c0,2.5-2,4.5-4.5,4.5H-159.4z"/>
		<path id="XMLID_823_" d="M-113,89c2.1,0,3.7,1.7,3.7,3.7v46.4c0,2.1-1.7,3.7-3.7,3.7h-46.4c-2.1,0-3.7-1.7-3.7-3.7V92.8
			c0-2.1,1.7-3.7,3.7-3.7H-113 M-113,87.5h-46.4c-2.9,0-5.2,2.3-5.2,5.2v46.4c0,2.9,2.3,5.2,5.2,5.2h46.4c2.9,0,5.2-2.3,5.2-5.2
			V92.8C-107.8,89.9-110.1,87.5-113,87.5L-113,87.5z"/>
	</g>
	<path id="XMLID_767_" class="st0" d="M-113.5,91.5l-0.5-0.7c-0.3-0.5-0.3-1.1,0.2-1.5l4.8-3.6c0.5-0.3,1.1-0.3,1.5,0.2l0.5,0.7
		c0.3,0.5,0.3,1.1-0.2,1.5l-4.8,3.6C-112.5,92.1-113.2,92-113.5,91.5z"/>
	<path id="XMLID_768_" class="st0" d="M-137.7,147.7h-3c-1.2,0-2.2-1-2.2-2.2v-3.2c0-1.2,1-2.2,2.2-2.2h3c1.2,0,2.2,1,2.2,2.2v3.2
		C-135.5,146.7-136.5,147.7-137.7,147.7z"/>
	<g id="XMLID_769_">
		<path id="XMLID_770_" d="M-156.9,113.4c5.6,11.3,11.2,22.6,16.8,33.9c0,0,3.2-0.8,3.2-0.9c0.2-25,11.9-47.9,32.9-61.7
			c-0.9,0.6-2.3,0.3-3.2,0.9c-21,13.9-32.7,36.7-32.9,61.7c1.1-0.3,2.1-0.6,3.2-0.9c-5.6-11.3-11.2-22.6-16.8-33.9
			C-153.8,112.3-156.8,113.5-156.9,113.4L-156.9,113.4z"/>
	</g>
</g>
<g id="XMLID_771_">
	<g id="XMLID_807_">
		<path id="XMLID_811_" class="st0" d="M-70.6,114.3c3.9,7.8,7.7,15.6,11.6,23.5c0,0,2.9-0.7,2.9-0.8c0.2-17.4,8.2-33,22.7-42.7
			c-0.8,0.5-2.1,0.2-2.9,0.8c-14.5,9.7-22.6,25.3-22.7,42.7c1-0.3,1.9-0.5,2.9-0.8c-3.9-7.8-7.7-15.6-11.6-23.5
			C-67.8,113.3-70.5,114.4-70.6,114.3L-70.6,114.3z"/>
	</g>
</g>
<g id="XMLID_783_">
	<g id="XMLID_791_">
		<path id="XMLID_805_" d="M13.4,114.3c3.9,7.8,7.7,15.6,11.6,23.5c0,0,2.9-0.7,2.9-0.8c0.2-17.4,8.2-33,22.7-42.7
			c-0.8,0.5-2.1,0.2-2.9,0.8c-14.5,9.7-22.6,25.3-22.7,42.7c1-0.3,1.9-0.5,2.9-0.8c-3.9-7.8-7.7-15.6-11.6-23.5
			C16.2,113.3,13.5,114.4,13.4,114.3L13.4,114.3z"/>
	</g>
</g>
<path id="XMLID_772_" class="st0" d="M536.7,58h-1.4c-0.4,0-0.7-0.3-0.7-0.7V18c0-0.4,0.3-0.7,0.7-0.7h1.4c0.4,0,0.7,0.3,0.7,0.7
	v39.3C537.4,57.7,537.1,58,536.7,58z"/>
<path id="XMLID_3438_" class="st0" d="M529.1,57.9l-1.4,0.1c-0.4,0-0.7-0.3-0.8-0.6l-3.4-39.2c0-0.4,0.3-0.7,0.6-0.8l1.4-0.1
	c0.4,0,0.7,0.3,0.8,0.6l3.4,39.2C529.8,57.5,529.5,57.8,529.1,57.9z"/>
<path id="XMLID_3439_" class="st0" d="M544.3,58l-1.4-0.1c-0.4,0-0.7-0.4-0.6-0.8l3.4-39.2c0-0.4,0.4-0.7,0.8-0.6l1.4,0.1
	c0.4,0,0.7,0.4,0.6,0.8l-3.4,39.2C545,57.7,544.7,58,544.3,58z"/>
<circle id="XMLID_773_" class="st5" cx="367.7" cy="35.2" r="4.8"/>
<g id="XMLID_774_">
	<path id="XMLID_792_" d="M459.1,32.5l-1.9,0.5c0,0.3-0.1,0.5-0.2,0.7l1.4,1.4c-0.2,0.3-0.3,0.6-0.5,0.9l-1.9-0.5
		c-0.2,0.2-0.3,0.4-0.5,0.5l0.5,1.9c-0.3,0.2-0.6,0.4-0.9,0.5l-1.4-1.4c-0.2,0.1-0.5,0.2-0.7,0.2l-0.5,1.9c-0.2,0-0.4,0-0.5,0
		s-0.4,0-0.5,0l-0.5-1.9c-0.3,0-0.5-0.1-0.7-0.2l-1.4,1.4c-0.3-0.2-0.6-0.3-0.9-0.5l0.5-1.9c-0.2-0.2-0.4-0.3-0.5-0.5l-1.9,0.5
		c-0.2-0.3-0.4-0.6-0.5-0.9l1.4-1.4c-0.1-0.2-0.2-0.5-0.2-0.7l-1.9-0.5c0-0.2,0-0.4,0-0.5c0-0.2,0-0.4,0-0.5l1.9-0.5
		c0-0.3,0.1-0.5,0.2-0.7l-1.4-1.4c0.2-0.3,0.3-0.6,0.5-0.9l1.9,0.5c0.2-0.2,0.3-0.4,0.5-0.5l-0.5-1.9c0.3-0.2,0.6-0.4,0.9-0.5
		l1.4,1.4c0.2-0.1,0.5-0.2,0.7-0.2l0.5-1.9c0.2,0,0.4,0,0.5,0s0.4,0,0.5,0l0.5,1.9c0.3,0,0.5,0.1,0.7,0.2l1.4-1.4
		c0.3,0.2,0.6,0.3,0.9,0.5l-0.5,1.9c0.2,0.2,0.4,0.3,0.5,0.5l1.9-0.5c0.2,0.3,0.4,0.6,0.5,0.9l-1.4,1.4c0.1,0.2,0.2,0.5,0.2,0.7
		l1.9,0.5c0,0.2,0,0.4,0,0.5C459.2,32.2,459.2,32.4,459.1,32.5z"/>
</g>
<g id="XMLID_1015_">
	<path id="XMLID_1014_" d="M310.7,141.4c-0.6-3.7-1.8-7.3-3.7-10.6c-1.2-2.1-2.7-4-4.5-5.8c-1.6-1.6-3.4-3-5.4-4.3
		c-0.1,0-0.1-0.1-0.1-0.1c0,0,0,0-0.1,0.1c-1.6,1.6-3.4,3.1-5.4,4.3c-2.6,1.6-4.8,2.2-7.7,2.2c-3.2,0-6.8-2-9.9-4.3
		c-0.8-0.6-1.5-1.2-2.2-1.8l-0.6-0.5c-2.2,1.2-4.2,2.8-6,4.7c-1.7,1.8-3.2,3.9-4.5,6.1c-1.3,2.5-2.3,5.1-2.9,7.9
		c-0.1,0.6-0.2,1.2-0.4,1.8l-0.1,0.8v0.7c0.3,0.8,0.9,1.1,1.9,1.1v0.7l0-0.7c16.6,0,33.3,0,49.9,0c1,0,1.6-0.3,1.9-1.1l0-0.8
		C310.8,141.7,310.7,141.6,310.7,141.4z"/>
	<g id="XMLID_1017_">
		<path id="XMLID_954_" d="M271.2,93.5c3.9-5.3,8.5-6,13.6-6.1c5-0.2,10.3,2.6,12.4,7.3c1,2.3,1.2,5,1.2,7.6c0,3.8-0.4,7.7-1.8,11.3
			c-1.4,3.6-3.7,6.8-7,8.6s-7.4,2-10.7,0.3c-2.4-1.2-4.3-2.8-5.5-4.6c-2.5-3.6-3.6-7.8-3.9-12.2C269.5,105.7,268.1,97.5,271.2,93.5z
			"/>
	</g>
</g>
<g id="XMLID_1117_">
	<path id="XMLID_8131_" d="M452.3,146.2c-6.3-5.2-10.7-9.5-15.3-15.5c-3.5-4.5-6.4-9.3-9.6-14c-2.4-3.5-4.9-7.1-6.3-11.1
		c-1.4-4-1.7-8.7,0.3-12.5c2.2-4.3,7-7,11.8-7c4.8-0.1,9.5,2.2,12.8,5.7c3.3,3.5,5.3,8.1,6.2,12.8c0.4-6.3,3.4-12.6,8.6-16.1
		c5.2-3.5,12.7-3.8,17.7,0.1c4.7,3.7,6.3,10.5,5.1,16.4c-1.2,5.9-5.4,10.6-9.1,15.3c-4,5.2-7,8.8-11.2,13.8
		C463.3,134.2,457.4,141.6,452.3,146.2z"/>
</g>
<g id="XMLID_8110_">
	<path id="XMLID_8136_" d="M553.9,86.8c3,0,5.9,0.9,8,2.6c4.1,3.2,6,9.4,4.7,15.4c-1,4.9-4.2,9-7.4,13c-0.5,0.7-1,1.3-1.5,2
		c-4.1,5.4-7.2,9.1-11.2,13.8c-0.1,0.1-5.4,6.8-10.2,11.3c-6.2-5.2-10.3-9.4-14.5-14.8c-2.3-3-4.4-6.1-6.4-9.2
		c-1-1.5-2.1-3.1-3.2-4.7c-2.4-3.4-4.8-6.9-6.2-10.9c-1.5-4.2-1.4-8.5,0.2-11.7c1.9-3.8,6.3-6.4,10.9-6.5l0.2,0
		c4.2,0,8.6,2,11.9,5.4c3,3.1,5,7.4,5.9,12.3l1.4,7.7l0.6-7.8c0.5-6.4,3.5-12.2,8.2-15.3C547.9,87.7,550.9,86.8,553.9,86.8
		 M553.9,85.8c-3.2,0-6.4,0.9-9,2.7c-5.2,3.5-8.2,9.8-8.6,16.1c-0.9-4.7-2.9-9.3-6.2-12.8c-3.3-3.4-7.8-5.7-12.6-5.7
		c-0.1,0-0.2,0-0.2,0c-4.8,0.1-9.6,2.7-11.8,7c-1.9,3.8-1.7,8.4-0.3,12.5c1.4,4,3.9,7.6,6.3,11.1c3.2,4.7,6.2,9.5,9.6,14
		c4.6,6,9,10.3,15.3,15.5c5-4.6,11-12,11-12c4.2-5,7.2-8.6,11.2-13.8c3.7-4.8,7.8-9.4,9.1-15.3s-0.3-12.7-5.1-16.4
		C560.1,86.7,557,85.8,553.9,85.8L553.9,85.8z"/>
</g>
<rect id="XMLID_479_" x="282" y="174.5" width="4" height="51.7"/>
<rect id="XMLID_3739_" x="270" y="187.9" width="28" height="4"/>
<g id="XMLID_510_">
	<g id="XMLID_3814_">
		<path id="XMLID_3818_" d="M146.3,462.5c0.7-2.7,0.2-5.4-1.9-7.3c-1.8-1.7-4.3-1.8-5.7-4c-1.2-2-2.1-3.9-4.1-5.4
			c-2-1.6-4.4-2.5-6.9-2.7c-0.3,0-0.6,0.5-0.9,0.5c2.4,0.2,4.7,1,6.6,2.5c2.1,1.5,3,3.5,4.3,5.6c1.3,2.1,3.6,2.3,5.4,3.8
			c2.3,1.9,2.9,4.8,2.2,7.6C145.5,462.8,146.3,462.7,146.3,462.5L146.3,462.5z"/>
	</g>
</g>
<g id="XMLID_511_">
	<g id="XMLID_3821_">
		<path id="XMLID_3825_" d="M142.4,462.6c-0.3-2.2-0.8-4.7-3.1-5.6c-2.5-1-5.3,0.1-7.7-1c-4.5-2.1-3.1-8.8-8.9-9
			c-0.3,0-0.6,0.5-0.9,0.5c2.4,0.1,4.2,1.4,5.1,3.7c0.9,2.2,1.5,4.2,3.8,5.4c2.4,1.1,5,0.1,7.4,0.9c2.6,0.8,3.1,3.4,3.5,5.8
			C141.5,462.9,142.4,462.7,142.4,462.6L142.4,462.6z"/>
	</g>
</g>
<rect id="XMLID_3804_" x="85.1" y="464.7" width="18.1" height="4.6"/>
<g id="XMLID_486_">
	<g id="XMLID_484_">
		<path id="XMLID_8954_" class="st0" d="M-143.3,292.3c-8.6,0-15.7-7-15.7-15.7s7-15.7,15.7-15.7s15.7,7,15.7,15.7
			S-134.7,292.3-143.3,292.3z"/>
		<path id="XMLID_8951_" d="M-143.3,261.7c8.2,0,14.9,6.7,14.9,14.9s-6.7,14.9-14.9,14.9c-8.2,0-14.9-6.7-14.9-14.9
			S-151.6,261.7-143.3,261.7 M-143.3,260.2c-9.1,0-16.4,7.3-16.4,16.4s7.3,16.4,16.4,16.4c9.1,0,16.4-7.3,16.4-16.4
			S-134.3,260.2-143.3,260.2L-143.3,260.2z"/>
	</g>
	<path id="XMLID_485_" d="M-134.8,289.6c2.2,3.5,4.4,7,7.2,10c2.8,3,6.1,5.6,10,7.1c1.1,0.4,2.4,0.7,3.4,0.1c1-0.6,1.3-1.8,1.3-2.9
		c0.1-3.3-2.1-6.2-4.4-8.5c-3.9-3.9-8.4-7.2-13.4-9.6"/>
</g>
<g id="XMLID_6425_">
	<g id="XMLID_6427_">
		<path id="XMLID_8949_" d="M-58.3,291c-7.4,0-13.4-6-13.4-13.4s6-13.4,13.4-13.4s13.4,6,13.4,13.4S-50.9,291-58.3,291z"/>
		<path id="XMLID_8946_" class="st0" d="M-58.3,264.9c7,0,12.6,5.7,12.6,12.6s-5.7,12.6-12.6,12.6s-12.6-5.7-12.6-12.6
			S-65.3,264.9-58.3,264.9 M-58.3,263.4c-7.8,0-14.1,6.3-14.1,14.1s6.3,14.1,14.1,14.1s14.1-6.3,14.1-14.1S-50.5,263.4-58.3,263.4
			L-58.3,263.4z"/>
	</g>
	<path id="XMLID_6426_" class="st0" d="M-51,288.8c1.9,3,3.8,6,6.2,8.6c2.4,2.6,5.3,4.9,8.6,6.1c1,0.4,2.1,0.6,3,0.1
		c0.8-0.5,1.1-1.6,1.2-2.5c0.1-2.8-1.8-5.3-3.8-7.3c-3.3-3.4-7.3-6.2-11.6-8.2"/>
</g>
</svg>
