<?xml version="1.0" encoding="utf-8"?>
<!-- Generator: Adobe Illustrator 19.0.0, SVG Export Plug-In . SVG Version: 6.00 Build 0)  -->
<svg version="1.1" id="icons" xmlns="http://www.w3.org/2000/svg" xmlns:xlink="http://www.w3.org/1999/xlink" x="0px" y="0px"
	 viewBox="0 0 64 64" style="enable-background:new 0 0 64 64;" xml:space="preserve">
<style type="text/css">
	.st0{fill:#FFFFFF;}
	.st1{fill:#FFFFFF;stroke:#000000;stroke-width:1.5;stroke-miterlimit:10;}
	.st2{fill:none;stroke:#000000;stroke-miterlimit:10;}
	.st3{fill:none;}
	.st4{fill:none;stroke:#000000;stroke-width:1.5;stroke-miterlimit:10;}
	.st5{stroke:#FFFFFF;stroke-width:1.5;stroke-miterlimit:10;}
</style>
<g id="XMLID_6370_">
	<circle id="XMLID_6396_" cx="284" cy="284" r="32"/>
</g>
<circle id="XMLID_755_" cx="200" cy="116" r="32"/>
<g id="XMLID_421_">
	<path id="XMLID_777_" class="st0" d="M620,63.2c-17.2,0-31.2-14-31.2-31.2s14-31.2,31.2-31.2s31.2,14,31.2,31.2
		S637.2,63.2,620,63.2z"/>
	<path id="XMLID_702_" d="M620,1.6c16.8,0,30.4,13.6,30.4,30.4S636.8,62.4,620,62.4S589.6,48.8,589.6,32S603.2,1.6,620,1.6 M620,0.1
		c-17.6,0-31.9,14.3-31.9,31.9s14.3,31.9,31.9,31.9s31.9-14.3,31.9-31.9S637.6,0.1,620,0.1L620,0.1z"/>
</g>
<g id="XMLID_8817_">
	<path id="XMLID_3463_" class="st0" d="M348.5,129.3c-6.5,0-11.8-5.3-11.8-11.8v-3.1c0-6.5,5.3-11.8,11.8-11.8h39
		c6.5,0,11.8,5.3,11.8,11.8v3.1c0,6.5-5.3,11.8-11.8,11.8H348.5z"/>
	<path id="XMLID_3460_" d="M387.5,103.4c6.1,0,11,5,11,11v3.1c0,6.1-5,11-11,11h-39c-6.1,0-11-5-11-11v-3.1c0-6.1,5-11,11-11H387.5
		 M387.5,101.9h-39c-6.9,0-12.5,5.6-12.5,12.5v3.1c0,6.9,5.6,12.5,12.5,12.5h39c6.9,0,12.5-5.6,12.5-12.5v-3.1
		C400,107.6,394.4,101.9,387.5,101.9L387.5,101.9z"/>
</g>
<g id="XMLID_8795_">
	<path id="XMLID_950_" class="st0" d="M284,147.2c-17.2,0-31.2-14-31.2-31.2s14-31.2,31.2-31.2s31.2,14,31.2,31.2
		S301.2,147.2,284,147.2z"/>
	<path id="XMLID_947_" d="M284,85.5c16.8,0,30.5,13.7,30.5,30.5s-13.7,30.5-30.5,30.5s-30.5-13.7-30.5-30.5S267.2,85.5,284,85.5
		 M284,84c-17.7,0-32,14.3-32,32s14.3,32,32,32s32-14.3,32-32S301.7,84,284,84L284,84z"/>
</g>
<g id="XMLID_8969_">
	<path id="XMLID_945_" class="st0" d="M620,315.2c-17.2,0-31.2-14-31.2-31.2s14-31.2,31.2-31.2s31.2,14,31.2,31.2
		S637.2,315.2,620,315.2z"/>
	<path id="XMLID_942_" d="M620,253.5c16.8,0,30.5,13.7,30.5,30.5s-13.7,30.5-30.5,30.5s-30.5-13.7-30.5-30.5S603.2,253.5,620,253.5
		 M620,252c-17.7,0-32,14.3-32,32s14.3,32,32,32s32-14.3,32-32S637.7,252,620,252L620,252z"/>
</g>
<g id="XMLID_1010_">
	<path id="XMLID_1018_" class="st0" d="M368,315.2c-17.2,0-31.2-14-31.2-31.2s14-31.2,31.2-31.2s31.2,14,31.2,31.2
		S385.2,315.2,368,315.2z"/>
	<path id="XMLID_1012_" d="M368,253.5c16.8,0,30.5,13.7,30.5,30.5s-13.7,30.5-30.5,30.5s-30.5-13.7-30.5-30.5S351.2,253.5,368,253.5
		 M368,252c-17.7,0-32,14.3-32,32s14.3,32,32,32c17.7,0,32-14.3,32-32S385.7,252,368,252L368,252z"/>
</g>
<g id="XMLID_9010_">
	<path id="XMLID_940_" class="st0" d="M704,483.2c-17.2,0-31.2-14-31.2-31.2s14-31.2,31.2-31.2s31.2,14,31.2,31.2
		S721.2,483.2,704,483.2z"/>
	<path id="XMLID_937_" d="M704,421.5c16.8,0,30.5,13.7,30.5,30.5s-13.7,30.5-30.5,30.5s-30.5-13.7-30.5-30.5S687.2,421.5,704,421.5
		 M704,420c-17.7,0-32,14.3-32,32s14.3,32,32,32s32-14.3,32-32S721.7,420,704,420L704,420z"/>
</g>
<g id="XMLID_423_">
	<path id="XMLID_935_" class="st0" d="M368,567.2c-17.2,0-31.2-14-31.2-31.2s14-31.2,31.2-31.2s31.2,14,31.2,31.2
		S385.2,567.2,368,567.2z"/>
	<path id="XMLID_932_" d="M368,505.5c16.8,0,30.5,13.7,30.5,30.5s-13.7,30.5-30.5,30.5s-30.5-13.7-30.5-30.5S351.2,505.5,368,505.5
		 M368,504c-17.7,0-32,14.3-32,32s14.3,32,32,32c17.7,0,32-14.3,32-32S385.7,504,368,504L368,504z"/>
</g>
<g id="XMLID_452_">
	<path id="XMLID_930_" class="st0" d="M200,735.2c-17.2,0-31.2-14-31.2-31.2s14-31.2,31.2-31.2s31.2,14,31.2,31.2
		S217.2,735.2,200,735.2z"/>
	<path id="XMLID_927_" d="M200,673.5c16.8,0,30.5,13.7,30.5,30.5s-13.7,30.5-30.5,30.5s-30.5-13.7-30.5-30.5S183.2,673.5,200,673.5
		 M200,672c-17.7,0-32,14.3-32,32s14.3,32,32,32s32-14.3,32-32S217.7,672,200,672L200,672z"/>
</g>
<g id="XMLID_424_">
	<path id="XMLID_922_" class="st0" d="M284,651.2c-17.2,0-31.2-14-31.2-31.2s14-31.2,31.2-31.2s31.2,14,31.2,31.2
		S301.2,651.2,284,651.2z"/>
	<path id="XMLID_919_" d="M284,589.5c16.8,0,30.5,13.7,30.5,30.5s-13.7,30.5-30.5,30.5s-30.5-13.7-30.5-30.5S267.2,589.5,284,589.5
		 M284,588c-17.7,0-32,14.3-32,32s14.3,32,32,32s32-14.3,32-32S301.7,588,284,588L284,588z"/>
</g>
<g id="XMLID_425_">
	<path id="XMLID_917_" class="st0" d="M704,651.2c-17.2,0-31.2-14-31.2-31.2s14-31.2,31.2-31.2s31.2,14,31.2,31.2
		S721.2,651.2,704,651.2z"/>
	<path id="XMLID_914_" d="M704,589.5c16.8,0,30.5,13.7,30.5,30.5s-13.7,30.5-30.5,30.5s-30.5-13.7-30.5-30.5S687.2,589.5,704,589.5
		 M704,588c-17.7,0-32,14.3-32,32s14.3,32,32,32s32-14.3,32-32S721.7,588,704,588L704,588z"/>
</g>
<g id="XMLID_426_">
	<path id="XMLID_912_" class="st0" d="M284,567.2c-17.2,0-31.2-14-31.2-31.2s14-31.2,31.2-31.2s31.2,14,31.2,31.2
		S301.2,567.2,284,567.2z"/>
	<path id="XMLID_909_" d="M284,505.5c16.8,0,30.5,13.7,30.5,30.5s-13.7,30.5-30.5,30.5s-30.5-13.7-30.5-30.5S267.2,505.5,284,505.5
		 M284,504c-17.7,0-32,14.3-32,32s14.3,32,32,32s32-14.3,32-32S301.7,504,284,504L284,504z"/>
</g>
<g id="XMLID_441_">
	<path id="XMLID_903_" class="st0" d="M284,399.2c-17.2,0-31.2-14-31.2-31.2s14-31.2,31.2-31.2s31.2,14,31.2,31.2
		S301.2,399.2,284,399.2z"/>
	<path id="XMLID_899_" d="M284,337.5c16.8,0,30.5,13.7,30.5,30.5s-13.7,30.5-30.5,30.5s-30.5-13.7-30.5-30.5S267.2,337.5,284,337.5
		 M284,336c-17.7,0-32,14.3-32,32s14.3,32,32,32c17.7,0,32-14.3,32-32S301.7,336,284,336L284,336z"/>
</g>
<path id="XMLID_3149_" class="st1" d="M400,28.8c0.8-28.1-30.4-26.5-30.4-26.5c-38.5,1.7-33.4,27.9-33.4,27.9
	c0.5,16.3,15.5,23.2,15.5,23.2c1,4-4.8,8.3-4.8,8.3c6.5,0.4,13-5.2,13-5.2c4.9,1.4,13.9,0.6,13.9,0.6C401.5,54.8,400,28.8,400,28.8z
	"/>
<path id="XMLID_3170_" class="st1" d="M364.3,48c0,0,5.7,0.5,8.8-0.4c0,0,4.2,3.6,8.3,3.3c0,0-3.6-2.7-3-5.3c0,0,9.6-4.4,9.9-14.7
	c0,0,3.3-16.7-21.3-17.8c0,0-19.9-1.1-19.4,16.8C347.6,29.9,346.6,46.5,364.3,48z"/>
<path id="XMLID_427_" class="st1" d="M316,28.8c0.8-28.1-30.4-26.5-30.4-26.5c-38.5,1.7-33.4,27.9-33.4,27.9
	c0.5,16.3,15.5,23.2,15.5,23.2c1,4-4.8,8.3-4.8,8.3c6.5,0.4,13-5.2,13-5.2c4.9,1.4,13.9,0.6,13.9,0.6C317.5,54.8,316,28.8,316,28.8z
	 M268.6,37.6c-3.1,0-5.6-2.5-5.6-5.6s2.5-5.6,5.6-5.6c3.1,0,5.6,2.5,5.6,5.6S271.7,37.6,268.6,37.6z M284,37.6
	c-3.1,0-5.6-2.5-5.6-5.6s2.5-5.6,5.6-5.6s5.6,2.5,5.6,5.6S287.1,37.6,284,37.6z M299.4,37.6c-3.1,0-5.6-2.5-5.6-5.6s2.5-5.6,5.6-5.6
	c3.1,0,5.6,2.5,5.6,5.6S302.5,37.6,299.4,37.6z"/>
<path id="XMLID_884_" d="M230,484h-60c-1.1,0-2-0.9-2-2v-60c0-1.1,0.9-2,2-2h60c1.1,0,2,0.9,2,2v60C232,483.1,231.1,484,230,484z"/>
<path id="XMLID_570_" d="M818,400h-60c-1.1,0-2-0.9-2-2v-60c0-1.1,0.9-2,2-2h60c1.1,0,2,0.9,2,2v60C820,399.1,819.1,400,818,400z"/>
<circle id="XMLID_432_" cx="788.1" cy="284" r="32"/>
<g id="XMLID_1336_">
	<path id="XMLID_1357_" d="M32,337.5c16.8,0,30.5,13.7,30.5,30.5S48.8,398.5,32,398.5S1.5,384.8,1.5,368S15.2,337.5,32,337.5
		 M32,336c-17.7,0-32,14.3-32,32c0,17.7,14.3,32,32,32c17.7,0,32-14.3,32-32C64,350.3,49.7,336,32,336L32,336z"/>
</g>
<g id="XMLID_433_">
	<path id="XMLID_434_" d="M32,523c-12.4,0-22.5,10.1-22.5,22.5C9.5,557.9,19.6,568,32,568s22.5-10.1,22.5-22.5
		C54.5,533.1,44.4,523,32,523z M33.5,545.3v13.8h-3.3v-13.9c-1.6-0.7-2.8-2.3-2.8-4.2c0-2.5,2.1-4.6,4.6-4.6c2.5,0,4.6,2.1,4.6,4.6
		C36.6,543,35.3,544.7,33.5,545.3z"/>
	<path id="XMLID_437_" d="M21.4,524.5v-5c0-5.8,4.2-10.4,9.4-10.4h2.3c5.2,0,9.4,4.7,9.4,10.4v5c1.8,0.9,3.6,2.1,5.1,3.5v-8.5
		c0-8.6-6.5-15.5-14.5-15.5h-2.3c-8,0-14.5,7-14.5,15.5v8.5C17.9,526.6,19.6,525.5,21.4,524.5z"/>
</g>
<path id="XMLID_438_" d="M116,523c-12.4,0-22.5,10.1-22.5,22.5c0,12.4,10.1,22.5,22.5,22.5s22.5-10.1,22.5-22.5
	C138.5,533.1,128.4,523,116,523z M117.5,545.3v13.8h-3.3v-13.9c-1.6-0.7-2.8-2.3-2.8-4.2c0-2.5,2.1-4.6,4.6-4.6
	c2.5,0,4.6,2.1,4.6,4.6C120.6,543,119.3,544.7,117.5,545.3z"/>
<path id="XMLID_442_" d="M536,503.9c-17.7,0-32.1,14.4-32.1,32.1s14.4,32.1,32.1,32.1s32.1-14.4,32.1-32.1S553.7,503.9,536,503.9z
	 M560.7,521.8c1.8,3.1,3,6.5,3.5,10.1h-12.7c-0.4-3.2-1.1-6.6-2.4-10.1H560.7z M557.7,517.6h-10.4c-1.5-3.1-3.3-6.3-5.7-9.5
	C548.1,509.4,553.7,512.8,557.7,517.6z M548.6,536c0.1,3.6-0.4,7-1.3,10.1h-21.8c-0.8-3.1-1.3-6.4-1.2-10.1H548.6z M524.7,531.9
	c0.4-3.2,1.3-6.6,2.7-10.1h18.4c1.4,3.5,2.2,6.9,2.6,10.1H524.7z M536,507.5c0.4,0,0.9,0,1.3,0c2.7,3.5,4.9,6.8,6.5,10.1h-14.6
	c1.7-3.3,3.8-6.6,6.6-10.1C535.9,507.5,535.9,507.5,536,507.5z M531.6,507.9c-2.4,3.3-4.4,6.6-5.8,9.8h-11.5
	C518.6,512.5,524.7,508.9,531.6,507.9z M511.3,521.8H524c-1.3,3.5-2,6.9-2.4,10.1h-13.8C508.3,528.2,509.6,524.8,511.3,521.8z
	 M507.5,536h13.8c0,3.6,0.4,7,1.2,10.1h-13.1C508.2,543,507.5,539.6,507.5,536z M511.3,550.2h12.4c2.2,6.1,5.4,10.9,7.8,13.9
	C522.9,562.8,515.6,557.5,511.3,550.2z M536,564.5C536,564.5,536,564.5,536,564.5c-2-2-6.3-7-9.1-14.3H546
	c-2.8,7.3-7.2,12.3-9.1,14.2C536.6,564.5,536.3,564.5,536,564.5z M541.5,563.9c2.4-3,5.5-7.7,7.7-13.7h11.4
	C556.6,557.2,549.7,562.3,541.5,563.9z M550.5,546.1c0.8-3.1,1.2-6.5,1.2-10.1h12.8c0,3.6-0.7,7-1.9,10.1H550.5z"/>
<path id="XMLID_457_" d="M0.2,30.2c0,0-5.1-26.3,33.4-27.9c0,0,31.2-1.7,30.4,26.5c0,0,1.5,26-26.2,28.3c0,0-9,0.7-13.9-0.6
	c0,0-6.6,5.6-13,5.2c0,0,5.7-4.2,4.8-8.3C15.7,53.4,0.7,46.5,0.2,30.2z"/>
<g id="XMLID_3031_">
	<path id="XMLID_564_" class="st0" d="M97,60.8c1.7-1.7,4.1-4.6,3.4-7.6l-0.1-0.4l-0.3-0.2c-0.1-0.1-14.6-6.9-15.1-22.5l0-0.1l0-0.1
		c0-0.1-1.6-8.6,4.2-16c5.3-6.7,14.9-10.4,28.5-11c0,0,0.4,0,1,0c3.5,0,15.4,0.6,22.7,8.1c4.2,4.3,6.2,10.2,6,17.6
		c0.1,1.1,1.1,25.4-25.5,27.6c0,0-2.4,0.2-5.4,0.2c-3.5,0-6.4-0.3-8.2-0.8l-0.4-0.1l-0.3,0.3C107.4,55.9,102.4,60.2,97,60.8z"/>
	<path id="XMLID_556_" d="M118.6,3.8L118.6,3.8c3.4,0,15,0.6,22.2,7.9c4,4.2,6,9.9,5.8,17l0,0.1l0,0.1c0.1,1,1,24.6-24.8,26.8
		c0,0-2.4,0.2-5.3,0.2c-3.5,0-6.2-0.3-8-0.8l-0.8-0.2l-0.6,0.5c0,0-3.6,3-7.8,4.3c1.4-1.8,2.6-4.1,2-6.6l-0.2-0.7l-0.7-0.3
		c-0.1-0.1-14.2-6.7-14.7-21.9l0-0.1l0-0.1c0-0.1-1.5-8.3,4.1-15.4C94.9,8,104.3,4.4,117.7,3.8C117.7,3.8,118,3.8,118.6,3.8
		 M118.6,2.3c-0.6,0-1,0-1,0C79.1,4,84.2,30.2,84.2,30.2c0.5,16.3,15.5,23.2,15.5,23.2c1,4-4.8,8.3-4.8,8.3c0.2,0,0.5,0,0.7,0
		c6.2,0,12.3-5.2,12.3-5.2c2.3,0.7,5.6,0.8,8.4,0.8c3,0,5.4-0.2,5.4-0.2c27.7-2.3,26.2-28.3,26.2-28.3
		C148.7,3.6,123.9,2.3,118.6,2.3L118.6,2.3z"/>
</g>
<path id="XMLID_459_" d="M735.8,34.4c0.1-0.8,0.1-1.6,0.1-2.4c0-0.8-0.1-1.6-0.1-2.4l-8.4-2.1c-0.2-1.1-0.5-2.2-0.9-3.3l6.2-6
	c-0.7-1.5-1.5-2.9-2.4-4.2l-8.4,2.4c-0.7-0.9-1.6-1.7-2.4-2.4l2.4-8.4c-1.3-0.9-2.7-1.7-4.2-2.4l-6,6.2c-1.1-0.4-2.2-0.7-3.3-0.9
	l-2.1-8.4C705.6,0.1,704.8,0,704,0s-1.6,0.1-2.4,0.1l-2.1,8.4c-1.1,0.2-2.2,0.5-3.3,0.9l-6-6.2c-1.5,0.7-2.9,1.5-4.2,2.4l2.4,8.4
	c-0.9,0.7-1.7,1.6-2.4,2.4l-8.4-2.4c-0.9,1.3-1.7,2.7-2.4,4.2l6.2,6c-0.4,1.1-0.7,2.2-0.9,3.3l-8.4,2.1c-0.1,0.8-0.1,1.6-0.1,2.4
	c0,0.8,0.1,1.6,0.1,2.4l8.4,2.1c0.2,1.1,0.5,2.2,0.9,3.3l-6.2,6c0.7,1.5,1.5,2.9,2.4,4.2l8.4-2.4c0.7,0.9,1.6,1.7,2.4,2.4l-2.4,8.4
	c1.3,0.9,2.7,1.7,4.2,2.4l6-6.2c1.1,0.4,2.2,0.7,3.3,0.9l2.1,8.4c0.8,0.1,1.6,0.1,2.4,0.1s1.6-0.1,2.4-0.1l2.1-8.4
	c1.1-0.2,2.2-0.5,3.3-0.9l6,6.2c1.5-0.7,2.9-1.5,4.2-2.4l-2.4-8.4c0.9-0.7,1.7-1.6,2.4-2.4l8.4,2.4c0.9-1.3,1.7-2.7,2.4-4.2l-6.2-6
	c0.4-1.1,0.7-2.2,0.9-3.3L735.8,34.4z"/>
<path id="XMLID_460_" class="st0" d="M724.9,33.6l-5.5,1.4c-0.1,0.7-0.3,1.5-0.6,2.2l4.1,4c-0.5,1-1,1.9-1.6,2.7l-5.5-1.6
	c-0.5,0.6-1,1.1-1.6,1.6l1.6,5.5c-0.9,0.6-1.8,1.1-2.7,1.6l-4-4.1c-0.7,0.2-1.4,0.4-2.2,0.6l-1.4,5.5c-0.5,0-1,0.1-1.6,0.1
	s-1.1,0-1.6-0.1l-1.4-5.5c-0.7-0.1-1.5-0.3-2.2-0.6l-4,4.1c-1-0.5-1.9-1-2.7-1.6l1.6-5.5c-0.6-0.5-1.1-1-1.6-1.6l-5.5,1.6
	c-0.6-0.9-1.1-1.8-1.6-2.7l4.1-4c-0.2-0.7-0.4-1.4-0.6-2.2l-5.5-1.4c0-0.5-0.1-1-0.1-1.6c0-0.5,0-1.1,0.1-1.6l5.5-1.4
	c0.1-0.7,0.3-1.5,0.6-2.2l-4.1-4c0.5-1,1-1.9,1.6-2.7l5.5,1.6c0.5-0.6,1-1.1,1.6-1.6l-1.6-5.5c0.9-0.6,1.8-1.1,2.7-1.6l4,4.1
	c0.7-0.2,1.4-0.4,2.2-0.6l1.4-5.5c0.5,0,1-0.1,1.6-0.1s1.1,0,1.6,0.1l1.4,5.5c0.7,0.1,1.5,0.3,2.2,0.6l4-4.1c1,0.5,1.9,1,2.7,1.6
	l-1.6,5.5c0.6,0.5,1.1,1,1.6,1.6l5.5-1.6c0.6,0.9,1.1,1.8,1.6,2.7l-4.1,4c0.2,0.7,0.4,1.4,0.6,2.2l5.5,1.4c0,0.5,0.1,1,0.1,1.6
	C725,32.5,725,33.1,724.9,33.6z"/>
<g id="XMLID_461_">
	<g id="XMLID_462_">
		<path id="XMLID_897_" class="st0" d="M784.5,14.2c-2.8,0-5.2-2.3-5.2-5.2V7.7c0-2.8,2.3-5.2,5.2-5.2h6.9c2.8,0,5.2,2.3,5.2,5.2
			v1.4c0,2.8-2.3,5.2-5.2,5.2H784.5z"/>
		<path id="XMLID_894_" d="M791.5,3.2c2.4,0,4.4,2,4.4,4.4v1.4c0,2.4-2,4.4-4.4,4.4h-6.9c-2.4,0-4.4-2-4.4-4.4V7.7
			c0-2.4,2-4.4,4.4-4.4H791.5 M791.5,1.8h-6.9c-3.3,0-5.9,2.7-5.9,5.9v1.4c0,3.3,2.7,5.9,5.9,5.9h6.9c3.3,0,5.9-2.7,5.9-5.9V7.7
			C797.4,4.4,794.7,1.8,791.5,1.8L791.5,1.8z"/>
	</g>
	<g id="XMLID_463_">
		<path id="XMLID_464_" d="M766.4,15l5.7,45.9c1.7,1.9,15.9,2.6,15.9,2.6c12.3,0,15.5-3.3,15.5-3.3l6.1-45.3H766.4z"/>
	</g>
	<rect id="XMLID_466_" x="765.2" y="9.1" width="45.5" height="5.9"/>
</g>
<path id="XMLID_473_" d="M620,84.1c-9.3,0-16.9,7.6-16.9,16.9c0,3,0.8,5.9,2.2,8.3l14.7,38.5l14.7-38.5c1.4-2.5,2.2-5.3,2.2-8.3
	C636.9,91.7,629.3,84.1,620,84.1z M620.4,108.8c-4.2,0-7.7-3.4-7.7-7.7c0-4.2,3.4-7.7,7.7-7.7s7.7,3.4,7.7,7.7
	C628.1,105.3,624.6,108.8,620.4,108.8z"/>
<path id="XMLID_478_" d="M231.5,206.3c-1.4-4.6-5.6-7.9-10.5-8.2c-0.5,0-0.7-0.2-0.7-0.7c0-0.8,0-1.6-0.1-2.4
	c-1.8-13.1-15.7-19.8-27.2-13.8c-4.1,2.1-6.7,5.6-8.3,9.9c-0.2,0.5-0.3,0.6-0.9,0.6c-1.3-0.1-2.7-0.1-4,0.2
	c-7.7,1.5-12.6,8.3-11.8,16.1c0.7,7.1,6.8,12.9,14,12.9c6.4,0,13,0,19,0c0,0,0,0,0,0c7,0,13.1,0,19.5,0
	C228.9,221,233.6,212.8,231.5,206.3z"/>
<g id="XMLID_8884_">
	<path id="XMLID_886_" class="st0" d="M265,220.2c-6.4,0-11.5-5-12.2-12.2c-0.8-7.4,4-13.8,11.2-15.3c0.8-0.2,1.6-0.2,2.4-0.2
		c0.4,0,0.9,0,1.3,0.1c0.1,0,0.2,0,0.3,0c1,0,1.3-0.8,1.4-1.1c1.6-4.4,4.2-7.6,7.9-9.5c2.7-1.4,5.6-2.1,8.6-2.1
		c8.9,0,16.3,6.5,17.5,15.4c0.1,0.7,0.1,1.5,0.1,2.3c0,0.9,0.5,1.4,1.4,1.5c4.5,0.3,8.5,3.4,9.8,7.7c0.9,2.8,0.2,6.1-1.8,8.8
		c-2.3,3.1-5.7,4.8-9.5,4.8h0c-2.5,0-5,0-7.6,0l-13.7,0v0l-10.1,0C269.9,220.2,265,220.2,265,220.2z"/>
	<path id="XMLID_882_" d="M286,179l0,1.5c8.5,0,15.6,6.2,16.8,14.7c0.1,0.7,0.1,1.4,0.1,2.2c0,1.3,0.7,2.1,2.1,2.2
		c4.2,0.3,7.9,3.2,9.1,7.1c0.8,2.6,0.2,5.6-1.6,8.2c-2.1,2.9-5.4,4.5-8.9,4.5c-2.5,0-5,0-7.6,0c-2.1,0-4.2,0-6.4,0
		c-2.2,0-4.3,0-6.5,0l-1.4,0l-4,0l-5.4,0c-2.3,0-4.7,0-7.2,0c-6,0-10.8-4.7-11.5-11.5c-0.7-7,3.7-13.1,10.6-14.5
		c0.7-0.1,1.5-0.2,2.3-0.2c0.4,0,0.8,0,1.3,0.1c0.1,0,0.3,0,0.4,0c1,0,1.7-0.5,2.1-1.6c1.5-4.3,4-7.3,7.5-9.1
		c2.6-1.4,5.4-2.1,8.3-2.1V179 M286,179c-3,0-6,0.7-9,2.2c-4.1,2.1-6.7,5.6-8.3,9.9c-0.1,0.4-0.3,0.6-0.7,0.6c-0.1,0-0.1,0-0.2,0
		c-0.5-0.1-0.9-0.1-1.4-0.1c-0.9,0-1.7,0.1-2.5,0.3c-7.7,1.5-12.6,8.3-11.8,16.1c0.7,7.1,5.8,12.9,13,12.9c0,0,0,0,0,0
		c2.5,0,4.9,0,7.2,0c3.6,0,7.1,0,10.8,0c0,0,0,0,0,0c4.3,0,8.7,0,12.9,0c2.6,0,5.2,0,7.6,0c0,0,0,0,0.1,0c8.4,0,14-8.1,12-14.6
		c-1.4-4.6-5.6-7.9-10.5-8.2c-0.5,0-0.7-0.2-0.7-0.7c0-0.8,0-1.6-0.1-2.4C302.9,185.3,294.8,179,286,179L286,179z"/>
</g>
<g id="XMLID_491_">
	<path id="XMLID_492_" d="M423.5,313.7c0,1.7,1.9,2.8,3.3,1.9l26.1-14.9l26.4-14.8c1.5-0.9,1.5-3,0-3.9L453,267.2l-26.1-14.9
		c-1.5-0.8-3.3,0.2-3.3,1.9V284V313.7z"/>
</g>
<path id="XMLID_493_" d="M232,28.8c0.8-28.1-30.4-26.5-30.4-26.5c-38.5,1.7-33.4,27.9-33.4,27.9c0.5,16.3,15.5,23.2,15.5,23.2
	c1,4-4.8,8.3-4.8,8.3c6.5,0.4,13-5.2,13-5.2c4.9,1.4,13.9,0.6,13.9,0.6C233.5,54.8,232,28.8,232,28.8z M184.6,37.6
	c-3.1,0-5.6-2.5-5.6-5.6s2.5-5.6,5.6-5.6c3.1,0,5.6,2.5,5.6,5.6S187.7,37.6,184.6,37.6z M200,37.6c-3.1,0-5.6-2.5-5.6-5.6
	s2.5-5.6,5.6-5.6s5.6,2.5,5.6,5.6S203.1,37.6,200,37.6z M215.4,37.6c-3.1,0-5.6-2.5-5.6-5.6s2.5-5.6,5.6-5.6c3.1,0,5.6,2.5,5.6,5.6
	S218.5,37.6,215.4,37.6z"/>
<g id="XMLID_498_">
	<path id="XMLID_621_" d="M368.1,259.4c4.6,0,9.1,1.3,13,3.7L347.1,297c-2.4-3.9-3.7-8.3-3.7-13
		C343.4,270.4,354.5,259.4,368.1,259.4 M388.3,270c2.9,4.1,4.4,8.9,4.4,14c0,13.6-11,24.6-24.6,24.6c-5.1,0-9.8-1.5-14-4.4
		L388.3,270 M368.1,257.9c-14.4,0-26.1,11.7-26.1,26.1c0,5.7,1.9,11,5,15.3l36.5-36.5C379.1,259.7,373.8,257.9,368.1,257.9
		L368.1,257.9z M388.5,267.7l-36.7,36.7c4.5,3.6,10.1,5.7,16.3,5.7c14.4,0,26.1-11.7,26.1-26.1C394.2,277.9,392.1,272.2,388.5,267.7
		L388.5,267.7z"/>
</g>
<g id="XMLID_6361_">
	<path id="XMLID_616_" class="st0" d="M257.9,284c0-14.4,11.7-26.1,26.1-26.1c5.7,0,11,1.9,15.3,5l-36.5,36.5
		C259.8,295,257.9,289.7,257.9,284z M284.1,310.1c-6.1,0-11.8-2.1-16.3-5.7l36.7-36.7c3.6,4.5,5.7,10.1,5.7,16.3
		C310.2,298.4,298.5,310.1,284.1,310.1z"/>
</g>
<path id="XMLID_502_" d="M304.4,438c-0.9-2.8-3.5-4.8-6.4-5c-0.3,0-0.4-0.1-0.4-0.4c0-0.5,0-1-0.1-1.5c-1.1-8-9.6-12.1-16.7-8.5
	c-2.5,1.3-4.1,3.5-5.1,6.1c-0.1,0.3-0.2,0.4-0.5,0.4c-0.8-0.1-1.6-0.1-2.4,0.1c-4.7,0.9-7.8,5.1-7.3,9.9c0.3,2.9,2.1,5.4,4.6,6.8
	c0,0,0,0.1,0,0.1v3h-5.1c-4.4,0-7.9,3.4-7.9,7.8v7.4c0,4.4,3.5,7.8,7.9,7.8h5.1v5c0,2.2,1.8,4,4,4h23c2.2,0,4-1.8,4-4v-30.8
	C304,444.7,305.3,441,304.4,438z M265,469.4c-3,0-6-2.9-6-6.1v-5.4c0-3.2,3-6.2,6-6.2h5v17.8H265z M279,474.7c0,2-1.4,3.6-3.4,3.6
	s-3.4-1.6-3.4-3.6v-24.9c0-2,1.4-3.6,3.4-3.6s3.4,1.6,3.4,3.6V474.7z M288.4,474.7c0,2-1.4,3.6-3.4,3.6c-2,0-3.4-1.6-3.4-3.6v-24.9
	c0-2,1.4-3.6,3.4-3.6c2,0,3.4,1.6,3.4,3.6V474.7z M297.7,474.7c0,2-1.4,3.6-3.4,3.6s-3.4-1.6-3.4-3.6v-24.9c0-2,1.4-3.6,3.4-3.6
	s3.4,1.6,3.4,3.6V474.7z M299.4,443.3h-27.7c0,0,0,0,0,0c-1.1-1.1-1.9-2.5-2-4.1c-0.4-3.8,2-7.1,5.7-7.8c0.6-0.1,1.3-0.2,1.9-0.1
	c0.3,0,0.3,0,0.4-0.3c0.7-2.1,2-3.8,4-4.8c5.5-2.9,12.2,0.3,13.1,6.7c0.1,0.4,0.1,0.8,0.1,1.2c0,0.3,0.1,0.3,0.3,0.3
	c2.3,0.2,4.3,1.8,5,4C300.6,440.1,300.4,441.9,299.4,443.3z"/>
<g id="XMLID_509_">
	<g id="XMLID_1681_">
		<path id="XMLID_3828_" d="M391.2,465.4v3.2h-53.5v-3.2H391.2 M392.2,463.9h-55.5c-0.3,0-0.5,0.2-0.5,0.5v5.3
			c0,0.3,0.2,0.5,0.5,0.5h55.5c0.3,0,0.5-0.2,0.5-0.5v-5.3C392.7,464.2,392.5,463.9,392.2,463.9L392.2,463.9z"/>
	</g>
	<path id="XMLID_1680_" d="M395.6,470.2h-2c-0.2,0-0.4-0.2-0.4-0.4v-5.5c0-0.2,0.2-0.4,0.4-0.4h2c0.2,0,0.4,0.2,0.4,0.4v5.5
		C395.9,470,395.8,470.2,395.6,470.2z"/>
	<path id="XMLID_1679_" d="M399.2,470.2h-2.1c-0.2,0-0.3-0.1-0.3-0.3v-5.6c0-0.2,0.1-0.3,0.3-0.3h2.1c0.2,0,0.3,0.1,0.3,0.3v5.6
		C399.5,470,399.3,470.2,399.2,470.2z"/>
</g>
<g id="XMLID_512_">
	<path id="XMLID_513_" d="M789.4,484c-3.1,0-6-0.5-8.2-3.1c-1.6-1.8-2-3.8-2.4-6.1c-2.9,0-5.9,0-8.8,0c-2.7,0-7.7,1-10-1.1
		c-3.9-3.7,1.5-6.1,3.7-9c7-9.1,6.8-18.6,8.6-29.3c0.6-3.7,2.8-6.8,6-8.7c2-1.1,4.3-1.6,6.5-2.1c-0.6-2.1,0.2-4.7,3.2-4.7
		c4.5,0,3.7,4.7,3.7,4.7c3.9,0.6,8.2,2.7,10.3,6.1c4.4,7.2,2.3,17.7,5.6,25.7c1.6,3.7,3.7,7.2,6.5,10.2c2.4,2.7,6.2,6.7-0.3,8
		c-5.1,1-11.4,0.1-16.6,0.1C797,479.6,793.8,482.8,789.4,484C788.5,484,791.4,483.5,789.4,484z M787.9,481.2
		c1.6-1.3-1.2-1.4-2.1-1.8c-2.4-1-2.1-3.3-3.6-5.1C780.6,477.7,784.7,481.1,787.9,481.2C788,481.1,784.7,481.1,787.9,481.2z"/>
</g>
<circle id="XMLID_530_" cx="200" cy="536" r="32"/>
<circle id="XMLID_711_" cx="116" cy="452" r="32"/>
<circle id="XMLID_531_" cx="704" cy="368" r="32"/>
<circle id="XMLID_536_" cx="368" cy="536" r="8.1"/>
<g id="XMLID_537_">
	<path id="XMLID_538_" d="M620.3,508.1c-1.3,0-2.4,0-3.4,0.1c-1.9,0.1-3.7,0.4-5.6,0.7c-3.1,0.6-6.1,1.5-8.9,2.8
		c-4.8,2.1-9.2,4.9-13,8.5c-1.1,1-1.7,2.2-1.4,3.7c0.3,1.4,1.1,2.4,2.4,3c1.1,0.4,2.2,0.4,3.2-0.2c0.6-0.3,1-0.7,1.5-1.2
		c3.3-3.1,7.1-5.4,11.3-7.1c3.3-1.3,6.7-2.1,10.2-2.4c4.9-0.4,9.7,0.1,14.4,1.6c2.8,0.9,5.4,2.1,7.9,3.6c2.2,1.3,4.2,2.9,6.1,4.6
		c0.4,0.4,0.8,0.7,1.4,1c1.3,0.6,2.5,0.5,3.7-0.2c1.2-0.7,1.8-1.8,1.8-3.1c0.1-1.3-0.5-2.3-1.4-3.2c-1.4-1.3-2.8-2.5-4.3-3.6
		c-5.5-4-11.5-6.6-18.2-7.8C625.4,508.4,622.7,508.1,620.3,508.1z M619.7,521.2c-3.9,0-7.9,0.8-11.8,2.4c-3.7,1.5-7,3.8-10,6.6
		c-1.5,1.5-1.7,3.4-0.8,4.9c1.2,2.1,3.9,2.6,5.8,1.1c0.9-0.7,1.7-1.5,2.6-2.2c1.6-1.2,3.4-2.3,5.3-3.1c2.2-0.9,4.4-1.5,6.8-1.7
		c3.1-0.3,6.2,0,9.2,0.9c2.1,0.7,4.1,1.6,6,2.8c1.3,0.9,2.5,1.9,3.6,2.9c1,1,2.2,1.4,3.7,1.1c1.3-0.3,2.3-1.1,2.8-2.3
		c0.6-1.6,0.3-3.1-1-4.4c-0.9-0.9-1.8-1.7-2.8-2.4c-3-2.3-6.3-4-9.9-5.2C626.3,521.7,623.2,521.2,619.7,521.2z M634.6,543.1
		c0-0.9-0.3-2-0.9-2.6c-2.7-3-6.1-5-10.1-5.8c-2.4-0.5-4.7-0.5-7.1,0c-2.4,0.5-4.7,1.4-6.7,2.8c-1.4,1-2.7,2-3.7,3.4
		c-0.5,0.7-0.7,1.5-0.6,2.3c0.1,0.9,0.4,1.8,1.1,2.5c1,1.1,2.3,1.4,3.7,1.1c0.9-0.2,1.6-0.7,2.2-1.3c1.6-1.6,3.5-2.7,5.7-3.1
		c2.2-0.4,4.4-0.1,6.4,0.9c1.2,0.6,2.2,1.4,3.2,2.3c0.8,0.9,1.9,1.4,3.1,1.3C632.9,546.8,634.5,545.2,634.6,543.1z M619.9,563.9
		c1.9,0,3.5-0.4,4.9-1.3c4.5-2.7,5.1-8.7,1.3-12.2c-3.3-3-8.5-3-11.8,0c-2.9,2.6-3.4,6.9-1.1,10
		C614.9,562.8,617.3,563.8,619.9,563.9z"/>
</g>
<path id="XMLID_543_" d="M704,504c-17.7,0-32,14.3-32,32c0,17.7,14.3,32,32,32s32-14.3,32-32C736,518.3,721.7,504,704,504z
	 M707.6,557.3c-1,0.6-2.2,0.9-3.6,1c-1.9-0.1-3.7-0.8-5-2.6c-1.7-2.3-1.3-5.4,0.8-7.4c2.4-2.2,6.3-2.2,8.7,0
	C711.3,550.9,710.9,555.3,707.6,557.3z M712,545.7c-0.9,0-1.7-0.3-2.3-1c-0.7-0.7-1.4-1.3-2.3-1.7c-1.5-0.7-3.1-0.9-4.8-0.6
	c-1.7,0.3-3.1,1.1-4.2,2.3c-0.4,0.5-1,0.8-1.6,1c-1.1,0.2-2,0-2.7-0.8c-0.5-0.5-0.8-1.1-0.8-1.8c0-0.6,0.1-1.2,0.5-1.7
	c0.7-1,1.7-1.8,2.8-2.5c1.5-1,3.2-1.7,5-2.1c1.7-0.3,3.5-0.3,5.2,0c3,0.6,5.4,2,7.5,4.3c0.4,0.5,0.7,1.3,0.7,1.9
	C714.7,544.4,713.5,545.6,712,545.7z M721,536.6c-0.4,0.9-1.1,1.5-2.1,1.7c-1.1,0.2-1.9-0.1-2.7-0.8c-0.8-0.8-1.7-1.5-2.7-2.2
	c-1.4-0.9-2.9-1.6-4.4-2.1c-2.2-0.7-4.5-0.9-6.8-0.7c-1.7,0.2-3.4,0.6-5,1.3c-1.4,0.6-2.7,1.3-3.9,2.3c-0.7,0.5-1.3,1.1-1.9,1.7
	c-1.4,1.1-3.4,0.7-4.3-0.8c-0.7-1.1-0.5-2.6,0.6-3.6c2.1-2.1,4.6-3.7,7.4-4.9c2.8-1.2,5.8-1.8,8.7-1.8c2.5,0,4.8,0.3,7.1,1
	c2.7,0.8,5.1,2.1,7.3,3.8c0.7,0.6,1.4,1.2,2.1,1.8C721.2,534.3,721.5,535.4,721,536.6z M726.3,530.7c-0.9,0.5-1.8,0.6-2.7,0.2
	c-0.4-0.2-0.7-0.4-1-0.7c-1.4-1.3-2.9-2.4-4.5-3.4c-1.8-1.1-3.8-2-5.8-2.6c-3.5-1.1-7-1.5-10.6-1.1c-2.6,0.2-5.1,0.8-7.5,1.8
	c-3.1,1.2-5.9,3-8.3,5.2c-0.3,0.3-0.7,0.6-1.1,0.9c-0.8,0.4-1.6,0.4-2.4,0.1c-1-0.4-1.6-1.1-1.8-2.2c-0.2-1.1,0.2-2,1-2.8
	c2.8-2.7,6-4.8,9.6-6.3c2.1-0.9,4.3-1.6,6.6-2c1.4-0.3,2.7-0.4,4.1-0.5c0.7-0.1,1.5-0.1,2.5-0.1c1.8,0,3.8,0.2,5.8,0.6
	c4.9,0.9,9.4,2.9,13.4,5.8c1.1,0.8,2.2,1.7,3.2,2.7c0.7,0.6,1.1,1.4,1,2.4C727.6,529.4,727.1,530.2,726.3,530.7z"/>
<path id="XMLID_549_" d="M452,588c-17.7,0-32,14.3-32,32c0,17.7,14.3,32,32,32s32-14.3,32-32C484,602.3,469.7,588,452,588z
	 M436.7,642c-1.6-0.4-3-1.2-4.4-2.6c-1.8-1.9-2.7-4.4-2.3-7.3c0.6-3.8,3.9-6.5,7.9-6.3c4.5,0.2,8.2,3.9,8.4,8.4
	C446.5,639.5,441.9,643.2,436.7,642z M458.8,632.5c0,0.9-0.6,1.9-1.2,2.5c-1.5,1.5-3.8,1.4-5.4,0.1c-0.9-0.8-1.3-1.9-1.3-3.1
	c0-1.3-0.1-2.7-0.6-3.9c-0.8-2.2-2.1-3.9-4-5.2c-1.9-1.3-4-1.9-6.3-1.9c-0.9,0-1.7-0.1-2.5-0.6c-1.2-0.8-1.9-1.9-1.9-3.4
	c0-1,0.4-1.8,1-2.5c0.5-0.6,1.2-1.1,2.1-1.2c1.7-0.3,3.4-0.1,5.1,0.2c2.4,0.5,4.7,1.4,6.8,2.8c2,1.4,3.7,3,5,5
	C458,624.7,459,628.4,458.8,632.5z M471.3,637.9c-1.4,0.6-2.9,0.5-4.2-0.4c-1.4-0.9-2-2.3-2.1-3.9c-0.1-1.8-0.2-3.6-0.6-5.3
	c-0.5-2.5-1.4-4.9-2.6-7.2c-1.7-3.2-4-5.9-6.7-8.2c-2.1-1.7-4.4-3.1-6.9-4.1c-2.2-0.9-4.4-1.5-6.7-1.8c-1.3-0.2-2.6-0.1-3.9-0.3
	c-2.7-0.4-4.5-2.9-3.8-5.6c0.5-2,2.2-3.4,4.6-3.3c4.6,0.1,9.1,1,13.4,2.7c4.4,1.8,8.3,4.4,11.5,7.6c2.8,2.8,5,5.7,6.7,8.9
	c2,3.9,3.3,7.9,3.8,12.3c0.2,1.4,0.3,2.8,0.3,4.2C474.1,635.6,473.2,637.1,471.3,637.9z"/>
<g id="XMLID_554_">
	<path id="XMLID_2151_" d="M379.3,608.1c2.8,2.8,5,5.7,6.7,8.9c2,3.9,3.3,7.9,3.8,12.3c0.2,1.4,0.3,2.8,0.3,4.2c0,2-0.9,3.5-2.8,4.3
		c-1.4,0.6-2.9,0.5-4.2-0.4c-1.4-0.9-2-2.3-2.1-3.9c-0.1-1.8-0.2-3.6-0.6-5.3c-0.5-2.5-1.4-4.9-2.6-7.2c-1.7-3.2-4-5.9-6.7-8.2
		c-2.1-1.7-4.4-3.1-6.9-4.1c-2.2-0.9-4.4-1.5-6.7-1.8c-1.3-0.2-2.6-0.1-3.9-0.3c-2.7-0.4-4.5-2.9-3.8-5.6c0.5-2,2.2-3.4,4.6-3.3
		c4.6,0.1,9.1,1,13.4,2.7C372.2,602.3,376.2,604.9,379.3,608.1z"/>
	<path id="XMLID_2150_" d="M373.6,635c-1.5,1.5-3.8,1.4-5.4,0.1c-0.9-0.8-1.3-1.9-1.3-3.1c0-1.3-0.1-2.7-0.6-3.9
		c-0.8-2.2-2.1-3.9-4-5.2c-1.9-1.3-4-1.9-6.3-1.9c-0.9,0-1.7-0.1-2.5-0.6c-1.2-0.8-1.9-1.9-1.9-3.4c0-1,0.4-1.8,1-2.5
		c0.5-0.6,1.2-1.1,2.1-1.2c1.7-0.3,3.4-0.1,5.1,0.2c2.4,0.5,4.7,1.4,6.8,2.8c2,1.4,3.7,3,5,5c2.3,3.4,3.3,7.2,3.1,11.3
		C374.7,633.4,374.2,634.5,373.6,635z"/>
	<path id="XMLID_2149_" d="M348.3,639.4c-1.8-1.9-2.7-4.4-2.3-7.3c0.6-3.8,3.9-6.5,7.9-6.3c4.5,0.2,8.2,3.9,8.4,8.4
		c0.2,5.2-4.4,9-9.6,7.7C351.1,641.6,349.7,640.8,348.3,639.4z"/>
</g>
<path id="XMLID_559_" d="M471.5,102h-38.9c-6.9,0-12.5,5.6-12.5,12.5v2.9c0,6.9,5.6,12.5,12.5,12.5h38.9c6.9,0,12.5-5.6,12.5-12.5
	v-2.9C484,107.6,478.4,102,471.5,102z M469.6,127.3c-6.3,0-11.3-5.1-11.3-11.3s5.1-11.3,11.3-11.3s11.3,5.1,11.3,11.3
	S475.8,127.3,469.6,127.3z"/>
<ellipse id="XMLID_562_" cx="351.2" cy="116" rx="11.4" ry="11.3"/>
<g id="XMLID_566_">
	<polygon id="XMLID_567_" points="568,600.5 568,600.5 568,600.5 	"/>
	<polygon id="XMLID_568_" points="565.8,600.5 506.2,600.5 536,618.6 	"/>
	<polygon id="XMLID_569_" points="566.2,639.5 541,618.3 536,621.4 531,618.3 505.8,639.5 	"/>
	<polygon id="XMLID_571_" points="568,637.9 568,601.9 543.2,617 	"/>
	<polygon id="XMLID_572_" points="504,600.5 504,600.5 504,600.5 	"/>
	<polygon id="XMLID_573_" points="504,639.5 504,639.5 504,639.5 	"/>
	<polygon id="XMLID_574_" points="568,639.5 568,639.5 568,639.5 	"/>
	<polygon id="XMLID_575_" points="528.8,617 504,601.9 504,637.9 	"/>
</g>
<path id="XMLID_576_" d="M619.7,588c-17.7,0.2-31.9,14.6-31.7,32.3c0.2,17.7,14.6,31.9,32.3,31.7c17.7-0.2,31.9-14.6,31.7-32.3
	C651.8,602.1,637.4,587.8,619.7,588z M638.8,607.7L620,619.1l-18.8-11.4H638.8z M599.8,607.7L599.8,607.7L599.8,607.7L599.8,607.7z
	 M599.8,608.6l15.6,9.5l-15.6,13.2V608.6z M599.8,632.3L599.8,632.3L599.8,632.3L599.8,632.3z M601,632.3l15.8-13.4l3.2,1.9l3.2-1.9
	l15.8,13.4H601z M640.2,632.3L640.2,632.3L640.2,632.3L640.2,632.3z M640.2,631.3l-15.6-13.2l15.6-9.5V631.3z M640.2,607.7
	L640.2,607.7L640.2,607.7L640.2,607.7z"/>
<g id="XMLID_586_">
	<polygon id="XMLID_587_" points="724.2,607.7 724.2,607.7 724.2,607.7 	"/>
	<polygon id="XMLID_588_" points="722.8,607.7 685.2,607.7 704,619.1 	"/>
	<polygon id="XMLID_589_" points="723,632.3 707.2,618.9 704,620.9 700.8,618.9 685,632.3 	"/>
	<polygon id="XMLID_590_" points="724.2,631.3 724.2,608.6 708.5,618.1 	"/>
	<polygon id="XMLID_591_" points="683.8,607.7 683.8,607.7 683.8,607.7 	"/>
	<polygon id="XMLID_592_" points="683.8,632.3 683.8,632.3 683.8,632.3 	"/>
	<polygon id="XMLID_593_" points="724.2,632.3 724.2,632.3 724.2,632.3 	"/>
	<polygon id="XMLID_594_" points="699.5,618.1 683.8,608.6 683.8,631.3 	"/>
</g>
<g id="XMLID_595_">
	<path id="XMLID_832_" d="M620,8.9c0.4,4.4,0.6,8.9,0.7,13.3c0,2.2,0.1,4.4,0,6.7c0,2.2,0,4.4-0.1,6.7l-0.3-0.7
		c1.1,1.1,2.2,2.3,3.4,3.4c1.1,1.1,2.2,2.3,3.3,3.5c1.1,1.2,2.2,2.4,3.2,3.6c1.1,1.2,2.1,2.4,3.1,3.7c-1.3-1-2.5-2-3.7-3.1
		c-1.2-1-2.4-2.1-3.6-3.2c-1.2-1.1-2.4-2.1-3.5-3.2c-1.2-1.1-2.3-2.2-3.5-3.3l-0.3-0.3l0-0.4c0-2.2,0-4.4,0.1-6.7
		c0-2.2,0.1-4.4,0.2-6.6C619.2,17.7,619.5,13.3,620,8.9z"/>
</g>
<g id="XMLID_596_">
	<path id="XMLID_597_" d="M349.4,226.1v-52.2c1-0.5,1.7-1.5,1.7-2.8c0-1.7-1.4-3.1-3.1-3.1s-3.1,1.4-3.1,3.1c0,1.2,0.7,2.3,1.7,2.8
		v52.2c-1,0.5-1.7,1.5-1.7,2.8c0,1.7,1.4,3.1,3.1,3.1s3.1-1.4,3.1-3.1C351.1,227.7,350.4,226.6,349.4,226.1z"/>
	<g id="XMLID_1188_">
		<path id="XMLID_1228_" d="M351.2,199c0.2-7.6-0.1-14.7,0-22.3c0-0.8,0.1-1.7,0.5-2.5c0.7-1.1,2.2-1.3,3.5-1.4
			c4.7-0.3,9.4,0.3,13.9,1.6c3.9,1.1,7.7,2.8,11.8,3.3c4.1,0.5,8.6-0.6,10.9-4c-0.6,4.5-1,9.1-1.3,13.6c-0.3,4.6-0.3,9.3,1.6,13.5
			c-0.8-0.5-1.9-0.5-2.8-0.2s-1.7,0.8-2.6,1.2c-3.3,1.5-7.2,1.3-10.8,0.3c-3.5-1-6.8-2.6-10.2-4c-3.4-1.4-7-2.4-10.7-2.1
			c-0.9,0.1-1.8,0.2-2.5,0.7S351.1,198.1,351.2,199"/>
	</g>
</g>
<g id="XMLID_875_">
	<path id="XMLID_1196_" d="M432.9,226.1v-52.2c1-0.5,1.7-1.5,1.7-2.8c0-1.7-1.4-3.1-3.1-3.1s-3.1,1.4-3.1,3.1c0,1.2,0.7,2.3,1.7,2.8
		v52.2c-1,0.5-1.7,1.5-1.7,2.8c0,1.7,1.4,3.1,3.1,3.1s3.1-1.4,3.1-3.1C434.6,227.7,433.9,226.6,432.9,226.1z"/>
	<path id="XMLID_876_" class="st2" d="M434.7,199c0.2-7.6-0.1-14.7,0-22.3c0-0.8,0.1-1.7,0.5-2.5c0.7-1.1,2.2-1.3,3.5-1.4
		c4.7-0.3,9.4,0.3,13.9,1.6c3.9,1.1,7.7,2.8,11.8,3.3c4.1,0.5,8.6-0.6,10.9-4c-0.6,4.5-1,9.1-1.3,13.6c-0.3,4.6-0.3,9.3,1.6,13.5
		c-0.8-0.5-1.9-0.5-2.8-0.2s-1.7,0.8-2.6,1.2c-3.3,1.5-7.2,1.3-10.8,0.3c-3.5-1-6.8-2.6-10.2-4c-3.4-1.4-7-2.4-10.7-2.1
		c-0.9,0.1-1.8,0.2-2.5,0.7C435.2,197.3,434.7,198.1,434.7,199"/>
</g>
<g id="XMLID_599_">
	<path id="XMLID_600_" d="M442.3,520.1c-1.6,3.9-2.5,7.7-3,11.3h26.5c-0.5-3.6-1.4-7.4-3-11.3H442.3z"/>
	<path id="XMLID_601_" d="M440.3,547.3h24.4c0.9-3.4,1.5-7.2,1.4-11.3H439C438.9,540.1,439.4,543.9,440.3,547.3z"/>
	<path id="XMLID_602_" d="M451.8,504.1c-3.1,3.9-5.5,7.7-7.4,11.3h16.3c-1.9-3.6-4.3-7.4-7.3-11.3c-0.5,0-1,0-1.4,0
		C451.9,504.1,451.9,504.1,451.8,504.1z"/>
	<path id="XMLID_603_" d="M458.3,504.7c2.6,3.7,4.7,7.2,6.3,10.7h11.7C471.8,510,465.5,506.2,458.3,504.7z"/>
	<path id="XMLID_604_" d="M468.2,547.3h13.6c1.3-3.5,2.1-7.3,2.1-11.3h-14.3C469.6,540,469.1,543.8,468.2,547.3z"/>
	<path id="XMLID_605_" d="M469.3,531.4h14.3c-0.6-4.1-2-7.9-3.9-11.3h-13C468,524,468.9,527.8,469.3,531.4z"/>
	<path id="XMLID_606_" d="M447,567.5c-2.7-3.4-6.3-8.7-8.7-15.6h-13.9C429.1,560.1,437.3,566,447,567.5z"/>
	<path id="XMLID_607_" d="M447,504.5c-7.7,1.2-14.5,5.2-19.4,10.9h12.8C442.2,511.9,444.3,508.2,447,504.5z"/>
	<path id="XMLID_608_" d="M466.8,551.9c-2.4,6.7-5.9,12-8.6,15.4c9.1-1.8,16.9-7.5,21.4-15.4H466.8z"/>
	<path id="XMLID_609_" d="M453,567.9c2.1-2.2,7-7.8,10.2-15.9h-21.4c3.1,8.1,8,13.7,10.2,16c0,0,0,0,0,0
		C452.3,567.9,452.7,567.9,453,567.9z"/>
	<path id="XMLID_610_" d="M420.4,531.4h15.4c0.4-3.6,1.3-7.4,2.7-11.3h-14.2C422.4,523.5,421,527.3,420.4,531.4z"/>
	<path id="XMLID_611_" d="M436.9,547.3c-0.9-3.5-1.4-7.3-1.3-11.3h-15.5c0,4,0.7,7.8,2.1,11.3H436.9z"/>
</g>
<g id="XMLID_612_">
	<path id="XMLID_613_" d="M763.5,593.8c4.4,5.5,8.7,10.9,12.9,16.1c-0.3,0.7-0.7,1.2-0.9,1.8c-0.3,1.1,0.1,2.1,0.5,3.1
		c1,2.3,2.4,4.3,3.8,6.2c3.2,4.5,6.8,8.6,11,12.2c0.4,0.4,0.9,0.7,1.4,1c1.2,0.8,2.4,1.1,3.7,0.1c4.2,5.3,8.4,10.6,12.6,15.9
		c-0.7,0.6-1.5,0.9-2.3,1.1c-2.9,0.7-5.8,0.4-8.7-0.4c-4.6-1.3-8.6-3.8-12.3-6.7c-5.7-4.5-10.3-10-14.5-15.8
		c-2.7-3.8-5.1-7.8-7-12.1c-1.9-4.3-3.2-8.8-3-13.6c0.1-2.8,0.6-5.5,2.2-8c0.1-0.2,0.3-0.4,0.5-0.7
		C763.3,594.1,763.4,594,763.5,593.8"/>
	<path id="XMLID_614_" d="M778.4,608.5c-4.3-5.4-8.6-10.8-13-16.3c0.1-0.1,0.3-0.1,0.4-0.2c1.3-1.1,2.6-2.1,3.9-3.2
		c1.3-1,2.5-0.9,3.6,0.4c3.2,4,6.5,8,9.7,12.1c1.2,1.5,1,2.7-0.4,3.9C781.2,606.3,779.8,607.4,778.4,608.5"/>
	<path id="XMLID_615_" d="M810.1,648.7c-4.2-5.3-8.4-10.6-12.7-15.9c0.6-0.5,1.3-1,1.9-1.5c0.8-0.6,1.6-1.3,2.4-1.9
		c1.3-1.1,2.6-0.9,3.7,0.4c3.1,3.9,6.3,7.9,9.4,11.8c1.1,1.4,1,2.6-0.4,3.7C813,646.5,811.6,647.5,810.1,648.7"/>
</g>
<path id="XMLID_626_" d="M116,672.1c-17.6,0-31.9,14.3-31.9,31.9s14.3,31.9,31.9,31.9c17.6,0,31.9-14.3,31.9-31.9
	S133.6,672.1,116,672.1z M101.4,685.6c0.9-0.7,1.7-1.4,2.6-2.1c0.8-0.7,1.7-0.6,2.3,0.3c2.1,2.6,4.3,5.3,6.4,7.9
	c0.8,1,0.7,1.8-0.3,2.6c-0.9,0.7-1.8,1.4-2.7,2.2c-2.9-3.6-5.7-7.1-8.6-10.7C101.2,685.7,101.3,685.7,101.4,685.6z M127.9,724.6
	c-1.9,0.5-3.8,0.3-5.7-0.3c-3-0.9-5.7-2.5-8.1-4.4c-3.7-3-6.8-6.6-9.5-10.4c-1.8-2.5-3.4-5.1-4.6-7.9c-1.2-2.8-2.1-5.8-2-8.9
	c0-1.9,0.4-3.6,1.4-5.2c0.1-0.1,0.2-0.3,0.3-0.4c0.1-0.1,0.1-0.1,0.2-0.3c2.9,3.6,5.7,7.1,8.5,10.6c-0.2,0.4-0.5,0.8-0.6,1.2
	c-0.2,0.7,0.1,1.4,0.3,2.1c0.7,1.5,1.6,2.8,2.5,4.1c2.1,2.9,4.5,5.6,7.2,8c0.3,0.2,0.6,0.5,0.9,0.7c0.8,0.5,1.6,0.7,2.4,0
	c2.8,3.5,5.5,6.9,8.3,10.4C128.9,724.3,128.4,724.5,127.9,724.6z M133.3,720.6c-0.9,0.7-1.8,1.5-2.8,2.2c-2.8-3.5-5.5-7-8.3-10.5
	c0.4-0.3,0.8-0.7,1.2-1c0.5-0.4,1-0.8,1.6-1.2c0.9-0.7,1.7-0.6,2.4,0.3c2.1,2.6,4.1,5.2,6.2,7.8
	C134.3,719.1,134.2,719.9,133.3,720.6z"/>
<g id="XMLID_631_">
	<path id="XMLID_632_" d="M196.7,691.7c-2.1-2.6-4.3-5.3-6.4-7.9c-0.7-0.8-1.5-0.9-2.3-0.3c-0.9,0.7-1.7,1.4-2.6,2.1
		c-0.1,0.1-0.2,0.1-0.3,0.2c2.9,3.6,5.7,7.1,8.6,10.7c0.9-0.7,1.8-1.5,2.7-2.2C197.4,693.5,197.5,692.7,196.7,691.7z"/>
	<path id="XMLID_633_" d="M214.5,722.9c1-0.8,1.9-1.5,2.8-2.2c0.9-0.7,1-1.5,0.3-2.5c-2-2.6-4.1-5.2-6.2-7.8c-0.7-0.9-1.5-1-2.4-0.3
		c-0.5,0.4-1,0.8-1.6,1.2c-0.4,0.3-0.8,0.6-1.2,1C209,715.9,211.7,719.4,214.5,722.9z"/>
	<path id="XMLID_634_" d="M181.9,692.7c-0.1,3.1,0.8,6.1,2,8.9c1.2,2.8,2.8,5.4,4.6,7.9c2.8,3.8,5.8,7.4,9.5,10.4
		c2.4,2,5.1,3.6,8.1,4.4c1.9,0.5,3.8,0.7,5.7,0.3c0.5-0.1,1.1-0.3,1.5-0.7c-2.8-3.5-5.5-7-8.3-10.4c-0.8,0.6-1.6,0.5-2.4,0
		c-0.3-0.2-0.6-0.4-0.9-0.7c-2.7-2.4-5.1-5.1-7.2-8c-0.9-1.3-1.9-2.6-2.5-4.1c-0.3-0.7-0.6-1.3-0.3-2.1c0.1-0.4,0.4-0.8,0.6-1.2
		c-2.8-3.5-5.6-7-8.5-10.6c-0.1,0.1-0.2,0.2-0.2,0.3c-0.1,0.1-0.2,0.3-0.3,0.4C182.3,689.1,182,690.8,181.9,692.7z"/>
</g>
<path id="XMLID_635_" d="M58.1,672H5.9c-3.2,0-5.9,2.6-5.9,5.9v52.2c0,3.2,2.6,5.9,5.9,5.9h52.2c3.2,0,5.9-2.6,5.9-5.9v-52.2
	C64,674.6,61.4,672,58.1,672z M17.4,685.6c0.9-0.7,1.7-1.4,2.6-2.1c0.8-0.7,1.7-0.6,2.3,0.3c2.1,2.6,4.3,5.3,6.4,7.9
	c0.8,1,0.7,1.8-0.3,2.6c-0.9,0.7-1.8,1.4-2.7,2.2c-2.9-3.6-5.7-7.1-8.6-10.7C17.2,685.7,17.3,685.7,17.4,685.6z M43.9,724.6
	c-1.9,0.5-3.8,0.3-5.7-0.3c-3-0.9-5.7-2.5-8.1-4.4c-3.7-3-6.8-6.6-9.5-10.4c-1.8-2.5-3.4-5.1-4.6-7.9c-1.2-2.8-2.1-5.8-2-8.9
	c0-1.9,0.4-3.6,1.4-5.2c0.1-0.1,0.2-0.3,0.3-0.4c0.1-0.1,0.1-0.1,0.2-0.3c2.9,3.6,5.7,7.1,8.5,10.6c-0.2,0.4-0.5,0.8-0.6,1.2
	c-0.2,0.7,0.1,1.4,0.3,2.1c0.7,1.5,1.6,2.8,2.5,4.1c2.1,2.9,4.5,5.6,7.2,8c0.3,0.2,0.6,0.5,0.9,0.7c0.8,0.5,1.6,0.7,2.4,0
	c2.8,3.5,5.5,6.9,8.3,10.4C44.9,724.3,44.4,724.5,43.9,724.6z M49.3,720.6c-0.9,0.7-1.8,1.5-2.8,2.2c-2.8-3.5-5.5-7-8.3-10.5
	c0.4-0.3,0.8-0.7,1.2-1c0.5-0.4,1-0.8,1.6-1.2c0.9-0.7,1.7-0.6,2.4,0.3c2.1,2.6,4.1,5.2,6.2,7.8C50.3,719.1,50.2,719.9,49.3,720.6z"
	/>
<g id="XMLID_640_">
	<path id="XMLID_968_" d="M476.3,9.5h-5.5v1.3c0,1.9-1.5,3.4-3.4,3.4h-2.3c-1.9,0-3.4-1.5-3.4-3.4V9.5h-20.5v1.3
		c0,1.9-1.5,3.4-3.4,3.4h-2.3c-1.9,0-3.4-1.5-3.4-3.4V9.5h-4.5c-3.3,0-6,2.7-6,6V58c0,3.3,2.7,6,6,6h48.6c3.3,0,6-2.7,6-6V15.6
		C482.3,12.2,479.6,9.5,476.3,9.5z"/>
	<path id="XMLID_641_" class="st0" d="M477.3,60.5h-50.7c-1.1,0-2-0.9-2-2V15c0-1.1,0.9-2,2-2h50.7c1.1,0,2,0.9,2,2v43.6
		C479.3,59.6,478.4,60.5,477.3,60.5z"/>
	<path id="XMLID_642_" d="M435.7,0c-1.2,0-2.2,1-2.2,2.2v8c0,1.2,1,2.2,2.2,2.2h2.1c1.2,0,2.2-1,2.2-2.2v-8c0-1.2-1-2.2-2.2-2.2
		H435.7z"/>
	<path id="XMLID_644_" d="M465.2,0c-1.2,0-2.2,1-2.2,2.2v8c0,1.2,1,2.2,2.2,2.2h2.1c1.2,0,2.2-1,2.2-2.2v-8c0-1.2-1-2.2-2.2-2.2
		H465.2z"/>
	<g id="XMLID_965_">
		<g id="XMLID_646_">
			<path id="XMLID_871_" d="M437.3,24.8c2,0,3.6,1.6,3.6,3.6v0.1c0,2-1.6,3.6-3.6,3.6s-3.6-1.6-3.6-3.6v-0.1
				C433.7,26.4,435.3,24.8,437.3,24.8 M437.3,23.8c-2.5,0-4.6,2.1-4.6,4.6v0.1c0,2.5,2.1,4.6,4.6,4.6c2.5,0,4.6-2.1,4.6-4.6v-0.1
				C441.9,25.8,439.8,23.8,437.3,23.8L437.3,23.8z"/>
		</g>
		<g id="XMLID_647_">
			<path id="XMLID_867_" d="M452,24.8c2,0,3.6,1.6,3.6,3.6v0.1c0,2-1.6,3.6-3.6,3.6s-3.6-1.6-3.6-3.6v-0.1
				C448.4,26.4,450,24.8,452,24.8 M452,23.8L452,23.8c-2.5,0-4.6,2.1-4.6,4.6v0.1c0,2.5,2.1,4.6,4.6,4.6l0,0c2.5,0,4.6-2.1,4.6-4.6
				v-0.1C456.6,25.8,454.5,23.8,452,23.8L452,23.8z"/>
		</g>
		<g id="XMLID_648_">
			<path id="XMLID_863_" d="M466.7,24.8c2,0,3.6,1.6,3.6,3.6v0.1c0,2-1.6,3.6-3.6,3.6s-3.6-1.6-3.6-3.6v-0.1
				C463.1,26.4,464.8,24.8,466.7,24.8 M466.7,23.8L466.7,23.8c-2.5,0-4.6,2.1-4.6,4.6v0.1c0,2.5,2.1,4.6,4.6,4.6l0,0
				c2.5,0,4.6-2.1,4.6-4.6v-0.1C471.3,25.8,469.3,23.8,466.7,23.8L466.7,23.8z"/>
		</g>
		<g id="XMLID_649_">
			<path id="XMLID_859_" d="M437.3,41.2c2,0,3.6,1.6,3.6,3.6v0.1c0,2-1.6,3.6-3.6,3.6s-3.6-1.6-3.6-3.6v-0.1
				C433.7,42.8,435.3,41.2,437.3,41.2 M437.3,40.2c-2.5,0-4.6,2.1-4.6,4.6v0.1c0,2.5,2.1,4.6,4.6,4.6c2.5,0,4.6-2.1,4.6-4.6v-0.1
				C441.9,42.3,439.8,40.2,437.3,40.2L437.3,40.2z"/>
		</g>
		<g id="XMLID_650_">
			<path id="XMLID_855_" d="M452,41.2c2,0,3.6,1.6,3.6,3.6v0.1c0,2-1.6,3.6-3.6,3.6s-3.6-1.6-3.6-3.6v-0.1
				C448.4,42.8,450,41.2,452,41.2 M452,40.2L452,40.2c-2.5,0-4.6,2.1-4.6,4.6v0.1c0,2.5,2.1,4.6,4.6,4.6l0,0c2.5,0,4.6-2.1,4.6-4.6
				v-0.1C456.6,42.3,454.5,40.2,452,40.2L452,40.2z"/>
		</g>
		<g id="XMLID_651_">
			<path id="XMLID_851_" d="M466.7,41.2c2,0,3.6,1.6,3.6,3.6v0.1c0,2-1.6,3.6-3.6,3.6s-3.6-1.6-3.6-3.6v-0.1
				C463.1,42.8,464.8,41.2,466.7,41.2 M466.7,40.2L466.7,40.2c-2.5,0-4.6,2.1-4.6,4.6v0.1c0,2.5,2.1,4.6,4.6,4.6l0,0
				c2.5,0,4.6-2.1,4.6-4.6v-0.1C471.3,42.3,469.3,40.2,466.7,40.2L466.7,40.2z"/>
		</g>
	</g>
</g>
<g id="XMLID_652_">
	<g id="XMLID_653_">
		<path id="XMLID_1574_" d="M399.9,368.3c0,2-0.2,4.3-0.6,6.6c-0.9,5.6-2.9,10.7-5.9,15.3c-0.8,1.3-1.7,2.5-2.7,3.7
			c-0.6,0.8-1.4,1.2-2.4,1.2c-1-0.1-1.8-0.6-2.3-1.6c-0.6-1-0.6-2.1-0.2-3.1c0.2-0.4,0.4-0.8,0.7-1.2c1.3-1.6,2.5-3.3,3.5-5.2
			c1.1-2.1,2-4.3,2.7-6.7c1.1-4,1.5-8,1.2-12.1c-0.2-3-0.8-5.8-1.8-8.6c-1.2-3.5-3-6.7-5.3-9.5c-0.3-0.4-0.6-0.8-0.9-1.3
			c-0.4-0.9-0.4-1.8-0.1-2.7c0.4-1.1,1.2-1.8,2.2-2c1.1-0.2,2,0.3,2.8,1.2c2.7,3.2,4.8,6.9,6.4,11c0.9,2.4,1.6,5,2.1,7.6
			c0.3,1.6,0.4,3.1,0.5,4.7C399.9,366.3,399.9,367.1,399.9,368.3z"/>
		<path id="XMLID_1573_" d="M390.1,367.8c0,2.9-0.3,5.5-1,8.1c-0.9,3-2.1,5.8-3.9,8.4c-0.6,0.8-1.2,1.6-1.8,2.4
			c-0.9,1.1-2,1.3-3.3,0.8c-0.9-0.4-1.5-1.2-1.7-2.4c-0.2-1.2,0.1-2.2,0.8-3.1c0.8-1,1.5-2,2.2-3.1c0.9-1.6,1.6-3.3,2.1-5.1
			c0.7-2.5,0.9-5.1,0.7-7.8c-0.2-2-0.6-3.9-1.3-5.7c-0.6-1.6-1.4-3.1-2.3-4.4c-0.5-0.8-1.2-1.4-1.7-2.2c-1.1-1.6-0.7-3.9,0.8-4.9
			c1.2-0.8,2.6-0.6,3.7,0.7c2.1,2.5,3.8,5.3,4.9,8.4C389.5,361.1,390.2,364.5,390.1,367.8z"/>
		<path id="XMLID_1572_" d="M373.8,380.3c-1.6,0-2.8-1.4-2.9-3.2c0-1,0.3-1.9,1-2.6c0.7-0.8,1.3-1.7,1.7-2.7c0.7-1.7,1-3.6,0.6-5.4
			c-0.3-1.9-1.1-3.5-2.3-4.8c-0.5-0.5-0.8-1.1-1-1.8c-0.2-1.2,0-2.3,0.8-3.1c0.5-0.6,1.2-0.9,1.9-0.9c0.6,0,1.2,0.1,1.7,0.5
			c1,0.9,1.8,2,2.6,3.2c1,1.7,1.7,3.6,2.1,5.7c0.3,2,0.3,4,0,6c-0.6,3.4-2,6.2-4.3,8.5C375.3,380,374.5,380.3,373.8,380.3z"/>
	</g>
	<path id="XMLID_654_" d="M367.5,344.2c-0.2-0.1-0.4-0.2-0.6-0.2c-0.3,0-0.5,0.1-0.8,0.2L349,356.2l-9.8,0.1c-1.4,0-2.6,0.9-3.1,2.1
		v18c0.4,1.4,1.7,2.4,3.2,2.4l9.6-0.1l17.2,12c0.2,0.2,0.5,0.2,0.8,0.2c0.2,0,0.4-0.1,0.6-0.2c0.4-0.2,0.7-0.7,0.7-1.2v-44.3
		C368.2,344.9,368,344.4,367.5,344.2z"/>
</g>
<g id="XMLID_655_">
	<g id="XMLID_656_">
		<path id="XMLID_657_" d="M641.2,385.4c-2.2-0.1-3.8-1.9-3.9-4.3c-0.1-1.4,0.4-2.6,1.3-3.6c1-1.1,1.8-2.3,2.4-3.6
			c1-2.4,1.3-4.8,0.9-7.4c-0.4-2.6-1.5-4.8-3.1-6.6c-0.6-0.7-1.1-1.5-1.3-2.5c-0.3-1.7,0-3.1,1.1-4.3c0.7-0.8,1.6-1.2,2.5-1.2
			c0.8-0.1,1.6,0.2,2.3,0.7c1.4,1.2,2.5,2.7,3.5,4.3c1.4,2.3,2.3,4.9,2.8,7.7c0.5,2.7,0.5,5.4,0,8.1c-0.8,4.6-2.8,8.5-5.9,11.6
			C643.2,385.1,642.1,385.5,641.2,385.4z"/>
	</g>
	<path id="XMLID_658_" d="M632.7,336.3c-0.3-0.1-0.6-0.2-0.8-0.2c-0.4,0-0.7,0.1-1,0.3l-23.4,16.2l-13.3,0.1c-1.9,0-3.6,1.2-4.2,2.9
		v24.5c0.6,1.9,2.3,3.3,4.4,3.3l13.1-0.1l23.4,16.3c0.3,0.2,0.7,0.3,1,0.3c0.3,0,0.6-0.1,0.8-0.2c0.6-0.3,1-0.9,1-1.6v-60.2
		C633.6,337.2,633.3,336.6,632.7,336.3z"/>
</g>
<g id="XMLID_659_">
	<g id="XMLID_660_">
		<path id="XMLID_661_" class="st0" d="M717,377.5c-1.2,0-2.1-1.1-2.1-2.3c0-0.8,0.2-1.4,0.7-1.9c0.5-0.6,1-1.2,1.3-2
			c0.5-1.3,0.7-2.6,0.5-4c-0.2-1.4-0.8-2.6-1.7-3.6c-0.4-0.4-0.6-0.8-0.7-1.4c-0.2-0.9,0-1.7,0.6-2.3c0.4-0.4,0.9-0.6,1.4-0.7
			c0.5,0,0.9,0.1,1.3,0.4c0.8,0.6,1.4,1.5,1.9,2.3c0.8,1.3,1.3,2.7,1.5,4.2c0.3,1.5,0.3,2.9,0,4.4c-0.4,2.5-1.5,4.6-3.2,6.3
			C718.1,377.3,717.5,377.5,717,377.5z"/>
	</g>
	<path id="XMLID_662_" class="st0" d="M709.5,350.7c-0.1-0.1-0.3-0.1-0.5-0.1c-0.2,0-0.4,0.1-0.6,0.2l-12.7,8.8l-7.2,0
		c-1,0-1.9,0.7-2.3,1.6v13.3c0.3,1,1.3,1.8,2.4,1.8l7.1,0l12.8,8.9c0.2,0.1,0.4,0.2,0.6,0.2c0.2,0,0.3,0,0.5-0.1
		c0.3-0.2,0.5-0.5,0.5-0.9v-32.8C710,351.2,709.8,350.9,709.5,350.7z"/>
</g>
<g id="XMLID_668_">
	<g id="XMLID_670_">
		<path id="XMLID_671_" class="st0" d="M801,377.5c-1.2,0-2.1-1.1-2.1-2.3c0-0.8,0.2-1.4,0.7-1.9c0.5-0.6,1-1.2,1.3-2
			c0.5-1.3,0.7-2.6,0.5-4c-0.2-1.4-0.8-2.6-1.7-3.6c-0.4-0.4-0.6-0.8-0.7-1.4c-0.2-0.9,0-1.7,0.6-2.3c0.4-0.4,0.9-0.6,1.4-0.7
			c0.5,0,0.9,0.1,1.3,0.4c0.8,0.6,1.4,1.5,1.9,2.3c0.8,1.3,1.3,2.7,1.5,4.2c0.3,1.5,0.3,2.9,0,4.4c-0.4,2.5-1.5,4.6-3.2,6.3
			C802.1,377.3,801.5,377.5,801,377.5z"/>
	</g>
	<path id="XMLID_669_" class="st0" d="M793.5,350.7c-0.1-0.1-0.3-0.1-0.5-0.1c-0.2,0-0.4,0.1-0.6,0.2l-12.7,8.8l-7.2,0
		c-1,0-1.9,0.7-2.3,1.6v13.3c0.3,1,1.3,1.8,2.4,1.8l7.1,0l12.8,8.9c0.2,0.1,0.4,0.2,0.6,0.2c0.2,0,0.3,0,0.5-0.1
		c0.3-0.2,0.5-0.5,0.5-0.9v-32.8C794,351.2,793.8,350.9,793.5,350.7z"/>
</g>
<g id="XMLID_663_">
	<path id="XMLID_664_" d="M37,424.5c-0.2-0.1-0.5-0.2-0.7-0.2c-0.3,0-0.6,0.1-0.9,0.3l-20.3,14.1l-11.5,0.1c-1.7,0-3.1,1.1-3.7,2.5
		v21.2c0.5,1.7,2,2.9,3.8,2.9l11.3-0.1l20.3,14.1c0.3,0.2,0.6,0.3,0.9,0.3c0.3,0,0.5-0.1,0.7-0.2c0.5-0.3,0.9-0.8,0.9-1.4v-52.2
		C37.8,425.3,37.5,424.8,37,424.5z"/>
	<path id="XMLID_665_" d="M57.7,452.6l5.6-5.6c1.1-1.1,1.1-2.9,0-4l-0.9-0.9c-1.1-1.1-2.9-1.1-4,0l-5.6,5.6l-5.6-5.6
		c-1.1-1.1-2.9-1.1-4,0l-0.9,0.9c-1.1,1.1-1.1,2.9,0,4l5.6,5.6l-5.6,5.6c-1.1,1.1-1.1,2.9,0,4l0.9,0.9c1.1,1.1,2.9,1.1,4,0l5.6-5.6
		l5.6,5.6c1.1,1.1,2.9,1.1,4,0l0.9-0.9c1.1-1.1,1.1-2.9,0-4L57.7,452.6z"/>
</g>
<g id="XMLID_738_">
	<path id="XMLID_740_" class="st0" d="M119.1,434.7c-0.1-0.1-0.3-0.1-0.5-0.1c-0.2,0-0.4,0.1-0.6,0.2l-12.7,8.8l-7.2,0
		c-1,0-1.9,0.7-2.3,1.6v13.3c0.3,1,1.3,1.8,2.4,1.8l7.1,0l12.7,8.9c0.2,0.1,0.4,0.2,0.6,0.2c0.2,0,0.3,0,0.5-0.1
		c0.3-0.2,0.5-0.5,0.5-0.9v-32.7C119.6,435.3,119.4,434.9,119.1,434.7z"/>
	<path id="XMLID_739_" class="st0" d="M132.1,452.4l3.5-3.5c0.7-0.7,0.7-1.8,0-2.5l-0.6-0.6c-0.7-0.7-1.8-0.7-2.5,0l-3.5,3.5
		l-3.5-3.5c-0.7-0.7-1.8-0.7-2.5,0l-0.6,0.6c-0.7,0.7-0.7,1.8,0,2.5l3.5,3.5l-3.5,3.5c-0.7,0.7-0.7,1.8,0,2.5l0.6,0.6
		c0.7,0.7,1.8,0.7,2.5,0l3.5-3.5l3.5,3.5c0.7,0.7,1.8,0.7,2.5,0l0.6-0.6c0.7-0.7,0.7-1.8,0-2.5L132.1,452.4z"/>
</g>
<g id="XMLID_924_">
	<path id="XMLID_926_" class="st0" d="M203.1,434.7c-0.1-0.1-0.3-0.1-0.5-0.1c-0.2,0-0.4,0.1-0.6,0.2l-12.7,8.8l-7.2,0
		c-1,0-1.9,0.7-2.3,1.6v13.3c0.3,1,1.3,1.8,2.4,1.8l7.1,0l12.7,8.9c0.2,0.1,0.4,0.2,0.6,0.2c0.2,0,0.3,0,0.5-0.1
		c0.3-0.2,0.5-0.5,0.5-0.9v-32.7C203.6,435.3,203.4,434.9,203.1,434.7z"/>
	<path id="XMLID_925_" class="st0" d="M216.1,452.4l3.5-3.5c0.7-0.7,0.7-1.8,0-2.5l-0.6-0.6c-0.7-0.7-1.8-0.7-2.5,0l-3.5,3.5
		l-3.5-3.5c-0.7-0.7-1.8-0.7-2.5,0l-0.6,0.6c-0.7,0.7-0.7,1.8,0,2.5l3.5,3.5l-3.5,3.5c-0.7,0.7-0.7,1.8,0,2.5l0.6,0.6
		c0.7,0.7,1.8,0.7,2.5,0l3.5-3.5l3.5,3.5c0.7,0.7,1.8,0.7,2.5,0l0.6-0.6c0.7-0.7,0.7-1.8,0-2.5L216.1,452.4z"/>
</g>
<path id="XMLID_666_" d="M562.1,336h-52.2c-3.2,0-5.9,2.6-5.9,5.9v52.2c0,3.2,2.6,5.9,5.9,5.9h52.2c3.2,0,5.9-2.6,5.9-5.9v-52.2
	C568,338.6,565.4,336,562.1,336z M536.2,384c0,0.4-0.2,0.7-0.5,0.9c-0.1,0.1-0.3,0.1-0.5,0.1c-0.2,0-0.4-0.1-0.6-0.2l-12.8-8.9
	l-7.1,0c-1.1,0-2.1-0.8-2.4-1.8v-13.3c0.4-0.9,1.3-1.6,2.3-1.6l7.2,0l12.7-8.8c0.2-0.1,0.4-0.2,0.6-0.2c0.2,0,0.3,0,0.5,0.1
	c0.3,0.2,0.5,0.5,0.5,0.9V384z M540.3,377.1c-1.2,0-2.1-1.1-2.1-2.3c0-0.8,0.2-1.4,0.7-1.9c0.5-0.6,1-1.2,1.3-2
	c0.5-1.3,0.7-2.6,0.5-4c-0.2-1.4-0.8-2.6-1.7-3.6c-0.4-0.4-0.6-0.8-0.7-1.4c-0.2-0.9,0-1.7,0.6-2.3c0.4-0.4,0.9-0.6,1.4-0.7
	c0.5,0,0.9,0.1,1.3,0.4c0.8,0.6,1.4,1.5,1.9,2.3c0.8,1.3,1.3,2.7,1.5,4.2c0.3,1.5,0.3,2.9,0,4.4c-0.4,2.5-1.5,4.6-3.2,6.3
	C541.4,376.9,540.8,377.1,540.3,377.1z M547.4,381.8c-0.7,0.8-1.5,1-2.4,0.6c-0.7-0.3-1.1-0.9-1.3-1.8c-0.2-0.9,0.1-1.6,0.6-2.3
	c0.6-0.7,1.1-1.5,1.6-2.3c0.7-1.2,1.2-2.4,1.6-3.7c0.5-1.9,0.7-3.8,0.5-5.8c-0.1-1.5-0.4-2.9-0.9-4.2c-0.4-1.2-1-2.3-1.7-3.3
	c-0.4-0.6-0.9-1.1-1.2-1.6c-0.8-1.2-0.6-2.9,0.6-3.6c0.9-0.6,1.9-0.4,2.7,0.5c1.6,1.8,2.8,3.9,3.6,6.2c0.9,2.4,1.3,4.9,1.3,7.4
	c0,2.2-0.2,4.1-0.8,6c-0.6,2.3-1.6,4.3-2.9,6.2C548.3,380.7,547.9,381.2,547.4,381.8z M559.2,373.1c-0.7,4.2-2.1,7.9-4.3,11.4
	c-0.6,1-1.3,1.9-2,2.7c-0.5,0.6-1.1,0.9-1.8,0.9c-0.7-0.1-1.3-0.4-1.7-1.2c-0.4-0.7-0.4-1.5-0.1-2.3c0.1-0.3,0.3-0.6,0.5-0.9
	c1-1.2,1.8-2.5,2.6-3.8c0.8-1.6,1.5-3.2,2-4.9c0.8-2.9,1.1-5.9,0.9-9c-0.2-2.2-0.6-4.3-1.3-6.4c-0.9-2.6-2.2-5-3.9-7.1
	c-0.2-0.3-0.5-0.6-0.6-0.9c-0.3-0.7-0.3-1.3-0.1-2c0.3-0.8,0.9-1.3,1.7-1.5c0.8-0.2,1.5,0.2,2.1,0.9c2,2.4,3.6,5.1,4.7,8.1
	c0.7,1.8,1.2,3.7,1.5,5.6c0.2,1.1,0.3,2.3,0.4,3.5c0,0.6,0.1,1.3,0.1,2.1C559.6,369.7,559.5,371.4,559.2,373.1z"/>
<path id="XMLID_676_" d="M452,336c-17.7,0-32,14.3-32,32c0,17.7,14.3,32,32,32s32-14.3,32-32C484,350.3,469.7,336,452,336z
	 M452.2,384c0,0.4-0.2,0.7-0.5,0.9c-0.1,0.1-0.3,0.1-0.5,0.1c-0.2,0-0.4-0.1-0.6-0.2l-12.8-8.9l-7.1,0c-1.1,0-2.1-0.8-2.4-1.8v-13.3
	c0.4-0.9,1.3-1.6,2.3-1.6l7.2,0l12.7-8.8c0.2-0.1,0.4-0.2,0.6-0.2c0.2,0,0.3,0,0.5,0.1c0.3,0.2,0.5,0.5,0.5,0.9V384z M456.3,377.1
	c-1.2,0-2.1-1.1-2.1-2.3c0-0.8,0.2-1.4,0.7-1.9c0.5-0.6,1-1.2,1.3-2c0.5-1.3,0.7-2.6,0.5-4c-0.2-1.4-0.8-2.6-1.7-3.6
	c-0.4-0.4-0.6-0.8-0.7-1.4c-0.2-0.9,0-1.7,0.6-2.3c0.4-0.4,0.9-0.6,1.4-0.7c0.5,0,0.9,0.1,1.3,0.4c0.8,0.6,1.4,1.5,1.9,2.3
	c0.8,1.3,1.3,2.7,1.5,4.2c0.3,1.5,0.3,2.9,0,4.4c-0.4,2.5-1.5,4.6-3.2,6.3C457.4,376.9,456.8,377.1,456.3,377.1z M463.4,381.8
	c-0.7,0.8-1.5,1-2.4,0.6c-0.7-0.3-1.1-0.9-1.3-1.8c-0.2-0.9,0.1-1.6,0.6-2.3c0.6-0.7,1.1-1.5,1.6-2.3c0.7-1.2,1.2-2.4,1.6-3.7
	c0.5-1.9,0.7-3.8,0.5-5.8c-0.1-1.5-0.4-2.9-0.9-4.2c-0.4-1.2-1-2.3-1.7-3.3c-0.4-0.6-0.9-1.1-1.2-1.6c-0.8-1.2-0.6-2.9,0.6-3.6
	c0.9-0.6,1.9-0.4,2.7,0.5c1.6,1.8,2.8,3.9,3.6,6.2c0.9,2.4,1.3,4.9,1.3,7.4c0,2.2-0.2,4.1-0.8,6c-0.6,2.3-1.6,4.3-2.9,6.2
	C464.3,380.7,463.9,381.2,463.4,381.8z M470.9,384.4c-0.6,1-1.3,1.9-2,2.7c-0.5,0.6-1.1,0.9-1.8,0.9c-0.7-0.1-1.3-0.4-1.7-1.2
	c-0.4-0.7-0.4-1.5-0.1-2.3c0.1-0.3,0.3-0.6,0.5-0.9c1-1.2,1.8-2.5,2.6-3.8c0.8-1.6,1.5-3.2,2-4.9c0.8-2.9,1.1-5.9,0.9-9
	c-0.2-2.2-0.6-4.3-1.3-6.4c-0.9-2.6-2.2-5-3.9-7.1c-0.2-0.3-0.5-0.6-0.6-0.9c-0.3-0.7-0.3-1.3-0.1-2c0.3-0.8,0.9-1.3,1.7-1.5
	c0.8-0.2,1.5,0.2,2.1,0.9c2,2.4,3.6,5.1,4.7,8.1c0.7,1.8,1.2,3.7,1.5,5.6c0.2,1.1,0.3,2.3,0.4,3.5c0,0.6,0.1,1.3,0.1,2.1
	c0,1.5-0.2,3.2-0.4,4.9C474.5,377.2,473.1,381,470.9,384.4z"/>
<g id="XMLID_682_">
	<g id="XMLID_683_">
		<path id="XMLID_684_" class="st3" d="M788,516.8c-9.1,0-16.5,7.4-16.5,16.5c0,4.3,1.7,8.2,4.4,11.1l3.5-5.1
			c-1.2-1.7-1.9-3.8-1.9-6c0-5.8,4.7-10.6,10.6-10.6s10.6,4.7,10.6,10.6c0,2.2-0.7,4.3-1.9,6l3.5,5.1c2.7-2.9,4.4-6.8,4.4-11.1
			C804.5,524.2,797.1,516.8,788,516.8z"/>
		<path id="XMLID_685_" class="st3" d="M813.8,533.3c0-14.2-11.6-25.8-25.8-25.8s-25.8,11.6-25.8,25.8c0,7.5,3.2,14.3,8.3,19
			l3.3-4.9c-3.6-3.6-5.8-8.6-5.8-14.1c0-11,9-20,20-20s20,9,20,20c0,5.5-2.2,10.5-5.8,14.1l3.3,4.9
			C810.6,547.5,813.8,540.7,813.8,533.3z"/>
		<path id="XMLID_686_" d="M780.9,533.3c0-3.9,3.2-7.1,7.1-7.1s7.1,3.2,7.1,7.1c0,1-0.2,2-0.6,2.8l2.2,3.2c1.2-1.7,1.9-3.8,1.9-6
			c0-5.8-4.7-10.6-10.6-10.6s-10.6,4.7-10.6,10.6c0,2.2,0.7,4.3,1.9,6l2.2-3.2C781.1,535.2,780.9,534.3,780.9,533.3z"/>
		<path id="XMLID_687_" d="M771.5,533.3c0-9.1,7.4-16.5,16.5-16.5s16.5,7.4,16.5,16.5c0,4.3-1.7,8.2-4.4,11.1l2,2.9
			c3.6-3.6,5.8-8.6,5.8-14.1c0-11-9-20-20-20s-20,9-20,20c0,5.5,2.2,10.5,5.8,14.1l2-2.9C773.2,541.4,771.5,537.5,771.5,533.3z"/>
		<path id="XMLID_688_" d="M762.2,533.3c0-14.2,11.6-25.8,25.8-25.8s25.8,11.6,25.8,25.8c0,7.5-3.2,14.3-8.3,19l2,2.9
			c6-5.4,9.8-13.2,9.8-21.9c0-16.1-13.1-29.3-29.3-29.3s-29.3,13.1-29.3,29.3c0,8.7,3.8,16.5,9.8,21.9l2-2.9
			C765.4,547.5,762.2,540.7,762.2,533.3z"/>
	</g>
	<path id="XMLID_2122_" d="M791.3,568v-31.5c0-1.8-1.5-3.3-3.3-3.3l0,0c-1.8,0-3.3,1.5-3.3,3.3V568H791.3z"/>
</g>
<path id="XMLID_698_" d="M117.2,504h-2.3c-7.2,0-13.2,5.6-14.3,13h5.2c1-4.5,4.7-7.9,9.1-7.9h2.3c5.2,0,9.4,4.7,9.4,10.4v5
	c1.8,0.9,3.6,2.1,5.1,3.5v-8.5C131.7,511,125.2,504,117.2,504z"/>
<circle id="XMLID_699_" cx="200" cy="284" r="32"/>
<g id="XMLID_703_">
	<path id="XMLID_704_" d="M550.3,30.3c2.4-2.8,4.2-5.9,5.6-9.3c1.1-2.8,1.9-5.6,2.4-8.5c0.5-3.1,0.8-6.2,0.7-9.4
		c0-0.6,0.1-0.8,0.7-0.7c0.7,0,1.4,0,2,0c0.1-0.1,0.1-0.1,0.1-0.2c0-0.7,0-1.4,0-2h-51.7c0,0.1,0,0.3,0,0.4c0,0.6,0,1.2,0,1.8h2.9
		c0,1.2,0,2.3,0,3.4c0.2,6.3,1.6,12.4,4.4,18.1c1.5,2.9,3.3,5.5,5.6,7.8c0,0,0,0,0,0.1c-0.7,0.8-1.4,1.5-2,2.3
		c-2.3,2.8-3.9,5.9-5.2,9.2c-1.4,3.8-2.3,7.6-2.6,11.6c-0.2,2.1-0.2,4.2-0.2,6.2c0,0.3-0.3,0.6-0.6,0.6c-0.7,0-1.4,0-2.1,0
		c0,0.2-0.1,0.3-0.1,0.4c0,0.6,0,1.1,0,1.7h51.7v-2.1c-0.8,0-1.5,0-2.3,0c-0.4,0-0.5-0.1-0.5-0.5c0-2.5,0.1-5-0.3-7.5
		c-0.4-2.7-1-5.5-1.8-8.2c-0.6-2.1-1.4-4.1-2.4-6c-1.5-2.9-3.3-5.5-5.7-7.8v0C549.4,31.3,549.9,30.8,550.3,30.3z M543.7,32.7
		c4.8,3.3,8,7.8,10.2,13c1.9,4.7,3,9.5,3.4,14.5c0,0.2,0,0.4,0,0.7c-14.2,0-28.3,0-42.5,0c0.2-3.4,0.7-6.6,1.6-9.9
		c1.3-4.9,3.4-9.4,6.6-13.5c1.5-1.9,3.4-3.5,5.3-4.9c0.4-0.3,0.8-0.6,1.3-1c-0.6-0.5-1.2-0.9-1.7-1.3c-3.5-2.5-6.1-5.7-8-9.4
		c-3-5.7-4.5-11.8-4.9-18.2c0-0.1,0-0.1,0-0.3c14.1,0,28.2,0,42.5,0c-0.2,1.4-0.3,2.8-0.5,4.2c-0.4,3.3-1.2,6.6-2.4,9.7
		c-1.8,4.6-4.2,8.9-7.9,12.2c-1.1,0.9-2.2,1.7-3.3,2.6c-0.2,0.1-0.3,0.3-0.6,0.5C543,32.1,543.3,32.4,543.7,32.7z"/>
	<g id="XMLID_707_">
		<path id="XMLID_847_" d="M536.4,35c2.1,0,5,1.9,6,2.7c2.8,2.5,6.1,7.3,7.5,10.8c0.9,2.4,1.6,5,1.9,7.6c0.1,0.4,0.1,0.8,0.1,1.3
			h-31.1c0.5-4.7,1.7-8.8,3.7-12.5c1.6-3,3.6-5.4,6.1-7.2l0.1-0.1l0.1-0.1C531.7,36.9,534.3,35,536.4,35 M536.4,33
			c-3.4,0-6.9,3.2-6.9,3.2c-2.9,2.1-5.1,4.7-6.7,7.8c-2.5,4.8-3.7,9.9-4.1,15.2c0,0.1,0,0.1,0,0.2h35.5c-0.1-1.2-0.2-2.3-0.4-3.5
			c-0.4-2.8-1-5.5-2-8.1c-1.5-3.9-4.9-8.9-8.1-11.7C543.7,36.2,539.8,33,536.4,33L536.4,33z"/>
	</g>
	<g id="XMLID_708_">
		<path id="XMLID_843_" d="M551.9,6.6c0,0.4-0.1,0.8-0.1,1.3c-0.3,2.6-1,5.2-1.9,7.6c-1.4,3.6-4.6,8.3-7.5,10.8
			c-0.9,0.7-3.8,2.7-6,2.7c-2.1,0-4.7-1.9-5.6-2.7l-0.1-0.1l-0.1-0.1c-2.5-1.8-4.5-4.1-6.1-7.2c-2-3.7-3.2-7.8-3.7-12.5H551.9
			 M554.2,4.6h-35.5c0,0.1,0,0.2,0,0.2c0.4,5.3,1.6,10.4,4.1,15.2c1.7,3.1,3.8,5.8,6.7,7.8c0,0,3.5,3.2,6.9,3.2
			c3.4,0,7.3-3.2,7.3-3.2c3.1-2.8,6.6-7.8,8.1-11.7c1-2.6,1.7-5.3,2-8.1C553.9,7,554,5.8,554.2,4.6L554.2,4.6z"/>
	</g>
	<g id="XMLID_709_">
		<path id="XMLID_842_" d="M536.4,24.6c-1.7,0-3.5-1.6-3.5-1.6c-1.5-1.1-2.6-2.4-3.4-4c-1.3-2.4-1.9-5-2.1-7.7c0,0,0-0.1,0-0.1h18.1
			c-0.1,0.6-0.1,1.2-0.2,1.8c-0.2,1.4-0.5,2.8-1,4.1c-0.8,2-2.5,4.5-4.1,5.9C540.1,23,538.1,24.6,536.4,24.6z"/>
	</g>
	<g id="XMLID_710_">
		<path id="XMLID_840_" d="M536.4,40.2c-1.7,0-3.5,1.6-3.5,1.6c-1.5,1.1-2.6,2.4-3.4,4c-1.3,2.4-1.9,5-2.1,7.7c0,0,0,0.1,0,0.1h18.1
			c-0.1-0.6-0.1-1.2-0.2-1.8c-0.2-1.4-0.5-2.8-1-4.1c-0.8-2-2.5-4.5-4.1-5.9C540.1,41.8,538.1,40.2,536.4,40.2z"/>
	</g>
</g>
<g id="XMLID_712_">
	<path id="XMLID_713_" d="M482.7,425.6l-5.3-5.3c-0.5-0.5-1.3-0.5-1.7,0c-0.5,0.5-0.5,1.3,0,1.7l0.9,0.9l-5.2,5.2l-4.1-4.1
		c-0.5-0.5-1.3-0.5-1.7,0c-0.5,0.5-0.5,1.3,0,1.7l3.1,3.1L440,457.9c-0.2,0.2-0.4,0.5-0.4,0.9l0,0.1l0.5,2.5c-0.2,0-0.4,0.1-0.6,0.3
		l-5.5,5.5c-0.4,0.4-0.4,1.1,0,1.5l0.1,0.1l-12.6,12.6l-0.5,2.7l14.2-14.2c0.4,0.3,1,0.3,1.4-0.1l5.5-5.5c0.2-0.2,0.3-0.6,0.3-0.9
		l2.1,0.4l0.1,0c0.3,0,0.6-0.2,0.9-0.4l28.7-28.7l3,3c0.5,0.5,1.3,0.5,1.7,0c0.5-0.5,0.5-1.3,0-1.7l-3.9-3.9
		c1.4-1.4,3.8-3.8,5.2-5.2l0.8,0.8c0.5,0.5,1.3,0.5,1.7,0C483.2,426.9,483.2,426.1,482.7,425.6z M456.5,449.9l-3.2-3.2l16.5-16.5
		l3.2,3.2L456.5,449.9z"/>
	<path id="XMLID_716_" d="M457.5,447.7l-1.9-1.9c-0.1-0.1-0.1-0.4,0-0.5l0.4-0.4c0.1-0.1,0.4-0.1,0.5,0l1.9,1.9
		c0.1,0.1,0.1,0.4,0,0.5l-0.4,0.4C457.9,447.9,457.6,447.9,457.5,447.7z"/>
	<path id="XMLID_717_" d="M461,444.2l-1.9-1.9c-0.1-0.1-0.1-0.4,0-0.5l0.4-0.4c0.1-0.1,0.4-0.1,0.5,0l1.9,1.9c0.1,0.1,0.1,0.4,0,0.5
		l-0.4,0.4C461.4,444.4,461.1,444.4,461,444.2z"/>
	<path id="XMLID_718_" d="M464.5,440.7l-1.9-1.9c-0.1-0.1-0.1-0.4,0-0.5l0.4-0.4c0.1-0.1,0.4-0.1,0.5,0l1.9,1.9
		c0.1,0.1,0.1,0.4,0,0.5l-0.4,0.4C464.9,440.9,464.7,440.9,464.5,440.7z"/>
	<path id="XMLID_719_" d="M468,437.2l-1.9-1.9c-0.1-0.1-0.1-0.4,0-0.5l0.4-0.4c0.1-0.1,0.4-0.1,0.5,0l1.9,1.9c0.1,0.1,0.1,0.4,0,0.5
		l-0.4,0.4C468.4,437.3,468.2,437.3,468,437.2z"/>
</g>
<path id="XMLID_720_" d="M562.8,425.2c-7-7-18.4-7-25.4,0l-28.1,28.1c-7,7-7,18.4,0,25.4c7,7,18.4,7,25.4,0l28.1-28.1
	C569.7,443.7,569.7,432.2,562.8,425.2z M559.7,448.5l-11.8,11.8l-20-19.9l11.9-11.9c5.5-5.5,14.5-5.5,19.9,0
	C565.2,434,565.2,443,559.7,448.5z"/>
<g id="XMLID_2388_">
	<path id="XMLID_2389_" d="M622.4,437.2l-7.5,7.5l12.6,12.6l7.5-7.5c3.5-3.5,3.5-9.1,0-12.6C631.5,433.7,625.8,433.7,622.4,437.2z"
		/>
	<path id="XMLID_2392_" d="M620,420c-17.7,0-32,14.3-32,32c0,17.7,14.3,32,32,32c17.7,0,32-14.3,32-32C652,434.3,637.7,420,620,420z
		 M636.9,451.2l-17.8,17.8c-4.4,4.4-11.6,4.4-16.1,0s-4.4-11.6,0-16.1l17.8-17.8c4.4-4.4,11.6-4.4,16.1,0
		C641.3,439.5,641.3,446.8,636.9,451.2z"/>
</g>
<g id="XMLID_723_">
	<path id="XMLID_2432_" d="M720.8,435.2c-4.4-4.4-11.5-4.4-15.9,0l-17.6,17.6c-4.4,4.4-4.4,11.5,0,15.9c4.4,4.4,11.5,4.4,15.9,0
		l17.6-17.6C725.2,446.7,725.2,439.5,720.8,435.2z M718.9,449.7l-7.4,7.4L699,444.7l7.4-7.4c3.4-3.4,9-3.4,12.5,0
		S722.4,446.3,718.9,449.7z"/>
</g>
<g id="XMLID_2229_">
	<polygon id="XMLID_2230_" points="606.6,231.8 638.5,200.1 606.6,168.2 601.5,173.4 628.2,200.1 601.5,226.6 	"/>
</g>
<g id="XMLID_2231_">
	<polygon id="XMLID_2232_" points="717.4,231.8 685.5,200.1 717.4,168.2 722.5,173.4 695.8,200.1 722.5,226.6 	"/>
</g>
<polygon id="XMLID_4289_" points="765.4,225.2 803.5,199.8 765.4,174.7 765.4,168.3 765.5,168.1 810.6,197.8 810.6,201.7 
	765.5,231.9 765.4,231.7 "/>
<polygon id="XMLID_4286_" points="51,309.4 12.8,283.8 51,258.6 51,252.1 51,252 5.7,281.8 5.7,285.8 50.9,316 51,315.9 "/>
<g id="XMLID_724_">
	<path id="XMLID_1718_" d="M695.8,312.6h-20.7c-1.7,0-3.1-1.4-3.1-3.1v-51.1c0-1.7,1.4-3.1,3.1-3.1h20.7c1.7,0,3.1,1.4,3.1,3.1v51.1
		C698.9,311.3,697.5,312.6,695.8,312.6z"/>
	<path id="XMLID_1717_" d="M732.9,312.6h-20.7c-1.7,0-3.1-1.4-3.1-3.1v-51.1c0-1.7,1.4-3.1,3.1-3.1h20.7c1.7,0,3.1,1.4,3.1,3.1v51.1
		C736,311.3,734.6,312.6,732.9,312.6z"/>
</g>
<g id="XMLID_725_">
	<path id="XMLID_1746_" class="st0" d="M782.5,297.5H776c-1.7,0-3.1-1.4-3.1-3.1v-20.8c0-1.7,1.4-3.1,3.1-3.1h6.5
		c1.7,0,3.1,1.4,3.1,3.1v20.8C785.6,296.1,784.2,297.5,782.5,297.5z"/>
	<path id="XMLID_1745_" class="st0" d="M800,297.5h-6.5c-1.7,0-3.1-1.4-3.1-3.1v-20.8c0-1.7,1.4-3.1,3.1-3.1h6.5
		c1.7,0,3.1,1.4,3.1,3.1v20.8C803,296.1,801.7,297.5,800,297.5z"/>
</g>
<g id="XMLID_726_">
	<g id="XMLID_1774_">
		<path id="XMLID_1391_" d="M26.4,356c0.9,0,1.6,0.7,1.6,1.6v20.8c0,0.9-0.7,1.6-1.6,1.6h-6.5c-0.9,0-1.6-0.7-1.6-1.6v-20.8
			c0-0.9,0.7-1.6,1.6-1.6H26.4 M26.4,354.5h-6.5c-1.7,0-3.1,1.4-3.1,3.1v20.8c0,1.7,1.4,3.1,3.1,3.1h6.5c1.7,0,3.1-1.4,3.1-3.1
			v-20.8C29.4,355.9,28.1,354.5,26.4,354.5L26.4,354.5z"/>
	</g>
	<g id="XMLID_1773_">
		<path id="XMLID_1387_" d="M43.8,356c0.9,0,1.6,0.7,1.6,1.6v20.8c0,0.9-0.7,1.6-1.6,1.6h-6.5c-0.9,0-1.6-0.7-1.6-1.6v-20.8
			c0-0.9,0.7-1.6,1.6-1.6H43.8 M43.8,354.5h-6.5c-1.7,0-3.1,1.4-3.1,3.1v20.8c0,1.7,1.4,3.1,3.1,3.1h6.5c1.7,0,3.1-1.4,3.1-3.1
			v-20.8C46.9,355.9,45.5,354.5,43.8,354.5L43.8,354.5z"/>
	</g>
</g>
<circle id="XMLID_727_" cx="536" cy="284" r="32"/>
<g id="XMLID_728_">
	<path id="XMLID_729_" class="st0" d="M525.3,298.8c0,0.9,0.9,1.4,1.7,1l13-7.4l13.1-7.4c0.8-0.4,0.8-1.5,0-1.9l-13.1-7.4l-13-7.4
		c-0.7-0.4-1.7,0.1-1.7,1V284V298.8z"/>
</g>
<g id="XMLID_730_">
	<path id="XMLID_731_" class="st4" d="M609.4,298.8c0,0.9,0.9,1.4,1.7,1l13-7.4l13.1-7.4c0.8-0.4,0.8-1.5,0-1.9l-13.1-7.4l-13-7.4
		c-0.7-0.4-1.7,0.1-1.7,1V284V298.8z"/>
</g>
<path id="XMLID_732_" d="M48.6,606.8l-18.4-18.6c-0.2-0.2-0.6-0.1-0.6,0.3v23.8c0,0.3-0.4,0.5-0.6,0.3l-9.3-9.5
	c-0.1-0.1-0.4-0.1-0.5,0l-3.7,3.7c-0.1,0.1-0.1,0.4,0,0.5l12.4,12.6c0.1,0.1,0.1,0.4,0,0.5l-12.4,12.6c-0.1,0.1-0.1,0.4,0,0.5
	l3.7,3.7c0.1,0.1,0.4,0.1,0.5,0l9.3-9.5c0.2-0.2,0.6-0.1,0.6,0.3v23.7c0,0.3,0.4,0.5,0.6,0.3l18.4-18.4c0.1-0.1,0.1-0.4,0-0.5
	l-12.3-12.4c-0.1-0.1-0.1-0.4,0-0.5l12.3-12.7C48.7,607.2,48.7,606.9,48.6,606.8z M34.2,609.5v-9c0-0.3,0.4-0.5,0.6-0.3l6.6,6.7
	c0.1,0.1,0.1,0.4,0,0.5l-6.6,6.5c-0.2,0.2-0.6,0.1-0.6-0.3V609.5z M41.4,633.4l-6.6,6.5c-0.2,0.2-0.6,0.1-0.6-0.3v-4.2v-9
	c0-0.3,0.4-0.5,0.6-0.3l6.6,6.7C41.6,633,41.6,633.2,41.4,633.4z"/>
<g id="XMLID_736_">
	<path id="XMLID_737_" d="M206.9,610.3l-4.8-4.9c-0.2-0.2-0.5-0.1-0.5,0.2v6.6v3.1c0,0.2,0.3,0.4,0.5,0.2l4.8-4.8
		C207,610.6,207,610.5,206.9,610.3z"/>
	<path id="XMLID_741_" d="M201.6,624.8v6.6v3.1c0,0.2,0.3,0.4,0.5,0.2l4.8-4.8c0.1-0.1,0.1-0.3,0-0.4l-4.8-4.9
		C201.9,624.4,201.6,624.5,201.6,624.8z"/>
	<path id="XMLID_742_" d="M200,588c-17.7,0-32,14.3-32,32c0,17.7,14.3,32,32,32s32-14.3,32-32C232,602.3,217.7,588,200,588z
		 M203.1,620.4l9.1,9.2c0.1,0.1,0.1,0.3,0,0.4l-13.6,13.6c-0.2,0.2-0.5,0-0.5-0.2v-17.4c0-0.2-0.3-0.4-0.5-0.2l-6.8,7
		c-0.1,0.1-0.3,0.1-0.4,0l-2.8-2.7c-0.1-0.1-0.1-0.3,0-0.4l9.1-9.3c0.1-0.1,0.1-0.3,0-0.4l-9.1-9.3c-0.1-0.1-0.1-0.3,0-0.4l2.8-2.7
		c0.1-0.1,0.3-0.1,0.4,0l6.8,7c0.2,0.2,0.5,0.1,0.5-0.2v-17.5c0-0.2,0.3-0.4,0.5-0.2l13.6,13.7c0.1,0.1,0.1,0.3,0,0.4l-9.1,9.3
		C203,620.1,203,620.3,203.1,620.4z"/>
</g>
<path id="XMLID_745_" d="M296.2,610.3l-13.6-13.7c-0.2-0.2-0.5-0.1-0.5,0.2v17.5c0,0.2-0.3,0.4-0.5,0.2l-6.8-7
	c-0.1-0.1-0.3-0.1-0.4,0l-2.8,2.7c-0.1,0.1-0.1,0.3,0,0.4l9.1,9.3c0.1,0.1,0.1,0.3,0,0.4l-9.1,9.3c-0.1,0.1-0.1,0.3,0,0.4l2.8,2.7
	c0.1,0.1,0.3,0.1,0.4,0l6.8-7c0.2-0.2,0.5-0.1,0.5,0.2v17.4c0,0.2,0.3,0.4,0.5,0.2l13.6-13.6c0.1-0.1,0.1-0.3,0-0.4l-9.1-9.2
	c-0.1-0.1-0.1-0.3,0-0.4l9.1-9.3C296.3,610.5,296.3,610.4,296.2,610.3z M285.6,612.3v-6.6c0-0.2,0.3-0.4,0.5-0.2l4.8,4.9
	c0.1,0.1,0.1,0.3,0,0.4l-4.8,4.8c-0.2,0.2-0.5,0-0.5-0.2V612.3z M290.9,629.9l-4.8,4.8c-0.2,0.2-0.5,0-0.5-0.2v-3.1v-6.6
	c0-0.2,0.3-0.4,0.5-0.2l4.8,4.9C291,629.6,291,629.8,290.9,629.9z"/>
<g id="XMLID_749_">
	<path id="XMLID_750_" d="M122.9,610.3l-4.8-4.9c-0.2-0.2-0.5-0.1-0.5,0.2v6.6v3.1c0,0.2,0.3,0.4,0.5,0.2l4.8-4.8
		C123,610.6,123,610.5,122.9,610.3z"/>
	<path id="XMLID_751_" d="M116,588c-12.7,0-23,14.3-23,32s10.3,32,23,32s23-14.3,23-32S128.7,588,116,588z M119.1,620.4l9.1,9.2
		c0.1,0.1,0.1,0.3,0,0.4l-13.6,13.6c-0.2,0.2-0.5,0-0.5-0.2v-17.4c0-0.2-0.3-0.4-0.5-0.2l-6.8,7c-0.1,0.1-0.3,0.1-0.4,0l-2.8-2.7
		c-0.1-0.1-0.1-0.3,0-0.4l9.1-9.3c0.1-0.1,0.1-0.3,0-0.4l-9.1-9.3c-0.1-0.1-0.1-0.3,0-0.4l2.8-2.7c0.1-0.1,0.3-0.1,0.4,0l6.8,7
		c0.2,0.2,0.5,0.1,0.5-0.2v-17.5c0-0.2,0.3-0.4,0.5-0.2l13.6,13.7c0.1,0.1,0.1,0.3,0,0.4l-9.1,9.3C119,620.1,119,620.3,119.1,620.4z
		"/>
	<path id="XMLID_754_" d="M117.6,624.8v6.6v3.1c0,0.2,0.3,0.4,0.5,0.2l4.8-4.8c0.1-0.1,0.1-0.3,0-0.4l-4.8-4.9
		C117.9,624.4,117.6,624.5,117.6,624.8z"/>
</g>
<path id="XMLID_1800_" d="M146,400H86c-1.1,0-2-0.9-2-2v-60c0-1.1,0.9-2,2-2h60c1.1,0,2,0.9,2,2v60C148,399.1,147.1,400,146,400z"/>
<path id="XMLID_756_" d="M200,336c-17.7,0-32,14.3-32,32c0,17.7,14.3,32,32,32c17.7,0,32-14.3,32-32C232,350.3,217.7,336,200,336z
	 M214.3,380.3c0,1.1-0.9,2-2,2h-24.7c-1.1,0-2-0.9-2-2v-24.7c0-1.1,0.9-2,2-2h24.7c1.1,0,2,0.9,2,2V380.3z"/>
<path id="XMLID_1853_" d="M296.3,382.3h-24.7c-1.1,0-2-0.9-2-2v-24.7c0-1.1,0.9-2,2-2h24.7c1.1,0,2,0.9,2,2v24.7
	C298.3,381.4,297.4,382.3,296.3,382.3z"/>
<polygon id="XMLID_759_" points="32,169.7 39.5,192.8 63.8,192.8 44.2,207.2 51.7,230.3 32,216 12.3,230.3 19.8,207.2 0.2,192.8 
	24.5,192.8 "/>
<g id="XMLID_8856_">
	<polygon id="XMLID_837_" class="st0" points="116,215.1 97.7,228.3 104.7,206.9 86.5,193.6 109,193.6 116,172.1 123,193.6 
		145.5,193.6 127.3,206.9 134.3,228.3 	"/>
	<path id="XMLID_834_" d="M116,174.6l6.1,18.7l0.3,1h1.1h19.7l-15.9,11.6l-0.9,0.6l0.3,1l6.1,18.7l-15.9-11.6l-0.9-0.6l-0.9,0.6
		l-15.9,11.6l6.1-18.7l0.3-1l-0.9-0.6l-15.9-11.6h19.7h1.1l0.3-1L116,174.6 M116,169.7l-7.5,23.1H84.2l19.7,14.3l-7.5,23.1L116,216
		l19.7,14.3l-7.5-23.1l19.7-14.3h-24.3L116,169.7L116,169.7z"/>
</g>
<circle id="XMLID_760_" cx="620" cy="4.2" r="0.8"/>
<circle id="XMLID_761_" cx="620" cy="58.9" r="0.8"/>
<circle id="XMLID_762_" cx="591.7" cy="32" r="0.8"/>
<circle id="XMLID_763_" cx="647.5" cy="32" r="0.8"/>
<g id="XMLID_764_">
	<g id="XMLID_827_">
		<path id="XMLID_831_" d="M13.4,114.3c3.9,7.8,7.7,15.6,11.6,23.5c0,0,2.9-0.7,2.9-0.8c0.2-17.4,8.2-33,22.7-42.7
			c-0.8,0.5-2.1,0.2-2.9,0.8c-14.5,9.7-22.6,25.3-22.7,42.7c1-0.3,1.9-0.5,2.9-0.8c-3.9-7.8-7.7-15.6-11.6-23.5
			C16.2,113.3,13.5,114.4,13.4,114.3L13.4,114.3z"/>
	</g>
</g>
<g id="XMLID_765_">
	<g id="XMLID_766_">
		<path id="XMLID_826_" class="st0" d="M92.6,143.7c-2.5,0-4.5-2-4.5-4.5V92.8c0-2.5,2-4.5,4.5-4.5H139c2.5,0,4.5,2,4.5,4.5v46.4
			c0,2.5-2,4.5-4.5,4.5H92.6z"/>
		<path id="XMLID_823_" d="M139,89c2.1,0,3.7,1.7,3.7,3.7v46.4c0,2.1-1.7,3.7-3.7,3.7H92.6c-2.1,0-3.7-1.7-3.7-3.7V92.8
			c0-2.1,1.7-3.7,3.7-3.7H139 M139,87.5H92.6c-2.9,0-5.2,2.3-5.2,5.2v46.4c0,2.9,2.3,5.2,5.2,5.2H139c2.9,0,5.2-2.3,5.2-5.2V92.8
			C144.2,89.9,141.9,87.5,139,87.5L139,87.5z"/>
	</g>
	<path id="XMLID_767_" class="st0" d="M138.5,91.5l-0.5-0.7c-0.3-0.5-0.3-1.1,0.2-1.5l4.8-3.6c0.5-0.3,1.1-0.3,1.5,0.2l0.5,0.7
		c0.3,0.5,0.3,1.1-0.2,1.5l-4.8,3.6C139.5,92.1,138.8,92,138.5,91.5z"/>
	<path id="XMLID_768_" class="st0" d="M114.3,147.7h-3c-1.2,0-2.2-1-2.2-2.2v-3.2c0-1.2,1-2.2,2.2-2.2h3c1.2,0,2.2,1,2.2,2.2v3.2
		C116.5,146.7,115.5,147.7,114.3,147.7z"/>
	<g id="XMLID_769_">
		<path id="XMLID_770_" d="M95.1,113.4c5.6,11.3,11.2,22.6,16.8,33.9c0,0,3.2-0.8,3.2-0.9c0.2-25,11.9-47.9,32.9-61.7
			c-0.9,0.6-2.3,0.3-3.2,0.9c-21,13.9-32.7,36.7-32.9,61.7c1.1-0.3,2.1-0.6,3.2-0.9c-5.6-11.3-11.2-22.6-16.8-33.9
			C98.2,112.3,95.2,113.5,95.1,113.4L95.1,113.4z"/>
	</g>
</g>
<g id="XMLID_771_">
	<g id="XMLID_807_">
		<path id="XMLID_811_" class="st0" d="M181.4,114.3c3.9,7.8,7.7,15.6,11.6,23.5c0,0,2.9-0.7,2.9-0.8c0.2-17.4,8.2-33,22.7-42.7
			c-0.8,0.5-2.1,0.2-2.9,0.8c-14.5,9.7-22.6,25.3-22.7,42.7c1-0.3,1.9-0.5,2.9-0.8c-3.9-7.8-7.7-15.6-11.6-23.5
			C184.2,113.3,181.5,114.4,181.4,114.3L181.4,114.3z"/>
	</g>
</g>
<g id="XMLID_783_">
	<g id="XMLID_791_">
		<path id="XMLID_805_" d="M265.4,114.3c3.9,7.8,7.7,15.6,11.6,23.5c0,0,2.9-0.7,2.9-0.8c0.2-17.4,8.2-33,22.7-42.7
			c-0.8,0.5-2.1,0.2-2.9,0.8c-14.5,9.7-22.6,25.3-22.7,42.7c1-0.3,1.9-0.5,2.9-0.8c-3.9-7.8-7.7-15.6-11.6-23.5
			C268.2,113.3,265.5,114.4,265.4,114.3L265.4,114.3z"/>
	</g>
</g>
<path id="XMLID_772_" class="st0" d="M788.7,58h-1.4c-0.4,0-0.7-0.3-0.7-0.7V18c0-0.4,0.3-0.7,0.7-0.7h1.4c0.4,0,0.7,0.3,0.7,0.7
	v39.3C789.4,57.7,789.1,58,788.7,58z"/>
<path id="XMLID_3438_" class="st0" d="M781.1,57.9l-1.4,0.1c-0.4,0-0.7-0.3-0.8-0.6l-3.4-39.2c0-0.4,0.3-0.7,0.6-0.8l1.4-0.1
	c0.4,0,0.7,0.3,0.8,0.6l3.4,39.2C781.8,57.5,781.5,57.8,781.1,57.9z"/>
<path id="XMLID_3439_" class="st0" d="M796.3,58l-1.4-0.1c-0.4,0-0.7-0.4-0.6-0.8l3.4-39.2c0-0.4,0.4-0.7,0.8-0.6l1.4,0.1
	c0.4,0,0.7,0.4,0.6,0.8l-3.4,39.2C797,57.7,796.7,58,796.3,58z"/>
<circle id="XMLID_773_" class="st5" cx="619.7" cy="35.2" r="4.8"/>
<g id="XMLID_774_">
	<path id="XMLID_792_" d="M711.1,32.5l-1.9,0.5c0,0.3-0.1,0.5-0.2,0.7l1.4,1.4c-0.2,0.3-0.3,0.6-0.5,0.9l-1.9-0.5
		c-0.2,0.2-0.3,0.4-0.5,0.5l0.5,1.9c-0.3,0.2-0.6,0.4-0.9,0.5l-1.4-1.4c-0.2,0.1-0.5,0.2-0.7,0.2l-0.5,1.9c-0.2,0-0.4,0-0.5,0
		s-0.4,0-0.5,0l-0.5-1.9c-0.3,0-0.5-0.1-0.7-0.2l-1.4,1.4c-0.3-0.2-0.6-0.3-0.9-0.5l0.5-1.9c-0.2-0.2-0.4-0.3-0.5-0.5l-1.9,0.5
		c-0.2-0.3-0.4-0.6-0.5-0.9l1.4-1.4c-0.1-0.2-0.2-0.5-0.2-0.7l-1.9-0.5c0-0.2,0-0.4,0-0.5c0-0.2,0-0.4,0-0.5l1.9-0.5
		c0-0.3,0.1-0.5,0.2-0.7l-1.4-1.4c0.2-0.3,0.3-0.6,0.5-0.9l1.9,0.5c0.2-0.2,0.3-0.4,0.5-0.5l-0.5-1.9c0.3-0.2,0.6-0.4,0.9-0.5
		l1.4,1.4c0.2-0.1,0.5-0.2,0.7-0.2l0.5-1.9c0.2,0,0.4,0,0.5,0s0.4,0,0.5,0l0.5,1.9c0.3,0,0.5,0.1,0.7,0.2l1.4-1.4
		c0.3,0.2,0.6,0.3,0.9,0.5l-0.5,1.9c0.2,0.2,0.4,0.3,0.5,0.5l1.9-0.5c0.2,0.3,0.4,0.6,0.5,0.9l-1.4,1.4c0.1,0.2,0.2,0.5,0.2,0.7
		l1.9,0.5c0,0.2,0,0.4,0,0.5C711.2,32.2,711.2,32.4,711.1,32.5z"/>
</g>
<g id="XMLID_1015_">
	<path id="XMLID_1014_" d="M562.7,141.4c-0.6-3.7-1.8-7.3-3.7-10.6c-1.2-2.1-2.7-4-4.5-5.8c-1.6-1.6-3.4-3-5.4-4.3
		c-0.1,0-0.1-0.1-0.1-0.1c0,0,0,0-0.1,0.1c-1.6,1.6-3.4,3.1-5.4,4.3c-2.6,1.6-4.8,2.2-7.7,2.2c-3.2,0-6.8-2-9.9-4.3
		c-0.8-0.6-1.5-1.2-2.2-1.8l-0.6-0.5c-2.2,1.2-4.2,2.8-6,4.7c-1.7,1.8-3.2,3.9-4.5,6.1c-1.3,2.5-2.3,5.1-2.9,7.9
		c-0.1,0.6-0.2,1.2-0.4,1.8l-0.1,0.8v0.7c0.3,0.8,0.9,1.1,1.9,1.1v0.7l0-0.7c16.6,0,33.3,0,49.9,0c1,0,1.6-0.3,1.9-1.1l0-0.8
		C562.8,141.7,562.7,141.6,562.7,141.4z"/>
	<g id="XMLID_1017_">
		<path id="XMLID_954_" d="M523.2,93.5c3.9-5.3,8.5-6,13.6-6.1c5-0.2,10.3,2.6,12.4,7.3c1,2.3,1.2,5,1.2,7.6c0,3.8-0.4,7.7-1.8,11.3
			s-3.7,6.8-7,8.6s-7.4,2-10.7,0.3c-2.4-1.2-4.3-2.8-5.5-4.6c-2.5-3.6-3.6-7.8-3.9-12.2C521.5,105.7,520.1,97.5,523.2,93.5z"/>
	</g>
</g>
<g id="XMLID_1117_">
	<path id="XMLID_8131_" d="M704.3,146.2c-6.3-5.2-10.7-9.5-15.3-15.5c-3.5-4.5-6.4-9.3-9.6-14c-2.4-3.5-4.9-7.1-6.3-11.1
		c-1.4-4-1.7-8.7,0.3-12.5c2.2-4.3,7-7,11.8-7c4.8-0.1,9.5,2.2,12.8,5.7s5.3,8.1,6.2,12.8c0.4-6.3,3.4-12.6,8.6-16.1
		c5.2-3.5,12.7-3.8,17.7,0.1c4.7,3.7,6.3,10.5,5.1,16.4s-5.4,10.6-9.1,15.3c-4,5.2-7,8.8-11.2,13.8
		C715.3,134.2,709.4,141.6,704.3,146.2z"/>
</g>
<g id="XMLID_8110_">
	<path id="XMLID_8136_" d="M805.9,86.8c3,0,5.9,0.9,8,2.6c4.1,3.2,6,9.4,4.7,15.4c-1,4.9-4.2,9-7.4,13c-0.5,0.7-1,1.3-1.5,2
		c-4.1,5.4-7.2,9.1-11.2,13.8c-0.1,0.1-5.4,6.8-10.2,11.3c-6.2-5.2-10.3-9.4-14.5-14.8c-2.3-3-4.4-6.1-6.4-9.2
		c-1-1.5-2.1-3.1-3.2-4.7c-2.4-3.4-4.8-6.9-6.2-10.9c-1.5-4.2-1.4-8.5,0.2-11.7c1.9-3.8,6.3-6.4,10.9-6.5l0.2,0
		c4.2,0,8.6,2,11.9,5.4c3,3.1,5,7.4,5.9,12.3l1.4,7.7l0.6-7.8c0.5-6.4,3.5-12.2,8.2-15.3C799.9,87.7,802.9,86.8,805.9,86.8
		 M805.9,85.8c-3.2,0-6.4,0.9-9,2.7c-5.2,3.5-8.2,9.8-8.6,16.1c-0.9-4.7-2.9-9.3-6.2-12.8c-3.3-3.4-7.8-5.7-12.6-5.7
		c-0.1,0-0.2,0-0.2,0c-4.8,0.1-9.6,2.7-11.8,7c-1.9,3.8-1.7,8.4-0.3,12.5c1.4,4,3.9,7.6,6.3,11.1c3.2,4.7,6.2,9.5,9.6,14
		c4.6,6,9,10.3,15.3,15.5c5-4.6,11-12,11-12c4.2-5,7.2-8.6,11.2-13.8c3.7-4.8,7.8-9.4,9.1-15.3s-0.3-12.7-5.1-16.4
		C812.1,86.7,809,85.8,805.9,85.8L805.9,85.8z"/>
</g>
<rect id="XMLID_479_" x="534" y="174.5" width="4" height="51.7"/>
<rect id="XMLID_3739_" x="522" y="187.9" width="28" height="4"/>
<g id="XMLID_510_">
	<g id="XMLID_3814_">
		<path id="XMLID_3818_" d="M398.3,462.5c0.7-2.7,0.2-5.4-1.9-7.3c-1.8-1.7-4.3-1.8-5.7-4c-1.2-2-2.1-3.9-4.1-5.4
			c-2-1.6-4.4-2.5-6.9-2.7c-0.3,0-0.6,0.5-0.9,0.5c2.4,0.2,4.7,1,6.6,2.5c2.1,1.5,3,3.5,4.3,5.6c1.3,2.1,3.6,2.3,5.4,3.8
			c2.3,1.9,2.9,4.8,2.2,7.6C397.5,462.8,398.3,462.7,398.3,462.5L398.3,462.5z"/>
	</g>
</g>
<g id="XMLID_511_">
	<g id="XMLID_3821_">
		<path id="XMLID_3825_" d="M394.4,462.6c-0.3-2.2-0.8-4.7-3.1-5.6c-2.5-1-5.3,0.1-7.7-1c-4.5-2.1-3.1-8.8-8.9-9
			c-0.3,0-0.6,0.5-0.9,0.5c2.4,0.1,4.2,1.4,5.1,3.7c0.9,2.2,1.5,4.2,3.8,5.4c2.4,1.1,5,0.1,7.4,0.9c2.6,0.8,3.1,3.4,3.5,5.8
			C393.5,462.9,394.4,462.7,394.4,462.6L394.4,462.6z"/>
	</g>
</g>
<rect id="XMLID_3804_" x="337.1" y="464.7" width="18.1" height="4.6"/>
<g id="XMLID_486_">
	<g id="XMLID_484_">
		<path id="XMLID_8954_" class="st0" d="M108.7,292.3c-8.6,0-15.7-7-15.7-15.7s7-15.7,15.7-15.7s15.7,7,15.7,15.7
			S117.3,292.3,108.7,292.3z"/>
		<path id="XMLID_8951_" d="M108.7,261.7c8.2,0,14.9,6.7,14.9,14.9s-6.7,14.9-14.9,14.9c-8.2,0-14.9-6.7-14.9-14.9
			S100.4,261.7,108.7,261.7 M108.7,260.2c-9.1,0-16.4,7.3-16.4,16.4s7.3,16.4,16.4,16.4c9.1,0,16.4-7.3,16.4-16.4
			S117.7,260.2,108.7,260.2L108.7,260.2z"/>
	</g>
	<path id="XMLID_485_" d="M117.2,289.6c2.2,3.5,4.4,7,7.2,10c2.8,3,6.1,5.6,10,7.1c1.1,0.4,2.4,0.7,3.4,0.1c1-0.6,1.3-1.8,1.3-2.9
		c0.1-3.3-2.1-6.2-4.4-8.5c-3.9-3.9-8.4-7.2-13.4-9.6"/>
</g>
<g id="XMLID_6425_">
	<g id="XMLID_6427_">
		<path id="XMLID_8949_" d="M193.7,291c-7.4,0-13.4-6-13.4-13.4s6-13.4,13.4-13.4s13.4,6,13.4,13.4S201.1,291,193.7,291z"/>
		<path id="XMLID_8946_" class="st0" d="M193.7,264.9c7,0,12.6,5.7,12.6,12.6s-5.7,12.6-12.6,12.6s-12.6-5.7-12.6-12.6
			S186.7,264.9,193.7,264.9 M193.7,263.4c-7.8,0-14.1,6.3-14.1,14.1s6.3,14.1,14.1,14.1s14.1-6.3,14.1-14.1S201.5,263.4,193.7,263.4
			L193.7,263.4z"/>
	</g>
	<path id="XMLID_6426_" class="st0" d="M201,288.8c1.9,3,3.8,6,6.2,8.6c2.4,2.6,5.3,4.9,8.6,6.1c1,0.4,2.1,0.6,3,0.1
		c0.8-0.5,1.1-1.6,1.2-2.5c0.1-2.8-1.8-5.3-3.8-7.3c-3.3-3.4-7.3-6.2-11.6-8.2"/>
</g>
</svg>
