<svg id="icons" xmlns="http://www.w3.org/2000/svg" viewBox="0 0 64 64"><title>changa_pause-o</title><g id="_Group_" data-name="&lt;Group&gt;"><g id="_Rectangle_" data-name="&lt;Rectangle&gt;"><path d="M23.8,4.88a1.55,1.55,0,0,1,1.55,1.55V57.57a1.55,1.55,0,0,1-1.55,1.55H3.07a1.55,1.55,0,0,1-1.55-1.55V6.43A1.55,1.55,0,0,1,3.07,4.88H23.8m0-1.5H3.07A3.06,3.06,0,0,0,0,6.43V57.57a3.06,3.06,0,0,0,3.05,3.05H23.8a3.06,3.06,0,0,0,3.05-3.05V6.43A3.06,3.06,0,0,0,23.8,3.38Z"/></g><g id="_Rectangle_2" data-name="&lt;Rectangle&gt;"><path d="M60.93,4.88a1.55,1.55,0,0,1,1.55,1.55V57.57a1.55,1.55,0,0,1-1.55,1.55H40.2a1.55,1.55,0,0,1-1.55-1.55V6.43A1.55,1.55,0,0,1,40.2,4.88H60.93m0-1.5H40.2a3.06,3.06,0,0,0-3.05,3.05V57.57a3.06,3.06,0,0,0,3.05,3.05H60.93A3.06,3.06,0,0,0,64,57.57V6.43a3.06,3.06,0,0,0-3.05-3.05Z"/></g></g></svg>