<svg id="icons" xmlns="http://www.w3.org/2000/svg" viewBox="0 0 64 64"><title>changa_download-cloud</title><path id="_Compound_Path_" data-name="&lt;Compound Path&gt;" d="M63.52,38.32a11.88,11.88,0,0,0-10.47-8.18c-.51,0-.68-.17-.67-.7a15.71,15.71,0,0,0-.14-2.39C50.4,14,36.57,7.28,25,13.28a17.17,17.17,0,0,0-8.26,9.94c-.17.48-.33.64-.89.58a13,13,0,0,0-4,.18A14.55,14.55,0,0,0,.08,40.05,14.32,14.32,0,0,0,14,52.94c6.44,0,12.92,0,19,0h0c7,0,13.11,0,19.5,0A11.37,11.37,0,0,0,63.52,38.32ZM38,41.15l-4.6,7.08-4.6-7.08-4.6-7.08h4.57V23.66a1.18,1.18,0,0,1,1.18-1.18h6.93A1.18,1.18,0,0,1,38,23.66V34.08h4.57Z"/></svg>