<svg id="icons" xmlns="http://www.w3.org/2000/svg" viewBox="0 0 64 64"><title>changa_cannabis-circle</title><path id="_Compound_Path_" data-name="&lt;Compound Path&gt;" d="M32,0A32,32,0,1,0,64,32,32,32,0,0,0,32,0ZM50.94,36.19a35.52,35.52,0,0,1-3.09,2.28c-5.67,3.31-9.92,2.79-9.92,2.79-5.67,0-5.17.17-5.17.17a19.75,19.75,0,0,1,6.74,1.72C44,45.4,45,47.72,45,47.72,42.89,48,38.12,46,38.12,46a29.71,29.71,0,0,1-5.65-4.29v9.9h-1v-9.9A29.71,29.71,0,0,1,25.82,46S21,48,18.9,47.72c0,0,1-2.32,5.54-4.57a19.75,19.75,0,0,1,6.74-1.72s.49-.21-5.17-.17c0,0-4.25.52-9.92-2.79A35.52,35.52,0,0,1,13,36.19s-.75-.67,3.67-.34c0,0,5.24-.15,9.06,1.8a54.23,54.23,0,0,1,5.3,3.2s.75-.09-3.18-3a52.67,52.67,0,0,1-5.65-5,23.37,23.37,0,0,1-3.07-5.57s-2.32-5.86-2.45-6.64c0,0-1.06-3,.64-1.32a58.07,58.07,0,0,1,6.22,5.09,23.52,23.52,0,0,1,4.57,6,70,70,0,0,1,2.58,7.09,25.15,25.15,0,0,1,.76,2.48,3.84,3.84,0,0,0-.07-.71l-1.16-4.72,0-.14s-1.45-4.73-1.32-7.31c0,0,0-.12,0-.32a18.7,18.7,0,0,1,.42-4.08,36,36,0,0,1,1.14-5.46l.94-3a5.66,5.66,0,0,1,.57-1.82h0a5.66,5.66,0,0,1,.57,1.82l.94,3a36,36,0,0,1,1.14,5.46,18.7,18.7,0,0,1,.42,4.08c0,.2,0,.32,0,.32.13,2.58-1.32,7.31-1.32,7.31l0,.14-1.16,4.72a3.84,3.84,0,0,0-.07.71,25.17,25.17,0,0,1,.76-2.48,70,70,0,0,1,2.58-7.09,23.52,23.52,0,0,1,4.57-6,58.08,58.08,0,0,1,6.22-5.09c1.71-1.64.64,1.32.64,1.32-.13.77-2.45,6.64-2.45,6.64a23.37,23.37,0,0,1-3.07,5.57,52.66,52.66,0,0,1-5.65,5c-3.93,2.88-3.18,3-3.18,3a54.23,54.23,0,0,1,5.3-3.2c3.82-2,9.06-1.8,9.06-1.8C51.7,35.52,50.94,36.19,50.94,36.19Z"/></svg>