<svg id="icons" xmlns="http://www.w3.org/2000/svg" xmlns:xlink="http://www.w3.org/1999/xlink" viewBox="0 0 64 64"><defs><style>.cls-1{fill:none;}.cls-2{clip-path:url(#clip-path);}.cls-3{fill:#fff;}</style><clipPath id="clip-path"><circle class="cls-1" cx="116.06" cy="-51.91" r="31.94"/></clipPath></defs><title>changa_user</title><g id="_Group_" data-name="&lt;Group&gt;"><path id="_Path_" data-name="&lt;Path&gt;" d="M3.75,64Q32,64,60.25,64a2,2,0,0,0,2.15-1.27l0-.93a6.36,6.36,0,0,1-.14-.65,33.65,33.65,0,0,0-4.2-12A31.92,31.92,0,0,0,53,42.61a34,34,0,0,0-6.16-4.85l-.15-.08-.13.13a30.17,30.17,0,0,1-6.07,4.88,15.42,15.42,0,0,1-8.76,2.47c-3.62,0-7.7-2.3-11.16-4.82C19.65,39.7,18.81,39,18,38.28l-.63-.56a29.54,29.54,0,0,0-6.81,5.34,32.61,32.61,0,0,0-5.07,7,34.05,34.05,0,0,0-3.33,9C2,59.66,1.9,60.36,1.77,61l-.17.87v.81A2,2,0,0,0,3.74,64"/><path id="_Path_2" data-name="&lt;Path&gt;" d="M17.45,7C21.88,1,27.13.18,32.82,0s11.68,2.89,14,8.3a21.53,21.53,0,0,1,1.37,8.56,36,36,0,0,1-2,12.81,18.67,18.67,0,0,1-7.92,9.79,13,13,0,0,1-12.11.35,16.8,16.8,0,0,1-6.23-5.2,27.23,27.23,0,0,1-4.39-13.85S14,11.42,17.45,7Z"/></g><g class="cls-2"><path class="cls-3" d="M82.14-36.5a21.05,21.05,0,0,0-2.78-.18A20.94,20.94,0,0,0,58.65-18.54a20.93,20.93,0,0,0,18,23.49A20.78,20.78,0,0,0,92.07.83a20.77,20.77,0,0,0,8-13.84A20.77,20.77,0,0,0,96-28.47,20.77,20.77,0,0,0,82.14-36.5Z"/><path class="cls-3" d="M102.62-17.46l4-1q-.08-.8-.21-1.59h-4.09a23.16,23.16,0,0,0-.89-3.32l3.55-2q-.29-.75-.61-1.48l-4,1.06a23.4,23.4,0,0,0-1.72-3l2.9-2.88q-.47-.65-1-1.28L97-31a23.4,23.4,0,0,0-2.42-2.44l2.06-3.54q-.62-.51-1.27-1L92.51-35a23.16,23.16,0,0,0-3-1.73l1.07-3.95q-.73-.33-1.48-.62l-2,3.55a23.31,23.31,0,0,0-3.32-.89l0-4.09-.8-.12-.8-.09-1.06,4a23.31,23.31,0,0,0-3.44,0l-1-4q-.8.08-1.59.21v4.09a23.14,23.14,0,0,0-3.32.89l-2-3.55q-.75.29-1.48.61l1.06,4a23.39,23.39,0,0,0-3,1.72L63.42-38q-.65.47-1.28,1l2,3.54A23.39,23.39,0,0,0,61.75-31l-3.54-2.06q-.51.62-1,1.27l2.9,2.89a23.16,23.16,0,0,0-1.73,3L54.45-27q-.33.73-.62,1.48l3.55,2a23.32,23.32,0,0,0-.89,3.32l-4.09,0q-.06.4-.12.8t-.09.8l4,1.06a23.32,23.32,0,0,0,0,3.44l-4,1q.08.8.21,1.59h4.09a23.16,23.16,0,0,0,.89,3.32l-3.55,2q.29.75.61,1.48l4-1.06a23.4,23.4,0,0,0,1.72,3L57.19.18q.47.65,1,1.28l3.54-2a23.4,23.4,0,0,0,2.42,2.44L62.07,5.39q.62.51,1.27,1l2.89-2.9a23.15,23.15,0,0,0,3,1.73L68.13,9.15q.73.33,1.48.62l2-3.55A23.31,23.31,0,0,0,75,7.11l0,4.09.8.12.8.09,1.06-4a23.32,23.32,0,0,0,3.44,0l1,4q.8-.08,1.59-.21V7.13A23.15,23.15,0,0,0,87,6.24l2,3.55q.75-.29,1.48-.61l-1.06-4a23.39,23.39,0,0,0,3-1.72l2.88,2.9q.65-.47,1.28-1l-2-3.54A23.39,23.39,0,0,0,97-.53l3.54,2.06q.51-.62,1-1.27l-2.9-2.89a23.16,23.16,0,0,0,1.73-3l3.95,1.07q.33-.73.62-1.48l-3.55-2a23.32,23.32,0,0,0,.89-3.32l4.09,0q.06-.4.12-.8t.09-.8l-4-1.06A23.33,23.33,0,0,0,102.62-17.46Zm-1.47,4.58A21.82,21.82,0,0,1,92.71,1.67a21.79,21.79,0,0,1-13.3,4.52A22.31,22.31,0,0,1,76.47,6,22,22,0,0,1,57.6-18.67,22,22,0,0,1,82.27-37.54a21.82,21.82,0,0,1,14.54,8.43A21.82,21.82,0,0,1,101.14-12.87Z"/></g></svg>