<svg id="icons" xmlns="http://www.w3.org/2000/svg" viewBox="0 0 64 64"><title>changa_cigarette</title><g id="_Group_" data-name="&lt;Group&gt;"><g id="_Rectangle_" data-name="&lt;Rectangle&gt;"><path id="_Compound_Path_" data-name="&lt;Compound Path&gt;" d="M55.18,45.44v3.21H1.7V45.44H55.18m1-1.5H.67a.47.47,0,0,0-.47.47v5.28a.47.47,0,0,0,.47.47H56.21a.47.47,0,0,0,.47-.47V44.41a.47.47,0,0,0-.47-.47Z"/></g><rect id="_Rectangle_2" data-name="&lt;Rectangle&gt;" x="57.2" y="43.94" width="2.73" height="6.21" rx="0.37" ry="0.37"/><rect id="_Rectangle_3" data-name="&lt;Rectangle&gt;" x="60.75" y="43.94" width="2.73" height="6.21" rx="0.32" ry="0.32"/></g><g id="_Group_2" data-name="&lt;Group&gt;"><g id="_Group_3" data-name="&lt;Group&gt;"><path id="_Path_" data-name="&lt;Path&gt;" d="M62.35,42.51a7.26,7.26,0,0,0-1.9-7.34c-1.81-1.69-4.3-1.79-5.68-4-1.25-2-2.14-3.9-4.05-5.41a12.75,12.75,0,0,0-6.92-2.67c-.28,0-.6.52-.87.5A12.79,12.79,0,0,1,49.57,26c2.06,1.54,3,3.51,4.33,5.63s3.6,2.26,5.41,3.78A7.22,7.22,0,0,1,61.48,43c.06-.22.81-.27.87-.5Z"/></g></g><g id="_Group_4" data-name="&lt;Group&gt;"><g id="_Group_5" data-name="&lt;Group&gt;"><path id="_Path_2" data-name="&lt;Path&gt;" d="M58.39,42.55c-.31-2.23-.77-4.7-3.1-5.63s-5.26.14-7.71-1c-4.49-2.11-3.07-8.78-8.94-9-.29,0-.59.51-.87.5a5.42,5.42,0,0,1,5.1,3.65c.86,2.24,1.49,4.25,3.84,5.35s5,.11,7.36.88c2.57.82,3.12,3.39,3.45,5.77,0-.12.88-.37.87-.5Z"/></g></g><rect id="_Rectangle_4" data-name="&lt;Rectangle&gt;" x="1.08" y="44.71" width="18.1" height="4.63"/></svg>