<svg id="icons" xmlns="http://www.w3.org/2000/svg" viewBox="0 0 64 64"><title>changa_asterix-o</title><path d="M32,1a3.93,3.93,0,0,1,3.93,3.93V25.2l1.5-.87,16.05-9.27a3.9,3.9,0,0,1,1.95-.52,4,4,0,0,1,3.42,2,3.94,3.94,0,0,1-1.44,5.36L41.35,31.13l-1.5.87,1.5.87,16.05,9.27a3.93,3.93,0,0,1-3.93,6.8L37.43,39.67l-1.5-.87V59.07a3.93,3.93,0,0,1-7.85,0V38.8l-1.5.87L10.52,48.94a3.9,3.9,0,0,1-1.95.52,3.92,3.92,0,0,1-2-7.32l16.05-9.27,1.5-.87-1.5-.87L6.59,21.86a3.93,3.93,0,0,1,3.93-6.8l16.05,9.27,1.5.87V4.93A3.93,3.93,0,0,1,32,1m0-1a4.94,4.94,0,0,0-4.93,4.93V23.47L11,14.2a4.89,4.89,0,0,0-2.45-.66,4.92,4.92,0,0,0-2.48,9.19L22.15,32,6.09,41.27a4.92,4.92,0,0,0,2.48,9.19A4.89,4.89,0,0,0,11,49.8l16.05-9.27V59.07a4.93,4.93,0,0,0,9.85,0V40.53L53,49.8a4.89,4.89,0,0,0,2.45.66,4.92,4.92,0,0,0,2.48-9.19L41.85,32l16.05-9.27a4.92,4.92,0,0,0-2.48-9.19A4.89,4.89,0,0,0,53,14.2L36.93,23.47V4.93A4.94,4.94,0,0,0,32,0Z"/></svg>