<svg id="icons" xmlns="http://www.w3.org/2000/svg" viewBox="0 0 64 64"><title>changa_github</title><g id="_Group_" data-name="&lt;Group&gt;"><path id="_Path_" data-name="&lt;Path&gt;" d="M37.86,47.18c1.38-.27,2.67-.47,3.93-.79,3.79-1,7-2.81,8.73-6.47a17.32,17.32,0,0,0,1.19-12.06,10.58,10.58,0,0,0-2.32-4.28,1,1,0,0,1-.23-1.07,11.1,11.1,0,0,0-.37-7.32,1,1,0,0,0-.76-.5,9.24,9.24,0,0,0-4.27,1.11c-1.17.57-2.28,1.28-3.44,1.88a1.39,1.39,0,0,1-.89.14,31.16,31.16,0,0,0-14.95,0,1.5,1.5,0,0,1-1-.21,18.75,18.75,0,0,0-6.6-2.86l-.22,0c-1.27-.18-1.4-.11-1.77,1.1a11.5,11.5,0,0,0-.09,6.91.81.81,0,0,1-.13.66c-2.85,3.28-3.4,7.15-2.8,11.27A20.08,20.08,0,0,0,13,38.95c1.61,4.16,4.91,6.36,9.07,7.44,1.28.33,2.6.54,4,.81a7.54,7.54,0,0,0-1.87,3.9c0,.16-.27.34-.46.41-3.39,1.31-6.68.75-8.77-2.71a6.39,6.39,0,0,0-4.27-3.22,3.91,3.91,0,0,0-1.49,0c-.67.13-.77.51-.32,1a3.28,3.28,0,0,0,.74.64,8.67,8.67,0,0,1,3.55,4.38A6.9,6.9,0,0,0,19.54,56,40.22,40.22,0,0,0,24,55.9c0,1.94.05,4,0,6,0,1-1.14,1.51-2.34,1.12a28.6,28.6,0,0,1-7.55-3.74C4.57,52.53-.26,43.27.26,31.56A31.35,31.35,0,0,1,26,2.27,31.52,31.52,0,0,1,42.37,63c-1.58.52-2.49-.13-2.49-1.81q0-4,0-7.93A8.3,8.3,0,0,0,37.86,47.18Z"/></g></svg>