<svg id="icons" xmlns="http://www.w3.org/2000/svg" viewBox="0 0 64 64"><title>changa_lock-locked-o</title><g id="_Group_" data-name="&lt;Group&gt;"><path id="_Compound_Path_" data-name="&lt;Compound Path&gt;" d="M32,20.53a21,21,0,1,1-21,21,21,21,0,0,1,21-21M28.7,42.09V56.64H35V42.26a6.06,6.06,0,1,0-6.29-.17M32,19A22.49,22.49,0,1,0,54.49,41.51,22.51,22.51,0,0,0,32,19ZM30.2,55.14V41.19a4.61,4.61,0,1,1,3.29.1V55.14Z"/><path id="_Compound_Path_2" data-name="&lt;Compound Path&gt;" d="M33.15,1.5c7.18,0,13,6.29,13,14v5.4q-1-.69-2.08-1.29V15.53c0-6.59-4.9-11.94-10.93-11.94H30.85c-6,0-10.93,5.36-10.93,11.94v4.11q-1.07.59-2.08,1.29v-5.4c0-7.73,5.84-14,13-14h2.31m0-1.5H30.85c-8,0-14.51,7-14.51,15.53V24a23.59,23.59,0,0,1,5.08-3.47v-5c0-5.76,4.23-10.44,9.43-10.44h2.31c5.2,0,9.43,4.69,9.43,10.44v5A23.59,23.59,0,0,1,47.67,24V15.53C47.67,7,41.16,0,33.15,0Z"/></g></svg>