<svg id="icons" xmlns="http://www.w3.org/2000/svg" viewBox="0 0 64 64"><title>changa_keyboard</title><g id="_Group_" data-name="&lt;Group&gt;"><g id="_Group_2" data-name="&lt;Group&gt;"><path id="_Compound_Path_" data-name="&lt;Compound Path&gt;" d="M62.3,47.39H1.7A1.7,1.7,0,0,1,0,45.69V18.31a1.7,1.7,0,0,1,1.7-1.7H62.3a1.7,1.7,0,0,1,1.7,1.7V45.69A1.7,1.7,0,0,1,62.3,47.39ZM1.7,17.75a.57.57,0,0,0-.57.57V45.69a.57.57,0,0,0,.57.57H62.3a.57.57,0,0,0,.57-.57V18.31a.57.57,0,0,0-.57-.57Z"/></g><rect id="_Rectangle_" data-name="&lt;Rectangle&gt;" x="3.2" y="41.49" width="3.8" height="3.8"/><rect id="_Rectangle_2" data-name="&lt;Rectangle&gt;" x="8.08" y="41.49" width="3.8" height="3.8"/><rect id="_Rectangle_3" data-name="&lt;Rectangle&gt;" x="12.97" y="41.49" width="3.8" height="3.8"/><rect id="_Rectangle_4" data-name="&lt;Rectangle&gt;" x="17.85" y="41.49" width="3.8" height="3.8"/><rect id="_Rectangle_5" data-name="&lt;Rectangle&gt;" x="22.74" y="41.49" width="3.8" height="3.8"/><rect id="_Rectangle_6" data-name="&lt;Rectangle&gt;" x="19.79" y="41.49" width="24.75" height="3.8"/><rect id="_Rectangle_7" data-name="&lt;Rectangle&gt;" x="32.51" y="41.49" width="3.8" height="3.8"/><rect id="_Rectangle_8" data-name="&lt;Rectangle&gt;" x="37.4" y="41.49" width="3.8" height="3.8"/><rect id="_Rectangle_9" data-name="&lt;Rectangle&gt;" x="42.28" y="41.49" width="3.8" height="3.8"/><rect id="_Rectangle_10" data-name="&lt;Rectangle&gt;" x="47.17" y="41.49" width="3.8" height="3.8"/><rect id="_Rectangle_11" data-name="&lt;Rectangle&gt;" x="52.05" y="41.49" width="3.8" height="3.8"/><rect id="_Rectangle_12" data-name="&lt;Rectangle&gt;" x="56.94" y="41.49" width="3.8" height="3.8"/><rect id="_Rectangle_13" data-name="&lt;Rectangle&gt;" x="3.2" y="36.15" width="8.25" height="3.8"/><rect id="_Rectangle_14" data-name="&lt;Rectangle&gt;" x="8.08" y="36.15" width="3.8" height="3.8"/><rect id="_Rectangle_15" data-name="&lt;Rectangle&gt;" x="12.97" y="36.15" width="3.8" height="3.8"/><rect id="_Rectangle_16" data-name="&lt;Rectangle&gt;" x="17.85" y="36.15" width="3.8" height="3.8"/><rect id="_Rectangle_17" data-name="&lt;Rectangle&gt;" x="22.74" y="36.15" width="3.8" height="3.8"/><rect id="_Rectangle_18" data-name="&lt;Rectangle&gt;" x="27.63" y="36.15" width="3.8" height="3.8"/><rect id="_Rectangle_19" data-name="&lt;Rectangle&gt;" x="32.51" y="36.15" width="3.8" height="3.8"/><rect id="_Rectangle_20" data-name="&lt;Rectangle&gt;" x="37.4" y="36.15" width="3.8" height="3.8"/><rect id="_Rectangle_21" data-name="&lt;Rectangle&gt;" x="42.28" y="36.15" width="3.8" height="3.8"/><rect id="_Rectangle_22" data-name="&lt;Rectangle&gt;" x="47.17" y="36.15" width="3.8" height="3.8"/><rect id="_Rectangle_23" data-name="&lt;Rectangle&gt;" x="52.05" y="36.15" width="3.8" height="3.8"/><rect id="_Rectangle_24" data-name="&lt;Rectangle&gt;" x="56.94" y="36.15" width="3.8" height="3.8"/><rect id="_Rectangle_25" data-name="&lt;Rectangle&gt;" x="3.2" y="30.81" width="7.33" height="3.8"/><rect id="_Rectangle_26" data-name="&lt;Rectangle&gt;" x="8.08" y="30.81" width="3.8" height="3.8"/><rect id="_Rectangle_27" data-name="&lt;Rectangle&gt;" x="12.97" y="30.81" width="3.8" height="3.8"/><rect id="_Rectangle_28" data-name="&lt;Rectangle&gt;" x="17.85" y="30.81" width="3.8" height="3.8"/><rect id="_Rectangle_29" data-name="&lt;Rectangle&gt;" x="22.74" y="30.81" width="3.8" height="3.8"/><rect id="_Rectangle_30" data-name="&lt;Rectangle&gt;" x="27.63" y="30.81" width="3.8" height="3.8"/><rect id="_Rectangle_31" data-name="&lt;Rectangle&gt;" x="32.51" y="30.81" width="3.8" height="3.8"/><rect id="_Rectangle_32" data-name="&lt;Rectangle&gt;" x="37.4" y="30.81" width="3.8" height="3.8"/><rect id="_Rectangle_33" data-name="&lt;Rectangle&gt;" x="42.28" y="30.81" width="3.8" height="3.8"/><rect id="_Rectangle_34" data-name="&lt;Rectangle&gt;" x="47.17" y="30.81" width="3.8" height="3.8"/><rect id="_Rectangle_35" data-name="&lt;Rectangle&gt;" x="52.05" y="30.81" width="3.8" height="3.8"/><rect id="_Rectangle_36" data-name="&lt;Rectangle&gt;" x="53.77" y="30.81" width="6.96" height="3.8"/><rect id="_Rectangle_37" data-name="&lt;Rectangle&gt;" x="3.2" y="25.47" width="3.8" height="3.8"/><rect id="_Rectangle_38" data-name="&lt;Rectangle&gt;" x="8.08" y="25.47" width="3.8" height="3.8"/><rect id="_Rectangle_39" data-name="&lt;Rectangle&gt;" x="12.97" y="25.47" width="3.8" height="3.8"/><rect id="_Rectangle_40" data-name="&lt;Rectangle&gt;" x="17.85" y="25.47" width="3.8" height="3.8"/><rect id="_Rectangle_41" data-name="&lt;Rectangle&gt;" x="22.74" y="25.47" width="3.8" height="3.8"/><rect id="_Rectangle_42" data-name="&lt;Rectangle&gt;" x="27.63" y="25.47" width="3.8" height="3.8"/><rect id="_Rectangle_43" data-name="&lt;Rectangle&gt;" x="32.51" y="25.47" width="3.8" height="3.8"/><rect id="_Rectangle_44" data-name="&lt;Rectangle&gt;" x="37.4" y="25.47" width="3.8" height="3.8"/><rect id="_Rectangle_45" data-name="&lt;Rectangle&gt;" x="42.28" y="25.47" width="3.8" height="3.8"/><rect id="_Rectangle_46" data-name="&lt;Rectangle&gt;" x="47.17" y="25.47" width="3.8" height="3.8"/><rect id="_Rectangle_47" data-name="&lt;Rectangle&gt;" x="52.05" y="25.47" width="3.8" height="3.8"/><rect id="_Rectangle_48" data-name="&lt;Rectangle&gt;" x="56.94" y="25.47" width="3.8" height="3.8"/><rect id="_Rectangle_49" data-name="&lt;Rectangle&gt;" x="3.2" y="20.13" width="3.8" height="3.8"/><rect id="_Rectangle_50" data-name="&lt;Rectangle&gt;" x="8.08" y="20.13" width="3.8" height="3.8"/><rect id="_Rectangle_51" data-name="&lt;Rectangle&gt;" x="12.97" y="20.13" width="3.8" height="3.8"/><rect id="_Rectangle_52" data-name="&lt;Rectangle&gt;" x="17.85" y="20.13" width="3.8" height="3.8"/><rect id="_Rectangle_53" data-name="&lt;Rectangle&gt;" x="22.74" y="20.13" width="3.8" height="3.8"/><rect id="_Rectangle_54" data-name="&lt;Rectangle&gt;" x="27.63" y="20.13" width="3.8" height="3.8"/><rect id="_Rectangle_55" data-name="&lt;Rectangle&gt;" x="32.51" y="20.13" width="3.8" height="3.8"/><rect id="_Rectangle_56" data-name="&lt;Rectangle&gt;" x="37.4" y="20.13" width="3.8" height="3.8"/><rect id="_Rectangle_57" data-name="&lt;Rectangle&gt;" x="42.28" y="20.13" width="3.8" height="3.8"/><rect id="_Rectangle_58" data-name="&lt;Rectangle&gt;" x="47.17" y="20.13" width="3.8" height="3.8"/><rect id="_Rectangle_59" data-name="&lt;Rectangle&gt;" x="52.05" y="20.13" width="3.8" height="3.8"/><rect id="_Rectangle_60" data-name="&lt;Rectangle&gt;" x="56.94" y="20.13" width="3.8" height="3.8"/></g></svg>