<svg id="icons" xmlns="http://www.w3.org/2000/svg" viewBox="0 0 64 64"><title>changa_search</title><g id="_Group_" data-name="&lt;Group&gt;"><g id="_Group_2" data-name="&lt;Group&gt;"><path d="M24.67,9.68A14.92,14.92,0,1,1,9.75,24.6,14.93,14.93,0,0,1,24.67,9.68m0-1.5A16.42,16.42,0,1,0,41.09,24.6,16.42,16.42,0,0,0,24.67,8.18Z"/></g><path id="_Path_" data-name="&lt;Path&gt;" d="M33.18,37.59a65.51,65.51,0,0,0,7.21,10,26.1,26.1,0,0,0,10,7.07,4,4,0,0,0,3.45.08,3.42,3.42,0,0,0,1.35-2.92c.07-3.29-2.12-6.17-4.44-8.51A48.59,48.59,0,0,0,37.35,33.8"/></g></svg>