<svg id="icons" xmlns="http://www.w3.org/2000/svg" viewBox="0 0 64 64"><title>changa_circle-aim</title><path id="_Compound_Path_" data-name="&lt;Compound Path&gt;" d="M32,4.88A27.13,27.13,0,1,1,4.88,32,27.16,27.16,0,0,1,32,4.88m0-1.5A28.63,28.63,0,1,0,60.63,32,28.62,28.62,0,0,0,32,3.38Z"/><polygon points="33.52 13 30.47 13 29.7 0 34.29 0 33.52 13"/><polygon points="51 33.52 51 30.47 64 29.7 64 34.3 51 33.52"/><polygon points="30.48 51 33.53 51 34.3 64 29.7 64 30.48 51"/><polygon points="13 30.48 13 33.53 0 34.3 0 29.7 13 30.48"/></svg>