<svg id="icons" xmlns="http://www.w3.org/2000/svg" viewBox="0 0 64 64"><title>changa_telephone-square</title><path id="_Compound_Path_" data-name="&lt;Compound Path&gt;" d="M58.13,0H5.88A5.88,5.88,0,0,0,0,5.88V58.13A5.88,5.88,0,0,0,5.88,64H58.13A5.88,5.88,0,0,0,64,58.13V5.88A5.87,5.87,0,0,0,58.13,0ZM17.37,13.62c.87-.69,1.72-1.4,2.6-2.09a1.5,1.5,0,0,1,2.33.27l6.39,7.92a1.6,1.6,0,0,1-.28,2.57l-2.73,2.17L17.11,13.78A2.28,2.28,0,0,0,17.37,13.62Zm26.51,39a10.93,10.93,0,0,1-5.7-.25A23,23,0,0,1,30.07,48a51.93,51.93,0,0,1-9.54-10.4,42.36,42.36,0,0,1-4.6-7.92,20.94,20.94,0,0,1-2-8.92,9.89,9.89,0,0,1,1.45-5.24c.1-.15.21-.29.32-.43l.21-.27,8.45,10.61a7.47,7.47,0,0,0-.6,1.19,3,3,0,0,0,.34,2.07,23.21,23.21,0,0,0,2.51,4.11,47.92,47.92,0,0,0,7.22,8,7.37,7.37,0,0,0,.89.65,1.91,1.91,0,0,0,2.41,0L45.4,51.92A3.52,3.52,0,0,1,43.88,52.63Zm5.45-4c-.91.74-1.83,1.46-2.79,2.22L38.21,40.4l1.23-1L41,38.18a1.54,1.54,0,0,1,2.42.27l6.16,7.75A1.54,1.54,0,0,1,49.33,48.65Z"/></svg>