<svg id="icons" xmlns="http://www.w3.org/2000/svg" viewBox="0 0 64 64"><title>changa_printer</title><g id="_Group_" data-name="&lt;Group&gt;"><rect id="_Path_" data-name="&lt;Path&gt;" x="22.29" y="47.97" width="19.42" height="1.09"/><rect id="_Path_2" data-name="&lt;Path&gt;" x="22.29" y="41.68" width="19.42" height="1.09"/><rect id="_Path_3" data-name="&lt;Path&gt;" x="22.29" y="44.82" width="19.42" height="1.09"/><path id="_Compound_Path_" data-name="&lt;Compound Path&gt;" d="M63,21.12H50.58V18.19a1,1,0,0,0-1-1H46.94V10H17.06v7.16H14.42a1,1,0,0,0-1,1v2.93H1a1,1,0,0,0-1,1v21.1a1,1,0,0,0,1,1H17.06v9.54H47V44.23H63a1,1,0,0,0,1-1V22.12A1,1,0,0,0,63,21.12ZM45.59,52.44H18.41V38.31H45.59ZM23,29.75V27.17H41v2.58Zm22.57-5.16H18.41v-13H45.59Z"/></g></svg>