<svg id="icons" xmlns="http://www.w3.org/2000/svg" viewBox="0 0 64 64"><title>changa_photo</title><path id="_Compound_Path_" data-name="&lt;Compound Path&gt;" d="M58.12,1.5A4.38,4.38,0,0,1,62.5,5.88V58.13a4.38,4.38,0,0,1-4.37,4.38H5.87A4.38,4.38,0,0,1,1.5,58.13V5.88A4.38,4.38,0,0,1,5.87,1.5H58.12m0-1.5H5.87A5.88,5.88,0,0,0,0,5.88V58.13A5.88,5.88,0,0,0,5.87,64H58.12A5.88,5.88,0,0,0,64,58.13V5.88A5.87,5.87,0,0,0,58.12,0Z"/><circle cx="21.75" cy="18.62" r="5.48"/><path d="M6.72,49.57,17.84,32.75a.83.83,0,0,1,1.24-.16L24,36.89a.83.83,0,0,0,1.22-.14L36.91,20.6a.83.83,0,0,1,1.36,0l19,28.94a.83.83,0,0,1-.69,1.28H7.41A.83.83,0,0,1,6.72,49.57Z"/></svg>