<svg id="icons" xmlns="http://www.w3.org/2000/svg" viewBox="0 0 64 64"><title>changa_instagram-circle-o</title><path id="_Compound_Path_" data-name="&lt;Compound Path&gt;" d="M32,1.5A30.5,30.5,0,1,1,1.5,32,30.53,30.53,0,0,1,32,1.5M32,0A32,32,0,1,0,64,32,32,32,0,0,0,32,0Z"/><path id="_Compound_Path_2" data-name="&lt;Compound Path&gt;" d="M45.39,15.71H23.47a.39.39,0,0,1,.17,0,2.21,2.21,0,0,0-.33,0V22.1a.36.36,0,1,1-.72,0V15.71h-.76V22.1a.36.36,0,1,1-.72,0V15.71h-.76V22.1a.36.36,0,1,1-.72,0V15.71h-.83a3,3,0,0,0-3,3V45.3a3,3,0,0,0,3,3h26.6a3,3,0,0,0,3-3V18.7A3,3,0,0,0,45.39,15.71Zm-13.3,8.86A7.43,7.43,0,1,1,24.66,32,7.43,7.43,0,0,1,32.09,24.57ZM45.79,43.9a2.29,2.29,0,0,1-2.29,2.29H20.68a2.29,2.29,0,0,1-2.29-2.29V29.26A2.29,2.29,0,0,1,20.68,27h2.2A10.49,10.49,0,1,0,41.3,27h2.2a2.29,2.29,0,0,1,2.29,2.29Zm0-20.44a1.12,1.12,0,0,1-1.12,1.12H40.38a1.12,1.12,0,0,1-1.12-1.12V19.17A1.12,1.12,0,0,1,40.38,18h4.28a1.12,1.12,0,0,1,1.12,1.12Z"/></svg>