<svg id="icons" xmlns="http://www.w3.org/2000/svg" viewBox="0 0 64 64"><title>changa_desktop</title><g id="_Group_" data-name="&lt;Group&gt;"><path id="_Compound_Path_" data-name="&lt;Compound Path&gt;" d="M32,38.58A4.44,4.44,0,1,0,36.44,43,4.44,4.44,0,0,0,32,38.58Zm0,6.36A1.92,1.92,0,1,1,33.92,43,1.92,1.92,0,0,1,32,44.94Z"/><path id="_Compound_Path_2" data-name="&lt;Compound Path&gt;" d="M49,0H15a1.35,1.35,0,0,0-1.34,1.34V62.66A1.35,1.35,0,0,0,15,64H49a1.35,1.35,0,0,0,1.34-1.34V1.34A1.35,1.35,0,0,0,49,0ZM19,8.7a1.35,1.35,0,0,1,1.34-1.34H43.51A1.35,1.35,0,0,1,44.85,8.7v5a1.35,1.35,0,0,1-1.34,1.34H20.38A1.35,1.35,0,0,1,19,13.73ZM44.82,58a1.35,1.35,0,0,1-1.34,1.34h-23A1.35,1.35,0,0,1,19.18,58V28.73a1.35,1.35,0,0,1,1.34-1.34h23a1.35,1.35,0,0,1,1.34,1.34Zm-1-37.67H20.13a1.09,1.09,0,0,1,0-2.18H43.87a1.09,1.09,0,1,1,0,2.18Z"/></g></svg>