<svg id="icons" xmlns="http://www.w3.org/2000/svg" viewBox="0 0 64 64"><title>changa_lock-locked</title><g id="_Group_" data-name="&lt;Group&gt;"><path id="_Compound_Path_" data-name="&lt;Compound Path&gt;" d="M32,19A22.49,22.49,0,1,0,54.49,41.51,22.51,22.51,0,0,0,32,19ZM33.49,41.3V55.14H30.2V41.19a4.61,4.61,0,1,1,3.29.1Z"/><path id="_Path_" data-name="&lt;Path&gt;" d="M21.42,20.54v-5c0-5.76,4.23-10.44,9.43-10.44h2.31c5.2,0,9.43,4.69,9.43,10.44v5A23.59,23.59,0,0,1,47.67,24V15.53C47.67,7,41.16,0,33.15,0H30.85c-8,0-14.51,7-14.51,15.53V24A23.59,23.59,0,0,1,21.42,20.54Z"/></g></svg>