<svg id="icons" xmlns="http://www.w3.org/2000/svg" viewBox="0 0 64 64"><title>changa_key-circle</title><g id="_Group_" data-name="&lt;Group&gt;"><circle id="_Path_" data-name="&lt;Path&gt;" cx="13.04" cy="32" r="3.74"/><path id="_Compound_Path_" data-name="&lt;Compound Path&gt;" d="M32,0A32,32,0,1,0,64,32,32,32,0,0,0,32,0ZM27,36.44a11.13,11.13,0,1,1-.43-9.76A24.43,24.43,0,0,1,27,36.44Zm25.31-.28L49.9,33.74l-2.42,2.42H45.32L42.9,33.74l-2.42,2.42H39l-3.29-3.29-3.29,3.29h-4.5a21.07,21.07,0,0,0,.14-5.69h26c.49,0,.89-.15.89-.34s-.4-.34-.89-.34H28c-.09-.7-.19-1.36-.3-2H55.5L58.3,32l-2.8,4.16Z"/></g></svg>