<svg id="icons" xmlns="http://www.w3.org/2000/svg" xmlns:xlink="http://www.w3.org/1999/xlink" viewBox="0 0 64 64"><defs><style>.cls-1{fill:none;}.cls-2{clip-path:url(#clip-path);}.cls-3{fill:#fff;}</style><clipPath id="clip-path"><circle class="cls-1" cx="32.06" cy="-51.91" r="31.94"/></clipPath></defs><title>changa_location</title><path id="_Compound_Path_" data-name="&lt;Compound Path&gt;" d="M32,.15A16.86,16.86,0,0,0,17.33,25.36L32,63.85,46.68,25.33A16.86,16.86,0,0,0,32,.15Zm.4,24.61a7.68,7.68,0,1,1,7.68-7.68A7.68,7.68,0,0,1,32.4,24.76Z"/><g class="cls-2"><path class="cls-3" d="M71-36.5a21.05,21.05,0,0,0-2.78-.18A20.94,20.94,0,0,0,47.53-18.54a20.93,20.93,0,0,0,18,23.49A20.78,20.78,0,0,0,81,.83,20.77,20.77,0,0,0,89-13,20.93,20.93,0,0,0,71-36.5ZM55.21-4c-1.67.4-3-1.52-3-1.52a21.87,21.87,0,0,1-2.71-12.74,19.48,19.48,0,0,1,6.45-11.61,2.24,2.24,0,0,1,3.48.46l4.42,10.15a6.12,6.12,0,0,1-.28,4.87C58.53-7,55.21-4,55.21-4ZM84.87-7.1a21.87,21.87,0,0,1-9.48,8.93,19.48,19.48,0,0,1-13.27.5A2.24,2.24,0,0,1,60.71-.88l6.39-9a6.12,6.12,0,0,1,4.31-2.29c8.94.45,13.2,1.75,13.2,1.75C85.81-9.26,84.87-7.1,84.87-7.1Zm-.33-9.49-11-1.21a6.12,6.12,0,0,1-4.09-2.66c-3.93-8-4.86-12.39-4.86-12.39.48-1.65,2.82-1.87,2.82-1.87a21.87,21.87,0,0,1,12.4,4,19.48,19.48,0,0,1,6.86,11.37A2.24,2.24,0,0,1,84.54-16.59Z"/><path class="cls-3" d="M91.5-17.46l4-1q-.08-.8-.21-1.59H91.16a23.16,23.16,0,0,0-.89-3.32l3.55-2q-.29-.75-.61-1.48l-4,1.06a23.4,23.4,0,0,0-1.72-3l2.9-2.88q-.47-.65-1-1.28l-3.54,2A23.4,23.4,0,0,0,83.5-33.4l2.06-3.54q-.62-.51-1.27-1L81.4-35a23.16,23.16,0,0,0-3-1.73l1.07-3.95Q78.77-41,78-41.31l-2,3.55a23.31,23.31,0,0,0-3.32-.89l0-4.09-.8-.12-.8-.09L70-39a23.31,23.31,0,0,0-3.44,0l-1-4q-.8.08-1.59.21v4.09a23.14,23.14,0,0,0-3.32.89l-2-3.55q-.75.29-1.48.61l1.06,4a23.39,23.39,0,0,0-3,1.72L52.3-38q-.65.47-1.28,1l2,3.54A23.38,23.38,0,0,0,50.63-31L47.1-33.08q-.51.62-1,1.27L49-28.91a23.15,23.15,0,0,0-1.73,3L43.34-27q-.33.73-.62,1.48l3.55,2a23.31,23.31,0,0,0-.89,3.32l-4.09,0q-.06.4-.12.8t-.09.8l4,1.06a23.32,23.32,0,0,0,0,3.44l-4,1q.08.8.21,1.59h4.09a23.15,23.15,0,0,0,.89,3.32l-3.55,2q.29.75.61,1.48l4-1.06A23.4,23.4,0,0,0,49-2.7L46.07.18q.47.65,1,1.28l3.54-2A23.4,23.4,0,0,0,53,1.85L51,5.39q.62.51,1.27,1l2.89-2.9a23.15,23.15,0,0,0,3,1.73L57,9.15q.73.33,1.48.62l2-3.55a23.31,23.31,0,0,0,3.32.89l0,4.09.8.12.8.09,1.06-4a23.32,23.32,0,0,0,3.44,0l1,4q.8-.08,1.59-.21V7.13a23.15,23.15,0,0,0,3.32-.89l2,3.55q.75-.29,1.48-.61l-1.06-4a23.39,23.39,0,0,0,3-1.72l2.88,2.9q.65-.47,1.28-1l-2-3.54A23.39,23.39,0,0,0,85.88-.53l3.54,2.06q.51-.62,1-1.27L87.5-2.63a23.16,23.16,0,0,0,1.73-3l3.95,1.07q.33-.73.62-1.48l-3.55-2a23.32,23.32,0,0,0,.89-3.32l4.09,0q.06-.4.12-.8t.09-.8l-4-1.06A23.31,23.31,0,0,0,91.5-17.46ZM90-12.87A21.82,21.82,0,0,1,81.6,1.67,21.79,21.79,0,0,1,68.3,6.19,22.31,22.31,0,0,1,65.36,6,22,22,0,0,1,46.49-18.67,22,22,0,0,1,71.16-37.54,22,22,0,0,1,90-12.87Z"/><path class="cls-3" d="M-1.86-36.5a21.05,21.05,0,0,0-2.78-.18A20.94,20.94,0,0,0-25.35-18.54a20.93,20.93,0,0,0,18,23.49A20.78,20.78,0,0,0,8.07.83,20.77,20.77,0,0,0,16.1-13,20.77,20.77,0,0,0,12-28.47,20.77,20.77,0,0,0-1.86-36.5Z"/><path class="cls-3" d="M18.62-17.46l4-1q-.08-.8-.21-1.59H18.27a23.16,23.16,0,0,0-.89-3.32l3.55-2q-.29-.75-.61-1.48l-4,1.06a23.4,23.4,0,0,0-1.72-3l2.9-2.88q-.47-.65-1-1.28L13-31a23.4,23.4,0,0,0-2.42-2.44l2.06-3.54q-.62-.51-1.27-1L8.51-35a23.16,23.16,0,0,0-3-1.73l1.07-3.95q-.73-.33-1.48-.62l-2,3.55a23.31,23.31,0,0,0-3.32-.89l0-4.09-.8-.12-.8-.09-1.06,4a23.31,23.31,0,0,0-3.44,0l-1-4q-.8.08-1.59.21v4.09a23.14,23.14,0,0,0-3.32.89l-2-3.55q-.75.29-1.48.61l1.06,4a23.39,23.39,0,0,0-3,1.72L-20.58-38q-.65.47-1.28,1l2,3.54A23.39,23.39,0,0,0-22.25-31l-3.54-2.06q-.51.62-1,1.27l2.9,2.89a23.16,23.16,0,0,0-1.73,3L-29.55-27q-.33.73-.62,1.48l3.55,2a23.32,23.32,0,0,0-.89,3.32l-4.09,0q-.06.4-.12.8t-.09.8l4,1.06a23.32,23.32,0,0,0,0,3.44l-4,1q.08.8.21,1.59h4.09a23.16,23.16,0,0,0,.89,3.32l-3.55,2q.29.75.61,1.48l4-1.06a23.4,23.4,0,0,0,1.72,3L-26.81.18q.47.65,1,1.28l3.54-2a23.4,23.4,0,0,0,2.42,2.44l-2.06,3.54q.62.51,1.27,1l2.89-2.9a23.15,23.15,0,0,0,3,1.73l-1.07,3.95q.73.33,1.48.62l2-3.55A23.31,23.31,0,0,0-9,7.11l0,4.09.8.12.8.09,1.06-4a23.32,23.32,0,0,0,3.44,0l1,4q.8-.08,1.59-.21V7.13A23.15,23.15,0,0,0,3,6.24L5,9.79q.75-.29,1.48-.61l-1.06-4a23.39,23.39,0,0,0,3-1.72l2.88,2.9q.65-.47,1.28-1l-2-3.54A23.39,23.39,0,0,0,13-.53l3.54,2.06q.51-.62,1-1.27l-2.9-2.89a23.16,23.16,0,0,0,1.73-3l3.95,1.07q.33-.73.62-1.48l-3.55-2a23.32,23.32,0,0,0,.89-3.32l4.09,0q.06-.4.12-.8t.09-.8l-4-1.06A23.33,23.33,0,0,0,18.62-17.46Zm-1.47,4.58A21.82,21.82,0,0,1,8.71,1.67,21.79,21.79,0,0,1-4.58,6.19,22.31,22.31,0,0,1-7.53,6,22,22,0,0,1-26.4-18.67,22,22,0,0,1-1.73-37.54a21.82,21.82,0,0,1,14.54,8.43A21.82,21.82,0,0,1,17.14-12.87Z"/></g></svg>