<svg id="icons" xmlns="http://www.w3.org/2000/svg" viewBox="0 0 64 64"><title>changa_telephone</title><g id="_Group_" data-name="&lt;Group&gt;"><path id="_Path_" data-name="&lt;Path&gt;" d="M7.52,5.78,20.38,21.92a11.36,11.36,0,0,0-.92,1.81A4.51,4.51,0,0,0,20,26.88a35.31,35.31,0,0,0,3.81,6.25,72.91,72.91,0,0,0,11,12.23,11.21,11.21,0,0,0,1.36,1,2.91,2.91,0,0,0,3.67.07L52.39,62.31a5.36,5.36,0,0,1-2.31,1.08A16.63,16.63,0,0,1,41.4,63a35,35,0,0,1-12.33-6.73A79,79,0,0,1,14.55,40.45a64.44,64.44,0,0,1-7-12.06,31.85,31.85,0,0,1-3-13.57,15,15,0,0,1,2.2-8c.15-.23.32-.44.48-.66l.33-.41"/><path id="_Path_2" data-name="&lt;Path&gt;" d="M22.39,20.55,9.34,4.28A3.47,3.47,0,0,0,9.74,4C11.05,3,12.36,1.91,13.68.87a2.29,2.29,0,0,1,3.55.41L27,13.33c1.19,1.48,1,2.74-.43,3.91l-4.15,3.3"/><path id="_Path_3" data-name="&lt;Path&gt;" d="M54.12,60.7,41.45,44.78l1.88-1.5L45.7,41.4a2.34,2.34,0,0,1,3.68.41q4.7,5.89,9.37,11.79a2.34,2.34,0,0,1-.39,3.73c-1.38,1.12-2.79,2.22-4.25,3.37"/></g></svg>