<svg id="icons" xmlns="http://www.w3.org/2000/svg" viewBox="0 0 64 64"><title>changa_email-circle-o</title><g id="_Group_" data-name="&lt;Group&gt;"><path d="M32,1.5A30.5,30.5,0,1,1,1.5,32,30.53,30.53,0,0,1,32,1.5M32,0A32,32,0,1,0,64,32,32,32,0,0,0,32,0Z"/></g><g id="_Group_2" data-name="&lt;Group&gt;"><polygon id="_Path_" data-name="&lt;Path&gt;" points="52.16 19.72 52.16 19.72 52.16 19.72 52.16 19.72"/><polygon id="_Path_2" data-name="&lt;Path&gt;" points="50.75 19.72 13.25 19.72 32 31.14 50.75 19.72"/><polygon id="_Path_3" data-name="&lt;Path&gt;" points="51.01 44.28 35.17 30.92 32 32.86 28.82 30.92 12.99 44.28 51.01 44.28"/><polygon id="_Path_4" data-name="&lt;Path&gt;" points="52.16 43.31 52.16 20.58 36.51 30.11 52.16 43.31"/><polygon id="_Path_5" data-name="&lt;Path&gt;" points="11.84 19.72 11.84 19.72 11.84 19.72 11.84 19.72"/><polygon id="_Path_6" data-name="&lt;Path&gt;" points="11.84 44.28 11.84 44.28 11.84 44.28 11.84 44.28"/><polygon id="_Path_7" data-name="&lt;Path&gt;" points="52.16 44.28 52.16 44.28 52.16 44.28 52.16 44.28"/><polygon id="_Path_8" data-name="&lt;Path&gt;" points="27.49 30.11 11.84 20.58 11.84 43.31 27.49 30.11"/></g></svg>