<svg id="icons" xmlns="http://www.w3.org/2000/svg" viewBox="0 0 64 64"><title>changa_telephone-o</title><g id="_Group_" data-name="&lt;Group&gt;"><path id="_Compound_Path_" data-name="&lt;Compound Path&gt;" d="M7.6,8.28l11,13.78A6,6,0,0,0,18,23.31a5.91,5.91,0,0,0,.59,4.18,36.49,36.49,0,0,0,4,6.52A74.79,74.79,0,0,0,33.79,46.48a12.78,12.78,0,0,0,1.54,1.13,5.14,5.14,0,0,0,2.79.93,3.93,3.93,0,0,0,1.29-.22l10.69,13.5-.38.1a12.65,12.65,0,0,1-3.06.37,17.76,17.76,0,0,1-4.84-.74A33.14,33.14,0,0,1,30,55.1,76.69,76.69,0,0,1,15.77,39.58,62.8,62.8,0,0,1,8.93,27.8,30.16,30.16,0,0,1,6,14.86,13.9,13.9,0,0,1,7.6,8.28m-.08-2.5-.33.41c-.16.22-.34.43-.48.66a15,15,0,0,0-2.2,8,31.85,31.85,0,0,0,3,13.57,64.45,64.45,0,0,0,7,12.06A79,79,0,0,0,29.07,56.27,35,35,0,0,0,41.4,63a19.33,19.33,0,0,0,5.25.8,14.07,14.07,0,0,0,3.42-.41,5.36,5.36,0,0,0,2.31-1.08L39.81,46.42a2.73,2.73,0,0,1-1.69.63,3.73,3.73,0,0,1-2-.69,11.21,11.21,0,0,1-1.36-1,72.91,72.91,0,0,1-11-12.23A35.31,35.31,0,0,1,20,26.88a4.51,4.51,0,0,1-.52-3.14,11.36,11.36,0,0,1,.92-1.81L7.52,5.78Z"/><path id="_Compound_Path_2" data-name="&lt;Compound Path&gt;" d="M15.33,1.7c.28,0,.58.32.74.52l9.72,12.05a1.62,1.62,0,0,1,.46,1,1.6,1.6,0,0,1-.65.83l-2.27,1.8-.71.57L11.49,4.56,12.22,4,14.61,2a1.31,1.31,0,0,1,.72-.34m0-1.5a2.68,2.68,0,0,0-1.65.66C12.36,1.91,11.05,3,9.74,4a3.47,3.47,0,0,1-.4.24l13,16.27,4.15-3.3c1.47-1.17,1.62-2.44.43-3.91L17.24,1.28A2.48,2.48,0,0,0,15.33.2Z"/><path id="_Compound_Path_3" data-name="&lt;Compound Path&gt;" d="M47.44,42.19c.29,0,.61.35.77.55q4.7,5.89,9.37,11.79c.6.76.58,1-.16,1.64-1,.77-1.91,1.53-2.9,2.31l-.16.12-6.1-7.67L43.56,45l.71-.57,2.36-1.88a1.5,1.5,0,0,1,.81-.39m0-1.5a2.84,2.84,0,0,0-1.74.71l-2.37,1.88-1.88,1.5L54.12,60.7c1.46-1.16,2.86-2.25,4.25-3.37a2.34,2.34,0,0,0,.39-3.73q-4.68-5.91-9.37-11.79a2.52,2.52,0,0,0-1.94-1.12Z"/></g></svg>