<svg id="icons" xmlns="http://www.w3.org/2000/svg" viewBox="0 0 64 64"><title>changa_facebook-circle-o</title><g id="_Group_" data-name="&lt;Group&gt;"><path d="M32,1.5A30.5,30.5,0,1,1,1.5,32,30.53,30.53,0,0,1,32,1.5M32,0A32,32,0,1,0,64,32,32,32,0,0,0,32,0Z"/></g><g id="_Group_2" data-name="&lt;Group&gt;"><path id="_Path_" data-name="&lt;Path&gt;" d="M35.22,52.86v-19h.52c1.8,0,3.61,0,5.41,0,.37,0,.48-.12.53-.48q.39-3.25.84-6.49c0-.36,0-.48-.41-.48-2.16,0-4.31,0-6.47,0-.33,0-.42-.1-.41-.42,0-1.41,0-2.82,0-4.24a8.51,8.51,0,0,1,.14-1.52A2.33,2.33,0,0,1,37,18.35a5.18,5.18,0,0,1,1.35-.23c1.35,0,2.69,0,4,0,.25,0,.39,0,.38-.34,0-2,0-4,0-6,0-.2-.05-.31-.28-.32a35,35,0,0,0-7.16-.14,8.68,8.68,0,0,0-4.45,1.78,8.84,8.84,0,0,0-3.3,6.87c-.09,2,0,4-.05,6,0,.52,0,.52-.51.52H21.19v7.44h6.38v.45q0,9.06,0,18.12c0,.14,0,.28,0,.43"/></g></svg>