<svg id="icons" xmlns="http://www.w3.org/2000/svg" viewBox="0 0 64 64"><title>changa_barcode-frame</title><path d="M62,13.34a.5.5,0,0,1,.5.5V50.16a.5.5,0,0,1-.5.5H2a.5.5,0,0,1-.5-.5V13.84a.5.5,0,0,1,.5-.5H62m0-1.5H2a2,2,0,0,0-2,2V50.16a2,2,0,0,0,2,2H62a2,2,0,0,0,2-2V13.84a2,2,0,0,0-2-2Z"/><rect x="4.1" y="19.02" width="5.95" height="25.96"/><rect x="12.3" y="19.02" width="1.6" height="25.96"/><rect x="17.48" y="19.02" width="5.95" height="25.96"/><rect x="53.95" y="19.02" width="5.95" height="25.96"/><rect x="39.31" y="19.02" width="5.95" height="25.96"/><rect x="32.85" y="19.02" width="3.88" height="25.96"/><rect x="25.67" y="19.02" width="1.6" height="25.96"/><rect x="50.83" y="19.02" width="1.6" height="25.96"/><rect x="29.24" y="19.02" width="1.6" height="25.96"/><rect x="46.86" y="19.02" width="1.6" height="25.96"/></svg>