<svg id="icons" xmlns="http://www.w3.org/2000/svg" viewBox="0 0 64 64"><title>changa_user</title><g id="_Group_" data-name="&lt;Group&gt;"><path id="_Path_" data-name="&lt;Path&gt;" d="M3.75,64Q32,64,60.25,64a2,2,0,0,0,2.15-1.27l0-.93a6.36,6.36,0,0,1-.14-.65,33.65,33.65,0,0,0-4.2-12A31.92,31.92,0,0,0,53,42.61a34,34,0,0,0-6.16-4.85l-.15-.08-.13.13a30.17,30.17,0,0,1-6.07,4.88,15.42,15.42,0,0,1-8.76,2.47c-3.62,0-7.7-2.3-11.16-4.82C19.65,39.7,18.81,39,18,38.28l-.63-.56a29.54,29.54,0,0,0-6.81,5.34,32.61,32.61,0,0,0-5.07,7,34.05,34.05,0,0,0-3.33,9C2,59.66,1.9,60.36,1.77,61l-.17.87v.81A2,2,0,0,0,3.74,64"/><g id="_Group_2" data-name="&lt;Group&gt;"><path d="M17.45,7C21.88,1,27.13.18,32.82,0s11.68,2.89,14,8.3a21.53,21.53,0,0,1,1.37,8.56,36,36,0,0,1-2,12.81,18.67,18.67,0,0,1-7.92,9.79,13,13,0,0,1-12.11.35,16.8,16.8,0,0,1-6.23-5.2,27.23,27.23,0,0,1-4.39-13.85S14,11.42,17.45,7Z"/></g></g></svg>