<svg id="icons" xmlns="http://www.w3.org/2000/svg" viewBox="0 0 64 64"><title>changa_wifi-o</title><g id="_Group_" data-name="&lt;Group&gt;"><g id="_Group_2" data-name="&lt;Group&gt;"><path d="M32.33,5.61a43.41,43.41,0,0,1,7.53.74,42.8,42.8,0,0,1,17.54,7.58,43.45,43.45,0,0,1,4.19,3.49,2.39,2.39,0,0,1,.9,2,2.27,2.27,0,0,1-1.14,1.93,2.32,2.32,0,0,1-1.25.39A2.7,2.7,0,0,1,59,21.5a3.68,3.68,0,0,1-.94-.69,38.15,38.15,0,0,0-14.6-8.56A37.92,37.92,0,0,0,32,10.48c-1.15,0-2.32.05-3.49.15a37.94,37.94,0,0,0-22.37,9.9l-.07.06A5,5,0,0,1,5,21.44a2.54,2.54,0,0,1-1.13.29A2.25,2.25,0,0,1,3,21.55a2.28,2.28,0,0,1-1.5-1.87,2.39,2.39,0,0,1,1-2.37,42.84,42.84,0,0,1,21.2-10.9,44.31,44.31,0,0,1,5.38-.7c1-.07,2-.1,3.26-.11m-.86,13.12H32a28.84,28.84,0,0,1,8.88,1.34A30.32,30.32,0,0,1,50.34,25,30.94,30.94,0,0,1,53,27.33a2.31,2.31,0,0,1,.61,2.74,2.2,2.2,0,0,1-1.72,1.42,2.62,2.62,0,0,1-.55.06,2.59,2.59,0,0,1-1.78-.8,29.68,29.68,0,0,0-3.83-3.08,25.24,25.24,0,0,0-6.37-3A24.4,24.4,0,0,0,32,23.58c-.82,0-1.65,0-2.49.11a24.57,24.57,0,0,0-7.23,1.82,25.31,25.31,0,0,0-5.58,3.24c-.52.39-1,.81-1.43,1.22s-.79.72-1.19,1a2.53,2.53,0,0,1-1.55.54,2.37,2.37,0,0,1-2.06-1.21,2.42,2.42,0,0,1,.54-3.08A30.11,30.11,0,0,1,20.54,21a28.56,28.56,0,0,1,10.93-2.26M32,31.81a16.55,16.55,0,0,1,3.26.33,16.74,16.74,0,0,1,9.29,5.3A2.46,2.46,0,0,1,45.07,39a2.38,2.38,0,0,1-2.33,2.36h-.12a2.48,2.48,0,0,1-1.82-.86,12.36,12.36,0,0,0-3.6-2.66A11.94,11.94,0,0,0,32,36.67a12.23,12.23,0,0,0-2.2.2,11.82,11.82,0,0,0-6.53,3.54,2.7,2.7,0,0,1-1.4.87,3.19,3.19,0,0,1-.65.07,2.42,2.42,0,0,1-2.34-2.28,2,2,0,0,1,.34-1.33,12.94,12.94,0,0,1,3.36-3.06,16.45,16.45,0,0,1,6.16-2.55A17,17,0,0,1,32,31.81m.19,13.85a7.19,7.19,0,0,1,4.89,1.86,6.06,6.06,0,0,1,2,5.07,6.25,6.25,0,0,1-3,4.72,7.63,7.63,0,0,1-4.1,1.08,6.83,6.83,0,0,1-5.52-2.88,6,6,0,0,1,.89-8,7.21,7.21,0,0,1,4.89-1.85m.14-41.56c-1.35,0-2.35,0-3.36.12a46.12,46.12,0,0,0-5.56.72A44.34,44.34,0,0,0,1.47,16.23,3.92,3.92,0,0,0,.06,20a3.76,3.76,0,0,0,2.41,3,3.75,3.75,0,0,0,1.42.29,4,4,0,0,0,1.79-.44,6.47,6.47,0,0,0,1.51-1.15,36.44,36.44,0,0,1,21.48-9.51Q30.36,12,32,12a36.25,36.25,0,0,1,11,1.7,36.65,36.65,0,0,1,14,8.22,5,5,0,0,0,1.36,1,4.17,4.17,0,0,0,1.68.37A4,4,0,0,0,64,19.52a3.94,3.94,0,0,0-1.37-3.19,44.7,44.7,0,0,0-4.33-3.62A44.09,44.09,0,0,0,40.14,4.87a45,45,0,0,0-7.81-.77Zm-.85,13.12A30.22,30.22,0,0,0,20,19.6a31.49,31.49,0,0,0-10,6.57,3.9,3.9,0,0,0-.79,4.91,3.86,3.86,0,0,0,3.36,2A4,4,0,0,0,15,32.19c.91-.7,1.69-1.55,2.61-2.24a23.7,23.7,0,0,1,5.25-3.05,23,23,0,0,1,6.79-1.71q1.18-.11,2.36-.11a22.79,22.79,0,0,1,6.85,1,23.66,23.66,0,0,1,6,2.82,28.43,28.43,0,0,1,3.64,2.93A3.9,3.9,0,0,0,52.2,33,3.69,3.69,0,0,0,55,30.61a3.8,3.8,0,0,0-1-4.35,32.29,32.29,0,0,0-2.78-2.44,31.68,31.68,0,0,0-9.91-5.19A30.27,30.27,0,0,0,32,17.23h-.54ZM32,30.31a18.39,18.39,0,0,0-3.51.34,17.87,17.87,0,0,0-6.72,2.78A14.6,14.6,0,0,0,18,36.85a3.51,3.51,0,0,0-.62,2.3,3.92,3.92,0,0,0,3.84,3.7,4.67,4.67,0,0,0,1-.1,4.18,4.18,0,0,0,2.18-1.3,10.31,10.31,0,0,1,5.71-3.1A10.67,10.67,0,0,1,32,38.17a10.41,10.41,0,0,1,4.52,1,10.94,10.94,0,0,1,3.17,2.34,4,4,0,0,0,2.9,1.32h.2a3.93,3.93,0,0,0,2.84-6.44A18.41,18.41,0,0,0,32,30.31Zm.19,13.85a8.74,8.74,0,0,0-5.9,2.24,7.45,7.45,0,0,0-1.09,10,8.36,8.36,0,0,0,6.71,3.49,9.16,9.16,0,0,0,4.9-1.3A7.56,7.56,0,0,0,38.1,46.43a8.71,8.71,0,0,0-5.91-2.26Z"/></g></g></svg>