<svg id="icons" xmlns="http://www.w3.org/2000/svg" viewBox="0 0 64 64"><title>changa_mouse</title><g id="_Group_" data-name="&lt;Group&gt;"><g id="_Group_2" data-name="&lt;Group&gt;"><path id="_Path_" data-name="&lt;Path&gt;" d="M34,0h-.12A6.54,6.54,0,0,1,34,1.19v6.1a2.62,2.62,0,0,1,1,2v6a2.62,2.62,0,0,1-1,2v5.58A68.13,68.13,0,0,1,49.8,25.37V15.84A15.89,15.89,0,0,0,34,0Z"/><path id="_Path_2" data-name="&lt;Path&gt;" d="M29,15.31v-6a2.62,2.62,0,0,1,1-2V1.19A6.54,6.54,0,0,1,30.16,0H30A15.89,15.89,0,0,0,14.2,15.84v9.85A55.2,55.2,0,0,1,30,22.94V17.36A2.62,2.62,0,0,1,29,15.31Z"/><path id="_Path_3" data-name="&lt;Path&gt;" d="M14.2,28V48.16A15.89,15.89,0,0,0,30,64H34A15.89,15.89,0,0,0,49.8,48.16V27.64C32.93,22.93,20,26,14.2,28Z"/></g><rect id="_Rectangle_" data-name="&lt;Rectangle&gt;" x="30.32" y="7.49" width="3.36" height="9.67" rx="1" ry="1"/></g></svg>