<svg id="icons" xmlns="http://www.w3.org/2000/svg" viewBox="0 0 64 64"><title>changa_commenting-o</title><g id="_Group_" data-name="&lt;Group&gt;"><path d="M34.56,3.84c3.39,0,15,.57,22.11,7.89,4,4.16,6,9.88,5.79,17v.13c.05,1,1,24.52-24.79,26.7,0,0-2.39.19-5.29.19a31.93,31.93,0,0,1-8-.78l-.77-.22-.61.52a24.69,24.69,0,0,1-7.81,4.28c1.4-1.78,2.58-4.12,2-6.55L17,52.31,16.35,52C16.21,51.94,2.19,45.3,1.7,30.19v-.12l0-.12A20.62,20.62,0,0,1,5.75,14.58C10.9,8,20.28,4.44,33.65,3.86c0,0,.35,0,.91,0M47.35,39.09A7.09,7.09,0,1,0,40.26,32a7.1,7.1,0,0,0,7.09,7.09M32,39.09A7.09,7.09,0,1,0,24.88,32,7.1,7.1,0,0,0,32,39.09m-15.37,0A7.09,7.09,0,1,0,9.51,32a7.1,7.1,0,0,0,7.09,7.09m18-36.75c-.63,0-1,0-1,0C-4.91,4,.2,30.24.2,30.24.73,46.5,15.72,53.37,15.72,53.37c1,4-4.75,8.24-4.75,8.24l.7,0c6.21,0,12.29-5.2,12.29-5.2a34.09,34.09,0,0,0,8.42.83c3,0,5.41-.2,5.41-.2C65.45,54.72,64,28.78,64,28.78c.7-25.1-24.09-26.44-29.4-26.44ZM47.35,37.59A5.59,5.59,0,1,1,52.94,32a5.59,5.59,0,0,1-5.59,5.59ZM32,37.59A5.59,5.59,0,1,1,37.56,32,5.59,5.59,0,0,1,32,37.59Zm-15.37,0A5.59,5.59,0,1,1,22.19,32a5.59,5.59,0,0,1-5.59,5.59Z"/></g></svg>