<svg id="icons" xmlns="http://www.w3.org/2000/svg" viewBox="0 0 64 64"><title>changa_battery-empty</title><g id="_Group_" data-name="&lt;Group&gt;"><g id="_Group_2" data-name="&lt;Group&gt;"><path id="_Compound_Path_" data-name="&lt;Compound Path&gt;" d="M59.65,21.3a.89.89,0,0,1,.89.88l0,5.41v1.51h2v5h-2v7.76a.89.89,0,0,1-.89.89H2.39a.89.89,0,0,1-.89-.89V22.19a.89.89,0,0,1,.89-.89H59.65m0-1.5H2.39A2.39,2.39,0,0,0,0,22.19V41.81A2.39,2.39,0,0,0,2.39,44.2H59.65A2.39,2.39,0,0,0,62,41.81V35.55h2v-8H62l0-5.41a2.39,2.39,0,0,0-2.39-2.39Z"/></g></g></svg>