<svg id="icons" xmlns="http://www.w3.org/2000/svg" viewBox="0 0 64 64"><title>changa_web</title><g id="_Group_" data-name="&lt;Group&gt;"><path id="_Path_" data-name="&lt;Path&gt;" d="M22.31,16.06a46.36,46.36,0,0,0-3,11.29h26.5a46.28,46.28,0,0,0-3-11.29Z"/><path id="_Path_2" data-name="&lt;Path&gt;" d="M20.34,43.29H44.75A41.4,41.4,0,0,0,46.15,32H19A41.39,41.39,0,0,0,20.34,43.29Z"/><path id="_Path_3" data-name="&lt;Path&gt;" d="M31.79.11a69.2,69.2,0,0,0-7.37,11.31H40.75A68.94,68.94,0,0,0,33.44.14c-.48,0-1,0-1.44,0Z"/><path id="_Path_4" data-name="&lt;Path&gt;" d="M38.35.74a67.46,67.46,0,0,1,6.33,10.68H56.35A31.91,31.91,0,0,0,38.35.74Z"/><path id="_Path_5" data-name="&lt;Path&gt;" d="M48.21,43.29H61.82A31.73,31.73,0,0,0,63.9,32H49.56A45.39,45.39,0,0,1,48.21,43.29Z"/><path id="_Path_6" data-name="&lt;Path&gt;" d="M49.28,27.36H63.56a31.66,31.66,0,0,0-3.94-11.29h-13A48.65,48.65,0,0,1,49.28,27.36Z"/><path id="_Path_7" data-name="&lt;Path&gt;" d="M27,63.5a54.55,54.55,0,0,1-8.73-15.57H4.39A32,32,0,0,0,27,63.5Z"/><path id="_Path_8" data-name="&lt;Path&gt;" d="M27,.49A31.89,31.89,0,0,0,7.65,11.42H20.49A67.93,67.93,0,0,1,27,.49Z"/><path id="_Path_9" data-name="&lt;Path&gt;" d="M46.8,47.94a54.54,54.54,0,0,1-8.6,15.35A32,32,0,0,0,59.61,47.94Z"/><path id="_Path_10" data-name="&lt;Path&gt;" d="M33,63.87A48.84,48.84,0,0,0,43.24,47.94H21.84A48.92,48.92,0,0,0,32,63.9h0Z"/><path id="_Path_11" data-name="&lt;Path&gt;" d="M.44,27.36h15.4a48.72,48.72,0,0,1,2.7-11.29H4.39A31.66,31.66,0,0,0,.44,27.36Z"/><path id="_Path_12" data-name="&lt;Path&gt;" d="M16.88,43.29A45.37,45.37,0,0,1,15.56,32H.1A31.73,31.73,0,0,0,2.18,43.29Z"/></g></svg>