<svg id="icons" xmlns="http://www.w3.org/2000/svg" viewBox="0 0 64 64"><title>changa_hourglass</title><g id="_Group_" data-name="&lt;Group&gt;"><path id="_Compound_Path_" data-name="&lt;Compound Path&gt;" d="M46.38,30.24A32.08,32.08,0,0,0,52,20.9a41.46,41.46,0,0,0,2.42-8.56,48,48,0,0,0,.71-9.4c0-.56.13-.76.71-.72s1.36,0,2,0c.05-.09.11-.14.11-.19q0-1,0-2H6C6,.13,6,.27,6,.4,6,1,6,1.57,6,2.23H8.92c0,1.21,0,2.34,0,3.46a43.48,43.48,0,0,0,4.46,18.19,29.25,29.25,0,0,0,5.67,7.86v.07c-.68.77-1.38,1.5-2,2.28a33.07,33.07,0,0,0-5.24,9.23A41.68,41.68,0,0,0,9.14,55c-.16,2.08-.19,4.18-.24,6.27a.61.61,0,0,1-.65.59c-.7,0-1.41,0-2.14,0a2.49,2.49,0,0,0-.08.42c0,.57,0,1.14,0,1.72H58V61.86c-.78,0-1.53,0-2.29,0-.4,0-.53-.12-.53-.5a48,48,0,0,0-.31-7.51A67.68,67.68,0,0,0,53,45.67a31.12,31.12,0,0,0-2.38-6,29.79,29.79,0,0,0-5.7-7.84h0ZM39.71,32.7A28.69,28.69,0,0,1,49.92,45.8,46.6,46.6,0,0,1,53.3,60.38c0,.22,0,.44,0,.72H10.68a47.77,47.77,0,0,1,1.56-9.9,37.39,37.39,0,0,1,6.59-13.54,25.19,25.19,0,0,1,5.35-4.88c.4-.29.79-.6,1.27-1-.61-.47-1.16-.92-1.73-1.33a26.93,26.93,0,0,1-8.08-9.43A44.74,44.74,0,0,1,10.69,2.79a2,2,0,0,1,0-.26H53.38c-.16,1.42-.28,2.83-.46,4.22a42.67,42.67,0,0,1-2.44,9.72,30.31,30.31,0,0,1-8,12.25c-1.06.94-2.22,1.75-3.33,2.63l-.59.46C39,32.13,39.33,32.44,39.71,32.7Z"/><g id="_Group_2" data-name="&lt;Group&gt;"><path d="M32.41,35c2.15,0,5,2,6,2.74a32.61,32.61,0,0,1,7.51,10.9,33.76,33.76,0,0,1,1.93,7.67c.05.42.1.84.15,1.26H16.76A34.18,34.18,0,0,1,20.49,45a20.4,20.4,0,0,1,6.15-7.19l.1-.07.09-.08c.82-.75,3.44-2.69,5.6-2.69m0-2c-3.44,0-6.94,3.22-6.94,3.22A22.49,22.49,0,0,0,18.72,44a37.36,37.36,0,0,0-4.13,15.26,1.67,1.67,0,0,0,0,.22H50.24c-.13-1.19-.24-2.36-.39-3.52a35.63,35.63,0,0,0-2-8.12,34.27,34.27,0,0,0-8.09-11.71S35.79,33,32.41,33Z"/></g><g id="_Group_3" data-name="&lt;Group&gt;"><path d="M48,6.52c0,.42-.09.84-.15,1.26a33.76,33.76,0,0,1-1.93,7.67,32.61,32.61,0,0,1-7.51,10.9c-1,.79-3.87,2.74-6,2.74s-4.77-1.94-5.59-2.69l-.09-.08-.1-.07a20.4,20.4,0,0,1-6.15-7.19A34.19,34.19,0,0,1,16.76,6.52H48m2.22-2H14.61a1.66,1.66,0,0,0,0,.22A37.36,37.36,0,0,0,18.72,20a22.49,22.49,0,0,0,6.75,7.87s3.51,3.22,6.94,3.22,7.31-3.22,7.31-3.22a34.27,34.27,0,0,0,8.09-11.71,35.63,35.63,0,0,0,2-8.12c.15-1.16.26-2.33.39-3.52Z"/></g><g id="_Group_4" data-name="&lt;Group&gt;"><path d="M32.41,24.56a6.4,6.4,0,0,1-3.53-1.64,11.44,11.44,0,0,1-3.43-4,19,19,0,0,1-2.1-7.76.85.85,0,0,1,0-.11H41.48c-.07.61-.12,1.2-.2,1.79a18.13,18.13,0,0,1-1,4.13,17.43,17.43,0,0,1-4.11,6S34.13,24.56,32.41,24.56Z"/></g><g id="_Group_5" data-name="&lt;Group&gt;"><path d="M32.41,40.22a6.4,6.4,0,0,0-3.53,1.64,11.44,11.44,0,0,0-3.43,4,19,19,0,0,0-2.1,7.76.85.85,0,0,0,0,.11H41.48c-.07-.61-.12-1.2-.2-1.79a18.13,18.13,0,0,0-1-4.13,17.43,17.43,0,0,0-4.11-6S34.13,40.22,32.41,40.22Z"/></g></g></svg>