<svg id="icons" xmlns="http://www.w3.org/2000/svg" viewBox="0 0 64 64"><title>changa_cannabis-o</title><path id="_Compound_Path_" data-name="&lt;Compound Path&gt;" d="M32,5.1l1.05,3.4a56.21,56.21,0,0,1,1.81,8.64v.07l0,.07a29,29,0,0,1,.64,6.29v.09c0,.31,0,.5,0,.51.19,3.88-2.06,11.31-2.09,11.4l0,.13,0,.1v.06L32,41.47l-1.38-5.61V35.8l0-.1,0-.15c0-.07-2.28-7.5-2.09-11.39,0,0,0-.19,0-.51v-.09a29,29,0,0,1,.64-6.29l0-.07v-.07a56.21,56.21,0,0,1,1.81-8.64L32,5.1M8.7,13.64a79.34,79.34,0,0,1,8.51,7.08l0,0,0,0c.05,0,5.05,4.79,7.09,9.29a113.1,113.1,0,0,1,4.12,11.32l0,.06,0,.06.26.77c-.7-.56-1.55-1.2-2.56-1.95-.06,0-6.31-4.86-8.94-7.86a36.47,36.47,0,0,1-4.74-8.61V23.8c-1.63-4.12-3.38-8.74-3.81-10.16m46.59,0c-.43,1.42-2.18,6-3.81,10.16v.06a36.61,36.61,0,0,1-4.74,8.61c-2.63,3-8.88,7.82-8.92,7.84-1,.75-1.88,1.4-2.59,2l.26-.77,0-.06,0-.06a113.1,113.1,0,0,1,4.11-11.29c2-4.54,7.05-9.28,7.1-9.33l0,0,0,0a79.33,79.33,0,0,1,8.51-7.08m4.09,25.93c-.74.53-1.57,1.1-2.34,1.62-6.77,3.93-12.21,4.36-14.23,4.36-.6,0-.93,0-.93,0H37.5c1.57-.93,3.54-2.05,5.34-3C48,39.84,55.1,39.7,56.47,39.7H57c.89-.06,1.68-.11,2.37-.13m-54.77,0c.69,0,1.49.06,2.37.13h.54c1.37,0,8.47.13,13.6,2.76,1.81,1,3.8,2.11,5.37,3H22.12s-.33,0-.94,0c-2,0-7.47-.43-14.23-4.36-.77-.53-1.6-1.1-2.34-1.62m22.64,9.66a33.79,33.79,0,0,1-5.89,4.14,50.26,50.26,0,0,1-7.27,2.34,25.54,25.54,0,0,1,6.31-4.27,32.73,32.73,0,0,1,6.86-2.21m9.49,0a32.75,32.75,0,0,1,6.83,2.2,25.69,25.69,0,0,1,6.33,4.28,50.4,50.4,0,0,1-7.27-2.34,33.81,33.81,0,0,1-5.89-4.13M32,.14h0c-.12.09-.38.68-.93,3L29.51,8.05a58.51,58.51,0,0,0-1.86,8.88A30.43,30.43,0,0,0,27,23.56c0,.33,0,.53,0,.53C26.74,28.28,29.1,36,29.1,36l.07.23,1.89,7.68A8.31,8.31,0,0,1,31.18,45a.19.19,0,0,1,0,.08s0,0,0-.08c-.07-.59-1.24-4-1.24-4a113.87,113.87,0,0,0-4.19-11.53c-2.2-4.87-7.44-9.8-7.44-9.8-3.14-3.3-10.12-8.28-10.12-8.28-.6-.58-1-.81-1.24-.81-.87,0,.19,3,.19,3,.21,1.26,4,10.8,4,10.8a38,38,0,0,0,5,9.07c2.74,3.14,9.19,8.11,9.19,8.11,6.39,4.68,5.17,4.82,5.17,4.82-.94-1-8.63-5.21-8.63-5.21C16.45,38.39,9.33,38.2,7.53,38.2H7.1c-1.4-.1-2.49-.14-3.32-.14-3.45,0-2.66.7-2.66.7,0,.28,5,3.7,5,3.7,7,4.1,12.73,4.59,15,4.59a10.27,10.27,0,0,0,1.11,0h2.28c6.81,0,6.14.29,6.14.29a32.14,32.14,0,0,0-11,2.8c-7.34,3.67-9,7.44-9,7.44a5.79,5.79,0,0,0,.69,0c3.73,0,10.56-2.83,10.56-2.83,4-2,9.19-7,9.19-7V63.86h1.65V47.75s5.17,5,9.19,7c0,0,6.84,2.83,10.56,2.83a5.79,5.79,0,0,0,.69,0s-1.68-3.77-9-7.44a32.14,32.14,0,0,0-11-2.8S32.62,47,39.42,47H41.7a10.27,10.27,0,0,0,1.11,0c2.31,0,8-.49,15-4.59,0,0,5-3.42,5-3.7,0,0,.79-.7-2.66-.7-.83,0-1.92,0-3.32.14h-.43c-1.8,0-8.93.18-14.32,2.94,0,0-7.69,4.19-8.63,5.21,0,0-1.22-.14,5.17-4.82,0,0,6.46-5,9.19-8.11a38,38,0,0,0,5-9.07s3.77-9.54,4-10.8c0,0,1.06-3,.19-3-.24,0-.63.23-1.24.81,0,0-7,5-10.12,8.28,0,0-5.24,4.93-7.44,9.8A113.87,113.87,0,0,0,34.07,41s-1.17,3.37-1.24,4c0,.06,0,.08,0,.08a.19.19,0,0,1,0-.08,8.31,8.31,0,0,1,.12-1.07l1.89-7.68L34.9,36s2.36-7.71,2.15-11.9c0,0,0-.2,0-.53a30.43,30.43,0,0,0-.68-6.64,58.51,58.51,0,0,0-1.86-8.88L33,3.13c-.54-2.29-.8-2.87-.93-3h0Z"/></svg>