<svg id="icons" xmlns="http://www.w3.org/2000/svg" viewBox="0 0 64 64"><defs><style>.cls-1{fill:none;stroke:#000;stroke-miterlimit:10;stroke-width:1.5px;}</style></defs><title>changa_coffee</title><path d="M19,51.57H40c7.08-4.4,11.91-13.1,11.91-23.13H7.07C7.07,38.46,11.9,47.17,19,51.57Z"/><path d="M49.24,52.29H7.07c0,2.74,10,5,22.4,5s22.4-2.22,22.4-5Z"/><path class="cls-1" d="M51.14,32.8s6.8-1.45,7.76,4.75-5.53,8.75-12.1,6.81A38.19,38.19,0,0,0,51.14,32.8Z"/><path d="M24.42,7.46a38.56,38.56,0,0,1,.56,5,38.66,38.66,0,0,1-.06,5.07,19.2,19.2,0,0,1-1.06,5,9.27,9.27,0,0,1-3,4.17,15.1,15.1,0,0,0,1.86-4.52,34.45,34.45,0,0,0,.68-4.82C23.73,14.14,23.82,10.8,24.42,7.46Z"/><path d="M29.67,8.15a32.37,32.37,0,0,1,.48,4.37c.09,1.46.08,2.92.06,4.37s-.11,2.91-.27,4.37a32,32,0,0,1-.69,4.34,32.56,32.56,0,0,1-.48-4.38c-.09-1.46-.08-2.91-.06-4.36s.11-2.9.27-4.35A32.91,32.91,0,0,1,29.67,8.15Z"/><path d="M34.6,8a79.35,79.35,0,0,1,.84,9.68A31.42,31.42,0,0,0,36,22.33a7.45,7.45,0,0,0,2.11,4.09,5.1,5.1,0,0,1-2-1.51,7.85,7.85,0,0,1-1.22-2.26,17.8,17.8,0,0,1-.89-4.92,41.14,41.14,0,0,1,.06-4.9A40.39,40.39,0,0,1,34.6,8Z"/></svg>