<svg id="icons" xmlns="http://www.w3.org/2000/svg" viewBox="0 0 64 64"><title>changa_zoom-in</title><path d="M40.53,35.35a22.26,22.26,0,1,0-5.93,5.7,84.34,84.34,0,0,0,9.16,12.61,35.42,35.42,0,0,0,13.59,9.6c1.52.56,3.3,1,4.68.11a4.64,4.64,0,0,0,1.83-4c.09-4.46-2.88-8.37-6-11.55A65.92,65.92,0,0,0,40.53,35.35ZM1.81,22.41A20.62,20.62,0,1,1,22.42,43,20.64,20.64,0,0,1,1.81,22.41Z"/><polygon points="30.38 23 22.75 23 22.75 15.38 21.25 15.38 21.25 23 13.63 23 13.63 24.5 21.25 24.5 21.25 32.13 22.75 32.13 22.75 24.5 30.38 24.5 30.38 23"/></svg>