<svg id="icons" xmlns="http://www.w3.org/2000/svg" viewBox="0 0 64 64"><title>changa_calendar</title><g id="_Group_" data-name="&lt;Group&gt;"><path d="M42.54,13a3.34,3.34,0,0,1-.82-2.18V9.53H21.25v1.28A3.34,3.34,0,0,1,20.43,13Z"/><path d="M56.28,9.53H50.74v1.28A3.34,3.34,0,0,1,49.92,13h7.42a2,2,0,0,1,2,2V58.54a2,2,0,0,1-2,2H6.67a2,2,0,0,1-2-2V15a2,2,0,0,1,2-2h6.39a3.34,3.34,0,0,1-.82-2.18V9.53H7.72a6,6,0,0,0-6,6V58a6,6,0,0,0,6,6H56.28a6,6,0,0,0,6-6V15.57A6,6,0,0,0,56.28,9.53Z"/><path id="_Compound_Path_" data-name="&lt;Compound Path&gt;" d="M15.68,0a2.22,2.22,0,0,0-2.21,2.21v8a2.22,2.22,0,0,0,2.21,2.21h2.14A2.22,2.22,0,0,0,20,10.2v-8A2.22,2.22,0,0,0,17.81,0Z"/><path id="_Compound_Path_2" data-name="&lt;Compound Path&gt;" d="M45.16,0a2.22,2.22,0,0,0-2.21,2.21v8a2.22,2.22,0,0,0,2.21,2.21H47.3a2.22,2.22,0,0,0,2.21-2.21v-8A2.22,2.22,0,0,0,47.3,0Z"/><g id="_Group_2" data-name="&lt;Group&gt;"><g id="_Rectangle_" data-name="&lt;Rectangle&gt;"><path id="_Compound_Path_3" data-name="&lt;Compound Path&gt;" d="M17.26,24.77a3.61,3.61,0,0,1,3.6,3.6v.09a3.6,3.6,0,0,1-7.21,0v-.09a3.61,3.61,0,0,1,3.6-3.6m0-1a4.62,4.62,0,0,0-4.6,4.6v.09a4.6,4.6,0,0,0,9.21,0v-.09a4.62,4.62,0,0,0-4.6-4.6Z"/></g><g id="_Rectangle_2" data-name="&lt;Rectangle&gt;"><path id="_Compound_Path_4" data-name="&lt;Compound Path&gt;" d="M32,24.77a3.61,3.61,0,0,1,3.6,3.6v.09a3.6,3.6,0,0,1-7.21,0v-.09a3.61,3.61,0,0,1,3.6-3.6m0-1h0a4.62,4.62,0,0,0-4.6,4.6v.09a4.62,4.62,0,0,0,4.6,4.6h0a4.62,4.62,0,0,0,4.6-4.6v-.09a4.62,4.62,0,0,0-4.6-4.6Z"/></g><g id="_Rectangle_3" data-name="&lt;Rectangle&gt;"><path id="_Compound_Path_5" data-name="&lt;Compound Path&gt;" d="M46.74,24.77a3.61,3.61,0,0,1,3.6,3.6v.09a3.6,3.6,0,0,1-7.21,0v-.09a3.61,3.61,0,0,1,3.6-3.6m0-1h0a4.62,4.62,0,0,0-4.6,4.6v.09a4.62,4.62,0,0,0,4.6,4.6h0a4.62,4.62,0,0,0,4.6-4.6v-.09a4.62,4.62,0,0,0-4.6-4.6Z"/></g><g id="_Rectangle_4" data-name="&lt;Rectangle&gt;"><path id="_Compound_Path_6" data-name="&lt;Compound Path&gt;" d="M17.26,41.18a3.61,3.61,0,0,1,3.6,3.6v.09a3.6,3.6,0,1,1-7.21,0v-.09a3.61,3.61,0,0,1,3.6-3.6m0-1a4.62,4.62,0,0,0-4.6,4.6v.09a4.6,4.6,0,1,0,9.21,0v-.09a4.62,4.62,0,0,0-4.6-4.6Z"/></g><g id="_Rectangle_5" data-name="&lt;Rectangle&gt;"><path id="_Compound_Path_7" data-name="&lt;Compound Path&gt;" d="M32,41.18a3.61,3.61,0,0,1,3.6,3.6v.09a3.6,3.6,0,1,1-7.21,0v-.09a3.61,3.61,0,0,1,3.6-3.6m0-1h0a4.62,4.62,0,0,0-4.6,4.6v.09a4.62,4.62,0,0,0,4.6,4.6h0a4.62,4.62,0,0,0,4.6-4.6v-.09a4.62,4.62,0,0,0-4.6-4.6Z"/></g><g id="_Rectangle_6" data-name="&lt;Rectangle&gt;"><path id="_Compound_Path_8" data-name="&lt;Compound Path&gt;" d="M46.74,41.18a3.61,3.61,0,0,1,3.6,3.6v.09a3.6,3.6,0,1,1-7.21,0v-.09a3.61,3.61,0,0,1,3.6-3.6m0-1h0a4.62,4.62,0,0,0-4.6,4.6v.09a4.62,4.62,0,0,0,4.6,4.6h0a4.62,4.62,0,0,0,4.6-4.6v-.09a4.62,4.62,0,0,0-4.6-4.6Z"/></g></g></g></svg>