<svg id="icons" xmlns="http://www.w3.org/2000/svg" viewBox="0 0 64 64"><title>changa_calculator</title><path id="_Compound_Path_" data-name="&lt;Compound Path&gt;" d="M49.54,0H14.46a3,3,0,0,0-3,3V61a3,3,0,0,0,3,3H49.54a3,3,0,0,0,3-3V3A3,3,0,0,0,49.54,0ZM22.78,57.84H17.17V52.23h5.61Zm0-7.59H17.17V44.63h5.61Zm0-7.59H17.17V37h5.61Zm0-7.59H17.17V29.45h5.61Zm0-7.59H17.17v-4h5.61Zm8,30.37H25.19V52.23H30.8Zm0-7.59H25.19V44.63H30.8Zm0-7.59H25.19V37H30.8Zm0-7.59H25.19V29.45H30.8Zm0-7.59H25.19v-4H30.8Zm8,30.37H33.2V52.23h5.61Zm0-7.59H33.2V44.63h5.61Zm0-7.59H33.2V37h5.61Zm0-7.59H33.2V29.45h5.61Zm0-7.59H33.2v-4h5.61Zm8,19.59V57.84H41.22V44.63h5.61Zm0-17.61v5.61H41.22V29.45Zm-5.61-2v-4h5.61v4ZM46.83,37v5.61H41.22V37Zm2.08-23.4H15.09V6.93H48.91Z"/></svg>