<svg id="icons" xmlns="http://www.w3.org/2000/svg" viewBox="0 0 64 64"><title>changa_premium-service</title><g id="_Group_" data-name="&lt;Group&gt;"><path id="_Path_" data-name="&lt;Path&gt;" d="M58.82,19.36a5.11,5.11,0,0,0-4.74,7L40.92,31.71,33.71,14.92a5.12,5.12,0,1,0-4,0L22.55,31.5,9.93,26.4A5.14,5.14,0,1,0,7.1,29.23L10,36.48V50.32H53.61V37.38l3.29-8.15a5.12,5.12,0,1,0,1.92-9.86Z"/><rect id="_Path_2" data-name="&lt;Path&gt;" x="10.02" y="52.33" width="43.59" height="1.73"/><path id="_Path_3" data-name="&lt;Path&gt;" d="M10,57.33A1.58,1.58,0,0,0,11.6,58.9H52a1.58,1.58,0,0,0,1.58-1.58V56.06H10Z"/></g></svg>