<svg id="icons" xmlns="http://www.w3.org/2000/svg" viewBox="0 0 64 64"><title>changa_cigarette</title><g id="_Group_" data-name="&lt;Group&gt;"><path d="M62.51,37.9a7.26,7.26,0,0,0-1.9-7.34c-1.81-1.69-4.3-1.79-5.68-4-1.25-2-2.14-3.9-4.05-5.41A12.75,12.75,0,0,0,44,18.46c-.28,0-.6.52-.87.5a12.79,12.79,0,0,1,6.63,2.45c2.06,1.54,3,3.51,4.33,5.63s3.6,2.26,5.41,3.78a7.22,7.22,0,0,1,2.18,7.57c.06-.22.81-.27.87-.5Z"/></g><g id="_Group_2" data-name="&lt;Group&gt;"><path d="M58.54,37.94c-.31-2.23-.77-4.7-3.1-5.63s-5.26.14-7.71-1c-4.49-2.11-3.07-8.78-8.94-9-.29,0-.59.51-.87.5A5.42,5.42,0,0,1,43,26.44c.86,2.24,1.49,4.25,3.84,5.35s5,.11,7.36.88c2.57.82,3.12,3.39,3.45,5.77,0-.12.88-.37.87-.5Z"/></g><path d="M56.37,39.33H.83a.47.47,0,0,0-.47.47v5.28a.47.47,0,0,0,.47.47H56.37a.47.47,0,0,0,.47-.47V39.8A.47.47,0,0,0,56.37,39.33Zm-1,4.71h-36V40.83h36Z"/><rect x="57.36" y="39.33" width="2.73" height="6.21" rx="0.37" ry="0.37"/><rect x="60.91" y="39.33" width="2.73" height="6.21" rx="0.32" ry="0.32"/></svg>