<svg id="icons" xmlns="http://www.w3.org/2000/svg" xmlns:xlink="http://www.w3.org/1999/xlink" viewBox="0 0 64 64"><defs><style>.cls-1{fill:none;}.cls-2{clip-path:url(#clip-path);}</style><clipPath id="clip-path"><path class="cls-1" d="M41.49,7.1H13.69a1.75,1.75,0,0,0-1.75,1.75V59.48a1.75,1.75,0,0,0,1.75,1.75H50.31a1.75,1.75,0,0,0,1.75-1.75V18.7h0Zm9.07,52.37a.25.25,0,0,1-.25.25H13.69a.25.25,0,0,1-.25-.25V8.85a.25.25,0,0,1,.25-.25h27.8V18.7h9.07Z"/></clipPath></defs><title>changa_clone-copy-document</title><g class="cls-2"><polygon points="15.5 57.56 15.5 2.19 -24.88 2.19 -24.88 69.88 6.21 69.88 6.21 125.25 56.81 125.25 56.81 57.56 15.5 57.56"/></g><path d="M46.24,2.19H18.44a1.75,1.75,0,0,0-1.75,1.75V54.56a1.75,1.75,0,0,0,1.75,1.75H55.06a1.75,1.75,0,0,0,1.75-1.75V13.78h0Zm9.07,52.37a.25.25,0,0,1-.25.25H18.44a.25.25,0,0,1-.25-.25V3.94a.25.25,0,0,1,.25-.25h27.8V13.78h9.07Z"/><rect x="23.04" y="23.04" width="23.54" height="2.25"/><rect x="23.04" y="33.04" width="24.46" height="2.25"/><rect x="23.04" y="43.04" width="25.46" height="2.25"/></svg>