<svg id="icons" xmlns="http://www.w3.org/2000/svg" viewBox="0 0 64 64"><title>changa_credit-card-chip</title><g id="_Group_" data-name="&lt;Group&gt;"><g id="_Group_2" data-name="&lt;Group&gt;"><path id="_Compound_Path_" data-name="&lt;Compound Path&gt;" d="M60,51.83H4a4,4,0,0,1-4-4V16.17a4,4,0,0,1,4-4H60a4,4,0,0,1,4,4V47.83A4,4,0,0,1,60,51.83ZM4,14.17a2,2,0,0,0-2,2V47.83a2,2,0,0,0,2,2H60a2,2,0,0,0,2-2V16.17a2,2,0,0,0-2-2Z"/></g><rect id="_Rectangle_" data-name="&lt;Rectangle&gt;" x="5.07" y="43.44" width="15.51" height="2.26"/><rect id="_Rectangle_2" data-name="&lt;Rectangle&gt;" x="5.07" y="35.83" width="50.49" height="3.87"/><g id="_Group_3" data-name="&lt;Group&gt;"><polygon id="_Path_" data-name="&lt;Path&gt;" points="9.52 26.22 8.13 24.83 5.36 24.83 5.36 27.34 9.52 27.34 9.52 26.22"/><path id="_Path_2" data-name="&lt;Path&gt;" d="M9.71,26h1.23V21.88H7.13a1.78,1.78,0,0,0-1.78,1.78v.91H8.24Z"/><rect id="_Path_3" data-name="&lt;Path&gt;" x="9.79" y="26.3" width="2.56" height="2.59"/><polygon id="_Path_4" data-name="&lt;Path&gt;" points="9.52 28.97 9.52 27.61 5.36 27.61 5.36 30.39 8.13 30.39 9.52 28.97"/><path id="_Path_5" data-name="&lt;Path&gt;" d="M15,21.88H11.21V26h1.23l1.47-1.47h2.89v.27H14l-1.39,1.39v1.11h4.17v.27H12.63V29L14,30.39h2.78v.27H13.91l-1.47-1.5H11.21v4.11h-.27V29.16H9.72l-1.47,1.5H5.36v.88a1.78,1.78,0,0,0,1.78,1.78H15a1.78,1.78,0,0,0,1.78-1.78V23.66A1.78,1.78,0,0,0,15,21.88Z"/></g></g></svg>