<svg id="icons" xmlns="http://www.w3.org/2000/svg" viewBox="0 0 64 64"><title>changa_male-plus-male</title><path id="_Compound_Path_" data-name="&lt;Compound Path&gt;" d="M57.47,14.08H50.62V.71H30.72V7.24h7.59L25.5,20.05A16.33,16.33,0,1,0,13.62,49.67,16.33,16.33,0,1,0,44.15,39.3L57.47,26v8H64V14.08ZM4.3,33.58A12,12,0,0,1,28,30.7,16.34,16.34,0,0,0,13.46,45.26,12,12,0,0,1,4.3,33.58Zm24,1.42A12,12,0,0,1,17.76,45.53,12,12,0,0,1,28.29,35Zm1.42,24A12,12,0,0,1,18,49.83,16.34,16.34,0,0,0,32.59,35.27,12,12,0,0,1,29.71,59Zm9.16-25.57a16.25,16.25,0,0,0-6.43-2.58,16.27,16.27,0,0,0-1.67-4.93L44.09,12.6v8h7.6Z"/></svg>