<svg id="icons" xmlns="http://www.w3.org/2000/svg" viewBox="0 0 64 64"><title>changa_settings-cog</title><path d="M63.88,34.41c.06-.8.12-1.6.12-2.41s-.06-1.61-.12-2.41l-8.41-2.1a23.66,23.66,0,0,0-.9-3.31l6.24-6A32,32,0,0,0,58.43,14l-8.37,2.39a24,24,0,0,0-2.42-2.42L50,5.57a32,32,0,0,0-4.18-2.38l-6,6.24a23.67,23.67,0,0,0-3.31-.9L34.41.12C33.61.06,32.81,0,32,0s-1.61.06-2.41.12l-2.1,8.41a23.67,23.67,0,0,0-3.31.9l-6-6.24A32,32,0,0,0,14,5.57l2.39,8.37a24,24,0,0,0-2.42,2.42L5.57,14a32,32,0,0,0-2.38,4.18l6.24,6a23.66,23.66,0,0,0-.9,3.31L.12,29.59C.06,30.39,0,31.19,0,32s.06,1.61.12,2.41l8.41,2.1a23.65,23.65,0,0,0,.9,3.31l-6.24,6A32,32,0,0,0,5.57,50l8.37-2.39a24,24,0,0,0,2.42,2.42L14,58.43a32,32,0,0,0,4.18,2.38l6-6.24a23.68,23.68,0,0,0,3.31.9l2.1,8.41c.8.06,1.6.12,2.41.12s1.61-.06,2.41-.12l2.1-8.41a23.68,23.68,0,0,0,3.31-.9l6,6.24A32,32,0,0,0,50,58.43l-2.39-8.37a24,24,0,0,0,2.42-2.42L58.43,50a32,32,0,0,0,2.38-4.18l-6.24-6a23.65,23.65,0,0,0,.9-3.31Zm-10.93-.83L47.42,35a15.54,15.54,0,0,1-.59,2.17l4.1,4a21,21,0,0,1-1.57,2.75l-5.5-1.57a15.78,15.78,0,0,1-1.59,1.59l1.57,5.5a21,21,0,0,1-2.75,1.57l-4-4.1a15.56,15.56,0,0,1-2.17.59l-1.38,5.53c-.52,0-1,.08-1.58.08s-1.06,0-1.58-.08L29,47.42a15.56,15.56,0,0,1-2.17-.59l-4,4.1a21,21,0,0,1-2.75-1.57l1.57-5.5a15.78,15.78,0,0,1-1.59-1.59l-5.5,1.57a21,21,0,0,1-1.57-2.75l4.1-4A15.54,15.54,0,0,1,16.58,35l-5.53-1.38c0-.52-.08-1-.08-1.58s0-1.06.08-1.58L16.58,29a15.53,15.53,0,0,1,.59-2.17l-4.1-4a21,21,0,0,1,1.57-2.75l5.5,1.57a15.79,15.79,0,0,1,1.59-1.59l-1.57-5.5a21,21,0,0,1,2.75-1.57l4,4.1A15.56,15.56,0,0,1,29,16.58l1.38-5.53c.52,0,1-.08,1.58-.08s1.06,0,1.58.08L35,16.58a15.56,15.56,0,0,1,2.17.59l4-4.1a21,21,0,0,1,2.75,1.57l-1.57,5.5a15.79,15.79,0,0,1,1.59,1.59l5.5-1.57a21,21,0,0,1,1.57,2.75l-4.1,4A15.53,15.53,0,0,1,47.42,29l5.53,1.38c0,.52.08,1,.08,1.58S53,33.06,52.95,33.58Z"/><path id="_Path_" data-name="&lt;Path&gt;" d="M39.15,32.54,37.26,33a5.3,5.3,0,0,1-.2.74l1.4,1.35a7.17,7.17,0,0,1-.53.94L36,35.51a5.39,5.39,0,0,1-.54.54L36,37.93a7.17,7.17,0,0,1-.94.53l-1.35-1.4a5.31,5.31,0,0,1-.74.2l-.47,1.89-.54,0-.54,0L31,37.26a5.31,5.31,0,0,1-.74-.2l-1.35,1.4a7.17,7.17,0,0,1-.94-.53L28.49,36a5.39,5.39,0,0,1-.54-.54L26.07,36a7.17,7.17,0,0,1-.53-.94l1.4-1.35a5.3,5.3,0,0,1-.2-.74l-1.89-.47c0-.18,0-.36,0-.54s0-.36,0-.54L26.74,31a5.3,5.3,0,0,1,.2-.74l-1.4-1.35a7.16,7.16,0,0,1,.53-.94l1.88.54a5.39,5.39,0,0,1,.54-.54L28,26.07a7.17,7.17,0,0,1,.94-.53l1.35,1.4a5.31,5.31,0,0,1,.74-.2l.47-1.89.54,0,.54,0L33,26.74a5.31,5.31,0,0,1,.74.2l1.35-1.4a7.17,7.17,0,0,1,.94.53L35.51,28a5.39,5.39,0,0,1,.54.54L37.93,28a7.16,7.16,0,0,1,.53.94l-1.4,1.35a5.3,5.3,0,0,1,.2.74l1.89.47c0,.18,0,.36,0,.54S39.16,32.36,39.15,32.54Z"/></svg>