<svg id="icons" xmlns="http://www.w3.org/2000/svg" viewBox="0 0 64 64"><title>changa_anchor</title><path d="M31.92,2.25A3.95,3.95,0,1,1,28,6.2a4,4,0,0,1,3.95-3.95m0-1.5A5.45,5.45,0,1,0,37.37,6.2,5.45,5.45,0,0,0,31.92.75Z"/><path d="M58.82,48,53,40.66l-1,9.4,2.64-.78c.18,2.35.15,9.18-5.78,12.08-5.5,2.69-11.37.35-16.13-6.41V17.88h5.83V16.25H32.67V11.6a5.28,5.28,0,0,1-1.5,0v4.65H25.49v1.63h5.68V55c-4.76,6.77-10.63,9.1-16.13,6.41-6-3-6-9.82-5.78-12.13l2.8.82-1-9.4L5.18,48l2.63.77c-.21,2.26-.46,10.46,6.58,13.91A11.85,11.85,0,0,0,19.64,64c4.34,0,8.62-2.58,12.29-7.51C35.59,61.41,39.87,64,44.21,64a11.86,11.86,0,0,0,5.25-1.27c7-3.43,6.8-11.54,6.58-13.86Z"/></svg>