<svg id="icons" xmlns="http://www.w3.org/2000/svg" viewBox="0 0 64 64"><title>changa_sound-volume-max-square</title><path id="_Compound_Path_" data-name="&lt;Compound Path&gt;" d="M58.13,0H5.88A5.88,5.88,0,0,0,0,5.88V58.13A5.88,5.88,0,0,0,5.88,64H58.13A5.88,5.88,0,0,0,64,58.13V5.88A5.87,5.87,0,0,0,58.13,0ZM32.18,48a1,1,0,0,1-1.57.82L17.86,40l-7.11,0a2.49,2.49,0,0,1-2.38-1.8V24.89a2.49,2.49,0,0,1,2.3-1.58l7.24,0,12.72-8.84a1,1,0,0,1,1.57.82Zm4.12-6.91a2.3,2.3,0,0,1-2.11-2.35,2.63,2.63,0,0,1,.73-1.94,6.86,6.86,0,0,0,1.3-2,7.22,7.22,0,0,0,.48-4A6.73,6.73,0,0,0,35,27.24a2.7,2.7,0,0,1-.72-1.36,2.58,2.58,0,0,1,.61-2.32,2,2,0,0,1,1.37-.67,1.78,1.78,0,0,1,1.27.39,8.82,8.82,0,0,1,1.89,2.33A12,12,0,0,1,41,29.81a12.74,12.74,0,0,1,0,4.42,11.76,11.76,0,0,1-3.19,6.32A2,2,0,0,1,36.3,41.11Zm7.08,4.67a1.94,1.94,0,0,1-2.41.6,2.25,2.25,0,0,1-1.3-1.75,2.68,2.68,0,0,1,.61-2.29,17.57,17.57,0,0,0,1.62-2.27,15.73,15.73,0,0,0,1.56-3.75A16.52,16.52,0,0,0,44,30.56,15.91,15.91,0,0,0,43,26.31,15.39,15.39,0,0,0,41.35,23c-.39-.57-.85-1.06-1.24-1.63a2.63,2.63,0,0,1,.61-3.64,2,2,0,0,1,2.72.5,20.08,20.08,0,0,1,3.63,6.22,21,21,0,0,1,1.31,7.37,21.3,21.3,0,0,1-.78,6A20.82,20.82,0,0,1,44.73,44,19.67,19.67,0,0,1,43.38,45.78Zm11.83-8.7a29.53,29.53,0,0,1-4.34,11.35,27.48,27.48,0,0,1-2,2.71,2,2,0,0,1-3.49-.3,2.64,2.64,0,0,1-.13-2.32,3.12,3.12,0,0,1,.54-.85,23,23,0,0,0,2.57-3.83,24.5,24.5,0,0,0,2-4.94,25.73,25.73,0,0,0,.86-9,24.91,24.91,0,0,0-1.34-6.37,23.22,23.22,0,0,0-3.92-7.06,4,4,0,0,1-.64-.94,2.64,2.64,0,0,1-.09-2A2.16,2.16,0,0,1,46.87,12a2,2,0,0,1,2.06.88A28.31,28.31,0,0,1,53.65,21a30.29,30.29,0,0,1,1.52,5.59,32.43,32.43,0,0,1,.4,3.48c0,.63.05,1.26.07,2.1A31.73,31.73,0,0,1,55.21,37.09Z"/></svg>