<svg id="icons" xmlns="http://www.w3.org/2000/svg" viewBox="0 0 64 64"><title>changa_github-square</title><path d="M58.13,0H5.88A5.88,5.88,0,0,0,0,5.88V58.13A5.88,5.88,0,0,0,5.88,64H58.13A5.88,5.88,0,0,0,64,58.13V5.88A5.87,5.87,0,0,0,58.13,0ZM36.25,36.61A4.26,4.26,0,0,1,37,39v5.63s-4.3,2.67-8.59,0V41h-.06s-2.7.33-3.81-.21a3.68,3.68,0,0,1-1.79-1.46s-.68-1.42-.85-1.66a4.73,4.73,0,0,0-1.42-1.39s-.6-.37-.54-.71c0,0,.08-.19.43-.21a2.91,2.91,0,0,1,2.24.8,4.83,4.83,0,0,1,.93,1.2,4.35,4.35,0,0,0,1.79,1.43,4.37,4.37,0,0,0,2.45,0s.51-.15.58-.26l.14-.25a4.27,4.27,0,0,1,.66-1.66,8.39,8.39,0,0,1-5.94-13.68l.19-4.34a.39.39,0,0,1,.54-.37L27.83,20s0,0,.06.05l.19,0a24.1,24.1,0,0,1,9.21,0l.19,0s0,0,.06,0l3.91-1.75a.39.39,0,0,1,.54.37l.19,4.31a8.39,8.39,0,0,1-5.92,13.72Z"/></svg>