<svg id="icons" xmlns="http://www.w3.org/2000/svg" viewBox="0 0 64 64"><title>changa_comment-o</title><path d="M34.61,3.82c3.38,0,15,.57,22.08,7.88,4,4.16,6,9.89,5.8,17v.13c.05,1,1,24.54-24.77,26.73,0,0-2.39.19-5.29.19a31.85,31.85,0,0,1-8-.78l-.77-.22-.61.52a24.66,24.66,0,0,1-7.8,4.29c1.4-1.79,2.58-4.12,2-6.56l-.17-.71L16.41,52C16.27,52,2.27,45.36,1.78,30.19v-.12l0-.11A20.82,20.82,0,0,1,5.87,14.51C11,8,20.38,4.41,33.7,3.83c0,0,.35,0,.91,0m0-1.5c-.63,0-1,0-1,0C-4.83,4,.28,30.24.28,30.24.81,46.51,15.79,53.38,15.79,53.38c.95,4-4.75,8.24-4.75,8.24l.7,0c6.2,0,12.28-5.2,12.28-5.2a34,34,0,0,0,8.41.83c3,0,5.41-.2,5.41-.2C65.48,54.74,64,28.78,64,28.78,64.69,3.66,39.91,2.32,34.61,2.32Z"/></svg>