<svg id="icons" xmlns="http://www.w3.org/2000/svg" viewBox="0 0 64 64"><title>changa_syringe</title><g id="_Group_" data-name="&lt;Group&gt;"><path id="_Compound_Path_" data-name="&lt;Compound Path&gt;" d="M62.74,5.64,57.46.36a1.24,1.24,0,1,0-1.75,1.75l.95.95L51.42,8.3,47.36,4.24A1.24,1.24,0,0,0,45.61,6l3.14,3.14L20,37.86a1.56,1.56,0,0,0-.44.89l0,.13L20,41.36a1,1,0,0,0-.59.28l-5.51,5.51a1.06,1.06,0,0,0,0,1.49l.07.07L1.41,61.32.9,64,15.12,49.78a1,1,0,0,0,1.37-.08L22,44.19a1,1,0,0,0,.28-.89l2.08.37.12,0a1.58,1.58,0,0,0,.89-.44L54.12,14.49l3,3a1.24,1.24,0,0,0,1.75-1.75L55,11.87l5.24-5.24.75.75a1.24,1.24,0,1,0,1.75-1.75ZM36.51,29.91l-3.18-3.18L49.84,10.21,53,13.4Z"/><rect id="_Rectangle_" data-name="&lt;Rectangle&gt;" x="35.24" y="25.74" width="3.44" height="1.22" rx="0.36" ry="0.36" transform="translate(29.45 -18.41) rotate(45)"/><rect id="_Rectangle_2" data-name="&lt;Rectangle&gt;" x="38.75" y="22.23" width="3.44" height="1.22" rx="0.36" ry="0.36" transform="translate(28 -21.93) rotate(45)"/><rect id="_Rectangle_3" data-name="&lt;Rectangle&gt;" x="42.26" y="18.71" width="3.44" height="1.22" rx="0.36" ry="0.36" transform="translate(26.54 -25.44) rotate(45)"/><rect id="_Rectangle_4" data-name="&lt;Rectangle&gt;" x="45.78" y="15.2" width="3.44" height="1.22" rx="0.36" ry="0.36" transform="translate(25.09 -28.95) rotate(45)"/></g></svg>