<svg id="icons" xmlns="http://www.w3.org/2000/svg" viewBox="0 0 64 64"><title>changa_user-o</title><g id="_Group_" data-name="&lt;Group&gt;"><g id="_Group_2" data-name="&lt;Group&gt;"><path d="M33.28,1.5h0c5.37,0,10.27,3,12.18,7.4a20.24,20.24,0,0,1,1.24,8,34.35,34.35,0,0,1-1.91,12.28,17.09,17.09,0,0,1-7.25,9,11.81,11.81,0,0,1-5.76,1.5,10.73,10.73,0,0,1-4.93-1.17,15.27,15.27,0,0,1-5.69-4.72A25.68,25.68,0,0,1,17,20.66v-.15c-.4-2.42-.88-9.41,1.64-12.64,4.16-5.61,9.1-6.21,14.21-6.36h.41m0-1.5h-.45c-5.7.17-10.95,1-15.37,7C14,11.42,15.54,20.75,15.54,20.75A27.23,27.23,0,0,0,19.93,34.6a16.8,16.8,0,0,0,6.23,5.2,12.19,12.19,0,0,0,5.62,1.34,13.36,13.36,0,0,0,6.49-1.69,18.67,18.67,0,0,0,7.92-9.79,36,36,0,0,0,2-12.81A21.53,21.53,0,0,0,46.84,8.3C44.56,3,38.84,0,33.28,0Z"/></g><g id="_Group_3" data-name="&lt;Group&gt;"><path d="M17.21,39.57c.91.8,1.7,1.44,2.45,2,4.64,3.39,8.69,5.11,12,5.11A17,17,0,0,0,41.23,44a31.36,31.36,0,0,0,5.64-4.39,31.94,31.94,0,0,1,5,4.08,30.42,30.42,0,0,1,4.82,6.26,32.15,32.15,0,0,1,4,11.44c0,.23.08.44.13.65v.37c-.09.09-.25.12-.63.12H3.74c-.39,0-.55,0-.64-.14v-.3l.14-.73c.13-.68.26-1.36.4-2a32.55,32.55,0,0,1,3.18-8.56,31.11,31.11,0,0,1,4.83-6.64,28.36,28.36,0,0,1,5.55-4.53m29.45-1.88-.13.13a30.17,30.17,0,0,1-6.07,4.88,15.42,15.42,0,0,1-8.76,2.47c-3.62,0-7.7-2.3-11.16-4.82C19.65,39.7,18.81,39,18,38.28l-.63-.56a29.54,29.54,0,0,0-6.81,5.34,32.61,32.61,0,0,0-5.07,7,34.05,34.05,0,0,0-3.33,9C2,59.66,1.9,60.36,1.77,61l-.17.87v.81A2,2,0,0,0,3.74,64H60.25a2,2,0,0,0,2.15-1.27l0-.93a6.36,6.36,0,0,1-.14-.65,33.65,33.65,0,0,0-4.2-12A31.92,31.92,0,0,0,53,42.61a34,34,0,0,0-6.16-4.85l-.15-.08Z"/></g></g></svg>