<svg id="icons" xmlns="http://www.w3.org/2000/svg" viewBox="0 0 64 64"><title>changa_lightbulb</title><path d="M32,6A14.68,14.68,0,0,0,17.53,20.9s-.42,9,3.82,13.8c0,0,4.88,4.67,4.72,13.5a48.55,48.55,0,0,0,5.44.5,140.19,140.19,0,0,0-.37-18.3A4,4,0,0,1,29,30.22a5.58,5.58,0,0,1-3.29-4.89c-.11-1.3.51-2.91,1.7-3.27.78-.23,2,0,3.29,2.45A10.4,10.4,0,0,1,31.58,27c.24-1.1.51-2,.54-2a6.4,6.4,0,0,1,4-4.62,2.18,2.18,0,0,1,2.16.45c1.81,1.81-.87,5.56-2.54,7.3a8.87,8.87,0,0,1-3.57,2.07,4.34,4.34,0,0,0,0,.51h0a139.4,139.4,0,0,1,.34,18,24.16,24.16,0,0,0,5.7-.52c.25-2-.51-8.11,3.54-13.5a25.42,25.42,0,0,0,4.72-13.8A14.68,14.68,0,0,0,32,6Z"/><path d="M27.9,23l-.17,0c-.59.17-1.07,1.25-1,2.22a4.6,4.6,0,0,0,2.67,4,3.08,3.08,0,0,0,1.6.1A14.47,14.47,0,0,0,29.85,25C29.17,23.72,28.46,23,27.9,23Z"/><path d="M37.58,21.51a1,1,0,0,0-.71-.26,1.94,1.94,0,0,0-.48.07,5.4,5.4,0,0,0-3.31,3.94,24.12,24.12,0,0,0-.84,3.83A7.55,7.55,0,0,0,35,27.4C36.7,25.67,38.67,22.6,37.58,21.51Z"/><rect x="25.61" y="49.83" width="13.02" height="1.44" rx="0.53" ry="0.53"/><rect x="25.61" y="51.98" width="13.02" height="1.44" rx="0.53" ry="0.53"/><rect x="25.61" y="54.13" width="13.02" height="1.44" rx="0.53" ry="0.53"/><path d="M36.19,56.24c0,.93-1.91,1.69-4.26,1.69s-4.26-.76-4.26-1.69Z"/></svg>