<svg id="icons" xmlns="http://www.w3.org/2000/svg" viewBox="0 0 64 64"><title>changa_settings-cog-ios</title><path d="M32.06,29.48a2.61,2.61,0,1,0,2.61,2.61A2.61,2.61,0,0,0,32.06,29.48Zm0,4a1.38,1.38,0,1,1,1.38-1.38A1.38,1.38,0,0,1,32.06,33.47Z"/><path d="M41.47,15.6a21.87,21.87,0,0,0-12.82-2.3s-2.29.53-2.55,2.23c0,0,1.5,4.19,6.46,11.64a6.12,6.12,0,0,0,4.4,2.1L48,29a2.24,2.24,0,0,0,1.74-3A19.48,19.48,0,0,0,41.47,15.6Z"/><path d="M27.15,29.09l-5.72-9.48a2.24,2.24,0,0,0-3.51,0A19.48,19.48,0,0,0,13.05,32a21.87,21.87,0,0,0,4.37,12.27S19,46,20.62,45.34c0,0,2.89-3.39,6.89-11.39A6.12,6.12,0,0,0,27.15,29.09Z"/><path d="M35.59,35.07a6.12,6.12,0,0,0-4,2.84l-5.14,9.81a2.24,2.24,0,0,0,1.82,3A19.48,19.48,0,0,0,41.4,48.47a21.87,21.87,0,0,0,8.22-10.1s.64-2.26-.71-3.31C48.9,35.06,44.51,34.34,35.59,35.07Z"/><path d="M32,10A22,22,0,1,0,54,32,22,22,0,0,0,32,10Zm0,42.87A20.91,20.91,0,1,1,52.91,32,20.93,20.93,0,0,1,32,52.88Z"/><path d="M48,59.65c.56-.33,1.12-.67,1.66-1a21,21,0,0,1,8.94-8.94c.36-.54.7-1.1,1-1.67A22.05,22.05,0,0,0,48,59.65Z"/><path d="M4.43,48.21c.35.59.72,1.18,1.1,1.75A20.84,20.84,0,0,1,12,55.53a21.13,21.13,0,0,1,1.72,2.69c.57.4,1.15.78,1.74,1.14a22.07,22.07,0,0,0-2.63-4.47A21.84,21.84,0,0,0,4.43,48.21Z"/><path d="M32,0A32,32,0,0,0,3.23,46l1.9-3.29q.75.29,1.48.62L5.54,47.26a23.15,23.15,0,0,1,3,1.73l2.89-2.9q.65.47,1.27,1L10.62,50.6A23.4,23.4,0,0,1,13,53l3.54-2q.51.62,1,1.28l-2.9,2.88a23.4,23.4,0,0,1,1.72,3l4-1.06q.33.73.61,1.48l-3.41,2a32,32,0,0,0,28.71.12l0-.11-3.55-2q.29-.75.62-1.48l3.95,1.07a23.15,23.15,0,0,1,1.73-3l-2.9-2.89q.47-.65,1-1.27L50.63,53a23.38,23.38,0,0,1,2.44-2.43L51,47q.62-.51,1.28-1l2.88,2.9a23.39,23.39,0,0,1,3-1.72l-1.06-4q.73-.33,1.48-.61l2,3.55h0A32,32,0,0,0,32,0Zm27.32,32.8-4.06.53a23.32,23.32,0,0,1-.44,3.41l3.78,1.56q-.19.78-.41,1.55l-4.06-.54a23.16,23.16,0,0,1-1.32,3.18l3.25,2.48q-.38.71-.8,1.39l-3.78-1.57a23.39,23.39,0,0,1-2.09,2.73l2.5,3.24q-.55.58-1.14,1.14l-3.24-2.5a23.39,23.39,0,0,1-2.73,2.09l1.57,3.78q-.68.42-1.39.8l-2.48-3.25A23.15,23.15,0,0,1,39.3,54.1l.54,4.06q-.77.23-1.55.41l-1.56-3.78a23.31,23.31,0,0,1-3.41.44l-.53,4.06H31.2l-.53-4.06a23.31,23.31,0,0,1-3.41-.44L25.7,58.57q-.78-.19-1.55-.41l.54-4.06a23.16,23.16,0,0,1-3.18-1.32L19,56q-.71-.38-1.39-.8l1.57-3.78a23.4,23.4,0,0,1-2.73-2.09l-3.24,2.5q-.58-.55-1.14-1.14l2.5-3.24a23.39,23.39,0,0,1-2.09-2.73L8.74,46.33q-.42-.68-.8-1.39l3.25-2.48a23.16,23.16,0,0,1-1.32-3.18l-4.06.54q-.23-.77-.41-1.55l3.78-1.56a23.31,23.31,0,0,1-.44-3.41l-4.06-.53q0-.4,0-.8t0-.8l4.06-.53a23.31,23.31,0,0,1,.44-3.41L5.4,25.67q.19-.78.41-1.55l4.06.54a23.16,23.16,0,0,1,1.32-3.18L7.94,19q.38-.71.8-1.39l3.78,1.57a23.38,23.38,0,0,1,2.09-2.73l-2.5-3.24q.55-.58,1.14-1.14l3.24,2.5a23.4,23.4,0,0,1,2.73-2.09L17.64,8.71q.68-.42,1.39-.8l2.48,3.25A23.17,23.17,0,0,1,24.7,9.84l-.54-4.06q.77-.23,1.55-.41l1.56,3.78a23.31,23.31,0,0,1,3.41-.44l.53-4.06H32.8l.53,4.06a23.31,23.31,0,0,1,3.41.44L38.3,5.37q.78.18,1.55.41L39.3,9.84a23.16,23.16,0,0,1,3.18,1.32L45,7.9q.71.38,1.39.8l-1.57,3.78a23.39,23.39,0,0,1,2.73,2.09l3.24-2.5q.59.55,1.14,1.14l-2.5,3.24a23.39,23.39,0,0,1,2.09,2.73l3.78-1.57q.42.68.8,1.39l-3.25,2.48a23.16,23.16,0,0,1,1.32,3.18l4.06-.54q.23.77.41,1.55l-3.78,1.56a23.32,23.32,0,0,1,.44,3.41l4.06.53q0,.4,0,.8T59.32,32.77Z"/></svg>