<svg id="icons" xmlns="http://www.w3.org/2000/svg" viewBox="0 0 64 64"><title>changa_heart-o</title><g id="_Group_" data-name="&lt;Group&gt;"><path d="M49.89,3.33h0A12.4,12.4,0,0,1,57.6,5.86C61.53,9,63.35,15,62.13,20.77c-1,4.74-4,8.63-7.27,12.75-.52.66-1,1.33-1.55,2-4.11,5.37-7.21,9.08-11.18,13.76a133.17,133.17,0,0,1-9.83,10.9c-5.58-4.81-9.24-9.34-13.82-15-3.78-4.67-7.09-9.35-9.82-13.31C6.31,28.49,3.89,25,2.54,21.11,1.1,17,1.17,12.88,2.73,9.81A12.14,12.14,0,0,1,13.23,3.59h.22A16.3,16.3,0,0,1,24.94,8.84a23.67,23.67,0,0,1,5.8,12.09,1.5,1.5,0,0,0,1.47,1.23h.08a1.5,1.5,0,0,0,1.41-1.39c.44-6.28,3.43-11.87,8-15a14.74,14.74,0,0,1,8.19-2.47m0-1.5a16.27,16.27,0,0,0-9,2.73c-5.22,3.53-8.2,9.81-8.64,16.09A25.28,25.28,0,0,0,26,7.8,17.71,17.71,0,0,0,13.46,2.08h-.25a13.62,13.62,0,0,0-11.82,7c-1.93,3.81-1.68,8.44-.27,12.48S5,29.21,7.42,32.73c3.21,4.65,6.33,9,9.89,13.4,4.91,6.07,8.76,10.82,15,16a125.76,125.76,0,0,0,11-12c4.2-5,7.21-8.55,11.2-13.78,3.66-4.79,7.84-9.45,9.09-15.34s-.34-12.65-5.06-16.4a13.83,13.83,0,0,0-8.64-2.85Z"/></g></svg>