<svg id="icons" xmlns="http://www.w3.org/2000/svg" viewBox="0 0 64 64"><title>changa_key</title><g id="_Group_" data-name="&lt;Group&gt;"><path id="_Compound_Path_" data-name="&lt;Compound Path&gt;" d="M25.41,23.5a13.53,13.53,0,1,0,.53,11.88C26.83,31.08,26,26.23,25.41,23.5Zm-16.48,11A4.55,4.55,0,1,1,13.48,30,4.55,4.55,0,0,1,8.93,34.52Z"/><path id="_Path_" data-name="&lt;Path&gt;" d="M60.59,24.91H26.74c.14.73.27,1.53.37,2.38H58.84c.59,0,1.08.19,1.08.41s-.49.41-1.08.41H27.2A25.64,25.64,0,0,1,27,35h5.48l4-4,4,4h1.8l2.95-2.95L48.21,35h2.63l2.95-2.95L56.72,35h3.87L64,30Z"/></g></svg>