<svg id="icons" xmlns="http://www.w3.org/2000/svg" viewBox="0 0 64 64"><title>changa_trash-o</title><path d="M54.07,9.09v3.13h-1l-.18,1.3L46.63,59.78c-1.12.73-5,2.72-14.58,2.72-6.14-.34-13.31-1.23-15.09-2.06l-5.84-46.9-.16-1.31h-1V9.09H54.07M31.24,59.74h1.52A2.21,2.21,0,0,0,35,57.53V16.76a2.21,2.21,0,0,0-2.21-2.21H31.24A2.21,2.21,0,0,0,29,16.76V57.53a2.21,2.21,0,0,0,2.21,2.21m9.45,0a2.22,2.22,0,0,0,2.2-2l3.53-40.62a2.21,2.21,0,0,0-2-2.39l-1.51-.13h-.19a2.22,2.22,0,0,0-2.2,2L37,57.2a2.21,2.21,0,0,0,2,2.39l1.51.13h.19m-17.39,0h.19L25,59.59a2.21,2.21,0,0,0,2-2.39L23.48,16.58a2.22,2.22,0,0,0-2.2-2h-.19l-1.51.13a2.21,2.21,0,0,0-2,2.39L21.1,57.71a2.22,2.22,0,0,0,2.2,2M35.79,0H28.21a5.93,5.93,0,0,0-5.92,5.92V7.59H8.43v6.13H9.62l5.92,47.54C17.26,63.2,32,64,32,64c12.69,0,16-3.41,16-3.41l6.35-46.87h1.19V7.59H41.71V5.92A5.93,5.93,0,0,0,35.79,0Zm-12,7.59V5.92A4.42,4.42,0,0,1,28.21,1.5h7.58a4.42,4.42,0,0,1,4.42,4.42V7.59Zm7.45,50.65a.71.71,0,0,1-.71-.71V16.76a.71.71,0,0,1,.71-.71h1.52a.71.71,0,0,1,.71.71V57.53a.71.71,0,0,1-.71.71Zm9.45,0h-.06l-1.51-.13a.71.71,0,0,1-.64-.77L42,16.71a.71.71,0,0,1,.71-.65h.06l1.51.13a.71.71,0,0,1,.64.77L41.4,57.58a.71.71,0,0,1-.71.65Zm-17.39,0a.71.71,0,0,1-.71-.65L19.07,17a.71.71,0,0,1,.64-.77l1.51-.13h.06a.71.71,0,0,1,.71.65l3.53,40.62a.71.71,0,0,1-.64.77l-1.51.13Z"/></svg>