<svg id="icons" xmlns="http://www.w3.org/2000/svg" xmlns:xlink="http://www.w3.org/1999/xlink" viewBox="0 0 64 64"><defs><style>.cls-1{fill:none;}.cls-2{clip-path:url(#clip-path);}</style><clipPath id="clip-path"><polygon class="cls-1" points="64 6.23 13.21 6.23 13.21 6.67 6 6.67 6 57.46 14.67 57.46 14.67 14.25 64 14.25 64 6.23"/></clipPath></defs><title>changa_clone-copy</title><path d="M53.56,16.92a2.11,2.11,0,0,1,2.1,2.1V52.81a2.11,2.11,0,0,1-2.1,2.1H19.77a2.11,2.11,0,0,1-2.1-2.1V19a2.11,2.11,0,0,1,2.1-2.1H53.56m0-1.5H19.77a3.61,3.61,0,0,0-3.6,3.6V52.81a3.61,3.61,0,0,0,3.6,3.6H53.56a3.61,3.61,0,0,0,3.6-3.6V19a3.61,3.61,0,0,0-3.6-3.6Z"/><g class="cls-2"><path d="M47.52,10.87a2.11,2.11,0,0,1,2.1,2.1V46.77a2.11,2.11,0,0,1-2.1,2.1H13.73a2.11,2.11,0,0,1-2.1-2.1V13a2.11,2.11,0,0,1,2.1-2.1H47.52m0-1.5H13.73a3.61,3.61,0,0,0-3.6,3.6V46.77a3.61,3.61,0,0,0,3.6,3.6H47.52a3.61,3.61,0,0,0,3.6-3.6V13a3.61,3.61,0,0,0-3.6-3.6Z"/></g></svg>