<svg id="icons" xmlns="http://www.w3.org/2000/svg" viewBox="0 0 64 64"><title>changa_document-file-text-o</title><path d="M41.49,4.94H13.69a1.75,1.75,0,0,0-1.75,1.75V57.31a1.75,1.75,0,0,0,1.75,1.75H50.31a1.75,1.75,0,0,0,1.75-1.75V16.53h0Zm9.07,52.37a.25.25,0,0,1-.25.25H13.69a.25.25,0,0,1-.25-.25V6.69a.25.25,0,0,1,.25-.25h27.8V16.53h9.07Z"/><rect x="19.27" y="25.88" width="23.54" height="2.25"/><rect x="19.27" y="15.88" width="13.71" height="2.25"/><rect x="19.27" y="35.88" width="24.46" height="2.25"/><rect x="19.27" y="45.88" width="25.46" height="2.25"/></svg>