<svg id="icons" xmlns="http://www.w3.org/2000/svg" viewBox="0 0 64 64"><title>changa_photo</title><path id="_Compound_Path_" data-name="&lt;Compound Path&gt;" d="M58.12,1.5A4.38,4.38,0,0,1,62.5,5.88V58.13a4.38,4.38,0,0,1-4.37,4.38H5.87A4.38,4.38,0,0,1,1.5,58.13V5.88A4.38,4.38,0,0,1,5.87,1.5H58.12m0-1.5H5.87A5.88,5.88,0,0,0,0,5.88V58.13A5.88,5.88,0,0,0,5.87,64H58.12A5.88,5.88,0,0,0,64,58.13V5.88A5.87,5.87,0,0,0,58.12,0Z"/><g id="_Group_" data-name="&lt;Group&gt;"><path id="_Path_" data-name="&lt;Path&gt;" d="M11.33,55.14H52.75A2.1,2.1,0,0,0,54.59,52l-11-19.66a2.1,2.1,0,0,0-3.57-.15L33.46,42a2.1,2.1,0,0,1-3,.5l-8.78-6.62a2.1,2.1,0,0,0-3.07.62L9.52,52A2.1,2.1,0,0,0,11.33,55.14Z"/><circle id="_Path_2" data-name="&lt;Path&gt;" cx="16.21" cy="15.37" r="5.76"/></g></svg>