<svg id="icons" xmlns="http://www.w3.org/2000/svg" viewBox="0 0 64 64"><title>changa_sd-card</title><path id="_Compound_Path_" data-name="&lt;Compound Path&gt;" d="M52.89,30.32V25.75H54.7V8.59L46.31,0H11.79A2.49,2.49,0,0,0,9.3,2.48V21.11H11V34.95H9.3V61.52A2.49,2.49,0,0,0,11.79,64H52.21a2.49,2.49,0,0,0,2.48-2.48V30.32Zm-15.41-22a1.24,1.24,0,0,1,1.24-1.24h2.42a1.24,1.24,0,0,1,1.24,1.24V19.87a1.24,1.24,0,0,1-1.24,1.24H38.72a1.24,1.24,0,0,1-1.24-1.24Zm-8,0a1.24,1.24,0,0,1,1.24-1.24h2.42A1.24,1.24,0,0,1,34.4,8.31V19.87a1.24,1.24,0,0,1-1.24,1.24H30.74a1.24,1.24,0,0,1-1.24-1.24Zm-8,0a1.24,1.24,0,0,1,1.24-1.24h2.42a1.24,1.24,0,0,1,1.24,1.24V19.87a1.24,1.24,0,0,1-1.24,1.24H22.77a1.24,1.24,0,0,1-1.24-1.24Zm-8,0a1.24,1.24,0,0,1,1.24-1.24h2.42a1.24,1.24,0,0,1,1.24,1.24V19.87a1.24,1.24,0,0,1-1.24,1.24H14.72a1.24,1.24,0,0,1-1.24-1.24Zm36.87,49.6a2.57,2.57,0,0,1-2.48,2.63H16.13a2.57,2.57,0,0,1-2.48-2.63V25.75h36.7Zm0-38a1.24,1.24,0,0,1-1.24,1.24H46.69a1.24,1.24,0,0,1-1.24-1.24V12.16a1.24,1.24,0,0,1,1.24-1.24h2.42a1.24,1.24,0,0,1,1.24,1.24Z"/></svg>