<svg id="icons" xmlns="http://www.w3.org/2000/svg" viewBox="0 0 64 64"><title>changa_pause-circle-o</title><path id="_Compound_Path_" data-name="&lt;Compound Path&gt;" d="M32,1.52A30.48,30.48,0,1,1,1.52,32,30.52,30.52,0,0,1,32,1.52M32,0A32,32,0,1,0,64,32,32,32,0,0,0,32,0Z"/><g id="_Group_" data-name="&lt;Group&gt;"><path id="_Compound_Path_2" data-name="&lt;Compound Path&gt;" d="M26.39,20a1.55,1.55,0,0,1,1.55,1.55V42.41A1.55,1.55,0,0,1,26.39,44H19.88a1.55,1.55,0,0,1-1.55-1.55V21.59A1.55,1.55,0,0,1,19.88,20h6.51m0-1.5H19.88a3.06,3.06,0,0,0-3.05,3.05V42.41a3.06,3.06,0,0,0,3.05,3.05h6.51a3.06,3.06,0,0,0,3.05-3.05V21.59a3.06,3.06,0,0,0-3.05-3.05Z"/><path id="_Compound_Path_3" data-name="&lt;Compound Path&gt;" d="M43.85,20a1.55,1.55,0,0,1,1.55,1.55V42.41A1.55,1.55,0,0,1,43.85,44H37.34a1.55,1.55,0,0,1-1.55-1.55V21.59A1.55,1.55,0,0,1,37.34,20h6.51m0-1.5H37.34a3.06,3.06,0,0,0-3.05,3.05V42.41a3.06,3.06,0,0,0,3.05,3.05h6.51a3.06,3.06,0,0,0,3.05-3.05V21.59a3.06,3.06,0,0,0-3.05-3.05Z"/></g></svg>