<svg id="icons" xmlns="http://www.w3.org/2000/svg" viewBox="0 0 64 64"><title>changa_check-circle-o</title><path id="_Compound_Path_" data-name="&lt;Compound Path&gt;" d="M32,1.5A30.5,30.5,0,1,1,1.5,32,30.53,30.53,0,0,1,32,1.5M32,0A32,32,0,1,0,64,32,32,32,0,0,0,32,0Z"/><g id="_Group_" data-name="&lt;Group&gt;"><path d="M13.38,30.28,25,53.73a25.37,25.37,0,0,0,2.9-.78c.19-17.35,8.24-33,22.74-42.69-.78.52-2.1.25-2.9.78C33.22,20.72,25.17,36.38,25,53.73l2.9-.78L16.28,29.5c-.1-.2-2.82.93-2.9.78Z"/></g></svg>