<?xml version="1.0" encoding="utf-8"?>
<!-- Generator: Adobe Illustrator 21.0.2, SVG Export Plug-In . SVG Version: 6.00 Build 0)  -->
<svg version="1.1" id="icons" xmlns="http://www.w3.org/2000/svg" xmlns:xlink="http://www.w3.org/1999/xlink" x="0px" y="0px"
	 viewBox="0 0 64 64" style="enable-background:new 0 0 64 64;" xml:space="preserve">
<style type="text/css">
	.st0{fill:#FFFFFF;}
	.st1{stroke:#FFFFFF;stroke-width:1.5;stroke-miterlimit:10;}
	.st2{stroke:#FFFFFF;stroke-width:0;stroke-linecap:round;stroke-linejoin:round;}
	.st3{fill:#FFF2FF;}
	.st4{fill:#FFFFFF;stroke:#000000;stroke-width:1.5;stroke-miterlimit:10;}
</style>
<g id="XMLID_311_">
	<path id="XMLID_312_" d="M0,35.4c0-2.3,0-4.6,0-6.8c0-0.1,0.1-0.3,0.1-0.4c0.1-2.3,0.3-4.6,0.4-6.9C0.7,17.9,1.8,15,4,12.6
		c1.4-1.5,3.1-2.5,5.2-2.6c1.6-0.1,3.2-0.3,4.8-0.3c3.7-0.2,7.3-0.3,11-0.4c10.2-0.2,20.4,0.1,30.6,0.8c1.8,0.1,3.3,0.8,4.5,2
		c1.8,1.8,2.8,4.1,3.2,6.6c0.3,2.4,0.4,4.9,0.6,7.3c0.1,0.7,0.1,1.4,0.1,2c0,2.4,0,4.7,0,7.1c0,0.1-0.1,0.3-0.1,0.4
		c-0.1,2.3-0.3,4.7-0.4,7c-0.1,3.1-1.2,5.8-3.1,8.2c-1.3,1.6-2.8,2.8-4.9,3.1c-1.6,0.3-3.3,0.3-5,0.4c-4.5,0.2-8.9,0.4-13.4,0.4
		c-9.3,0.1-18.6-0.1-27.8-0.7c-1.9-0.1-3.5-0.9-4.8-2.2c-2.1-2-3.3-4.5-3.7-7.3c-0.4-2.4-0.4-4.8-0.6-7.2C0.1,36.7,0,36,0,35.4z
		 M44,31.9c-6.7-3.9-13.3-7.6-20-11.5c0,7.7,0,15.3,0,22.9C30.7,39.5,37.3,35.7,44,31.9z"/>
</g>
</svg>
