<?xml version="1.0" encoding="utf-8"?>
<!-- Generator: Adobe Illustrator 21.0.2, SVG Export Plug-In . SVG Version: 6.00 Build 0)  -->
<svg version="1.1" id="icons" xmlns="http://www.w3.org/2000/svg" xmlns:xlink="http://www.w3.org/1999/xlink" x="0px" y="0px"
	 viewBox="0 0 64 64" style="enable-background:new 0 0 64 64;" xml:space="preserve">
<style type="text/css">
	.st0{fill:#FFFFFF;}
	.st1{stroke:#FFFFFF;stroke-width:1.5;stroke-miterlimit:10;}
	.st2{stroke:#FFFFFF;stroke-width:0;stroke-linecap:round;stroke-linejoin:round;}
	.st3{fill:#FFF2FF;}
	.st4{fill:#FFFFFF;stroke:#000000;stroke-width:1.5;stroke-miterlimit:10;}
</style>
<g id="XMLID_3_">
	<path id="XMLID_950_" d="M54,39.5H10c-0.7,0-1.2-0.6-1.2-1.2V37c0-0.7,0.6-1.2,1.2-1.2h44c0.7,0,1.2,0.6,1.2,1.2v1.2
		C55.2,38.9,54.6,39.5,54,39.5z"/>
	<path id="XMLID_949_" d="M54,46.6H10c-0.7,0-1.2-0.6-1.2-1.2v-1.2c0-0.7,0.6-1.2,1.2-1.2h44c0.7,0,1.2,0.6,1.2,1.2v1.2
		C55.2,46.1,54.6,46.6,54,46.6z"/>
	<path id="XMLID_948_" d="M46.1,53.8H10c-0.7,0-1.2-0.6-1.2-1.2v-1.2c0-0.7,0.6-1.2,1.2-1.2h36.1c0.7,0,1.2,0.6,1.2,1.2v1.2
		C47.3,53.3,46.8,53.8,46.1,53.8z"/>
	<path id="XMLID_76_" d="M52.7,0h-7.5c-0.8,0-1.5,0.7-1.5,1.5v16.4c0,0.8-0.7,1.5-1.5,1.5H13.9c-0.8,0-1.5-0.7-1.5-1.5V1.5
		c0-0.8-0.7-1.5-1.5-1.5H1.5C0.7,0,0,0.7,0,1.5v61C0,63.3,0.7,64,1.5,64h61c0.8,0,1.5-0.7,1.5-1.5V12.8c0-0.4-0.1-0.7-0.4-1
		L53.8,0.5C53.5,0.2,53.1,0,52.7,0z M56.5,58.4H7.5c-0.8,0-1.5-0.7-1.5-1.5V32.7c0-0.8,0.7-1.5,1.5-1.5h48.9c0.8,0,1.5,0.7,1.5,1.5
		v24.1C58,57.7,57.3,58.4,56.5,58.4z"/>
	<path id="XMLID_944_" d="M39,17.8h-5c-0.7,0-1.2-0.6-1.2-1.2V3.5c0-0.7,0.6-1.2,1.2-1.2h5c0.7,0,1.2,0.6,1.2,1.2v13.1
		C40.2,17.2,39.7,17.8,39,17.8z"/>
</g>
</svg>
