<?xml version="1.0" encoding="utf-8"?>
<!-- Generator: Adobe Illustrator 21.0.2, SVG Export Plug-In . SVG Version: 6.00 Build 0)  -->
<svg version="1.1" id="icons" xmlns="http://www.w3.org/2000/svg" xmlns:xlink="http://www.w3.org/1999/xlink" x="0px" y="0px"
	 viewBox="0 0 64 64" style="enable-background:new 0 0 64 64;" xml:space="preserve">
<style type="text/css">
	.st0{fill:#FFFFFF;}
	.st1{stroke:#FFFFFF;stroke-width:1.5;stroke-miterlimit:10;}
	.st2{stroke:#FFFFFF;stroke-width:0;stroke-linecap:round;stroke-linejoin:round;}
	.st3{fill:#FFF2FF;}
	.st4{fill:#FFFFFF;stroke:#000000;stroke-width:1.5;stroke-miterlimit:10;}
</style>
<g id="XMLID_273_">
	<path id="XMLID_274_" d="M32,25c-5.7,0-10.3,4.6-10.3,10.3S26.3,45.6,32,45.6S42.3,41,42.3,35.3S37.7,25,32,25z"/>
	<path id="XMLID_275_" d="M59.6,15.8H45.3c-0.3-3.7-3.4-6.6-7.2-6.6H25.9c-3.8,0-6.9,2.9-7.2,6.6h-6.1c0-1.3-1.1-2.4-2.5-2.4H8
		c-1.3,0-2.4,1.1-2.5,2.4H4.4c-2.4,0-4.4,2-4.4,4.4v30.1c0,2.4,2,4.4,4.4,4.4h55.1c2.4,0,4.4-2,4.4-4.4V20.3
		C64,17.8,62,15.8,59.6,15.8z M9.1,20.2c-1.1,0-2-0.9-2-2c0-1.1,0.9-2,2-2c1.1,0,2,0.9,2,2C11.1,19.3,10.2,20.2,9.1,20.2z M32,49.3
		c-7.7,0-14-6.3-14-14s6.3-14,14-14s14,6.3,14,14S39.7,49.3,32,49.3z"/>
</g>
</svg>
