<?xml version="1.0" encoding="utf-8"?>
<!-- Generator: Adobe Illustrator 21.0.2, SVG Export Plug-In . SVG Version: 6.00 Build 0)  -->
<svg version="1.1" id="icons" xmlns="http://www.w3.org/2000/svg" xmlns:xlink="http://www.w3.org/1999/xlink" x="0px" y="0px"
	 viewBox="0 0 64 64" style="enable-background:new 0 0 64 64;" xml:space="preserve">
<style type="text/css">
	.st0{fill:#FFFFFF;}
	.st1{stroke:#FFFFFF;stroke-width:1.5;stroke-miterlimit:10;}
	.st2{stroke:#FFFFFF;stroke-width:0;stroke-linecap:round;stroke-linejoin:round;}
	.st3{fill:#FFF2FF;}
	.st4{fill:#FFFFFF;stroke:#000000;stroke-width:1.5;stroke-miterlimit:10;}
</style>
<path id="XMLID_423_" d="M58.1,0H5.9C2.6,0,0,2.6,0,5.9v52.3C0,61.4,2.6,64,5.9,64h52.3c3.2,0,5.9-2.6,5.9-5.9V5.9
	C64,2.6,61.4,0,58.1,0z"/>
<path id="XMLID_417_" class="st0" d="M45.3,15.7H23.4c0.1,0,0.1,0,0.2,0c-0.1,0-0.2,0-0.3,0v6.4c0,0.2-0.2,0.4-0.4,0.4
	s-0.4-0.2-0.4-0.4v-6.4h-0.8v6.4c0,0.2-0.2,0.4-0.4,0.4c-0.2,0-0.4-0.2-0.4-0.4v-6.4h-0.2h-0.6v6.4c0,0.2-0.2,0.4-0.4,0.4
	s-0.4-0.2-0.4-0.4v-6.4h-0.1h-0.5c0,0-0.1,0-0.1,0c0,0,0,0,0.1,0h-0.2c-1.7,0-3,1.3-3,3v26.6c0,1.7,1.3,3,3,3h26.6c1.7,0,3-1.3,3-3
	V18.7C48.3,17.1,46.9,15.7,45.3,15.7z M32,24.6c4.1,0,7.4,3.3,7.4,7.4s-3.3,7.4-7.4,7.4s-7.4-3.3-7.4-7.4S27.9,24.6,32,24.6z
	 M45.7,43.9c0,1.3-1,2.3-2.3,2.3H20.6c-1.3,0-2.3-1-2.3-2.3V29.3c0-1.3,1-2.3,2.3-2.3h2.2c-0.8,1.5-1.3,3.2-1.3,5
	c0,5.8,4.7,10.5,10.5,10.5S42.5,37.8,42.5,32c0-1.8-0.5-3.5-1.3-5h2.2c1.3,0,2.3,1,2.3,2.3V43.9z M45.7,23.5c0,0.6-0.5,1.1-1.1,1.1
	h-4.3c-0.6,0-1.1-0.5-1.1-1.1v-4.3c0-0.6,0.5-1.1,1.1-1.1h4.3c0.6,0,1.1,0.5,1.1,1.1V23.5z"/>
</svg>
