<?xml version="1.0" encoding="utf-8"?>
<!-- Generator: Adobe Illustrator 21.0.2, SVG Export Plug-In . SVG Version: 6.00 Build 0)  -->
<svg version="1.1" id="icons" xmlns="http://www.w3.org/2000/svg" xmlns:xlink="http://www.w3.org/1999/xlink" x="0px" y="0px"
	 viewBox="0 0 64 64" style="enable-background:new 0 0 64 64;" xml:space="preserve">
<style type="text/css">
	.st0{fill:#FFFFFF;}
	.st1{stroke:#FFFFFF;stroke-width:1.5;stroke-miterlimit:10;}
	.st2{stroke:#FFFFFF;stroke-width:0;stroke-linecap:round;stroke-linejoin:round;}
	.st3{fill:#FFF2FF;}
	.st4{fill:#FFFFFF;stroke:#000000;stroke-width:1.5;stroke-miterlimit:10;}
</style>
<g id="XMLID_249_">
	<g id="XMLID_813_">
		<path id="XMLID_251_" d="M53.9,46.5H10.1c-1,0-1.9-0.8-1.9-1.9V15.9c0-1,0.8-1.9,1.9-1.9h43.7c1,0,1.9,0.8,1.9,1.9v28.7
			C55.7,45.6,54.9,46.5,53.9,46.5z M10.1,15.8c-0.1,0-0.1,0.1-0.1,0.1v28.7c0,0.1,0.1,0.1,0.1,0.1h43.7c0.1,0,0.1-0.1,0.1-0.1V15.9
			c0-0.1-0.1-0.1-0.1-0.1H10.1z"/>
	</g>
	<polygon id="XMLID_812_" points="61.8,50 2.2,50 0.1,47.6 63.9,47.6 	"/>
	<path id="XMLID_811_" class="st0" d="M35.5,48.2h-6.9c-0.4,0-0.8-0.4-0.8-0.8v-0.1c0-0.4,0.4-0.8,0.8-0.8h6.9
		c0.4,0,0.8,0.4,0.8,0.8v0.1C36.3,47.9,35.9,48.2,35.5,48.2z"/>
</g>
</svg>
