<svg id="icons" xmlns="http://www.w3.org/2000/svg" viewBox="0 0 64 64"><title>changa</title><g id="_Group_" data-name="&lt;Group&gt;"><path id="_Compound_Path_" data-name="&lt;Compound Path&gt;" d="M32.33,4.11c-1.35,0-2.35,0-3.36.12a46.12,46.12,0,0,0-5.56.72A44.34,44.34,0,0,0,1.47,16.23,3.92,3.92,0,0,0,.06,20a3.76,3.76,0,0,0,2.41,3,3.77,3.77,0,0,0,3.21-.16,6.47,6.47,0,0,0,1.51-1.15,36.44,36.44,0,0,1,21.48-9.51,36.63,36.63,0,0,1,28.4,9.77,5,5,0,0,0,1.36,1A3.93,3.93,0,0,0,64,19.52a3.94,3.94,0,0,0-1.37-3.19,44.7,44.7,0,0,0-4.33-3.62A44.09,44.09,0,0,0,40.14,4.87,45,45,0,0,0,32.33,4.11Zm-.58,13.12A30.14,30.14,0,0,0,20,19.6a31.49,31.49,0,0,0-10,6.57,3.92,3.92,0,0,0,5,6c.91-.7,1.69-1.55,2.61-2.24a23.7,23.7,0,0,1,5.25-3.05,23,23,0,0,1,6.79-1.71,23.43,23.43,0,0,1,15.2,3.74,28.43,28.43,0,0,1,3.64,2.93A4,4,0,0,0,52.2,33,3.69,3.69,0,0,0,55,30.61a3.8,3.8,0,0,0-1-4.35,32.29,32.29,0,0,0-2.78-2.44,31.68,31.68,0,0,0-9.91-5.19A30.37,30.37,0,0,0,31.75,17.23ZM46.57,39.06a3.92,3.92,0,0,0-.91-2.62,18.34,18.34,0,0,0-17.17-5.78,17.87,17.87,0,0,0-6.72,2.78A14.6,14.6,0,0,0,18,36.85a3.51,3.51,0,0,0-.62,2.3,3.91,3.91,0,0,0,4.79,3.59,4.18,4.18,0,0,0,2.18-1.3,10.48,10.48,0,0,1,12.16-2.23,10.94,10.94,0,0,1,3.17,2.34,3.94,3.94,0,0,0,3.1,1.32A3.88,3.88,0,0,0,46.57,39.06ZM31.91,59.89a9.16,9.16,0,0,0,4.9-1.3A7.56,7.56,0,0,0,38.1,46.43a8.87,8.87,0,0,0-11.81,0,7.45,7.45,0,0,0-1.09,10A8.36,8.36,0,0,0,31.91,59.89Z"/></g></svg>