<svg id="icons" xmlns="http://www.w3.org/2000/svg" viewBox="0 0 64 64"><defs><style>.cls-1{fill:#fff;}</style></defs><title>changa</title><circle id="_Path_" data-name="&lt;Path&gt;" cx="32" cy="32" r="32"/><g id="_Group_" data-name="&lt;Group&gt;"><g id="_Group_2" data-name="&lt;Group&gt;"><path id="_Path_2" data-name="&lt;Path&gt;" d="M25.7,39A13.39,13.39,0,1,1,39.09,25.58,13.41,13.41,0,0,1,25.7,39Z"/><path id="_Compound_Path_" data-name="&lt;Compound Path&gt;" class="cls-1" d="M25.7,12.94A12.64,12.64,0,1,1,13.06,25.58,12.66,12.66,0,0,1,25.7,12.94m0-1.5A14.14,14.14,0,1,0,39.84,25.58,14.14,14.14,0,0,0,25.7,11.44Z"/></g><path id="_Path_3" data-name="&lt;Path&gt;" class="cls-1" d="M33,36.77a56.42,56.42,0,0,0,6.21,8.65,22.48,22.48,0,0,0,8.63,6.09,3.48,3.48,0,0,0,3,.07A3,3,0,0,0,52,49.07c.06-2.83-1.83-5.32-3.82-7.33A41.85,41.85,0,0,0,36.62,33.5"/></g></svg>