<svg id="icons" xmlns="http://www.w3.org/2000/svg" viewBox="0 0 64 64"><defs><style>.cls-1{fill:#fff;stroke:#000;stroke-miterlimit:10;stroke-width:1.5px;}</style></defs><title>changa</title><path id="_Compound_Path_" data-name="&lt;Compound Path&gt;" class="cls-1" d="M64,28.79C64.83.64,33.6,2.33,33.6,2.33-4.95,4,.17,30.25.17,30.25.7,46.54,15.72,53.42,15.72,53.42c1,4-4.76,8.25-4.76,8.25,6.45.42,13-5.18,13-5.18,4.87,1.38,13.86.63,13.86.63C65.53,54.78,64,28.79,64,28.79ZM16.6,37.62A5.6,5.6,0,1,1,22.2,32,5.6,5.6,0,0,1,16.6,37.62Zm15.4,0A5.6,5.6,0,1,1,37.6,32,5.6,5.6,0,0,1,32,37.62Zm15.4,0A5.6,5.6,0,1,1,53,32,5.6,5.6,0,0,1,47.4,37.62Z"/></svg>