<?xml version="1.0" encoding="utf-8"?>
<!-- Generator: Adobe Illustrator 21.0.2, SVG Export Plug-In . SVG Version: 6.00 Build 0)  -->
<svg version="1.1" id="icons" xmlns="http://www.w3.org/2000/svg" xmlns:xlink="http://www.w3.org/1999/xlink" x="0px" y="0px"
	 viewBox="0 0 64 64" style="enable-background:new 0 0 64 64;" xml:space="preserve">
<style type="text/css">
	.st0{fill:#FFFFFF;}
	.st1{stroke:#FFFFFF;stroke-width:1.5;stroke-miterlimit:10;}
	.st2{stroke:#FFFFFF;stroke-width:0;stroke-linecap:round;stroke-linejoin:round;}
	.st3{fill:#FFF2FF;}
	.st4{fill:#FFFFFF;stroke:#000000;stroke-width:1.5;stroke-miterlimit:10;}
</style>
<g id="XMLID_7080_">
	<g id="XMLID_7079_">
		<g id="XMLID_7078_">
			<path id="XMLID_7081_" d="M60.4,16.3H3.6c-2,0-3.6-1.6-3.6-3.6l0-2.3c0-2,1.6-3.6,3.6-3.6h56.7c2,0,3.6,1.6,3.6,3.6v2.3
				C64,14.7,62.4,16.3,60.4,16.3z"/>
		</g>
	</g>
	<g id="XMLID_7094_">
		<g id="XMLID_7095_">
			<path id="XMLID_7096_" d="M60.4,36.8H3.6c-2,0-3.6-1.6-3.6-3.6l0-2.3c0-2,1.6-3.6,3.6-3.6h56.7c2,0,3.6,1.6,3.6,3.6v2.3
				C64,35.2,62.4,36.8,60.4,36.8z"/>
		</g>
	</g>
	<g id="XMLID_9216_">
		<g id="XMLID_9217_">
			<path id="XMLID_9218_" d="M60.4,57.3H3.6c-2,0-3.6-1.6-3.6-3.6l0-2.3c0-2,1.6-3.6,3.6-3.6h56.7c2,0,3.6,1.6,3.6,3.6v2.3
				C64,55.7,62.4,57.3,60.4,57.3z"/>
		</g>
	</g>
</g>
</svg>
