<?xml version="1.0" encoding="utf-8"?>
<!-- Generator: Adobe Illustrator 21.0.2, SVG Export Plug-In . SVG Version: 6.00 Build 0)  -->
<svg version="1.1" id="icons" xmlns="http://www.w3.org/2000/svg" xmlns:xlink="http://www.w3.org/1999/xlink" x="0px" y="0px"
	 viewBox="0 0 64 64" style="enable-background:new 0 0 64 64;" xml:space="preserve">
<style type="text/css">
	.st0{fill:#FFFFFF;}
	.st1{stroke:#FFFFFF;stroke-width:1.5;stroke-miterlimit:10;}
	.st2{stroke:#FFFFFF;stroke-width:0;stroke-linecap:round;stroke-linejoin:round;}
	.st3{fill:#FFF2FF;}
	.st4{fill:#FFFFFF;stroke:#000000;stroke-width:1.5;stroke-miterlimit:10;}
</style>
<g id="XMLID_132_">
	<circle id="XMLID_133_" cx="13" cy="32" r="3.7"/>
	<path id="XMLID_134_" d="M32,0C14.3,0,0,14.3,0,32c0,17.7,14.3,32,32,32c17.7,0,32-14.3,32-32C64,14.3,49.7,0,32,0z M27,36.4
		c-1.7,3.9-5.6,6.7-10.2,6.7c-6.1,0-11.1-5-11.1-11.1c0-6.1,5-11.1,11.1-11.1c4.2,0,7.9,2.3,9.8,5.8C27.1,28.9,27.7,32.9,27,36.4z
		 M52.3,36.2l-2.4-2.4l-2.4,2.4h-2.2l-2.4-2.4l-2.4,2.4H39l-3.3-3.3l-3.3,3.3h-4.5c0.3-1.9,0.3-3.9,0.1-5.7h26
		c0.5,0,0.9-0.2,0.9-0.3s-0.4-0.3-0.9-0.3H28c-0.1-0.7-0.2-1.4-0.3-2h27.8l2.8,4.2l-2.8,4.2H52.3z"/>
</g>
</svg>
