<svg id="icons" xmlns="http://www.w3.org/2000/svg" viewBox="0 0 64 64"><defs><style>.cls-1{fill:#fff;}</style></defs><title>changa</title><g id="_Group_" data-name="&lt;Group&gt;"><path id="_Path_" data-name="&lt;Path&gt;" class="cls-1" d="M32,63.25A31.25,31.25,0,1,1,63.25,32,31.29,31.29,0,0,1,32,63.25Z"/><path id="_Compound_Path_" data-name="&lt;Compound Path&gt;" d="M32,1.5A30.5,30.5,0,1,1,1.5,32,30.53,30.53,0,0,1,32,1.5M32,0A32,32,0,1,0,64,32,32,32,0,0,0,32,0Z"/></g><g id="_Group_2" data-name="&lt;Group&gt;"><path id="_Compound_Path_2" data-name="&lt;Compound Path&gt;" d="M48.84,15.16a11.28,11.28,0,0,0-15.91,0L15.34,32.75A11.25,11.25,0,1,0,31.25,48.66L48.84,31.07A11.28,11.28,0,0,0,48.84,15.16ZM46.92,29.69,39.51,37.1,27,24.65l7.44-7.44A8.82,8.82,0,0,1,46.92,29.69Z"/></g></svg>