<svg id="icons" xmlns="http://www.w3.org/2000/svg" viewBox="0 0 64 64"><defs><style>.cls-1{fill:#fff;}</style></defs><title>changa</title><g id="_Group_" data-name="&lt;Group&gt;"><path id="_Path_" data-name="&lt;Path&gt;" class="cls-1" d="M13,52.2C6.57,52.2,1.55,47.18.81,40A13.87,13.87,0,0,1,12,24.69a12.26,12.26,0,0,1,3.74-.16l.29,0a1.4,1.4,0,0,0,1.39-1.09,16.5,16.5,0,0,1,7.91-9.53A18.52,18.52,0,0,1,34,11.8,17.64,17.64,0,0,1,51.51,27.15a14.94,14.94,0,0,1,.14,2.27A1.3,1.3,0,0,0,53,30.88a11.13,11.13,0,0,1,9.81,7.67,10,10,0,0,1-1.76,8.82,11.68,11.68,0,0,1-9.5,4.83H13Z"/><path id="_Compound_Path_" data-name="&lt;Compound Path&gt;" d="M34,11v1.5A16.9,16.9,0,0,1,50.77,27.26a14.24,14.24,0,0,1,.13,2.16A2,2,0,0,0,53,31.63a10.38,10.38,0,0,1,9.14,7.14,9.27,9.27,0,0,1-1.65,8.15,11,11,0,0,1-8.95,4.52H13C7,51.45,2.26,46.7,1.55,39.9A13.13,13.13,0,0,1,12.18,25.43a11.51,11.51,0,0,1,2.25-.22,11.64,11.64,0,0,1,1.26.07l.37,0a2.11,2.11,0,0,0,2.09-1.58A15.57,15.57,0,0,1,25.7,14.6,17.78,17.78,0,0,1,34,12.55V11m0,0a19.37,19.37,0,0,0-9,2.22,17.18,17.18,0,0,0-8.27,9.94c-.15.42-.29.59-.68.59h-.2a13,13,0,0,0-4,.18A14.56,14.56,0,0,0,.06,40.06C.8,47.2,5.85,53,13,53H51.56c8.39,0,14-8.11,12-14.63a11.88,11.88,0,0,0-10.47-8.19c-.51,0-.68-.17-.67-.7A15.72,15.72,0,0,0,52.25,27,18.34,18.34,0,0,0,34,11Z"/></g></svg>