<svg id="icons" xmlns="http://www.w3.org/2000/svg" viewBox="0 0 64 64"><defs><style>.cls-1{fill:#fff;}</style></defs><title>changa</title><g id="_Group_" data-name="&lt;Group&gt;"><path id="_Path_" data-name="&lt;Path&gt;" class="cls-1" d="M32,63.25A31.25,31.25,0,1,1,63.25,32,31.29,31.29,0,0,1,32,63.25Z"/><path id="_Compound_Path_" data-name="&lt;Compound Path&gt;" d="M32,1.5A30.5,30.5,0,1,1,1.5,32,30.53,30.53,0,0,1,32,1.5M32,0A32,32,0,1,0,64,32,32,32,0,0,0,32,0Z"/></g><path id="_Compound_Path_2" data-name="&lt;Compound Path&gt;" d="M44.23,22.27,30.67,8.53a.27.27,0,0,0-.46.19V26.23a.27.27,0,0,1-.46.19l-6.82-7a.27.27,0,0,0-.38,0l-2.76,2.71a.27.27,0,0,0,0,.38l9.12,9.31a.27.27,0,0,1,0,.38l-9.12,9.31a.27.27,0,0,0,0,.38l2.76,2.71a.27.27,0,0,0,.38,0l6.82-7a.27.27,0,0,1,.46.19V55.28a.27.27,0,0,0,.46.19L44.22,41.91a.27.27,0,0,0,0-.38l-9.1-9.16a.27.27,0,0,1,0-.38l9.1-9.35A.27.27,0,0,0,44.23,22.27Zm-10.59,2V17.63a.27.27,0,0,1,.46-.19l4.84,4.91a.27.27,0,0,1,0,.38l-4.84,4.81a.27.27,0,0,1-.46-.19Zm5.3,17.61-4.84,4.81a.27.27,0,0,1-.46-.19V36.76a.27.27,0,0,1,.46-.19l4.84,4.91A.27.27,0,0,1,38.94,41.86Z"/></svg>