<?xml version="1.0" encoding="utf-8"?>
<!-- Generator: Adobe Illustrator 21.0.2, SVG Export Plug-In . SVG Version: 6.00 Build 0)  -->
<svg version="1.1" id="icons" xmlns="http://www.w3.org/2000/svg" xmlns:xlink="http://www.w3.org/1999/xlink" x="0px" y="0px"
	 viewBox="0 0 64 64" style="enable-background:new 0 0 64 64;" xml:space="preserve">
<style type="text/css">
	.st0{fill:#FFFFFF;}
	.st1{stroke:#FFFFFF;stroke-width:1.5;stroke-miterlimit:10;}
	.st2{stroke:#FFFFFF;stroke-width:0;stroke-linecap:round;stroke-linejoin:round;}
	.st3{fill:#FFF2FF;}
	.st4{fill:#FFFFFF;stroke:#000000;stroke-width:1.5;stroke-miterlimit:10;}
</style>
<circle id="XMLID_287_" cx="32" cy="32" r="32"/>
<g id="XMLID_307_">
	<path id="XMLID_308_" class="st0" d="M38.5,17.5c0.2,0,0.5,0,0.7,0c0.4,0,0.7,0.1,1.1,0.1c1.5,0.3,2.8,1,3.8,2.1
		c0.1,0.1,0.1,0.1,0.2,0.1c1.3-0.3,2.5-0.7,3.7-1.3c0.3-0.1,0.5-0.3,0.8-0.4c-0.3,0.9-0.7,1.6-1.2,2.3c-0.5,0.7-1.2,1.2-1.9,1.7
		c1.4-0.2,2.8-0.5,4.1-1.1c-0.1,0.1-0.1,0.2-0.1,0.2c-0.9,1.3-2.1,2.5-3.4,3.5c-0.1,0.1-0.1,0.1-0.1,0.2c0.1,1.7-0.1,3.5-0.5,5.2
		c-1,4.2-2.9,7.8-6,10.8c-1.6,1.5-3.3,2.7-5.3,3.6c-2.7,1.3-5.5,1.9-8.5,1.9c-1.4,0-2.8-0.1-4.2-0.3c-2.6-0.5-5.1-1.4-7.3-2.8
		c0,0-0.1,0-0.1-0.1c4,0.4,7.5-0.6,10.7-3c-1.5-0.1-2.9-0.5-4.2-1.5c-1.2-0.9-2.1-2.1-2.6-3.6c0.6,0,1.1,0.1,1.6,0.1
		c0.5,0,1.1-0.1,1.6-0.3c-4-0.9-5.9-4.6-5.8-7.2c0.5,0.2,1,0.4,1.6,0.6c0.5,0.2,1.1,0.2,1.7,0.2c-1.5-1.1-2.6-2.6-3-4.4
		c-0.4-1.9-0.1-3.6,0.8-5.3c4,4.7,9,7.2,15.1,7.6c0-0.1,0-0.2,0-0.2c-0.3-1.6-0.2-3.1,0.5-4.6c1.1-2.2,2.8-3.5,5.1-4
		C37.7,17.6,38.1,17.6,38.5,17.5z"/>
</g>
</svg>
