<?xml version="1.0" encoding="utf-8"?>
<!-- Generator: Adobe Illustrator 21.0.2, SVG Export Plug-In . SVG Version: 6.00 Build 0)  -->
<svg version="1.1" id="icons" xmlns="http://www.w3.org/2000/svg" xmlns:xlink="http://www.w3.org/1999/xlink" x="0px" y="0px"
	 viewBox="0 0 64 64" style="enable-background:new 0 0 64 64;" xml:space="preserve">
<style type="text/css">
	.st0{fill:#FFFFFF;}
	.st1{stroke:#FFFFFF;stroke-width:1.5;stroke-miterlimit:10;}
	.st2{stroke:#FFFFFF;stroke-width:0;stroke-linecap:round;stroke-linejoin:round;}
	.st3{fill:#FFF2FF;}
	.st4{fill:#FFFFFF;stroke:#000000;stroke-width:1.5;stroke-miterlimit:10;}
</style>
<g id="XMLID_443_">
	<path id="XMLID_444_" d="M37.9,47.2c1.4-0.3,2.7-0.5,3.9-0.8c3.8-1,7-2.8,8.7-6.5c1.8-3.8,2.3-7.9,1.2-12.1c-0.4-1.6-1.2-3-2.3-4.3
		c-0.3-0.3-0.4-0.6-0.2-1.1c0.7-2.5,0.5-4.9-0.4-7.3c-0.1-0.2-0.5-0.5-0.8-0.5c-1.5,0-2.9,0.5-4.3,1.1c-1.2,0.6-2.3,1.3-3.4,1.9
		c-0.3,0.1-0.6,0.2-0.9,0.1c-5-1.2-10-1.2-14.9,0c-0.3,0.1-0.7,0-1-0.2c-2.1-1.3-4.2-2.4-6.6-2.9c-0.1,0-0.1,0-0.2,0
		c-1.3-0.2-1.4-0.1-1.8,1.1c-0.7,2.3-0.8,4.6-0.1,6.9c0.1,0.2,0,0.5-0.1,0.7c-2.9,3.3-3.4,7.2-2.8,11.3c0.2,1.5,0.6,2.9,1.1,4.3
		c1.6,4.2,4.9,6.4,9.1,7.4c1.3,0.3,2.6,0.5,4,0.8c-1,1.1-1.6,2.4-1.9,3.9c0,0.2-0.3,0.3-0.5,0.4c-3.4,1.3-6.7,0.7-8.8-2.7
		c-1-1.6-2.3-2.8-4.3-3.2c-0.5-0.1-1-0.1-1.5,0c-0.7,0.1-0.8,0.5-0.3,1c0.2,0.2,0.5,0.5,0.7,0.6c1.7,1,2.8,2.6,3.6,4.4
		c1.2,2.9,3.4,4.2,6.4,4.4c1.5,0.1,3-0.1,4.5-0.1c0,1.9,0.1,4,0,6c0,1-1.1,1.5-2.3,1.1c-2.7-0.9-5.2-2.1-7.5-3.7
		c-9.6-6.8-14.4-16-13.9-27.7C0.9,17,11.6,5,26,2.3c16.5-3.2,32.5,6.9,36.8,23.1c4.2,15.8-4.9,32.5-20.4,37.6
		c-1.6,0.5-2.5-0.1-2.5-1.8c0-2.6,0-5.3,0-7.9C39.9,51,39.5,48.9,37.9,47.2z"/>
</g>
</svg>
