<?xml version="1.0" encoding="utf-8"?>
<!-- Generator: Adobe Illustrator 21.0.2, SVG Export Plug-In . SVG Version: 6.00 Build 0)  -->
<svg version="1.1" id="icons" xmlns="http://www.w3.org/2000/svg" xmlns:xlink="http://www.w3.org/1999/xlink" x="0px" y="0px"
	 viewBox="0 0 64 64" style="enable-background:new 0 0 64 64;" xml:space="preserve">
<style type="text/css">
	.st0{fill:#FFFFFF;}
	.st1{stroke:#FFFFFF;stroke-width:1.5;stroke-miterlimit:10;}
	.st2{stroke:#FFFFFF;stroke-width:0;stroke-linecap:round;stroke-linejoin:round;}
	.st3{fill:#FFF2FF;}
	.st4{fill:#FFFFFF;stroke:#000000;stroke-width:1.5;stroke-miterlimit:10;}
</style>
<g id="XMLID_387_">
	<path id="XMLID_4915_" class="st0" d="M32,63.3c-17.2,0-31.3-14-31.3-31.3S14.8,0.8,32,0.8s31.3,14,31.3,31.3S49.2,63.3,32,63.3z"
		/>
	<path id="XMLID_4912_" d="M32,1.5c16.8,0,30.5,13.7,30.5,30.5S48.8,62.5,32,62.5S1.5,48.8,1.5,32S15.2,1.5,32,1.5 M32,0
		C14.3,0,0,14.3,0,32s14.3,32,32,32s32-14.3,32-32S49.7,0,32,0L32,0z"/>
</g>
<g id="XMLID_407_">
	<path id="XMLID_408_" d="M13.4,34c0-1.3,0-2.7,0-4c0-0.1,0-0.2,0-0.3c0.1-1.3,0.2-2.7,0.3-4c0.1-1.9,0.8-3.6,2-5
		c0.8-0.9,1.8-1.4,3-1.5c0.9-0.1,1.9-0.2,2.8-0.2c2.1-0.1,4.3-0.2,6.4-0.2c5.9-0.1,11.9,0,17.8,0.5c1,0.1,1.9,0.5,2.6,1.2
		c1.1,1.1,1.6,2.4,1.8,3.8c0.2,1.4,0.2,2.8,0.3,4.3c0,0.4,0.1,0.8,0.1,1.2c0,1.4,0,2.7,0,4.1c0,0.1,0,0.2,0,0.3
		c-0.1,1.4-0.2,2.7-0.2,4.1c-0.1,1.8-0.7,3.4-1.8,4.7c-0.7,0.9-1.6,1.6-2.8,1.8c-1,0.1-1.9,0.2-2.9,0.2c-2.6,0.1-5.2,0.2-7.8,0.2
		c-5.4,0.1-10.8-0.1-16.2-0.4c-1.1-0.1-2-0.5-2.8-1.3c-1.2-1.2-1.9-2.6-2.2-4.2c-0.2-1.4-0.2-2.8-0.4-4.2
		C13.4,34.7,13.4,34.3,13.4,34z M39,31.9c-3.9-2.2-7.8-4.4-11.6-6.7c0,4.5,0,8.9,0,13.3C31.2,36.4,35.1,34.2,39,31.9z"/>
</g>
</svg>
