<svg id="icons" xmlns="http://www.w3.org/2000/svg" viewBox="0 0 64 64"><title>changa</title><g id="_Group_" data-name="&lt;Group&gt;"><path id="_Compound_Path_" data-name="&lt;Compound Path&gt;" d="M46.32,30.25a32,32,0,0,0,5.6-9.3,41.29,41.29,0,0,0,2.41-8.52A47.76,47.76,0,0,0,55,3.06c0-.56.13-.76.71-.72s1.36,0,2,0c.05-.09.1-.14.1-.19q0-1,0-2H6.13c0,.13,0,.27,0,.4,0,.58,0,1.16,0,1.82H9C9,3.55,9,4.68,9,5.8a43.3,43.3,0,0,0,4.44,18.12,29.13,29.13,0,0,0,5.65,7.83v.07c-.68.77-1.38,1.5-2,2.28a32.93,32.93,0,0,0-5.22,9.2A41.51,41.51,0,0,0,9.23,54.92C9.07,57,9,59.08,9,61.16a.61.61,0,0,1-.65.59c-.7,0-1.4,0-2.13,0a2.48,2.48,0,0,0-.08.42c0,.57,0,1.14,0,1.71H57.85V61.74c-.77,0-1.53,0-2.28,0-.4,0-.53-.12-.53-.5a47.84,47.84,0,0,0-.31-7.48,67.41,67.41,0,0,0-1.8-8.16,31,31,0,0,0-2.37-6,29.67,29.67,0,0,0-5.68-7.81h0ZM39.68,32.7a28.57,28.57,0,0,1,10.17,13,46.4,46.4,0,0,1,3.36,14.52c0,.22,0,.44,0,.72H10.77a47.58,47.58,0,0,1,1.56-9.86,37.23,37.23,0,0,1,6.56-13.49,25.08,25.08,0,0,1,5.33-4.86c.4-.29.79-.6,1.26-1-.61-.47-1.15-.91-1.73-1.32a26.82,26.82,0,0,1-8-9.39A44.56,44.56,0,0,1,10.78,2.9a2,2,0,0,1,0-.26H53.3c-.15,1.42-.28,2.81-.46,4.2a42.5,42.5,0,0,1-2.43,9.68,30.18,30.18,0,0,1-7.95,12.2c-1.05.93-2.21,1.75-3.32,2.61l-.58.46C39,32.13,39.3,32.44,39.68,32.7Z"/><g id="_Group_2" data-name="&lt;Group&gt;"><path id="_Compound_Path_2" data-name="&lt;Compound Path&gt;" d="M32.41,35c2.13,0,5,1.95,6,2.73a32.46,32.46,0,0,1,7.48,10.85,33.62,33.62,0,0,1,1.92,7.63c.05.42.1.83.15,1.25H16.83a34,34,0,0,1,3.71-12.47,20.31,20.31,0,0,1,6.12-7.16l.1-.07.09-.08c.82-.75,3.42-2.68,5.57-2.68m0-2c-3.42,0-6.92,3.2-6.92,3.2A22.4,22.4,0,0,0,18.78,44a37.21,37.21,0,0,0-4.12,15.2,1.66,1.66,0,0,0,0,.21H50.16c-.13-1.18-.24-2.35-.39-3.51a35.49,35.49,0,0,0-2-8.09,34.13,34.13,0,0,0-8.05-11.66S35.77,33,32.41,33Z"/></g><g id="_Group_3" data-name="&lt;Group&gt;"><path id="_Compound_Path_3" data-name="&lt;Compound Path&gt;" d="M47.94,6.63c0,.42-.09.83-.15,1.25a33.62,33.62,0,0,1-1.92,7.63A32.46,32.46,0,0,1,38.4,26.37c-.91.74-3.85,2.73-6,2.73s-4.75-1.93-5.56-2.68l-.09-.08-.1-.07a20.31,20.31,0,0,1-6.12-7.16A34,34,0,0,1,16.83,6.63H47.94m2.22-2H14.68a1.66,1.66,0,0,0,0,.21A37.21,37.21,0,0,0,18.78,20a22.4,22.4,0,0,0,6.72,7.84s3.49,3.2,6.92,3.2,7.28-3.2,7.28-3.2a34.13,34.13,0,0,0,8.05-11.66,35.49,35.49,0,0,0,2-8.09c.15-1.16.26-2.32.39-3.51Z"/></g><g id="_Group_4" data-name="&lt;Group&gt;"><path id="_Path_" data-name="&lt;Path&gt;" d="M32.41,24.59A6.37,6.37,0,0,1,28.89,23a11.39,11.39,0,0,1-3.42-4,18.93,18.93,0,0,1-2.09-7.73.84.84,0,0,1,0-.11H41.44c-.07.6-.12,1.2-.2,1.78a18.05,18.05,0,0,1-1,4.11A17.36,17.36,0,0,1,36.12,23S34.12,24.59,32.41,24.59Z"/></g><g id="_Group_5" data-name="&lt;Group&gt;"><path id="_Path_2" data-name="&lt;Path&gt;" d="M32.41,40.18a6.37,6.37,0,0,0-3.52,1.63,11.39,11.39,0,0,0-3.42,4,18.93,18.93,0,0,0-2.09,7.73.84.84,0,0,0,0,.11H41.44c-.07-.6-.12-1.2-.2-1.78a18.05,18.05,0,0,0-1-4.11,17.36,17.36,0,0,0-4.1-5.93S34.12,40.18,32.41,40.18Z"/></g></g></svg>