<svg id="icons" xmlns="http://www.w3.org/2000/svg" viewBox="0 0 64 64"><defs><style>.cls-1{fill:#fff;stroke:#000;stroke-miterlimit:10;stroke-width:1.5px;}</style></defs><title>changa</title><path id="_Compound_Path_" data-name="&lt;Compound Path&gt;" class="cls-1" d="M64,28.77C64.83.63,33.6,2.31,33.6,2.31-4.95,4,.17,30.24.17,30.24.7,46.53,15.72,53.4,15.72,53.4c1,4-4.76,8.25-4.76,8.25,6.45.42,13-5.18,13-5.18,4.87,1.38,13.86.63,13.86.63C65.53,54.76,64,28.77,64,28.77Z"/><path id="_Compound_Path_2" data-name="&lt;Compound Path&gt;" class="cls-1" d="M28.29,48s5.72.47,8.82-.4c0,0,4.18,3.57,8.28,3.3,0,0-3.64-2.69-3-5.25,0,0,9.56-4.38,9.9-14.75,0,0,3.26-16.71-21.28-17.78,0,0-19.88-1.07-19.38,16.85C11.6,29.94,10.65,46.48,28.29,48Z"/></svg>