<?xml version="1.0" encoding="utf-8"?>
<!-- Generator: Adobe Illustrator 21.0.2, SVG Export Plug-In . SVG Version: 6.00 Build 0)  -->
<svg version="1.1" id="icons" xmlns="http://www.w3.org/2000/svg" xmlns:xlink="http://www.w3.org/1999/xlink" x="0px" y="0px"
	 viewBox="0 0 64 64" style="enable-background:new 0 0 64 64;" xml:space="preserve">
<style type="text/css">
	.st0{fill:#FFFFFF;}
	.st1{stroke:#FFFFFF;stroke-width:1.5;stroke-miterlimit:10;}
	.st2{stroke:#FFFFFF;stroke-width:0;stroke-linecap:round;stroke-linejoin:round;}
	.st3{fill:#FFF2FF;}
	.st4{fill:#FFFFFF;stroke:#000000;stroke-width:1.5;stroke-miterlimit:10;}
</style>
<g id="XMLID_647_">
	<path id="XMLID_4831_" class="st0" d="M32,63.3c-17.2,0-31.3-14-31.3-31.3S14.8,0.8,32,0.8s31.3,14,31.3,31.3S49.2,63.3,32,63.3z"
		/>
	<path id="XMLID_4828_" d="M32,1.5c16.8,0,30.5,13.7,30.5,30.5S48.8,62.5,32,62.5S1.5,48.8,1.5,32S15.2,1.5,32,1.5 M32,0
		C14.3,0,0,14.3,0,32s14.3,32,32,32s32-14.3,32-32S49.7,0,32,0L32,0z"/>
</g>
<g id="XMLID_436_">
	<circle id="XMLID_438_" class="st4" cx="32" cy="32" r="24.2"/>
	<circle id="XMLID_439_" cx="32" cy="32" r="15.1"/>
	<circle id="XMLID_440_" class="st0" cx="32" cy="32" r="5.6"/>
</g>
</svg>
