<?xml version="1.0" encoding="utf-8"?>
<!-- Generator: Adobe Illustrator 21.0.2, SVG Export Plug-In . SVG Version: 6.00 Build 0)  -->
<svg version="1.1" id="icons" xmlns="http://www.w3.org/2000/svg" xmlns:xlink="http://www.w3.org/1999/xlink" x="0px" y="0px"
	 viewBox="0 0 64 64" style="enable-background:new 0 0 64 64;" xml:space="preserve">
<style type="text/css">
	.st0{fill:#FFFFFF;}
	.st1{stroke:#FFFFFF;stroke-width:1.5;stroke-miterlimit:10;}
	.st2{stroke:#FFFFFF;stroke-width:0;stroke-linecap:round;stroke-linejoin:round;}
	.st3{fill:#FFF2FF;}
	.st4{fill:#FFFFFF;stroke:#000000;stroke-width:1.5;stroke-miterlimit:10;}
</style>
<path id="XMLID_360_" d="M57.5,14.1h-6.8V7.2V0.7h-6.5H30.7v6.5h7.6L25.5,20.1c-2.6-1.8-5.8-2.8-9.2-2.8C7.3,17.2,0,24.6,0,33.6
	c0,8.1,5.9,14.8,13.6,16.1c1.3,7.7,8,13.6,16.1,13.6c9,0,16.3-7.3,16.3-16.3c0-2.8-0.7-5.4-1.9-7.7L57.5,26v8H64V20.6v-6.5H57.5z
	 M4.3,33.6c0-6.7,5.4-12,12-12c5.7,0,10.4,3.9,11.7,9.2c-7.7,0.8-13.8,6.9-14.6,14.6C8.2,44,4.3,39.2,4.3,33.6z M28.3,35
	c-0.7,5.5-5,9.9-10.5,10.5C18.4,40,22.8,35.7,28.3,35z M29.7,59c-5.7,0-10.4-3.9-11.7-9.2c7.7-0.8,13.8-6.9,14.6-14.6
	c5.3,1.3,9.2,6,9.2,11.7C41.8,53.6,36.4,59,29.7,59z M38.9,33.4c-1.9-1.3-4.1-2.2-6.4-2.6c-0.3-1.8-0.9-3.4-1.7-4.9l13.3-13.3v8h0v0
	h7.6L38.9,33.4z"/>
</svg>
