<?xml version="1.0" encoding="utf-8"?>
<!-- Generator: Adobe Illustrator 21.0.2, SVG Export Plug-In . SVG Version: 6.00 Build 0)  -->
<svg version="1.1" id="icons" xmlns="http://www.w3.org/2000/svg" xmlns:xlink="http://www.w3.org/1999/xlink" x="0px" y="0px"
	 viewBox="0 0 64 64" style="enable-background:new 0 0 64 64;" xml:space="preserve">
<style type="text/css">
	.st0{fill:#FFFFFF;}
	.st1{stroke:#FFFFFF;stroke-width:1.5;stroke-miterlimit:10;}
	.st2{stroke:#FFFFFF;stroke-width:0;stroke-linecap:round;stroke-linejoin:round;}
	.st3{fill:#FFF2FF;}
	.st4{fill:#FFFFFF;stroke:#000000;stroke-width:1.5;stroke-miterlimit:10;}
</style>
<g id="XMLID_233_">
	<g id="XMLID_234_">
		<path id="XMLID_235_" d="M34,0h-0.1C33.9,0.4,34,0.8,34,1.2v6.1c0.6,0.5,1,1.2,1,2v6c0,0.8-0.4,1.6-1,2v5.6
			c4.7,0.1,10.1,0.9,15.8,2.4v-9.5C49.8,7.1,42.7,0,34,0z"/>
		<path id="XMLID_236_" d="M29,15.3v-6c0-0.8,0.4-1.6,1-2V1.2c0-0.4,0-0.8,0.1-1.2H30c-8.7,0-15.8,7.1-15.8,15.8v9.8
			c3.5-1.2,8.9-2.5,15.8-2.7v-5.6C29.4,16.9,29,16.1,29,15.3z"/>
		<path id="XMLID_237_" d="M14.2,28v20.1C14.2,56.9,21.3,64,30,64H34c8.7,0,15.8-7.1,15.8-15.8V27.6C32.9,22.9,20,26,14.2,28z"/>
	</g>
	<path id="XMLID_592_" d="M32.7,17.2h-1.4c-0.5,0-1-0.4-1-1V8.5c0-0.5,0.4-1,1-1h1.4c0.5,0,1,0.4,1,1v7.7
		C33.7,16.7,33.2,17.2,32.7,17.2z"/>
</g>
</svg>
