<?xml version="1.0" encoding="utf-8"?>
<!-- Generator: Adobe Illustrator 21.0.2, SVG Export Plug-In . SVG Version: 6.00 Build 0)  -->
<svg version="1.1" id="icons" xmlns="http://www.w3.org/2000/svg" xmlns:xlink="http://www.w3.org/1999/xlink" x="0px" y="0px"
	 viewBox="0 0 64 64" style="enable-background:new 0 0 64 64;" xml:space="preserve">
<style type="text/css">
	.st0{fill:#FFFFFF;}
	.st1{stroke:#FFFFFF;stroke-width:1.5;stroke-miterlimit:10;}
	.st2{stroke:#FFFFFF;stroke-width:0;stroke-linecap:round;stroke-linejoin:round;}
	.st3{fill:#FFF2FF;}
	.st4{fill:#FFFFFF;stroke:#000000;stroke-width:1.5;stroke-miterlimit:10;}
</style>
<g id="XMLID_138_">
	<path id="XMLID_1235_" d="M19.7,56.6l-7,7c-0.4,0.4-1,0.4-1.4,0l-2.9-2.9c-0.4-0.4-0.4-1,0-1.4l7-7c0.4-0.4,1-0.4,1.4,0l2.9,2.9
		C20.1,55.6,20.1,56.2,19.7,56.6z"/>
	<path id="XMLID_1234_" d="M44.2,56.5l7.1,7.1c0.4,0.4,1,0.4,1.4,0l2.9-2.9c0.4-0.4,0.4-1,0-1.4l-7.1-7.1c-0.4-0.4-1-0.4-1.4,0
		l-2.9,2.9C43.8,55.5,43.8,56.1,44.2,56.5z"/>
	<path id="XMLID_1233_" d="M3.1,17.6C0.5,13.7,3.2,7.2,9.3,3.2S22.3-0.9,25,3"/>
	<path id="XMLID_1232_" d="M60.9,17.6c2.6-3.9-0.2-10.4-6.2-14.4S41.7-0.9,39,3"/>
	<g id="XMLID_140_">
		<g id="XMLID_4280_">
			<path id="XMLID_62_" class="st0" d="M32,63.3c-17.2,0-31.3-14-31.3-31.3S14.8,0.8,32,0.8s31.3,14,31.3,31.3S49.2,63.3,32,63.3z"
				/>
			<path id="XMLID_59_" d="M32,1.5c16.8,0,30.5,13.7,30.5,30.5S48.8,62.5,32,62.5S1.5,48.8,1.5,32S15.2,1.5,32,1.5 M32,0
				C14.4,0,0,14.4,0,32s14.4,32,32,32s32-14.4,32-32S49.6,0,32,0L32,0z"/>
		</g>
		<g id="XMLID_4277_">
			<path id="XMLID_4285_" d="M32,8.8c0.4,4.5,0.6,8.9,0.7,13.3c0,2.2,0.1,4.4,0,6.7c0,2.2,0,4.4-0.1,6.7l-0.3-0.7
				c1.1,1.1,2.3,2.3,3.4,3.4c1.1,1.1,2.2,2.3,3.3,3.5c1.1,1.2,2.2,2.4,3.2,3.6c1.1,1.2,2.1,2.4,3.1,3.7c-1.3-1-2.5-2-3.7-3.1
				c-1.2-1-2.4-2.1-3.6-3.2c-1.2-1.1-2.4-2.1-3.6-3.3c-1.2-1.1-2.3-2.2-3.5-3.3l-0.3-0.3l0-0.4c0-2.2,0-4.4,0.1-6.7
				c0-2.2,0.1-4.4,0.2-6.7C31.2,17.7,31.5,13.2,32,8.8z"/>
		</g>
		<circle id="XMLID_4276_" cx="32" cy="4.1" r="0.8"/>
		<circle id="XMLID_4275_" cx="32" cy="59" r="0.8"/>
		<circle id="XMLID_4274_" cx="3.6" cy="32" r="0.8"/>
		<circle id="XMLID_4273_" cx="59.6" cy="32" r="0.8"/>
		<circle id="XMLID_139_" class="st1" cx="31.7" cy="35.2" r="4.8"/>
	</g>
</g>
</svg>
