<svg id="icons" xmlns="http://www.w3.org/2000/svg" viewBox="0 0 64 64"><defs><style>.cls-1{fill:#fff;}</style></defs><title>changa</title><g id="_Group_" data-name="&lt;Group&gt;"><path id="_Path_" data-name="&lt;Path&gt;" class="cls-1" d="M32,63.25A31.25,31.25,0,1,1,63.25,32,31.29,31.29,0,0,1,32,63.25Z"/><path id="_Compound_Path_" data-name="&lt;Compound Path&gt;" d="M32,1.5A30.5,30.5,0,1,1,1.5,32,30.53,30.53,0,0,1,32,1.5M32,0A32,32,0,1,0,64,32,32,32,0,0,0,32,0Z"/></g><g id="_Group_2" data-name="&lt;Group&gt;"><path id="_Path_2" data-name="&lt;Path&gt;" d="M28.69,19.73,22.3,11.81A1.5,1.5,0,0,0,20,11.54c-.87.69-1.73,1.39-2.59,2.09a2.28,2.28,0,0,1-.26.16l8.58,10.69,2.73-2.17A1.6,1.6,0,0,0,28.69,19.73Z"/><path id="_Path_3" data-name="&lt;Path&gt;" d="M46.54,50.86c1-.76,1.88-1.48,2.79-2.22a1.54,1.54,0,0,0,.26-2.45l-6.16-7.75A1.54,1.54,0,0,0,41,38.18l-1.55,1.24-1.23,1Z"/><path id="_Path_4" data-name="&lt;Path&gt;" d="M13.93,20.71a20.94,20.94,0,0,0,2,8.92,42.36,42.36,0,0,0,4.6,7.92A51.93,51.93,0,0,0,30.07,48a23,23,0,0,0,8.1,4.42,10.93,10.93,0,0,0,5.7.25,3.52,3.52,0,0,0,1.52-.71L37.13,41.48a1.91,1.91,0,0,1-2.41,0,7.37,7.37,0,0,1-.89-.65,47.92,47.92,0,0,1-7.22-8,23.2,23.2,0,0,1-2.51-4.11,3,3,0,0,1-.34-2.07,7.46,7.46,0,0,1,.6-1.19L15.91,14.77,15.7,15c-.11.14-.22.28-.32.43A9.89,9.89,0,0,0,13.93,20.71Z"/></g></svg>