<?xml version="1.0" encoding="utf-8"?>
<!-- Generator: Adobe Illustrator 21.0.2, SVG Export Plug-In . SVG Version: 6.00 Build 0)  -->
<svg version="1.1" id="icons" xmlns="http://www.w3.org/2000/svg" xmlns:xlink="http://www.w3.org/1999/xlink" x="0px" y="0px"
	 viewBox="0 0 64 64" style="enable-background:new 0 0 64 64;" xml:space="preserve">
<style type="text/css">
	.st0{fill:#FFFFFF;}
	.st1{stroke:#FFFFFF;stroke-width:1.5;stroke-miterlimit:10;}
	.st2{stroke:#FFFFFF;stroke-width:0;stroke-linecap:round;stroke-linejoin:round;}
	.st3{fill:#FFF2FF;}
	.st4{fill:#FFFFFF;stroke:#000000;stroke-width:1.5;stroke-miterlimit:10;}
</style>
<g id="XMLID_4863_">
	<path id="XMLID_4900_" class="st0" d="M32,63.3c-17.2,0-31.3-14-31.3-31.3S14.8,0.8,32,0.8s31.3,14,31.3,31.3S49.2,63.3,32,63.3z"
		/>
	<path id="XMLID_4897_" d="M32,1.5c16.8,0,30.5,13.7,30.5,30.5S48.8,62.5,32,62.5S1.5,48.8,1.5,32S15.2,1.5,32,1.5 M32,0
		C14.3,0,0,14.3,0,32s14.3,32,32,32c17.7,0,32-14.3,32-32S49.7,0,32,0L32,0z"/>
</g>
<g id="XMLID_309_">
	<path id="XMLID_310_" d="M38.5,17.5c0.2,0,0.5,0,0.7,0c0.4,0,0.7,0.1,1.1,0.1c1.5,0.3,2.8,1,3.8,2.1c0.1,0.1,0.1,0.1,0.2,0.1
		c1.3-0.3,2.5-0.7,3.7-1.3c0.3-0.1,0.5-0.3,0.8-0.4c-0.3,0.9-0.7,1.6-1.2,2.3c-0.5,0.7-1.2,1.2-1.9,1.7c1.4-0.2,2.8-0.5,4.1-1.1
		c-0.1,0.1-0.1,0.2-0.1,0.2c-0.9,1.3-2.1,2.5-3.4,3.5c-0.1,0.1-0.1,0.1-0.1,0.2c0.1,1.7-0.1,3.5-0.5,5.2c-1,4.2-2.9,7.8-6,10.8
		c-1.6,1.5-3.3,2.7-5.3,3.6c-2.7,1.3-5.5,1.9-8.5,1.9c-1.4,0-2.8-0.1-4.2-0.3c-2.6-0.5-5.1-1.4-7.3-2.8c0,0-0.1,0-0.1-0.1
		c4,0.4,7.5-0.6,10.7-3c-1.5-0.1-2.9-0.5-4.2-1.5c-1.2-0.9-2.1-2.1-2.6-3.6c0.6,0,1.1,0.1,1.6,0.1c0.5,0,1.1-0.1,1.6-0.3
		c-4-0.9-5.9-4.6-5.8-7.2c0.5,0.2,1,0.4,1.6,0.6c0.5,0.2,1.1,0.2,1.7,0.2c-1.5-1.1-2.6-2.6-3-4.4c-0.4-1.9-0.1-3.6,0.8-5.3
		c4,4.7,9,7.2,15.1,7.6c0-0.1,0-0.2,0-0.2c-0.3-1.6-0.2-3.1,0.5-4.6c1.1-2.2,2.8-3.5,5.1-4C37.7,17.6,38.1,17.6,38.5,17.5z"/>
</g>
</svg>
