<?xml version="1.0" encoding="utf-8"?>
<!-- Generator: Adobe Illustrator 21.0.2, SVG Export Plug-In . SVG Version: 6.00 Build 0)  -->
<svg version="1.1" id="icons" xmlns="http://www.w3.org/2000/svg" xmlns:xlink="http://www.w3.org/1999/xlink" x="0px" y="0px"
	 viewBox="0 0 64 64" style="enable-background:new 0 0 64 64;" xml:space="preserve">
<style type="text/css">
	.st0{fill:#FFFFFF;}
	.st1{stroke:#FFFFFF;stroke-width:1.5;stroke-miterlimit:10;}
	.st2{stroke:#FFFFFF;stroke-width:0;stroke-linecap:round;stroke-linejoin:round;}
	.st3{fill:#FFF2FF;}
	.st4{fill:#FFFFFF;stroke:#000000;stroke-width:1.5;stroke-miterlimit:10;}
</style>
<g id="XMLID_232_">
	<path id="XMLID_792_" class="st0" d="M44.1,20.3H19.9c-0.4,0-0.8-0.4-0.8-0.8v-0.6c0-0.4,0.4-0.8,0.8-0.8h24.3
		c0.4,0,0.8,0.4,0.8,0.8v0.6C45,19.9,44.6,20.3,44.1,20.3z"/>
	<path id="XMLID_238_" d="M32,38.6c-2.5,0-4.4,2-4.4,4.4c0,2.5,2,4.4,4.4,4.4s4.4-2,4.4-4.4C36.4,40.6,34.5,38.6,32,38.6z M32,44.9
		c-1.1,0-1.9-0.9-1.9-1.9c0-1.1,0.9-1.9,1.9-1.9c1.1,0,1.9,0.9,1.9,1.9C33.9,44.1,33.1,44.9,32,44.9z"/>
	<path id="XMLID_244_" d="M49,0H15c-0.7,0-1.3,0.6-1.3,1.3v61.3c0,0.7,0.6,1.3,1.3,1.3h34c0.7,0,1.3-0.6,1.3-1.3V1.3
		C50.3,0.6,49.7,0,49,0z M19,8.7c0-0.7,0.6-1.3,1.3-1.3h23.1c0.7,0,1.3,0.6,1.3,1.3v5c0,0.7-0.6,1.3-1.3,1.3H20.4
		c-0.7,0-1.3-0.6-1.3-1.3V8.7z M44.8,58c0,0.7-0.6,1.3-1.3,1.3h-23c-0.7,0-1.3-0.6-1.3-1.3V28.7c0-0.7,0.6-1.3,1.3-1.3h23
		c0.7,0,1.3,0.6,1.3,1.3V58z M43.9,20.3H20.1c-0.6,0-1.1-0.5-1.1-1.1c0-0.6,0.5-1.1,1.1-1.1h23.7c0.6,0,1.1,0.5,1.1,1.1
		C45,19.8,44.5,20.3,43.9,20.3z"/>
</g>
</svg>
