<svg id="icons" xmlns="http://www.w3.org/2000/svg" viewBox="0 0 64 64"><defs><style>.cls-1{fill:#fff;}</style></defs><title>changa</title><circle id="_Path_" data-name="&lt;Path&gt;" cx="32" cy="32" r="32"/><g id="_Group_" data-name="&lt;Group&gt;"><g id="_Group_2" data-name="&lt;Group&gt;"><path id="_Path_2" data-name="&lt;Path&gt;" class="cls-1" d="M45,41.48a2.29,2.29,0,0,1-2.11-2.34,2.63,2.63,0,0,1,.73-1.94,6.85,6.85,0,0,0,1.3-2,7.22,7.22,0,0,0,.48-4,6.73,6.73,0,0,0-1.71-3.57,2.7,2.7,0,0,1-.72-1.36,2.58,2.58,0,0,1,.61-2.32,2,2,0,0,1,1.37-.67,1.78,1.78,0,0,1,1.27.39A8.82,8.82,0,0,1,48.09,26a12,12,0,0,1,1.54,4.2,12.74,12.74,0,0,1,0,4.42,11.76,11.76,0,0,1-3.19,6.32A2,2,0,0,1,45,41.48Z"/></g><path id="_Path_3" data-name="&lt;Path&gt;" class="cls-1" d="M37.47,14.73a1,1,0,0,0-1,.07L23.72,23.64l-7.23,0a2.49,2.49,0,0,0-2.3,1.58V38.57a2.49,2.49,0,0,0,2.38,1.8l7.11,0L36.43,49.2A1,1,0,0,0,38,48.39V15.61A1,1,0,0,0,37.47,14.73Z"/></g></svg>