<?xml version="1.0" encoding="utf-8"?>
<!-- Generator: Adobe Illustrator 21.0.2, SVG Export Plug-In . SVG Version: 6.00 Build 0)  -->
<svg version="1.1" id="icons" xmlns="http://www.w3.org/2000/svg" xmlns:xlink="http://www.w3.org/1999/xlink" x="0px" y="0px"
	 viewBox="0 0 64 64" style="enable-background:new 0 0 64 64;" xml:space="preserve">
<style type="text/css">
	.st0{fill:#FFFFFF;}
	.st1{stroke:#FFFFFF;stroke-width:1.5;stroke-miterlimit:10;}
	.st2{stroke:#FFFFFF;stroke-width:0;stroke-linecap:round;stroke-linejoin:round;}
	.st3{fill:#FFF2FF;}
	.st4{fill:#FFFFFF;stroke:#000000;stroke-width:1.5;stroke-miterlimit:10;}
</style>
<g id="XMLID_333_">
	<path id="XMLID_4973_" class="st0" d="M32,63.3c-17.2,0-31.3-14-31.3-31.3S14.8,0.8,32,0.8s31.3,14,31.3,31.3S49.2,63.3,32,63.3z"
		/>
	<path id="XMLID_4970_" d="M32,1.5c16.8,0,30.5,13.7,30.5,30.5S48.8,62.5,32,62.5S1.5,48.8,1.5,32S15.2,1.5,32,1.5 M32,0
		C14.3,0,0,14.3,0,32s14.3,32,32,32s32-14.3,32-32S49.7,0,32,0L32,0z"/>
</g>
<g id="XMLID_497_">
	<path id="XMLID_595_" d="M28.1,20c-3.9,0.8-6.8,4.2-6.8,8.3v0c0,4.6,3.8,8.4,8.4,8.4h6c4.6,0,8.4-3.8,8.4-8.4v0
		c0-4.1-2.9-7.5-6.8-8.3C37.3,20,33.6,19,28.1,20z"/>
	<path id="XMLID_546_" d="M42.2,23.2L42,18.6c0-0.3-0.3-0.5-0.5-0.4L37.5,20c-0.3,0.2-0.3,0.7,0,0.9l3.8,2.6
		C41.8,23.8,42.2,23.6,42.2,23.2z"/>
	<path id="XMLID_544_" d="M23.2,23.2l0.2-4.6c0-0.3,0.3-0.5,0.5-0.4l3.9,1.7c0.3,0.2,0.3,0.7,0,0.9L24,23.5
		C23.6,23.8,23.2,23.6,23.2,23.2z"/>
	<path id="XMLID_545_" d="M28.4,44.6V39c0-2.4,1.9-4.3,4.3-4.3h0c2.4,0,4.3,1.9,4.3,4.3v5.6C37,44.6,32.7,47.3,28.4,44.6z"/>
	<path id="XMLID_548_" d="M20.3,35.4c0,0,1.1-0.2,2.2,0.8c0,0,0.5,0.5,0.9,1.2c0,0,0.8,1.1,1.8,1.4c0,0,1.3,0.4,2.4,0
		c0,0,0.5-0.1,0.6-0.3l0.6-1.2v3.2l-0.2,0.6L28.3,41c0,0-2.7,0.3-3.8-0.2c0,0-1.3-0.5-1.8-1.5c0,0-0.7-1.4-0.9-1.7
		c0,0-0.8-1.1-1.4-1.4c0,0-0.6-0.4-0.5-0.7C19.9,35.6,20,35.4,20.3,35.4z"/>
</g>
</svg>
