<?xml version="1.0" encoding="utf-8"?>
<!-- Generator: Adobe Illustrator 21.0.2, SVG Export Plug-In . SVG Version: 6.00 Build 0)  -->
<svg version="1.1" id="icons" xmlns="http://www.w3.org/2000/svg" xmlns:xlink="http://www.w3.org/1999/xlink" x="0px" y="0px"
	 viewBox="0 0 64 64" style="enable-background:new 0 0 64 64;" xml:space="preserve">
<style type="text/css">
	.st0{fill:#FFFFFF;}
	.st1{stroke:#FFFFFF;stroke-width:1.5;stroke-miterlimit:10;}
	.st2{stroke:#FFFFFF;stroke-width:0;stroke-linecap:round;stroke-linejoin:round;}
	.st3{fill:#FFF2FF;}
	.st4{fill:#FFFFFF;stroke:#000000;stroke-width:1.5;stroke-miterlimit:10;}
</style>
<circle id="XMLID_4337_" cx="32" cy="32" r="32"/>
<g id="XMLID_4329_">
	<path id="XMLID_4349_" class="st0" d="M23.1,49.6l-4.6,4.6c-0.4,0.4-1,0.4-1.4,0l-1.6-1.6c-0.4-0.4-0.4-1,0-1.4l4.6-4.6
		c0.4-0.4,1-0.4,1.4,0l1.6,1.6C23.5,48.6,23.5,49.3,23.1,49.6z"/>
	<path id="XMLID_4348_" class="st0" d="M40.8,49.6l4.6,4.6c0.4,0.4,1,0.4,1.4,0l1.6-1.6c0.4-0.4,0.4-1,0-1.4l-4.6-4.6
		c-0.4-0.4-1-0.4-1.4,0l-1.6,1.6C40.5,48.6,40.5,49.2,40.8,49.6z"/>
	<path id="XMLID_4347_" class="st0" d="M11.5,21.8c-1.9-2.8,0.1-7.4,4.4-10.2s9.3-2.9,11.1-0.1"/>
	<path id="XMLID_4346_" class="st0" d="M52.5,21.8c1.9-2.8-0.1-7.4-4.4-10.2S38.8,8.7,37,11.5"/>
	<g id="XMLID_4330_">
		<g id="XMLID_4339_">
			<path id="XMLID_49_" class="st0" d="M32,53.9c-12.1,0-21.9-9.8-21.9-21.9S19.9,10.1,32,10.1S53.9,19.9,53.9,32S44.1,53.9,32,53.9
				z"/>
			<path id="XMLID_46_" d="M32,10.8c11.7,0,21.2,9.5,21.2,21.2S43.7,53.2,32,53.2S10.8,43.7,10.8,32S20.3,10.8,32,10.8 M32,9.3
				C19.5,9.3,9.3,19.5,9.3,32S19.5,54.7,32,54.7S54.7,44.5,54.7,32S44.5,9.3,32,9.3L32,9.3z"/>
		</g>
		<g id="XMLID_4336_">
			<path id="XMLID_4363_" d="M32,15.5c0.4,3.2,0.6,6.3,0.7,9.5c0,1.6,0.1,3.2,0.1,4.7c0,1.6,0,3.2-0.1,4.7l-0.3-0.7
				c0.8,0.8,1.6,1.6,2.4,2.5c0.8,0.8,1.5,1.7,2.3,2.5c0.8,0.9,1.5,1.7,2.2,2.6c0.7,0.9,1.4,1.8,2.1,2.7c-0.9-0.7-1.8-1.4-2.7-2.1
				c-0.9-0.7-1.8-1.5-2.6-2.2c-0.9-0.8-1.7-1.5-2.6-2.3c-0.8-0.8-1.7-1.5-2.5-2.3l-0.3-0.3l0-0.4c0-1.6,0-3.2,0.1-4.7
				c0-1.6,0.1-3.2,0.2-4.7C31.2,21.8,31.5,18.7,32,15.5z"/>
		</g>
		<circle id="XMLID_4335_" cx="32" cy="12.2" r="0.6"/>
		<circle id="XMLID_4334_" cx="32" cy="51.1" r="0.6"/>
		<circle id="XMLID_4333_" cx="11.9" cy="32" r="0.6"/>
		<circle id="XMLID_4332_" cx="51.6" cy="32" r="0.6"/>
		<circle id="XMLID_4331_" class="st1" cx="31.8" cy="34.3" r="3.4"/>
	</g>
</g>
</svg>
