<?xml version="1.0" encoding="utf-8"?>
<!-- Generator: Adobe Illustrator 21.0.2, SVG Export Plug-In . SVG Version: 6.00 Build 0)  -->
<svg version="1.1" id="icons" xmlns="http://www.w3.org/2000/svg" xmlns:xlink="http://www.w3.org/1999/xlink" x="0px" y="0px"
	 viewBox="0 0 64 64" style="enable-background:new 0 0 64 64;" xml:space="preserve">
<style type="text/css">
	.st0{fill:#FFFFFF;}
	.st1{stroke:#FFFFFF;stroke-width:1.5;stroke-miterlimit:10;}
	.st2{stroke:#FFFFFF;stroke-width:0;stroke-linecap:round;stroke-linejoin:round;}
	.st3{fill:#FFF2FF;}
	.st4{fill:#FFFFFF;stroke:#000000;stroke-width:1.5;stroke-miterlimit:10;}
</style>
<g id="XMLID_295_">
	<g id="XMLID_756_">
		<path id="XMLID_239_" d="M62.3,47.4H1.7c-0.9,0-1.7-0.8-1.7-1.7V18.3c0-0.9,0.8-1.7,1.7-1.7h60.6c0.9,0,1.7,0.8,1.7,1.7v27.4
			C64,46.6,63.2,47.4,62.3,47.4z M1.7,17.7c-0.3,0-0.6,0.3-0.6,0.6v27.4c0,0.3,0.3,0.6,0.6,0.6h60.6c0.3,0,0.6-0.3,0.6-0.6V18.3
			c0-0.3-0.3-0.6-0.6-0.6H1.7z"/>
	</g>
	<rect id="XMLID_755_" x="3.2" y="41.5" width="3.8" height="3.8"/>
	<rect id="XMLID_754_" x="8.1" y="41.5" width="3.8" height="3.8"/>
	<rect id="XMLID_753_" x="13" y="41.5" width="3.8" height="3.8"/>
	<rect id="XMLID_752_" x="17.9" y="41.5" width="3.8" height="3.8"/>
	<rect id="XMLID_751_" x="22.7" y="41.5" width="3.8" height="3.8"/>
	<rect id="XMLID_750_" x="19.8" y="41.5" width="24.8" height="3.8"/>
	<rect id="XMLID_749_" x="32.5" y="41.5" width="3.8" height="3.8"/>
	<rect id="XMLID_748_" x="37.4" y="41.5" width="3.8" height="3.8"/>
	<rect id="XMLID_747_" x="42.3" y="41.5" width="3.8" height="3.8"/>
	<rect id="XMLID_746_" x="47.2" y="41.5" width="3.8" height="3.8"/>
	<rect id="XMLID_745_" x="52.1" y="41.5" width="3.8" height="3.8"/>
	<rect id="XMLID_744_" x="56.9" y="41.5" width="3.8" height="3.8"/>
	<rect id="XMLID_743_" x="3.2" y="36.1" width="8.2" height="3.8"/>
	<rect id="XMLID_742_" x="8.1" y="36.1" width="3.8" height="3.8"/>
	<rect id="XMLID_741_" x="13" y="36.1" width="3.8" height="3.8"/>
	<rect id="XMLID_740_" x="17.9" y="36.1" width="3.8" height="3.8"/>
	<rect id="XMLID_739_" x="22.7" y="36.1" width="3.8" height="3.8"/>
	<rect id="XMLID_738_" x="27.6" y="36.1" width="3.8" height="3.8"/>
	<rect id="XMLID_737_" x="32.5" y="36.1" width="3.8" height="3.8"/>
	<rect id="XMLID_736_" x="37.4" y="36.1" width="3.8" height="3.8"/>
	<rect id="XMLID_735_" x="42.3" y="36.1" width="3.8" height="3.8"/>
	<rect id="XMLID_734_" x="47.2" y="36.1" width="3.8" height="3.8"/>
	<rect id="XMLID_733_" x="52.1" y="36.1" width="3.8" height="3.8"/>
	<rect id="XMLID_732_" x="56.9" y="36.1" width="3.8" height="3.8"/>
	<rect id="XMLID_731_" x="3.2" y="30.8" width="7.3" height="3.8"/>
	<rect id="XMLID_730_" x="8.1" y="30.8" width="3.8" height="3.8"/>
	<rect id="XMLID_729_" x="13" y="30.8" width="3.8" height="3.8"/>
	<rect id="XMLID_728_" x="17.9" y="30.8" width="3.8" height="3.8"/>
	<rect id="XMLID_727_" x="22.7" y="30.8" width="3.8" height="3.8"/>
	<rect id="XMLID_726_" x="27.6" y="30.8" width="3.8" height="3.8"/>
	<rect id="XMLID_725_" x="32.5" y="30.8" width="3.8" height="3.8"/>
	<rect id="XMLID_724_" x="37.4" y="30.8" width="3.8" height="3.8"/>
	<rect id="XMLID_723_" x="42.3" y="30.8" width="3.8" height="3.8"/>
	<rect id="XMLID_722_" x="47.2" y="30.8" width="3.8" height="3.8"/>
	<rect id="XMLID_721_" x="52.1" y="30.8" width="3.8" height="3.8"/>
	<rect id="XMLID_720_" x="53.8" y="30.8" width="7" height="3.8"/>
	<rect id="XMLID_719_" x="3.2" y="25.5" width="3.8" height="3.8"/>
	<rect id="XMLID_718_" x="8.1" y="25.5" width="3.8" height="3.8"/>
	<rect id="XMLID_717_" x="13" y="25.5" width="3.8" height="3.8"/>
	<rect id="XMLID_716_" x="17.9" y="25.5" width="3.8" height="3.8"/>
	<rect id="XMLID_715_" x="22.7" y="25.5" width="3.8" height="3.8"/>
	<rect id="XMLID_714_" x="27.6" y="25.5" width="3.8" height="3.8"/>
	<rect id="XMLID_713_" x="32.5" y="25.5" width="3.8" height="3.8"/>
	<rect id="XMLID_712_" x="37.4" y="25.5" width="3.8" height="3.8"/>
	<rect id="XMLID_711_" x="42.3" y="25.5" width="3.8" height="3.8"/>
	<rect id="XMLID_710_" x="47.2" y="25.5" width="3.8" height="3.8"/>
	<rect id="XMLID_709_" x="52.1" y="25.5" width="3.8" height="3.8"/>
	<rect id="XMLID_708_" x="56.9" y="25.5" width="3.8" height="3.8"/>
	<rect id="XMLID_707_" x="3.2" y="20.1" width="3.8" height="3.8"/>
	<rect id="XMLID_706_" x="8.1" y="20.1" width="3.8" height="3.8"/>
	<rect id="XMLID_705_" x="13" y="20.1" width="3.8" height="3.8"/>
	<rect id="XMLID_704_" x="17.9" y="20.1" width="3.8" height="3.8"/>
	<rect id="XMLID_703_" x="22.7" y="20.1" width="3.8" height="3.8"/>
	<rect id="XMLID_702_" x="27.6" y="20.1" width="3.8" height="3.8"/>
	<rect id="XMLID_701_" x="32.5" y="20.1" width="3.8" height="3.8"/>
	<rect id="XMLID_700_" x="37.4" y="20.1" width="3.8" height="3.8"/>
	<rect id="XMLID_699_" x="42.3" y="20.1" width="3.8" height="3.8"/>
	<rect id="XMLID_698_" x="47.2" y="20.1" width="3.8" height="3.8"/>
	<rect id="XMLID_697_" x="52.1" y="20.1" width="3.8" height="3.8"/>
	<rect id="XMLID_696_" x="56.9" y="20.1" width="3.8" height="3.8"/>
</g>
</svg>
