<?xml version="1.0" encoding="utf-8"?>
<!-- Generator: Adobe Illustrator 21.0.2, SVG Export Plug-In . SVG Version: 6.00 Build 0)  -->
<svg version="1.1" id="icons" xmlns="http://www.w3.org/2000/svg" xmlns:xlink="http://www.w3.org/1999/xlink" x="0px" y="0px"
	 viewBox="0 0 64 64" style="enable-background:new 0 0 64 64;" xml:space="preserve">
<style type="text/css">
	.st0{fill:#FFFFFF;}
	.st1{stroke:#FFFFFF;stroke-width:1.5;stroke-miterlimit:10;}
	.st2{stroke:#FFFFFF;stroke-width:0;stroke-linecap:round;stroke-linejoin:round;}
	.st3{fill:#FFF2FF;}
	.st4{fill:#FFFFFF;stroke:#000000;stroke-width:1.5;stroke-miterlimit:10;}
</style>
<g id="XMLID_186_">
	<path id="XMLID_385_" class="st0" d="M14.5,63.3c-1.3,0-2.3-1-2.3-2.3V3c0-1.3,1-2.3,2.3-2.3h35.1c1.3,0,2.3,1,2.3,2.3v58
		c0,1.3-1,2.3-2.3,2.3H14.5z"/>
	<path id="XMLID_380_" d="M49.5,1.5c0.8,0,1.5,0.7,1.5,1.5v58c0,0.8-0.7,1.5-1.5,1.5H14.5c-0.8,0-1.5-0.7-1.5-1.5V3
		c0-0.8,0.7-1.5,1.5-1.5H49.5 M49.5,0H14.5c-1.7,0-3,1.4-3,3v58c0,1.7,1.4,3,3,3h35.1c1.7,0,3-1.4,3-3V3C52.6,1.4,51.2,0,49.5,0
		L49.5,0z"/>
</g>
<g id="XMLID_101_">
	<g id="XMLID_106_">
		<rect id="XMLID_1117_" x="15.3" y="7.3" width="33.4" height="6.6"/>
	</g>
	<g id="XMLID_107_">
		<rect id="XMLID_1115_" x="17.4" y="23.6" width="5.5" height="4"/>
	</g>
	<g id="XMLID_108_">
		<rect id="XMLID_1113_" x="41.1" y="23.6" width="5.5" height="4"/>
	</g>
	<g id="XMLID_109_">
		<rect id="XMLID_1111_" x="33.2" y="23.6" width="5.5" height="4"/>
	</g>
	<g id="XMLID_110_">
		<rect id="XMLID_1109_" x="25.3" y="23.6" width="5.5" height="4"/>
	</g>
	<g id="XMLID_111_">
		<rect id="XMLID_1107_" x="17.4" y="29.5" width="5.5" height="5.5"/>
	</g>
	<g id="XMLID_112_">
		<rect id="XMLID_1105_" x="41.1" y="29.5" width="5.5" height="5.5"/>
	</g>
	<g id="XMLID_113_">
		<rect id="XMLID_1103_" x="33.2" y="29.5" width="5.5" height="5.5"/>
	</g>
	<g id="XMLID_114_">
		<rect id="XMLID_1101_" x="25.3" y="29.5" width="5.5" height="5.5"/>
	</g>
	<g id="XMLID_115_">
		<rect id="XMLID_1099_" x="17.4" y="37" width="5.5" height="5.5"/>
	</g>
	<g id="XMLID_116_">
		<rect id="XMLID_1097_" x="41.1" y="37" width="5.5" height="5.5"/>
	</g>
	<g id="XMLID_117_">
		<rect id="XMLID_1095_" x="33.2" y="37" width="5.5" height="5.5"/>
	</g>
	<g id="XMLID_118_">
		<rect id="XMLID_1093_" x="25.3" y="37" width="5.5" height="5.5"/>
	</g>
	<g id="XMLID_119_">
		<rect id="XMLID_1091_" x="17.4" y="44.5" width="5.5" height="5.5"/>
	</g>
	<g id="XMLID_120_">
		<rect id="XMLID_1089_" x="33.2" y="44.5" width="5.5" height="5.5"/>
	</g>
	<g id="XMLID_121_">
		<rect id="XMLID_1087_" x="25.3" y="44.5" width="5.5" height="5.5"/>
	</g>
	<g id="XMLID_122_">
		<rect id="XMLID_1085_" x="17.4" y="52" width="5.5" height="5.5"/>
	</g>
	<g id="XMLID_123_">
		<polygon id="XMLID_124_" points="41.1,44.5 41.1,46.9 41.1,50 41.1,57.5 46.6,57.5 46.6,50 46.6,46.9 46.6,44.5 		"/>
	</g>
	<g id="XMLID_125_">
		<rect id="XMLID_1081_" x="33.2" y="52" width="5.5" height="5.5"/>
	</g>
	<g id="XMLID_126_">
		<rect id="XMLID_1079_" x="25.3" y="52" width="5.5" height="5.5"/>
	</g>
</g>
</svg>
