<?xml version="1.0" encoding="utf-8"?>
<!-- Generator: Adobe Illustrator 21.0.2, SVG Export Plug-In . SVG Version: 6.00 Build 0)  -->
<svg version="1.1" id="icons" xmlns="http://www.w3.org/2000/svg" xmlns:xlink="http://www.w3.org/1999/xlink" x="0px" y="0px"
	 viewBox="0 0 64 64" style="enable-background:new 0 0 64 64;" xml:space="preserve">
<style type="text/css">
	.st0{fill:#FFFFFF;}
	.st1{stroke:#FFFFFF;stroke-width:1.5;stroke-miterlimit:10;}
	.st2{stroke:#FFFFFF;stroke-width:0;stroke-linecap:round;stroke-linejoin:round;}
	.st3{fill:#FFF2FF;}
	.st4{fill:#FFFFFF;stroke:#000000;stroke-width:1.5;stroke-miterlimit:10;}
</style>
<g id="XMLID_213_">
	<g id="XMLID_1211_">
		<path id="XMLID_215_" d="M60,51.8H4c-2.2,0-4-1.8-4-4V16.2c0-2.2,1.8-4,4-4h56c2.2,0,4,1.8,4,4v31.7C64,50,62.2,51.8,60,51.8z
			 M4,14.2c-1.1,0-2,0.9-2,2v31.7c0,1.1,0.9,2,2,2h56c1.1,0,2-0.9,2-2V16.2c0-1.1-0.9-2-2-2H4z"/>
	</g>
	<rect id="XMLID_1210_" x="5.1" y="43.4" width="15.5" height="2.3"/>
	<rect id="XMLID_1209_" x="5.1" y="35.8" width="50.5" height="3.9"/>
	<g id="XMLID_214_">
		<polygon id="XMLID_218_" points="9.5,26.2 8.1,24.8 5.4,24.8 5.4,27.3 9.5,27.3 		"/>
		<path id="XMLID_219_" d="M9.7,26h1.2v-4.2H7.1c-1,0-1.8,0.8-1.8,1.8v0.9h2.9L9.7,26z"/>
		<rect id="XMLID_220_" x="9.8" y="26.3" width="2.6" height="2.6"/>
		<polygon id="XMLID_221_" points="9.5,29 9.5,27.6 5.4,27.6 5.4,30.4 8.1,30.4 		"/>
		<path id="XMLID_222_" d="M15,21.9h-3.8V26h1.2l1.5-1.5h2.9v0.3H14l-1.4,1.4v1.1h4.2v0.3h-4.2V29l1.4,1.4h2.8v0.3h-2.9l-1.5-1.5
			h-1.2v4.1h-0.3v-4.1H9.7l-1.5,1.5H5.4v0.9c0,1,0.8,1.8,1.8,1.8H15c1,0,1.8-0.8,1.8-1.8v-7.9C16.8,22.7,16,21.9,15,21.9z"/>
	</g>
</g>
</svg>
