<?xml version="1.0" encoding="utf-8"?>
<!-- Generator: Adobe Illustrator 21.0.2, SVG Export Plug-In . SVG Version: 6.00 Build 0)  -->
<svg version="1.1" id="icons" xmlns="http://www.w3.org/2000/svg" xmlns:xlink="http://www.w3.org/1999/xlink" x="0px" y="0px"
	 viewBox="0 0 64 64" style="enable-background:new 0 0 64 64;" xml:space="preserve">
<style type="text/css">
	.st0{fill:#FFFFFF;}
	.st1{stroke:#FFFFFF;stroke-width:1.5;stroke-miterlimit:10;}
	.st2{stroke:#FFFFFF;stroke-width:0;stroke-linecap:round;stroke-linejoin:round;}
	.st3{fill:#FFF2FF;}
	.st4{fill:#FFFFFF;stroke:#000000;stroke-width:1.5;stroke-miterlimit:10;}
</style>
<path id="XMLID_4_" d="M43.4,0H20.6c-2.2,0-4,1.8-4,4v56c0,2.2,1.8,4,4,4h22.9c2.2,0,4-1.8,4-4V4C47.4,1.8,45.6,0,43.4,0z M30.2,3.5
	h3.6c0.3,0,0.5,0.2,0.5,0.5s-0.2,0.5-0.5,0.5h-3.6c-0.3,0-0.5-0.2-0.5-0.5S29.9,3.5,30.2,3.5z M32,61.9c-1.3,0-2.3-1.1-2.3-2.5
	c0-1.4,1-2.5,2.3-2.5c1.3,0,2.3,1.1,2.3,2.5C34.3,60.8,33.3,61.9,32,61.9z M45.4,55.4H18.6V6.8h26.9V55.4z"/>
</svg>
