<svg id="icons" xmlns="http://www.w3.org/2000/svg" viewBox="0 0 64 64"><title>changa</title><g id="_Group_" data-name="&lt;Group&gt;"><path id="_Path_" data-name="&lt;Path&gt;" d="M58.68,57.36A29.71,29.71,0,0,0,55,46.79,28.18,28.18,0,0,0,50.51,41a30.06,30.06,0,0,0-5.44-4.28l-.13-.07-.12.12a26.63,26.63,0,0,1-5.36,4.31,13.61,13.61,0,0,1-7.73,2.18c-3.19,0-6.8-2-9.85-4.26-.78-.57-1.53-1.2-2.23-1.83l-.55-.49a26.08,26.08,0,0,0-6,4.72,28.79,28.79,0,0,0-4.47,6.14,30.06,30.06,0,0,0-2.94,7.9c-.13.61-.25,1.22-.36,1.83L5.17,58v.71a1.76,1.76,0,0,0,1.89,1.12v0q24.94,0,49.88,0a1.76,1.76,0,0,0,1.89-1.12l0-.82A5.62,5.62,0,0,1,58.68,57.36Z"/><g id="_Group_2" data-name="&lt;Group&gt;"><path id="_Path_2" data-name="&lt;Path&gt;" d="M19.16,9.54c3.91-5.26,8.54-6,13.57-6.15S43,5.94,45.1,10.71a19,19,0,0,1,1.21,7.55,31.8,31.8,0,0,1-1.77,11.31,16.48,16.48,0,0,1-7,8.64,11.43,11.43,0,0,1-10.69.31,14.83,14.83,0,0,1-5.5-4.59A24,24,0,0,1,17.47,21.7S16.1,13.46,19.16,9.54Z"/></g></g></svg>