<svg id="icons" xmlns="http://www.w3.org/2000/svg" viewBox="0 0 64 64"><title>changa</title><path id="_Compound_Path_" data-name="&lt;Compound Path&gt;" d="M48.59,18.8,30.19.16a.37.37,0,0,0-.63.26V24.18a.37.37,0,0,1-.63.26L19.68,15a.37.37,0,0,0-.52,0l-3.75,3.67a.37.37,0,0,0,0,.52L27.78,31.8a.37.37,0,0,1,0,.51L15.41,44.95a.37.37,0,0,0,0,.52l3.75,3.67a.37.37,0,0,0,.52,0l9.26-9.45a.37.37,0,0,1,.63.26V63.58a.37.37,0,0,0,.63.26l18.39-18.4a.37.37,0,0,0,0-.52L36.24,32.51a.37.37,0,0,1,0-.51L48.59,19.31A.37.37,0,0,0,48.59,18.8ZM34.22,21.49v-9a.37.37,0,0,1,.63-.26l6.57,6.66a.37.37,0,0,1,0,.52l-6.57,6.52a.37.37,0,0,1-.62-.26Zm7.2,23.89-6.57,6.52a.37.37,0,0,1-.62-.26V38.46a.37.37,0,0,1,.63-.26l6.57,6.66A.37.37,0,0,1,41.41,45.38Z"/></svg>