<?xml version="1.0" encoding="utf-8"?>
<!-- Generator: Adobe Illustrator 21.0.2, SVG Export Plug-In . SVG Version: 6.00 Build 0)  -->
<svg version="1.1" id="icons" xmlns="http://www.w3.org/2000/svg" xmlns:xlink="http://www.w3.org/1999/xlink" x="0px" y="0px"
	 viewBox="0 0 64 64" style="enable-background:new 0 0 64 64;" xml:space="preserve">
<style type="text/css">
	.st0{fill:#FFFFFF;}
	.st1{stroke:#FFFFFF;stroke-width:1.5;stroke-miterlimit:10;}
	.st2{stroke:#FFFFFF;stroke-width:0;stroke-linecap:round;stroke-linejoin:round;}
	.st3{fill:#FFF2FF;}
	.st4{fill:#FFFFFF;stroke:#000000;stroke-width:1.5;stroke-miterlimit:10;}
</style>
<circle id="XMLID_368_" cx="32" cy="32" r="32"/>
<g id="XMLID_403_">
	<path id="XMLID_404_" class="st0" d="M13.4,34c0-1.3,0-2.7,0-4c0-0.1,0-0.2,0-0.3c0.1-1.3,0.2-2.7,0.3-4c0.1-1.9,0.8-3.6,2-5
		c0.8-0.9,1.8-1.4,3-1.5c0.9-0.1,1.9-0.2,2.8-0.2c2.1-0.1,4.3-0.2,6.4-0.2c5.9-0.1,11.9,0,17.8,0.5c1,0.1,1.9,0.5,2.6,1.2
		c1.1,1.1,1.6,2.4,1.8,3.8c0.2,1.4,0.2,2.8,0.3,4.3c0,0.4,0.1,0.8,0.1,1.2c0,1.4,0,2.7,0,4.1c0,0.1,0,0.2,0,0.3
		c-0.1,1.4-0.2,2.7-0.2,4.1c-0.1,1.8-0.7,3.4-1.8,4.7c-0.7,0.9-1.6,1.6-2.8,1.8c-1,0.1-1.9,0.2-2.9,0.2c-2.6,0.1-5.2,0.2-7.8,0.2
		c-5.4,0.1-10.8-0.1-16.2-0.4c-1.1-0.1-2-0.5-2.8-1.3c-1.2-1.2-1.9-2.6-2.2-4.2c-0.2-1.4-0.2-2.8-0.4-4.2
		C13.4,34.7,13.4,34.3,13.4,34z M39,31.9c-3.9-2.2-7.8-4.4-11.6-6.7c0,4.5,0,8.9,0,13.3C31.2,36.4,35.1,34.2,39,31.9z"/>
</g>
</svg>
