<?xml version="1.0" encoding="utf-8"?>
<!-- Generator: Adobe Illustrator 21.0.2, SVG Export Plug-In . SVG Version: 6.00 Build 0)  -->
<svg version="1.1" id="icons" xmlns="http://www.w3.org/2000/svg" xmlns:xlink="http://www.w3.org/1999/xlink" x="0px" y="0px"
	 viewBox="0 0 64 64" style="enable-background:new 0 0 64 64;" xml:space="preserve">
<style type="text/css">
	.st0{fill:#FFFFFF;}
	.st1{stroke:#FFFFFF;stroke-width:1.5;stroke-miterlimit:10;}
	.st2{stroke:#FFFFFF;stroke-width:0;stroke-linecap:round;stroke-linejoin:round;}
	.st3{fill:#FFF2FF;}
	.st4{fill:#FFFFFF;stroke:#000000;stroke-width:1.5;stroke-miterlimit:10;}
</style>
<path id="XMLID_355_" d="M57.5,0H45.8v5.7h6.6L41.3,16.9c-2.3-1.5-5-2.5-8-2.5c-0.3,0-0.6,0-0.9,0c-2.5-5.9-8.3-10-15.1-10
	c-9.1,0-16.5,7.4-16.5,16.5C0.8,28.6,6,35,13.1,36.8V45H5.2v7.9h7.9V64h7.9V52.9h8.3V45h-8.3v-8.1c0.2,0,0.3-0.1,0.5-0.1
	c2.6,3.7,6.9,6.1,11.7,6.1c7.9,0,14.3-6.4,14.3-14.3c0-2.4-0.6-4.7-1.7-6.7l11.6-11.6v7h5.7V5.7V0H57.5z M29.4,20.9
	c0,4.6-2.5,8.5-6.2,10.6c-0.3-0.9-0.4-1.9-0.4-2.9c0-4.4,2.7-8.1,6.5-9.7C29.3,19.6,29.4,20.3,29.4,20.9z M17.3,33
	c-6.7,0-12.1-5.4-12.1-12.1c0-6.7,5.4-12.1,12.1-12.1c4.7,0,8.8,2.7,10.8,6.6c-5.3,2.1-9.1,7.2-9.1,13.3c0,1.4,0.2,2.8,0.6,4.2
	C18.8,33,18.1,33,17.3,33z M33.3,39.2c-3.3,0-6.2-1.5-8.1-3.8c5.1-2.8,8.6-8.2,8.6-14.4c0-0.9-0.1-1.9-0.2-2.8
	c5.7,0.1,10.3,4.8,10.3,10.5C43.8,34.5,39.1,39.2,33.3,39.2z"/>
</svg>
