<?xml version="1.0" encoding="utf-8"?>
<!-- Generator: Adobe Illustrator 21.0.2, SVG Export Plug-In . SVG Version: 6.00 Build 0)  -->
<svg version="1.1" id="icons" xmlns="http://www.w3.org/2000/svg" xmlns:xlink="http://www.w3.org/1999/xlink" x="0px" y="0px"
	 viewBox="0 0 64 64" style="enable-background:new 0 0 64 64;" xml:space="preserve">
<style type="text/css">
	.st0{fill:#FFFFFF;}
	.st1{stroke:#FFFFFF;stroke-width:1.5;stroke-miterlimit:10;}
	.st2{stroke:#FFFFFF;stroke-width:0;stroke-linecap:round;stroke-linejoin:round;}
	.st3{fill:#FFF2FF;}
	.st4{fill:#FFFFFF;stroke:#000000;stroke-width:1.5;stroke-miterlimit:10;}
</style>
<g id="XMLID_51_">
	<path id="XMLID_72_" class="st0" d="M5.9,63.3c-2.8,0-5.1-2.3-5.1-5.1V5.9C0.8,3,3,0.8,5.9,0.8h52.3c2.8,0,5.1,2.3,5.1,5.1v52.3
		c0,2.8-2.3,5.1-5.1,5.1H5.9z"/>
	<path id="XMLID_67_" d="M58.1,1.5c2.4,0,4.4,2,4.4,4.4v52.3c0,2.4-2,4.4-4.4,4.4H5.9c-2.4,0-4.4-2-4.4-4.4V5.9c0-2.4,2-4.4,4.4-4.4
		H58.1 M58.1,0H5.9C2.6,0,0,2.6,0,5.9v52.3C0,61.4,2.6,64,5.9,64h52.2c3.2,0,5.9-2.6,5.9-5.9V5.9C64,2.6,61.4,0,58.1,0L58.1,0z"/>
</g>
<g id="XMLID_286_">
	<path id="XMLID_293_" d="M11.3,55.1h41.4c1.6,0,2.6-1.7,1.8-3.1l-11-19.7c-0.8-1.4-2.7-1.4-3.6-0.2L33.5,42c-0.7,1-2,1.2-3,0.5
		l-8.8-6.6c-1-0.8-2.4-0.5-3.1,0.6L9.5,52C8.7,53.4,9.7,55.1,11.3,55.1z"/>
	<circle id="XMLID_294_" cx="16.2" cy="15.4" r="5.8"/>
</g>
</svg>
