<?xml version="1.0" encoding="utf-8"?>
<!-- Generator: Adobe Illustrator 21.0.2, SVG Export Plug-In . SVG Version: 6.00 Build 0)  -->
<svg version="1.1" id="icons" xmlns="http://www.w3.org/2000/svg" xmlns:xlink="http://www.w3.org/1999/xlink" x="0px" y="0px"
	 viewBox="0 0 64 64" style="enable-background:new 0 0 64 64;" xml:space="preserve">
<style type="text/css">
	.st0{fill:#FFFFFF;}
	.st1{stroke:#FFFFFF;stroke-width:1.5;stroke-miterlimit:10;}
	.st2{stroke:#FFFFFF;stroke-width:0;stroke-linecap:round;stroke-linejoin:round;}
	.st3{fill:#FFF2FF;}
	.st4{fill:#FFFFFF;stroke:#000000;stroke-width:1.5;stroke-miterlimit:10;}
</style>
<path id="XMLID_609_" d="M58.1,0H15.1c0.1,0,0.2,0,0.3,0.1C15.2,0,15,0,14.8,0v12.5c0,0.4-0.3,0.7-0.7,0.7s-0.7-0.3-0.7-0.7V0h-1.5
	v12.5c0,0.4-0.3,0.7-0.7,0.7s-0.7-0.3-0.7-0.7V0h-0.3H8.9v12.5c0,0.4-0.3,0.7-0.7,0.7s-0.7-0.3-0.7-0.7V0H7.3h-1C6.3,0,6.2,0,6.1,0
	c0,0,0.1,0,0.1,0H5.9C2.6,0,0,2.6,0,5.9v52.3C0,61.4,2.6,64,5.9,64h52.3c3.2,0,5.9-2.6,5.9-5.9V5.9C64,2.6,61.4,0,58.1,0z M32,17.4
	c8.1,0,14.6,6.5,14.6,14.6S40.1,46.6,32,46.6S17.4,40.1,17.4,32S23.9,17.4,32,17.4z M58.9,55.4c0,2.5-2,4.5-4.5,4.5H9.6
	c-2.5,0-4.5-2-4.5-4.5V26.6c0-2.5,2-4.5,4.5-4.5h4.3c-1.6,2.9-2.5,6.3-2.5,9.9c0,11.4,9.2,20.6,20.6,20.6S52.6,43.4,52.6,32
	c0-3.6-0.9-6.9-2.5-9.9h4.3c2.5,0,4.5,2,4.5,4.5V55.4z M58.9,15.2c0,1.2-1,2.2-2.2,2.2h-8.4c-1.2,0-2.2-1-2.2-2.2V6.8
	c0-1.2,1-2.2,2.2-2.2h8.4c1.2,0,2.2,1,2.2,2.2V15.2z"/>
</svg>
