<?xml version="1.0" encoding="utf-8"?>
<!-- Generator: Adobe Illustrator 21.0.2, SVG Export Plug-In . SVG Version: 6.00 Build 0)  -->
<svg version="1.1" id="icons" xmlns="http://www.w3.org/2000/svg" xmlns:xlink="http://www.w3.org/1999/xlink" x="0px" y="0px"
	 viewBox="0 0 64 64" style="enable-background:new 0 0 64 64;" xml:space="preserve">
<style type="text/css">
	.st0{fill:#FFFFFF;}
	.st1{stroke:#FFFFFF;stroke-width:1.5;stroke-miterlimit:10;}
	.st2{stroke:#FFFFFF;stroke-width:0;stroke-linecap:round;stroke-linejoin:round;}
	.st3{fill:#FFF2FF;}
	.st4{fill:#FFFFFF;stroke:#000000;stroke-width:1.5;stroke-miterlimit:10;}
</style>
<g id="XMLID_127_">
	<path id="XMLID_128_" d="M25.4,23.5c-2.3-4.2-6.7-7.1-11.9-7.1C6.1,16.4,0,22.5,0,30s6.1,13.5,13.5,13.5c5.6,0,10.3-3.4,12.4-8.1
		C26.8,31.1,26,26.2,25.4,23.5z M8.9,34.5c-2.5,0-4.5-2-4.5-4.5s2-4.5,4.5-4.5c2.5,0,4.5,2,4.5,4.5S11.4,34.5,8.9,34.5z"/>
	<path id="XMLID_131_" d="M60.6,24.9H26.7c0.1,0.7,0.3,1.5,0.4,2.4h31.7c0.6,0,1.1,0.2,1.1,0.4c0,0.2-0.5,0.4-1.1,0.4H27.2
		c0.2,2.2,0.2,4.6-0.2,6.9h5.5l4-4l4,4h1.8l2.9-2.9l2.9,2.9h2.6l2.9-2.9l2.9,2.9h3.9L64,30L60.6,24.9z"/>
</g>
</svg>
