<?xml version="1.0" encoding="utf-8"?>
<!-- Generator: Adobe Illustrator 21.0.2, SVG Export Plug-In . SVG Version: 6.00 Build 0)  -->
<svg version="1.1" id="icons" xmlns="http://www.w3.org/2000/svg" xmlns:xlink="http://www.w3.org/1999/xlink" x="0px" y="0px"
	 viewBox="0 0 64 64" style="enable-background:new 0 0 64 64;" xml:space="preserve">
<style type="text/css">
	.st0{fill:#FFFFFF;}
	.st1{stroke:#FFFFFF;stroke-width:1.5;stroke-miterlimit:10;}
	.st2{stroke:#FFFFFF;stroke-width:0;stroke-linecap:round;stroke-linejoin:round;}
	.st3{fill:#FFF2FF;}
	.st4{fill:#FFFFFF;stroke:#000000;stroke-width:1.5;stroke-miterlimit:10;}
</style>
<g id="XMLID_9103_">
	<g id="XMLID_9102_">
		<g id="XMLID_7098_">
			<g id="XMLID_7103_">
				<path id="XMLID_7104_" d="M61.5,18.8H2.5c-1.4,0-2.5-1.1-2.5-2.5l0-1.1c0-1.4,1.1-2.5,2.5-2.5h59.1c1.4,0,2.5,1.1,2.5,2.5v1.1
					C64,17.7,62.9,18.8,61.5,18.8z"/>
			</g>
		</g>
	</g>
	<g id="XMLID_9104_">
		<g id="XMLID_9105_">
			<g id="XMLID_9106_">
				<path id="XMLID_9107_" d="M61.5,35H2.5C1.1,35,0,33.9,0,32.6l0-1.1C0,30.1,1.1,29,2.5,29h59.1c1.4,0,2.5,1.1,2.5,2.5v1.1
					C64,33.9,62.9,35,61.5,35z"/>
			</g>
		</g>
	</g>
	<g id="XMLID_9108_">
		<g id="XMLID_9200_">
			<g id="XMLID_9201_">
				<path id="XMLID_9202_" d="M61.5,51.2H2.5c-1.4,0-2.5-1.1-2.5-2.5l0-1.1c0-1.4,1.1-2.5,2.5-2.5h59.1c1.4,0,2.5,1.1,2.5,2.5v1.1
					C64,50.1,62.9,51.2,61.5,51.2z"/>
			</g>
		</g>
	</g>
</g>
</svg>
