<svg id="icons" xmlns="http://www.w3.org/2000/svg" viewBox="0 0 64 64"><title>changa_instagram-circle</title><rect x="39.22" y="18.05" width="6.52" height="6.52" rx="1.12" ry="1.12"/><circle cx="32.04" cy="32" r="7.43"/><path d="M43.46,27h-2.2a10.49,10.49,0,1,1-18.42,0h-2.2a2.29,2.29,0,0,0-2.29,2.29V43.9a2.29,2.29,0,0,0,2.29,2.29H43.46a2.29,2.29,0,0,0,2.29-2.29V29.26A2.29,2.29,0,0,0,43.46,27Z"/><path d="M32,0A32,32,0,1,0,64,32,32,32,0,0,0,32,0ZM48.33,45.3a3,3,0,0,1-3,3H18.75a3,3,0,0,1-3-3V18.7a3,3,0,0,1,3-3h.83V22.1a.36.36,0,1,0,.72,0V15.71h.76V22.1a.36.36,0,1,0,.72,0V15.71h.76V22.1a.36.36,0,1,0,.72,0V15.72a2.2,2.2,0,0,1,.33,0,.39.39,0,0,0-.17,0H45.34a3,3,0,0,1,3,3Z"/></svg>