<?xml version="1.0" encoding="utf-8"?>
<!-- Generator: Adobe Illustrator 21.0.2, SVG Export Plug-In . SVG Version: 6.00 Build 0)  -->
<svg version="1.1" id="icons" xmlns="http://www.w3.org/2000/svg" xmlns:xlink="http://www.w3.org/1999/xlink" x="0px" y="0px"
	 viewBox="0 0 64 64" style="enable-background:new 0 0 64 64;" xml:space="preserve">
<style type="text/css">
	.st0{stroke:#FFFFFF;stroke-width:0;stroke-linecap:round;stroke-linejoin:round;}
	.st1{fill:none;stroke:#000000;stroke-width:1.5;stroke-miterlimit:10;}
</style>
<g id="XMLID_320_">
	<circle id="XMLID_321_" cx="32" cy="32" r="12.2"/>
	<g id="XMLID_323_">
		<path id="XMLID_325_" d="M60.7,17.9H39.4c3.1,1.7,4.9,4.2,5.1,4.4c2.6,2.6,3.3,8,3.3,8.2c0.5,6.8-3.4,11.4-4,12L31.7,64
			c0.1,0,0.2,0,0.3,0c17.6,0,32-14.4,32-32C64,27,62.8,22.2,60.7,17.9z"/>
		<path id="XMLID_326_" d="M15.6,31.3c0.2-2.4,0.7-4.3,0.7-4.4c1.3-4.4,5.7-8,5.9-8.2c3.4-2.6,7.2-3.2,9.8-3.2
			c1.8,0,3.2,0.3,3.6,0.4h24C54.1,6.4,43.8,0,32,0C21,0,11.2,5.6,5.5,14.1L15.6,31.3z"/>
		<path id="XMLID_327_" d="M29.5,63.9l9.6-17.1c-2.8,1.3-5.4,1.7-7.4,1.7c-1.9,0-3.1-0.3-3.1-0.3c-8.2-1.5-11.2-8.2-11.6-9.2
			L3.9,16.7C1.4,21.2,0,26.5,0,32C0,48.8,13,62.6,29.5,63.9z"/>
	</g>
</g>
</svg>
