<?xml version="1.0" encoding="utf-8"?>
<!-- Generator: Adobe Illustrator 21.0.2, SVG Export Plug-In . SVG Version: 6.00 Build 0)  -->
<svg version="1.1" id="icons" xmlns="http://www.w3.org/2000/svg" xmlns:xlink="http://www.w3.org/1999/xlink" x="0px" y="0px"
	 viewBox="0 0 64 64" style="enable-background:new 0 0 64 64;" xml:space="preserve">
<style type="text/css">
	.st0{stroke:#FFFFFF;stroke-width:0;stroke-linecap:round;stroke-linejoin:round;}
	.st1{fill:none;stroke:#000000;stroke-width:1.5;stroke-miterlimit:10;}
</style>
<g>
	<path d="M27.4,38.6c3.9-2.2,7.7-4.4,11.6-6.7c-3.9-2.2-7.8-4.4-11.6-6.7C27.4,29.7,27.4,34.1,27.4,38.6z"/>
	<path d="M58.1,0H5.9C2.6,0,0,2.6,0,5.9v52.3C0,61.4,2.6,64,5.9,64h52.3c3.2,0,5.9-2.6,5.9-5.9V5.9C64,2.6,61.4,0,58.1,0z
		 M50.6,33.8c0,0.1,0,0.2,0,0.3c-0.1,1.4-0.2,2.7-0.2,4.1c-0.1,1.8-0.7,3.4-1.8,4.7c-0.7,0.9-1.6,1.6-2.8,1.8
		c-1,0.1-1.9,0.2-2.9,0.2c-2.6,0.1-5.2,0.2-7.8,0.2c-5.4,0.1-10.8-0.1-16.2-0.4c-1.1-0.1-2-0.5-2.8-1.3c-1.2-1.2-1.9-2.6-2.2-4.2
		c-0.2-1.4-0.2-2.8-0.4-4.2c0-0.4-0.1-0.8-0.1-1.1c0-1.3,0-2.7,0-4c0-0.1,0-0.2,0-0.3c0.1-1.3,0.2-2.7,0.3-4c0.1-1.9,0.8-3.6,2-5
		c0.8-0.9,1.8-1.4,3-1.5c0.9-0.1,1.9-0.2,2.8-0.2c2.1-0.1,4.3-0.2,6.4-0.2c5.9-0.1,11.9,0,17.8,0.5c1,0.1,1.9,0.5,2.6,1.2
		c1.1,1.1,1.6,2.4,1.8,3.8c0.2,1.4,0.2,2.8,0.3,4.3c0,0.4,0.1,0.8,0.1,1.2C50.6,31.1,50.6,32.5,50.6,33.8z"/>
</g>
</svg>
