<svg id="icons" xmlns="http://www.w3.org/2000/svg" viewBox="0 0 64 64"><title>changa_check-square</title><g id="_Group_" data-name="&lt;Group&gt;"><path d="M57.82,6.35a3.69,3.69,0,0,1,.92,2.42V55.19A3.72,3.72,0,0,1,55,58.91H32.46v1.5H55a5.22,5.22,0,0,0,5.22-5.22V8.77A5.17,5.17,0,0,0,59,5.45Z"/><path d="M4.88,55.19V8.77A3.72,3.72,0,0,1,8.6,5H54.66l1.73-1.3A5.17,5.17,0,0,0,55,3.55H8.6A5.22,5.22,0,0,0,3.38,8.77V55.19A5.22,5.22,0,0,0,8.6,60.41H25v-1.5H8.6A3.72,3.72,0,0,1,4.88,55.19Z"/><g id="_Group_2" data-name="&lt;Group&gt;"><path id="_Path_" data-name="&lt;Path&gt;" d="M11.1,29.36,27.88,63.28a28.3,28.3,0,0,0,3.22-.86C31.31,37.4,43,14.55,64,.67c-.87.58-2.34.28-3.22.86-21,13.87-32.69,36.73-32.89,61.75l3.22-.86L14.33,28.5c-.11-.22-3.14,1-3.22.86Z"/></g></g></svg>