<svg id="icons" xmlns="http://www.w3.org/2000/svg" viewBox="0 0 64 64"><title>changa_cannabis</title><path id="_Path_" data-name="&lt;Path&gt;" d="M56.9,38.21S48.38,38,42.16,41.14c0,0-7.69,4.19-8.63,5.21,0,0-1.22-.14,5.17-4.82,0,0,6.46-5,9.19-8.11a38,38,0,0,0,5-9.07s3.77-9.54,4-10.8c0,0,1.73-4.82-1-2.15,0,0-7,5-10.12,8.28,0,0-5.24,4.93-7.44,9.8A113.87,113.87,0,0,0,34.07,41a41,41,0,0,0-1.24,4,6.25,6.25,0,0,1,.12-1.15l1.89-7.68L34.9,36s2.36-7.71,2.15-11.9c0,0,0-.2,0-.53a30.43,30.43,0,0,0-.68-6.64,58.52,58.52,0,0,0-1.86-8.88L33,3.13c-.54-2.29-.8-2.87-.93-3H32c-.12.09-.38.68-.93,3L29.51,8.05a58.52,58.52,0,0,0-1.86,8.88A30.43,30.43,0,0,0,27,23.56c0,.33,0,.53,0,.53C26.74,28.28,29.1,36,29.1,36l.07.23,1.89,7.68a6.25,6.25,0,0,1,.12,1.15,40.93,40.93,0,0,0-1.24-4,113.87,113.87,0,0,0-4.19-11.53c-2.2-4.87-7.44-9.8-7.44-9.8-3.14-3.3-10.12-8.28-10.12-8.28-2.78-2.67-1,2.15-1,2.15.21,1.26,4,10.8,4,10.8a38,38,0,0,0,5,9.07c2.74,3.14,9.19,8.11,9.19,8.11,6.39,4.68,5.17,4.82,5.17,4.82-.94-1-8.63-5.21-8.63-5.21C15.62,38,7.1,38.21,7.1,38.21c-7.2-.52-6,.56-6,.56,0,.28,5,3.7,5,3.7C15.38,47.85,22.3,47,22.3,47c9.23-.07,8.42.28,8.42.28a32.14,32.14,0,0,0-11,2.8c-7.34,3.67-9,7.44-9,7.44C14.23,58,22,54.74,22,54.74c4-2,9.19-7,9.19-7V63.86h1.65V47.75s5.17,5,9.19,7c0,0,7.76,3.21,11.25,2.8,0,0-1.68-3.77-9-7.44a32.14,32.14,0,0,0-11-2.8s-.8-.35,8.42-.28c0,0,6.92.84,16.14-4.54,0,0,5-3.42,5-3.7C62.88,38.77,64.1,37.68,56.9,38.21Z"/></svg>