<?xml version="1.0" encoding="utf-8"?>
<!-- Generator: Adobe Illustrator 21.0.2, SVG Export Plug-In . SVG Version: 6.00 Build 0)  -->
<svg version="1.1" id="icons" xmlns="http://www.w3.org/2000/svg" xmlns:xlink="http://www.w3.org/1999/xlink" x="0px" y="0px"
	 viewBox="0 0 64 64" style="enable-background:new 0 0 64 64;" xml:space="preserve">
<style type="text/css">
	.st0{fill:none;stroke:#000000;stroke-miterlimit:10;}
	.st1{fill:none;}
	.st2{fill:none;stroke:#000000;stroke-width:1.5;stroke-miterlimit:10;}
</style>
<g id="XMLID_640_">
	<g>
		<path d="M42.5,13c-0.5-0.6-0.8-1.3-0.8-2.2V9.5H21.3v1.3c0,0.8-0.3,1.6-0.8,2.2H42.5z"/>
		<path d="M56.3,9.5h-5.5v1.3c0,0.8-0.3,1.6-0.8,2.2h7.4c1.1,0,2,0.9,2,2v43.6c0,1.1-0.9,2-2,2H6.7c-1.1,0-2-0.9-2-2V15
			c0-1.1,0.9-2,2-2h6.4c-0.5-0.6-0.8-1.3-0.8-2.2V9.5H7.7c-3.3,0-6,2.7-6,6V58c0,3.3,2.7,6,6,6h48.6c3.3,0,6-2.7,6-6V15.6
			C62.3,12.2,59.6,9.5,56.3,9.5z"/>
	</g>
	<path id="XMLID_642_" d="M15.7,0c-1.2,0-2.2,1-2.2,2.2v8c0,1.2,1,2.2,2.2,2.2h2.1c1.2,0,2.2-1,2.2-2.2v-8C20,1,19,0,17.8,0H15.7z"
		/>
	<path id="XMLID_644_" d="M45.2,0c-1.2,0-2.2,1-2.2,2.2v8c0,1.2,1,2.2,2.2,2.2h2.1c1.2,0,2.2-1,2.2-2.2v-8c0-1.2-1-2.2-2.2-2.2H45.2
		z"/>
	<g id="XMLID_965_">
		<g id="XMLID_646_">
			<path id="XMLID_871_" d="M17.3,24.8c2,0,3.6,1.6,3.6,3.6v0.1c0,2-1.6,3.6-3.6,3.6s-3.6-1.6-3.6-3.6v-0.1
				C13.7,26.4,15.3,24.8,17.3,24.8 M17.3,23.8c-2.5,0-4.6,2.1-4.6,4.6v0.1c0,2.5,2.1,4.6,4.6,4.6s4.6-2.1,4.6-4.6v-0.1
				C21.9,25.8,19.8,23.8,17.3,23.8L17.3,23.8z"/>
		</g>
		<g id="XMLID_647_">
			<path id="XMLID_867_" d="M32,24.8c2,0,3.6,1.6,3.6,3.6v0.1c0,2-1.6,3.6-3.6,3.6c-2,0-3.6-1.6-3.6-3.6v-0.1
				C28.4,26.4,30,24.8,32,24.8 M32,23.8L32,23.8c-2.5,0-4.6,2.1-4.6,4.6v0.1c0,2.5,2.1,4.6,4.6,4.6h0c2.5,0,4.6-2.1,4.6-4.6v-0.1
				C36.6,25.8,34.5,23.8,32,23.8L32,23.8z"/>
		</g>
		<g id="XMLID_648_">
			<path id="XMLID_863_" d="M46.7,24.8c2,0,3.6,1.6,3.6,3.6v0.1c0,2-1.6,3.6-3.6,3.6s-3.6-1.6-3.6-3.6v-0.1
				C43.1,26.4,44.8,24.8,46.7,24.8 M46.7,23.8L46.7,23.8c-2.5,0-4.6,2.1-4.6,4.6v0.1c0,2.5,2.1,4.6,4.6,4.6h0c2.5,0,4.6-2.1,4.6-4.6
				v-0.1C51.3,25.8,49.3,23.8,46.7,23.8L46.7,23.8z"/>
		</g>
		<g id="XMLID_649_">
			<path id="XMLID_859_" d="M17.3,41.2c2,0,3.6,1.6,3.6,3.6v0.1c0,2-1.6,3.6-3.6,3.6s-3.6-1.6-3.6-3.6v-0.1
				C13.7,42.8,15.3,41.2,17.3,41.2 M17.3,40.2c-2.5,0-4.6,2.1-4.6,4.6v0.1c0,2.5,2.1,4.6,4.6,4.6s4.6-2.1,4.6-4.6v-0.1
				C21.9,42.3,19.8,40.2,17.3,40.2L17.3,40.2z"/>
		</g>
		<g id="XMLID_650_">
			<path id="XMLID_855_" d="M32,41.2c2,0,3.6,1.6,3.6,3.6v0.1c0,2-1.6,3.6-3.6,3.6c-2,0-3.6-1.6-3.6-3.6v-0.1
				C28.4,42.8,30,41.2,32,41.2 M32,40.2L32,40.2c-2.5,0-4.6,2.1-4.6,4.6v0.1c0,2.5,2.1,4.6,4.6,4.6h0c2.5,0,4.6-2.1,4.6-4.6v-0.1
				C36.6,42.3,34.5,40.2,32,40.2L32,40.2z"/>
		</g>
		<g id="XMLID_651_">
			<path id="XMLID_851_" d="M46.7,41.2c2,0,3.6,1.6,3.6,3.6v0.1c0,2-1.6,3.6-3.6,3.6s-3.6-1.6-3.6-3.6v-0.1
				C43.1,42.8,44.8,41.2,46.7,41.2 M46.7,40.2L46.7,40.2c-2.5,0-4.6,2.1-4.6,4.6v0.1c0,2.5,2.1,4.6,4.6,4.6h0c2.5,0,4.6-2.1,4.6-4.6
				v-0.1C51.3,42.3,49.3,40.2,46.7,40.2L46.7,40.2z"/>
		</g>
	</g>
</g>
</svg>
