<svg id="icons" xmlns="http://www.w3.org/2000/svg" viewBox="0 0 64 64"><title>changa_flag</title><g id="_Group_" data-name="&lt;Group&gt;"><path id="_Path_" data-name="&lt;Path&gt;" d="M13.37,58.11V5.89a3.08,3.08,0,1,0-2.7,0V58.11a3.08,3.08,0,1,0,2.7,0Z"/><g id="_Group_2" data-name="&lt;Group&gt;"><path id="_Path_2" data-name="&lt;Path&gt;" d="M15.18,31c.16-7.58-.14-14.69,0-22.27a4.47,4.47,0,0,1,.53-2.45c.72-1.06,2.17-1.29,3.46-1.37A41.74,41.74,0,0,1,33.07,6.49C37,7.62,40.78,9.33,44.84,9.8s8.64-.62,10.94-4q-.91,6.78-1.32,13.62C54.19,24,54.12,28.76,56,32.91a3.36,3.36,0,0,0-2.77-.18,24.13,24.13,0,0,0-2.6,1.18c-3.34,1.51-7.23,1.29-10.77.33s-6.83-2.62-10.24-4-7-2.43-10.68-2.13a5.61,5.61,0,0,0-2.52.7A2.54,2.54,0,0,0,15.18,31"/></g></g></svg>