<?xml version="1.0" encoding="utf-8"?>
<!-- Generator: Adobe Illustrator 21.0.2, SVG Export Plug-In . SVG Version: 6.00 Build 0)  -->
<svg version="1.1" id="icons" xmlns="http://www.w3.org/2000/svg" xmlns:xlink="http://www.w3.org/1999/xlink" x="0px" y="0px"
	 viewBox="0 0 64 64" style="enable-background:new 0 0 64 64;" xml:space="preserve">
<style type="text/css">
	.st0{stroke:#FFFFFF;stroke-width:0;stroke-linecap:round;stroke-linejoin:round;}
	.st1{fill:none;stroke:#000000;stroke-width:1.5;stroke-miterlimit:10;}
</style>
<g>
	<path id="XMLID_1_" d="M28.1,41.4c6.1-1.4,10.6-6.9,10.6-13.3c0-7.6-6.1-13.7-13.7-13.7s-13.7,6.1-13.7,13.7
		c0,6.4,4.4,11.7,10.3,13.3v6.8h-6.6v6.6h6.6V64h6.6v-9.3H35v-6.6h-6.9V41.4z M14.8,28.1c0-5.6,4.5-10.1,10.1-10.1
		s10.1,4.5,10.1,10.1c0,5.6-4.5,10.1-10.1,10.1S14.8,33.6,14.8,28.1z"/>
	<path id="XMLID_21_" d="M35.5,21.9l11.6-11.6v7h5.7V5.7V0h-5.7H35.5v5.7h6.6L30.9,16.8"/>
</g>
</svg>
