<?xml version="1.0" encoding="utf-8"?>
<!-- Generator: Adobe Illustrator 21.0.2, SVG Export Plug-In . SVG Version: 6.00 Build 0)  -->
<svg version="1.1" id="icons" xmlns="http://www.w3.org/2000/svg" xmlns:xlink="http://www.w3.org/1999/xlink" x="0px" y="0px"
	 viewBox="0 0 64 64" style="enable-background:new 0 0 64 64;" xml:space="preserve">
<style type="text/css">
	.st0{stroke:#FFFFFF;stroke-width:0;stroke-linecap:round;stroke-linejoin:round;}
	.st1{fill:none;stroke:#000000;stroke-width:1.5;stroke-miterlimit:10;}
</style>
<g id="XMLID_305_">
	<path id="XMLID_306_" d="M43.6,6.1c0.4,0,0.9,0,1.3,0c0.6,0.1,1.3,0.1,1.9,0.3c2.6,0.5,4.9,1.8,6.8,3.7c0.1,0.1,0.2,0.2,0.4,0.1
		c2.3-0.5,4.5-1.2,6.6-2.3C61,7.7,61.5,7.4,62,7.1c-0.5,1.5-1.2,2.9-2.2,4.1c-1,1.2-2.1,2.2-3.4,3.1c2.5-0.3,5-0.9,7.3-2
		c-0.1,0.2-0.2,0.3-0.2,0.4c-1.7,2.4-3.7,4.5-6,6.2c-0.2,0.1-0.2,0.2-0.2,0.4c0.1,3.1-0.1,6.2-0.8,9.3c-1.7,7.5-5.2,14-10.8,19.4
		c-2.8,2.7-5.9,4.9-9.4,6.5c-4.8,2.3-9.9,3.3-15.2,3.4c-2.5,0.1-5-0.1-7.4-0.6c-4.7-0.8-9.1-2.6-13.1-5.1c-0.1,0-0.1-0.1-0.2-0.1
		c7.1,0.7,13.5-1.1,19.2-5.4c-2.8-0.1-5.3-1-7.5-2.6c-2.2-1.7-3.8-3.8-4.6-6.4c1,0,2,0.1,2.9,0.1c1,0,1.9-0.1,2.8-0.4
		C5.8,35.7,2.5,29.1,2.7,24.5c0.9,0.3,1.8,0.7,2.8,1c1,0.3,2,0.4,3,0.4c-2.8-2-4.6-4.6-5.4-7.9c-0.7-3.3-0.3-6.5,1.4-9.4
		c7.1,8.3,16,12.9,26.9,13.6c0-0.2,0-0.3-0.1-0.4c-0.6-2.8-0.3-5.6,1-8.2c1.9-3.9,5-6.3,9.2-7.2C42.2,6.3,42.9,6.2,43.6,6.1z"/>
</g>
</svg>
