<svg id="icons" xmlns="http://www.w3.org/2000/svg" viewBox="0 0 64 64"><title>changa_cannabis-circle-o</title><g id="_Group_" data-name="&lt;Group&gt;"><path d="M32,1.5A30.5,30.5,0,1,1,1.5,32,30.53,30.53,0,0,1,32,1.5M32,0A32,32,0,1,0,64,32,32,32,0,0,0,32,0Z"/></g><path id="_Path_" data-name="&lt;Path&gt;" d="M47.33,35.82s-5.25-.15-9.08,1.81a54.31,54.31,0,0,0-5.31,3.2s-.75-.09,3.18-3a52.75,52.75,0,0,0,5.66-5,23.41,23.41,0,0,0,3.07-5.58s2.32-5.87,2.45-6.65c0,0,1.06-3-.65-1.32a58.16,58.16,0,0,0-6.23,5.1,23.55,23.55,0,0,0-4.58,6,70.08,70.08,0,0,0-2.58,7.1A25.2,25.2,0,0,0,32.51,40a3.85,3.85,0,0,1,.07-.71l1.16-4.73,0-.14s1.45-4.74,1.32-7.32c0,0,0-.12,0-.32a18.73,18.73,0,0,0-.42-4.08,36,36,0,0,0-1.15-5.46l-.94-3A5.67,5.67,0,0,0,32,12.4h0a5.67,5.67,0,0,0-.57,1.82l-.94,3a36,36,0,0,0-1.15,5.46,18.73,18.73,0,0,0-.42,4.08c0,.2,0,.32,0,.32-.13,2.58,1.32,7.32,1.32,7.32l0,.14,1.16,4.73a3.85,3.85,0,0,1,.07.71,25.19,25.19,0,0,0-.76-2.48,70.08,70.08,0,0,0-2.58-7.1,23.55,23.55,0,0,0-4.58-6,58.16,58.16,0,0,0-6.23-5.1c-1.71-1.65-.65,1.32-.65,1.32.13.77,2.45,6.65,2.45,6.65a23.41,23.41,0,0,0,3.07,5.58,52.75,52.75,0,0,0,5.66,5c3.94,2.88,3.18,3,3.18,3a54.31,54.31,0,0,0-5.31-3.2c-3.83-2-9.08-1.81-9.08-1.81-4.43-.32-3.68.34-3.68.34a35.58,35.58,0,0,0,3.1,2.28c5.68,3.31,9.94,2.8,9.94,2.8,5.68,0,5.18.17,5.18.17a19.78,19.78,0,0,0-6.75,1.72c-4.52,2.26-5.55,4.58-5.55,4.58C21.06,48,25.84,46,25.84,46a29.76,29.76,0,0,0,5.66-4.3v9.91h1V41.69A29.76,29.76,0,0,0,38.16,46s4.77,2,6.92,1.72c0,0-1-2.32-5.55-4.58a19.78,19.78,0,0,0-6.75-1.72s-.49-.22,5.18-.17c0,0,4.26.52,9.94-2.8A35.58,35.58,0,0,0,51,36.16S51.76,35.5,47.33,35.82Z"/></svg>