<?xml version="1.0" encoding="utf-8"?>
<!-- Generator: Adobe Illustrator 21.0.2, SVG Export Plug-In . SVG Version: 6.00 Build 0)  -->
<svg version="1.1" id="icons" xmlns="http://www.w3.org/2000/svg" xmlns:xlink="http://www.w3.org/1999/xlink" x="0px" y="0px"
	 viewBox="0 0 64 64" style="enable-background:new 0 0 64 64;" xml:space="preserve">
<style type="text/css">
	.st0{fill:none;stroke:#000000;stroke-miterlimit:10;}
	.st1{fill:none;}
	.st2{fill:none;stroke:#000000;stroke-width:1.5;stroke-miterlimit:10;}
</style>
<g id="XMLID_724_">
	<path id="XMLID_1718_" d="M23.8,60.6H3.1c-1.7,0-3.1-1.4-3.1-3.1V6.4c0-1.7,1.4-3.1,3.1-3.1h20.7c1.7,0,3.1,1.4,3.1,3.1v51.1
		C26.9,59.3,25.5,60.6,23.8,60.6z"/>
	<path id="XMLID_1717_" d="M60.9,60.6H40.2c-1.7,0-3.1-1.4-3.1-3.1V6.4c0-1.7,1.4-3.1,3.1-3.1h20.7c1.7,0,3.1,1.4,3.1,3.1v51.1
		C64,59.3,62.6,60.6,60.9,60.6z"/>
</g>
</svg>
