<?xml version="1.0" encoding="utf-8"?>
<!-- Generator: Adobe Illustrator 21.0.2, SVG Export Plug-In . SVG Version: 6.00 Build 0)  -->
<svg version="1.1" id="icons" xmlns="http://www.w3.org/2000/svg" xmlns:xlink="http://www.w3.org/1999/xlink" x="0px" y="0px"
	 viewBox="0 0 64 64" style="enable-background:new 0 0 64 64;" xml:space="preserve">
<style type="text/css">
	.st0{fill:none;stroke:#000000;stroke-miterlimit:10;}
	.st1{fill:none;}
	.st2{fill:none;stroke:#000000;stroke-width:1.5;stroke-miterlimit:10;}
</style>
<g id="XMLID_8817_">
	<path d="M51.5,19.4c6.1,0,11,4.9,11,11v3.1c0,6.1-4.9,11-11,11H12.5c-6.1,0-11-4.9-11-11v-3.1c0-6.1,4.9-11,11-11H51.5 M51.5,17.9
		H12.5C5.6,17.9,0,23.6,0,30.5v3.1c0,6.9,5.6,12.5,12.5,12.5h38.9c6.9,0,12.5-5.6,12.5-12.5v-3.1C64,23.6,58.4,17.9,51.5,17.9
		L51.5,17.9z"/>
</g>
<ellipse id="XMLID_562_" cx="15.2" cy="32" rx="11.4" ry="11.3"/>
</svg>
