<?xml version="1.0" encoding="utf-8"?>
<!-- Generator: Adobe Illustrator 21.0.2, SVG Export Plug-In . SVG Version: 6.00 Build 0)  -->
<svg version="1.1" id="icons" xmlns="http://www.w3.org/2000/svg" xmlns:xlink="http://www.w3.org/1999/xlink" x="0px" y="0px"
	 viewBox="0 0 64 64" style="enable-background:new 0 0 64 64;" xml:space="preserve">
<style type="text/css">
	.st0{stroke:#FFFFFF;stroke-width:0;stroke-linecap:round;stroke-linejoin:round;}
	.st1{fill:none;stroke:#000000;stroke-width:1.5;stroke-miterlimit:10;}
</style>
<g id="XMLID_202_">
	<path id="XMLID_203_" d="M60,12.2H4.1c-2.2,0-4,1.8-4,4v31.6c0,2.2,1.8,4,4,4H60c2.2,0,4-1.8,4-4V16.2C64,14,62.2,12.2,60,12.2z
		 M4.1,14.2H60c1.1,0,2,0.9,2,2v3.7H2.1v-3.7C2.1,15.1,3,14.2,4.1,14.2z M60,49.8H4.1c-1.1,0-2-0.9-2-2V27.9H62v19.9
		C62,48.9,61.1,49.8,60,49.8z"/>
	<rect id="XMLID_1176_" x="3.6" y="43.4" width="15.5" height="2.3"/>
	<rect id="XMLID_1175_" x="22.3" y="43.4" width="28.3" height="2.3"/>
</g>
</svg>
