<?xml version="1.0" encoding="utf-8"?>
<!-- Generator: Adobe Illustrator 21.0.2, SVG Export Plug-In . SVG Version: 6.00 Build 0)  -->
<svg version="1.1" id="icons" xmlns="http://www.w3.org/2000/svg" xmlns:xlink="http://www.w3.org/1999/xlink" x="0px" y="0px"
	 viewBox="0 0 64 64" style="enable-background:new 0 0 64 64;" xml:space="preserve">
<style type="text/css">
	.st0{fill:none;stroke:#000000;stroke-miterlimit:10;}
	.st1{fill:none;}
	.st2{fill:none;stroke:#000000;stroke-width:1.5;stroke-miterlimit:10;}
</style>
<g id="XMLID_652_">
	<g id="XMLID_653_">
		<path id="XMLID_1574_" d="M63.9,32.3c0,2-0.2,4.3-0.6,6.6c-0.9,5.6-2.9,10.7-5.9,15.3c-0.8,1.3-1.7,2.5-2.7,3.7
			c-0.6,0.8-1.4,1.2-2.4,1.2c-1-0.1-1.8-0.6-2.3-1.6c-0.6-1-0.6-2.1-0.2-3.1c0.2-0.4,0.4-0.8,0.7-1.2c1.3-1.6,2.5-3.3,3.5-5.2
			c1.1-2.1,2-4.3,2.7-6.7c1.1-4,1.5-8,1.2-12.1c-0.2-3-0.8-5.8-1.8-8.6c-1.2-3.5-3-6.7-5.3-9.5c-0.3-0.4-0.6-0.8-0.9-1.3
			c-0.4-0.9-0.4-1.8-0.1-2.7c0.4-1.1,1.2-1.8,2.2-2c1.1-0.2,2,0.3,2.8,1.2c2.7,3.2,4.8,6.9,6.4,11c0.9,2.4,1.6,5,2.1,7.6
			c0.3,1.6,0.4,3.1,0.5,4.7C63.9,30.3,63.9,31.1,63.9,32.3z"/>
		<path id="XMLID_1573_" d="M54.1,31.8c0,2.9-0.3,5.5-1,8.1c-0.9,3-2.1,5.8-3.9,8.4c-0.6,0.8-1.2,1.6-1.8,2.4
			c-0.9,1.1-2,1.3-3.3,0.8c-0.9-0.4-1.5-1.2-1.7-2.4c-0.2-1.2,0.1-2.2,0.8-3.1c0.8-1,1.5-2,2.2-3.1c0.9-1.6,1.6-3.3,2.1-5.1
			c0.7-2.5,0.9-5.1,0.7-7.8c-0.2-2-0.6-3.9-1.3-5.7c-0.6-1.6-1.4-3.1-2.3-4.4c-0.5-0.8-1.2-1.4-1.7-2.2c-1.1-1.6-0.7-3.9,0.8-4.9
			c1.2-0.8,2.6-0.6,3.7,0.7c2.1,2.5,3.8,5.3,4.9,8.4C53.5,25.1,54.2,28.5,54.1,31.8z"/>
		<path id="XMLID_1572_" d="M37.8,44.3c-1.6,0-2.8-1.4-2.9-3.2c0-1,0.3-1.9,1-2.6c0.7-0.8,1.3-1.7,1.7-2.7c0.7-1.7,1-3.6,0.6-5.4
			c-0.3-1.9-1.1-3.5-2.3-4.8c-0.5-0.5-0.8-1.1-1-1.8c-0.2-1.2,0-2.3,0.8-3.1c0.5-0.6,1.2-0.9,1.9-0.9c0.6,0,1.2,0.1,1.7,0.5
			c1,0.9,1.8,2,2.6,3.2c1,1.7,1.7,3.6,2.1,5.7c0.3,2,0.3,4,0,6c-0.6,3.4-2,6.2-4.3,8.5C39.3,44,38.5,44.3,37.8,44.3z"/>
	</g>
	<path id="XMLID_654_" d="M31.5,8.2C31.3,8.1,31.1,8,30.9,8c-0.3,0-0.5,0.1-0.8,0.2L13,20.2l-9.8,0.1c-1.4,0-2.6,0.9-3.1,2.1v18
		c0.4,1.4,1.7,2.4,3.2,2.4l9.6-0.1l17.2,12c0.2,0.2,0.5,0.2,0.8,0.2c0.2,0,0.4-0.1,0.6-0.2c0.4-0.2,0.7-0.7,0.7-1.2V9.4
		C32.2,8.9,32,8.4,31.5,8.2z"/>
</g>
</svg>
