<svg id="icons" xmlns="http://www.w3.org/2000/svg" viewBox="0 0 64 64"><title>changa_instagram</title><path id="_Compound_Path_" data-name="&lt;Compound Path&gt;" d="M58.13,0H15.07a.77.77,0,0,1,.34.09A4.33,4.33,0,0,0,14.75,0V12.54a.71.71,0,1,1-1.42,0V0h-1.5V12.54a.71.71,0,1,1-1.42,0V0H8.92V12.54a.71.71,0,1,1-1.42,0V0H6.35L6.09,0l.13,0H5.88A5.87,5.87,0,0,0,0,5.88V58.13A5.88,5.88,0,0,0,5.88,64H58.13A5.88,5.88,0,0,0,64,58.13V5.88A5.87,5.87,0,0,0,58.13,0ZM32,17.41A14.59,14.59,0,1,1,17.41,32,14.59,14.59,0,0,1,32,17.41Zm26.91,38a4.51,4.51,0,0,1-4.49,4.49H9.58a4.51,4.51,0,0,1-4.49-4.49V26.61a4.51,4.51,0,0,1,4.49-4.49h4.33a20.61,20.61,0,1,0,36.19,0h4.33a4.51,4.51,0,0,1,4.49,4.49Zm0-40.16a2.2,2.2,0,0,1-2.2,2.2H48.29a2.2,2.2,0,0,1-2.2-2.2V6.79a2.2,2.2,0,0,1,2.2-2.2h8.42a2.2,2.2,0,0,1,2.2,2.2Z"/></svg>