<?xml version="1.0" encoding="utf-8"?>
<!-- Generator: Adobe Illustrator 21.0.2, SVG Export Plug-In . SVG Version: 6.00 Build 0)  -->
<svg version="1.1" id="icons" xmlns="http://www.w3.org/2000/svg" xmlns:xlink="http://www.w3.org/1999/xlink" x="0px" y="0px"
	 viewBox="0 0 64 64" style="enable-background:new 0 0 64 64;" xml:space="preserve">
<style type="text/css">
	.st0{fill:none;stroke:#000000;stroke-miterlimit:10;}
	.st1{fill:none;}
	.st2{fill:none;stroke:#000000;stroke-width:1.5;stroke-miterlimit:10;}
</style>
<path id="XMLID_576_" d="M31.7,0C14.1,0.2-0.2,14.6,0,32.3C0.2,49.9,14.6,64.2,32.3,64C49.9,63.8,64.2,49.4,64,31.7
	C63.8,14.1,49.4-0.2,31.7,0z M50.8,19.7L32,31.1L13.2,19.7H50.8z M11.8,19.7L11.8,19.7L11.8,19.7L11.8,19.7z M11.8,20.6l15.6,9.5
	L11.8,43.3V20.6z M11.8,44.3L11.8,44.3L11.8,44.3L11.8,44.3z M13,44.3l15.8-13.4l3.2,1.9l3.2-1.9L51,44.3H13z M52.2,44.3L52.2,44.3
	L52.2,44.3L52.2,44.3z M52.2,43.3L36.5,30.1l15.6-9.5V43.3z M52.2,19.7L52.2,19.7L52.2,19.7L52.2,19.7z"/>
</svg>
