<?xml version="1.0" encoding="utf-8"?>
<!-- Generator: Adobe Illustrator 21.0.2, SVG Export Plug-In . SVG Version: 6.00 Build 0)  -->
<svg version="1.1" id="icons" xmlns="http://www.w3.org/2000/svg" xmlns:xlink="http://www.w3.org/1999/xlink" x="0px" y="0px"
	 viewBox="0 0 64 64" style="enable-background:new 0 0 64 64;" xml:space="preserve">
<style type="text/css">
	.st0{fill:none;stroke:#000000;stroke-miterlimit:10;}
	.st1{fill:none;}
	.st2{fill:none;stroke:#000000;stroke-width:1.5;stroke-miterlimit:10;}
</style>
<g id="XMLID_487_">
	<path d="M49.9,3.3L49.9,3.3c2.9,0,5.7,0.9,7.7,2.5c3.9,3.1,5.8,9.1,4.5,14.9c-1,4.7-4,8.6-7.3,12.8c-0.5,0.7-1,1.3-1.5,2
		c-4.1,5.4-7.2,9.1-11.2,13.8c-0.1,0.1-5.2,6.5-9.8,10.9c-5.6-4.8-9.2-9.3-13.8-15c-3.8-4.7-7.1-9.3-9.8-13.3
		C6.3,28.5,3.9,25,2.5,21.1C1.1,17,1.2,12.9,2.7,9.8c1.9-3.6,6.1-6.1,10.5-6.2l0.2,0c4.1,0,8.4,2,11.5,5.3c2.9,3.1,4.9,7.2,5.8,12.1
		c0.1,0.7,0.8,1.2,1.5,1.2c0,0,0.1,0,0.1,0c0.8,0,1.4-0.6,1.4-1.4c0.4-6.3,3.4-11.9,8-15C44.1,4.2,47,3.3,49.9,3.3 M49.9,1.8
		c-3.2,0-6.4,0.9-9,2.7c-5.2,3.5-8.2,9.8-8.6,16.1c-0.9-4.7-2.9-9.3-6.2-12.8c-3.3-3.4-7.8-5.7-12.6-5.7c-0.1,0-0.2,0-0.2,0
		c-4.8,0.1-9.6,2.7-11.8,7c-1.9,3.8-1.7,8.4-0.3,12.5c1.4,4,3.9,7.6,6.3,11.1c3.2,4.7,6.3,9,9.9,13.4c4.9,6.1,8.8,10.8,15,16
		c5-4.6,11-12,11-12c4.2-5,7.2-8.6,11.2-13.8c3.7-4.8,7.8-9.4,9.1-15.3c1.2-5.9-0.3-12.7-5.1-16.4C56.1,2.7,53,1.8,49.9,1.8
		L49.9,1.8z"/>
</g>
</svg>
