<?xml version="1.0" encoding="utf-8"?>
<!-- Generator: Adobe Illustrator 21.0.2, SVG Export Plug-In . SVG Version: 6.00 Build 0)  -->
<svg version="1.1" id="icons" xmlns="http://www.w3.org/2000/svg" xmlns:xlink="http://www.w3.org/1999/xlink" x="0px" y="0px"
	 viewBox="0 0 64 64" style="enable-background:new 0 0 64 64;" xml:space="preserve">
<style type="text/css">
	.st0{fill:none;stroke:#000000;stroke-miterlimit:10;}
	.st1{fill:none;}
	.st2{fill:none;stroke:#000000;stroke-width:1.5;stroke-miterlimit:10;}
</style>
<path d="M63.9,34.4c0.1-0.8,0.1-1.6,0.1-2.4c0-0.8-0.1-1.6-0.1-2.4l-8.4-2.1c-0.2-1.1-0.5-2.2-0.9-3.3l6.2-6
	c-0.7-1.5-1.5-2.9-2.4-4.2l-8.4,2.4c-0.7-0.9-1.6-1.7-2.4-2.4L50,5.6c-1.3-0.9-2.7-1.7-4.2-2.4l-6,6.2c-1.1-0.4-2.2-0.7-3.3-0.9
	l-2.1-8.4C33.6,0.1,32.8,0,32,0s-1.6,0.1-2.4,0.1l-2.1,8.4c-1.1,0.2-2.2,0.5-3.3,0.9l-6-6.2c-1.5,0.7-2.9,1.5-4.2,2.4l2.4,8.4
	c-0.9,0.7-1.7,1.6-2.4,2.4L5.6,14c-0.9,1.3-1.7,2.7-2.4,4.2l6.2,6c-0.4,1.1-0.7,2.2-0.9,3.3l-8.4,2.1C0.1,30.4,0,31.2,0,32
	c0,0.8,0.1,1.6,0.1,2.4l8.4,2.1c0.2,1.1,0.5,2.2,0.9,3.3l-6.2,6c0.7,1.5,1.5,2.9,2.4,4.2l8.4-2.4c0.7,0.9,1.6,1.7,2.4,2.4L14,58.4
	c1.3,0.9,2.7,1.7,4.2,2.4l6-6.2c1.1,0.4,2.2,0.7,3.3,0.9l2.1,8.4c0.8,0.1,1.6,0.1,2.4,0.1s1.6-0.1,2.4-0.1l2.1-8.4
	c1.1-0.2,2.2-0.5,3.3-0.9l6,6.2c1.5-0.7,2.9-1.5,4.2-2.4l-2.4-8.4c0.9-0.7,1.7-1.6,2.4-2.4l8.4,2.4c0.9-1.3,1.7-2.7,2.4-4.2l-6.2-6
	c0.4-1.1,0.7-2.2,0.9-3.3L63.9,34.4z M52.9,33.6L47.4,35c-0.1,0.7-0.3,1.5-0.6,2.2l4.1,4c-0.5,1-1,1.9-1.6,2.7l-5.5-1.6
	c-0.5,0.6-1,1.1-1.6,1.6l1.6,5.5c-0.9,0.6-1.8,1.1-2.7,1.6l-4-4.1c-0.7,0.2-1.4,0.4-2.2,0.6l-1.4,5.5c-0.5,0-1,0.1-1.6,0.1
	s-1.1,0-1.6-0.1L29,47.4c-0.7-0.1-1.5-0.3-2.2-0.6l-4,4.1c-1-0.5-1.9-1-2.7-1.6l1.6-5.5c-0.6-0.5-1.1-1-1.6-1.6l-5.5,1.6
	c-0.6-0.9-1.1-1.8-1.6-2.7l4.1-4c-0.2-0.7-0.4-1.4-0.6-2.2l-5.5-1.4c0-0.5-0.1-1-0.1-1.6c0-0.5,0-1.1,0.1-1.6l5.5-1.4
	c0.1-0.7,0.3-1.5,0.6-2.2l-4.1-4c0.5-1,1-1.9,1.6-2.7l5.5,1.6c0.5-0.6,1-1.1,1.6-1.6l-1.6-5.5c0.9-0.6,1.8-1.1,2.7-1.6l4,4.1
	c0.7-0.2,1.4-0.4,2.2-0.6l1.4-5.5c0.5,0,1-0.1,1.6-0.1s1.1,0,1.6,0.1l1.4,5.5c0.7,0.1,1.5,0.3,2.2,0.6l4-4.1c1,0.5,1.9,1,2.7,1.6
	l-1.6,5.5c0.6,0.5,1.1,1,1.6,1.6l5.5-1.6c0.6,0.9,1.1,1.8,1.6,2.7l-4.1,4c0.2,0.7,0.4,1.4,0.6,2.2l5.5,1.4c0,0.5,0.1,1,0.1,1.6
	C53,32.5,53,33.1,52.9,33.6z"/>
<g id="XMLID_774_">
	<path d="M39.1,32.5L37.3,33c0,0.3-0.1,0.5-0.2,0.7l1.4,1.4c-0.2,0.3-0.3,0.6-0.5,0.9L36,35.5c-0.2,0.2-0.3,0.4-0.5,0.5l0.5,1.9
		c-0.3,0.2-0.6,0.4-0.9,0.5l-1.4-1.4c-0.2,0.1-0.5,0.2-0.7,0.2l-0.5,1.9c-0.2,0-0.4,0-0.5,0c-0.2,0-0.4,0-0.5,0L31,37.3
		c-0.3,0-0.5-0.1-0.7-0.2l-1.4,1.4c-0.3-0.2-0.6-0.3-0.9-0.5l0.5-1.9c-0.2-0.2-0.4-0.3-0.5-0.5L26.1,36c-0.2-0.3-0.4-0.6-0.5-0.9
		l1.4-1.4c-0.1-0.2-0.2-0.5-0.2-0.7l-1.9-0.5c0-0.2,0-0.4,0-0.5c0-0.2,0-0.4,0-0.5l1.9-0.5c0-0.3,0.1-0.5,0.2-0.7l-1.4-1.4
		c0.2-0.3,0.3-0.6,0.5-0.9l1.9,0.5c0.2-0.2,0.3-0.4,0.5-0.5L28,26.1c0.3-0.2,0.6-0.4,0.9-0.5l1.4,1.4c0.2-0.1,0.5-0.2,0.7-0.2
		l0.5-1.9c0.2,0,0.4,0,0.5,0c0.2,0,0.4,0,0.5,0l0.5,1.9c0.3,0,0.5,0.1,0.7,0.2l1.4-1.4c0.3,0.2,0.6,0.3,0.9,0.5L35.5,28
		c0.2,0.2,0.4,0.3,0.5,0.5l1.9-0.5c0.2,0.3,0.4,0.6,0.5,0.9l-1.4,1.4c0.1,0.2,0.2,0.5,0.2,0.7l1.9,0.5c0,0.2,0,0.4,0,0.5
		C39.2,32.2,39.2,32.4,39.1,32.5z"/>
</g>
</svg>
