<?xml version="1.0" encoding="utf-8"?>
<!-- Generator: Adobe Illustrator 21.0.2, SVG Export Plug-In . SVG Version: 6.00 Build 0)  -->
<svg version="1.1" id="icons" xmlns="http://www.w3.org/2000/svg" xmlns:xlink="http://www.w3.org/1999/xlink" x="0px" y="0px"
	 viewBox="0 0 64 64" style="enable-background:new 0 0 64 64;" xml:space="preserve">
<style type="text/css">
	.st0{fill:none;stroke:#000000;stroke-miterlimit:10;}
	.st1{fill:none;}
	.st2{fill:none;stroke:#000000;stroke-width:1.5;stroke-miterlimit:10;}
</style>
<g id="XMLID_421_">
	<path d="M32,1.5c16.8,0,30.5,13.7,30.5,30.5S48.8,62.5,32,62.5S1.5,48.8,1.5,32S15.2,1.5,32,1.5 M32,0C14.4,0,0,14.4,0,32
		s14.4,32,32,32s32-14.4,32-32S49.6,0,32,0L32,0z"/>
</g>
<circle id="XMLID_760_" cx="32" cy="4.1" r="0.8"/>
<circle id="XMLID_761_" cx="32" cy="59" r="0.8"/>
<circle id="XMLID_762_" cx="3.6" cy="32" r="0.8"/>
<circle id="XMLID_763_" cx="59.6" cy="32" r="0.8"/>
<g id="XMLID_773_">
	<circle cx="31.7" cy="35.2" r="4.2"/>
</g>
<g>
	<path d="M31.7,29.6c0.4,0,0.7,0,1,0.1c0-0.3,0-0.6,0-0.9c0-2.2,0-4.4,0-6.7c-0.1-4.4-0.3-8.9-0.7-13.3c-0.5,4.4-0.8,8.9-1,13.3
		c-0.1,2.2-0.2,4.4-0.2,6.7c0,0.3,0,0.6,0,0.9C31.1,29.7,31.4,29.6,31.7,29.6z"/>
	<path d="M39,41.7c-1-1-2-2.1-3-3.1c-0.4,0.5-0.8,0.9-1.3,1.2c1.1,1,2.1,2,3.2,2.9c2.4,2.1,4.8,4.3,7.4,6.3
		C43.4,46.5,41.2,44.1,39,41.7z"/>
</g>
</svg>
