<?xml version="1.0" encoding="utf-8"?>
<!-- Generator: Adobe Illustrator 21.0.2, SVG Export Plug-In . SVG Version: 6.00 Build 0)  -->
<svg version="1.1" id="icons" xmlns="http://www.w3.org/2000/svg" xmlns:xlink="http://www.w3.org/1999/xlink" x="0px" y="0px"
	 viewBox="0 0 64 64" style="enable-background:new 0 0 64 64;" xml:space="preserve">
<style type="text/css">
	.st0{fill:none;stroke:#000000;stroke-miterlimit:10;}
	.st1{fill:none;}
	.st2{fill:none;stroke:#000000;stroke-width:1.5;stroke-miterlimit:10;}
</style>
<path d="M62,0H2C0.9,0,0,0.9,0,2v60c0,1.1,0.9,2,2,2h60c1.1,0,2-0.9,2-2V2C64,0.9,63.1,0,62,0z M38,48.4c0,0.4-0.2,0.7-0.5,0.9
	c-0.1,0.1-0.3,0.1-0.5,0.1c-0.2,0-0.4-0.1-0.6-0.2l-12.8-8.9l-7.1,0c-1.1,0-2.1-0.8-2.4-1.8V25.3c0.4-0.9,1.3-1.6,2.3-1.6l7.2,0
	l12.7-8.8c0.2-0.1,0.4-0.2,0.6-0.2c0.2,0,0.3,0,0.5,0.1c0.3,0.2,0.5,0.5,0.5,0.9V48.4z M49.6,34.6c-0.4,2.5-1.5,4.6-3.2,6.3
	c-0.4,0.4-1,0.6-1.4,0.6c-1.2,0-2.1-1.1-2.1-2.3c0-0.8,0.2-1.4,0.7-1.9c0.5-0.6,1-1.2,1.3-2c0.5-1.3,0.7-2.6,0.5-4
	c-0.2-1.4-0.8-2.6-1.7-3.6c-0.4-0.4-0.6-0.8-0.7-1.4c-0.2-0.9,0-1.7,0.6-2.3c0.4-0.4,0.9-0.6,1.4-0.7c0.5,0,0.9,0.1,1.3,0.4
	c0.8,0.6,1.4,1.5,1.9,2.3c0.8,1.3,1.3,2.7,1.5,4.2C49.9,31.6,49.9,33.1,49.6,34.6z"/>
</svg>
