<?xml version="1.0" encoding="utf-8"?>
<!-- Generator: Adobe Illustrator 21.0.2, SVG Export Plug-In . SVG Version: 6.00 Build 0)  -->
<svg version="1.1" id="icons" xmlns="http://www.w3.org/2000/svg" xmlns:xlink="http://www.w3.org/1999/xlink" x="0px" y="0px"
	 viewBox="0 0 64 64" style="enable-background:new 0 0 64 64;" xml:space="preserve">
<style type="text/css">
	.st0{fill:none;stroke:#000000;stroke-miterlimit:10;}
	.st1{fill:none;}
	.st2{fill:none;stroke:#000000;stroke-width:1.5;stroke-miterlimit:10;}
</style>
<path d="M62,0H2C0.9,0,0,0.9,0,2v60c0,1.1,0.9,2,2,2h60c1.1,0,2-0.9,2-2V2C64,0.9,63.1,0,62,0z M35.6,48.4c0,0.4-0.2,0.7-0.5,0.9
	c-0.1,0.1-0.3,0.1-0.5,0.1c-0.2,0-0.4-0.1-0.6-0.2l-12.7-8.9l-7.1,0c-1.1,0-2.1-0.8-2.4-1.8V25.3c0.4-0.9,1.3-1.6,2.3-1.6l7.2,0
	l12.7-8.8c0.2-0.1,0.4-0.2,0.6-0.2c0.2,0,0.3,0,0.5,0.1c0.3,0.2,0.5,0.5,0.5,0.9V48.4z M51.6,35.9c0.7,0.7,0.7,1.8,0,2.5l-0.6,0.6
	c-0.7,0.7-1.8,0.7-2.5,0l-3.5-3.5l-3.5,3.5c-0.7,0.7-1.8,0.7-2.5,0l-0.6-0.6c-0.7-0.7-0.7-1.8,0-2.5l3.5-3.5l-3.5-3.5
	c-0.7-0.7-0.7-1.8,0-2.5l0.6-0.6c0.7-0.7,1.8-0.7,2.5,0l3.5,3.5l3.5-3.5c0.7-0.7,1.8-0.7,2.5,0l0.6,0.6c0.7,0.7,0.7,1.8,0,2.5
	l-3.5,3.5L51.6,35.9z"/>
</svg>
