<svg id="icons" xmlns="http://www.w3.org/2000/svg" viewBox="0 0 64 64"><title>changa_camera</title><g id="_Group_" data-name="&lt;Group&gt;"><path id="_Path_" data-name="&lt;Path&gt;" d="M32,25A10.27,10.27,0,1,0,42.27,35.3,10.28,10.28,0,0,0,32,25Z"/><path id="_Compound_Path_" data-name="&lt;Compound Path&gt;" d="M59.56,15.83H45.29a7.26,7.26,0,0,0-7.2-6.6H25.9a7.26,7.26,0,0,0-7.2,6.6H12.59a2.49,2.49,0,0,0-2.48-2.4H8a2.49,2.49,0,0,0-2.48,2.4H4.44A4.45,4.45,0,0,0,0,20.26V50.33a4.45,4.45,0,0,0,4.44,4.44H59.56A4.45,4.45,0,0,0,64,50.33V20.26A4.45,4.45,0,0,0,59.56,15.83ZM9.06,20.24a2,2,0,1,1,2-2A2,2,0,0,1,9.06,20.24ZM32,49.26a14,14,0,1,1,14-14A14,14,0,0,1,32,49.26Z"/></g></svg>