<?xml version="1.0" encoding="utf-8"?>
<!-- Generator: Adobe Illustrator 21.0.2, SVG Export Plug-In . SVG Version: 6.00 Build 0)  -->
<svg version="1.1" id="icons" xmlns="http://www.w3.org/2000/svg" xmlns:xlink="http://www.w3.org/1999/xlink" x="0px" y="0px"
	 viewBox="0 0 64 64" style="enable-background:new 0 0 64 64;" xml:space="preserve">
<style type="text/css">
	.st0{stroke:#FFFFFF;stroke-width:0;stroke-linecap:round;stroke-linejoin:round;}
	.st1{fill:none;stroke:#000000;stroke-width:1.5;stroke-miterlimit:10;}
</style>
<g id="XMLID_496_">
	<g id="XMLID_498_">
		<g id="XMLID_499_">
			<path id="XMLID_30_" d="M59.6,21.3c0.5,0,0.9,0.4,0.9,0.9l0,5.4l0,1.5H62h0.5v5H62h-1.5v1.5v6.3c0,0.5-0.4,0.9-0.9,0.9H2.4
				c-0.5,0-0.9-0.4-0.9-0.9V22.2c0-0.5,0.4-0.9,0.9-0.9H59.6 M59.6,19.8H2.4c-1.3,0-2.4,1.1-2.4,2.4v19.6c0,1.3,1.1,2.4,2.4,2.4
				h57.3c1.3,0,2.4-1.1,2.4-2.4v-6.3h2v-8h-2l0-5.4C62,20.9,61,19.8,59.6,19.8L59.6,19.8z"/>
		</g>
	</g>
</g>
<rect id="XMLID_580_" x="1.5" y="20.9" width="42.5" height="22.2"/>
</svg>
