<?xml version="1.0" encoding="utf-8"?>
<!-- Generator: Adobe Illustrator 21.0.2, SVG Export Plug-In . SVG Version: 6.00 Build 0)  -->
<svg version="1.1" id="icons" xmlns="http://www.w3.org/2000/svg" xmlns:xlink="http://www.w3.org/1999/xlink" x="0px" y="0px"
	 viewBox="0 0 64 64" style="enable-background:new 0 0 64 64;" xml:space="preserve">
<style type="text/css">
	.st0{fill:none;stroke:#000000;stroke-miterlimit:10;}
	.st1{fill:none;}
	.st2{fill:none;stroke:#000000;stroke-width:1.5;stroke-miterlimit:10;}
</style>
<g id="XMLID_1117_">
	<path d="M32.3,62.2c-6.3-5.2-10.1-10-15-16c-3.6-4.4-6.7-8.7-9.9-13.4C5,29.2,2.5,25.6,1.1,21.6s-1.7-8.7,0.3-12.5
		c2.2-4.3,7-7,11.8-7C18,2,22.7,4.3,26,7.8s5.3,8.1,6.2,12.8c0.4-6.3,3.4-12.6,8.6-16.1s12.7-3.8,17.7,0.1
		c4.7,3.7,6.3,10.5,5.1,16.4c-1.2,5.9-5.4,10.6-9.1,15.3c-4,5.2-7,8.8-11.2,13.8C43.3,50.2,37.4,57.6,32.3,62.2z"/>
</g>
</svg>
