<svg id="icons" xmlns="http://www.w3.org/2000/svg" viewBox="0 0 64 64"><title>changa_github-circle-o</title><g id="_Group_" data-name="&lt;Group&gt;"><path d="M32,1.5A30.5,30.5,0,1,1,1.5,32,30.53,30.53,0,0,1,32,1.5M32,0A32,32,0,1,0,64,32,32,32,0,0,0,32,0Z"/></g><g id="_Group_2" data-name="&lt;Group&gt;"><path id="_Path_" data-name="&lt;Path&gt;" d="M28.07,20a8.45,8.45,0,0,0-6.78,8.26h0a8.44,8.44,0,0,0,8.42,8.42h6a8.44,8.44,0,0,0,8.42-8.42h0A8.45,8.45,0,0,0,37.28,20,24.1,24.1,0,0,0,28.07,20Z"/><path id="_Path_2" data-name="&lt;Path&gt;" d="M42.18,23.16,42,18.59a.39.39,0,0,0-.54-.37L37.53,20a.52.52,0,0,0,0,.91l3.83,2.63C41.77,23.76,42.2,23.56,42.18,23.16Z"/><path id="_Path_3" data-name="&lt;Path&gt;" d="M23.18,23.16l.2-4.57a.39.39,0,0,1,.54-.37L27.83,20a.52.52,0,0,1,0,.91L24,23.51C23.59,23.76,23.16,23.56,23.18,23.16Z"/><path id="_Path_4" data-name="&lt;Path&gt;" d="M28.39,44.63V39a4.31,4.31,0,0,1,4.3-4.3h0A4.31,4.31,0,0,1,37,39v5.63S32.69,47.3,28.39,44.63Z"/><path id="_Path_5" data-name="&lt;Path&gt;" d="M20.34,35.39a2.91,2.91,0,0,1,2.24.8,4.83,4.83,0,0,1,.93,1.2,4.35,4.35,0,0,0,1.79,1.43,4.37,4.37,0,0,0,2.45,0s.51-.15.58-.26L29,37.35v3.22l-.22.56-.42-.1s-2.7.33-3.81-.21a3.68,3.68,0,0,1-1.79-1.46s-.68-1.42-.85-1.66a4.73,4.73,0,0,0-1.42-1.39s-.6-.37-.54-.71C19.92,35.6,20,35.41,20.34,35.39Z"/></g></svg>