<?xml version="1.0" encoding="utf-8"?>
<!-- Generator: Adobe Illustrator 21.0.2, SVG Export Plug-In . SVG Version: 6.00 Build 0)  -->
<svg version="1.1" id="icons" xmlns="http://www.w3.org/2000/svg" xmlns:xlink="http://www.w3.org/1999/xlink" x="0px" y="0px"
	 viewBox="0 0 64 64" style="enable-background:new 0 0 64 64;" xml:space="preserve">
<style type="text/css">
	.st0{fill:none;stroke:#000000;stroke-miterlimit:10;}
	.st1{fill:none;}
	.st2{fill:none;stroke:#000000;stroke-width:1.5;stroke-miterlimit:10;}
</style>
<g id="XMLID_1015_">
	<path id="XMLID_467_" d="M3.7,64c18.8,0,37.7,0,56.5,0c1.1,0,1.8-0.4,2.1-1.3l0-0.9c-0.1-0.2-0.1-0.4-0.1-0.7
		c-0.6-4.2-2-8.2-4.2-12c-1.4-2.4-3.1-4.6-5.1-6.6c-1.8-1.8-3.8-3.4-6.2-4.8c-0.1,0-0.1-0.1-0.1-0.1c0,0-0.1,0.1-0.1,0.1
		c-1.8,1.8-3.8,3.5-6.1,4.9c-2.9,1.8-5.4,2.5-8.8,2.5c-3.6,0-7.7-2.3-11.2-4.8c-0.9-0.6-1.7-1.4-2.5-2.1l-0.6-0.6
		c-2.5,1.4-4.8,3.2-6.8,5.3c-2,2.1-3.7,4.4-5.1,7c-1.5,2.8-2.6,5.8-3.3,9C2,59.7,1.9,60.4,1.8,61l-0.2,0.9v0.8C2,63.6,2.6,64,3.7,64
		"/>
	<g id="XMLID_1017_">
		<path d="M17.5,7c4.4-6,9.7-6.8,15.4-7s11.7,2.9,14,8.3c1.1,2.7,1.4,5.6,1.4,8.6c0,4.4-0.5,8.8-2,12.8c-1.5,4-4.2,7.7-7.9,9.8
			s-8.4,2.3-12.1,0.4c-2.7-1.4-4.8-3.2-6.2-5.2c-2.8-4.1-4.1-8.9-4.4-13.8C15.5,20.8,14,11.4,17.5,7z"/>
	</g>
</g>
</svg>
