<?xml version="1.0" encoding="utf-8"?>
<!-- Generator: Adobe Illustrator 21.0.2, SVG Export Plug-In . SVG Version: 6.00 Build 0)  -->
<svg version="1.1" id="icons" xmlns="http://www.w3.org/2000/svg" xmlns:xlink="http://www.w3.org/1999/xlink" x="0px" y="0px"
	 viewBox="0 0 64 64" style="enable-background:new 0 0 64 64;" xml:space="preserve">
<style type="text/css">
	.st0{stroke:#FFFFFF;stroke-width:0;stroke-linecap:round;stroke-linejoin:round;}
	.st1{fill:none;stroke:#000000;stroke-width:1.5;stroke-miterlimit:10;}
</style>
<g id="XMLID_302_">
	<path id="XMLID_304_" class="st0" d="M36.9,64c0-9.7,0-19.4,0-29.1c0.3,0,0.6,0,0.8,0c2.8,0,5.5,0,8.3,0c0.6,0,0.7-0.2,0.8-0.7
		c0.4-3.3,0.8-6.6,1.3-9.9c0.1-0.6,0-0.7-0.6-0.7c-3.3,0-6.6,0-9.9,0c-0.5,0-0.6-0.2-0.6-0.6c0-2.2,0-4.3,0-6.5
		c0-0.8,0.1-1.6,0.2-2.3c0.3-1.4,1.1-2.5,2.6-2.9c0.7-0.2,1.4-0.3,2.1-0.4c2.1-0.1,4.1-0.1,6.2-0.1c0.4,0,0.6-0.1,0.6-0.5
		c0-3.1,0-6.1,0-9.2c0-0.3-0.1-0.5-0.4-0.5c-3.7-0.3-7.3-0.7-11-0.2c-2.5,0.3-4.8,1.1-6.8,2.7c-3.4,2.7-4.9,6.3-5.1,10.5
		c-0.1,3-0.1,6.1-0.1,9.1c0,0.8,0,0.8-0.8,0.8c-2.8,0-5.5,0-8.3,0c-0.2,0-0.5,0-0.7,0c0,3.8,0,7.6,0,11.4c3.3,0,6.5,0,9.8,0
		c0,0.3,0,0.5,0,0.7c0,9.3,0,18.5,0,27.8c0,0.2,0,0.4-0.1,0.7"/>
</g>
</svg>
