<?xml version="1.0" encoding="utf-8"?>
<!-- Generator: Adobe Illustrator 21.0.2, SVG Export Plug-In . SVG Version: 6.00 Build 0)  -->
<svg version="1.1" id="icons" xmlns="http://www.w3.org/2000/svg" xmlns:xlink="http://www.w3.org/1999/xlink" x="0px" y="0px"
	 viewBox="0 0 64 64" style="enable-background:new 0 0 64 64;" xml:space="preserve">
<style type="text/css">
	.st0{stroke:#FFFFFF;stroke-width:0;stroke-linecap:round;stroke-linejoin:round;}
	.st1{fill:none;stroke:#000000;stroke-width:1.5;stroke-miterlimit:10;}
</style>
<path d="M58.1,0H5.9C2.6,0,0,2.6,0,5.9v52.3C0,61.4,2.6,64,5.9,64h52.3c3.2,0,5.9-2.6,5.9-5.9V5.9C64,2.6,61.4,0,58.1,0z M48.9,29.1
	c-1.3,0-2.7,0-4,0c-0.5,0-0.9,0.1-1.3,0.2c-0.9,0.3-1.5,0.9-1.7,1.9c-0.1,0.5-0.1,1-0.1,1.5c0,1.4,0,2.8,0,4.2
	c0,0.3,0.1,0.4,0.4,0.4c2.2,0,4.3,0,6.5,0c0.4,0,0.5,0.1,0.4,0.5c-0.3,2.2-0.6,4.3-0.8,6.5c0,0.4-0.2,0.5-0.5,0.5
	c-1.8,0-3.6,0-5.4,0c-0.2,0-0.3,0-0.5,0c0,6.4,0,12.7,0,19c-2.6,0-5.1,0-7.7,0c0-0.1,0-0.3,0-0.4c0-6,0-12.1,0-18.1
	c0-0.1,0-0.3,0-0.4c-2.1,0-4.2,0-6.4,0c0-2.5,0-4.9,0-7.4c0.2,0,0.3,0,0.5,0c1.8,0,3.6,0,5.4,0c0.5,0,0.5,0,0.5-0.5c0-2,0-4,0.1-6
	c0.1-2.7,1.1-5.1,3.3-6.9c1.3-1,2.8-1.6,4.5-1.8c2.4-0.3,4.8-0.1,7.2,0.1c0.2,0,0.3,0.1,0.3,0.3c0,2,0,4,0,6
	C49.3,29.1,49.1,29.1,48.9,29.1z"/>
</svg>
