<?xml version="1.0" encoding="utf-8"?>
<!-- Generator: Adobe Illustrator 21.0.2, SVG Export Plug-In . SVG Version: 6.00 Build 0)  -->
<svg version="1.1" id="icons" xmlns="http://www.w3.org/2000/svg" xmlns:xlink="http://www.w3.org/1999/xlink" x="0px" y="0px"
	 viewBox="0 0 64 64" style="enable-background:new 0 0 64 64;" xml:space="preserve">
<style type="text/css">
	.st0{fill:none;stroke:#000000;stroke-miterlimit:10;}
	.st1{fill:none;}
	.st2{fill:none;stroke:#000000;stroke-width:1.5;stroke-miterlimit:10;}
</style>
<g id="XMLID_537_">
	<path id="XMLID_538_" d="M32.3,4.1c-1.3,0-2.4,0-3.4,0.1c-1.9,0.1-3.7,0.4-5.6,0.7c-3.1,0.6-6.1,1.5-8.9,2.8
		c-4.8,2.1-9.2,4.9-13,8.5c-1.1,1-1.7,2.2-1.4,3.7c0.3,1.4,1.1,2.4,2.4,3c1.1,0.4,2.2,0.4,3.2-0.2c0.6-0.3,1-0.7,1.5-1.2
		c3.3-3.1,7.1-5.4,11.3-7.1c3.3-1.3,6.7-2.1,10.2-2.4c4.9-0.4,9.7,0.1,14.4,1.6c2.8,0.9,5.4,2.1,7.9,3.6c2.2,1.3,4.2,2.9,6.1,4.6
		c0.4,0.4,0.8,0.7,1.4,1c1.3,0.6,2.5,0.5,3.7-0.2c1.2-0.7,1.8-1.8,1.8-3.1c0.1-1.3-0.5-2.3-1.4-3.2c-1.4-1.3-2.8-2.5-4.3-3.6
		c-5.5-4-11.5-6.6-18.2-7.8C37.4,4.4,34.7,4.1,32.3,4.1z M31.7,17.2c-3.9,0-7.9,0.8-11.8,2.4c-3.7,1.5-7,3.8-10,6.6
		c-1.5,1.5-1.7,3.4-0.8,4.9c1.2,2.1,3.9,2.6,5.8,1.1c0.9-0.7,1.7-1.5,2.6-2.2c1.6-1.2,3.4-2.3,5.3-3.1c2.2-0.9,4.4-1.5,6.8-1.7
		c3.1-0.3,6.2,0,9.2,0.9c2.1,0.7,4.1,1.6,6,2.8c1.3,0.9,2.5,1.9,3.6,2.9c1,1,2.2,1.4,3.7,1.1c1.3-0.3,2.3-1.1,2.8-2.3
		c0.6-1.6,0.3-3.1-1-4.4c-0.9-0.9-1.8-1.7-2.8-2.4c-3-2.3-6.3-4-9.9-5.2C38.3,17.7,35.2,17.2,31.7,17.2z M46.6,39.1
		c0-0.9-0.3-2-0.9-2.6c-2.7-3-6.1-5-10.1-5.8c-2.4-0.5-4.7-0.5-7.1,0c-2.4,0.5-4.7,1.4-6.7,2.8c-1.4,1-2.7,2-3.7,3.4
		c-0.5,0.7-0.7,1.5-0.6,2.3c0.1,0.9,0.4,1.8,1.1,2.5c1,1.1,2.3,1.4,3.7,1.1c0.9-0.2,1.6-0.7,2.2-1.3c1.6-1.6,3.5-2.7,5.7-3.1
		c2.2-0.4,4.4-0.1,6.4,0.9c1.2,0.6,2.2,1.4,3.2,2.3c0.8,0.9,1.9,1.4,3.1,1.3C44.9,42.8,46.5,41.2,46.6,39.1z M31.9,59.9
		c1.9,0,3.5-0.4,4.9-1.3c4.5-2.7,5.1-8.7,1.3-12.2c-3.3-3-8.5-3-11.8,0c-2.9,2.6-3.4,6.9-1.1,10C26.9,58.8,29.3,59.8,31.9,59.9z"/>
</g>
</svg>
