<svg id="icons" xmlns="http://www.w3.org/2000/svg" viewBox="0 0 64 64"><title>changa_web-open</title><path id="_Compound_Path_" data-name="&lt;Compound Path&gt;" d="M32-.1A32.1,32.1,0,1,0,64.1,32,32.1,32.1,0,0,0,32-.1ZM56.67,17.76a28.28,28.28,0,0,1,3.52,10.09H47.44a43.46,43.46,0,0,0-2.39-10.09Zm-2.92-4.15H43.33a60.26,60.26,0,0,0-5.66-9.54A28.51,28.51,0,0,1,53.75,13.62ZM44.64,32a37,37,0,0,1-1.25,10.09H21.58A37,37,0,0,1,20.36,32Zm-24-4.15a41.41,41.41,0,0,1,2.67-10.09H41.7a41.34,41.34,0,0,1,2.65,10.09ZM32,3.51c.43,0,.86,0,1.29,0a61.58,61.58,0,0,1,6.53,10.08H25.23A61.82,61.82,0,0,1,31.81,3.51Zm-4.44.35a60.68,60.68,0,0,0-5.85,9.76H10.25A28.49,28.49,0,0,1,27.56,3.85ZM7.33,17.76H20a43.53,43.53,0,0,0-2.41,10.09H3.81A28.28,28.28,0,0,1,7.33,17.76ZM3.51,32H17.31A40.52,40.52,0,0,0,18.5,42.09H5.36A28.35,28.35,0,0,1,3.51,32ZM7.33,46.24H19.74a48.73,48.73,0,0,0,7.79,13.91A28.56,28.56,0,0,1,7.33,46.24ZM32,60.49h0a43.7,43.7,0,0,1-9.07-14.26H42a43.63,43.63,0,0,1-9.11,14.24Zm5.54-.54a48.72,48.72,0,0,0,7.69-13.71H56.67A28.57,28.57,0,0,1,37.54,59.95Zm8.94-17.86A40.55,40.55,0,0,0,47.69,32H60.49a28.35,28.35,0,0,1-1.85,10.09Z"/></svg>