<svg id="icons" xmlns="http://www.w3.org/2000/svg" viewBox="0 0 64 64"><title>changa_twitter-square</title><path d="M58.13,0H5.88A5.88,5.88,0,0,0,0,5.88V58.13A5.88,5.88,0,0,0,5.88,64H58.13A5.88,5.88,0,0,0,64,58.13V5.88A5.87,5.87,0,0,0,58.13,0ZM49.61,21.19a14.69,14.69,0,0,1-3.37,3.46.24.24,0,0,0-.11.23,19.73,19.73,0,0,1-.47,5.17,21.38,21.38,0,0,1-6,10.83,19.2,19.2,0,0,1-5.27,3.63,21.64,21.64,0,0,1-12.67,1.6,20.61,20.61,0,0,1-7.34-2.84l-.11-.08a14.66,14.66,0,0,0,10.71-3,7.41,7.41,0,0,1-4.18-1.46,7.2,7.2,0,0,1-2.58-3.57c.55,0,1.09.07,1.63.07A5.14,5.14,0,0,0,21.41,35a7.28,7.28,0,0,1-5.76-7.18c.51.19,1,.4,1.56.58a5.4,5.4,0,0,0,1.66.25,7.32,7.32,0,0,1-3-4.43,7.22,7.22,0,0,1,.78-5.28,20.89,20.89,0,0,0,15.06,7.63c0-.1,0-.15,0-.21a7.3,7.3,0,0,1,5.69-8.62c.36-.08.73-.11,1.09-.16h.72c.36,0,.71.08,1.06.15A7.2,7.2,0,0,1,44,19.75a.23.23,0,0,0,.24.08A14.76,14.76,0,0,0,48,18.54l.82-.44a7.28,7.28,0,0,1-1.23,2.28,7.93,7.93,0,0,1-1.91,1.71A14.06,14.06,0,0,0,49.75,21Z"/></svg>