<?xml version="1.0" encoding="utf-8"?>
<!-- Generator: Adobe Illustrator 21.0.2, SVG Export Plug-In . SVG Version: 6.00 Build 0)  -->
<svg version="1.1" id="icons" xmlns="http://www.w3.org/2000/svg" xmlns:xlink="http://www.w3.org/1999/xlink" x="0px" y="0px"
	 viewBox="0 0 64 64" style="enable-background:new 0 0 64 64;" xml:space="preserve">
<style type="text/css">
	.st0{fill:none;stroke:#000000;stroke-miterlimit:10;}
	.st1{fill:none;}
	.st2{fill:none;stroke:#000000;stroke-width:1.5;stroke-miterlimit:10;}
</style>
<g>
	<path d="M32,0C14.3,0,0,14.3,0,32s14.3,32,32,32s32-14.3,32-32S49.7,0,32,0z M5.9,32c0-14.4,11.7-26.1,26.1-26.1
		c5.7,0,11,1.9,15.3,5L10.9,47.3C7.8,43,5.9,37.7,5.9,32z M32.1,58.1c-6.1,0-11.8-2.1-16.3-5.7l36.7-36.7c3.6,4.5,5.7,10.1,5.7,16.3
		C58.2,46.4,46.5,58.1,32.1,58.1z"/>
</g>
</svg>
