<?xml version="1.0" encoding="utf-8"?>
<!-- Generator: Adobe Illustrator 21.0.2, SVG Export Plug-In . SVG Version: 6.00 Build 0)  -->
<svg version="1.1" id="icons" xmlns="http://www.w3.org/2000/svg" xmlns:xlink="http://www.w3.org/1999/xlink" x="0px" y="0px"
	 viewBox="0 0 64 64" style="enable-background:new 0 0 64 64;" xml:space="preserve">
<style type="text/css">
	.st0{fill:none;stroke:#000000;stroke-miterlimit:10;}
	.st1{fill:none;}
	.st2{fill:none;stroke:#000000;stroke-width:1.5;stroke-miterlimit:10;}
</style>
<g id="XMLID_682_">
	<g id="XMLID_683_">
		<path id="XMLID_684_" class="st1" d="M32,12.8c-9.1,0-16.5,7.4-16.5,16.5c0,4.3,1.7,8.2,4.4,11.1l3.5-5.1c-1.2-1.7-1.9-3.8-1.9-6
			c0-5.8,4.7-10.6,10.6-10.6s10.6,4.7,10.6,10.6c0,2.2-0.7,4.3-1.9,6l3.5,5.1c2.7-2.9,4.4-6.8,4.4-11.1C48.5,20.2,41.1,12.8,32,12.8
			z"/>
		<path id="XMLID_685_" class="st1" d="M57.8,29.3C57.8,15,46.2,3.5,32,3.5S6.2,15,6.2,29.3c0,7.5,3.2,14.3,8.3,19l3.3-4.9
			c-3.6-3.6-5.8-8.6-5.8-14.1c0-11,9-20,20-20s20,9,20,20c0,5.5-2.2,10.5-5.8,14.1l3.3,4.9C54.6,43.5,57.8,36.7,57.8,29.3z"/>
		<path id="XMLID_686_" d="M24.9,29.3c0-3.9,3.2-7.1,7.1-7.1s7.1,3.2,7.1,7.1c0,1-0.2,2-0.6,2.8l2.2,3.2c1.2-1.7,1.9-3.8,1.9-6
			c0-5.8-4.7-10.6-10.6-10.6s-10.6,4.7-10.6,10.6c0,2.2,0.7,4.3,1.9,6l2.2-3.2C25.1,31.2,24.9,30.3,24.9,29.3z"/>
		<path id="XMLID_687_" d="M15.5,29.3c0-9.1,7.4-16.5,16.5-16.5s16.5,7.4,16.5,16.5c0,4.3-1.7,8.2-4.4,11.1l2,2.9
			c3.6-3.6,5.8-8.6,5.8-14.1c0-11-9-20-20-20s-20,9-20,20c0,5.5,2.2,10.5,5.8,14.1l2-2.9C17.2,37.4,15.5,33.5,15.5,29.3z"/>
		<path id="XMLID_688_" d="M6.2,29.3C6.2,15,17.8,3.5,32,3.5S57.8,15,57.8,29.3c0,7.5-3.2,14.3-8.3,19l2,2.9
			c6-5.4,9.8-13.2,9.8-21.9C61.3,13.1,48.1,0,32,0S2.7,13.1,2.7,29.3c0,8.7,3.8,16.5,9.8,21.9l2-2.9C9.4,43.5,6.2,36.7,6.2,29.3z"/>
	</g>
	<path id="XMLID_2122_" d="M35.3,64V32.5c0-1.8-1.5-3.3-3.3-3.3h0c-1.8,0-3.3,1.5-3.3,3.3V64H35.3z"/>
</g>
</svg>
