<?xml version="1.0" encoding="utf-8"?>
<!-- Generator: Adobe Illustrator 21.0.2, SVG Export Plug-In . SVG Version: 6.00 Build 0)  -->
<svg version="1.1" id="icons" xmlns="http://www.w3.org/2000/svg" xmlns:xlink="http://www.w3.org/1999/xlink" x="0px" y="0px"
	 viewBox="0 0 64 64" style="enable-background:new 0 0 64 64;" xml:space="preserve">
<style type="text/css">
	.st0{fill:none;stroke:#000000;stroke-miterlimit:10;}
	.st1{fill:none;}
	.st2{fill:none;stroke:#000000;stroke-width:1.5;stroke-miterlimit:10;}
</style>
<g id="XMLID_452_">
	<path d="M32,1.5c16.8,0,30.5,13.7,30.5,30.5S48.8,62.5,32,62.5S1.5,48.8,1.5,32S15.2,1.5,32,1.5 M32,0C14.3,0,0,14.3,0,32
		s14.3,32,32,32s32-14.3,32-32S49.7,0,32,0L32,0z"/>
</g>
<g id="XMLID_631_">
	<path id="XMLID_632_" d="M28.7,19.7c-2.1-2.6-4.3-5.3-6.4-7.9c-0.7-0.8-1.5-0.9-2.3-0.3c-0.9,0.7-1.7,1.4-2.6,2.1
		c-0.1,0.1-0.2,0.1-0.3,0.2c2.9,3.6,5.7,7.1,8.6,10.7c0.9-0.7,1.8-1.5,2.7-2.2C29.4,21.5,29.5,20.7,28.7,19.7z"/>
	<path id="XMLID_633_" d="M46.5,50.9c1-0.8,1.9-1.5,2.8-2.2c0.9-0.7,1-1.5,0.3-2.5c-2-2.6-4.1-5.2-6.2-7.8c-0.7-0.9-1.5-1-2.4-0.3
		c-0.5,0.4-1,0.8-1.6,1.2c-0.4,0.3-0.8,0.6-1.2,1C41,43.9,43.7,47.4,46.5,50.9z"/>
	<path id="XMLID_634_" d="M13.9,20.7c-0.1,3.1,0.8,6.1,2,8.9c1.2,2.8,2.8,5.4,4.6,7.9c2.8,3.8,5.8,7.4,9.5,10.4
		c2.4,2,5.1,3.6,8.1,4.4c1.9,0.5,3.8,0.7,5.7,0.3c0.5-0.1,1.1-0.3,1.5-0.7c-2.8-3.5-5.5-7-8.3-10.4c-0.8,0.6-1.6,0.5-2.4,0
		c-0.3-0.2-0.6-0.4-0.9-0.7c-2.7-2.4-5.1-5.1-7.2-8c-0.9-1.3-1.9-2.6-2.5-4.1c-0.3-0.7-0.6-1.3-0.3-2.1c0.1-0.4,0.4-0.8,0.6-1.2
		c-2.8-3.5-5.6-7-8.5-10.6c-0.1,0.1-0.2,0.2-0.2,0.3c-0.1,0.1-0.2,0.3-0.3,0.4C14.3,17.1,14,18.8,13.9,20.7z"/>
</g>
</svg>
