<svg id="icons" xmlns="http://www.w3.org/2000/svg" viewBox="0 0 64 64"><title>changa_message-commenting</title><g id="_Group_" data-name="&lt;Group&gt;"><path d="M34.59,3.81c3.39,0,15,.57,22.15,7.9,4,4.16,6,9.89,5.8,17v.13c.05,1,1,24.56-24.84,26.75,0,0-2.39.19-5.3.19a32,32,0,0,1-8-.78l-.77-.22-.61.52a24.74,24.74,0,0,1-7.83,4.29c1.4-1.79,2.59-4.13,2-6.57L17,52.36l-.67-.31C16.2,52,2.16,45.39,1.67,30.2v-.12l0-.12a20.66,20.66,0,0,1,4.09-15.4C10.89,8,20.29,4.41,33.68,3.83c0,0,.35,0,.91,0m0-1.5c-.64,0-1,0-1,0C-4.95,4,.17,30.25.17,30.25.7,46.54,15.72,53.42,15.72,53.42c1,4-4.76,8.25-4.76,8.25l.7,0c6.22,0,12.31-5.21,12.31-5.21a34.15,34.15,0,0,0,8.43.83c3,0,5.42-.2,5.42-.2C65.53,54.78,64,28.79,64,28.79,64.74,3.65,39.9,2.31,34.59,2.31Z"/></g><g id="_Group_2" data-name="&lt;Group&gt;"><path d="M30.35,14.6h.57c8.32.36,14.16,2.58,17.35,6.59a12.71,12.71,0,0,1,2.52,9.4l0,.12v.12c-.3,9.29-8.67,13.27-9,13.43l-.67.31-.17.71a4.71,4.71,0,0,0,.47,3.22,16.22,16.22,0,0,1-3.29-2.06l-.61-.52-.77.22a19.86,19.86,0,0,1-5,.47c-1.82,0-3.32-.12-3.33-.12C12.48,45.15,13.07,30.65,13.1,30v-.13C13,25.52,14.17,22,16.64,19.46,21,14.95,28.24,14.6,30.35,14.6m0-1.5C27,13.1,11.15,13.95,11.6,30c0,0-1,16.55,16.69,18,0,0,1.54.13,3.45.13a21.74,21.74,0,0,0,5.37-.53S41,50.9,44.95,50.9h.45s-3.64-2.69-3-5.25c0,0,9.56-4.38,9.9-14.75,0,0,3.26-16.71-21.28-17.78Z"/></g><g id="_Group_3" data-name="&lt;Group&gt;"><path d="M41.47,29.56A2.44,2.44,0,1,1,39,32a2.45,2.45,0,0,1,2.44-2.44m-9.47,0A2.44,2.44,0,1,1,29.56,32,2.45,2.45,0,0,1,32,29.56m-9.47,0A2.44,2.44,0,1,1,20.08,32a2.45,2.45,0,0,1,2.44-2.44m18.94-1A3.44,3.44,0,1,0,44.92,32a3.44,3.44,0,0,0-3.44-3.44Zm-9.47,0A3.44,3.44,0,1,0,35.44,32,3.44,3.44,0,0,0,32,28.56Zm-9.47,0A3.44,3.44,0,1,0,26,32a3.44,3.44,0,0,0-3.44-3.44Z"/></g></svg>