<svg id="icons" xmlns="http://www.w3.org/2000/svg" viewBox="0 0 64 64"><title>changa_sound-volume-low</title><g id="_Group_" data-name="&lt;Group&gt;"><g id="_Group_2" data-name="&lt;Group&gt;"><path id="_Path_" data-name="&lt;Path&gt;" d="M53.21,49.41a4.21,4.21,0,0,1-3.88-4.31,4.83,4.83,0,0,1,1.34-3.56A12.59,12.59,0,0,0,53,37.91a13.26,13.26,0,0,0,.88-7.4,12.36,12.36,0,0,0-3.15-6.56,5,5,0,0,1-1.32-2.5,4.74,4.74,0,0,1,1.13-4.27,3.63,3.63,0,0,1,2.52-1.24,3.26,3.26,0,0,1,2.34.72,16.19,16.19,0,0,1,3.47,4.28,22.06,22.06,0,0,1,2.82,7.71,23.39,23.39,0,0,1,0,8.11,21.6,21.6,0,0,1-5.86,11.61A3.7,3.7,0,0,1,53.21,49.41Z"/></g><path id="_Path_2" data-name="&lt;Path&gt;" d="M44.66.29a1.83,1.83,0,0,0-1.89.12L19.42,16.65l-13.28.08a4.58,4.58,0,0,0-4.22,2.89V44.07a4.58,4.58,0,0,0,4.38,3.31l13.06-.08L42.77,63.59a1.83,1.83,0,0,0,2.88-1.5V1.91A1.83,1.83,0,0,0,44.66.29Z"/></g></svg>