<svg id="icons" xmlns="http://www.w3.org/2000/svg" viewBox="0 0 64 64"><title>changa_facebook-circle</title><path d="M32,0A32,32,0,1,0,64,32,32,32,0,0,0,32,0ZM42.43,18.09c-1.35,0-2.69,0-4,0a5.18,5.18,0,0,0-1.35.23,2.33,2.33,0,0,0-1.68,1.89,8.51,8.51,0,0,0-.14,1.52c0,1.41,0,2.82,0,4.24,0,.32.08.42.41.42,2.16,0,4.31,0,6.47,0,.38,0,.46.12.41.48q-.44,3.24-.84,6.49c0,.36-.15.48-.53.48-1.8,0-3.61,0-5.41,0h-.52v19H27.53c0-.14,0-.28,0-.43q0-9.06,0-18.12v-.45H21.19V26.42h5.87c.51,0,.5,0,.51-.52,0-2,0-4,.05-6a8.84,8.84,0,0,1,3.3-6.87,8.68,8.68,0,0,1,4.45-1.78,35,35,0,0,1,7.16.14c.23,0,.28.12.28.32,0,2,0,4,0,6C42.82,18,42.68,18.09,42.43,18.09Z"/></svg>