<?xml version="1.0" encoding="utf-8"?>
<!-- Generator: Adobe Illustrator 21.0.2, SVG Export Plug-In . SVG Version: 6.00 Build 0)  -->
<svg version="1.1" id="icons" xmlns="http://www.w3.org/2000/svg" xmlns:xlink="http://www.w3.org/1999/xlink" x="0px" y="0px"
	 viewBox="0 0 64 64" style="enable-background:new 0 0 64 64;" xml:space="preserve">
<style type="text/css">
	.st0{stroke:#FFFFFF;stroke-width:0;stroke-linecap:round;stroke-linejoin:round;}
	.st1{fill:none;stroke:#000000;stroke-width:1.5;stroke-miterlimit:10;}
</style>
<g id="XMLID_383_">
	<path d="M32,1.5c16.8,0,30.5,13.7,30.5,30.5S48.8,62.5,32,62.5S1.5,48.8,1.5,32S15.2,1.5,32,1.5 M32,0C14.3,0,0,14.3,0,32
		s14.3,32,32,32s32-14.3,32-32S49.7,0,32,0L32,0z"/>
</g>
<path id="XMLID_412_" d="M45.4,15.7H23.5c0.1,0,0.1,0,0.2,0c-0.1,0-0.2,0-0.3,0v6.4c0,0.2-0.2,0.4-0.4,0.4s-0.4-0.2-0.4-0.4v-6.4
	h-0.8v6.4c0,0.2-0.2,0.4-0.4,0.4c-0.2,0-0.4-0.2-0.4-0.4v-6.4h-0.2h-0.6v6.4c0,0.2-0.2,0.4-0.4,0.4s-0.4-0.2-0.4-0.4v-6.4h-0.1H19
	c0,0-0.1,0-0.1,0c0,0,0,0,0.1,0h-0.2c-1.7,0-3,1.3-3,3v26.6c0,1.7,1.3,3,3,3h26.6c1.7,0,3-1.3,3-3V18.7C48.4,17.1,47,15.7,45.4,15.7
	z M32.1,24.6c4.1,0,7.4,3.3,7.4,7.4s-3.3,7.4-7.4,7.4s-7.4-3.3-7.4-7.4S28,24.6,32.1,24.6z M45.8,43.9c0,1.3-1,2.3-2.3,2.3H20.7
	c-1.3,0-2.3-1-2.3-2.3V29.3c0-1.3,1-2.3,2.3-2.3h2.2c-0.8,1.5-1.3,3.2-1.3,5c0,5.8,4.7,10.5,10.5,10.5S42.6,37.8,42.6,32
	c0-1.8-0.5-3.5-1.3-5h2.2c1.3,0,2.3,1,2.3,2.3V43.9z M45.8,23.5c0,0.6-0.5,1.1-1.1,1.1h-4.3c-0.6,0-1.1-0.5-1.1-1.1v-4.3
	c0-0.6,0.5-1.1,1.1-1.1h4.3c0.6,0,1.1,0.5,1.1,1.1V23.5z"/>
</svg>
