<svg id="icons" xmlns="http://www.w3.org/2000/svg" viewBox="0 0 64 64"><title>changa_female-male</title><path id="_Compound_Path_" data-name="&lt;Compound Path&gt;" d="M57.49,0H45.81v5.7h6.63L41.25,16.85a14.2,14.2,0,0,0-8-2.45c-.29,0-.58,0-.87,0A16.45,16.45,0,1,0,13.12,36.83V45H5.18v7.93h7.94V64h7.93V52.91h8.3V45h-8.3V36.92l.48-.13A14.26,14.26,0,0,0,45.85,22L57.49,10.35v7h5.7V0Zm-28.1,21a12.12,12.12,0,0,1-6.25,10.6A10.48,10.48,0,0,1,29.22,19,12.15,12.15,0,0,1,29.39,20.92ZM17.26,33A12.13,12.13,0,1,1,28,15.39a14.25,14.25,0,0,0-8.44,17.42A12.17,12.17,0,0,1,17.26,33Zm16,6.13a10.49,10.49,0,0,1-8.12-3.83,16.28,16.28,0,0,0,8.33-17.19,10.51,10.51,0,0,1-.21,21Z"/></svg>