<?xml version="1.0" encoding="utf-8"?>
<!-- Generator: Adobe Illustrator 21.0.2, SVG Export Plug-In . SVG Version: 6.00 Build 0)  -->
<svg version="1.1" id="icons" xmlns="http://www.w3.org/2000/svg" xmlns:xlink="http://www.w3.org/1999/xlink" x="0px" y="0px"
	 viewBox="0 0 64 64" style="enable-background:new 0 0 64 64;" xml:space="preserve">
<style type="text/css">
	.st0{stroke:#FFFFFF;stroke-width:0;stroke-linecap:round;stroke-linejoin:round;}
	.st1{fill:none;stroke:#000000;stroke-width:1.5;stroke-miterlimit:10;}
</style>
<g id="XMLID_138_">
	<path id="XMLID_1235_" d="M19.7,56.6l-7,7c-0.4,0.4-1,0.4-1.4,0l-2.9-2.9c-0.4-0.4-0.4-1,0-1.4l7-7c0.4-0.4,1-0.4,1.4,0l2.9,2.9
		C20.1,55.6,20.1,56.2,19.7,56.6z"/>
	<path id="XMLID_1234_" d="M44.2,56.5l7.1,7.1c0.4,0.4,1,0.4,1.4,0l2.9-2.9c0.4-0.4,0.4-1,0-1.4l-7.1-7.1c-0.4-0.4-1-0.4-1.4,0
		l-2.9,2.9C43.8,55.5,43.8,56.1,44.2,56.5z"/>
	<g id="XMLID_140_">
		<g id="XMLID_4280_">
			<path d="M32,1.5c16.8,0,30.5,13.7,30.5,30.5S48.8,62.5,32,62.5S1.5,48.8,1.5,32S15.2,1.5,32,1.5 M32,0C14.4,0,0,14.4,0,32
				s14.4,32,32,32s32-14.4,32-32S49.6,0,32,0L32,0z"/>
		</g>
		<circle id="XMLID_4276_" cx="32" cy="4.1" r="0.8"/>
		<circle id="XMLID_4275_" cx="32" cy="59" r="0.8"/>
		<circle id="XMLID_4274_" cx="3.6" cy="32" r="0.8"/>
		<circle id="XMLID_4273_" cx="59.6" cy="32" r="0.8"/>
		<g id="XMLID_139_">
			<circle cx="31.7" cy="35.2" r="4.1"/>
		</g>
		<path d="M3.6,17.2c4-7.7,11-13.5,19.5-16c-3.3-2-8.9-1.4-13.8,1.9c-6,4-8.8,10.5-6.2,14.4L3.6,17.2z"/>
		<path d="M60.4,17.2l0.5,0.4c2.6-3.9-0.2-10.4-6.2-14.4c-4.9-3.3-10.5-3.9-13.8-1.9C49.4,3.7,56.4,9.6,60.4,17.2z"/>
		<g>
			<path d="M31.7,29.6c0.4,0,0.7,0,1,0.1c0-0.3,0-0.6,0-0.9c0-2.2,0-4.4,0-6.7c-0.1-4.4-0.3-8.9-0.7-13.3c-0.5,4.4-0.8,8.9-1,13.3
				c-0.1,2.2-0.2,4.4-0.2,6.7c0,0.3,0,0.6,0,0.9C31.1,29.7,31.4,29.6,31.7,29.6z"/>
			<path d="M42.3,45.3c-1.1-1.2-2.1-2.4-3.2-3.6c-1-1-2-2.1-3-3.1c-0.4,0.5-0.8,0.9-1.3,1.2c1.1,1,2.1,2,3.2,2.9
				c1.2,1.1,2.4,2.1,3.6,3.2c1.2,1,2.5,2.1,3.7,3.1C44.4,47.7,43.3,46.5,42.3,45.3z"/>
		</g>
	</g>
</g>
</svg>
