<svg id="icons" xmlns="http://www.w3.org/2000/svg" viewBox="0 0 64 64"><title>changa_upload-cloud</title><path id="_Compound_Path_" data-name="&lt;Compound Path&gt;" d="M63.51,38.31A11.87,11.87,0,0,0,53,30.13c-.51,0-.68-.17-.67-.7a15.71,15.71,0,0,0-.14-2.38C50.39,14,36.56,7.29,25,13.29a17.16,17.16,0,0,0-8.26,9.93c-.17.48-.33.64-.88.58a13,13,0,0,0-4,.18A14.54,14.54,0,0,0,.09,40.05a14.31,14.31,0,0,0,14,12.88c6.43,0,12.91,0,18.95,0h0c7,0,13.11,0,19.49,0A11.37,11.37,0,0,0,63.51,38.31ZM38,36.63V47a1.18,1.18,0,0,1-1.18,1.18H29.91A1.18,1.18,0,0,1,28.73,47V36.63H24.17l4.6-7.07,4.6-7.07L38,29.56l4.6,7.07Z"/></svg>