<?xml version="1.0" encoding="utf-8"?>
<!-- Generator: Adobe Illustrator 21.0.2, SVG Export Plug-In . SVG Version: 6.00 Build 0)  -->
<svg version="1.1" id="icons" xmlns="http://www.w3.org/2000/svg" xmlns:xlink="http://www.w3.org/1999/xlink" x="0px" y="0px"
	 viewBox="0 0 64 64" style="enable-background:new 0 0 64 64;" xml:space="preserve">
<style type="text/css">
	.st0{fill:none;stroke:#000000;stroke-miterlimit:10;}
	.st1{fill:none;}
	.st2{fill:none;stroke:#000000;stroke-width:1.5;stroke-miterlimit:10;}
</style>
<g id="XMLID_599_">
	<path id="XMLID_600_" d="M22.3,16.1c-1.6,3.9-2.5,7.7-3,11.3h26.5c-0.5-3.6-1.4-7.4-3-11.3H22.3z"/>
	<path id="XMLID_601_" d="M20.3,43.3h24.4c0.9-3.4,1.5-7.2,1.4-11.3H19C18.9,36.1,19.4,39.9,20.3,43.3z"/>
	<path id="XMLID_602_" d="M31.8,0.1c-3.1,3.9-5.5,7.7-7.4,11.3h16.3C38.9,7.8,36.5,4,33.4,0.1c-0.5,0-1,0-1.4,0
		C31.9,0.1,31.9,0.1,31.8,0.1z"/>
	<path id="XMLID_603_" d="M38.3,0.7C41,4.4,43.1,8,44.7,11.4h11.7C51.8,6,45.5,2.2,38.3,0.7z"/>
	<path id="XMLID_604_" d="M48.2,43.3h13.6c1.3-3.5,2.1-7.3,2.1-11.3H49.6C49.6,36,49.1,39.8,48.2,43.3z"/>
	<path id="XMLID_605_" d="M49.3,27.4h14.3c-0.6-4.1-2-7.9-3.9-11.3h-13C48,20,48.9,23.8,49.3,27.4z"/>
	<path id="XMLID_606_" d="M27,63.5c-2.7-3.4-6.3-8.7-8.7-15.6H4.4C9.1,56.1,17.3,62,27,63.5z"/>
	<path id="XMLID_607_" d="M27,0.5C19.3,1.7,12.5,5.7,7.7,11.4h12.8C22.2,7.9,24.3,4.2,27,0.5z"/>
	<path id="XMLID_608_" d="M46.8,47.9c-2.4,6.7-5.9,12-8.6,15.4c9.1-1.8,16.9-7.5,21.4-15.4H46.8z"/>
	<path id="XMLID_609_" d="M33,63.9c2.1-2.2,7-7.8,10.2-15.9H21.8c3.1,8.1,8,13.7,10.2,16c0,0,0,0,0,0C32.3,63.9,32.7,63.9,33,63.9z"
		/>
	<path id="XMLID_610_" d="M0.4,27.4h15.4c0.4-3.6,1.3-7.4,2.7-11.3H4.4C2.4,19.5,1,23.3,0.4,27.4z"/>
	<path id="XMLID_611_" d="M16.9,43.3C16,39.8,15.5,36,15.6,32H0.1c0,4,0.7,7.8,2.1,11.3H16.9z"/>
</g>
</svg>
