<?xml version="1.0" encoding="utf-8"?>
<!-- Generator: Adobe Illustrator 21.0.2, SVG Export Plug-In . SVG Version: 6.00 Build 0)  -->
<svg version="1.1" id="icons" xmlns="http://www.w3.org/2000/svg" xmlns:xlink="http://www.w3.org/1999/xlink" x="0px" y="0px"
	 viewBox="0 0 64 64" style="enable-background:new 0 0 64 64;" xml:space="preserve">
<style type="text/css">
	.st0{stroke:#FFFFFF;stroke-width:0;stroke-linecap:round;stroke-linejoin:round;}
	.st1{fill:none;stroke:#000000;stroke-width:1.5;stroke-miterlimit:10;}
</style>
<path id="XMLID_347_" d="M45.1,38.9c6.7-1.6,11.7-7.6,11.7-14.8c0-8.4-6.8-15.2-15.2-15.2c-1.8,0-3.5,0.3-5,0.9
	C34.4,4.1,28.9,0,22.4,0C14,0,7.2,6.8,7.2,15.2c0,7.1,4.8,13,11.4,14.7v7.5h-7.3v7.3h7.3v10.3h7.3V44.8h7.7v-7.3h-7.7V30
	c0.5-0.1,1-0.3,1.5-0.5c1.8,4.5,5.6,8,10.3,9.2v7.5h-7.3v7.3h7.3V64h7.3V53.7h7.7v-7.3h-7.7V38.9z M26.5,25.7
	c-1.3,0.5-2.6,0.8-4.1,0.8c-6.2,0-11.2-5-11.2-11.2c0-6.2,5-11.2,11.2-11.2c4.9,0,9.1,3.1,10.6,7.5c-4,2.7-6.6,7.3-6.6,12.5
	C26.4,24.6,26.4,25.2,26.5,25.7z M33.6,16.3c-0.2,2.6-1.4,5-3.1,6.8C30.7,20.4,31.8,18.1,33.6,16.3z M41.6,35.3
	c-4.9,0-9.1-3.2-10.6-7.5c4-2.7,6.6-7.3,6.6-12.5c0-0.5,0-1.1-0.1-1.6c1.3-0.5,2.6-0.8,4.1-0.8c6.2,0,11.2,5,11.2,11.2
	C52.8,30.3,47.8,35.3,41.6,35.3z"/>
</svg>
