<?xml version="1.0" encoding="utf-8"?>
<!-- Generator: Adobe Illustrator 21.0.2, SVG Export Plug-In . SVG Version: 6.00 Build 0)  -->
<svg version="1.1" id="icons" xmlns="http://www.w3.org/2000/svg" xmlns:xlink="http://www.w3.org/1999/xlink" x="0px" y="0px"
	 viewBox="0 0 64 64" style="enable-background:new 0 0 64 64;" xml:space="preserve">
<style type="text/css">
	.st0{fill:none;stroke:#000000;stroke-miterlimit:10;}
	.st1{fill:none;}
	.st2{fill:none;stroke:#000000;stroke-width:1.5;stroke-miterlimit:10;}
</style>
<g id="XMLID_424_">
	<path d="M32,1.5c16.8,0,30.5,13.7,30.5,30.5S48.8,62.5,32,62.5S1.5,48.8,1.5,32S15.2,1.5,32,1.5 M32,0C14.3,0,0,14.3,0,32
		s14.3,32,32,32s32-14.3,32-32S49.7,0,32,0L32,0z"/>
</g>
<path id="XMLID_745_" d="M44.2,22.3L30.7,8.5c-0.2-0.2-0.5-0.1-0.5,0.2v17.5c0,0.2-0.3,0.4-0.5,0.2l-6.8-7c-0.1-0.1-0.3-0.1-0.4,0
	l-2.8,2.7c-0.1,0.1-0.1,0.3,0,0.4l9.1,9.3c0.1,0.1,0.1,0.3,0,0.4l-9.1,9.3c-0.1,0.1-0.1,0.3,0,0.4l2.8,2.7c0.1,0.1,0.3,0.1,0.4,0
	l6.8-7c0.2-0.2,0.5-0.1,0.5,0.2v17.4c0,0.2,0.3,0.4,0.5,0.2l13.6-13.6c0.1-0.1,0.1-0.3,0-0.4l-9.1-9.2c-0.1-0.1-0.1-0.3,0-0.4
	l9.1-9.3C44.3,22.5,44.3,22.4,44.2,22.3z M33.6,24.3v-6.6c0-0.2,0.3-0.4,0.5-0.2l4.8,4.9c0.1,0.1,0.1,0.3,0,0.4l-4.8,4.8
	c-0.2,0.2-0.5,0-0.5-0.2V24.3z M38.9,41.9l-4.8,4.8c-0.2,0.2-0.5,0-0.5-0.2v-3.1v-6.6c0-0.2,0.3-0.4,0.5-0.2l4.8,4.9
	C39,41.6,39,41.8,38.9,41.9z"/>
</svg>
