<?xml version="1.0" encoding="utf-8"?>
<!-- Generator: Adobe Illustrator 21.0.2, SVG Export Plug-In . SVG Version: 6.00 Build 0)  -->
<svg version="1.1" id="icons" xmlns="http://www.w3.org/2000/svg" xmlns:xlink="http://www.w3.org/1999/xlink" x="0px" y="0px"
	 viewBox="0 0 64 64" style="enable-background:new 0 0 64 64;" xml:space="preserve">
<style type="text/css">
	.st0{fill:none;stroke:#000000;stroke-miterlimit:10;}
	.st1{fill:none;}
	.st2{fill:none;stroke:#000000;stroke-width:1.5;stroke-miterlimit:10;}
</style>
<path id="XMLID_666_" d="M58.1,0H5.9C2.6,0,0,2.6,0,5.9v52.3C0,61.4,2.6,64,5.9,64h52.3c3.2,0,5.9-2.6,5.9-5.9V5.9
	C64,2.6,61.4,0,58.1,0z M32.2,48c0,0.4-0.2,0.7-0.5,0.9C31.5,49,31.3,49,31.2,49c-0.2,0-0.4-0.1-0.6-0.2L17.9,40l-7.1,0
	c-1.1,0-2.1-0.8-2.4-1.8V24.9c0.4-0.9,1.3-1.6,2.3-1.6l7.2,0l12.7-8.8c0.2-0.1,0.4-0.2,0.6-0.2c0.2,0,0.3,0,0.5,0.1
	c0.3,0.2,0.5,0.5,0.5,0.9V48z M36.3,41.1c-1.2,0-2.1-1.1-2.1-2.3c0-0.8,0.2-1.4,0.7-1.9c0.5-0.6,1-1.2,1.3-2c0.5-1.3,0.7-2.6,0.5-4
	c-0.2-1.4-0.8-2.6-1.7-3.6c-0.4-0.4-0.6-0.8-0.7-1.4c-0.2-0.9,0-1.7,0.6-2.3c0.4-0.4,0.9-0.6,1.4-0.7c0.5,0,0.9,0.1,1.3,0.4
	c0.8,0.6,1.4,1.5,1.9,2.3c0.8,1.3,1.3,2.7,1.5,4.2c0.3,1.5,0.3,2.9,0,4.4c-0.4,2.5-1.5,4.6-3.2,6.3C37.4,40.9,36.8,41.1,36.3,41.1z
	 M43.4,45.8c-0.7,0.8-1.5,1-2.4,0.6c-0.7-0.3-1.1-0.9-1.3-1.8c-0.2-0.9,0.1-1.6,0.6-2.3c0.6-0.7,1.1-1.5,1.6-2.3
	c0.7-1.2,1.2-2.4,1.6-3.7c0.5-1.9,0.7-3.8,0.5-5.8c-0.1-1.5-0.4-2.9-0.9-4.2c-0.4-1.2-1-2.3-1.7-3.3c-0.4-0.6-0.9-1.1-1.2-1.6
	c-0.8-1.2-0.6-2.9,0.6-3.6c0.9-0.6,1.9-0.4,2.7,0.5c1.6,1.8,2.8,3.9,3.6,6.2c0.9,2.4,1.3,4.9,1.3,7.4c0,2.2-0.2,4.1-0.8,6
	C47,40.1,46,42.2,44.7,44C44.3,44.7,43.9,45.2,43.4,45.8z M55.2,37.1c-0.7,4.2-2.1,7.9-4.3,11.4c-0.6,1-1.3,1.9-2,2.7
	c-0.5,0.6-1.1,0.9-1.8,0.9c-0.7-0.1-1.3-0.4-1.7-1.2c-0.4-0.7-0.4-1.5-0.1-2.3c0.1-0.3,0.3-0.6,0.5-0.9c1-1.2,1.8-2.5,2.6-3.8
	c0.8-1.6,1.5-3.2,2-4.9c0.8-2.9,1.1-5.9,0.9-9c-0.2-2.2-0.6-4.3-1.3-6.4c-0.9-2.6-2.2-5-3.9-7.1c-0.2-0.3-0.5-0.6-0.6-0.9
	c-0.3-0.7-0.3-1.3-0.1-2c0.3-0.8,0.9-1.3,1.7-1.5c0.8-0.2,1.5,0.2,2.1,0.9c2,2.4,3.6,5.1,4.7,8.1c0.7,1.8,1.2,3.7,1.5,5.6
	c0.2,1.1,0.3,2.3,0.4,3.5c0,0.6,0.1,1.3,0.1,2.1C55.6,33.7,55.5,35.4,55.2,37.1z"/>
</svg>
