<?xml version="1.0" encoding="utf-8"?>
<!-- Generator: Adobe Illustrator 21.0.2, SVG Export Plug-In . SVG Version: 6.00 Build 0)  -->
<svg version="1.1" id="icons" xmlns="http://www.w3.org/2000/svg" xmlns:xlink="http://www.w3.org/1999/xlink" x="0px" y="0px"
	 viewBox="0 0 64 64" style="enable-background:new 0 0 64 64;" xml:space="preserve">
<style type="text/css">
	.st0{fill:none;stroke:#000000;stroke-miterlimit:10;}
	.st1{fill:none;}
	.st2{fill:none;stroke:#000000;stroke-width:1.5;stroke-miterlimit:10;}
</style>
<g id="XMLID_1010_">
	<path d="M32,1.5c16.8,0,30.5,13.7,30.5,30.5S48.8,62.5,32,62.5S1.5,48.8,1.5,32S15.2,1.5,32,1.5 M32,0C14.3,0,0,14.3,0,32
		s14.3,32,32,32s32-14.3,32-32S49.7,0,32,0L32,0z"/>
</g>
<g id="XMLID_498_">
	<path id="XMLID_529_" d="M32.1,7.4c4.6,0,9.1,1.3,13,3.7L11.1,45c-2.4-3.9-3.7-8.3-3.7-13C7.4,18.4,18.5,7.4,32.1,7.4 M52.3,18
		c2.9,4.1,4.4,8.9,4.4,14c0,13.6-11,24.6-24.6,24.6c-5.1,0-9.8-1.5-14-4.4L52.3,18 M32.1,5.9C17.7,5.9,5.9,17.6,5.9,32
		c0,5.7,1.9,11,5,15.3l36.5-36.5C43.1,7.7,37.8,5.9,32.1,5.9L32.1,5.9z M52.5,15.7L15.8,52.4c4.5,3.6,10.1,5.7,16.3,5.7
		c14.4,0,26.1-11.7,26.1-26.1C58.2,25.9,56.1,20.2,52.5,15.7L52.5,15.7z"/>
</g>
</svg>
