<?xml version="1.0" encoding="utf-8"?>
<!-- Generator: Adobe Illustrator 21.0.2, SVG Export Plug-In . SVG Version: 6.00 Build 0)  -->
<svg version="1.1" id="icons" xmlns="http://www.w3.org/2000/svg" xmlns:xlink="http://www.w3.org/1999/xlink" x="0px" y="0px"
	 viewBox="0 0 64 64" style="enable-background:new 0 0 64 64;" xml:space="preserve">
<style type="text/css">
	.st0{fill:none;stroke:#000000;stroke-miterlimit:10;}
	.st1{fill:none;}
	.st2{fill:none;stroke:#000000;stroke-width:1.5;stroke-miterlimit:10;}
</style>
<g id="XMLID_703_">
	<path id="XMLID_704_" d="M46.4,30.2c2.5-2.8,4.2-5.9,5.6-9.3c1.1-2.8,1.9-5.6,2.4-8.6c0.5-3.1,0.8-6.2,0.7-9.4
		c0-0.6,0.1-0.8,0.7-0.7c0.7,0,1.4,0,2,0C57.9,2.1,58,2.1,58,2c0-0.7,0-1.4,0-2H6c0,0.1,0,0.3,0,0.4C6,1,6,1.6,6,2.2h2.9
		c0,1.2,0,2.3,0,3.5c0.2,6.4,1.6,12.5,4.5,18.2c1.5,2.9,3.3,5.6,5.7,7.9c0,0,0,0,0,0.1c-0.7,0.8-1.4,1.5-2,2.3
		c-2.3,2.8-4,5.9-5.2,9.2C10.4,47.1,9.5,51,9.1,55c-0.2,2.1-0.2,4.2-0.2,6.3c0,0.3-0.3,0.6-0.7,0.6c-0.7,0-1.4,0-2.1,0
		C6.1,62,6,62.2,6,62.3c0,0.6,0,1.1,0,1.7H58v-2.1c-0.8,0-1.5,0-2.3,0c-0.4,0-0.5-0.1-0.5-0.5c0-2.5,0.1-5-0.3-7.5
		c-0.4-2.8-1-5.5-1.8-8.2c-0.6-2.1-1.4-4.1-2.4-6c-1.5-2.9-3.3-5.5-5.7-7.8v0C45.4,31.3,45.9,30.8,46.4,30.2z M39.7,32.7
		c4.8,3.3,8,7.8,10.2,13.1c2,4.7,3,9.6,3.4,14.6c0,0.2,0,0.4,0,0.7c-14.2,0-28.4,0-42.7,0c0.2-3.4,0.7-6.7,1.6-9.9
		c1.3-4.9,3.4-9.5,6.6-13.5c1.5-1.9,3.4-3.5,5.4-4.9c0.4-0.3,0.8-0.6,1.3-1c-0.6-0.5-1.2-0.9-1.7-1.3c-3.5-2.5-6.1-5.7-8.1-9.4
		c-3.1-5.7-4.5-11.9-4.9-18.3c0-0.1,0-0.1,0-0.3c14.2,0,28.4,0,42.7,0c-0.2,1.4-0.3,2.8-0.5,4.2c-0.4,3.3-1.2,6.6-2.4,9.7
		c-1.8,4.7-4.2,8.9-8,12.2c-1.1,0.9-2.2,1.8-3.3,2.6c-0.2,0.1-0.3,0.3-0.6,0.5C39,32.1,39.3,32.4,39.7,32.7z"/>
	<g id="XMLID_707_">
		<path d="M32.4,35c2.1,0,5,2,6,2.7c2.9,2.6,6.2,7.3,7.5,10.9c0.9,2.5,1.6,5,1.9,7.7c0.1,0.4,0.1,0.8,0.1,1.3H16.8
			c0.5-4.7,1.8-8.8,3.7-12.5c1.6-3,3.6-5.4,6.1-7.2l0.1-0.1l0.1-0.1C27.6,36.9,30.3,35,32.4,35 M32.4,33c-3.4,0-6.9,3.2-6.9,3.2
			c-2.9,2.1-5.1,4.7-6.7,7.9c-2.6,4.8-3.8,9.9-4.1,15.3c0,0.1,0,0.1,0,0.2h35.6c-0.1-1.2-0.2-2.4-0.4-3.5c-0.4-2.8-1-5.5-2-8.1
			c-1.5-3.9-4.9-8.9-8.1-11.7C39.7,36.2,35.8,33,32.4,33L32.4,33z"/>
	</g>
	<g id="XMLID_708_">
		<path d="M48,6.5c0,0.4-0.1,0.8-0.1,1.3c-0.3,2.6-1,5.2-1.9,7.7c-1.4,3.6-4.7,8.3-7.5,10.9c-1,0.8-3.9,2.7-6,2.7
			c-2.2,0-4.8-1.9-5.6-2.7l-0.1-0.1l-0.1-0.1c-2.5-1.8-4.5-4.2-6.1-7.2c-2-3.7-3.2-7.8-3.7-12.5H48 M50.2,4.5H14.6
			c0,0.1,0,0.2,0,0.2c0.4,5.4,1.6,10.5,4.1,15.3c1.7,3.1,3.9,5.8,6.7,7.9c0,0,3.5,3.2,6.9,3.2c3.4,0,7.3-3.2,7.3-3.2
			c3.1-2.8,6.6-7.8,8.1-11.7c1-2.6,1.7-5.3,2-8.1C50,6.9,50.1,5.7,50.2,4.5L50.2,4.5z"/>
	</g>
	<g id="XMLID_709_">
		<path d="M32.4,24.6c-1.7,0-3.5-1.6-3.5-1.6c-1.5-1.1-2.6-2.4-3.4-4c-1.3-2.4-1.9-5-2.1-7.8c0,0,0-0.1,0-0.1h18.1
			c-0.1,0.6-0.1,1.2-0.2,1.8c-0.2,1.4-0.5,2.8-1,4.1c-0.8,2-2.5,4.5-4.1,6C36.1,22.9,34.1,24.6,32.4,24.6z"/>
	</g>
	<g id="XMLID_710_">
		<path d="M32.4,40.2c-1.7,0-3.5,1.6-3.5,1.6c-1.5,1.1-2.6,2.4-3.4,4c-1.3,2.4-1.9,5-2.1,7.8c0,0,0,0.1,0,0.1h18.1
			c-0.1-0.6-0.1-1.2-0.2-1.8c-0.2-1.4-0.5-2.8-1-4.1c-0.8-2-2.5-4.5-4.1-6C36.1,41.9,34.1,40.2,32.4,40.2z"/>
	</g>
</g>
</svg>
