<svg id="icons" xmlns="http://www.w3.org/2000/svg" viewBox="0 0 64 64"><title>changa_sound-volume-mute</title><g id="_Group_" data-name="&lt;Group&gt;"><path id="_Path_" data-name="&lt;Path&gt;" d="M37,4.49a1.59,1.59,0,0,0-1.64.1L15.05,18.68l-11.53.07A4,4,0,0,0-.14,21.26V42.48a4,4,0,0,0,3.8,2.87L15,45.28,35.31,59.41a1.59,1.59,0,0,0,2.49-1.3V5.89A1.59,1.59,0,0,0,37,4.49Z"/><path id="_Path_2" data-name="&lt;Path&gt;" d="M57.74,32.58,63.31,27a2.86,2.86,0,0,0,0-4l-.88-.88a2.86,2.86,0,0,0-4,0l-5.57,5.57L47.25,22.1a2.86,2.86,0,0,0-4,0l-.88.88a2.86,2.86,0,0,0,0,4l5.57,5.57-5.57,5.57a2.86,2.86,0,0,0,0,4l.88.88a2.86,2.86,0,0,0,4,0l5.57-5.57,5.57,5.57a2.86,2.86,0,0,0,4,0l.88-.88a2.86,2.86,0,0,0,0-4Z"/></g></svg>