<svg id="icons" xmlns="http://www.w3.org/2000/svg" viewBox="0 0 64 64"><title>changa_calculator-o</title><g id="_Group_" data-name="&lt;Group&gt;"><path d="M49.54,1.5A1.53,1.53,0,0,1,51.06,3V61a1.53,1.53,0,0,1-1.52,1.52H14.46A1.53,1.53,0,0,1,12.94,61V3A1.53,1.53,0,0,1,14.46,1.5H49.54m0-1.5H14.46a3,3,0,0,0-3,3V61a3,3,0,0,0,3,3H49.54a3,3,0,0,0,3-3V3a3,3,0,0,0-3-3Z"/></g><g id="_Group_2" data-name="&lt;Group&gt;"><g id="_Group_3" data-name="&lt;Group&gt;"><rect id="_Rectangle_" data-name="&lt;Rectangle&gt;" x="15.3" y="7.26" width="33.39" height="6.62"/></g><g id="_Group_4" data-name="&lt;Group&gt;"><rect id="_Rectangle_2" data-name="&lt;Rectangle&gt;" x="17.36" y="23.56" width="5.54" height="3.96"/></g><g id="_Group_5" data-name="&lt;Group&gt;"><rect id="_Rectangle_3" data-name="&lt;Rectangle&gt;" x="41.1" y="23.56" width="5.54" height="3.96"/></g><g id="_Group_6" data-name="&lt;Group&gt;"><rect id="_Rectangle_4" data-name="&lt;Rectangle&gt;" x="33.19" y="23.56" width="5.54" height="3.96"/></g><g id="_Group_7" data-name="&lt;Group&gt;"><rect id="_Rectangle_5" data-name="&lt;Rectangle&gt;" x="25.27" y="23.56" width="5.54" height="3.96"/></g><g id="_Group_8" data-name="&lt;Group&gt;"><rect id="_Rectangle_6" data-name="&lt;Rectangle&gt;" x="17.36" y="29.48" width="5.54" height="5.54"/></g><g id="_Group_9" data-name="&lt;Group&gt;"><rect id="_Rectangle_7" data-name="&lt;Rectangle&gt;" x="41.1" y="29.48" width="5.54" height="5.54"/></g><g id="_Group_10" data-name="&lt;Group&gt;"><rect id="_Rectangle_8" data-name="&lt;Rectangle&gt;" x="33.19" y="29.48" width="5.54" height="5.54"/></g><g id="_Group_11" data-name="&lt;Group&gt;"><rect id="_Rectangle_9" data-name="&lt;Rectangle&gt;" x="25.27" y="29.48" width="5.54" height="5.54"/></g><g id="_Group_12" data-name="&lt;Group&gt;"><rect id="_Rectangle_10" data-name="&lt;Rectangle&gt;" x="17.36" y="36.98" width="5.54" height="5.54"/></g><g id="_Group_13" data-name="&lt;Group&gt;"><rect id="_Rectangle_11" data-name="&lt;Rectangle&gt;" x="41.1" y="36.98" width="5.54" height="5.54"/></g><g id="_Group_14" data-name="&lt;Group&gt;"><rect id="_Rectangle_12" data-name="&lt;Rectangle&gt;" x="33.19" y="36.98" width="5.54" height="5.54"/></g><g id="_Group_15" data-name="&lt;Group&gt;"><rect id="_Rectangle_13" data-name="&lt;Rectangle&gt;" x="25.27" y="36.98" width="5.54" height="5.54"/></g><g id="_Group_16" data-name="&lt;Group&gt;"><rect id="_Rectangle_14" data-name="&lt;Rectangle&gt;" x="17.36" y="44.47" width="5.54" height="5.54"/></g><g id="_Group_17" data-name="&lt;Group&gt;"><rect id="_Rectangle_15" data-name="&lt;Rectangle&gt;" x="33.19" y="44.47" width="5.54" height="5.54"/></g><g id="_Group_18" data-name="&lt;Group&gt;"><rect id="_Rectangle_16" data-name="&lt;Rectangle&gt;" x="25.27" y="44.47" width="5.54" height="5.54"/></g><g id="_Group_19" data-name="&lt;Group&gt;"><rect id="_Rectangle_17" data-name="&lt;Rectangle&gt;" x="17.36" y="51.96" width="5.54" height="5.54"/></g><g id="_Group_20" data-name="&lt;Group&gt;"><polygon id="_Path_" data-name="&lt;Path&gt;" points="41.1 44.47 41.1 46.86 41.1 50.01 41.1 57.5 46.64 57.5 46.64 50.01 46.64 46.86 46.64 44.47 41.1 44.47"/></g><g id="_Group_21" data-name="&lt;Group&gt;"><rect id="_Rectangle_18" data-name="&lt;Rectangle&gt;" x="33.19" y="51.96" width="5.54" height="5.54"/></g><g id="_Group_22" data-name="&lt;Group&gt;"><rect id="_Rectangle_19" data-name="&lt;Rectangle&gt;" x="25.27" y="51.96" width="5.54" height="5.54"/></g></g></svg>