<?xml version="1.0" encoding="utf-8"?>
<!-- Generator: Adobe Illustrator 21.0.2, SVG Export Plug-In . SVG Version: 6.00 Build 0)  -->
<svg version="1.1" id="icons" xmlns="http://www.w3.org/2000/svg" xmlns:xlink="http://www.w3.org/1999/xlink" x="0px" y="0px"
	 viewBox="0 0 64 64" style="enable-background:new 0 0 64 64;" xml:space="preserve">
<style type="text/css">
	.st0{fill:none;stroke:#000000;stroke-miterlimit:10;}
	.st1{fill:none;}
	.st2{fill:none;stroke:#000000;stroke-width:1.5;stroke-miterlimit:10;}
</style>
<path d="M32,0C14.3,0,0,14.3,0,32s14.3,32,32,32c17.7,0,32-14.3,32-32S49.7,0,32,0z M27.9,53c0,0.1-2.9,0.8-2.9,0.8
	c-3.9-7.8-7.7-15.6-11.6-23.5c0.1,0.2,2.8-1,2.9-0.8c3,6.1,6.1,12.2,9.1,18.4c1.7-15,9.5-28.3,22.4-36.8c0.8-0.5,2.1-0.3,2.9-0.8
	C36.1,19.9,28.1,35.6,27.9,53z"/>
</svg>
