<svg id="icons" xmlns="http://www.w3.org/2000/svg" viewBox="0 0 64 64"><title>changa_beer</title><path id="_Compound_Path_" data-name="&lt;Compound Path&gt;" d="M52.35,18a7.29,7.29,0,0,0-6.43-5c-.31,0-.42-.1-.41-.43A9.66,9.66,0,0,0,45.42,11,11.37,11.37,0,0,0,28.7,2.59a10.55,10.55,0,0,0-5.07,6.1c-.11.3-.2.39-.54.35a8,8,0,0,0-2.44.11A9,9,0,0,0,18,25.85s0,.1,0,.15v3H12.92A7.81,7.81,0,0,0,5,36.83v7.4A7.76,7.76,0,0,0,12.92,52H18v5a4,4,0,0,0,4,4H45a4,4,0,0,0,4-4V26.19A7,7,0,0,0,52.35,18ZM13,49.38a6.39,6.39,0,0,1-6-6.12V37.82a6.46,6.46,0,0,1,6-6.19h5V49.38Zm14,5.34a3.38,3.38,0,1,1-6.75,0V29.85a3.38,3.38,0,1,1,6.75,0Zm9.34,0a3.38,3.38,0,1,1-6.75,0V29.85a3.38,3.38,0,1,1,6.75,0Zm9.34,0a3.38,3.38,0,1,1-6.75,0V29.85a3.38,3.38,0,1,1,6.75,0Zm1.71-31.39H19.69a6.81,6.81,0,0,1-2-4.07,7.08,7.08,0,0,1,5.67-7.84,6.13,6.13,0,0,1,1.9-.09c.26,0,.34,0,.42-.28a8.34,8.34,0,0,1,4-4.84,8.86,8.86,0,0,1,13.06,6.71,7.78,7.78,0,0,1,.07,1.16c0,.26.08.32.32.34a5.71,5.71,0,0,1,5,4A5.88,5.88,0,0,1,47.43,23.33Z"/></svg>