<?xml version="1.0" encoding="utf-8"?>
<!-- Generator: Adobe Illustrator 21.0.2, SVG Export Plug-In . SVG Version: 6.00 Build 0)  -->
<svg version="1.1" id="icons" xmlns="http://www.w3.org/2000/svg" xmlns:xlink="http://www.w3.org/1999/xlink" x="0px" y="0px"
	 viewBox="0 0 64 64" style="enable-background:new 0 0 64 64;" xml:space="preserve">
<style type="text/css">
	.st0{stroke:#FFFFFF;stroke-width:0;stroke-linecap:round;stroke-linejoin:round;}
	.st1{fill:none;stroke:#000000;stroke-width:1.5;stroke-miterlimit:10;}
</style>
<path id="XMLID_330_" d="M56.9,38.2c0,0-8.5-0.2-14.7,2.9c0,0-7.7,4.2-8.6,5.2c0,0-1.2-0.1,5.2-4.8c0,0,6.5-5,9.2-8.1
	c0,0,3.4-4.4,5-9.1c0,0,3.8-9.5,4-10.8c0,0,1.7-4.8-1-2.1c0,0-7,5-10.1,8.3c0,0-5.2,4.9-7.4,9.8c0,0-3.1,7.4-4.2,11.5
	c0,0-1.3,3.8-1.2,4c0,0,0-0.3,0.1-1.2l1.9-7.7c0-0.1,0-0.2,0.1-0.2c0,0,2.4-7.7,2.1-11.9c0,0,0-0.2,0-0.5c0-3.6-0.6-6.2-0.7-6.6
	c-0.4-2.8-1-6-1.9-8.9L33,3.1c-0.5-2.3-0.8-2.9-0.9-3c0,0,0,0,0,0c0,0,0,0,0,0c0,0,0,0,0,0c0,0,0,0,0,0c-0.1,0.1-0.4,0.7-0.9,3
	l-1.5,4.9c-0.9,2.9-1.5,6.1-1.9,8.9c-0.1,0.5-0.7,3-0.7,6.6c0,0.3,0,0.5,0,0.5C26.7,28.3,29.1,36,29.1,36c0,0.1,0,0.2,0.1,0.2
	l1.9,7.7c0.1,0.9,0.1,1.2,0.1,1.2c0.1-0.2-1.2-4-1.2-4c-1-4.1-4.2-11.5-4.2-11.5c-2.2-4.9-7.4-9.8-7.4-9.8
	c-3.1-3.3-10.1-8.3-10.1-8.3c-2.8-2.7-1,2.1-1,2.1c0.2,1.3,4,10.8,4,10.8c1.6,4.7,5,9.1,5,9.1c2.7,3.1,9.2,8.1,9.2,8.1
	c6.4,4.7,5.2,4.8,5.2,4.8c-0.9-1-8.6-5.2-8.6-5.2C15.6,38,7.1,38.2,7.1,38.2c-7.2-0.5-6,0.6-6,0.6c0,0.3,5,3.7,5,3.7
	c9.2,5.4,16.1,4.5,16.1,4.5c9.2-0.1,8.4,0.3,8.4,0.3c-5.7,0.2-11,2.8-11,2.8c-7.3,3.7-9,7.4-9,7.4C14.2,58,22,54.7,22,54.7
	c4-2,9.2-7,9.2-7v16.1H32h0.8V47.7c0,0,5.2,5,9.2,7c0,0,7.8,3.2,11.3,2.8c0,0-1.7-3.8-9-7.4c0,0-5.3-2.6-11-2.8c0,0-0.8-0.3,8.4-0.3
	c0,0,6.9,0.8,16.1-4.5c0,0,5-3.4,5-3.7C62.9,38.8,64.1,37.7,56.9,38.2z"/>
</svg>
