<?xml version="1.0" encoding="utf-8"?>
<!-- Generator: Adobe Illustrator 21.0.2, SVG Export Plug-In . SVG Version: 6.00 Build 0)  -->
<svg version="1.1" id="icons" xmlns="http://www.w3.org/2000/svg" xmlns:xlink="http://www.w3.org/1999/xlink" x="0px" y="0px"
	 viewBox="0 0 64 64" style="enable-background:new 0 0 64 64;" xml:space="preserve">
<style type="text/css">
	.st0{fill:none;stroke:#000000;stroke-miterlimit:10;}
	.st1{fill:none;}
	.st2{fill:none;stroke:#000000;stroke-width:1.5;stroke-miterlimit:10;}
</style>
<g id="XMLID_461_">
	<g id="XMLID_462_">
		<path d="M35.8,1.5c2.4,0,4.4,2,4.4,4.4v1.9c0,2.4-2,4.4-4.4,4.4h-7.6c-2.4,0-4.4-2-4.4-4.4V5.9c0-2.4,2-4.4,4.4-4.4H35.8 M35.8,0
			h-7.6c-3.3,0-5.9,2.7-5.9,5.9v1.9c0,3.3,2.7,5.9,5.9,5.9h7.6c3.3,0,5.9-2.7,5.9-5.9V5.9C41.7,2.7,39,0,35.8,0L35.8,0z"/>
	</g>
	<rect id="XMLID_466_" x="8.4" y="7.6" width="47.1" height="6.1"/>
	<path d="M9.6,13.7l5.9,47.5C17.3,63.2,32,64,32,64c12.7,0,16-3.4,16-3.4l6.3-46.9H9.6z M24.9,58.1l-1.5,0.1c-0.4,0-0.7-0.3-0.8-0.6
		L19.1,17c0-0.4,0.3-0.7,0.6-0.8l1.5-0.1c0.4,0,0.7,0.3,0.8,0.6l3.5,40.6C25.6,57.7,25.3,58.1,24.9,58.1z M33.5,57.5
		c0,0.4-0.3,0.7-0.7,0.7h-1.5c-0.4,0-0.7-0.3-0.7-0.7V16.8c0-0.4,0.3-0.7,0.7-0.7h1.5c0.4,0,0.7,0.3,0.7,0.7V57.5z M41.4,57.6
		c0,0.4-0.4,0.7-0.8,0.6l-1.5-0.1c-0.4,0-0.7-0.4-0.6-0.8L42,16.7c0-0.4,0.4-0.7,0.8-0.6l1.5,0.1c0.4,0,0.7,0.4,0.6,0.8L41.4,57.6z"
		/>
</g>
</svg>
