<?xml version="1.0" encoding="utf-8"?>
<!-- Generator: Adobe Illustrator 21.0.2, SVG Export Plug-In . SVG Version: 6.00 Build 0)  -->
<svg version="1.1" id="icons" xmlns="http://www.w3.org/2000/svg" xmlns:xlink="http://www.w3.org/1999/xlink" x="0px" y="0px"
	 viewBox="0 0 64 64" style="enable-background:new 0 0 64 64;" xml:space="preserve">
<style type="text/css">
	.st0{stroke:#FFFFFF;stroke-width:0;stroke-linecap:round;stroke-linejoin:round;}
	.st1{fill:none;stroke:#000000;stroke-width:1.5;stroke-miterlimit:10;}
</style>
<path id="XMLID_340_" d="M32,0C14.3,0,0,14.3,0,32c0,17.7,14.3,32,32,32c17.7,0,32-14.3,32-32C64,14.3,49.7,0,32,0z M50.9,36.2
	c0,0.2-3.1,2.3-3.1,2.3c-5.7,3.3-9.9,2.8-9.9,2.8c-5.7,0-5.2,0.2-5.2,0.2c3.5,0.2,6.7,1.7,6.7,1.7c4.5,2.3,5.5,4.6,5.5,4.6
	C42.9,48,38.1,46,38.1,46c-2.5-1.2-5.6-4.3-5.6-4.3v9.9H32h-0.5v-9.9c0,0-3.2,3.1-5.6,4.3c0,0-4.8,2-6.9,1.7c0,0,1-2.3,5.5-4.6
	c0,0,3.3-1.6,6.7-1.7c0,0,0.5-0.2-5.2-0.2c0,0-4.3,0.5-9.9-2.8c0,0-3.1-2.1-3.1-2.3c0,0-0.8-0.7,3.7-0.3c0,0,5.2-0.2,9.1,1.8
	c0,0,4.7,2.6,5.3,3.2c0,0,0.8-0.1-3.2-3c0,0-4-3-5.6-5c0,0-2.1-2.7-3.1-5.6c0,0-2.3-5.9-2.4-6.6c0,0-1.1-3,0.6-1.3
	c0,0,4.3,3.1,6.2,5.1c0,0,3.2,3,4.6,6c0,0,1.9,4.6,2.6,7.1c0,0,0.8,2.4,0.8,2.5c0,0,0-0.2-0.1-0.7l-1.2-4.7c0,0,0-0.1,0-0.1
	c0,0-1.4-4.7-1.3-7.3c0,0,0-0.1,0-0.3c0-2.2,0.3-3.8,0.4-4.1c0.2-1.7,0.6-3.7,1.1-5.5l0.9-3c0.3-1.4,0.5-1.8,0.6-1.8c0,0,0,0,0,0
	c0,0,0,0,0,0c0,0,0,0,0,0c0,0,0,0,0,0c0.1,0.1,0.2,0.4,0.6,1.8l0.9,3c0.5,1.8,0.9,3.7,1.1,5.5c0.1,0.3,0.4,1.9,0.4,4.1
	c0,0.2,0,0.3,0,0.3c0.1,2.6-1.3,7.3-1.3,7.3c0,0.1,0,0.1,0,0.1l-1.2,4.7c-0.1,0.5-0.1,0.7-0.1,0.7c-0.1-0.1,0.8-2.5,0.8-2.5
	c0.6-2.5,2.6-7.1,2.6-7.1c1.4-3,4.6-6,4.6-6c1.9-2,6.2-5.1,6.2-5.1c1.7-1.6,0.6,1.3,0.6,1.3c-0.1,0.8-2.4,6.6-2.4,6.6
	c-1,2.9-3.1,5.6-3.1,5.6c-1.7,1.9-5.6,5-5.6,5c-3.9,2.9-3.2,3-3.2,3c0.6-0.6,5.3-3.2,5.3-3.2c3.8-2,9.1-1.8,9.1-1.8
	C51.7,35.5,50.9,36.2,50.9,36.2z"/>
</svg>
