<svg id="icons" xmlns="http://www.w3.org/2000/svg" viewBox="0 0 64 64"><title>changa_credit-card</title><g id="_Group_" data-name="&lt;Group&gt;"><path id="_Compound_Path_" data-name="&lt;Compound Path&gt;" d="M60,12.19H4.1a4,4,0,0,0-4,4V47.8a4,4,0,0,0,4,4H60a4,4,0,0,0,4-4V16.2A4,4,0,0,0,60,12.19Zm-55.9,2H60a2,2,0,0,1,2,2v3.67H2.09V16.2A2,2,0,0,1,4.1,14.19ZM60,49.81H4.1a2,2,0,0,1-2-2V27.94H62V47.8A2,2,0,0,1,60,49.81Z"/><rect id="_Rectangle_" data-name="&lt;Rectangle&gt;" x="3.61" y="43.43" width="15.49" height="2.25"/><rect id="_Rectangle_2" data-name="&lt;Rectangle&gt;" x="22.29" y="43.43" width="28.26" height="2.25"/></g></svg>