<?xml version="1.0" encoding="utf-8"?>
<!-- Generator: Adobe Illustrator 21.0.2, SVG Export Plug-In . SVG Version: 6.00 Build 0)  -->
<svg version="1.1" id="icons" xmlns="http://www.w3.org/2000/svg" xmlns:xlink="http://www.w3.org/1999/xlink" x="0px" y="0px"
	 viewBox="0 0 64 64" style="enable-background:new 0 0 64 64;" xml:space="preserve">
<style type="text/css">
	.st0{fill:none;stroke:#000000;stroke-miterlimit:10;}
	.st1{fill:none;}
	.st2{fill:none;stroke:#000000;stroke-width:1.5;stroke-miterlimit:10;}
</style>
<path id="XMLID_502_" d="M52.4,18c-0.9-2.8-3.5-4.8-6.4-5c-0.3,0-0.4-0.1-0.4-0.4c0-0.5,0-1-0.1-1.5c-1.1-8-9.6-12.1-16.7-8.5
	c-2.5,1.3-4.1,3.5-5.1,6.1C23.5,9,23.4,9.1,23.1,9C22.3,9,21.5,9,20.6,9.2c-4.7,0.9-7.8,5.1-7.3,9.9c0.3,2.9,2.1,5.4,4.6,6.8
	c0,0,0,0.1,0,0.1v3h-5.1C8.5,29,5,32.4,5,36.8v7.4c0,4.4,3.5,7.8,7.9,7.8H18v5c0,2.2,1.8,4,4,4h23c2.2,0,4-1.8,4-4V26.2
	C52,24.7,53.3,21,52.4,18z M13,49.4c-3,0-6-2.9-6-6.1v-5.4c0-3.2,3-6.2,6-6.2h5v17.8H13z M27,54.7c0,2-1.4,3.6-3.4,3.6
	s-3.4-1.6-3.4-3.6V29.8c0-2,1.4-3.6,3.4-3.6s3.4,1.6,3.4,3.6V54.7z M36.4,54.7c0,2-1.4,3.6-3.4,3.6c-2,0-3.4-1.6-3.4-3.6V29.8
	c0-2,1.4-3.6,3.4-3.6c2,0,3.4,1.6,3.4,3.6V54.7z M45.7,54.7c0,2-1.4,3.6-3.4,3.6c-2,0-3.4-1.6-3.4-3.6V29.8c0-2,1.4-3.6,3.4-3.6
	c2,0,3.4,1.6,3.4,3.6V54.7z M47.4,23.3H19.7c0,0,0,0,0,0c-1.1-1.1-1.9-2.5-2-4.1c-0.4-3.8,2-7.1,5.7-7.8c0.6-0.1,1.3-0.2,1.9-0.1
	c0.3,0,0.3,0,0.4-0.3c0.7-2.1,2-3.8,4-4.8c5.5-2.9,12.2,0.3,13.1,6.7c0.1,0.4,0.1,0.8,0.1,1.2c0,0.3,0.1,0.3,0.3,0.3
	c2.3,0.2,4.3,1.8,5,4C48.6,20.1,48.4,21.9,47.4,23.3z"/>
</svg>
