<svg id="icons" xmlns="http://www.w3.org/2000/svg" viewBox="0 0 64 64"><title>changa_female-plus-female</title><path id="_Compound_Path_" data-name="&lt;Compound Path&gt;" d="M45.11,38.89A15.2,15.2,0,1,0,36.57,9.75,15.21,15.21,0,1,0,18.56,30v7.54H11.22v7.34h7.34V55.12H25.9V44.83h7.67V37.49H25.9V30a15.1,15.1,0,0,0,1.52-.46A15.24,15.24,0,0,0,37.77,38.8v7.54H30.43v7.34h7.34V64h7.34V53.68h7.67V46.34H45.11ZM26.48,25.68A11.21,11.21,0,1,1,33,11.56a15.07,15.07,0,0,0-6.5,14.12Zm7.08-9.39a11.17,11.17,0,0,1-3.12,6.76A11.17,11.17,0,0,1,33.56,16.29Zm8,19A11.21,11.21,0,0,1,31,27.76a15.16,15.16,0,0,0,6.6-12.51,15.38,15.38,0,0,0-.08-1.59A11.21,11.21,0,1,1,41.6,35.31Z"/></svg>