<svg id="icons" xmlns="http://www.w3.org/2000/svg" viewBox="0 0 64 64"><defs><style>.cls-1{fill:none;}</style></defs><title>changa_wifi-signal</title><g id="_Group_" data-name="&lt;Group&gt;"><g id="_Group_2" data-name="&lt;Group&gt;"><path id="_Path_" data-name="&lt;Path&gt;" class="cls-1" d="M32,12.76A16.47,16.47,0,0,0,19.86,40.38l3.47-5.11a10.56,10.56,0,1,1,17.34,0l3.47,5.11A16.47,16.47,0,0,0,32,12.76Z"/><path id="_Path_2" data-name="&lt;Path&gt;" class="cls-1" d="M57.79,29.25a25.79,25.79,0,1,0-43.25,19l3.32-4.9a20,20,0,1,1,28.26,0l3.32,4.9A25.73,25.73,0,0,0,57.79,29.25Z"/><path id="_Path_3" data-name="&lt;Path&gt;" d="M24.89,29.25a7.11,7.11,0,1,1,13.62,2.83l2.16,3.18a10.56,10.56,0,1,0-17.34,0l2.16-3.18A7.06,7.06,0,0,1,24.89,29.25Z"/><path id="_Path_4" data-name="&lt;Path&gt;" d="M15.51,29.25A16.49,16.49,0,1,1,44.14,40.38l2,2.94a20,20,0,1,0-28.26,0l2-2.94A16.41,16.41,0,0,1,15.51,29.25Z"/><path id="_Path_5" data-name="&lt;Path&gt;" d="M6.21,29.25a25.79,25.79,0,1,1,43.25,19l2,2.89a29.25,29.25,0,1,0-38.82,0l2-2.89A25.73,25.73,0,0,1,6.21,29.25Z"/></g><path id="_Path_6" data-name="&lt;Path&gt;" d="M35.25,64V32.51A3.26,3.26,0,0,0,32,29.25h0a3.26,3.26,0,0,0-3.25,3.25V64Z"/></g></svg>