<svg id="icons" xmlns="http://www.w3.org/2000/svg" viewBox="0 0 64 64"><title>changa_floppy-disk-save</title><g id="_Group_" data-name="&lt;Group&gt;"><rect id="_Rectangle_" data-name="&lt;Rectangle&gt;" x="8.76" y="35.76" width="46.43" height="3.71" rx="1.24" ry="1.24"/><rect id="_Rectangle_2" data-name="&lt;Rectangle&gt;" x="8.76" y="42.94" width="46.43" height="3.71" rx="1.24" ry="1.24"/><rect id="_Rectangle_3" data-name="&lt;Rectangle&gt;" x="8.76" y="50.11" width="38.58" height="3.71" rx="1.24" ry="1.24"/><path id="_Compound_Path_" data-name="&lt;Compound Path&gt;" d="M52.67,0H45.2a1.5,1.5,0,0,0-1.5,1.5V17.93a1.5,1.5,0,0,1-1.5,1.5H13.93a1.5,1.5,0,0,1-1.5-1.5V1.5A1.5,1.5,0,0,0,10.93,0H1.5A1.5,1.5,0,0,0,0,1.5v61A1.5,1.5,0,0,0,1.5,64h61A1.5,1.5,0,0,0,64,62.5V12.84a1.5,1.5,0,0,0-.37-1L53.8.52A1.5,1.5,0,0,0,52.67,0Zm3.8,58.35H7.53A1.5,1.5,0,0,1,6,56.85V32.73a1.5,1.5,0,0,1,1.5-1.5H56.47a1.5,1.5,0,0,1,1.5,1.5V56.85A1.5,1.5,0,0,1,56.47,58.35Z"/><rect id="_Rectangle_4" data-name="&lt;Rectangle&gt;" x="32.8" y="2.25" width="7.43" height="15.54" rx="1.24" ry="1.24"/></g></svg>