<svg id="Layer_1" data-name="Layer 1" xmlns="http://www.w3.org/2000/svg" viewBox="0 0 1080 680"><defs><style>.cls-1{fill:#fff;}.cls-2{fill:none;stroke:#000;stroke-miterlimit:10;}</style></defs><title>changa_Artboard 3</title><path d="M82.88,554.41a12.76,12.76,0,0,0,3.56-1q2.67-1,3.56-.15A8.48,8.48,0,0,1,88.52,555a23.14,23.14,0,0,1-7,2.52q-4.61,1-8.76,1.63a107.07,107.07,0,0,1-16.93,1,50.89,50.89,0,0,1-17.23-3.42A41.37,41.37,0,0,1,23,547a42.53,42.53,0,0,1-10.25-15.44,69.67,69.67,0,0,1-4.6-18.27,108.82,108.82,0,0,1-.45-18.86A42.76,42.76,0,0,1,13.38,476a35.81,35.81,0,0,1,5.79-7.57,45.18,45.18,0,0,1,7.57-6.09A57.32,57.32,0,0,1,48.57,454a224.41,224.41,0,0,1,22.72-2.38c.6,0,1.53,0,2.82-.15s2.57-.15,3.86-.15a10.43,10.43,0,0,1,3.27.45,1.67,1.67,0,0,1,1.34,1.63.26.26,0,0,0-.3.3c-.59,1-2.13,1.34-4.6,1a53.24,53.24,0,0,0-6.09-.45H65.65a17.34,17.34,0,0,0-2.08.15,27.16,27.16,0,0,1-3.27.15,94.29,94.29,0,0,0-20.64,4.16A46.68,46.68,0,0,0,22,468.88a35.74,35.74,0,0,0-10.1,16.34A40.91,40.91,0,0,0,10,494.27a55.4,55.4,0,0,0-.15,9.06,121.09,121.09,0,0,0,1.48,15,57.62,57.62,0,0,0,3.86,13.51,51.68,51.68,0,0,0,7.28,11.73A35.08,35.08,0,0,0,32.68,552a40.21,40.21,0,0,0,12,4.6,80.18,80.18,0,0,0,12.62,1.63,80,80,0,0,0,12.92-1A110,110,0,0,0,82.88,554.41Z"/><path d="M196.92,544.32a23.72,23.72,0,0,0,.3,3,30.72,30.72,0,0,1,.3,4.31q0,2.23-.15,4.16a4.22,4.22,0,0,1-.74,2.52,7.91,7.91,0,0,1-1.48-4.16,81,81,0,0,1-.89-13.51,157.53,157.53,0,0,0-.89-16.78q-.89-7.72-2.23-15.59a123.22,123.22,0,0,0-3.71-15.59,140.46,140.46,0,0,0-5.64-15.15,43.81,43.81,0,0,0-9.21-13.37,24.88,24.88,0,0,0-14-7.42,23.61,23.61,0,0,0-15.44,3.56A48.13,48.13,0,0,0,130.54,471a89.86,89.86,0,0,0-9.65,14,131.12,131.12,0,0,0-10.25,25.84,191.48,191.48,0,0,0-5.49,27.62A8.45,8.45,0,0,1,105,540a8.1,8.1,0,0,0-.15,1.63,28.15,28.15,0,0,0-.3,4V552q0,3.86-1.19,5-1.49,1.19-2.08-.59V543.87q0-5.19-.3-10.25v-6.83q.29-8.91.3-17.67V491.45q0-22.57.3-43.81t-.3-42.62c0-1.19-.1-3-.3-5.35s-.3-4.75-.3-7.13a56.84,56.84,0,0,1,.3-6.24c.19-1.78.69-2.67,1.49-2.67a.27.27,0,0,1,.3.3q.89.6,1.19,3a45.24,45.24,0,0,1,.3,5.49q0,3.12-.15,6.38t-.15,5.35v21.38q-.3,20.79-.45,40.69t-.15,39.5v29.11a190.77,190.77,0,0,1,6.09-27.92,119.06,119.06,0,0,1,10.84-25.25,90.4,90.4,0,0,1,7.72-11,59.93,59.93,0,0,1,9.51-9.21A32.68,32.68,0,0,1,149,455.36a21.35,21.35,0,0,1,12.92.15A24.66,24.66,0,0,1,173,461.9a53.75,53.75,0,0,1,7.87,9.95,66.2,66.2,0,0,1,5.49,11.29A110.14,110.14,0,0,1,190.09,495a176.46,176.46,0,0,1,4.75,24.5Q196.33,531.85,196.92,544.32Z"/><path d="M300.28,555.31v1.48l-.3.3-.3.3c0-.2-.05-.25-.15-.15s-.15,0-.15-.45l-.89-.89a5.36,5.36,0,0,0-.59-1.49,3.37,3.37,0,0,0-.3-1.48q-.3-2.67-.89-7.72-.3-4.45-.15-9.5t-.15-10.1q0-7.42-.15-14.85t-.15-15.15v-4.46a96.62,96.62,0,0,1-8.32,25.54,81.39,81.39,0,0,1-15.74,22,89.31,89.31,0,0,1-12.92,10.69,60.44,60.44,0,0,1-15,7.42,36.07,36.07,0,0,1-8.46,1.93,37.27,37.27,0,0,1-8.76-.15,32.91,32.91,0,0,1-8.32-2.38,20.21,20.21,0,0,1-7.13-5,21.45,21.45,0,0,1-4.9-7.42,53,53,0,0,1-2.52-8.32,50.45,50.45,0,0,1,0-17.23,91.37,91.37,0,0,1,3.27-16.63A148.6,148.6,0,0,1,213,485.81a82.49,82.49,0,0,1,10.69-18.26,39.73,39.73,0,0,1,16.63-12.62,35.7,35.7,0,0,1,20.49-2.23,72.66,72.66,0,0,1,19.31,6.39,47.77,47.77,0,0,1,4.9,2.08,31.69,31.69,0,0,1,5.79,3.57,24.74,24.74,0,0,1,4.75,3.56q1.78,1.78.89,2.67a.26.26,0,0,1-.3.3,7.34,7.34,0,0,1-3-1.19q-2.08-1.18-4.46-2.82T283.8,464a48.14,48.14,0,0,0-4.31-2.52,48.8,48.8,0,0,0-5.94-2.82q-2.08-.74-3.57-1.34a26.07,26.07,0,0,0-3.27-1c-1.19-.3-3.07-.64-5.64-1a37.26,37.26,0,0,0-18.71,1.19,28.21,28.21,0,0,0-8.17,4.31,68.4,68.4,0,0,0-7,6.09,55,55,0,0,0-10.4,15.3,143.5,143.5,0,0,0-6.53,17.08,174.65,174.65,0,0,0-3.86,17.38,56.74,56.74,0,0,0-.3,17.37,34.32,34.32,0,0,0,2.23,8.17,23.6,23.6,0,0,0,4.31,7,21.29,21.29,0,0,0,14,7.13,29.67,29.67,0,0,0,13.22-.59,68.11,68.11,0,0,0,32.52-20.2,78.64,78.64,0,0,0,13.81-20.2,99.5,99.5,0,0,0,7.57-22.57,61.69,61.69,0,0,0,1.78-11.88v-2.82a14.3,14.3,0,0,1,.3-2.82v-2.67l.3.3v-.89c0-.19,0-.3.15-.3s.15-.1.15-.3H297c.6,0,.89.2.89.59v3q.29,5.94.3,11.73v11.73q.29,11.58.45,23.31t.74,23.61c0,.4,0,1.19.15,2.38s.25,2.58.45,4.16a13.42,13.42,0,0,0,.15,1.93A12.41,12.41,0,0,1,300.28,555.31Zm-1.19,2.38c0-.2.19-.3.59-.3A.85.85,0,0,0,299.09,557.68Z"/><path d="M417.9,547.29v6.09a20.25,20.25,0,0,1-.3,3.56q-.3,1.63-.89,1.93c-.4-.4-.79-1.58-1.19-3.56a68.65,68.65,0,0,1-.3-11.58q.29-7.13,0-14a258,258,0,0,0-3.27-27,105.36,105.36,0,0,0-8.32-26.43,61.49,61.49,0,0,0-7.87-11.58A26.17,26.17,0,0,0,384.33,457a23.5,23.5,0,0,0-13.81-.6,39.35,39.35,0,0,0-12.92,5.94,67.52,67.52,0,0,0-19.9,21.09,150.16,150.16,0,0,0-12.77,26.73,135.65,135.65,0,0,0-6.53,29.4q-.3,1.78-.45,3.56c-.1,1.19-.25,2.48-.45,3.86a7.78,7.78,0,0,1-.3,2.38,9.14,9.14,0,0,0-.15,3,18.31,18.31,0,0,1,0,3.27,3.43,3.43,0,0,1-.74,2.08c-.4.39-1,.3-1.78-.3-.59-.4-.79-1.34-.59-2.82a31.28,31.28,0,0,0,.3-4v-3.27a.26.26,0,0,1,.3-.3q.29-19.3.59-37.57t.3-36.38c0-1-.1-2.52-.3-4.6s-.3-4.11-.3-6.09a36.51,36.51,0,0,1,.3-5c.2-1.38.69-2.08,1.49-2.08h.3q.89.6,1,2.67t.15,4.75q0,2.67-.15,5.35t-.15,4.45q0,4.16-.15,6.09t-.15,3.56v8.76q-.3,8.62-.3,17.38t-.3,17.37v8.61A146.15,146.15,0,0,1,328.2,495.9,115,115,0,0,1,341,475a61.06,61.06,0,0,1,17.52-15.59A37.3,37.3,0,0,1,369,454.62a26.41,26.41,0,0,1,11.14-.59,21.64,21.64,0,0,1,10.54,3.86,45.31,45.31,0,0,1,8.17,7.43,61.49,61.49,0,0,1,10.25,18.86,140.62,140.62,0,0,1,5.2,20.64q1.78,10.4,2.52,20.94T417.9,547.29Z"/><path d="M526.6,492.64q1.48,24.06.89,46.78A206.89,206.89,0,0,1,522.14,582a124.73,124.73,0,0,1-5,16.19,93.11,93.11,0,0,1-7.13,14.4,53.39,53.39,0,0,1-10,12,36.51,36.51,0,0,1-12.92,7.57,39.71,39.71,0,0,1-14.55,3.12A64.9,64.9,0,0,1,458,634a141.69,141.69,0,0,1-14.11-3.71,108.63,108.63,0,0,1-13.81-5.49,13.69,13.69,0,0,0-3.71-1.78q-3.12-1.19-3.12-2.67a2,2,0,0,1,1.34-.15,7,7,0,0,0,1.34.15,25.67,25.67,0,0,1,7.57,3,78.14,78.14,0,0,0,8.76,4.16,98.89,98.89,0,0,0,17.82,4.9,56.56,56.56,0,0,0,18.71.15,39.34,39.34,0,0,0,17.52-7.42,41.7,41.7,0,0,0,7-6.83,91.74,91.74,0,0,0,5.79-8,85.12,85.12,0,0,0,8-18.41,171.64,171.64,0,0,0,4.75-19.9,200.44,200.44,0,0,0,2.52-20.35q.74-10.25,1-20.64a430.78,430.78,0,0,0-1.78-45.44q-.3,2.38-.59,5t-.6,5a108.68,108.68,0,0,1-7,23.17,71.23,71.23,0,0,1-13.81,21.09,67.88,67.88,0,0,1-20.79,15.44A49.1,49.1,0,0,1,468.09,559a37.4,37.4,0,0,1-13.66-.45,25.72,25.72,0,0,1-12.32-5.79,31.09,31.09,0,0,1-8.46-11.14,33.37,33.37,0,0,1-3.27-13.07q-.3-6.83-.6-13.66,0-6.83.45-13.51a84.74,84.74,0,0,1,1.93-13.22,59.76,59.76,0,0,1,4.46-13.07,40.45,40.45,0,0,1,8-11.29,32,32,0,0,1,14.7-8.91,54.73,54.73,0,0,1,16.78-2.08,108.65,108.65,0,0,1,16.19,2.38,146.66,146.66,0,0,1,15.59,4.46,22.73,22.73,0,0,0,3.86,1.34,46.31,46.31,0,0,1,5.2,1.78A20.51,20.51,0,0,1,521.1,465q1.63,1.19,1,2.38l-.3.3a4.52,4.52,0,0,1-2.67-.3c-1.19-.4-2.48-.89-3.86-1.49s-2.78-1.23-4.16-1.93-2.58-1.23-3.56-1.63q-3.27-1.18-4.9-1.93a15.62,15.62,0,0,0-3-1c-.89-.2-1.88-.4-3-.6a44.57,44.57,0,0,1-4.6-1.19,96.78,96.78,0,0,0-15-2.38,47.93,47.93,0,0,0-15,1.19,33.93,33.93,0,0,0-13.07,6.54,34.54,34.54,0,0,0-9.21,11,60.77,60.77,0,0,0-5,13.22A85.93,85.93,0,0,0,432.45,501a122.81,122.81,0,0,0-.45,13.51q.15,6.68.74,13.22A49.65,49.65,0,0,0,435,538.23a29.73,29.73,0,0,0,4.9,9.06,24.81,24.81,0,0,0,7.57,6.53,29.88,29.88,0,0,0,9.35,3.27A37.5,37.5,0,0,0,476.11,555a62.59,62.59,0,0,0,16.63-9.51,68.36,68.36,0,0,0,22-29.4,94.83,94.83,0,0,0,6.53-36.23c0-.59-.1-2-.3-4.16a12.87,12.87,0,0,1,.3-5q0-2.07,1.19-2.38h.6q1.48.6,1.78,4.9t.59,7q.29,2.67.45,4c.1.89.19,1.68.3,2.38s.19,1.44.3,2.23A35.58,35.58,0,0,1,526.6,492.64Z"/><path d="M633.82,555.31v1.48l-.3.3-.3.3c0-.2-.05-.25-.15-.15s-.15,0-.15-.45l-.89-.89a5.36,5.36,0,0,0-.59-1.49,3.37,3.37,0,0,0-.3-1.48q-.3-2.67-.89-7.72-.3-4.45-.15-9.5t-.15-10.1q0-7.42-.15-14.85t-.15-15.15v-4.46a96.62,96.62,0,0,1-8.32,25.54,81.39,81.39,0,0,1-15.74,22,89.31,89.31,0,0,1-12.92,10.69,60.44,60.44,0,0,1-15,7.42,36.07,36.07,0,0,1-8.46,1.93,37.27,37.27,0,0,1-8.76-.15,32.91,32.91,0,0,1-8.32-2.38,20.21,20.21,0,0,1-7.13-5,21.45,21.45,0,0,1-4.9-7.42,53,53,0,0,1-2.52-8.32,50.45,50.45,0,0,1,0-17.23,91.37,91.37,0,0,1,3.27-16.63,148.6,148.6,0,0,1,5.64-15.74,82.49,82.49,0,0,1,10.69-18.26,39.73,39.73,0,0,1,16.63-12.62,35.7,35.7,0,0,1,20.49-2.23,72.66,72.66,0,0,1,19.31,6.39,47.77,47.77,0,0,1,4.9,2.08,31.69,31.69,0,0,1,5.79,3.57,24.74,24.74,0,0,1,4.75,3.56q1.78,1.78.89,2.67a.26.26,0,0,1-.3.3,7.34,7.34,0,0,1-3-1.19q-2.08-1.18-4.46-2.82t-4.9-3.27a48.14,48.14,0,0,0-4.31-2.52,48.8,48.8,0,0,0-5.94-2.82q-2.08-.74-3.57-1.34a26.07,26.07,0,0,0-3.27-1c-1.19-.3-3.07-.64-5.64-1a37.26,37.26,0,0,0-18.71,1.19,28.21,28.21,0,0,0-8.17,4.31,68.4,68.4,0,0,0-7,6.09,55,55,0,0,0-10.4,15.3,143.5,143.5,0,0,0-6.53,17.08A174.65,174.65,0,0,0,540,516.55a56.74,56.74,0,0,0-.3,17.37,34.32,34.32,0,0,0,2.23,8.17,23.6,23.6,0,0,0,4.31,7,21.29,21.29,0,0,0,14,7.13,29.67,29.67,0,0,0,13.22-.59,68.11,68.11,0,0,0,32.52-20.2,78.64,78.64,0,0,0,13.81-20.2,99.5,99.5,0,0,0,7.57-22.57,61.69,61.69,0,0,0,1.78-11.88v-2.82a14.3,14.3,0,0,1,.3-2.82v-2.67l.3.3v-.89c0-.19,0-.3.15-.3s.15-.1.15-.3h.59c.6,0,.89.2.89.59v3q.29,5.94.3,11.73v11.73q.29,11.58.45,23.31t.74,23.61c0,.4,0,1.19.15,2.38s.25,2.58.45,4.16a13.42,13.42,0,0,0,.15,1.93A12.41,12.41,0,0,1,633.82,555.31Zm-1.19,2.38c0-.2.19-.3.59-.3A.85.85,0,0,0,632.63,557.68Z"/><path d="M761.23,494.72a51.68,51.68,0,0,1-3,29.11A49.07,49.07,0,0,1,741,544.91a60.73,60.73,0,0,1-24.06,10,120.4,120.4,0,0,1-26.14,1.63q-1.49.6-5.35,0,0,18.71.15,35.2T687,625.1c0,.39.1,1.38.3,3s-.1,2.57-.89,3a6.88,6.88,0,0,1-1.19-1.78,10.7,10.7,0,0,1-.89-5.79,38.38,38.38,0,0,0,0-6.68q-.89-26.14-.89-54.95t-.3-57.92q0-9.2.15-18.12t-.15-17.52a8.7,8.7,0,0,0-.45-2.08,10.27,10.27,0,0,1-.45-3,9.25,9.25,0,0,1,.3-2.52,1.37,1.37,0,0,1,1.49-1,7.7,7.7,0,0,1,3.86-2.67q3-1.18,4.75-1.78,2.37-.89,3.42-1.34c.69-.3,1.34-.54,1.93-.74s1.23-.39,1.93-.59,1.83-.49,3.42-.89a48,48,0,0,1,21.53.15,41.84,41.84,0,0,1,18.56,9.35,50,50,0,0,1,12,15.74A65.94,65.94,0,0,1,761.23,494.72Zm-75.44,59.4a22.37,22.37,0,0,1,7.28,0,40.26,40.26,0,0,0,8.46.3A102.13,102.13,0,0,0,718,552.49,63,63,0,0,0,733.9,547a46.37,46.37,0,0,0,13.66-10.4,43.71,43.71,0,0,0,8.91-14.85,54,54,0,0,0,3.12-17.37,56.14,56.14,0,0,0-2.52-17.67,53.39,53.39,0,0,0-8-15.89,46,46,0,0,0-13.07-12,37.64,37.64,0,0,0-21.09-6.09,52.1,52.1,0,0,0-21.09,4.6,18.5,18.5,0,0,0-3.86,2.38,14.12,14.12,0,0,1-4.46,2.38,11,11,0,0,1,.15,3.12c-.1,1.09-.15,2-.15,2.82v8.91q-.3,16.93-.15,33t.15,30.29v14Z"/><path d="M778.45,555.31a7.94,7.94,0,0,0,.3,1.78,1.45,1.45,0,0,1-.89,1.78,1.78,1.78,0,0,1-1.19-1.19,4.2,4.2,0,0,1-.89-3.42,13.86,13.86,0,0,0,0-4q-.6-15.74-.6-33.12v-34.9q0-5.64.15-11t-.15-10.4c-.2-.79-.5-1.88-.89-3.27s.19-2.08,1.78-2.08h.59c1,.2,1.38.89,1.19,2.08a18.48,18.48,0,0,0-.3,3,9,9,0,0,0-.15,2.67,11.76,11.76,0,0,1,.15,2.67q-.3,10.4-.15,19.9t-.15,18.12v26.73Q777.26,542.84,778.45,555.31Z"/><path d="M869.93,554.41a12.76,12.76,0,0,0,3.56-1q2.67-1,3.56-.15a8.48,8.48,0,0,1-1.48,1.78,23.14,23.14,0,0,1-7,2.52q-4.61,1-8.76,1.63a107.07,107.07,0,0,1-16.93,1,50.89,50.89,0,0,1-17.23-3.42,41.37,41.37,0,0,1-15.59-9.8,42.53,42.53,0,0,1-10.25-15.44,69.67,69.67,0,0,1-4.6-18.27,108.82,108.82,0,0,1-.45-18.86A42.76,42.76,0,0,1,800.43,476a35.81,35.81,0,0,1,5.79-7.57,45.18,45.18,0,0,1,7.57-6.09A57.32,57.32,0,0,1,835.62,454a224.41,224.41,0,0,1,22.72-2.38c.6,0,1.53,0,2.82-.15s2.57-.15,3.86-.15a10.43,10.43,0,0,1,3.27.45,1.67,1.67,0,0,1,1.34,1.63.26.26,0,0,0-.3.3c-.59,1-2.13,1.34-4.6,1a53.24,53.24,0,0,0-6.09-.45H852.7a17.34,17.34,0,0,0-2.08.15,27.16,27.16,0,0,1-3.27.15,94.29,94.29,0,0,0-20.64,4.16A46.68,46.68,0,0,0,809,468.88a35.74,35.74,0,0,0-10.1,16.34,40.91,40.91,0,0,0-1.93,9.06,55.4,55.4,0,0,0-.15,9.06,121.09,121.09,0,0,0,1.48,15,57.62,57.62,0,0,0,3.86,13.51,51.68,51.68,0,0,0,7.28,11.73A35.08,35.08,0,0,0,819.73,552a40.21,40.21,0,0,0,12,4.6,61.53,61.53,0,0,0,25.54.59A110,110,0,0,0,869.93,554.41Z"/><path d="M983.68,451.95a8.05,8.05,0,0,0,1.78-.3,1.09,1.09,0,0,1,1.48.89,7,7,0,0,1-.89,1.49,5,5,0,0,1-3.42.59,13.74,13.74,0,0,0-4,0q-20.49.89-44.25.89v9.8q-.3,24.65-.15,45.14T935.56,552c0,.4.1,1.34.3,2.82s-.1,2.43-.89,2.82a3.17,3.17,0,0,1-1.19-1.49,15.17,15.17,0,0,1-.74-5.94,52.72,52.72,0,0,0-.15-6.83q-.6-20.49-.74-42.62T932,455.51q-4.75,0-9.35-.15t-9.36-.15q-5.35,0-10.39-.15a69.49,69.49,0,0,0-10.1.45,12.67,12.67,0,0,0-3,.59q-2.08.6-2.08-1.78V454c.19-1,.89-1.43,2.08-1.34s2.08.15,2.67.15a9,9,0,0,0,2.67.15,11.69,11.69,0,0,1,2.67-.15q9.2.6,17.82.45t16.34-.15V428.78q0-9.5.15-18.41t-.45-17.82a13.14,13.14,0,0,0-.3-2.38,15,15,0,0,1-.3-3,9.25,9.25,0,0,1,.3-2.52,1.37,1.37,0,0,1,1.49-1h.3c1,.4,1.43,1.63,1.34,3.71s-.15,3.71-.15,4.9v8.91q-.3,13.66-.15,26.73t.15,25.25q14,.3,25.54.3A195.66,195.66,0,0,0,983.68,451.95Z"/><path d="M1072.48,503.33q0,6.24-.3,12.62a73.8,73.8,0,0,1-1.78,12.92,72.36,72.36,0,0,1-4.16,12.33,30,30,0,0,1-7.72,10.54,29.27,29.27,0,0,1-11.14,5.79,57.83,57.83,0,0,1-12,1.93,57,57,0,0,1-12.18-.74,39.22,39.22,0,0,1-11.88-4q-11.88-5.94-17.52-19a50.26,50.26,0,0,1-4.31-12.48,84.35,84.35,0,0,1-1.63-13.37,75.9,75.9,0,0,1,.74-17.08,41.58,41.58,0,0,1,5.49-15.3,48.14,48.14,0,0,1,6.83-9.06,64.47,64.47,0,0,1,8.32-7.28,4.67,4.67,0,0,1,1.19-.89l1.19-.59a71.94,71.94,0,0,1,11.88-5.49,22.55,22.55,0,0,1,12.18-1,5.44,5.44,0,0,1-3,1.78,78.58,78.58,0,0,0-11.29,2.52,32.65,32.65,0,0,0-10.1,5.2l-1.19.59a4.64,4.64,0,0,0-1.19.89,16.47,16.47,0,0,1-1.34,1.19c-.5.4-1.14.89-1.93,1.48a40,40,0,0,0-9.51,10.84,42.82,42.82,0,0,0-5.35,13.51,64.42,64.42,0,0,0-1.34,14.55,100.2,100.2,0,0,0,1.34,14.55A75.72,75.72,0,0,0,995,533.48a36.92,36.92,0,0,0,7.13,11.14,30.39,30.39,0,0,0,9.65,7.87,44,44,0,0,0,11.14,4,47.51,47.51,0,0,0,9.8.74q4.75-.15,9.5-.74a29.68,29.68,0,0,0,8.91-2.52,25.71,25.71,0,0,0,7.43-5.2,30.31,30.31,0,0,0,5.49-7.57,43.36,43.36,0,0,0,3.42-8.76,90.35,90.35,0,0,0,3-18.71,117.82,117.82,0,0,0-.3-18.71,50.71,50.71,0,0,0-4.75-17.23,37.34,37.34,0,0,0-5.64-8.76,35.3,35.3,0,0,0-7.42-6.39,3,3,0,0,0-1-.74,2.87,2.87,0,0,1-1-.74,8.56,8.56,0,0,1-1-.59,11,11,0,0,0-1-.59l-1.19-.59-1.19-.6a22.16,22.16,0,0,0-5.35-2.38,21.75,21.75,0,0,1-5.35-2.37,6,6,0,0,1,5.79,0q2.82,1.49,5.49,2.67a6.76,6.76,0,0,1,2.37,1.19,10.79,10.79,0,0,1,1,.59,8.56,8.56,0,0,0,1,.59,12.74,12.74,0,0,0,2.67,1.49,44,44,0,0,1,8.17,7.87,42.74,42.74,0,0,1,6.09,10.25,59.48,59.48,0,0,1,3.42,12A103.54,103.54,0,0,1,1072.48,503.33Z"/><g id="_Group_" data-name="&lt;Group&gt;"><path d="M612.95,186c87.66,9.18,150.9,35.34,150.9,66.18,0,38.53-98.72,69.75-220.51,69.75s-220.51-31.22-220.51-69.75c0-30.63,62.47-56.65,149.27-66,0,1.59-.07,3.19-.07,4.78a140.71,140.71,0,0,1,45.74,7.59,197.54,197.54,0,0,0-54.43,67.88q11.75,1.35,23.63,2.32c-.28.49-.52,1-.76,1.46a492.34,492.34,0,0,0,56.34,3.22,491.73,491.73,0,0,0,56.31-3.22c-.24-.52-.52-1-.76-1.52,7.73-.62,15.42-1.35,23-2.25a197.62,197.62,0,0,0-54.26-67.74A140.38,140.38,0,0,1,613,191C613,189.33,613,187.7,612.95,186Z"/><path class="cls-1" d="M612.95,186c0,1.66.07,3.29.07,5a140.38,140.38,0,0,0-46.15,7.73,197.84,197.84,0,0,0-23.6-16.25h.07A662.55,662.55,0,0,1,612.95,186Z"/><path class="cls-1" d="M621.12,266.46c-7.62.9-15.31,1.63-23,2.25a141.32,141.32,0,0,0-55.54-58.87,140.52,140.52,0,0,1,24.32-11.12A197.62,197.62,0,0,1,621.12,266.46Z"/><polygon points="554.91 101.29 598.84 177.38 586.47 177.38 548.74 112 554.91 101.29"/><path class="cls-1" d="M598.08,268.71c.24.49.52,1,.76,1.52a491.73,491.73,0,0,1-56.31,3.22,492.34,492.34,0,0,1-56.34-3.22c.24-.49.49-1,.76-1.46,18.12,1.46,36.59,2.18,55.27,2.18Q570.55,271,598.08,268.71Z"/><path class="cls-1" d="M562.36,82.72A140.68,140.68,0,0,1,612.95,186a662.55,662.55,0,0,0-69.61-3.57h-.07l-1-.62-1,.62a660.41,660.41,0,0,0-69.09,3.74A140.67,140.67,0,0,1,522.72,82.68a23,23,0,0,0,5.61,5.68v0a24.2,24.2,0,0,0,28.41,0v0A23.49,23.49,0,0,0,562.36,82.72Zm36.49,94.66-43.94-76.09L548.74,112l-6.2-10.71L537,111l-5.61-9.7-43.94,76.09H598.84Z"/><polygon class="cls-1" points="548.74 112 586.47 177.38 575.32 177.38 543.13 121.7 548.74 112"/><path class="cls-1" d="M542.54,209.85a141.32,141.32,0,0,1,55.54,58.87q-27.49,2.23-55.85,2.25c-18.68,0-37.14-.73-55.27-2.18A141.37,141.37,0,0,1,542.54,209.85Z"/><polygon points="543.13 121.7 575.32 177.38 510.97 177.38 543.13 121.7"/><path class="cls-1" d="M562.36,82.72a23.49,23.49,0,0,1-5.61,5.65l-2.39-3.22a19,19,0,0,0,4.85-5C560.28,81,561.32,81.82,562.36,82.72Z"/><path class="cls-1" d="M559.2,80.15a19,19,0,0,1-4.85,5L552,81.89a16,16,0,0,0,4-4.19C557.09,78.49,558.17,79.32,559.2,80.15Z"/><path class="cls-1" d="M556.74,88.36v0a24.2,24.2,0,0,1-28.41,0v0l2.36-3.22a20.13,20.13,0,0,0,23.67,0Z"/><path class="cls-1" d="M556,77.69a16,16,0,0,1-4,4.19l-2.36-3.29a11.52,11.52,0,0,0,3.08-3.26C553.83,76.1,554.94,76.9,556,77.69Z"/><path class="cls-1" d="M552,81.89l2.36,3.26a20.13,20.13,0,0,1-23.67,0l2.39-3.26a16,16,0,0,0,18.92,0Z"/><path class="cls-1" d="M549.64,78.59,552,81.89a16,16,0,0,1-18.92,0l2.36-3.29a12,12,0,0,0,14.21,0Z"/><path class="cls-1" d="M552.73,75.34a11.52,11.52,0,0,1-3.08,3.26l-2.36-3.26a8.19,8.19,0,0,0,2.11-2.25C550.54,73.81,551.62,74.54,552.73,75.34Z"/><path class="cls-1" d="M547.29,75.34l2.36,3.26a12,12,0,0,1-14.21,0l2.36-3.22a8,8,0,0,0,4.75,1.52A8.11,8.11,0,0,0,547.29,75.34Z"/><path class="cls-1" d="M549.4,73.08a8.19,8.19,0,0,1-2.11,2.25l-2.39-3.26A2.94,2.94,0,0,0,546,70.9C547.11,71.59,548.29,72.32,549.4,73.08Z"/><polygon class="cls-1" points="548.74 112 543.13 121.7 536.96 110.99 542.54 101.29 548.74 112"/><path class="cls-1" d="M543.27,182.47a197.84,197.84,0,0,1,23.6,16.25,140.52,140.52,0,0,0-24.32,11.12,139.18,139.18,0,0,0-24.77-11.26,194.81,194.81,0,0,1,23.42-16.11Z"/><path class="cls-1" d="M544.89,72.08l2.39,3.26a8.11,8.11,0,0,1-4.75,1.56,8,8,0,0,1-4.75-1.52l2.39-3.29a3.88,3.88,0,0,0,4.71,0Z"/><path class="cls-1" d="M542.54,68.82q1.72,1,3.43,2.08a2.94,2.94,0,0,1-1.07,1.18Z"/><path class="cls-1" d="M542.54,68.82l2.36,3.26a3.88,3.88,0,0,1-4.71,0Z"/><path class="cls-1" d="M543.27,182.47h-2.08l1-.62Z"/><polygon class="cls-1" points="536.96 110.99 543.13 121.7 510.97 177.38 498.6 177.38 536.96 110.99"/><path class="cls-1" d="M542.54,68.82l-2.36,3.26a3.3,3.3,0,0,1-1.11-1.18C540.22,70.17,541.36,69.48,542.54,68.82Z"/><path class="cls-1" d="M540.18,72.08l-2.39,3.29A8,8,0,0,1,535.68,73c1.11-.73,2.25-1.46,3.4-2.15A3.3,3.3,0,0,0,540.18,72.08Z"/><path class="cls-1" d="M537.79,75.37l-2.36,3.22a11.52,11.52,0,0,1-3.08-3.26q1.66-1.2,3.33-2.29A8,8,0,0,0,537.79,75.37Z"/><polygon points="531.35 101.29 536.96 110.99 498.6 177.38 487.41 177.38 531.35 101.29"/><path class="cls-1" d="M535.44,78.59l-2.36,3.29a15.44,15.44,0,0,1-4-4.19c1.07-.83,2.18-1.59,3.29-2.36A11.52,11.52,0,0,0,535.44,78.59Z"/><path class="cls-1" d="M533.08,81.89l-2.39,3.26a19.54,19.54,0,0,1-4.85-5c1-.83,2.11-1.66,3.22-2.46A15.44,15.44,0,0,0,533.08,81.89Z"/><path class="cls-1" d="M530.69,85.14l-2.36,3.22a23,23,0,0,1-5.61-5.68c1-.87,2-1.7,3.12-2.53A19.54,19.54,0,0,0,530.69,85.14Z"/><path class="cls-1" d="M541.19,182.47a194.81,194.81,0,0,0-23.42,16.11A140.71,140.71,0,0,0,472,191c0-1.59,0-3.19.07-4.78A660.41,660.41,0,0,1,541.19,182.47Z"/><path class="cls-1" d="M517.76,198.58a139.18,139.18,0,0,1,24.77,11.26A141.37,141.37,0,0,0,487,268.78q-11.9-1-23.63-2.32A197.54,197.54,0,0,1,517.76,198.58Z"/><path class="cls-2" d="M487,268.78q-11.9-1-23.63-2.32"/><path class="cls-2" d="M621.12,266.46c-7.62.9-15.31,1.63-23,2.25"/><path class="cls-2" d="M463.33,266.46a197.54,197.54,0,0,1,54.43-67.88"/><path class="cls-2" d="M621.12,266.46a197.62,197.62,0,0,0-54.26-67.74"/><path class="cls-2" d="M542.54,209.85A141.37,141.37,0,0,0,487,268.78c-.28.49-.52,1-.76,1.46a492.34,492.34,0,0,0,56.34,3.22,491.73,491.73,0,0,0,56.31-3.22c-.24-.52-.52-1-.76-1.52A141.32,141.32,0,0,0,542.54,209.85Z"/><path class="cls-2" d="M542.54,68.82c-1.18.66-2.32,1.35-3.46,2.08s-2.29,1.42-3.4,2.15-2.22,1.49-3.33,2.29-2.22,1.52-3.29,2.36-2.18,1.63-3.22,2.46-2.11,1.66-3.12,2.53A140.67,140.67,0,0,0,472.1,186.21c0,1.59-.07,3.19-.07,4.78a140.71,140.71,0,0,1,45.74,7.59,139.18,139.18,0,0,1,24.77,11.26A140.31,140.31,0,0,1,613,191c0-1.66,0-3.29-.07-5A140.68,140.68,0,0,0,562.36,82.72c-1-.9-2.08-1.73-3.15-2.56s-2.11-1.66-3.19-2.46-2.18-1.59-3.29-2.36-2.18-1.52-3.33-2.25-2.29-1.49-3.43-2.18S543.68,69.48,542.54,68.82Z"/><polyline class="cls-2" points="586.47 177.38 548.74 112 542.54 101.29 536.96 110.99 498.6 177.38"/><line class="cls-2" x1="575.32" y1="177.38" x2="543.13" y2="121.7"/><polyline class="cls-2" points="536.96 110.99 531.35 101.29 487.41 177.38 498.6 177.38 510.97 177.38"/><polyline class="cls-2" points="543.13 121.7 510.97 177.38 575.32 177.38 586.47 177.38 598.84 177.38 554.91 101.29 548.74 112"/><path class="cls-2" d="M522.72,82.68a23.87,23.87,0,0,1-4.37-13.86,24.19,24.19,0,1,1,44,13.89"/><path class="cls-2" d="M535.68,73a8.12,8.12,0,0,1-1.21-4.23,8.53,8.53,0,0,1,.38-2.49,8.11,8.11,0,0,1,15.38,0,8.53,8.53,0,0,1,.38,2.49,8.15,8.15,0,0,1-1.21,4.26"/><polyline class="cls-2" points="542.54 68.82 542.54 64.8 542.54 60.78"/><polyline class="cls-2" points="542.54 68.82 538.69 67.58 534.85 66.33"/><polyline class="cls-2" points="542.54 68.82 546.35 67.58 550.23 66.33"/></g><path class="cls-1" d="M532.94,252.88c0-8.61,4.65-15.59,10.39-15.59-16.27,0-29.45,7-29.45,15.59s13.19,15.59,29.45,15.59C537.59,268.47,532.94,261.49,532.94,252.88Z"/><path d="M543.34,269.6c-17.15,0-30.58-7.34-30.58-16.72s13.43-16.72,30.58-16.72v2.25c-5.11,0-9.27,6.49-9.27,14.47s4.16,14.47,9.27,14.47Zm-6.16-30.84C524.51,240.2,515,246,515,252.88s9.5,12.68,22.17,14.12c-3.22-3-5.36-8.19-5.36-14.12S534,241.72,537.18,238.76Z"/><path class="cls-1" d="M543.34,237.29c5.74,0,10.39,7,10.39,15.59s-4.65,15.59-10.39,15.59c16.27,0,29.45-7,29.45-15.59S559.6,237.29,543.34,237.29Z"/><path d="M543.34,269.6v-2.25c5.11,0,9.27-6.49,9.27-14.47s-4.16-14.47-9.27-14.47v-2.25c17.15,0,30.58,7.34,30.58,16.72S560.48,269.6,543.34,269.6Zm6.16-30.84c3.22,3,5.36,8.19,5.36,14.12S552.71,264,549.49,267c12.67-1.44,22.17-7.23,22.17-14.12S562.16,240.2,549.49,238.76Z"/><ellipse cx="543.31" cy="252.88" rx="10.28" ry="15.59"/></svg>