<?xml version="1.0" encoding="utf-8"?>
<!-- Generator: Adobe Illustrator 21.0.2, SVG Export Plug-In . SVG Version: 6.00 Build 0)  -->
<svg version="1.1" id="icons" xmlns="http://www.w3.org/2000/svg" xmlns:xlink="http://www.w3.org/1999/xlink" x="0px" y="0px"
	 viewBox="0 0 64 64" style="enable-background:new 0 0 64 64;" xml:space="preserve">
<style type="text/css">
	.st0{stroke:#FFFFFF;stroke-width:0;stroke-linecap:round;stroke-linejoin:round;}
	.st1{fill:none;stroke:#000000;stroke-width:1.5;stroke-miterlimit:10;}
</style>
<g id="XMLID_4329_">
	<g id="XMLID_4330_">
		<circle id="XMLID_4335_" cx="32" cy="12.2" r="0.6"/>
		<circle id="XMLID_4334_" cx="32" cy="51.1" r="0.6"/>
		<circle id="XMLID_4333_" cx="11.9" cy="32" r="0.6"/>
		<circle id="XMLID_4332_" cx="51.6" cy="32" r="0.6"/>
		<g id="XMLID_4331_">
			<circle cx="31.8" cy="34.3" r="3.1"/>
		</g>
		<g>
			<path d="M31.8,30.1c0.4,0,0.7,0.1,1,0.1c0-0.2,0-0.3,0-0.5c0-1.6,0-3.2-0.1-4.7c-0.1-3.2-0.3-6.3-0.7-9.5c-0.5,3.1-0.8,6.3-1,9.5
				c-0.1,1.6-0.2,3.2-0.2,4.7c0,0.2,0,0.3,0,0.5C31.2,30.1,31.5,30.1,31.8,30.1z"/>
			<path d="M37.1,38.7c-0.6-0.7-1.3-1.4-1.9-2.1c-0.3,0.5-0.8,0.9-1.3,1.2c0.7,0.7,1.5,1.3,2.2,1.9c1.7,1.5,3.5,2.9,5.4,4.3
				C40.1,42.2,38.7,40.5,37.1,38.7z"/>
		</g>
	</g>
</g>
<g id="XMLID_4339_">
	<path d="M32,10.8c11.7,0,21.2,9.5,21.2,21.2S43.7,53.2,32,53.2S10.8,43.7,10.8,32S20.3,10.8,32,10.8 M32,9.3
		C19.5,9.3,9.3,19.5,9.3,32S19.5,54.7,32,54.7S54.7,44.5,54.7,32S44.5,9.3,32,9.3L32,9.3z"/>
</g>
<path d="M32,0C14.3,0,0,14.3,0,32s14.3,32,32,32s32-14.3,32-32S49.7,0,32,0z M48.5,51.2c0.4,0.4,0.4,1,0,1.4l-1.6,1.6
	c-0.4,0.4-1,0.4-1.4,0l-2.4-2.4c-3.3,1.8-7,2.9-11.1,2.9s-7.8-1.1-11.1-2.9l-2.4,2.4c-0.4,0.4-1,0.4-1.4,0l-1.6-1.6
	c-0.4-0.4-0.4-1,0-1.4l1.8-1.8C12.4,45.2,9.3,38.9,9.3,32c0-3.8,0.9-7.3,2.6-10.5l-0.4,0.3c-1.9-2.8,0.1-7.4,4.4-10.2
	c3.5-2.3,7.4-2.8,9.8-1.4c2-0.6,4.1-0.9,6.3-0.9s4.3,0.3,6.3,0.9c2.3-1.4,6.3-1,9.8,1.4c4.3,2.8,6.3,7.4,4.4,10.2l-0.4-0.3
	c1.6,3.1,2.6,6.7,2.6,10.5c0,6.9-3.1,13.2-8.1,17.3L48.5,51.2z"/>
</svg>
