<svg id="icons" xmlns="http://www.w3.org/2000/svg" viewBox="0 0 64 64"><title>changa_list</title><path d="M6.94,6.14v5.44H1.5V6.14H6.94m.5-1.5H1a1,1,0,0,0-1,1v6.44a1,1,0,0,0,1,1H7.44a1,1,0,0,0,1-1V5.64a1,1,0,0,0-1-1Z"/><path d="M6.94,30.67v5.44H1.5V30.67H6.94m.5-1.5H1a1,1,0,0,0-1,1v6.44a1,1,0,0,0,1,1H7.44a1,1,0,0,0,1-1V30.17a1,1,0,0,0-1-1Z"/><path d="M6.94,55.21v5.44H1.5V55.21H6.94m.5-1.5H1a1,1,0,0,0-1,1v6.44a1,1,0,0,0,1,1H7.44a1,1,0,0,0,1-1V54.71a1,1,0,0,0-1-1Z"/><rect x="11.66" y="7.54" width="52.34" height="2.71" rx="1" ry="1"/><rect x="11.66" y="32.04" width="52.34" height="2.71" rx="1" ry="1"/><rect x="11.66" y="56.58" width="52.34" height="2.71" rx="1" ry="1"/></svg>