<svg id="icons" xmlns="http://www.w3.org/2000/svg" viewBox="0 0 64 64"><title>changa_lock-open</title><path id="_Compound_Path_" data-name="&lt;Compound Path&gt;" d="M32,19A22.49,22.49,0,1,0,54.49,41.51,22.51,22.51,0,0,0,32,19ZM33.49,41.3V55.14H30.2V41.19a4.61,4.61,0,1,1,3.29.1Z"/><path id="_Path_" data-name="&lt;Path&gt;" d="M33.15,0H30.85C23.66,0,17.7,5.62,16.55,13h5.17c1-4.52,4.73-7.88,9.13-7.88h2.31c5.2,0,9.43,4.68,9.43,10.44v5A23.59,23.59,0,0,1,47.67,24V15.53C47.67,7,41.16,0,33.15,0Z"/></svg>