<svg id="icons" xmlns="http://www.w3.org/2000/svg" viewBox="0 0 64 64"><title>changa_sound-volume-mute-square</title><path d="M62,0H2A2,2,0,0,0,0,2V62a2,2,0,0,0,2,2H62a2,2,0,0,0,2-2V2A2,2,0,0,0,62,0ZM35.64,48.37a1,1,0,0,1-1.56.82L21.33,40.33l-7.11,0a2.49,2.49,0,0,1-2.38-1.8V25.26a2.49,2.49,0,0,1,2.3-1.57l7.23,0,12.71-8.84a1,1,0,0,1,1.56.82Zm16-12.52a1.8,1.8,0,0,1,0,2.53l-.55.55a1.8,1.8,0,0,1-2.53,0l-3.49-3.49-3.49,3.49a1.8,1.8,0,0,1-2.53,0l-.55-.55a1.8,1.8,0,0,1,0-2.53L42,32.37l-3.49-3.49a1.8,1.8,0,0,1,0-2.53l.55-.55a1.8,1.8,0,0,1,2.53,0l3.49,3.49,3.49-3.49a1.8,1.8,0,0,1,2.53,0l.55.55a1.8,1.8,0,0,1,0,2.53l-3.49,3.49Z"/></svg>