<?xml version="1.0" encoding="utf-8"?>
<!-- Generator: Adobe Illustrator 21.0.2, SVG Export Plug-In . SVG Version: 6.00 Build 0)  -->
<svg version="1.1" id="icons" xmlns="http://www.w3.org/2000/svg" xmlns:xlink="http://www.w3.org/1999/xlink" x="0px" y="0px"
	 viewBox="0 0 64 64" style="enable-background:new 0 0 64 64;" xml:space="preserve">
<style type="text/css">
	.st0{fill:none;stroke:#000000;stroke-miterlimit:10;}
	.st1{fill:none;}
	.st2{fill:none;stroke:#000000;stroke-width:1.5;stroke-miterlimit:10;}
</style>
<path id="XMLID_549_" d="M32,0C14.3,0,0,14.3,0,32c0,17.7,14.3,32,32,32s32-14.3,32-32C64,14.3,49.7,0,32,0z M16.7,54
	c-1.6-0.4-3-1.2-4.4-2.6c-1.8-1.9-2.7-4.4-2.3-7.3c0.6-3.8,3.9-6.5,7.9-6.3c4.5,0.2,8.2,3.9,8.4,8.4C26.5,51.5,21.9,55.2,16.7,54z
	 M38.8,44.5c0,0.9-0.6,1.9-1.2,2.5c-1.5,1.5-3.8,1.4-5.4,0.1c-0.9-0.8-1.3-1.9-1.3-3.1c0-1.3-0.1-2.7-0.6-3.9
	c-0.8-2.2-2.1-3.9-4-5.2c-1.9-1.3-4-1.9-6.3-1.9c-0.9,0-1.7-0.1-2.5-0.6c-1.2-0.8-1.9-1.9-1.9-3.4c0-1,0.4-1.8,1-2.5
	c0.5-0.6,1.2-1.1,2.1-1.2c1.7-0.3,3.4-0.1,5.1,0.2c2.4,0.5,4.7,1.4,6.8,2.8c2,1.4,3.7,3,5,5C38,36.7,39,40.4,38.8,44.5z M51.3,49.9
	c-1.4,0.6-2.9,0.5-4.2-0.4c-1.4-0.9-2-2.3-2.1-3.9c-0.1-1.8-0.2-3.6-0.6-5.3c-0.5-2.5-1.4-4.9-2.6-7.2c-1.7-3.2-4-5.9-6.7-8.2
	c-2.1-1.7-4.4-3.1-6.9-4.1c-2.2-0.9-4.4-1.5-6.7-1.8c-1.3-0.2-2.6-0.1-3.9-0.3c-2.7-0.4-4.5-2.9-3.8-5.6c0.5-2,2.2-3.4,4.6-3.3
	c4.6,0.1,9.1,1,13.4,2.7c4.4,1.8,8.3,4.4,11.5,7.6c2.8,2.8,5,5.7,6.7,8.9c2,3.9,3.3,7.9,3.8,12.3c0.2,1.4,0.3,2.8,0.3,4.2
	C54.1,47.6,53.2,49.1,51.3,49.9z"/>
</svg>
