<svg id="icons" xmlns="http://www.w3.org/2000/svg" viewBox="0 0 64 64"><title>changa_bluetooth-o</title><path id="_Compound_Path_" data-name="&lt;Compound Path&gt;" d="M31.07,3.18,46.74,19.06,35.17,30.95a1.87,1.87,0,0,0,0,2.62L46.72,45.18,31.07,60.85V39.93a1.87,1.87,0,0,0-1.87-1.87,1.85,1.85,0,0,0-1.33.56L19.4,47.27l-2.13-2.08L28.86,33.36a1.88,1.88,0,0,0,0-2.61L17.27,18.92l2.13-2.08,8.47,8.64A1.85,1.85,0,0,0,29.2,26a1.87,1.87,0,0,0,1.87-1.87v-21m3.52,24.38A1.85,1.85,0,0,0,35.9,27l6.57-6.52a1.87,1.87,0,0,0,0-2.64l-6.57-6.66a1.85,1.85,0,0,0-1.33-.56,1.87,1.87,0,0,0-1.87,1.87V25.69a1.87,1.87,0,0,0,1.87,1.87m0,26A1.85,1.85,0,0,0,35.9,53l6.57-6.52a1.87,1.87,0,0,0,0-2.64l-6.57-6.66a1.85,1.85,0,0,0-1.33-.56,1.87,1.87,0,0,0-1.87,1.87V51.65a1.87,1.87,0,0,0,1.87,1.87M29.93,0a.37.37,0,0,0-.37.37V24.18a.37.37,0,0,1-.37.37.36.36,0,0,1-.26-.11L19.68,15a.37.37,0,0,0-.52,0l-3.75,3.67a.37.37,0,0,0,0,.52L27.79,31.8a.37.37,0,0,1,0,.51L15.41,44.95a.37.37,0,0,0,0,.52l3.75,3.67a.37.37,0,0,0,.52,0l9.26-9.45a.36.36,0,0,1,.26-.11.37.37,0,0,1,.37.37V63.58a.37.37,0,0,0,.37.37.36.36,0,0,0,.26-.11l18.39-18.4a.37.37,0,0,0,0-.52L36.25,32.51a.37.37,0,0,1,0-.51L48.59,19.31a.37.37,0,0,0,0-.51L30.19.16A.36.36,0,0,0,29.93,0Zm4.65,26a.37.37,0,0,1-.37-.37V12.5a.37.37,0,0,1,.37-.37.36.36,0,0,1,.26.11l6.57,6.66a.37.37,0,0,1,0,.52l-6.57,6.52a.36.36,0,0,1-.26.11Zm0,26a.37.37,0,0,1-.37-.37V38.46a.37.37,0,0,1,.37-.37.36.36,0,0,1,.26.11l6.57,6.66a.37.37,0,0,1,0,.52l-6.57,6.52a.36.36,0,0,1-.26.11Z"/></svg>