<svg id="icons" xmlns="http://www.w3.org/2000/svg" viewBox="0 0 64 64"><title>changa_laptop</title><g id="_Group_" data-name="&lt;Group&gt;"><g id="_Group_2" data-name="&lt;Group&gt;"><path id="_Compound_Path_" data-name="&lt;Compound Path&gt;" d="M53.86,46.45H10.14a1.88,1.88,0,0,1-1.88-1.88V15.89A1.88,1.88,0,0,1,10.14,14H53.86a1.88,1.88,0,0,1,1.88,1.88V44.57A1.88,1.88,0,0,1,53.86,46.45ZM10.14,15.77a.12.12,0,0,0-.12.12V44.57a.12.12,0,0,0,.12.12H53.86a.12.12,0,0,0,.12-.12V15.89a.12.12,0,0,0-.12-.12Z"/></g><path d="M36.23,47.55a.77.77,0,0,1-.76.67H28.53a.77.77,0,0,1-.76-.67H.12l2,2.44H61.83l2-2.44Z"/></g></svg>