<svg id="icons" xmlns="http://www.w3.org/2000/svg" viewBox="0 0 64 64"><title>changa_trash</title><path d="M41.71,7.59V5.92A5.93,5.93,0,0,0,35.79,0H28.21a5.93,5.93,0,0,0-5.92,5.92V7.59H8.43v6.13H9.62l5.92,47.54C17.26,63.2,32,64,32,64c12.69,0,16-3.41,16-3.41l6.35-46.87h1.19V7.59ZM23.79,5.92A4.42,4.42,0,0,1,28.21,1.5h7.58a4.42,4.42,0,0,1,4.42,4.42V7.59H23.79Zm1.08,52.18-1.51.13a.71.71,0,0,1-.77-.64L19.07,17a.71.71,0,0,1,.64-.77l1.51-.13a.71.71,0,0,1,.77.64l3.53,40.62A.71.71,0,0,1,24.88,58.09Zm8.59-.56a.71.71,0,0,1-.71.71H31.24a.71.71,0,0,1-.71-.71V16.76a.71.71,0,0,1,.71-.71h1.52a.71.71,0,0,1,.71.71Zm7.93.05a.71.71,0,0,1-.77.64l-1.51-.13a.71.71,0,0,1-.64-.77L42,16.71a.71.71,0,0,1,.77-.64l1.51.13a.71.71,0,0,1,.64.77Z"/></svg>