<svg id="icons" xmlns="http://www.w3.org/2000/svg" viewBox="0 0 64 64"><title>changa_circle-pinpoint</title><path id="_Compound_Path_" data-name="&lt;Compound Path&gt;" d="M32,1.5A30.5,30.5,0,1,1,1.5,32,30.53,30.53,0,0,1,32,1.5M32,0A32,32,0,1,0,64,32,32,32,0,0,0,32,0Z"/><polygon points="33.52 13 30.47 13 29.71 0.14 34.28 0.23 33.52 13"/><polygon points="13 30.48 13 33.53 0.27 34.28 0.26 29.72 13 30.48"/><polygon points="51 33.52 51 30.47 63.55 29.73 63.47 34.26 51 33.52"/><polygon points="30.48 51 33.53 51 34.29 63.77 29.71 63.8 30.48 51"/></svg>