<svg id="icons" xmlns="http://www.w3.org/2000/svg" viewBox="0 0 64 64"><title>changa_bell</title><g id="_Group_" data-name="&lt;Group&gt;"><path id="_Compound_Path_" data-name="&lt;Compound Path&gt;" d="M33.37,64c-3.14,0-6-.54-8.2-3.09-1.57-1.82-2-3.75-2.41-6.06H13.93c-2.74,0-7.71,1-10-1.14C0,50,5.44,47.66,7.69,44.72c7-9.14,6.84-18.57,8.57-29.27a12,12,0,0,1,6-8.65,26.53,26.53,0,0,1,6.5-2.14C28.23,2.52,29,0,32,0c4.45,0,3.73,4.69,3.73,4.69,3.86.62,8.15,2.67,10.26,6.09,4.44,7.2,2.25,17.71,5.65,25.74A36.83,36.83,0,0,0,58,46.75c2.44,2.72,6.16,6.68-.28,8-5.14,1-11.37.12-16.62.12-.18,4.75-3.34,8-7.78,9.14C32.46,64,35.43,63.45,33.37,64Zm-7.19-9.67c-1.56,3.32,2.53,6.8,5.69,6.86C31.87,61.19,27.66,56.08,26.19,54.33Z"/></g></svg>