<?xml version="1.0" encoding="utf-8"?>
<!-- Generator: Adobe Illustrator 21.0.2, SVG Export Plug-In . SVG Version: 6.00 Build 0)  -->
<svg version="1.1" id="icons" xmlns="http://www.w3.org/2000/svg" xmlns:xlink="http://www.w3.org/1999/xlink" x="0px" y="0px"
	 viewBox="0 0 64 64" style="enable-background:new 0 0 64 64;" xml:space="preserve">
<style type="text/css">
	.st0{stroke:#FFFFFF;stroke-width:0;stroke-linecap:round;stroke-linejoin:round;}
	.st1{fill:none;stroke:#000000;stroke-width:1.5;stroke-miterlimit:10;}
</style>
<g id="XMLID_656_">
	<path d="M32,1.5c16.8,0,30.5,13.7,30.5,30.5S48.8,62.5,32,62.5S1.5,48.8,1.5,32S15.2,1.5,32,1.5 M32,0C14.3,0,0,14.3,0,32
		s14.3,32,32,32c17.7,0,32-14.3,32-32S49.7,0,32,0L32,0z"/>
</g>
<g id="XMLID_397_">
	<path id="XMLID_399_" d="M35.2,52.9c0-6.3,0-12.6,0-19c0.2,0,0.4,0,0.5,0c1.8,0,3.6,0,5.4,0c0.4,0,0.5-0.1,0.5-0.5
		c0.3-2.2,0.5-4.3,0.8-6.5c0-0.4,0-0.5-0.4-0.5c-2.2,0-4.3,0-6.5,0c-0.3,0-0.4-0.1-0.4-0.4c0-1.4,0-2.8,0-4.2c0-0.5,0-1,0.1-1.5
		c0.2-0.9,0.7-1.6,1.7-1.9c0.4-0.1,0.9-0.2,1.3-0.2c1.3,0,2.7,0,4,0c0.2,0,0.4,0,0.4-0.3c0-2,0-4,0-6c0-0.2-0.1-0.3-0.3-0.3
		c-2.4-0.2-4.8-0.4-7.2-0.1c-1.6,0.2-3.2,0.7-4.5,1.8c-2.2,1.8-3.2,4.1-3.3,6.9c-0.1,2,0,4-0.1,6c0,0.5,0,0.5-0.5,0.5
		c-1.8,0-3.6,0-5.4,0c-0.2,0-0.3,0-0.5,0c0,2.5,0,4.9,0,7.4c2.1,0,4.2,0,6.4,0c0,0.2,0,0.3,0,0.4c0,6,0,12.1,0,18.1
		c0,0.1,0,0.3,0,0.4"/>
</g>
</svg>
