<svg id="icons" xmlns="http://www.w3.org/2000/svg" viewBox="0 0 64 64"><title>changa_play-o</title><g id="_Group_" data-name="&lt;Group&gt;"><g id="_Group_2" data-name="&lt;Group&gt;"><path d="M5.78,1.59a.73.73,0,0,1,.36.1L32.23,16.55,58.59,31.36a.74.74,0,0,1,0,1.29L32.22,47.46,6.14,62.31a.73.73,0,0,1-.36.1A.74.74,0,0,1,5,61.67V2.33a.74.74,0,0,1,.74-.74m0-1.5A2.24,2.24,0,0,0,3.54,2.33V61.67a2.23,2.23,0,0,0,3.35,1.94L33,48.76,59.32,34a2.24,2.24,0,0,0,0-3.9L33,15.24,6.88.38a2.22,2.22,0,0,0-1.1-.3Z"/></g></g></svg>