<svg id="icons" xmlns="http://www.w3.org/2000/svg" viewBox="0 0 64 64"><defs><style>.cls-1{fill:#231f20;}.cls-2{fill:none;stroke:#231f20;stroke-miterlimit:10;stroke-width:1.5px;}</style></defs><title>changa_mic</title><path class="cls-1" d="M34.5,9.18a3.92,3.92,0,0,1,3.91,3.91V40A3.92,3.92,0,0,1,34.5,44h-5A3.92,3.92,0,0,1,25.59,40v-27A3.92,3.92,0,0,1,29.5,9.18h5m0-1.5h-5a5.41,5.41,0,0,0-5.41,5.41V40a5.41,5.41,0,0,0,5.41,5.41h5A5.41,5.41,0,0,0,39.91,40v-27A5.41,5.41,0,0,0,34.5,7.68Z"/><path class="cls-2" d="M45.33,31.08c0,13.94-5.12,19-13.33,19s-13.33-4.61-13.33-19"/><line class="cls-2" x1="32" y1="50.07" x2="32" y2="57.66"/><line class="cls-2" x1="23.87" y1="57.66" x2="40.13" y2="57.66"/><line class="cls-2" x1="39.91" y1="21.13" x2="33.83" y2="21.13"/><line class="cls-2" x1="30.17" y1="21.13" x2="24.09" y2="21.13"/><line class="cls-2" x1="39.91" y1="26.57" x2="33.83" y2="26.57"/><line class="cls-2" x1="30.17" y1="26.57" x2="24.09" y2="26.57"/><line class="cls-2" x1="39.91" y1="32" x2="33.83" y2="32"/><line class="cls-2" x1="30.17" y1="32" x2="24.09" y2="32"/></svg>