<svg id="icons" xmlns="http://www.w3.org/2000/svg" viewBox="0 0 64 64"><title>changa_heart-crushed</title><path d="M32.83,58.92,32,55.17l-2.22-2.45.42-4.94L28.25,34.25l1.83-7.77L28,20.11l1.9-6.43a22.55,22.55,0,0,0-4-5.9A17.65,17.65,0,0,0,13.09,2.06a13.62,13.62,0,0,0-11.82,7C-.66,12.92-.41,17.54,1,21.58S4.87,29.19,7.3,32.7c3.21,4.65,6.33,9,9.89,13.4,4.91,6.07,8.76,10.82,15,16,.66-.6,1.33-1.24,2-1.92Z"/><path d="M58.41,4.65C53.47.74,46,1,40.74,4.53a19.37,19.37,0,0,0-6.85,8.6l1.33,4L32,29.06l-1.46,4.6,1.37,6.65-.32,5.48,1.12,7.28,2.13,4.17,1.13,1.24c3.84-4.05,7.26-8.32,7.26-8.32,4.2-5,7.21-8.55,11.2-13.78,3.66-4.79,7.84-9.45,9.09-15.34S63.13,8.4,58.41,4.65Z"/></svg>