<svg id="icons" xmlns="http://www.w3.org/2000/svg" viewBox="0 0 64 64"><title>changa_toggle-on-o</title><g id="_Group_" data-name="&lt;Group&gt;"><path d="M51.46,19.5a11.05,11.05,0,0,1,11,11v2.92a11.05,11.05,0,0,1-11,11H12.54a11.05,11.05,0,0,1-11-11V30.54a11.05,11.05,0,0,1,11-11H51.46m0-1.5H12.54A12.54,12.54,0,0,0,0,30.54v2.92A12.54,12.54,0,0,0,12.54,46H51.46A12.54,12.54,0,0,0,64,33.46V30.54A12.54,12.54,0,0,0,51.46,18Z"/></g><circle id="_Path_" data-name="&lt;Path&gt;" cx="49.58" cy="32" r="11.33"/></svg>