<?xml version="1.0" encoding="utf-8"?>
<!-- Generator: Adobe Illustrator 21.0.2, SVG Export Plug-In . SVG Version: 6.00 Build 0)  -->
<svg version="1.1" id="icons" xmlns="http://www.w3.org/2000/svg" xmlns:xlink="http://www.w3.org/1999/xlink" x="0px" y="0px"
	 viewBox="0 0 64 64" style="enable-background:new 0 0 64 64;" xml:space="preserve">
<style type="text/css">
	.st0{fill:none;stroke:#000000;stroke-miterlimit:10;}
	.st1{fill:none;}
	.st2{fill:none;stroke:#000000;stroke-width:1.5;stroke-miterlimit:10;}
</style>
<g id="XMLID_425_">
	<path d="M32,1.5c16.8,0,30.5,13.7,30.5,30.5S48.8,62.5,32,62.5S1.5,48.8,1.5,32S15.2,1.5,32,1.5 M32,0C14.3,0,0,14.3,0,32
		s14.3,32,32,32c17.7,0,32-14.3,32-32S49.7,0,32,0L32,0z"/>
</g>
<g id="XMLID_586_">
	<polygon id="XMLID_587_" points="52.2,19.7 52.2,19.7 52.2,19.7 	"/>
	<polygon id="XMLID_588_" points="50.8,19.7 13.2,19.7 32,31.1 	"/>
	<polygon id="XMLID_589_" points="51,44.3 35.2,30.9 32,32.9 28.8,30.9 13,44.3 	"/>
	<polygon id="XMLID_590_" points="52.2,43.3 52.2,20.6 36.5,30.1 	"/>
	<polygon id="XMLID_591_" points="11.8,19.7 11.8,19.7 11.8,19.7 	"/>
	<polygon id="XMLID_592_" points="11.8,44.3 11.8,44.3 11.8,44.3 	"/>
	<polygon id="XMLID_593_" points="52.2,44.3 52.2,44.3 52.2,44.3 	"/>
	<polygon id="XMLID_594_" points="27.5,30.1 11.8,20.6 11.8,43.3 	"/>
</g>
</svg>
