<?xml version="1.0" encoding="utf-8"?>
<!-- Generator: Adobe Illustrator 21.0.2, SVG Export Plug-In . SVG Version: 6.00 Build 0)  -->
<svg version="1.1" id="icons" xmlns="http://www.w3.org/2000/svg" xmlns:xlink="http://www.w3.org/1999/xlink" x="0px" y="0px"
	 viewBox="0 0 64 64" style="enable-background:new 0 0 64 64;" xml:space="preserve">
<style type="text/css">
	.st0{stroke:#FFFFFF;stroke-width:0;stroke-linecap:round;stroke-linejoin:round;}
	.st1{fill:none;stroke:#000000;stroke-width:1.5;stroke-miterlimit:10;}
</style>
<path d="M32,0C14.3,0,0,14.3,0,32c0,17.7,14.3,32,32,32s32-14.3,32-32C64,14.3,49.7,0,32,0z M36.2,36.6c0.5,0.7,0.7,1.5,0.7,2.4v5.6
	c0,0-4.3,2.7-8.6,0V41l-0.1,0c0,0-2.7,0.3-3.8-0.2c0,0-1.3-0.5-1.8-1.5c0,0-0.7-1.4-0.9-1.7c0,0-0.8-1.1-1.4-1.4
	c0,0-0.6-0.4-0.5-0.7c0,0,0.1-0.2,0.4-0.2c0,0,1.1-0.2,2.2,0.8c0,0,0.5,0.5,0.9,1.2c0,0,0.8,1.1,1.8,1.4c0,0,1.3,0.4,2.4,0
	c0,0,0.5-0.1,0.6-0.3l0.1-0.3c0.1-0.6,0.3-1.2,0.7-1.7c-4.4-0.3-7.8-4-7.8-8.4c0-2,0.7-3.8,1.9-5.3l0.2-4.3c0-0.3,0.3-0.5,0.5-0.4
	l3.9,1.7c0,0,0,0,0.1,0.1c0.1,0,0.1,0,0.2,0c5.5-0.9,9.2,0,9.2,0c0.1,0,0.1,0,0.2,0c0,0,0,0,0.1,0l3.9-1.7c0.3-0.1,0.5,0.1,0.5,0.4
	l0.2,4.3c1.2,1.5,1.9,3.3,1.9,5.3C44.1,32.7,40.6,36.3,36.2,36.6z"/>
</svg>
