<?xml version="1.0" encoding="utf-8"?>
<!-- Generator: Adobe Illustrator 21.0.2, SVG Export Plug-In . SVG Version: 6.00 Build 0)  -->
<svg version="1.1" id="icons" xmlns="http://www.w3.org/2000/svg" xmlns:xlink="http://www.w3.org/1999/xlink" x="0px" y="0px"
	 viewBox="0 0 64 64" style="enable-background:new 0 0 64 64;" xml:space="preserve">
<style type="text/css">
	.st0{fill:none;stroke:#000000;stroke-miterlimit:10;}
	.st1{fill:none;}
	.st2{fill:none;stroke:#000000;stroke-width:1.5;stroke-miterlimit:10;}
</style>
<path id="XMLID_493_" d="M64,28.8C64.8,0.7,33.6,2.4,33.6,2.4C-4.9,4,0.2,30.2,0.2,30.2c0.5,16.3,15.5,23.1,15.5,23.1
	c1,4-4.8,8.2-4.8,8.2c6.4,0.4,13-5.2,13-5.2c4.9,1.4,13.8,0.6,13.8,0.6C65.5,54.7,64,28.8,64,28.8z M16.6,37.6
	c-3.1,0-5.6-2.5-5.6-5.6s2.5-5.6,5.6-5.6c3.1,0,5.6,2.5,5.6,5.6S19.7,37.6,16.6,37.6z M32,37.6c-3.1,0-5.6-2.5-5.6-5.6
	s2.5-5.6,5.6-5.6s5.6,2.5,5.6,5.6S35.1,37.6,32,37.6z M47.4,37.6c-3.1,0-5.6-2.5-5.6-5.6s2.5-5.6,5.6-5.6c3.1,0,5.6,2.5,5.6,5.6
	S50.5,37.6,47.4,37.6z"/>
</svg>
