<svg id="icons" xmlns="http://www.w3.org/2000/svg" viewBox="0 0 64 64"><title>changa_filter</title><path d="M13.29,8.82a4.86,4.86,0,0,1-1.56-.28v50a1.56,1.56,0,1,0,3.12,0v-50A4.86,4.86,0,0,1,13.29,8.82Z"/><path d="M32,55.18a3.94,3.94,0,0,1,1.56.32V5.43a1.56,1.56,0,0,0-3.12,0V55.5A3.94,3.94,0,0,1,32,55.18Z"/><path d="M50.71,8.87a3.94,3.94,0,0,1-1.56-.32v50a1.56,1.56,0,0,0,3.12,0v-50A3.94,3.94,0,0,1,50.71,8.87Z"/><path d="M50.71,1.5a2.4,2.4,0,1,1-2.4,2.4,2.4,2.4,0,0,1,2.4-2.4m0-1.5a3.9,3.9,0,1,0,3.9,3.9A3.9,3.9,0,0,0,50.71,0Z"/><path d="M13.29,1.5a2.4,2.4,0,1,1-2.4,2.4,2.4,2.4,0,0,1,2.4-2.4m0-1.5a3.9,3.9,0,1,0,3.9,3.9A3.9,3.9,0,0,0,13.29,0Z"/><path d="M32,57.71a2.4,2.4,0,1,1-2.4,2.4,2.4,2.4,0,0,1,2.4-2.4m0-1.5a3.9,3.9,0,1,0,3.9,3.9,3.9,3.9,0,0,0-3.9-3.9Z"/></svg>