<?xml version="1.0" encoding="utf-8"?>
<!-- Generator: Adobe Illustrator 21.0.2, SVG Export Plug-In . SVG Version: 6.00 Build 0)  -->
<svg version="1.1" id="icons" xmlns="http://www.w3.org/2000/svg" xmlns:xlink="http://www.w3.org/1999/xlink" x="0px" y="0px"
	 viewBox="0 0 64 64" style="enable-background:new 0 0 64 64;" xml:space="preserve">
<style type="text/css">
	.st0{fill:none;stroke:#000000;stroke-miterlimit:10;}
	.st1{fill:none;}
	.st2{fill:none;stroke:#000000;stroke-width:1.5;stroke-miterlimit:10;}
</style>
<path id="XMLID_438_" d="M32,19C19.6,19,9.5,29.1,9.5,41.5S19.6,64,32,64s22.5-10.1,22.5-22.5S44.4,19,32,19z M33.5,41.3v13.8h-3.3
	V41.2c-1.6-0.7-2.8-2.3-2.8-4.2c0-2.5,2.1-4.6,4.6-4.6c2.5,0,4.6,2.1,4.6,4.6C36.6,39,35.3,40.7,33.5,41.3z"/>
<path id="XMLID_698_" d="M33.2,0h-2.3c-7.2,0-13.2,5.6-14.3,13h5.2c1-4.5,4.7-7.9,9.1-7.9h2.3c5.2,0,9.4,4.7,9.4,10.4v5
	c1.8,0.9,3.6,2.1,5.1,3.5v-8.5C47.7,7,41.2,0,33.2,0z"/>
</svg>
