<svg id="icons" xmlns="http://www.w3.org/2000/svg" viewBox="0 0 64 64"><title>changa_disk-drive</title><path id="_Compound_Path_" data-name="&lt;Compound Path&gt;" d="M32-.08A32.08,32.08,0,1,0,64.08,32,32.08,32.08,0,0,0,32-.08Zm4.94,60L32.19,41.29a9.29,9.29,0,0,0,8-4.91L52,52.11A28.31,28.31,0,0,1,36.94,59.92ZM27.13,4.07l2.79,18.87a9.31,9.31,0,0,0-6.78,6.23L7.66,17.48A28.42,28.42,0,0,1,27.13,4.07ZM32,25.74A6.26,6.26,0,1,1,25.74,32,6.26,6.26,0,0,1,32,25.74ZM28,40.4a9.22,9.22,0,0,0,2.49.77l1.95,19.17H32a28.37,28.37,0,0,1-5.46-.53Zm6.65-17.31a9.29,9.29,0,0,0-2.53-.39l-1.93-19c.59,0,1.19-.06,1.79-.06a28.46,28.46,0,0,1,4.13.3Z"/></svg>