<svg id="icons" xmlns="http://www.w3.org/2000/svg" viewBox="0 0 64 64"><title>changa_web-o</title><g id="_Group_" data-name="&lt;Group&gt;"><g id="_Group_2" data-name="&lt;Group&gt;"><path d="M41.83,17.56a45.35,45.35,0,0,1,2.25,8.29h-23a45.43,45.43,0,0,1,2.27-8.29h18.5m1-1.5H22.31a46.36,46.36,0,0,0-3,11.29h26.5a46.28,46.28,0,0,0-3-11.29Z"/></g><g id="_Group_3" data-name="&lt;Group&gt;"><path d="M44.65,33.5a40.06,40.06,0,0,1-1.07,8.29H21.51a40,40,0,0,1-1-8.29H44.65M46.15,32H19a41.39,41.39,0,0,0,1.37,11.29H44.75A41.4,41.4,0,0,0,46.15,32Z"/></g><g id="_Group_4" data-name="&lt;Group&gt;"><path d="M32.52,1.61h.17a69.83,69.83,0,0,1,5.56,8.31H26.94a70.06,70.06,0,0,1,5.58-8.31M32,.1h-.21a69.2,69.2,0,0,0-7.37,11.31H40.75A68.94,68.94,0,0,0,33.44.14c-.48,0-1,0-1.44,0Z"/></g><g id="_Group_5" data-name="&lt;Group&gt;"><path d="M41.87,3.25a30.63,30.63,0,0,1,11,6.67H45.63a67.12,67.12,0,0,0-3.76-6.67M38.35.74a67.46,67.46,0,0,1,6.33,10.68H56.35A31.91,31.91,0,0,0,38.35.74Z"/></g><g id="_Group_6" data-name="&lt;Group&gt;"><path d="M62.36,33.5a30.15,30.15,0,0,1-1.59,8.29H50.09a47,47,0,0,0,1-8.29H62.36M63.9,32H49.56a45.39,45.39,0,0,1-1.35,11.29H61.82A31.73,31.73,0,0,0,63.9,32Z"/></g><g id="_Group_7" data-name="&lt;Group&gt;"><path d="M58.74,17.56a30,30,0,0,1,3,8.29H50.61a50.21,50.21,0,0,0-1.9-8.29h10m.88-1.5h-13a48.65,48.65,0,0,1,2.67,11.29H63.56a31.66,31.66,0,0,0-3.94-11.29Z"/></g><g id="_Group_8" data-name="&lt;Group&gt;"><path d="M17.23,49.44A55.7,55.7,0,0,0,23.4,61.16,30.27,30.27,0,0,1,7.12,49.44H17.23m1-1.5H4.39A32,32,0,0,0,27,63.5a54.55,54.55,0,0,1-8.73-15.57Z"/></g><g id="_Group_9" data-name="&lt;Group&gt;"><path d="M23.63,2.78a67.54,67.54,0,0,0-4.09,7.15H11.14a30.42,30.42,0,0,1,12.5-7.15M27,.49A31.89,31.89,0,0,0,7.65,11.42H20.49A67.93,67.93,0,0,1,27,.49Z"/></g><g id="_Group_10" data-name="&lt;Group&gt;"><path d="M56.88,49.44A30.47,30.47,0,0,1,41.94,60.72a55.67,55.67,0,0,0,5.91-11.29h9m2.74-1.5H46.8a54.54,54.54,0,0,1-8.6,15.35A32,32,0,0,0,59.61,47.94Z"/></g><g id="_Group_11" data-name="&lt;Group&gt;"><path d="M41,49.44a48,48,0,0,1-8.48,12.82,48.15,48.15,0,0,1-8.42-12.82H41m2.25-1.5H21.84A48.92,48.92,0,0,0,32,63.9h0l1,0A48.84,48.84,0,0,0,43.24,47.94Z"/></g><g id="_Group_12" data-name="&lt;Group&gt;"><path d="M16.44,17.56a50.27,50.27,0,0,0-1.92,8.29H2.23a30,30,0,0,1,3-8.29H16.44m2.1-1.5H4.39A31.66,31.66,0,0,0,.44,27.36h15.4a48.73,48.73,0,0,1,2.7-11.29Z"/></g><g id="_Group_13" data-name="&lt;Group&gt;"><path d="M14.07,33.5A47,47,0,0,0,15,41.79H3.23A30.15,30.15,0,0,1,1.64,33.5H14.07M15.56,32H.1A31.73,31.73,0,0,0,2.18,43.29H16.88A45.37,45.37,0,0,1,15.56,32Z"/></g></g></svg>