<?xml version="1.0" encoding="utf-8"?>
<!-- Generator: Adobe Illustrator 21.0.2, SVG Export Plug-In . SVG Version: 6.00 Build 0)  -->
<svg version="1.1" id="icons" xmlns="http://www.w3.org/2000/svg" xmlns:xlink="http://www.w3.org/1999/xlink" x="0px" y="0px"
	 viewBox="0 0 64 64" style="enable-background:new 0 0 64 64;" xml:space="preserve">
<style type="text/css">
	.st0{fill:none;stroke:#000000;stroke-miterlimit:10;}
	.st1{fill:none;}
	.st2{fill:none;stroke:#000000;stroke-width:1.5;stroke-miterlimit:10;}
</style>
<path d="M32.1,0c-17.7,0-32,14.3-32,32c0,17.7,14.3,32,32,32c17.7,0,32-14.3,32-32C64.1,14.3,49.8,0,32.1,0z M29.6,42.4
	c0,1.7-1.4,3.1-3.1,3.1H20c-1.7,0-3.1-1.4-3.1-3.1V21.6c0-1.7,1.4-3.1,3.1-3.1h6.5c1.7,0,3.1,1.4,3.1,3.1V42.4z M47,42.4
	c0,1.7-1.4,3.1-3.1,3.1h-6.5c-1.7,0-3.1-1.4-3.1-3.1V21.6c0-1.7,1.4-3.1,3.1-3.1H44c1.7,0,3.1,1.4,3.1,3.1V42.4z"/>
</svg>
