<svg id="icons" xmlns="http://www.w3.org/2000/svg" viewBox="0 0 64 64"><title>changa_coffee-o</title><path d="M49.3,29.59c-.43,8.44-4.48,16-10.8,20.13H18.38C12.05,45.6,8,38,7.57,29.59H49.3m1.54-1.5H6c0,10,4.82,18.73,11.91,23.13h21c7.08-4.4,11.91-13.1,11.91-23.13Z"/><path d="M46.09,53.44c-3.44,1-9.47,2-17.65,2s-14.2-.94-17.65-2h35.3m4.75-1.5H6c0,2.74,10,5,22.4,5s22.4-2.22,22.4-5Z"/><path d="M50,45.4a15.88,15.88,0,0,1-4.48-.67l-.18-.12.52-.84a37.17,37.17,0,0,0,4.3-11.34l.1-.48.48-.1a6.39,6.39,0,0,1,5.3.89,6.16,6.16,0,0,1,2.53,4.34,6.49,6.49,0,0,1-2.06,6.19A9.83,9.83,0,0,1,50,45.4Zm-3.13-1.87c3.44.79,6.76.27,8.66-1.39a5.06,5.06,0,0,0,1.56-4.83A4.72,4.72,0,0,0,55.23,34a6.87,6.87,0,0,0-4.5-.87A40.28,40.28,0,0,1,46.91,43.53Z"/><path d="M23.39,7.1a38.56,38.56,0,0,1,.56,5,38.66,38.66,0,0,1-.06,5.07,19.2,19.2,0,0,1-1.06,5,9.27,9.27,0,0,1-3,4.17,15.1,15.1,0,0,0,1.86-4.52,34.44,34.44,0,0,0,.68-4.82C22.69,13.79,22.79,10.45,23.39,7.1Z"/><path d="M28.63,7.8a32.37,32.37,0,0,1,.48,4.37c.09,1.46.08,2.92.06,4.37s-.11,2.91-.27,4.37a32,32,0,0,1-.69,4.34,32.56,32.56,0,0,1-.48-4.38c-.09-1.46-.08-2.91-.06-4.36s.11-2.9.27-4.35A32.92,32.92,0,0,1,28.63,7.8Z"/><path d="M33.56,7.62a79.35,79.35,0,0,1,.84,9.68A31.42,31.42,0,0,0,34.92,22,7.45,7.45,0,0,0,37,26.07a5.1,5.1,0,0,1-2-1.51,7.85,7.85,0,0,1-1.22-2.26,17.8,17.8,0,0,1-.89-4.92,41.14,41.14,0,0,1,.06-4.9A40.39,40.39,0,0,1,33.56,7.62Z"/></svg>