<svg id="icons" xmlns="http://www.w3.org/2000/svg" viewBox="0 0 64 64"><title>changa_clock</title><path id="_Compound_Path_" data-name="&lt;Compound Path&gt;" d="M32,1.5A30.5,30.5,0,1,1,1.5,32,30.53,30.53,0,0,1,32,1.5M32,0A32,32,0,1,0,64,32,32,32,0,0,0,32,0Z"/><circle id="_Path_" data-name="&lt;Path&gt;" cx="32" cy="4.09" r="0.84"/><circle id="_Path_2" data-name="&lt;Path&gt;" cx="32" cy="58.99" r="0.84"/><circle id="_Path_3" data-name="&lt;Path&gt;" cx="3.61" cy="32" r="0.84"/><circle id="_Path_4" data-name="&lt;Path&gt;" cx="59.58" cy="32" r="0.84"/><g id="_Group_" data-name="&lt;Group&gt;"><circle cx="31.69" cy="35.2" r="4.19"/></g><path d="M31.69,29.62a5.57,5.57,0,0,1,1,.1c0-.3,0-.61,0-.91,0-2.22,0-4.45,0-6.67-.11-4.45-.26-8.9-.69-13.35-.53,4.44-.79,8.88-1,13.33-.07,2.22-.18,4.44-.21,6.67,0,.3,0,.61,0,.91A5.57,5.57,0,0,1,31.69,29.62Z"/><path d="M39,41.72q-1.46-1.57-3-3.13a5.62,5.62,0,0,1-1.26,1.2q1.6,1.48,3.21,2.94c2.4,2.14,4.82,4.25,7.36,6.25C43.38,46.48,41.22,44.09,39,41.72Z"/></svg>