<?xml version="1.0" encoding="utf-8"?>
<!-- Generator: Adobe Illustrator 21.0.2, SVG Export Plug-In . SVG Version: 6.00 Build 0)  -->
<svg version="1.1" id="icons" xmlns="http://www.w3.org/2000/svg" xmlns:xlink="http://www.w3.org/1999/xlink" x="0px" y="0px"
	 viewBox="0 0 64 64" style="enable-background:new 0 0 64 64;" xml:space="preserve">
<style type="text/css">
	.st0{fill:none;stroke:#000000;stroke-miterlimit:10;}
	.st1{fill:none;}
	.st2{fill:none;stroke:#000000;stroke-width:1.5;stroke-miterlimit:10;}
</style>
<g>
	<path d="M34.6,3.8c3.4,0,15,0.6,22.1,7.9c4,4.2,6,9.9,5.8,17l0,0.1l0,0.1c0.1,1,1,24.5-24.8,26.7c0,0-2.4,0.2-5.3,0.2
		c-3.4,0-6.2-0.3-8-0.8l-0.8-0.2L23,55.3c0,0-3.6,3-7.8,4.3c1.4-1.8,2.6-4.1,2-6.6l-0.2-0.7L16.4,52C16.3,52,2.3,45.4,1.8,30.2
		l0-0.1l0-0.1c0-0.1-1.5-8.3,4.1-15.4C11,8,20.4,4.4,33.7,3.8C33.7,3.8,34,3.8,34.6,3.8 M34.6,2.3c-0.6,0-1,0-1,0
		C-4.8,4,0.3,30.2,0.3,30.2c0.5,16.3,15.5,23.1,15.5,23.1c0.9,4-4.7,8.2-4.7,8.2c0.2,0,0.5,0,0.7,0c6.2,0,12.3-5.2,12.3-5.2
		c2.3,0.7,5.6,0.8,8.4,0.8c3,0,5.4-0.2,5.4-0.2C65.5,54.7,64,28.8,64,28.8C64.7,3.7,39.9,2.3,34.6,2.3L34.6,2.3z"/>
</g>
</svg>
