<?xml version="1.0" encoding="utf-8"?>
<!-- Generator: Adobe Illustrator 21.0.2, SVG Export Plug-In . SVG Version: 6.00 Build 0)  -->
<svg version="1.1" id="icons" xmlns="http://www.w3.org/2000/svg" xmlns:xlink="http://www.w3.org/1999/xlink" x="0px" y="0px"
	 viewBox="0 0 64 64" style="enable-background:new 0 0 64 64;" xml:space="preserve">
<style type="text/css">
	.st0{fill:none;stroke:#000000;stroke-miterlimit:10;}
	.st1{fill:none;}
	.st2{fill:none;stroke:#000000;stroke-width:1.5;stroke-miterlimit:10;}
</style>
<path id="XMLID_626_" d="M32,0.1C14.4,0.1,0.1,14.4,0.1,32S14.4,63.9,32,63.9c17.6,0,31.9-14.3,31.9-31.9S49.6,0.1,32,0.1z
	 M17.4,13.6c0.9-0.7,1.7-1.4,2.6-2.1c0.8-0.7,1.7-0.6,2.3,0.3c2.1,2.6,4.3,5.3,6.4,7.9c0.8,1,0.7,1.8-0.3,2.6
	c-0.9,0.7-1.8,1.4-2.7,2.2c-2.9-3.6-5.7-7.1-8.6-10.7C17.2,13.7,17.3,13.7,17.4,13.6z M43.9,52.6c-1.9,0.5-3.8,0.3-5.7-0.3
	c-3-0.9-5.7-2.5-8.1-4.4c-3.7-3-6.8-6.6-9.5-10.4c-1.8-2.5-3.4-5.1-4.6-7.9c-1.2-2.8-2.1-5.8-2-8.9c0-1.9,0.4-3.6,1.4-5.2
	c0.1-0.1,0.2-0.3,0.3-0.4c0.1-0.1,0.1-0.1,0.2-0.3c2.9,3.6,5.7,7.1,8.5,10.6c-0.2,0.4-0.5,0.8-0.6,1.2c-0.2,0.7,0.1,1.4,0.3,2.1
	c0.7,1.5,1.6,2.8,2.5,4.1c2.1,2.9,4.5,5.6,7.2,8c0.3,0.2,0.6,0.5,0.9,0.7c0.8,0.5,1.6,0.7,2.4,0c2.8,3.5,5.5,6.9,8.3,10.4
	C44.9,52.3,44.4,52.5,43.9,52.6z M49.3,48.6c-0.9,0.7-1.8,1.5-2.8,2.2c-2.8-3.5-5.5-7-8.3-10.5c0.4-0.3,0.8-0.7,1.2-1
	c0.5-0.4,1-0.8,1.6-1.2c0.9-0.7,1.7-0.6,2.4,0.3c2.1,2.6,4.1,5.2,6.2,7.8C50.3,47.1,50.2,47.9,49.3,48.6z"/>
</svg>
