<?xml version="1.0" encoding="utf-8"?>
<!-- Generator: Adobe Illustrator 21.0.2, SVG Export Plug-In . SVG Version: 6.00 Build 0)  -->
<svg version="1.1" id="icons" xmlns="http://www.w3.org/2000/svg" xmlns:xlink="http://www.w3.org/1999/xlink" x="0px" y="0px"
	 viewBox="0 0 64 64" style="enable-background:new 0 0 64 64;" xml:space="preserve">
<style type="text/css">
	.st0{fill:none;stroke:#000000;stroke-miterlimit:10;}
	.st1{fill:none;}
	.st2{fill:none;stroke:#000000;stroke-width:1.5;stroke-miterlimit:10;}
</style>
<g id="XMLID_8856_">
	<path d="M32,6.6l6.1,18.7l0.3,1h1.1h19.7L43.3,37.9l-0.9,0.6l0.3,1l6.1,18.7L32.9,46.8L32,46.1l-0.9,0.6L15.2,58.4l6.1-18.7l0.3-1
		l-0.9-0.6L4.8,26.3h19.7h1.1l0.3-1L32,6.6 M32,1.7l-7.5,23.1H0.2l19.7,14.3l-7.5,23.1L32,48l19.7,14.3l-7.5-23.1l19.7-14.3H39.5
		L32,1.7L32,1.7z"/>
</g>
</svg>
