<?xml version="1.0" encoding="utf-8"?>
<!-- Generator: Adobe Illustrator 21.0.2, SVG Export Plug-In . SVG Version: 6.00 Build 0)  -->
<svg version="1.1" id="icons" xmlns="http://www.w3.org/2000/svg" xmlns:xlink="http://www.w3.org/1999/xlink" x="0px" y="0px"
	 viewBox="0 0 64 64" style="enable-background:new 0 0 64 64;" xml:space="preserve">
<style type="text/css">
	.st0{fill:none;stroke:#000000;stroke-miterlimit:10;}
	.st1{fill:none;}
	.st2{fill:none;stroke:#000000;stroke-width:1.5;stroke-miterlimit:10;}
</style>
<path id="XMLID_732_" d="M48.6,18.8L30.2,0.2c-0.2-0.2-0.6-0.1-0.6,0.3v23.8c0,0.3-0.4,0.5-0.6,0.3L19.7,15c-0.1-0.1-0.4-0.1-0.5,0
	l-3.7,3.7c-0.1,0.1-0.1,0.4,0,0.5l12.4,12.6c0.1,0.1,0.1,0.4,0,0.5L15.4,44.9c-0.1,0.1-0.1,0.4,0,0.5l3.7,3.7c0.1,0.1,0.4,0.1,0.5,0
	l9.3-9.5c0.2-0.2,0.6-0.1,0.6,0.3v23.7c0,0.3,0.4,0.5,0.6,0.3l18.4-18.4c0.1-0.1,0.1-0.4,0-0.5L36.2,32.5c-0.1-0.1-0.1-0.4,0-0.5
	l12.3-12.7C48.7,19.2,48.7,18.9,48.6,18.8z M34.2,21.5v-9c0-0.3,0.4-0.5,0.6-0.3l6.6,6.7c0.1,0.1,0.1,0.4,0,0.5l-6.6,6.5
	c-0.2,0.2-0.6,0.1-0.6-0.3V21.5z M41.4,45.4l-6.6,6.5c-0.2,0.2-0.6,0.1-0.6-0.3v-4.2v-9c0-0.3,0.4-0.5,0.6-0.3l6.6,6.7
	C41.6,45,41.6,45.2,41.4,45.4z"/>
</svg>
