<?xml version="1.0" encoding="utf-8"?>
<!-- Generator: Adobe Illustrator 21.0.2, SVG Export Plug-In . SVG Version: 6.00 Build 0)  -->
<svg version="1.1" id="icons" xmlns="http://www.w3.org/2000/svg" xmlns:xlink="http://www.w3.org/1999/xlink" x="0px" y="0px"
	 viewBox="0 0 64 64" style="enable-background:new 0 0 64 64;" xml:space="preserve">
<style type="text/css">
	.st0{fill:none;stroke:#000000;stroke-miterlimit:10;}
	.st1{fill:none;}
	.st2{fill:none;stroke:#000000;stroke-width:1.5;stroke-miterlimit:10;}
</style>
<g id="XMLID_8969_">
	<path d="M32,1.5c16.8,0,30.5,13.7,30.5,30.5S48.8,62.5,32,62.5S1.5,48.8,1.5,32S15.2,1.5,32,1.5 M32,0C14.3,0,0,14.3,0,32
		s14.3,32,32,32c17.7,0,32-14.3,32-32S49.7,0,32,0L32,0z"/>
</g>
<g id="XMLID_730_">
	<path id="XMLID_731_" class="st2" d="M21.4,46.8c0,0.9,0.9,1.4,1.7,1l13-7.4L49.2,33c0.8-0.4,0.8-1.5,0-1.9L36,23.7l-13-7.4
		c-0.7-0.4-1.7,0.1-1.7,1V32V46.8z"/>
</g>
</svg>
