<?xml version="1.0" encoding="utf-8"?>
<!-- Generator: Adobe Illustrator 21.0.2, SVG Export Plug-In . SVG Version: 6.00 Build 0)  -->
<svg version="1.1" id="icons" xmlns="http://www.w3.org/2000/svg" xmlns:xlink="http://www.w3.org/1999/xlink" x="0px" y="0px"
	 viewBox="0 0 64 64" style="enable-background:new 0 0 64 64;" xml:space="preserve">
<style type="text/css">
	.st0{stroke:#FFFFFF;stroke-width:0;stroke-linecap:round;stroke-linejoin:round;}
	.st1{fill:none;stroke:#000000;stroke-width:1.5;stroke-miterlimit:10;}
</style>
<g id="XMLID_279_">
	<path id="XMLID_280_" d="M34.2,31.4h25.1c0.2,0,0.4-0.2,0.4-0.4V19.5c0-0.2-0.2-0.4-0.4-0.4H34.2V31.4z"/>
	<path id="XMLID_281_" d="M6.8,64H30V32.6H6.7c-0.2,0-0.3,0.2-0.3,0.4v30.6C6.4,63.8,6.5,64,6.8,64z"/>
	<path id="XMLID_282_" d="M34.2,64h23c0.2,0,0.4-0.2,0.4-0.4V33c0-0.2-0.2-0.4-0.3-0.4h-23V64z"/>
	<path id="XMLID_283_" d="M4.3,19.5V31c0,0.2,0.2,0.4,0.4,0.4H30V19.1H4.6C4.4,19.1,4.3,19.3,4.3,19.5z"/>
	<path id="XMLID_284_" d="M14.1,12.5l0.3,0.3c0.2,0.2,0.4,0.4,0.6,0.6l0.3,0.3l0.3,0.2c0.4,0.3,0.8,0.6,1.1,0.7
		c0.4,0.2,0.7,0.4,1.1,0.6c0.4,0.2,0.7,0.3,1.1,0.5c1.4,0.6,2.9,1.1,4.3,1.5c0.7,0.2,1.5,0.4,2.2,0.6h4.8c0,0-0.1,0-0.1-0.1
		c-0.7-0.3-1.3-0.7-2-1l-3.9-2c-1.3-0.7-2.6-1.4-3.7-2.1c-0.3-0.2-0.6-0.4-0.9-0.6c-0.3-0.2-0.5-0.4-0.8-0.6
		c-0.3-0.2-0.5-0.4-0.7-0.6l0,0c0,0,0,0,0,0c0-0.2,0-0.4,0.1-0.6c0.1-0.4,0.1-0.8,0.3-1.2c0.1-0.4,0.3-0.7,0.4-1.1l0.3-0.5l0.3-0.5
		c0.1-0.2,0.2-0.3,0.4-0.5c0.1-0.2,0.2-0.3,0.4-0.4l0.4-0.4l0.5-0.4c0.3-0.3,0.7-0.4,1-0.7c0.1-0.1,0.3-0.2,0.4-0.2
		C22.8,4.7,23,4.9,23.2,5c0.5,0.4,1,0.9,1.5,1.5C25,6.7,25.2,7,25.5,7.3c0.2,0.3,0.5,0.6,0.7,0.9c0.2,0.3,0.5,0.6,0.7,0.9l0.6,1
		c0.2,0.3,0.4,0.7,0.6,1l0.6,1c0.4,0.7,0.8,1.4,1.1,2.2l0.5,1.1c0.2,0.4,0.4,0.7,0.6,1.1c0.2,0.4,0.4,0.8,0.6,1.2h0.4
		c0-0.5,0-1-0.1-1.5c-0.1-0.8-0.2-1.7-0.4-2.5c-0.1-0.8-0.3-1.7-0.5-2.5c-0.1-0.4-0.2-0.8-0.4-1.2c-0.1-0.4-0.2-0.8-0.4-1.2
		c-0.3-0.8-0.6-1.6-1-2.4c-0.2-0.4-0.4-0.8-0.6-1.2c-0.2-0.4-0.5-0.8-0.7-1.1c-0.5-0.8-1.1-1.5-1.8-2.2c-0.4-0.3-0.7-0.7-1.2-1
		c-0.2-0.2-0.5-0.3-0.7-0.4c-0.3-0.1-0.5-0.2-1-0.4L22.3,0l-0.6,0.3l-0.8,0.3c-0.3,0.1-0.5,0.2-0.8,0.4c-0.5,0.3-1.1,0.6-1.6,1
		l-0.7,0.6l-0.7,0.6c-0.2,0.2-0.4,0.4-0.6,0.7c-0.2,0.3-0.4,0.5-0.6,0.8l-0.5,0.8l-0.4,0.9c-0.3,0.6-0.5,1.2-0.6,1.8
		c-0.2,0.6-0.3,1.2-0.3,1.9c0,0.3,0,0.6,0,1c0,0.3,0,0.6,0.1,1.1L14.1,12.5z"/>
	<path id="XMLID_285_" d="M32.6,17.9c0.2-0.4,0.4-0.8,0.6-1.2c0.2-0.4,0.4-0.7,0.6-1.1l0.5-1.1c0.4-0.7,0.8-1.4,1.1-2.2l0.6-1
		c0.2-0.3,0.4-0.7,0.6-1l0.6-1c0.2-0.3,0.5-0.6,0.7-0.9c0.2-0.3,0.4-0.6,0.7-0.9c0.2-0.3,0.5-0.6,0.7-0.9c0.5-0.6,1-1,1.5-1.5
		c0.2-0.2,0.5-0.4,0.7-0.5c0.1,0.1,0.3,0.1,0.4,0.2c0.3,0.2,0.7,0.4,1,0.7l0.5,0.4L44,6.2c0.2,0.1,0.3,0.3,0.4,0.4
		c0.1,0.2,0.3,0.3,0.4,0.5L45,7.6l0.3,0.5c0.2,0.4,0.3,0.7,0.4,1.1C45.9,9.6,46,10,46,10.4c0,0.2,0.1,0.4,0.1,0.6c0,0,0,0,0,0l0,0
		c-0.2,0.2-0.4,0.4-0.7,0.6c-0.3,0.2-0.5,0.4-0.8,0.6c-0.3,0.2-0.6,0.4-0.9,0.6c-1.2,0.7-2.5,1.4-3.7,2.1l-3.9,2
		c-0.7,0.3-1.3,0.7-2,1c0,0-0.1,0-0.1,0.1h4.8c0.8-0.2,1.5-0.3,2.2-0.6c1.5-0.4,2.9-0.9,4.3-1.5c0.4-0.2,0.7-0.3,1.1-0.5
		c0.4-0.2,0.7-0.4,1.1-0.6c0.4-0.2,0.7-0.5,1.1-0.7l0.3-0.2l0.3-0.3c0.2-0.2,0.4-0.4,0.6-0.6l0.3-0.3l0.1-0.6
		c0.1-0.5,0.1-0.7,0.1-1.1c0-0.3,0-0.6,0-1c-0.1-0.6-0.2-1.3-0.3-1.9c-0.2-0.6-0.4-1.2-0.6-1.8l-0.4-0.9l-0.5-0.8
		c-0.2-0.3-0.4-0.5-0.6-0.8c-0.2-0.3-0.4-0.5-0.6-0.7l-0.7-0.6l-0.7-0.6c-0.5-0.4-1-0.6-1.6-1c-0.3-0.1-0.5-0.2-0.8-0.4l-0.8-0.3
		L41.8,0l-0.6,0.2c-0.6,0.2-0.7,0.3-1,0.4c-0.2,0.1-0.5,0.3-0.7,0.4c-0.4,0.3-0.8,0.6-1.2,1c-0.7,0.7-1.3,1.4-1.8,2.2
		c-0.3,0.4-0.5,0.8-0.7,1.1c-0.2,0.4-0.5,0.8-0.6,1.2c-0.4,0.8-0.7,1.6-1,2.4c-0.2,0.4-0.3,0.8-0.4,1.2c-0.1,0.4-0.3,0.8-0.4,1.2
		c-0.2,0.8-0.4,1.7-0.5,2.5c-0.1,0.8-0.3,1.7-0.4,2.5c0,0.5-0.1,1-0.1,1.5H32.6z"/>
</g>
</svg>
