<?xml version="1.0" encoding="utf-8"?>
<!-- Generator: Adobe Illustrator 21.0.2, SVG Export Plug-In . SVG Version: 6.00 Build 0)  -->
<svg version="1.1" id="icons" xmlns="http://www.w3.org/2000/svg" xmlns:xlink="http://www.w3.org/1999/xlink" x="0px" y="0px"
	 viewBox="0 0 64 64" style="enable-background:new 0 0 64 64;" xml:space="preserve">
<style type="text/css">
	.st0{fill:none;stroke:#000000;stroke-miterlimit:10;}
	.st1{fill:none;}
	.st2{fill:none;stroke:#000000;stroke-width:1.5;stroke-miterlimit:10;}
</style>
<g id="XMLID_9010_">
	<path d="M32,1.5c16.8,0,30.5,13.7,30.5,30.5S48.8,62.5,32,62.5S1.5,48.8,1.5,32S15.2,1.5,32,1.5 M32,0C14.3,0,0,14.3,0,32
		s14.3,32,32,32c17.7,0,32-14.3,32-32S49.7,0,32,0L32,0z"/>
</g>
<g id="XMLID_723_">
	<path id="XMLID_2432_" d="M48.8,15.2c-4.4-4.4-11.5-4.4-15.9,0L15.3,32.8c-4.4,4.4-4.4,11.5,0,15.9c4.4,4.4,11.5,4.4,15.9,0
		l17.6-17.6C53.2,26.7,53.2,19.5,48.8,15.2z M46.9,29.7l-7.4,7.4L27,24.7l7.4-7.4c3.4-3.4,9-3.4,12.5,0
		C50.4,20.6,50.4,26.3,46.9,29.7z"/>
</g>
</svg>
