<?xml version="1.0" encoding="utf-8"?>
<!-- Generator: Adobe Illustrator 21.0.2, SVG Export Plug-In . SVG Version: 6.00 Build 0)  -->
<svg version="1.1" id="icons" xmlns="http://www.w3.org/2000/svg" xmlns:xlink="http://www.w3.org/1999/xlink" x="0px" y="0px"
	 viewBox="0 0 64 64" style="enable-background:new 0 0 64 64;" xml:space="preserve">
<style type="text/css">
	.st0{fill:none;stroke:#000000;stroke-miterlimit:10;}
	.st1{fill:none;}
	.st2{fill:none;stroke:#000000;stroke-width:1.5;stroke-miterlimit:10;}
</style>
<g id="XMLID_433_">
	<path id="XMLID_434_" d="M32,19C19.6,19,9.5,29.1,9.5,41.5S19.6,64,32,64s22.5-10.1,22.5-22.5S44.4,19,32,19z M33.5,41.3v13.8h-3.3
		V41.2c-1.6-0.7-2.8-2.3-2.8-4.2c0-2.5,2.1-4.6,4.6-4.6c2.5,0,4.6,2.1,4.6,4.6C36.6,39,35.3,40.7,33.5,41.3z"/>
	<path id="XMLID_437_" d="M21.4,20.5v-5c0-5.8,4.2-10.4,9.4-10.4h2.3c5.2,0,9.4,4.7,9.4,10.4v5c1.8,0.9,3.6,2.1,5.1,3.5v-8.5
		C47.7,7,41.2,0,33.2,0h-2.3c-8,0-14.5,7-14.5,15.5V24C17.9,22.6,19.6,21.5,21.4,20.5z"/>
</g>
</svg>
