<?xml version="1.0" encoding="utf-8"?>
<!-- Generator: Adobe Illustrator 21.0.2, SVG Export Plug-In . SVG Version: 6.00 Build 0)  -->
<svg version="1.1" id="icons" xmlns="http://www.w3.org/2000/svg" xmlns:xlink="http://www.w3.org/1999/xlink" x="0px" y="0px"
	 viewBox="0 0 64 64" style="enable-background:new 0 0 64 64;" xml:space="preserve">
<style type="text/css">
	.st0{fill:none;stroke:#000000;stroke-miterlimit:10;}
	.st1{fill:none;}
	.st2{fill:none;stroke:#000000;stroke-width:1.5;stroke-miterlimit:10;}
</style>
<g id="XMLID_875_">
	<path id="XMLID_1196_" d="M12.9,58.1V5.9c1-0.5,1.7-1.5,1.7-2.8c0-1.7-1.4-3.1-3.1-3.1S8.5,1.4,8.5,3.1c0,1.2,0.7,2.3,1.7,2.8v52.2
		c-1,0.5-1.7,1.5-1.7,2.8c0,1.7,1.4,3.1,3.1,3.1s3.1-1.4,3.1-3.1C14.6,59.7,13.9,58.6,12.9,58.1z"/>
	<path id="XMLID_876_" class="st0" d="M14.7,31c0.2-7.6-0.1-14.7,0-22.3c0-0.8,0.1-1.7,0.5-2.5C16,5.2,17.4,5,18.7,4.9
		c4.7-0.3,9.4,0.3,13.9,1.6c3.9,1.1,7.7,2.8,11.8,3.3c4.1,0.5,8.6-0.6,10.9-4c-0.6,4.5-1,9.1-1.3,13.6c-0.3,4.6-0.3,9.3,1.6,13.5
		c-0.8-0.5-1.9-0.5-2.8-0.2c-0.9,0.3-1.7,0.8-2.6,1.2c-3.3,1.5-7.2,1.3-10.8,0.3s-6.8-2.6-10.2-4s-7-2.4-10.7-2.1
		c-0.9,0.1-1.8,0.2-2.5,0.7C15.2,29.3,14.7,30.1,14.7,31"/>
</g>
</svg>
