<svg id="icons" xmlns="http://www.w3.org/2000/svg" viewBox="0 0 64 64"><title>changa_twitter-circle-o</title><path id="_Compound_Path_" data-name="&lt;Compound Path&gt;" d="M32,1.5A30.5,30.5,0,1,1,1.5,32,30.53,30.53,0,0,1,32,1.5M32,0A32,32,0,1,0,64,32,32,32,0,0,0,32,0Z"/><g id="_Group_" data-name="&lt;Group&gt;"><path id="_Path_" data-name="&lt;Path&gt;" d="M38.46,17.55h.72c.36,0,.71.08,1.06.15A7.2,7.2,0,0,1,44,19.75a.23.23,0,0,0,.24.08A14.77,14.77,0,0,0,48,18.54l.82-.44a7.28,7.28,0,0,1-1.23,2.28,7.93,7.93,0,0,1-1.91,1.71A14.06,14.06,0,0,0,49.75,21l-.14.21a14.69,14.69,0,0,1-3.37,3.46.25.25,0,0,0-.11.23,19.74,19.74,0,0,1-.47,5.17,21.38,21.38,0,0,1-6,10.83,19.2,19.2,0,0,1-5.27,3.63,21.64,21.64,0,0,1-12.67,1.6,20.61,20.61,0,0,1-7.34-2.84l-.11-.08a14.66,14.66,0,0,0,10.71-3,7.41,7.41,0,0,1-4.18-1.46,7.2,7.2,0,0,1-2.58-3.57c.55,0,1.09.07,1.63.07A5.14,5.14,0,0,0,21.41,35a7.28,7.28,0,0,1-5.76-7.18c.51.19,1,.4,1.56.58a5.4,5.4,0,0,0,1.66.25,7.32,7.32,0,0,1-3-4.43,7.22,7.22,0,0,1,.78-5.28,20.89,20.89,0,0,0,15.06,7.63c0-.1,0-.15,0-.21a7.3,7.3,0,0,1,5.69-8.62C37.73,17.63,38.09,17.6,38.46,17.55Z"/></g></svg>