<svg id="icons" xmlns="http://www.w3.org/2000/svg" viewBox="0 0 64 64"><title>changa_wifi-circle</title><path id="_Compound_Path_" data-name="&lt;Compound Path&gt;" d="M32,0A32,32,0,1,0,64,32,32,32,0,0,0,32,0Zm3.56,53.3a6.77,6.77,0,0,1-3.62,1,6.18,6.18,0,0,1-5-2.58,5.5,5.5,0,0,1,.81-7.38,6.55,6.55,0,0,1,8.72,0A5.58,5.58,0,0,1,35.56,53.3ZM40,41.68a2.91,2.91,0,0,1-2.29-1A8.08,8.08,0,0,0,35.36,39a7.75,7.75,0,0,0-9,1.65,3.09,3.09,0,0,1-1.61,1,2.89,2.89,0,0,1-3.54-2.65,2.59,2.59,0,0,1,.46-1.7,10.78,10.78,0,0,1,2.76-2.53,13.2,13.2,0,0,1,5-2.05,13.55,13.55,0,0,1,12.68,4.27A2.9,2.9,0,0,1,40,41.68Zm9-9.06a2.72,2.72,0,0,1-2.07,1.73,2.92,2.92,0,0,1-2.71-.82,21,21,0,0,0-2.69-2.16,17.31,17.31,0,0,0-11.23-2.76,17,17,0,0,0-5,1.26,17.51,17.51,0,0,0-3.88,2.25c-.68.51-1.25,1.14-1.93,1.66a2.9,2.9,0,0,1-3.71-4.44,23.26,23.26,0,0,1,7.35-4.85,22.26,22.26,0,0,1,8.7-1.75,22.44,22.44,0,0,1,7.09,1,23.4,23.4,0,0,1,7.32,3.83,23.85,23.85,0,0,1,2.06,1.8A2.81,2.81,0,0,1,49,32.62Zm5.28-5.89a2.8,2.8,0,0,1-2.74.17,3.66,3.66,0,0,1-1-.72,27.05,27.05,0,0,0-21-7.22,26.92,26.92,0,0,0-15.87,7,4.78,4.78,0,0,1-1.11.85,2.88,2.88,0,0,1-4.15-2.09,2.9,2.9,0,0,1,1-2.76,32.76,32.76,0,0,1,16.21-8.33,34.08,34.08,0,0,1,4.11-.53c.75-.05,1.49-.07,2.48-.09a33.27,33.27,0,0,1,5.77.57A32.57,32.57,0,0,1,51.42,19.4a33,33,0,0,1,3.2,2.67,2.91,2.91,0,0,1,1,2.35A2.79,2.79,0,0,1,54.28,26.73Z"/></svg>