<?xml version="1.0" encoding="utf-8"?>
<!-- Generator: Adobe Illustrator 21.0.2, SVG Export Plug-In . SVG Version: 6.00 Build 0)  -->
<svg version="1.1" id="icons" xmlns="http://www.w3.org/2000/svg" xmlns:xlink="http://www.w3.org/1999/xlink" x="0px" y="0px"
	 viewBox="0 0 64 64" style="enable-background:new 0 0 64 64;" xml:space="preserve">
<style type="text/css">
	.st0{fill:none;stroke:#000000;stroke-miterlimit:10;}
	.st1{fill:none;}
	.st2{fill:none;stroke:#000000;stroke-width:1.5;stroke-miterlimit:10;}
</style>
<g id="XMLID_2388_">
	<path id="XMLID_2389_" d="M34.4,17.2l-7.5,7.5l12.6,12.6l7.5-7.5c3.5-3.5,3.5-9.1,0-12.6C43.5,13.7,37.8,13.7,34.4,17.2z"/>
	<path id="XMLID_2392_" d="M32,0C14.3,0,0,14.3,0,32c0,17.7,14.3,32,32,32c17.7,0,32-14.3,32-32C64,14.3,49.7,0,32,0z M48.9,31.2
		L31.1,48.9c-4.4,4.4-11.6,4.4-16.1,0s-4.4-11.6,0-16.1l17.8-17.8c4.4-4.4,11.6-4.4,16.1,0C53.3,19.5,53.3,26.8,48.9,31.2z"/>
</g>
</svg>
