<?xml version="1.0" encoding="utf-8"?>
<!-- Generator: Adobe Illustrator 21.0.2, SVG Export Plug-In . SVG Version: 6.00 Build 0)  -->
<svg version="1.1" id="icons" xmlns="http://www.w3.org/2000/svg" xmlns:xlink="http://www.w3.org/1999/xlink" x="0px" y="0px"
	 viewBox="0 0 64 64" style="enable-background:new 0 0 64 64;" xml:space="preserve">
<style type="text/css">
	.st0{stroke:#FFFFFF;stroke-width:0;stroke-linecap:round;stroke-linejoin:round;}
	.st1{fill:none;stroke:#000000;stroke-width:1.5;stroke-miterlimit:10;}
</style>
<g id="XMLID_259_">
	<path id="XMLID_260_" d="M58.8,19.4c-2.8,0-5.1,2.3-5.1,5.1c0,0.7,0.1,1.3,0.4,1.9l-13.2,5.3l-7.2-16.8c1.8-0.8,3.1-2.6,3.1-4.7
		c0-2.8-2.3-5.1-5.1-5.1c-2.8,0-5.1,2.3-5.1,5.1c0,2.1,1.3,3.9,3.1,4.7l-7.1,16.6L9.9,26.4c0.2-0.6,0.4-1.2,0.4-1.9
		c0-2.8-2.3-5.1-5.1-5.1c-2.8,0-5.1,2.3-5.1,5.1c0,2.8,2.3,5.1,5.1,5.1c0.7,0,1.3-0.1,1.9-0.4l2.9,7.2v13.8h43.6V37.4l3.3-8.2
		c0.6,0.2,1.2,0.4,1.9,0.4c2.8,0,5.1-2.3,5.1-5.1C63.9,21.7,61.6,19.4,58.8,19.4z"/>
	<rect id="XMLID_261_" x="10" y="52.3" width="43.6" height="1.7"/>
	<path id="XMLID_262_" d="M10,57.3c0,0.9,0.7,1.6,1.6,1.6h7.5h25.8H52c0.9,0,1.6-0.7,1.6-1.6v-1.3H10V57.3z"/>
</g>
</svg>
