<svg id="icons" xmlns="http://www.w3.org/2000/svg" viewBox="0 0 64 64"><title>changa_youtube-circle-o</title><path id="_Compound_Path_" data-name="&lt;Compound Path&gt;" d="M32,1.5A30.5,30.5,0,1,1,1.5,32,30.53,30.53,0,0,1,32,1.5M32,0A32,32,0,1,0,64,32,32,32,0,0,0,32,0Z"/><g id="_Group_" data-name="&lt;Group&gt;"><path id="_Compound_Path_2" data-name="&lt;Compound Path&gt;" d="M13.37,34q0-2,0-4a2.23,2.23,0,0,0,0-.26c.08-1.34.16-2.69.25-4a7.91,7.91,0,0,1,2-5,4.27,4.27,0,0,1,3-1.5c.93-.05,1.86-.15,2.79-.19,2.13-.09,4.26-.19,6.39-.23q8.92-.15,17.83.46a4,4,0,0,1,2.62,1.19,6.46,6.46,0,0,1,1.84,3.84c.19,1.41.24,2.84.35,4.26,0,.39.06.79.08,1.18v4.11a2.5,2.5,0,0,0,0,.26c-.08,1.36-.18,2.71-.24,4.07a8,8,0,0,1-1.82,4.74,4.56,4.56,0,0,1-2.84,1.82,25.6,25.6,0,0,1-2.9.22c-2.59.1-5.19.21-7.79.24q-8.11.11-16.2-.4A4.32,4.32,0,0,1,16,43.55a7.22,7.22,0,0,1-2.18-4.23c-.21-1.39-.24-2.8-.36-4.2C13.43,34.73,13.4,34.35,13.37,34ZM39,31.91,27.36,25.25V38.58Z"/></g></svg>