<?xml version="1.0" encoding="utf-8"?>
<!-- Generator: Adobe Illustrator 21.0.2, SVG Export Plug-In . SVG Version: 6.00 Build 0)  -->
<svg version="1.1" id="icons" xmlns="http://www.w3.org/2000/svg" xmlns:xlink="http://www.w3.org/1999/xlink" x="0px" y="0px"
	 viewBox="0 0 64 64" style="enable-background:new 0 0 64 64;" xml:space="preserve">
<style type="text/css">
	.st0{fill:none;stroke:#000000;stroke-miterlimit:10;}
	.st1{fill:none;}
	.st2{fill:none;stroke:#000000;stroke-width:1.5;stroke-miterlimit:10;}
</style>
<g>
	<path d="M38.3,25.6c0-7-5.7-12.6-12.6-12.6s-12.6,5.7-12.6,12.6c0,7,5.7,12.6,12.6,12.6S38.3,32.5,38.3,25.6z"/>
	<path d="M64,32C64,14.3,49.7,0,32,0C14.3,0,0,14.3,0,32s14.3,32,32,32C49.7,64,64,49.7,64,32z M50.8,51.6c-0.9,0.5-2,0.3-3-0.1
		c-3.3-1.2-6.2-3.5-8.6-6.1c-2.2-2.4-4.1-5.2-5.8-8c-2.2,1.5-4.9,2.3-7.7,2.3c-7.8,0-14.1-6.3-14.1-14.1s6.3-14.1,14.1-14.1
		s14.1,6.3,14.1,14.1c0,3.1-1,5.9-2.6,8.2c4.1,2,7.8,4.7,11,7.9c2,2,3.9,4.5,3.8,7.3C52,50,51.7,51.1,50.8,51.6z"/>
</g>
</svg>
