<svg id="icons" xmlns="http://www.w3.org/2000/svg" viewBox="0 0 64 64"><defs><style>.cls-1{stroke:#fff;stroke-linecap:round;stroke-linejoin:round;stroke-width:0;}</style></defs><title>changa_facebook</title><g id="_Group_" data-name="&lt;Group&gt;"><path id="_Path_" data-name="&lt;Path&gt;" class="cls-1" d="M36.93,64V34.83h.79c2.76,0,5.53,0,8.29,0,.57,0,.74-.18.8-.73q.6-5,1.29-9.95c.07-.55,0-.73-.63-.73-3.31,0-6.61,0-9.92,0-.51,0-.64-.15-.63-.65,0-2.16,0-4.33,0-6.49A13,13,0,0,1,37.16,14a3.56,3.56,0,0,1,2.57-2.9,7.94,7.94,0,0,1,2.06-.36c2.06-.06,4.13-.05,6.19-.06.38,0,.59-.06.59-.52,0-3.07,0-6.13,0-9.2,0-.31-.08-.47-.43-.5a53.66,53.66,0,0,0-11-.22A13.31,13.31,0,0,0,30.34,3a13.55,13.55,0,0,0-5.06,10.53c-.14,3-.06,6.09-.08,9.13,0,.8,0,.8-.78.8h-9V34.85H25.2v.69q0,13.88,0,27.77c0,.22,0,.44-.05.65"/></g></svg>