<svg id="icons" xmlns="http://www.w3.org/2000/svg" xmlns:xlink="http://www.w3.org/1999/xlink" viewBox="0 0 64 64"><defs><style>.cls-1{fill:none;}.cls-2{clip-path:url(#clip-path);}.cls-3{fill:#fff;}</style><clipPath id="clip-path"><circle class="cls-1" cx="116.06" cy="32.09" r="31.94"/></clipPath></defs><title>changa_settings-cog-android-material</title><path d="M54.66,22.62V9.37H41.4L32,0,22.66,9.37H9.34V22.62L0,32l9.37,9.37V54.63H22.66L32,64l9.37-9.37H54.66V41.35L64,32ZM32,48.87A16.88,16.88,0,1,1,48.92,32,16.88,16.88,0,0,1,32,48.87Z"/><circle cx="32.03" cy="31.99" r="8.98"/><g class="cls-2"><path class="cls-3" d="M82.14,47.5a20.91,20.91,0,1,0-5.52,41.45A20.91,20.91,0,0,0,82.14,47.5Z"/><path class="cls-3" d="M102.62,66.54l4-1q-.08-.8-.21-1.59h-4.09a23.16,23.16,0,0,0-.89-3.32l3.55-2q-.29-.75-.61-1.48l-4,1.06a23.4,23.4,0,0,0-1.72-3l2.9-2.88q-.47-.65-1-1.28L97,53a23.4,23.4,0,0,0-2.42-2.44l2.06-3.54q-.62-.51-1.27-1L92.51,49a23.16,23.16,0,0,0-3-1.73l1.07-3.95q-.73-.33-1.48-.62l-2,3.55a23.31,23.31,0,0,0-3.32-.89l0-4.09-.8-.12-.8-.09-1.06,4a23.31,23.31,0,0,0-3.44,0l-1-4q-.8.08-1.59.21v4.09a23.14,23.14,0,0,0-3.32.89l-2-3.55q-.75.29-1.48.61l1.06,4a23.39,23.39,0,0,0-3,1.72L63.42,46q-.65.47-1.28,1l2,3.54A23.39,23.39,0,0,0,61.75,53l-3.54-2.06q-.51.62-1,1.27l2.9,2.89a23.16,23.16,0,0,0-1.73,3L54.45,57q-.33.73-.62,1.48l3.55,2a23.32,23.32,0,0,0-.89,3.32l-4.09,0q-.06.4-.12.8t-.09.8l4,1.06a23.32,23.32,0,0,0,0,3.44l-4,1q.08.8.21,1.59h4.09a23.16,23.16,0,0,0,.89,3.32l-3.55,2q.29.75.61,1.48l4-1.06a23.4,23.4,0,0,0,1.72,3l-2.9,2.88q.47.65,1,1.28l3.54-2a23.4,23.4,0,0,0,2.42,2.44l-2.06,3.54q.62.51,1.27,1l2.89-2.9a23.15,23.15,0,0,0,3,1.73l-1.07,3.95q.73.33,1.48.62l2-3.55a23.31,23.31,0,0,0,3.32.89l0,4.09.8.12.8.09,1.06-4a23.32,23.32,0,0,0,3.44,0l1,4q.8-.08,1.59-.21V91.13A23.15,23.15,0,0,0,87,90.24l2,3.55q.75-.29,1.48-.61l-1.06-4a23.39,23.39,0,0,0,3-1.72l2.88,2.9q.65-.47,1.28-1l-2-3.54A23.39,23.39,0,0,0,97,83.47l3.54,2.06q.51-.62,1-1.27l-2.9-2.89a23.16,23.16,0,0,0,1.73-3l3.95,1.07q.33-.73.62-1.48l-3.55-2a23.32,23.32,0,0,0,.89-3.32l4.09,0q.06-.4.12-.8t.09-.8l-4-1.06A23.33,23.33,0,0,0,102.62,66.54Zm-1.47,4.58A22,22,0,0,1,79.42,90.19a22.31,22.31,0,0,1-2.95-.2,22,22,0,1,1,24.67-18.87Z"/></g></svg>