<svg id="icons" xmlns="http://www.w3.org/2000/svg" viewBox="0 0 64 64"><defs><style>.cls-1{fill:#fff;}</style></defs><title>changa_heart-crushed</title><path id="_Path_" data-name="&lt;Path&gt;" d="M32.22,62.15c-6.27-5.23-10.12-10-15-16-3.56-4.39-6.68-8.75-9.89-13.4C4.87,29.19,2.41,25.62,1,21.58S-.66,12.92,1.27,9.1a13.62,13.62,0,0,1,11.82-7A17.65,17.65,0,0,1,25.92,7.78,25.28,25.28,0,0,1,32.1,20.62c.45-6.29,3.42-12.56,8.64-16.09S53.47.74,58.41,4.65c4.72,3.74,6.31,10.5,5.06,16.4S58,31.61,54.39,36.4c-4,5.23-7,8.83-11.2,13.78A125.76,125.76,0,0,1,32.22,62.15Z"/><polygon class="cls-1" points="31.87 7 28 20.11 30.09 26.48 28.25 34.25 30.25 48.17 31.24 51.13 31.87 40.32 30.5 33.67 31.96 29.06 35.22 17.15 31.87 7"/><polyline class="cls-1" points="32.67 53.08 31.55 45.8 30.36 44.51 30.22 47.49 29.78 52.72 32 55.17 32.83 58.92 34.3 60.3 36.92 59.58 34.79 57.25"/></svg>