<svg id="icons" xmlns="http://www.w3.org/2000/svg" viewBox="0 0 64 64"><title>changa_toggle-off-o</title><path id="_Compound_Path_" data-name="&lt;Compound Path&gt;" d="M51.47,19.44a11,11,0,0,1,11,11v3.06a11,11,0,0,1-11,11H12.53a11,11,0,0,1-11-11V30.47a11,11,0,0,1,11-11H51.47m0-1.5H12.53A12.54,12.54,0,0,0,0,30.47v3.06A12.54,12.54,0,0,0,12.53,46.06H51.47A12.54,12.54,0,0,0,64,33.53V30.47A12.54,12.54,0,0,0,51.47,17.94Z"/><ellipse id="_Path_" data-name="&lt;Path&gt;" cx="15.15" cy="32" rx="11.41" ry="11.33"/></svg>