<svg id="icons" xmlns="http://www.w3.org/2000/svg" viewBox="0 0 64 64"><title>changa_settings-cog-simple</title><path d="M61.82,37.84l-5.48-3.76a2.53,2.53,0,0,1,0-4.17l5.48-3.76a2.53,2.53,0,0,0,1-2.76q-.36-1.3-.83-2.56a2.53,2.53,0,0,0-2.44-1.64l-6.64.18A2.53,2.53,0,0,1,50.47,16l2.22-6.25a2.53,2.53,0,0,0-.81-2.83q-1.05-.84-2.18-1.58a2.53,2.53,0,0,0-2.94.1l-5.26,4a2.53,2.53,0,0,1-4-1.29L35.66,1.84A2.53,2.53,0,0,0,33.35,0L32,0,30.65,0a2.53,2.53,0,0,0-2.32,1.81L26.46,8.21a2.53,2.53,0,0,1-4,1.29l-5.26-4a2.53,2.53,0,0,0-2.94-.1q-1.12.75-2.18,1.58a2.53,2.53,0,0,0-.81,2.83L13.53,16a2.53,2.53,0,0,1-2.45,3.37L4.44,19.2A2.53,2.53,0,0,0,2,20.84q-.47,1.26-.83,2.56a2.53,2.53,0,0,0,1,2.76l5.48,3.76a2.53,2.53,0,0,1,0,4.17L2.18,37.84a2.53,2.53,0,0,0-1,2.76q.36,1.3.83,2.56A2.53,2.53,0,0,0,4.44,44.8l6.64-.18A2.53,2.53,0,0,1,13.53,48l-2.22,6.25a2.53,2.53,0,0,0,.81,2.83q1.05.84,2.18,1.58a2.53,2.53,0,0,0,2.94-.1l5.26-4a2.53,2.53,0,0,1,4,1.29l1.88,6.37A2.53,2.53,0,0,0,30.65,64L32,64l1.35,0a2.53,2.53,0,0,0,2.32-1.81l1.88-6.37a2.53,2.53,0,0,1,4-1.29l5.26,4a2.53,2.53,0,0,0,2.94.1q1.12-.75,2.18-1.58a2.53,2.53,0,0,0,.81-2.83L50.47,48a2.53,2.53,0,0,1,2.45-3.37l6.64.18A2.53,2.53,0,0,0,62,43.16q.47-1.26.83-2.56A2.53,2.53,0,0,0,61.82,37.84ZM32,44.92A12.92,12.92,0,1,1,44.92,32,12.92,12.92,0,0,1,32,44.92Z"/></svg>