<svg id="icons" xmlns="http://www.w3.org/2000/svg" viewBox="0 0 64 64"><title>changa_ban-o</title><path id="_Compound_Path_" data-name="&lt;Compound Path&gt;" d="M32,1.5A30.5,30.5,0,1,1,1.5,32,30.53,30.53,0,0,1,32,1.5M32,0A32,32,0,1,0,64,32,32,32,0,0,0,32,0Z"/><path id="_Compound_Path_2" data-name="&lt;Compound Path&gt;" d="M32.06,7.38a24.38,24.38,0,0,1,13,3.71L11.15,45A24.38,24.38,0,0,1,7.44,32,24.65,24.65,0,0,1,32.06,7.38M52.33,18a24.29,24.29,0,0,1,4.36,14A24.65,24.65,0,0,1,32.06,56.62a24.3,24.3,0,0,1-14-4.36L52.33,18M32.06,5.88A26.1,26.1,0,0,0,10.92,47.32L47.38,10.86a26,26,0,0,0-15.32-5ZM52.5,15.75,15.81,52.43A26.1,26.1,0,0,0,52.5,15.75Z"/></svg>