<svg id="icons" xmlns="http://www.w3.org/2000/svg" viewBox="0 0 64 64"><defs><style>.cls-1{fill:none;stroke:#000;stroke-miterlimit:10;stroke-width:1.5px;}</style></defs><title>changa_lightbulb-o</title><path d="M33.27,7.53a13.2,13.2,0,0,1,13,13.37,24,24,0,0,1-4.42,12.9c-3.59,4.76-3.71,10-3.77,12.84V47a25,25,0,0,1-3.89.27,46.45,46.45,0,0,1-5.33-.34A20.11,20.11,0,0,0,23.7,33.67C20,29.41,20.29,21.05,20.29,21V20.9a13.2,13.2,0,0,1,13-13.37m0-1.5A14.68,14.68,0,0,0,18.79,20.9s-.42,9,3.82,13.8c0,0,4.88,4.67,4.72,13.5a47.88,47.88,0,0,0,6.82.52,23.43,23.43,0,0,0,5.32-.52c.25-2-.51-8.11,3.54-13.5a25.42,25.42,0,0,0,4.72-13.8A14.68,14.68,0,0,0,33.27,6Z"/><path class="cls-1" d="M33.27,48.72s.9-19.08-1.72-24c-2.31-4.3-4.22-1.49-4,.53a5.07,5.07,0,0,0,3,4.47c1.74.72,4.85-.64,6.17-2,1.48-1.54,4.05-5.09,2.55-6.59-1.21-1.21-4.33.34-5.34,4,0,0-1.16,3.66-.88,5.63"/><rect x="26.87" y="49.83" width="13.02" height="1.44" rx="0.53" ry="0.53"/><rect x="26.87" y="51.98" width="13.02" height="1.44" rx="0.53" ry="0.53"/><rect x="26.87" y="54.13" width="13.02" height="1.44" rx="0.53" ry="0.53"/><path d="M37.45,56.24c0,.93-1.91,1.69-4.26,1.69s-4.26-.76-4.26-1.69Z"/></svg>