<?xml version="1.0" encoding="utf-8"?>
<!-- Generator: Adobe Illustrator 21.0.2, SVG Export Plug-In . SVG Version: 6.00 Build 0)  -->
<svg version="1.1" id="icons" xmlns="http://www.w3.org/2000/svg" xmlns:xlink="http://www.w3.org/1999/xlink" x="0px" y="0px"
	 viewBox="0 0 64 64" style="enable-background:new 0 0 64 64;" xml:space="preserve">
<style type="text/css">
	.st0{fill:none;stroke:#000000;stroke-miterlimit:10;}
	.st1{fill:none;}
	.st2{fill:none;stroke:#000000;stroke-width:1.5;stroke-miterlimit:10;}
</style>
<g id="XMLID_765_">
	<g>
		<path d="M57.8,6.3c0.6,0.7,0.9,1.5,0.9,2.4v46.4c0,2.1-1.7,3.7-3.7,3.7H32.5v1.5H55c2.9,0,5.2-2.3,5.2-5.2V8.8
			c0-1.3-0.5-2.4-1.2-3.3L57.8,6.3z"/>
		<path d="M4.9,55.2V8.8C4.9,6.7,6.5,5,8.6,5h46.1l1.7-1.3C56,3.6,55.5,3.5,55,3.5H8.6c-2.9,0-5.2,2.3-5.2,5.2v46.4
			c0,2.9,2.3,5.2,5.2,5.2H25v-1.5H8.6C6.5,58.9,4.9,57.2,4.9,55.2z"/>
	</g>
	<g id="XMLID_769_">
		<path id="XMLID_770_" d="M11.1,29.4C16.7,40.7,22.3,52,27.9,63.3c0,0,3.2-0.8,3.2-0.9C31.3,37.4,43,14.5,64,0.7
			c-0.9,0.6-2.3,0.3-3.2,0.9c-21,13.9-32.7,36.7-32.9,61.7c1.1-0.3,2.1-0.6,3.2-0.9c-5.6-11.3-11.2-22.6-16.8-33.9
			C14.2,28.3,11.2,29.5,11.1,29.4L11.1,29.4z"/>
	</g>
</g>
</svg>
