<?xml version="1.0" encoding="utf-8"?>
<!-- Generator: Adobe Illustrator 21.0.2, SVG Export Plug-In . SVG Version: 6.00 Build 0)  -->
<svg version="1.1" id="icons" xmlns="http://www.w3.org/2000/svg" xmlns:xlink="http://www.w3.org/1999/xlink" x="0px" y="0px"
	 viewBox="0 0 64 64" style="enable-background:new 0 0 64 64;" xml:space="preserve">
<style type="text/css">
	.st0{stroke:#FFFFFF;stroke-width:0;stroke-linecap:round;stroke-linejoin:round;}
	.st1{fill:none;stroke:#000000;stroke-width:1.5;stroke-miterlimit:10;}
</style>
<path id="XMLID_352_" d="M55.8,0.8H38.9v8.3h9.6L32.2,25.3c-3.3-2.2-7.3-3.6-11.6-3.6C9.2,21.8-0.1,31-0.1,42.5
	c0,11.4,9.3,20.7,20.7,20.7s20.7-9.3,20.7-20.7c0-3.5-0.9-6.8-2.4-9.7l16.9-16.9V26h8.3V9.1V0.8H55.8z M20.6,57.7
	c-8.4,0-15.2-6.8-15.2-15.2c0-8.4,6.8-15.2,15.2-15.2c8.4,0,15.2,6.8,15.2,15.2C35.9,50.9,29.1,57.7,20.6,57.7z"/>
</svg>
