<?xml version="1.0" encoding="utf-8"?>
<!-- Generator: Adobe Illustrator 21.0.2, SVG Export Plug-In . SVG Version: 6.00 Build 0)  -->
<svg version="1.1" id="icons" xmlns="http://www.w3.org/2000/svg" xmlns:xlink="http://www.w3.org/1999/xlink" x="0px" y="0px"
	 viewBox="0 0 64 64" style="enable-background:new 0 0 64 64;" xml:space="preserve">
<style type="text/css">
	.st0{stroke:#FFFFFF;stroke-width:0;stroke-linecap:round;stroke-linejoin:round;}
	.st1{fill:none;stroke:#000000;stroke-width:1.5;stroke-miterlimit:10;}
</style>
<g>
	<path d="M44.6,18h-4.3c-0.6,0-1.1,0.5-1.1,1.1v4.3c0,0.6,0.5,1.1,1.1,1.1h4.3c0.6,0,1.1-0.5,1.1-1.1v-4.3
		C45.7,18.5,45.2,18,44.6,18z"/>
	<circle cx="32" cy="32" r="7.4"/>
	<path d="M43.5,27h-2.2c0.8,1.5,1.3,3.2,1.3,5c0,5.8-4.7,10.5-10.5,10.5c-5.8,0-10.5-4.7-10.5-10.5c0-1.8,0.5-3.5,1.3-5h-2.2
		c-1.3,0-2.3,1-2.3,2.3v14.6c0,1.3,1,2.3,2.3,2.3h22.8c1.3,0,2.3-1,2.3-2.3V29.3C45.7,28,44.7,27,43.5,27z"/>
	<path d="M32,0C14.3,0,0,14.3,0,32c0,17.7,14.3,32,32,32c17.7,0,32-14.3,32-32C64,14.3,49.7,0,32,0z M48.3,45.3c0,1.7-1.3,3-3,3
		H18.7c-1.7,0-3-1.3-3-3V18.7c0-1.7,1.3-3,3-3h0.2c0,0,0,0-0.1,0c0,0,0.1,0,0.1,0h0.5h0.1v6.4c0,0.2,0.2,0.4,0.4,0.4
		s0.4-0.2,0.4-0.4v-6.4h0.6h0.2v6.4c0,0.2,0.2,0.4,0.4,0.4s0.4-0.2,0.4-0.4v-6.4h0.8v6.4c0,0.2,0.2,0.4,0.4,0.4s0.4-0.2,0.4-0.4
		v-6.4c0.1,0,0.2,0,0.3,0c-0.1,0-0.1,0-0.2,0h21.9c1.7,0,3,1.3,3,3V45.3z"/>
</g>
</svg>
