<svg id="icons" xmlns="http://www.w3.org/2000/svg" viewBox="0 0 64 64"><title>changa_bug-o</title><path d="M31.7,9.19l.76,0a7.52,7.52,0,0,1,6.69,9.85l-.35,1.06.91.64a17.72,17.72,0,0,1,4.76,5l.6.93h0l.49,1a24.06,24.06,0,0,1,2.5,10.79,23.59,23.59,0,0,1-3.75,13l-.53.8-.75.89a15.06,15.06,0,0,1-8.61,5.3V28.21H29.57V58.44A15.06,15.06,0,0,1,21,53.14l-.75-.89-.53-.8a23.59,23.59,0,0,1-3.75-13,24.06,24.06,0,0,1,2.5-10.79l.49-1h0l.6-.93a17.72,17.72,0,0,1,4.76-5l.91-.64-.35-1.06a7.52,7.52,0,0,1,5.94-9.77l.6-.1.15.33.17-.36M21.58,0h-.41l.11,1.59h.26a10.15,10.15,0,0,1,6.69,2.46,8.8,8.8,0,0,1,2.32,3.78,9,9,0,0,0-7.13,11.72A19.29,19.29,0,0,0,18.25,25l-8-8a1.13,1.13,0,1,0-1.6,1.6L17.09,27a25.47,25.47,0,0,0-2.67,11.46,24.94,24.94,0,0,0,4,13.81L8.65,62.07a1.13,1.13,0,0,0,1.6,1.6l9.56-9.56a16.12,16.12,0,0,0,11.26,6V29.71h1.86V60.14a16.12,16.12,0,0,0,11.26-6l9.56,9.56a1.13,1.13,0,0,0,1.6-1.6l-9.78-9.78a24.94,24.94,0,0,0,4-13.81A25.47,25.47,0,0,0,46.91,27l8.44-8.44a1.13,1.13,0,0,0-1.6-1.6l-8,8a19.29,19.29,0,0,0-5.17-5.41,9,9,0,0,0-8-11.82,8.76,8.76,0,0,1,2.29-3.68A10.15,10.15,0,0,1,41.54,1.6h.26L41.9,0H41.5a11.63,11.63,0,0,0-7.73,2.88A10,10,0,0,0,31.53,6,10,10,0,0,0,29.3,2.88,11.62,11.62,0,0,0,21.58,0Z"/></svg>