<svg id="icons" xmlns="http://www.w3.org/2000/svg" viewBox="0 0 64 64"><title>changa_home-o</title><path d="M51.95,33.79V62.5H37.78V44.27H23.44V62.5H9.27V33.79H51.95m1.5-1.5H7.77V62.83A1.17,1.17,0,0,0,8.94,64h16V45.77H36.28V64h16a1.17,1.17,0,0,0,1.17-1.17V32.29Z"/><path d="M30.61,1.5a.45.45,0,0,1,.32.13L45.55,16.28l12.92,13a.25.25,0,0,1,.07.3.39.39,0,0,1-.39.23H3.06a.39.39,0,0,1-.39-.23.25.25,0,0,1,.07-.3l12.92-13L30.29,1.63a.45.45,0,0,1,.32-.13m0-1.5a2,2,0,0,0-1.38.57L14.6,15.22l-12.92,13a1.82,1.82,0,0,0,1.38,3.09H58.15a1.82,1.82,0,0,0,1.38-3.09l-12.92-13L32,.57A2,2,0,0,0,30.61,0Z"/><path d="M49.9,7.76v6.17l-2.79-2.79V7.76H49.9m1.5-1.5H45.61v5.51l5.79,5.79V6.26Z"/></svg>