<svg id="icons" xmlns="http://www.w3.org/2000/svg" viewBox="0 0 64 64"><title>changa_twitter</title><g id="_Group_" data-name="&lt;Group&gt;"><path id="_Path_" data-name="&lt;Path&gt;" d="M43.56,6.13h1.29c.64.08,1.28.13,1.9.26a12.89,12.89,0,0,1,6.81,3.69.41.41,0,0,0,.43.14,26.42,26.42,0,0,0,6.56-2.31c.47-.24.94-.5,1.46-.78a13,13,0,0,1-2.19,4.08,14.19,14.19,0,0,1-3.41,3.06,25.16,25.16,0,0,0,7.35-2l-.25.37a26.29,26.29,0,0,1-6,6.2.44.44,0,0,0-.2.42,35.32,35.32,0,0,1-.84,9.26A38.26,38.26,0,0,1,45.67,47.92a34.36,34.36,0,0,1-9.43,6.5A37.23,37.23,0,0,1,21,57.86a37.48,37.48,0,0,1-7.45-.58A36.89,36.89,0,0,1,.44,52.2l-.2-.14A26.24,26.24,0,0,0,19.4,46.63,13.26,13.26,0,0,1,11.92,44a12.89,12.89,0,0,1-4.61-6.38c1,0,2,.13,2.91.13A9.2,9.2,0,0,0,13,37.31,13,13,0,0,1,2.74,24.47c.92.34,1.85.72,2.8,1a9.66,9.66,0,0,0,3,.44A13.1,13.1,0,0,1,3.14,18a12.92,12.92,0,0,1,1.4-9.44A37.38,37.38,0,0,0,31.49,22.21c0-.17,0-.28-.06-.38a12.67,12.67,0,0,1,1-8.19,12.77,12.77,0,0,1,9.2-7.23C42.24,6.28,42.91,6.23,43.56,6.13Z"/></g></svg>