<?xml version="1.0" encoding="utf-8"?>
<!-- Generator: Adobe Illustrator 21.0.2, SVG Export Plug-In . SVG Version: 6.00 Build 0)  -->
<svg version="1.1" id="icons" xmlns="http://www.w3.org/2000/svg" xmlns:xlink="http://www.w3.org/1999/xlink" x="0px" y="0px"
	 viewBox="0 0 64 64" style="enable-background:new 0 0 64 64;" xml:space="preserve">
<style type="text/css">
	.st0{stroke:#FFFFFF;stroke-width:0;stroke-linecap:round;stroke-linejoin:round;}
	.st1{fill:none;stroke:#000000;stroke-width:1.5;stroke-miterlimit:10;}
</style>
<path d="M58.1,0H5.9C2.6,0,0,2.6,0,5.9v52.3C0,61.4,2.6,64,5.9,64h52.3c3.2,0,5.9-2.6,5.9-5.9V5.9C64,2.6,61.4,0,58.1,0z M49.6,21.2
	c-0.9,1.3-2.1,2.5-3.4,3.5c-0.1,0.1-0.1,0.1-0.1,0.2c0.1,1.7-0.1,3.5-0.5,5.2c-1,4.2-2.9,7.8-6,10.8c-1.6,1.5-3.3,2.7-5.3,3.6
	c-2.7,1.3-5.5,1.9-8.5,1.9c-1.4,0-2.8-0.1-4.2-0.3c-2.6-0.5-5.1-1.4-7.3-2.8c0,0-0.1,0-0.1-0.1c4,0.4,7.5-0.6,10.7-3
	c-1.5-0.1-2.9-0.5-4.2-1.5c-1.2-0.9-2.1-2.1-2.6-3.6c0.6,0,1.1,0.1,1.6,0.1c0.5,0,1.1-0.1,1.6-0.3c-4-0.9-5.9-4.6-5.8-7.2
	c0.5,0.2,1,0.4,1.6,0.6c0.5,0.2,1.1,0.2,1.7,0.2c-1.5-1.1-2.6-2.6-3-4.4c-0.4-1.9-0.1-3.6,0.8-5.3c4,4.7,9,7.2,15.1,7.6
	c0-0.1,0-0.2,0-0.2c-0.3-1.6-0.2-3.1,0.5-4.6c1.1-2.2,2.8-3.5,5.1-4c0.4-0.1,0.7-0.1,1.1-0.2c0.2,0,0.5,0,0.7,0
	c0.4,0,0.7,0.1,1.1,0.1c1.5,0.3,2.8,1,3.8,2.1c0.1,0.1,0.1,0.1,0.2,0.1c1.3-0.3,2.5-0.7,3.7-1.3c0.3-0.1,0.5-0.3,0.8-0.4
	c-0.3,0.9-0.7,1.6-1.2,2.3c-0.5,0.7-1.2,1.2-1.9,1.7c1.4-0.2,2.8-0.5,4.1-1.1C49.7,21.1,49.6,21.1,49.6,21.2z"/>
</svg>
