<svg id="icons" xmlns="http://www.w3.org/2000/svg" viewBox="0 0 64 64"><title>changa_trash</title><g id="_Group_" data-name="&lt;Group&gt;"><g id="_Group_2" data-name="&lt;Group&gt;"><path d="M35.79,1.5a4.42,4.42,0,0,1,4.42,4.42V7.8a4.42,4.42,0,0,1-4.42,4.42H28.21A4.42,4.42,0,0,1,23.79,7.8V5.92A4.42,4.42,0,0,1,28.21,1.5h7.58m0-1.5H28.21a5.93,5.93,0,0,0-5.92,5.92V7.8a5.93,5.93,0,0,0,5.92,5.92h7.58A5.93,5.93,0,0,0,41.71,7.8V5.92A5.93,5.93,0,0,0,35.79,0Z"/></g><rect id="_Rectangle_" data-name="&lt;Rectangle&gt;" x="8.43" y="7.59" width="47.14" height="6.13"/><path d="M9.62,13.72l5.92,47.54C17.26,63.2,32,64,32,64c12.69,0,16-3.41,16-3.41l6.35-46.87ZM24.88,58.09l-1.51.13a.71.71,0,0,1-.77-.64L19.07,17a.71.71,0,0,1,.64-.77l1.51-.13a.71.71,0,0,1,.77.64l3.53,40.62A.71.71,0,0,1,24.88,58.09Zm8.59-.56a.71.71,0,0,1-.71.71H31.24a.71.71,0,0,1-.71-.71V16.76a.71.71,0,0,1,.71-.71h1.52a.71.71,0,0,1,.71.71Zm7.93.05a.71.71,0,0,1-.77.64l-1.51-.13a.71.71,0,0,1-.64-.77L42,16.71a.71.71,0,0,1,.77-.64l1.51.13a.71.71,0,0,1,.64.77Z"/></g></svg>