<svg id="icons" xmlns="http://www.w3.org/2000/svg" viewBox="0 0 64 64"><title>changa_gift</title><g id="_Group_" data-name="&lt;Group&gt;"><path id="_Path_" data-name="&lt;Path&gt;" d="M34.23,31.35H59.37a.39.39,0,0,0,.38-.38V19.52a.39.39,0,0,0-.38-.38H34.23Z"/><path id="_Path_2" data-name="&lt;Path&gt;" d="M6.76,64H30V32.63H6.72a.39.39,0,0,0-.35.38V63.61A.39.39,0,0,0,6.76,64Z"/><path id="_Path_3" data-name="&lt;Path&gt;" d="M34.23,64h23a.39.39,0,0,0,.39-.39V33a.39.39,0,0,0-.35-.38h-23Z"/><path id="_Path_4" data-name="&lt;Path&gt;" d="M4.25,19.52V31a.39.39,0,0,0,.38.38H30V19.14H4.63A.39.39,0,0,0,4.25,19.52Z"/><path id="_Path_5" data-name="&lt;Path&gt;" d="M14.07,12.54l.27.31c.19.21.38.42.57.63l.3.3.28.21a9.3,9.3,0,0,0,1.11.75c.36.2.73.43,1.09.59s.72.34,1.09.5a35.7,35.7,0,0,0,4.35,1.49c.74.21,1.49.39,2.24.56h4.78L30,17.8c-.66-.34-1.32-.7-2-1l-3.91-2c-1.28-.69-2.56-1.36-3.75-2.08-.3-.18-.57-.38-.86-.56s-.53-.38-.8-.56a5.41,5.41,0,0,1-.66-.57l0,0h0c0-.19,0-.39.07-.58a7.45,7.45,0,0,1,.26-1.16,8.68,8.68,0,0,1,.44-1.09l.27-.51.33-.48a4.24,4.24,0,0,1,.37-.45,3.4,3.4,0,0,1,.4-.43l.42-.42.48-.37a12.36,12.36,0,0,1,1-.69,3.69,3.69,0,0,1,.43-.22,7.54,7.54,0,0,1,.72.49,12.27,12.27,0,0,1,1.52,1.45c.25.26.48.55.72.85a10.29,10.29,0,0,1,.69.91c.21.32.46.62.66.95l.63,1c.23.32.4.68.61,1l.6,1c.36.72.77,1.42,1.14,2.15l.54,1.11c.18.37.39.73.56,1.11s.41.83.61,1.25h.43c0-.51,0-1-.1-1.52-.07-.84-.23-1.67-.36-2.51s-.35-1.66-.55-2.49c-.1-.41-.24-.82-.37-1.23s-.24-.83-.41-1.23a24.44,24.44,0,0,0-1-2.41,13.08,13.08,0,0,0-.64-1.18,10.39,10.39,0,0,0-.73-1.15A13.38,13.38,0,0,0,25.89,2a11,11,0,0,0-1.19-1A7.94,7.94,0,0,0,24,.59a5.06,5.06,0,0,0-1-.42L22.34,0,21.7.27l-.82.35c-.27.12-.55.22-.82.37a12.08,12.08,0,0,0-1.56,1l-.75.56-.69.65a5.28,5.28,0,0,0-.64.7,8.16,8.16,0,0,0-.59.76l-.52.81-.44.85a11,11,0,0,0-.63,1.8,11.65,11.65,0,0,0-.31,1.87c0,.32,0,.63,0,1A8.58,8.58,0,0,0,14,12Z"/><path id="_Path_6" data-name="&lt;Path&gt;" d="M32.6,17.87c.21-.42.42-.83.61-1.25s.38-.74.56-1.11l.54-1.11c.36-.73.78-1.43,1.14-2.15l.6-1c.2-.34.38-.7.61-1l.63-1c.21-.33.45-.63.66-.95a10.29,10.29,0,0,1,.69-.91c.23-.3.47-.59.72-.85A12.27,12.27,0,0,1,40.86,5a7.54,7.54,0,0,1,.72-.49,3.69,3.69,0,0,1,.43.22,12.36,12.36,0,0,1,1,.69l.48.37.42.42a3.4,3.4,0,0,1,.4.43,4.24,4.24,0,0,1,.37.45L45,7.6l.27.51a8.67,8.67,0,0,1,.44,1.09A7.46,7.46,0,0,1,46,10.36c0,.2.06.39.07.58h0l0,0a5.41,5.41,0,0,1-.66.57c-.26.19-.5.39-.8.56s-.56.38-.86.56c-1.19.72-2.47,1.4-3.75,2.08l-3.91,2c-.66.33-1.32.68-2,1l-.12.07h4.78c.75-.17,1.5-.35,2.24-.56a35.7,35.7,0,0,0,4.35-1.49c.36-.15.72-.33,1.09-.5s.73-.39,1.09-.59A9.31,9.31,0,0,0,48.62,14l.28-.21.3-.3c.2-.2.39-.41.57-.63l.27-.31.07-.57a8.58,8.58,0,0,0,.08-1.07c0-.32,0-.64,0-1a11.66,11.66,0,0,0-.31-1.87,11,11,0,0,0-.63-1.8l-.44-.85-.52-.81a8.14,8.14,0,0,0-.59-.76,5.27,5.27,0,0,0-.64-.7l-.69-.65-.75-.56A12.08,12.08,0,0,0,44,1c-.27-.15-.54-.25-.82-.37L42.41.27,41.77,0l-.62.18a5.06,5.06,0,0,0-1,.42,7.94,7.94,0,0,0-.71.44,11,11,0,0,0-1.19,1,13.38,13.38,0,0,0-1.84,2.16,10.4,10.4,0,0,0-.73,1.15A13.06,13.06,0,0,0,35,6.48a24.46,24.46,0,0,0-1,2.41c-.17.4-.27.82-.41,1.23s-.27.82-.37,1.23c-.2.83-.41,1.66-.55,2.49s-.29,1.66-.36,2.51c0,.51-.07,1-.1,1.52Z"/></g></svg>