<?xml version="1.0" encoding="utf-8"?>
<!-- Generator: Adobe Illustrator 21.0.2, SVG Export Plug-In . SVG Version: 6.00 Build 0)  -->
<svg version="1.1" id="icons" xmlns="http://www.w3.org/2000/svg" xmlns:xlink="http://www.w3.org/1999/xlink" x="0px" y="0px"
	 viewBox="0 0 64 64" style="enable-background:new 0 0 64 64;" xml:space="preserve">
<style type="text/css">
	.st0{fill:none;stroke:#000000;stroke-miterlimit:10;}
	.st1{fill:none;}
	.st2{fill:none;stroke:#000000;stroke-width:1.5;stroke-miterlimit:10;}
</style>
<g id="XMLID_712_">
	<path id="XMLID_713_" d="M62.7,5.6l-5.3-5.3c-0.5-0.5-1.3-0.5-1.7,0c-0.5,0.5-0.5,1.3,0,1.7l0.9,0.9l-5.2,5.2l-4.1-4.1
		c-0.5-0.5-1.3-0.5-1.7,0c-0.5,0.5-0.5,1.3,0,1.7l3.1,3.1L20,37.9c-0.2,0.2-0.4,0.5-0.4,0.9l0,0.1l0.5,2.5c-0.2,0-0.4,0.1-0.6,0.3
		l-5.5,5.5c-0.4,0.4-0.4,1.1,0,1.5l0.1,0.1L1.4,61.3L0.9,64l14.2-14.2c0.4,0.3,1,0.3,1.4-0.1l5.5-5.5c0.2-0.2,0.3-0.6,0.3-0.9
		l2.1,0.4l0.1,0c0.3,0,0.6-0.2,0.9-0.4l28.7-28.7l3,3c0.5,0.5,1.3,0.5,1.7,0c0.5-0.5,0.5-1.3,0-1.7L55,11.9c1.4-1.4,3.8-3.8,5.2-5.2
		L61,7.4c0.5,0.5,1.3,0.5,1.7,0C63.2,6.9,63.2,6.1,62.7,5.6z M36.5,29.9l-3.2-3.2l16.5-16.5l3.2,3.2L36.5,29.9z"/>
	<path id="XMLID_716_" d="M37.5,27.7l-1.9-1.9c-0.1-0.1-0.1-0.4,0-0.5l0.4-0.4c0.1-0.1,0.4-0.1,0.5,0l1.9,1.9c0.1,0.1,0.1,0.4,0,0.5
		L38,27.7C37.9,27.9,37.6,27.9,37.5,27.7z"/>
	<path id="XMLID_717_" d="M41,24.2l-1.9-1.9c-0.1-0.1-0.1-0.4,0-0.5l0.4-0.4c0.1-0.1,0.4-0.1,0.5,0l1.9,1.9c0.1,0.1,0.1,0.4,0,0.5
		l-0.4,0.4C41.4,24.4,41.1,24.4,41,24.2z"/>
	<path id="XMLID_718_" d="M44.5,20.7l-1.9-1.9c-0.1-0.1-0.1-0.4,0-0.5l0.4-0.4c0.1-0.1,0.4-0.1,0.5,0l1.9,1.9c0.1,0.1,0.1,0.4,0,0.5
		L45,20.7C44.9,20.9,44.7,20.9,44.5,20.7z"/>
	<path id="XMLID_719_" d="M48,17.2l-1.9-1.9c-0.1-0.1-0.1-0.4,0-0.5l0.4-0.4c0.1-0.1,0.4-0.1,0.5,0l1.9,1.9c0.1,0.1,0.1,0.4,0,0.5
		l-0.4,0.4C48.4,17.3,48.2,17.3,48,17.2z"/>
</g>
</svg>
