<?xml version="1.0" encoding="utf-8"?>
<!-- Generator: Adobe Illustrator 21.0.2, SVG Export Plug-In . SVG Version: 6.00 Build 0)  -->
<svg version="1.1" id="icons" xmlns="http://www.w3.org/2000/svg" xmlns:xlink="http://www.w3.org/1999/xlink" x="0px" y="0px"
	 viewBox="0 0 64 64" style="enable-background:new 0 0 64 64;" xml:space="preserve">
<style type="text/css">
	.st0{fill:none;stroke:#000000;stroke-miterlimit:10;}
	.st1{fill:none;}
	.st2{fill:none;stroke:#000000;stroke-width:1.5;stroke-miterlimit:10;}
</style>
<g id="XMLID_612_">
	<path id="XMLID_613_" d="M7.5,5.8c4.4,5.5,8.7,10.9,12.9,16.1c-0.3,0.7-0.7,1.2-0.9,1.8c-0.3,1.1,0.1,2.1,0.5,3.1
		c1,2.3,2.4,4.3,3.8,6.2c3.2,4.5,6.8,8.6,11,12.2c0.4,0.4,0.9,0.7,1.4,1c1.2,0.8,2.4,1.1,3.7,0.1C44,51.7,48.2,57,52.4,62.3
		c-0.7,0.6-1.5,0.9-2.3,1.1c-2.9,0.7-5.8,0.4-8.7-0.4c-4.6-1.3-8.6-3.8-12.3-6.7c-5.7-4.5-10.3-10-14.5-15.8
		c-2.7-3.8-5.1-7.8-7-12.1c-1.9-4.3-3.2-8.8-3-13.6c0.1-2.8,0.6-5.5,2.2-8C6.9,6.6,7,6.4,7.2,6.2C7.3,6.1,7.4,6,7.5,5.8"/>
	<path id="XMLID_614_" d="M22.4,20.5C18,15.1,13.7,9.8,9.3,4.3C9.5,4.2,9.6,4.1,9.7,4c1.3-1.1,2.6-2.1,3.9-3.2
		c1.3-1,2.5-0.9,3.6,0.4c3.2,4,6.5,8,9.7,12.1c1.2,1.5,1,2.7-0.4,3.9C25.2,18.3,23.8,19.4,22.4,20.5"/>
	<path id="XMLID_615_" d="M54.1,60.7c-4.2-5.3-8.4-10.6-12.7-15.9c0.6-0.5,1.3-1,1.9-1.5c0.8-0.6,1.6-1.3,2.4-1.9
		c1.3-1.1,2.6-0.9,3.7,0.4c3.1,3.9,6.3,7.9,9.4,11.8c1.1,1.4,1,2.6-0.4,3.7C57,58.5,55.6,59.5,54.1,60.7"/>
</g>
</svg>
