<svg id="icons" xmlns="http://www.w3.org/2000/svg" viewBox="0 0 64 64"><title>changa_heart</title><g id="_Group_" data-name="&lt;Group&gt;"><path d="M32.34,62.17c-6.27-5.23-10.12-10-15-16-3.56-4.39-6.68-8.75-9.89-13.4C5,29.21,2.53,25.64,1.12,21.61s-1.67-8.66.27-12.48a13.62,13.62,0,0,1,11.82-7A17.65,17.65,0,0,1,26,7.8a25.28,25.28,0,0,1,6.19,12.84c.45-6.29,3.42-12.56,8.64-16.09S53.59.76,58.53,4.68c4.72,3.74,6.31,10.5,5.06,16.4S58.16,31.63,54.5,36.42c-4,5.23-7,8.83-11.2,13.78A125.76,125.76,0,0,1,32.34,62.17Z"/></g></svg>