<svg id="icons" xmlns="http://www.w3.org/2000/svg" viewBox="0 0 64 64"><title>changa_message</title><path id="_Compound_Path_" data-name="&lt;Compound Path&gt;" d="M34.59,3.79c3.39,0,15,.57,22.15,7.9,4,4.16,6,9.89,5.8,17v.13c.05,1,1,24.56-24.84,26.75,0,0-2.39.19-5.3.19a32,32,0,0,1-8-.78l-.77-.22-.61.52a24.93,24.93,0,0,1-7.83,4.29c1.4-1.79,2.59-4.13,2-6.56L17,52.34,16.35,52C16.21,52,2.16,45.32,1.67,30.19v-.12l0-.12a20.66,20.66,0,0,1,4.09-15.4C10.89,8,20.29,4.39,33.68,3.81c0,0,.35,0,.91,0m0-1.5c-.64,0-1,0-1,0C-4.95,4,.17,30.24.17,30.24.7,46.53,15.72,53.4,15.72,53.4c1,4-4.76,8.25-4.76,8.25l.7,0c6.22,0,12.31-5.21,12.31-5.21a34.15,34.15,0,0,0,8.43.83c3,0,5.42-.2,5.42-.2C65.53,54.76,64,28.77,64,28.77,64.74,3.63,39.9,2.29,34.59,2.29Z"/><path id="_Compound_Path_2" data-name="&lt;Compound Path&gt;" d="M30.35,14.58h.57c8.32.36,14.16,2.58,17.35,6.59a12.71,12.71,0,0,1,2.52,9.4l0,.12v.12c-.3,9.29-8.67,13.27-9,13.43l-.67.31-.17.71a4.71,4.71,0,0,0,.47,3.22,16.22,16.22,0,0,1-3.29-2.06l-.61-.52-.77.22a19.86,19.86,0,0,1-5,.47c-1.82,0-3.32-.12-3.33-.12C12.48,45.13,13.07,30.64,13.1,30V29.9C13,25.5,14.17,22,16.64,19.45c4.39-4.52,11.61-4.87,13.71-4.87m0-1.5c-3.38,0-19.2.85-18.75,16.86,0,0-1,16.55,16.69,18,0,0,1.54.13,3.45.13a21.74,21.74,0,0,0,5.37-.53s3.88,3.31,7.84,3.31h.45s-3.64-2.69-3-5.25c0,0,9.56-4.38,9.9-14.75,0,0,3.26-16.71-21.28-17.78Z"/></svg>