<svg id="icons" xmlns="http://www.w3.org/2000/svg" viewBox="0 0 64 64"><title>changa_sound-volume-low-square</title><path d="M62,0H2A2,2,0,0,0,0,2V62a2,2,0,0,0,2,2H62a2,2,0,0,0,2-2V2A2,2,0,0,0,62,0ZM38,48.39a1,1,0,0,1-1.57.82L23.68,40.34l-7.11,0a2.49,2.49,0,0,1-2.38-1.8V25.26a2.49,2.49,0,0,1,2.3-1.58l7.23,0L36.43,14.8a1,1,0,0,1,1.57.82ZM49.62,34.59a11.76,11.76,0,0,1-3.19,6.32,2,2,0,0,1-1.45.57,2.29,2.29,0,0,1-2.11-2.34,2.63,2.63,0,0,1,.73-1.94,6.86,6.86,0,0,0,1.3-2,7.22,7.22,0,0,0,.48-4,6.73,6.73,0,0,0-1.71-3.57,2.7,2.7,0,0,1-.72-1.36,2.58,2.58,0,0,1,.61-2.32,2,2,0,0,1,1.37-.67,1.78,1.78,0,0,1,1.27.39A8.82,8.82,0,0,1,48.09,26a12,12,0,0,1,1.54,4.2A12.74,12.74,0,0,1,49.62,34.59Z"/></svg>