<svg id="icons" xmlns="http://www.w3.org/2000/svg" xmlns:xlink="http://www.w3.org/1999/xlink" viewBox="0 0 64 64"><defs><style>.cls-1{fill:none;}.cls-2{clip-path:url(#clip-path);}.cls-3{fill:#fff;}</style><clipPath id="clip-path"><circle class="cls-1" cx="-51.94" cy="-51.91" r="31.94"/></clipPath></defs><title>changa_location-o</title><path id="_Compound_Path_" data-name="&lt;Compound Path&gt;" d="M32,1.65A15.36,15.36,0,0,1,45.38,24.59l-.06.1,0,.11L32,59.64,18.73,24.82l0-.11-.06-.1A15.36,15.36,0,0,1,32,1.65m.4,24.61a9.18,9.18,0,1,0-9.18-9.18,9.19,9.19,0,0,0,9.18,9.18M32,.15A16.86,16.86,0,0,0,17.33,25.36L32,63.85,46.68,25.33A16.86,16.86,0,0,0,32,.15Zm.4,24.61a7.68,7.68,0,1,1,7.68-7.68,7.68,7.68,0,0,1-7.68,7.68Z"/><g class="cls-2"><path class="cls-3" d="M-13-36.5a21.05,21.05,0,0,0-2.78-.18A20.94,20.94,0,0,0-36.47-18.54a20.93,20.93,0,0,0,18,23.49A20.78,20.78,0,0,0-3,.83,20.77,20.77,0,0,0,5-13,20.93,20.93,0,0,0-13-36.5ZM-28.79-4c-1.67.4-3-1.52-3-1.52a21.87,21.87,0,0,1-2.71-12.74,19.48,19.48,0,0,1,6.45-11.61,2.24,2.24,0,0,1,3.48.46l4.42,10.15a6.12,6.12,0,0,1-.28,4.87C-25.47-7-28.79-4-28.79-4ZM.87-7.1A21.87,21.87,0,0,1-8.61,1.83a19.48,19.48,0,0,1-13.27.5A2.24,2.24,0,0,1-23.29-.88l6.39-9a6.12,6.12,0,0,1,4.31-2.29C-3.66-11.77.6-10.48.6-10.48,1.81-9.26.87-7.1.87-7.1ZM.54-16.59l-11-1.21a6.12,6.12,0,0,1-4.09-2.66c-3.93-8-4.86-12.39-4.86-12.39.48-1.65,2.82-1.87,2.82-1.87a21.87,21.87,0,0,1,12.4,4A19.48,19.48,0,0,1,2.67-19.38,2.24,2.24,0,0,1,.54-16.59Z"/><path class="cls-3" d="M7.5-17.46l4-1q-.08-.8-.21-1.59H7.16a23.16,23.16,0,0,0-.89-3.32l3.55-2q-.29-.75-.61-1.48l-4,1.06a23.4,23.4,0,0,0-1.72-3l2.9-2.88Q6-32.38,5.47-33L1.93-31A23.4,23.4,0,0,0-.5-33.4l2.06-3.54q-.62-.51-1.27-1L-2.6-35a23.16,23.16,0,0,0-3-1.73l1.07-3.95Q-5.23-41-6-41.31l-2,3.55a23.31,23.31,0,0,0-3.32-.89l0-4.09-.8-.12-.8-.09L-14-39a23.31,23.31,0,0,0-3.44,0l-1-4q-.8.08-1.59.21v4.09a23.14,23.14,0,0,0-3.32.89l-2-3.55q-.75.29-1.48.61l1.06,4a23.39,23.39,0,0,0-3,1.72L-31.7-38q-.65.47-1.28,1l2,3.54A23.38,23.38,0,0,0-33.37-31l-3.54-2.06q-.51.62-1,1.27l2.9,2.89a23.15,23.15,0,0,0-1.73,3L-40.66-27q-.33.73-.62,1.48l3.55,2a23.31,23.31,0,0,0-.89,3.32l-4.09,0q-.06.4-.12.8t-.09.8l4,1.06a23.32,23.32,0,0,0,0,3.44l-4,1q.08.8.21,1.59h4.09a23.15,23.15,0,0,0,.89,3.32l-3.55,2q.29.75.61,1.48l4-1.06A23.4,23.4,0,0,0-35-2.7L-37.93.18q.47.65,1,1.28l3.54-2A23.4,23.4,0,0,0-31,1.85L-33,5.39q.62.51,1.27,1l2.89-2.9a23.15,23.15,0,0,0,3,1.73L-27,9.15q.73.33,1.48.62l2-3.55a23.31,23.31,0,0,0,3.32.89l0,4.09.8.12.8.09,1.06-4a23.32,23.32,0,0,0,3.44,0l1,4q.8-.08,1.59-.21V7.13A23.15,23.15,0,0,0-8.1,6.24l2,3.55q.75-.29,1.48-.61l-1.06-4a23.39,23.39,0,0,0,3-1.72L.21,6.41q.65-.47,1.28-1l-2-3.54A23.39,23.39,0,0,0,1.88-.53L5.42,1.53Q5.92.91,6.4.26L3.5-2.63a23.16,23.16,0,0,0,1.73-3L9.18-4.53q.33-.73.62-1.48l-3.55-2a23.32,23.32,0,0,0,.89-3.32l4.09,0q.06-.4.12-.8t.09-.8L7.49-14A23.31,23.31,0,0,0,7.5-17.46ZM6-12.87A21.82,21.82,0,0,1-2.4,1.67,21.79,21.79,0,0,1-15.7,6.19,22.31,22.31,0,0,1-18.64,6,22,22,0,0,1-37.51-18.67,22,22,0,0,1-12.84-37.54,22,22,0,0,1,6-12.87Z"/></g></svg>