<?xml version="1.0" encoding="utf-8"?>
<!-- Generator: Adobe Illustrator 21.0.2, SVG Export Plug-In . SVG Version: 6.00 Build 0)  -->
<svg version="1.1" id="icons" xmlns="http://www.w3.org/2000/svg" xmlns:xlink="http://www.w3.org/1999/xlink" x="0px" y="0px"
	 viewBox="0 0 64 64" style="enable-background:new 0 0 64 64;" xml:space="preserve">
<style type="text/css">
	.st0{fill:none;stroke:#000000;stroke-miterlimit:10;}
	.st1{fill:none;}
	.st2{fill:none;stroke:#000000;stroke-width:1.5;stroke-miterlimit:10;}
</style>
<g id="XMLID_554_">
	<path id="XMLID_2151_" d="M43.3,20.1c2.8,2.8,5,5.7,6.7,8.9c2,3.9,3.3,7.9,3.8,12.3c0.2,1.4,0.3,2.8,0.3,4.2c0,2-0.9,3.5-2.8,4.3
		c-1.4,0.6-2.9,0.5-4.2-0.4c-1.4-0.9-2-2.3-2.1-3.9c-0.1-1.8-0.2-3.6-0.6-5.3c-0.5-2.5-1.4-4.9-2.6-7.2c-1.7-3.2-4-5.9-6.7-8.2
		c-2.1-1.7-4.4-3.1-6.9-4.1c-2.2-0.9-4.4-1.5-6.7-1.8c-1.3-0.2-2.6-0.1-3.9-0.3c-2.7-0.4-4.5-2.9-3.8-5.6c0.5-2,2.2-3.4,4.6-3.3
		c4.6,0.1,9.1,1,13.4,2.7C36.2,14.3,40.2,16.9,43.3,20.1z"/>
	<path id="XMLID_2150_" d="M37.6,47c-1.5,1.5-3.8,1.4-5.4,0.1c-0.9-0.8-1.3-1.9-1.3-3.1c0-1.3-0.1-2.7-0.6-3.9
		c-0.8-2.2-2.1-3.9-4-5.2c-1.9-1.3-4-1.9-6.3-1.9c-0.9,0-1.7-0.1-2.5-0.6c-1.2-0.8-1.9-1.9-1.9-3.4c0-1,0.4-1.8,1-2.5
		c0.5-0.6,1.2-1.1,2.1-1.2c1.7-0.3,3.4-0.1,5.1,0.2c2.4,0.5,4.7,1.4,6.8,2.8c2,1.4,3.7,3,5,5c2.3,3.4,3.3,7.2,3.1,11.3
		C38.7,45.4,38.2,46.5,37.6,47z"/>
	<path id="XMLID_2149_" d="M12.3,51.4c-1.8-1.9-2.7-4.4-2.3-7.3c0.6-3.8,3.9-6.5,7.9-6.3c4.5,0.2,8.2,3.9,8.4,8.4
		c0.2,5.2-4.4,9-9.6,7.7C15.1,53.6,13.7,52.8,12.3,51.4z"/>
</g>
</svg>
