<?xml version="1.0" encoding="utf-8"?>
<!-- Generator: Adobe Illustrator 21.0.2, SVG Export Plug-In . SVG Version: 6.00 Build 0)  -->
<svg version="1.1" id="icons" xmlns="http://www.w3.org/2000/svg" xmlns:xlink="http://www.w3.org/1999/xlink" x="0px" y="0px"
	 viewBox="0 0 64 64" style="enable-background:new 0 0 64 64;" xml:space="preserve">
<style type="text/css">
	.st0{fill:none;stroke:#000000;stroke-miterlimit:10;}
	.st1{fill:none;}
	.st2{fill:none;stroke:#000000;stroke-width:1.5;stroke-miterlimit:10;}
</style>
<path id="XMLID_442_" d="M32-0.1C14.3-0.1-0.1,14.3-0.1,32c0,17.7,14.4,32.1,32.1,32.1c17.7,0,32.1-14.4,32.1-32.1
	C64.1,14.3,49.7-0.1,32-0.1z M56.7,17.8c1.8,3.1,3,6.5,3.5,10.1H47.4c-0.4-3.2-1.1-6.6-2.4-10.1H56.7z M53.7,13.6H43.3
	c-1.5-3.1-3.3-6.3-5.7-9.5C44.1,5.4,49.7,8.8,53.7,13.6z M44.6,32c0.1,3.6-0.4,7-1.3,10.1H21.6c-0.8-3.1-1.3-6.4-1.2-10.1H44.6z
	 M20.7,27.9c0.4-3.2,1.3-6.6,2.7-10.1h18.4c1.4,3.5,2.2,6.9,2.6,10.1H20.7z M32,3.5c0.4,0,0.9,0,1.3,0c2.7,3.5,4.9,6.8,6.5,10.1
	H25.2c1.7-3.3,3.8-6.6,6.6-10.1C31.9,3.5,31.9,3.5,32,3.5z M27.6,3.9c-2.4,3.3-4.4,6.6-5.8,9.8H10.3C14.6,8.5,20.7,4.9,27.6,3.9z
	 M7.3,17.8H20c-1.3,3.5-2,6.9-2.4,10.1H3.8C4.3,24.2,5.6,20.8,7.3,17.8z M3.5,32h13.8c0,3.6,0.4,7,1.2,10.1H5.4
	C4.2,39,3.5,35.6,3.5,32z M7.3,46.2h12.4c2.2,6.1,5.4,10.9,7.8,13.9C18.9,58.8,11.6,53.5,7.3,46.2z M32,60.5
	C32,60.5,32,60.5,32,60.5c-2-2-6.3-7-9.1-14.3H42c-2.8,7.3-7.2,12.3-9.1,14.2C32.6,60.5,32.3,60.5,32,60.5z M37.5,59.9
	c2.4-3,5.5-7.7,7.7-13.7h11.4C52.6,53.2,45.7,58.3,37.5,59.9z M46.5,42.1c0.8-3.1,1.2-6.5,1.2-10.1h12.8c0,3.6-0.7,7-1.9,10.1H46.5z
	"/>
</svg>
