<?xml version="1.0" encoding="utf-8"?>
<!-- Generator: Adobe Illustrator 21.0.2, SVG Export Plug-In . SVG Version: 6.00 Build 0)  -->
<svg version="1.1" id="icons" xmlns="http://www.w3.org/2000/svg" xmlns:xlink="http://www.w3.org/1999/xlink" x="0px" y="0px"
	 viewBox="0 0 64 64" style="enable-background:new 0 0 64 64;" xml:space="preserve">
<style type="text/css">
	.st0{fill:none;stroke:#000000;stroke-miterlimit:10;}
	.st1{fill:none;}
	.st2{fill:none;stroke:#000000;stroke-width:1.5;stroke-miterlimit:10;}
</style>
<g id="XMLID_512_">
	<path id="XMLID_513_" d="M33.4,64c-3.1,0-6-0.5-8.2-3.1c-1.6-1.8-2-3.8-2.4-6.1c-2.9,0-5.9,0-8.8,0c-2.7,0-7.7,1-10-1.1
		c-3.9-3.7,1.5-6.1,3.7-9c7-9.1,6.8-18.6,8.6-29.3c0.6-3.7,2.8-6.8,6-8.7c2-1.1,4.3-1.6,6.5-2.1C28.2,2.5,29,0,32,0
		c4.5,0,3.7,4.7,3.7,4.7c3.9,0.6,8.2,2.7,10.3,6.1c4.4,7.2,2.3,17.7,5.6,25.7c1.6,3.7,3.7,7.2,6.5,10.2c2.4,2.7,6.2,6.7-0.3,8
		c-5.1,1-11.4,0.1-16.6,0.1C41,59.6,37.8,62.8,33.4,64C32.5,64,35.4,63.5,33.4,64z M26.2,54.3c-1.6,3.3,2.5,6.8,5.7,6.9
		C31.9,61.2,27.7,56.1,26.2,54.3z"/>
</g>
</svg>
