<?xml version="1.0" encoding="utf-8"?>
<!-- Generator: Adobe Illustrator 21.0.2, SVG Export Plug-In . SVG Version: 6.00 Build 0)  -->
<svg version="1.1" id="icons" xmlns="http://www.w3.org/2000/svg" xmlns:xlink="http://www.w3.org/1999/xlink" x="0px" y="0px"
	 viewBox="0 0 64 64" style="enable-background:new 0 0 64 64;" xml:space="preserve">
<style type="text/css">
	.st0{stroke:#FFFFFF;stroke-width:0;stroke-linecap:round;stroke-linejoin:round;}
	.st1{fill:none;stroke:#000000;stroke-width:1.5;stroke-miterlimit:10;}
</style>
<path id="XMLID_2_" d="M32-0.1C14.3-0.1-0.1,14.3-0.1,32S14.3,64.1,32,64.1S64.1,49.7,64.1,32S49.7-0.1,32-0.1z M36.9,59.9
	l-4.8-18.6c3.5-0.1,6.5-2,8-4.9L52,52.1C48,56.1,42.8,58.9,36.9,59.9z M27.1,4.1l2.8,18.9c-3.2,0.7-5.8,3.1-6.8,6.2L7.7,17.5
	C11.8,10.5,18.9,5.5,27.1,4.1z M32,25.7c3.5,0,6.3,2.8,6.3,6.3s-2.8,6.3-6.3,6.3s-6.3-2.8-6.3-6.3S28.5,25.7,32,25.7z M28,40.4
	c0.8,0.4,1.6,0.6,2.5,0.8l1.9,19.2c-0.2,0-0.3,0-0.5,0c-1.9,0-3.7-0.2-5.5-0.5L28,40.4z M34.7,23.1c-0.8-0.2-1.7-0.4-2.5-0.4
	l-1.9-19c0.6,0,1.2-0.1,1.8-0.1c1.4,0,2.8,0.1,4.1,0.3L34.7,23.1z"/>
</svg>
