<svg id="icons" xmlns="http://www.w3.org/2000/svg" viewBox="0 0 64 64"><title>changa_commenting</title><path id="_Compound_Path_" data-name="&lt;Compound Path&gt;" d="M64,28.78C64.77.68,33.6,2.36,33.6,2.36-4.89,4,.23,30.24.23,30.24.75,46.5,15.75,53.37,15.75,53.37c1,4-4.75,8.24-4.75,8.24,6.44.42,13-5.17,13-5.17,4.86,1.37,13.83.63,13.83.63C65.48,54.72,64,28.78,64,28.78ZM16.63,37.59A5.59,5.59,0,1,1,22.22,32,5.59,5.59,0,0,1,16.63,37.59Zm15.37,0A5.59,5.59,0,1,1,37.59,32,5.59,5.59,0,0,1,32,37.59Zm15.37,0A5.59,5.59,0,1,1,53,32,5.59,5.59,0,0,1,47.37,37.59Z"/></svg>