<?xml version="1.0" encoding="utf-8"?>
<!-- Generator: Adobe Illustrator 21.0.2, SVG Export Plug-In . SVG Version: 6.00 Build 0)  -->
<svg version="1.1" id="icons" xmlns="http://www.w3.org/2000/svg" xmlns:xlink="http://www.w3.org/1999/xlink" x="0px" y="0px"
	 viewBox="0 0 64 64" style="enable-background:new 0 0 64 64;" xml:space="preserve">
<style type="text/css">
	.st0{stroke:#FFFFFF;stroke-width:0;stroke-linecap:round;stroke-linejoin:round;}
	.st1{fill:none;stroke:#000000;stroke-width:1.5;stroke-miterlimit:10;}
</style>
<g id="XMLID_7074_">
	<path id="XMLID_7073_" d="M58.5,17.3H5.5c-3,0-5.5-2.5-5.5-5.5l0-2.5c0-3,2.5-5.5,5.5-5.5h52.9c3,0,5.5,2.5,5.5,5.5v2.5
		C64,14.8,61.5,17.3,58.5,17.3z"/>
	<path id="XMLID_7075_" d="M58.5,38.8H5.5c-3,0-5.5-2.5-5.5-5.5l0-2.5c0-3,2.5-5.5,5.5-5.5h52.9c3,0,5.5,2.5,5.5,5.5v2.5
		C64,36.3,61.5,38.8,58.5,38.8z"/>
	<path id="XMLID_7076_" d="M58.5,60.3H5.5c-3,0-5.5-2.5-5.5-5.5l0-2.5c0-3,2.5-5.5,5.5-5.5h52.9c3,0,5.5,2.5,5.5,5.5v2.5
		C64,57.8,61.5,60.3,58.5,60.3z"/>
</g>
</svg>
