<?xml version="1.0" encoding="utf-8"?>
<!-- Generator: Adobe Illustrator 21.0.2, SVG Export Plug-In . SVG Version: 6.00 Build 0)  -->
<svg version="1.1" id="icons" xmlns="http://www.w3.org/2000/svg" xmlns:xlink="http://www.w3.org/1999/xlink" x="0px" y="0px"
	 viewBox="0 0 64 64" style="enable-background:new 0 0 64 64;" xml:space="preserve">
<style type="text/css">
	.st0{fill:none;stroke:#000000;stroke-miterlimit:10;}
	.st1{fill:none;}
	.st2{fill:none;stroke:#000000;stroke-width:1.5;stroke-miterlimit:10;}
</style>
<g id="XMLID_8795_">
	<path d="M32,1.5c16.8,0,30.5,13.7,30.5,30.5S48.8,62.5,32,62.5S1.5,48.8,1.5,32S15.2,1.5,32,1.5 M32,0C14.3,0,0,14.3,0,32
		s14.3,32,32,32s32-14.3,32-32S49.7,0,32,0L32,0z"/>
</g>
<g id="XMLID_783_">
	<g id="XMLID_791_">
		<path id="XMLID_805_" d="M13.4,30.3c3.9,7.8,7.7,15.6,11.6,23.5c0,0,2.9-0.7,2.9-0.8c0.2-17.4,8.2-33,22.7-42.7
			c-0.8,0.5-2.1,0.2-2.9,0.8C33.2,20.7,25.2,36.4,25,53.7c1-0.3,1.9-0.5,2.9-0.8c-3.9-7.8-7.7-15.6-11.6-23.5
			C16.2,29.3,13.5,30.4,13.4,30.3L13.4,30.3z"/>
	</g>
</g>
</svg>
