<?xml version="1.0" encoding="utf-8"?>
<!-- Generator: Adobe Illustrator 21.0.2, SVG Export Plug-In . SVG Version: 6.00 Build 0)  -->
<svg version="1.1" id="icons" xmlns="http://www.w3.org/2000/svg" xmlns:xlink="http://www.w3.org/1999/xlink" x="0px" y="0px"
	 viewBox="0 0 64 64" style="enable-background:new 0 0 64 64;" xml:space="preserve">
<style type="text/css">
	.st0{stroke:#FFFFFF;stroke-width:0;stroke-linecap:round;stroke-linejoin:round;}
	.st1{fill:none;stroke:#000000;stroke-width:1.5;stroke-miterlimit:10;}
</style>
<path id="XMLID_250_" d="M63.5,38.3c-1.4-4.6-5.6-7.9-10.5-8.2c-0.5,0-0.7-0.2-0.7-0.7c0-0.8,0-1.6-0.1-2.4
	C50.4,14,36.6,7.3,25,13.3c-4.1,2.1-6.7,5.6-8.3,9.9c-0.2,0.5-0.3,0.6-0.9,0.6c-1.3-0.1-2.7-0.1-4,0.2C4.2,25.5-0.7,32.2,0.1,40.1
	C0.8,47.2,6.9,53,14,52.9c6.4,0,12.9,0,19,0c0,0,0,0,0,0c7,0,13.1,0,19.5,0C60.9,53,65.6,44.8,63.5,38.3z M38,41.2l-4.6,7.1
	l-4.6-7.1l-4.6-7.1h4.6V23.7c0-0.6,0.5-1.2,1.2-1.2h6.9c0.6,0,1.2,0.5,1.2,1.2v10.4h4.6L38,41.2z"/>
</svg>
