<svg id="icons" xmlns="http://www.w3.org/2000/svg" xmlns:xlink="http://www.w3.org/1999/xlink" viewBox="0 0 64 64"><defs><style>.cls-1{fill:none;}.cls-2{clip-path:url(#clip-path);}.cls-3{fill:#fff;}</style><clipPath id="clip-path"><circle class="cls-1" cx="-51.94" cy="32.09" r="31.94"/></clipPath></defs><title>changa_settings-cog-simple</title><g class="cls-2"><path class="cls-3" d="M-13,47.5a21.05,21.05,0,0,0-2.78-.18A20.94,20.94,0,0,0-36.47,65.46a20.93,20.93,0,0,0,18,23.49A20.78,20.78,0,0,0-3,84.83,20.77,20.77,0,0,0,5,71,20.93,20.93,0,0,0-13,47.5ZM-28.79,80c-1.67.4-3-1.52-3-1.52a21.87,21.87,0,0,1-2.71-12.74,19.48,19.48,0,0,1,6.45-11.61,2.24,2.24,0,0,1,3.48.46l4.42,10.15a6.12,6.12,0,0,1-.28,4.87C-25.47,77-28.79,80-28.79,80ZM.87,76.9a21.87,21.87,0,0,1-9.48,8.93,19.48,19.48,0,0,1-13.27.5,2.24,2.24,0,0,1-1.41-3.21l6.39-9a6.12,6.12,0,0,1,4.31-2.29C-3.66,72.23.6,73.52.6,73.52,1.81,74.74.87,76.9.87,76.9ZM.54,67.41l-11-1.21a6.12,6.12,0,0,1-4.09-2.66c-3.93-8-4.86-12.39-4.86-12.39.48-1.65,2.82-1.87,2.82-1.87a21.87,21.87,0,0,1,12.4,4A19.48,19.48,0,0,1,2.67,64.62,2.24,2.24,0,0,1,.54,67.41Z"/><path class="cls-3" d="M7.5,66.54l4-1q-.08-.8-.21-1.59H7.16a23.16,23.16,0,0,0-.89-3.32l3.55-2q-.29-.75-.61-1.48l-4,1.06a23.4,23.4,0,0,0-1.72-3l2.9-2.88Q6,51.62,5.47,51L1.93,53A23.4,23.4,0,0,0-.5,50.6l2.06-3.54q-.62-.51-1.27-1L-2.6,49a23.16,23.16,0,0,0-3-1.73l1.07-3.95Q-5.23,43-6,42.69l-2,3.55a23.31,23.31,0,0,0-3.32-.89l0-4.09-.8-.12-.8-.09L-14,45a23.31,23.31,0,0,0-3.44,0l-1-4q-.8.08-1.59.21v4.09a23.14,23.14,0,0,0-3.32.89l-2-3.55q-.75.29-1.48.61l1.06,4a23.39,23.39,0,0,0-3,1.72L-31.7,46q-.65.47-1.28,1l2,3.54A23.38,23.38,0,0,0-33.37,53l-3.54-2.06q-.51.62-1,1.27l2.9,2.89a23.15,23.15,0,0,0-1.73,3L-40.66,57q-.33.73-.62,1.48l3.55,2a23.31,23.31,0,0,0-.89,3.32l-4.09,0q-.06.4-.12.8t-.09.8l4,1.06a23.32,23.32,0,0,0,0,3.44l-4,1q.08.8.21,1.59h4.09a23.15,23.15,0,0,0,.89,3.32l-3.55,2q.29.75.61,1.48l4-1.06a23.4,23.4,0,0,0,1.72,3l-2.9,2.88q.47.65,1,1.28l3.54-2A23.4,23.4,0,0,0-31,85.85L-33,89.39q.62.51,1.27,1l2.89-2.9a23.15,23.15,0,0,0,3,1.73L-27,93.15q.73.33,1.48.62l2-3.55a23.31,23.31,0,0,0,3.32.89l0,4.09.8.12.8.09,1.06-4a23.32,23.32,0,0,0,3.44,0l1,4q.8-.08,1.59-.21V91.13a23.15,23.15,0,0,0,3.32-.89l2,3.55q.75-.29,1.48-.61l-1.06-4a23.39,23.39,0,0,0,3-1.72l2.88,2.9q.65-.47,1.28-1l-2-3.54a23.39,23.39,0,0,0,2.44-2.42l3.54,2.06q.51-.62,1-1.27L3.5,81.37a23.16,23.16,0,0,0,1.73-3l3.95,1.07q.33-.73.62-1.48l-3.55-2a23.32,23.32,0,0,0,.89-3.32l4.09,0q.06-.4.12-.8t.09-.8L7.49,70A23.31,23.31,0,0,0,7.5,66.54ZM6,71.13A21.82,21.82,0,0,1-2.4,85.67a21.79,21.79,0,0,1-13.3,4.52,22.31,22.31,0,0,1-2.95-.2A22,22,0,0,1-37.51,65.33,22,22,0,0,1-12.84,46.46,22,22,0,0,1,6,71.13Z"/></g><path d="M61.82,37.84l-5.48-3.76a2.53,2.53,0,0,1,0-4.17l5.48-3.76a2.53,2.53,0,0,0,1-2.76q-.36-1.3-.83-2.56a2.53,2.53,0,0,0-2.44-1.64l-6.64.18A2.53,2.53,0,0,1,50.47,16l2.22-6.25a2.53,2.53,0,0,0-.81-2.83q-1.05-.84-2.18-1.58a2.53,2.53,0,0,0-2.94.1l-5.26,4a2.53,2.53,0,0,1-4-1.29L35.66,1.84A2.53,2.53,0,0,0,33.35,0L32,0,30.65,0a2.53,2.53,0,0,0-2.32,1.81L26.46,8.21a2.53,2.53,0,0,1-4,1.29l-5.26-4a2.53,2.53,0,0,0-2.94-.1q-1.12.75-2.18,1.58a2.53,2.53,0,0,0-.81,2.83L13.53,16a2.53,2.53,0,0,1-2.45,3.37L4.44,19.2A2.53,2.53,0,0,0,2,20.84q-.47,1.26-.83,2.56a2.53,2.53,0,0,0,1,2.76l5.48,3.76a2.53,2.53,0,0,1,0,4.17L2.18,37.84a2.53,2.53,0,0,0-1,2.76q.36,1.3.83,2.56A2.53,2.53,0,0,0,4.44,44.8l6.64-.18A2.53,2.53,0,0,1,13.53,48l-2.22,6.25a2.53,2.53,0,0,0,.81,2.83q1.05.84,2.18,1.58a2.53,2.53,0,0,0,2.94-.1l5.26-4a2.53,2.53,0,0,1,4,1.29l1.88,6.37A2.53,2.53,0,0,0,30.65,64L32,64l1.35,0a2.53,2.53,0,0,0,2.32-1.81l1.88-6.37a2.53,2.53,0,0,1,4-1.29l5.26,4a2.53,2.53,0,0,0,2.94.1q1.12-.75,2.18-1.58a2.53,2.53,0,0,0,.81-2.83L50.47,48a2.53,2.53,0,0,1,2.45-3.37l6.64.18A2.53,2.53,0,0,0,62,43.16q.47-1.26.83-2.56A2.53,2.53,0,0,0,61.82,37.84ZM32,44.92A12.92,12.92,0,1,1,44.92,32,12.92,12.92,0,0,1,32,44.92Z"/></svg>