<svg id="icons" xmlns="http://www.w3.org/2000/svg" viewBox="0 0 64 64"><title>changa_alarm</title><g id="_Group_" data-name="&lt;Group&gt;"><path d="M11.36,56.43,8.47,59.32a1,1,0,0,0,0,1.41l2.86,2.86a1,1,0,0,0,1.41,0l3.66-3.66A32.13,32.13,0,0,1,11.36,56.43Z"/><path d="M52.64,56.43a32.13,32.13,0,0,1-5,3.5l3.66,3.66a1,1,0,0,0,1.41,0l2.86-2.86a1,1,0,0,0,0-1.41Z"/><g id="_Group_2" data-name="&lt;Group&gt;"><path id="_Compound_Path_" data-name="&lt;Compound Path&gt;" d="M32,1.5A30.5,30.5,0,1,1,1.5,32,30.53,30.53,0,0,1,32,1.5M32,0A32,32,0,1,0,64,32,32,32,0,0,0,32,0Z"/><circle id="_Path_" data-name="&lt;Path&gt;" cx="32" cy="4.09" r="0.84"/><circle id="_Path_2" data-name="&lt;Path&gt;" cx="32" cy="58.99" r="0.84"/><circle id="_Path_3" data-name="&lt;Path&gt;" cx="3.61" cy="32" r="0.84"/><circle id="_Path_4" data-name="&lt;Path&gt;" cx="59.58" cy="32" r="0.84"/><g id="_Group_3" data-name="&lt;Group&gt;"><circle cx="31.69" cy="35.2" r="4.08"/></g><path d="M3.62,17.24a32.14,32.14,0,0,1,19.47-16c-3.31-2-8.88-1.35-13.8,1.92-6,4-8.81,10.46-6.2,14.4Z"/><path d="M60.38,17.24l.53.35c2.62-3.94-.16-10.38-6.2-14.4C49.79-.08,44.22-.73,40.91,1.27A32.14,32.14,0,0,1,60.38,17.24Z"/><path d="M31.69,29.62a5.57,5.57,0,0,1,1,.1c0-.3,0-.61,0-.91,0-2.22,0-4.45,0-6.67-.11-4.45-.26-8.9-.69-13.35-.53,4.44-.79,8.88-1,13.33-.07,2.22-.18,4.44-.21,6.67,0,.3,0,.61,0,.91A5.57,5.57,0,0,1,31.69,29.62Z"/><path d="M42.28,45.3c-1.06-1.21-2.14-2.4-3.23-3.58s-2-2.09-3-3.12a5.61,5.61,0,0,1-1.26,1.19c1.06,1,2.14,2,3.21,2.94s2.4,2.14,3.63,3.18S44.14,48,45.41,49C44.4,47.73,43.35,46.51,42.28,45.3Z"/></g></g></svg>