<?xml version="1.0" encoding="utf-8"?>
<!-- Generator: Adobe Illustrator 21.0.2, SVG Export Plug-In . SVG Version: 6.00 Build 0)  -->
<svg version="1.1" id="icons" xmlns="http://www.w3.org/2000/svg" xmlns:xlink="http://www.w3.org/1999/xlink" x="0px" y="0px"
	 viewBox="0 0 64 64" style="enable-background:new 0 0 64 64;" xml:space="preserve">
<style type="text/css">
	.st0{fill:none;stroke:#000000;stroke-miterlimit:10;}
	.st1{fill:none;}
	.st2{fill:none;stroke:#000000;stroke-width:1.5;stroke-miterlimit:10;}
</style>
<g id="XMLID_509_">
	<g id="XMLID_1681_">
		<path id="XMLID_3828_" d="M55.2,45.4v3.2H1.7v-3.2H55.2 M56.2,43.9H0.7c-0.3,0-0.5,0.2-0.5,0.5v5.3c0,0.3,0.2,0.5,0.5,0.5h55.5
			c0.3,0,0.5-0.2,0.5-0.5v-5.3C56.7,44.2,56.5,43.9,56.2,43.9L56.2,43.9z"/>
	</g>
	<path id="XMLID_1680_" d="M59.6,50.2h-2c-0.2,0-0.4-0.2-0.4-0.4v-5.5c0-0.2,0.2-0.4,0.4-0.4h2c0.2,0,0.4,0.2,0.4,0.4v5.5
		C59.9,50,59.8,50.2,59.6,50.2z"/>
	<path id="XMLID_1679_" d="M63.2,50.2h-2.1c-0.2,0-0.3-0.1-0.3-0.3v-5.6c0-0.2,0.1-0.3,0.3-0.3h2.1c0.2,0,0.3,0.1,0.3,0.3v5.6
		C63.5,50,63.3,50.2,63.2,50.2z"/>
</g>
<g id="XMLID_510_">
	<g id="XMLID_3814_">
		<path id="XMLID_3818_" d="M62.3,42.5c0.7-2.7,0.2-5.4-1.9-7.3c-1.8-1.7-4.3-1.8-5.7-4c-1.2-2-2.1-3.9-4.1-5.4
			c-2-1.6-4.4-2.5-6.9-2.7c-0.3,0-0.6,0.5-0.9,0.5c2.4,0.2,4.7,1,6.6,2.5c2.1,1.5,3,3.5,4.3,5.6c1.3,2.1,3.6,2.3,5.4,3.8
			c2.3,1.9,2.9,4.8,2.2,7.6C61.5,42.8,62.3,42.7,62.3,42.5L62.3,42.5z"/>
	</g>
</g>
<g id="XMLID_511_">
	<g id="XMLID_3821_">
		<path id="XMLID_3825_" d="M58.4,42.6c-0.3-2.2-0.8-4.7-3.1-5.6c-2.5-1-5.3,0.1-7.7-1c-4.5-2.1-3.1-8.8-8.9-9
			c-0.3,0-0.6,0.5-0.9,0.5c2.4,0.1,4.2,1.4,5.1,3.7c0.9,2.2,1.5,4.2,3.8,5.4c2.4,1.1,5,0.1,7.4,0.9c2.6,0.8,3.1,3.4,3.5,5.8
			C57.5,42.9,58.4,42.7,58.4,42.6L58.4,42.6z"/>
	</g>
</g>
<rect id="XMLID_3804_" x="1.1" y="44.7" width="18.1" height="4.6"/>
</svg>
