<svg id="icons" xmlns="http://www.w3.org/2000/svg" viewBox="0 0 64 64"><title>changa_alarm-circle</title><g id="_Group_" data-name="&lt;Group&gt;"><g id="_Group_2" data-name="&lt;Group&gt;"><circle id="_Path_" data-name="&lt;Path&gt;" cx="32" cy="12.2" r="0.59"/><circle id="_Path_2" data-name="&lt;Path&gt;" cx="32" cy="51.14" r="0.59"/><circle id="_Path_3" data-name="&lt;Path&gt;" cx="11.86" cy="32" r="0.59"/><circle id="_Path_4" data-name="&lt;Path&gt;" cx="51.56" cy="32" r="0.59"/><g id="_Group_3" data-name="&lt;Group&gt;"><circle cx="31.78" cy="34.27" r="3.1"/></g><path d="M31.78,30.09a4.13,4.13,0,0,1,1,.14c0-.17,0-.33,0-.5,0-1.58,0-3.15-.07-4.73-.13-3.16-.29-6.31-.73-9.47-.52,3.15-.76,6.3-1,9.45-.07,1.58-.16,3.15-.18,4.73,0,.16,0,.32,0,.49A4.15,4.15,0,0,1,31.78,30.09Z"/><path d="M37.14,38.75q-1-1.07-1.94-2.11A4.19,4.19,0,0,1,34,37.81q1.09,1,2.19,1.95c1.73,1.48,3.49,2.94,5.37,4.29C40.14,42.19,38.65,40.46,37.14,38.75Z"/></g></g><g id="_Group_4" data-name="&lt;Group&gt;"><path d="M32,10.8A21.2,21.2,0,1,1,10.8,32,21.22,21.22,0,0,1,32,10.8m0-1.5A22.7,22.7,0,1,0,54.7,32,22.72,22.72,0,0,0,32,9.3Z"/></g><path d="M32,0A32,32,0,1,0,64,32,32,32,0,0,0,32,0ZM48.48,51.17a1,1,0,0,1,0,1.41L46.86,54.2a1,1,0,0,1-1.41,0l-2.39-2.39a22.63,22.63,0,0,1-22.12,0L18.55,54.2a1,1,0,0,1-1.41,0l-1.62-1.62a1,1,0,0,1,0-1.41l1.84-1.84a22.64,22.64,0,0,1-5.49-27.8l-.38.25c-1.86-2.79.11-7.36,4.39-10.21,3.49-2.32,7.44-2.78,9.79-1.36a22.59,22.59,0,0,1,12.64,0c2.35-1.42,6.3-1,9.79,1.36,4.28,2.85,6.25,7.42,4.39,10.21l-.38-.25a22.64,22.64,0,0,1-5.49,27.8Z"/></svg>