<svg id="icons" xmlns="http://www.w3.org/2000/svg" xmlns:xlink="http://www.w3.org/1999/xlink" viewBox="0 0 64 64"><defs><style>.cls-1{fill:none;}.cls-2{fill:#fff;}.cls-3{clip-path:url(#clip-path);}</style><clipPath id="clip-path"><circle class="cls-1" cx="32.06" cy="32.09" r="31.94"/></clipPath></defs><title>changa_settings-cog-ios</title><circle cx="32" cy="31.97" r="32"/><path class="cls-2" d="M59.32,32.77q0-.4,0-.8t0-.8l-4.06-.53a23.32,23.32,0,0,0-.44-3.41l3.78-1.56q-.18-.78-.41-1.55l-4.06.54a23.15,23.15,0,0,0-1.32-3.18L56.06,19q-.38-.71-.8-1.39l-3.78,1.57a23.4,23.4,0,0,0-2.09-2.73l2.5-3.24q-.55-.58-1.14-1.14l-3.24,2.5a23.4,23.4,0,0,0-2.73-2.09l1.57-3.78q-.68-.42-1.39-.8l-2.48,3.25A23.15,23.15,0,0,0,39.3,9.84l.54-4.06q-.77-.23-1.55-.41L36.74,9.15a23.3,23.3,0,0,0-3.41-.44L32.8,4.65H31.2l-.53,4.06a23.31,23.31,0,0,0-3.41.44L25.7,5.37q-.78.18-1.55.41l.54,4.06a23.16,23.16,0,0,0-3.18,1.32L19,7.9q-.71.38-1.39.8l1.57,3.78a23.4,23.4,0,0,0-2.73,2.09l-3.24-2.5q-.58.55-1.14,1.14l2.5,3.24a23.38,23.38,0,0,0-2.09,2.73L8.74,17.61q-.42.68-.8,1.39l3.25,2.48a23.15,23.15,0,0,0-1.32,3.18l-4.06-.54q-.23.77-.41,1.55l3.78,1.56a23.32,23.32,0,0,0-.44,3.41l-4.06.53q0,.4,0,.8t0,.8l4.06.53a23.31,23.31,0,0,0,.44,3.41L5.4,38.27q.19.78.41,1.55l4.06-.54a23.15,23.15,0,0,0,1.32,3.18L7.94,44.94q.38.71.8,1.39l3.78-1.57a23.39,23.39,0,0,0,2.09,2.73l-2.5,3.24q.55.58,1.14,1.14l3.24-2.5a23.4,23.4,0,0,0,2.73,2.09l-1.57,3.78q.68.42,1.39.8l2.48-3.25A23.15,23.15,0,0,0,24.7,54.1l-.54,4.06q.77.23,1.55.41l1.56-3.78a23.31,23.31,0,0,0,3.41.44l.53,4.06H32.8l.53-4.06a23.31,23.31,0,0,0,3.41-.44l1.56,3.78q.78-.19,1.55-.41L39.3,54.1a23.15,23.15,0,0,0,3.18-1.32L45,56q.71-.38,1.39-.8l-1.57-3.78a23.39,23.39,0,0,0,2.73-2.09l3.24,2.5q.59-.55,1.14-1.14l-2.5-3.24a23.4,23.4,0,0,0,2.09-2.73l3.78,1.57q.42-.68.8-1.39l-3.25-2.48a23.15,23.15,0,0,0,1.32-3.18l4.06.54q.23-.77.41-1.55l-3.78-1.56a23.31,23.31,0,0,0,.44-3.41ZM32,53.93A22,22,0,1,1,54,32,22,22,0,0,1,32,53.93Z"/><path class="cls-2" d="M32,11.06A20.91,20.91,0,1,0,52.91,32,20.93,20.93,0,0,0,32,11.06ZM17.42,44.24A21.87,21.87,0,0,1,13.05,32a19.48,19.48,0,0,1,4.86-12.36,2.24,2.24,0,0,1,3.51,0l5.72,9.48A6.12,6.12,0,0,1,27.52,34c-4,8-6.89,11.39-6.89,11.39C19,46,17.42,44.24,17.42,44.24Zm32.2-5.86a21.87,21.87,0,0,1-8.22,10.1,19.48,19.48,0,0,1-13.09,2.25,2.24,2.24,0,0,1-1.82-3l5.14-9.81a6.12,6.12,0,0,1,4-2.84c8.92-.73,13.31,0,13.31,0C50.26,36.11,49.62,38.37,49.62,38.37ZM29.45,32.09a2.61,2.61,0,1,1,2.61,2.61A2.61,2.61,0,0,1,29.45,32.09ZM48,29,37,29.27a6.12,6.12,0,0,1-4.4-2.1c-5-7.45-6.46-11.64-6.46-11.64.26-1.69,2.55-2.23,2.55-2.23a21.87,21.87,0,0,1,12.82,2.3A19.48,19.48,0,0,1,49.78,26,2.24,2.24,0,0,1,48,29Z"/><circle class="cls-2" cx="32.06" cy="32.09" r="1.38"/><g class="cls-3"><path class="cls-2" d="M71,47.5A20.91,20.91,0,0,0,65.5,88.95,20.91,20.91,0,0,0,71,47.5ZM55.21,80c-1.67.4-3-1.52-3-1.52a21.87,21.87,0,0,1-2.71-12.74,19.48,19.48,0,0,1,6.45-11.61,2.24,2.24,0,0,1,3.48.46l4.42,10.15a6.12,6.12,0,0,1-.28,4.87C58.53,77,55.21,80,55.21,80ZM84.87,76.9a21.87,21.87,0,0,1-9.48,8.93,19.48,19.48,0,0,1-13.27.5,2.24,2.24,0,0,1-1.41-3.21l6.39-9a6.12,6.12,0,0,1,4.31-2.29c8.94.45,13.2,1.75,13.2,1.75C85.81,74.74,84.87,76.9,84.87,76.9Zm-.33-9.49-11-1.21a6.12,6.12,0,0,1-4.09-2.66c-3.93-8-4.86-12.39-4.86-12.39.48-1.65,2.82-1.87,2.82-1.87a21.87,21.87,0,0,1,12.4,4,19.48,19.48,0,0,1,6.86,11.37A2.24,2.24,0,0,1,84.54,67.41Z"/><path class="cls-2" d="M91.5,66.54l4-1q-.08-.8-.21-1.59H91.16a23.16,23.16,0,0,0-.89-3.32l3.55-2q-.29-.75-.61-1.48l-4,1.06a23.4,23.4,0,0,0-1.72-3l2.9-2.88q-.47-.65-1-1.28l-3.54,2A23.4,23.4,0,0,0,83.5,50.6l2.06-3.54q-.62-.51-1.27-1L81.4,49a23.16,23.16,0,0,0-3-1.73l1.07-3.95Q78.77,43,78,42.69l-2,3.55a23.31,23.31,0,0,0-3.32-.89l0-4.09-.8-.12-.8-.09L70,45a23.31,23.31,0,0,0-3.44,0l-1-4q-.8.08-1.59.21v4.09a23.14,23.14,0,0,0-3.32.89l-2-3.55q-.75.29-1.48.61l1.06,4a23.39,23.39,0,0,0-3,1.72L52.3,46q-.65.47-1.28,1l2,3.54A23.38,23.38,0,0,0,50.63,53L47.1,50.92q-.51.62-1,1.27L49,55.09a23.15,23.15,0,0,0-1.73,3L43.34,57q-.33.73-.62,1.48l3.55,2a23.31,23.31,0,0,0-.89,3.32l-4.09,0q-.06.4-.12.8t-.09.8l4,1.06a23.32,23.32,0,0,0,0,3.44l-4,1q.08.8.21,1.59h4.09a23.15,23.15,0,0,0,.89,3.32l-3.55,2q.29.75.61,1.48l4-1.06a23.4,23.4,0,0,0,1.72,3l-2.9,2.88q.47.65,1,1.28l3.54-2A23.4,23.4,0,0,0,53,85.85L51,89.39q.62.51,1.27,1l2.89-2.9a23.15,23.15,0,0,0,3,1.73L57,93.15q.73.33,1.48.62l2-3.55a23.31,23.31,0,0,0,3.32.89l0,4.09.8.12.8.09,1.06-4a23.32,23.32,0,0,0,3.44,0l1,4q.8-.08,1.59-.21V91.13a23.15,23.15,0,0,0,3.32-.89l2,3.55q.75-.29,1.48-.61l-1.06-4a23.39,23.39,0,0,0,3-1.72l2.88,2.9q.65-.47,1.28-1l-2-3.54a23.39,23.39,0,0,0,2.44-2.42l3.54,2.06q.51-.62,1-1.27l-2.9-2.89a23.16,23.16,0,0,0,1.73-3l3.95,1.07q.33-.73.62-1.48l-3.55-2a23.32,23.32,0,0,0,.89-3.32l4.09,0q.06-.4.12-.8t.09-.8l-4-1.06A23.31,23.31,0,0,0,91.5,66.54ZM90,71.13A22,22,0,0,1,68.3,90.19a22.31,22.31,0,0,1-2.95-.2A22,22,0,1,1,90,71.13Z"/><path class="cls-2" d="M-1.86,47.5a21.05,21.05,0,0,0-2.78-.18A20.94,20.94,0,0,0-25.35,65.46a20.93,20.93,0,0,0,18,23.49A20.78,20.78,0,0,0,8.07,84.83,20.77,20.77,0,0,0,16.1,71,20.77,20.77,0,0,0,12,55.53,20.77,20.77,0,0,0-1.86,47.5Z"/><path class="cls-2" d="M18.62,66.54l4-1q-.08-.8-.21-1.59H18.27a23.16,23.16,0,0,0-.89-3.32l3.55-2q-.29-.75-.61-1.48l-4,1.06a23.4,23.4,0,0,0-1.72-3l2.9-2.88q-.47-.65-1-1.28L13,53a23.4,23.4,0,0,0-2.42-2.44l2.06-3.54q-.62-.51-1.27-1L8.51,49a23.16,23.16,0,0,0-3-1.73l1.07-3.95q-.73-.33-1.48-.62l-2,3.55a23.31,23.31,0,0,0-3.32-.89l0-4.09-.8-.12-.8-.09-1.06,4a23.31,23.31,0,0,0-3.44,0l-1-4q-.8.08-1.59.21v4.09a23.14,23.14,0,0,0-3.32.89l-2-3.55q-.75.29-1.48.61l1.06,4a23.39,23.39,0,0,0-3,1.72L-20.58,46q-.65.47-1.28,1l2,3.54A23.39,23.39,0,0,0-22.25,53l-3.54-2.06q-.51.62-1,1.27l2.9,2.89a23.16,23.16,0,0,0-1.73,3L-29.55,57q-.33.73-.62,1.48l3.55,2a23.32,23.32,0,0,0-.89,3.32l-4.09,0q-.06.4-.12.8t-.09.8l4,1.06a23.32,23.32,0,0,0,0,3.44l-4,1q.08.8.21,1.59h4.09a23.16,23.16,0,0,0,.89,3.32l-3.55,2q.29.75.61,1.48l4-1.06a23.4,23.4,0,0,0,1.72,3l-2.9,2.88q.47.65,1,1.28l3.54-2a23.4,23.4,0,0,0,2.42,2.44l-2.06,3.54q.62.51,1.27,1l2.89-2.9a23.15,23.15,0,0,0,3,1.73l-1.07,3.95q.73.33,1.48.62l2-3.55A23.31,23.31,0,0,0-9,91.11l0,4.09.8.12.8.09,1.06-4a23.32,23.32,0,0,0,3.44,0l1,4q.8-.08,1.59-.21V91.13A23.15,23.15,0,0,0,3,90.24l2,3.55q.75-.29,1.48-.61l-1.06-4a23.39,23.39,0,0,0,3-1.72l2.88,2.9q.65-.47,1.28-1l-2-3.54A23.39,23.39,0,0,0,13,83.47l3.54,2.06q.51-.62,1-1.27l-2.9-2.89a23.16,23.16,0,0,0,1.73-3l3.95,1.07q.33-.73.62-1.48l-3.55-2a23.32,23.32,0,0,0,.89-3.32l4.09,0q.06-.4.12-.8t.09-.8l-4-1.06A23.33,23.33,0,0,0,18.62,66.54Zm-1.47,4.58A21.82,21.82,0,0,1,8.71,85.67a21.79,21.79,0,0,1-13.3,4.52A22.31,22.31,0,0,1-7.53,90,22,22,0,0,1-26.4,65.33,22,22,0,0,1-1.73,46.46a21.82,21.82,0,0,1,14.54,8.43A21.82,21.82,0,0,1,17.14,71.13Z"/></g></svg>