<svg id="icons" xmlns="http://www.w3.org/2000/svg" viewBox="0 0 64 64"><defs><style>.cls-1{fill:none;stroke:#000;stroke-miterlimit:10;stroke-width:1.5px;}</style></defs><title>changa_target</title><path id="_Compound_Path_" data-name="&lt;Compound Path&gt;" d="M32,1.5A30.5,30.5,0,1,1,1.5,32,30.53,30.53,0,0,1,32,1.5M32,0A32,32,0,1,0,64,32,32,32,0,0,0,32,0Z"/><g id="_Group_" data-name="&lt;Group&gt;"><circle id="_Path_" data-name="&lt;Path&gt;" class="cls-1" cx="32" cy="32" r="24.19"/><path d="M32,16.94A15.06,15.06,0,1,0,47.06,32,15.06,15.06,0,0,0,32,16.94Zm0,20.7A5.64,5.64,0,1,1,37.64,32,5.64,5.64,0,0,1,32,37.64Z"/></g></svg>