<?xml version="1.0" encoding="utf-8"?>
<!-- Generator: Adobe Illustrator 21.0.2, SVG Export Plug-In . SVG Version: 6.00 Build 0)  -->
<svg version="1.1" id="icons" xmlns="http://www.w3.org/2000/svg" xmlns:xlink="http://www.w3.org/1999/xlink" x="0px" y="0px"
	 viewBox="0 0 64 64" style="enable-background:new 0 0 64 64;" xml:space="preserve">
<style type="text/css">
	.st0{fill:none;stroke:#000000;stroke-miterlimit:10;}
	.st1{fill:none;}
	.st2{fill:none;stroke:#000000;stroke-width:1.5;stroke-miterlimit:10;}
</style>
<g id="XMLID_8884_">
	<path d="M34,11l0,1.5c8.5,0,15.6,6.2,16.8,14.7c0.1,0.7,0.1,1.4,0.1,2.2c0,1.3,0.7,2.1,2.1,2.2c4.2,0.3,7.9,3.2,9.1,7.1
		c0.8,2.6,0.2,5.6-1.6,8.2c-2.1,2.9-5.4,4.5-8.9,4.5c-2.5,0-5,0-7.6,0c-2.1,0-4.2,0-6.4,0c-2.2,0-4.3,0-6.5,0l-1.4,0l-4,0l-5.4,0
		c-2.3,0-4.7,0-7.2,0c-6,0-10.8-4.7-11.5-11.5c-0.7-7,3.7-13.1,10.6-14.5c0.7-0.1,1.5-0.2,2.3-0.2c0.4,0,0.8,0,1.3,0.1
		c0.1,0,0.3,0,0.4,0c1,0,1.7-0.5,2.1-1.6c1.5-4.3,4-7.3,7.5-9.1c2.6-1.4,5.4-2.1,8.3-2.1V11 M34,11c-3,0-6,0.7-9,2.2
		c-4.1,2.1-6.7,5.6-8.3,9.9c-0.1,0.4-0.3,0.6-0.7,0.6c-0.1,0-0.1,0-0.2,0c-0.5-0.1-0.9-0.1-1.4-0.1c-0.9,0-1.7,0.1-2.5,0.3
		C4.2,25.5-0.7,32.2,0.1,40.1C0.8,47.2,5.8,53,13,53c0,0,0,0,0,0c2.5,0,4.9,0,7.2,0c3.6,0,7.1,0,10.8,0c0,0,0,0,0,0
		c4.3,0,8.7,0,12.9,0c2.6,0,5.2,0,7.6,0c0,0,0,0,0.1,0c8.4,0,14-8.1,12-14.6c-1.4-4.6-5.6-7.9-10.5-8.2c-0.5,0-0.7-0.2-0.7-0.7
		c0-0.8,0-1.6-0.1-2.4C50.9,17.3,42.8,11,34,11L34,11z"/>
</g>
</svg>
