<svg id="Layer_1" data-name="Layer 1" xmlns="http://www.w3.org/2000/svg" viewBox="0 0 1080 680"><defs><style>.cls-1{fill:#fff;}.cls-2{fill:none;stroke:#000;stroke-miterlimit:10;}</style></defs><title>changa_Artboard 3</title><path d="M88.93,495.72a12.59,12.59,0,0,0,3.52-1q2.64-1,3.52-.15a8.37,8.37,0,0,1-1.46,1.76,22.83,22.83,0,0,1-6.89,2.49q-4.55,1-8.65,1.61a105.65,105.65,0,0,1-16.7,1,50.22,50.22,0,0,1-17-3.37,40.83,40.83,0,0,1-15.39-9.67,42,42,0,0,1-10.11-15.24,68.75,68.75,0,0,1-4.54-18,107.38,107.38,0,0,1-.44-18.61,42.2,42.2,0,0,1,5.57-18.17,35.34,35.34,0,0,1,5.71-7.47,44.59,44.59,0,0,1,7.47-6,56.56,56.56,0,0,1,21.54-8.21,221.44,221.44,0,0,1,22.42-2.34c.59,0,1.51,0,2.78-.15s2.54-.15,3.81-.15a10.29,10.29,0,0,1,3.22.44,1.65,1.65,0,0,1,1.32,1.61.26.26,0,0,0-.29.29c-.59,1-2.1,1.32-4.54,1a52.54,52.54,0,0,0-6-.44H71.93a17.12,17.12,0,0,0-2.05.15,26.8,26.8,0,0,1-3.23.15,93,93,0,0,0-20.37,4.1,46.06,46.06,0,0,0-17.44,10,35.27,35.27,0,0,0-10,16.12A40.37,40.37,0,0,0,17,436.38a54.67,54.67,0,0,0-.15,8.94,119.49,119.49,0,0,0,1.46,14.8,56.85,56.85,0,0,0,3.81,13.34A51,51,0,0,0,29.28,485a34.62,34.62,0,0,0,10.11,8.35,39.68,39.68,0,0,0,11.87,4.54,79.12,79.12,0,0,0,12.45,1.61,78.91,78.91,0,0,0,12.75-1A108.53,108.53,0,0,0,88.93,495.72Z"/><path d="M201.46,485.76a23.4,23.4,0,0,0,.29,2.93,30.32,30.32,0,0,1,.29,4.25q0,2.2-.15,4.1a4.17,4.17,0,0,1-.73,2.49,7.81,7.81,0,0,1-1.46-4.1,80,80,0,0,1-.88-13.34,155.45,155.45,0,0,0-.88-16.56q-.88-7.62-2.2-15.39a121.59,121.59,0,0,0-3.66-15.39,138.6,138.6,0,0,0-5.57-14.95,43.23,43.23,0,0,0-9.09-13.19,24.55,24.55,0,0,0-13.77-7.33,23.29,23.29,0,0,0-15.24,3.52A47.49,47.49,0,0,0,136,413.37a88.67,88.67,0,0,0-9.53,13.77,129.39,129.39,0,0,0-10.11,25.5,189,189,0,0,0-5.42,27.26,8.34,8.34,0,0,1-.15,1.61,8,8,0,0,0-.15,1.61,27.77,27.77,0,0,0-.29,4v6.3q0,3.81-1.17,5-1.47,1.18-2.05-.59V485.32q0-5.13-.29-10.11v-6.74q.29-8.79.29-17.44V433.59q0-22.27.29-43.23t-.29-42.06c0-1.17-.1-2.93-.29-5.28s-.29-4.69-.29-7a56.09,56.09,0,0,1,.29-6.15c.19-1.76.68-2.64,1.47-2.64a.26.26,0,0,1,.29.29q.88.59,1.17,2.93a44.64,44.64,0,0,1,.29,5.42q0,3.08-.15,6.3t-.15,5.28v21.1q-.3,20.52-.44,40.15t-.15,39v28.72a188.24,188.24,0,0,1,6-27.55,117.49,117.49,0,0,1,10.7-24.91,89.2,89.2,0,0,1,7.62-10.84,59.14,59.14,0,0,1,9.38-9.09,32.25,32.25,0,0,1,11.28-6,21.07,21.07,0,0,1,12.75.15,24.33,24.33,0,0,1,11,6.3,53,53,0,0,1,7.76,9.82,65.33,65.33,0,0,1,5.42,11.14,108.68,108.68,0,0,1,3.66,11.72,174.13,174.13,0,0,1,4.69,24.18Q200.88,473.45,201.46,485.76Z"/><path d="M303.45,496.6v1.46l-.29.29-.29.29c0-.19-.05-.24-.15-.15s-.15,0-.15-.44l-.88-.88a5.29,5.29,0,0,0-.59-1.47,3.32,3.32,0,0,0-.29-1.46q-.3-2.64-.88-7.62-.3-4.4-.15-9.38t-.15-10q0-7.32-.15-14.65t-.15-14.95v-4.4a95.35,95.35,0,0,1-8.21,25.21,80.31,80.31,0,0,1-15.53,21.69,88.13,88.13,0,0,1-12.75,10.55,59.64,59.64,0,0,1-14.8,7.33,35.59,35.59,0,0,1-8.35,1.91,36.78,36.78,0,0,1-8.65-.15,32.47,32.47,0,0,1-8.21-2.34,20,20,0,0,1-7-5,21.16,21.16,0,0,1-4.84-7.33A52.28,52.28,0,0,1,208.5,477a49.78,49.78,0,0,1,0-17,90.16,90.16,0,0,1,3.22-16.41A146.64,146.64,0,0,1,217.29,428a81.4,81.4,0,0,1,10.55-18,39.2,39.2,0,0,1,16.41-12.46,35.23,35.23,0,0,1,20.22-2.2,71.7,71.7,0,0,1,19,6.3,47.14,47.14,0,0,1,4.84,2.05,31.27,31.27,0,0,1,5.71,3.52,24.42,24.42,0,0,1,4.69,3.52q1.76,1.76.88,2.64a.26.26,0,0,1-.29.29,7.24,7.24,0,0,1-2.93-1.17q-2.05-1.17-4.4-2.79t-4.84-3.22a47.5,47.5,0,0,0-4.25-2.49,48.15,48.15,0,0,0-5.86-2.78q-2.06-.73-3.52-1.32a25.72,25.72,0,0,0-3.22-1c-1.17-.29-3-.63-5.57-1A36.77,36.77,0,0,0,246.3,399a27.84,27.84,0,0,0-8.06,4.25,67.5,67.5,0,0,0-6.89,6,54.25,54.25,0,0,0-10.26,15.09,141.6,141.6,0,0,0-6.45,16.85,172.34,172.34,0,0,0-3.81,17.15,56,56,0,0,0-.29,17.14,33.87,33.87,0,0,0,2.2,8.06,23.29,23.29,0,0,0,4.25,6.89,21,21,0,0,0,13.77,7,29.27,29.27,0,0,0,13-.59A67.21,67.21,0,0,0,275.9,477,77.6,77.6,0,0,0,289.53,457,98.19,98.19,0,0,0,297,434.77,60.88,60.88,0,0,0,298.76,423v-2.78a14.11,14.11,0,0,1,.29-2.78v-2.64l.29.29v-.88c0-.19,0-.29.15-.29s.15-.1.15-.29h.59c.59,0,.88.2.88.59v2.93q.29,5.87.29,11.58v11.58q.29,11.43.44,23t.73,23.3c0,.39,0,1.17.15,2.34s.24,2.54.44,4.1a13.24,13.24,0,0,0,.15,1.91A12.24,12.24,0,0,1,303.45,496.6Zm-1.17,2.34c0-.19.19-.29.59-.29A.84.84,0,0,0,302.28,498.95Z"/><path d="M419.51,488.69v6a20,20,0,0,1-.29,3.52q-.3,1.61-.88,1.91c-.39-.39-.78-1.56-1.17-3.52a67.74,67.74,0,0,1-.29-11.43q.29-7,0-13.78a254.63,254.63,0,0,0-3.22-26.67,104,104,0,0,0-8.21-26.08,60.68,60.68,0,0,0-7.77-11.43,25.83,25.83,0,0,0-11.28-7.62,23.19,23.19,0,0,0-13.63-.59A38.83,38.83,0,0,0,360,404.87a66.63,66.63,0,0,0-19.64,20.81,148.17,148.17,0,0,0-12.6,26.38,133.85,133.85,0,0,0-6.45,29q-.3,1.76-.44,3.52c-.1,1.17-.25,2.45-.44,3.81a7.68,7.68,0,0,1-.29,2.34,9,9,0,0,0-.15,2.93,18.07,18.07,0,0,1,0,3.22,3.38,3.38,0,0,1-.73,2.05c-.39.39-1,.29-1.76-.29-.59-.39-.78-1.32-.59-2.79a30.87,30.87,0,0,0,.29-4v-3.22a.26.26,0,0,1,.29-.29q.29-19,.59-37.07t.29-35.9c0-1-.1-2.49-.29-4.54s-.29-4.05-.29-6a36,36,0,0,1,.29-5c.19-1.36.68-2.05,1.47-2.05h.29q.88.59,1,2.64t.15,4.69q0,2.64-.15,5.28t-.15,4.4q0,4.11-.15,6t-.15,3.52V433q-.3,8.5-.29,17.15t-.29,17.14v8.5A144.21,144.21,0,0,1,331,438a113.46,113.46,0,0,1,12.6-20.66,60.25,60.25,0,0,1,17.29-15.39,36.8,36.8,0,0,1,10.4-4.69,26.06,26.06,0,0,1,11-.59,21.35,21.35,0,0,1,10.4,3.81,44.71,44.71,0,0,1,8.06,7.33,60.68,60.68,0,0,1,10.11,18.61A138.76,138.76,0,0,1,416,446.78q1.76,10.26,2.49,20.66T419.51,488.69Z"/><path d="M526.78,434.77q1.46,23.74.88,46.16A204.15,204.15,0,0,1,522.38,523a123.08,123.08,0,0,1-5,16,91.88,91.88,0,0,1-7,14.21A52.68,52.68,0,0,1,500.54,565a36,36,0,0,1-12.75,7.47,39.19,39.19,0,0,1-14.36,3.08,64,64,0,0,1-14.36-1.32,139.81,139.81,0,0,1-13.92-3.66,107.19,107.19,0,0,1-13.63-5.42,13.5,13.5,0,0,0-3.66-1.76q-3.08-1.17-3.08-2.64a2,2,0,0,1,1.32-.15,6.9,6.9,0,0,0,1.32.15,25.33,25.33,0,0,1,7.47,2.93,77.11,77.11,0,0,0,8.65,4.1,97.59,97.59,0,0,0,17.59,4.84,55.81,55.81,0,0,0,18.46.15,38.81,38.81,0,0,0,17.29-7.33,41.15,41.15,0,0,0,6.89-6.74,90.52,90.52,0,0,0,5.71-7.91,84,84,0,0,0,7.91-18.17A169.37,169.37,0,0,0,522.09,513a197.79,197.79,0,0,0,2.49-20.08q.73-10.11,1-20.37a425.08,425.08,0,0,0-1.76-44.84q-.3,2.35-.59,5t-.59,5a107.24,107.24,0,0,1-6.89,22.86,70.29,70.29,0,0,1-13.63,20.81,67,67,0,0,1-20.52,15.24,48.45,48.45,0,0,1-12.6,3.66,36.91,36.91,0,0,1-13.48-.44,25.38,25.38,0,0,1-12.16-5.71,30.68,30.68,0,0,1-8.35-11,32.93,32.93,0,0,1-3.22-12.9q-.3-6.74-.59-13.48,0-6.74.44-13.34a83.61,83.61,0,0,1,1.9-13,59,59,0,0,1,4.4-12.9,39.91,39.91,0,0,1,7.91-11.14,31.57,31.57,0,0,1,14.51-8.79A54,54,0,0,1,477,395.49a107.21,107.21,0,0,1,16,2.34,144.72,144.72,0,0,1,15.39,4.4,22.43,22.43,0,0,0,3.81,1.32,45.7,45.7,0,0,1,5.13,1.76,20.24,20.24,0,0,1,4.1,2.2q1.61,1.17,1,2.34l-.29.29a4.46,4.46,0,0,1-2.64-.29c-1.17-.39-2.44-.88-3.81-1.47s-2.74-1.22-4.1-1.91-2.54-1.22-3.52-1.61q-3.23-1.17-4.84-1.91a15.42,15.42,0,0,0-2.93-1c-.88-.19-1.86-.39-2.93-.59a44,44,0,0,1-4.54-1.17,95.5,95.5,0,0,0-14.8-2.34,47.3,47.3,0,0,0-14.8,1.17,33.48,33.48,0,0,0-12.9,6.45,34.08,34.08,0,0,0-9.08,10.84,60,60,0,0,0-5,13A84.79,84.79,0,0,0,433.87,443a121.18,121.18,0,0,0-.44,13.34q.14,6.59.73,13a49,49,0,0,0,2.2,10.4,29.34,29.34,0,0,0,4.84,8.94,24.48,24.48,0,0,0,7.47,6.45,29.48,29.48,0,0,0,9.23,3.22,37,37,0,0,0,19-2.05,61.76,61.76,0,0,0,16.41-9.38,67.46,67.46,0,0,0,21.69-29,93.57,93.57,0,0,0,6.45-35.75c0-.59-.1-2-.29-4.1a12.7,12.7,0,0,1,.29-5q0-2,1.17-2.34h.59q1.46.59,1.76,4.84t.59,6.89q.29,2.64.44,4c.1.88.19,1.66.29,2.34s.19,1.42.29,2.2A35.11,35.11,0,0,1,526.78,434.77Z"/><path d="M632.58,496.6v1.46l-.29.29-.29.29c0-.19-.05-.24-.15-.15s-.15,0-.15-.44l-.88-.88a5.29,5.29,0,0,0-.59-1.47,3.32,3.32,0,0,0-.29-1.46q-.3-2.64-.88-7.62-.3-4.4-.15-9.38t-.15-10q0-7.32-.15-14.65t-.15-14.95v-4.4a95.35,95.35,0,0,1-8.21,25.21,80.31,80.31,0,0,1-15.53,21.69A88.13,88.13,0,0,1,592,490.74a59.64,59.64,0,0,1-14.8,7.33,35.59,35.59,0,0,1-8.35,1.91,36.78,36.78,0,0,1-8.65-.15,32.47,32.47,0,0,1-8.21-2.34,20,20,0,0,1-7-5,21.16,21.16,0,0,1-4.84-7.33,52.28,52.28,0,0,1-2.49-8.21,49.78,49.78,0,0,1,0-17,90.16,90.16,0,0,1,3.22-16.41A146.64,146.64,0,0,1,546.41,428,81.4,81.4,0,0,1,557,410a39.2,39.2,0,0,1,16.41-12.46,35.23,35.23,0,0,1,20.22-2.2,71.7,71.7,0,0,1,19,6.3,47.14,47.14,0,0,1,4.84,2.05,31.27,31.27,0,0,1,5.71,3.52,24.42,24.42,0,0,1,4.69,3.52q1.76,1.76.88,2.64a.26.26,0,0,1-.29.29,7.24,7.24,0,0,1-2.93-1.17q-2.05-1.17-4.4-2.79t-4.84-3.22a47.5,47.5,0,0,0-4.25-2.49,48.15,48.15,0,0,0-5.86-2.78q-2.06-.73-3.52-1.32a25.72,25.72,0,0,0-3.22-1c-1.17-.29-3-.63-5.57-1A36.77,36.77,0,0,0,575.42,399a27.84,27.84,0,0,0-8.06,4.25,67.5,67.5,0,0,0-6.89,6,54.25,54.25,0,0,0-10.26,15.09,141.6,141.6,0,0,0-6.45,16.85A172.34,172.34,0,0,0,540,458.36a56,56,0,0,0-.29,17.14,33.87,33.87,0,0,0,2.2,8.06,23.29,23.29,0,0,0,4.25,6.89,21,21,0,0,0,13.77,7,29.27,29.27,0,0,0,13-.59A67.21,67.21,0,0,0,605,477,77.6,77.6,0,0,0,618.65,457a98.19,98.19,0,0,0,7.47-22.27A60.88,60.88,0,0,0,627.89,423v-2.78a14.11,14.11,0,0,1,.29-2.78v-2.64l.29.29v-.88c0-.19,0-.29.15-.29s.15-.1.15-.29h.59c.59,0,.88.2.88.59v2.93q.29,5.87.29,11.58v11.58q.29,11.43.44,23t.73,23.3c0,.39,0,1.17.15,2.34s.24,2.54.44,4.1a13.24,13.24,0,0,0,.15,1.91A12.24,12.24,0,0,1,632.58,496.6Zm-1.17,2.34c0-.19.19-.29.59-.29A.84.84,0,0,0,631.4,498.95Z"/><path d="M758.3,436.82a51,51,0,0,1-2.93,28.72,48.42,48.42,0,0,1-17,20.81,59.93,59.93,0,0,1-23.74,9.82,118.8,118.8,0,0,1-25.79,1.61q-1.47.59-5.28,0,0,18.46.15,34.73t1.32,33c0,.39.1,1.36.29,2.93s-.1,2.54-.88,2.93a6.79,6.79,0,0,1-1.17-1.76,10.55,10.55,0,0,1-.88-5.71,37.88,37.88,0,0,0,0-6.59q-.88-25.8-.88-54.22t-.29-57.15q0-9.08.15-17.88t-.15-17.29a8.59,8.59,0,0,0-.44-2.05,10.13,10.13,0,0,1-.44-2.93,9.13,9.13,0,0,1,.29-2.49,1.36,1.36,0,0,1,1.47-1,7.6,7.6,0,0,1,3.81-2.64q2.93-1.17,4.69-1.76,2.34-.88,3.37-1.32c.68-.29,1.32-.54,1.91-.73s1.22-.39,1.9-.59,1.8-.48,3.37-.88a47.36,47.36,0,0,1,21.25.15,41.28,41.28,0,0,1,18.32,9.23,49.29,49.29,0,0,1,11.87,15.53A65.07,65.07,0,0,1,758.3,436.82Zm-74.44,58.61a22.07,22.07,0,0,1,7.18,0,39.73,39.73,0,0,0,8.35.29,100.78,100.78,0,0,0,16.27-1.9,62.14,62.14,0,0,0,15.68-5.42,45.76,45.76,0,0,0,13.48-10.26,43.13,43.13,0,0,0,8.79-14.65,53.31,53.31,0,0,0,3.08-17.14,55.39,55.39,0,0,0-2.49-17.44,52.68,52.68,0,0,0-7.91-15.68,45.41,45.41,0,0,0-12.9-11.87,37.14,37.14,0,0,0-20.81-6,51.42,51.42,0,0,0-20.81,4.54,18.25,18.25,0,0,0-3.81,2.34,13.94,13.94,0,0,1-4.4,2.34,10.84,10.84,0,0,1,.15,3.08c-.1,1.08-.15,2-.15,2.78v8.79q-.3,16.7-.15,32.53t.15,29.89v13.77Z"/><path d="M775.3,496.6a7.84,7.84,0,0,0,.29,1.76,1.43,1.43,0,0,1-.88,1.76,1.76,1.76,0,0,1-1.17-1.17,4.15,4.15,0,0,1-.88-3.37,13.68,13.68,0,0,0,0-4q-.59-15.53-.59-32.68V424.51q0-5.56.15-10.84t-.15-10.26c-.2-.78-.49-1.85-.88-3.22s.19-2.05,1.76-2.05h.59c1,.2,1.36.88,1.17,2.05a18.24,18.24,0,0,0-.29,2.93,8.92,8.92,0,0,0-.15,2.64,11.6,11.6,0,0,1,.15,2.64q-.3,10.26-.15,19.64t-.15,17.88v26.38Q774.12,484.3,775.3,496.6Z"/><path d="M865.56,495.72a12.59,12.59,0,0,0,3.52-1q2.64-1,3.52-.15a8.37,8.37,0,0,1-1.46,1.76,22.83,22.83,0,0,1-6.89,2.49q-4.55,1-8.65,1.61a105.65,105.65,0,0,1-16.7,1,50.22,50.22,0,0,1-17-3.37,40.83,40.83,0,0,1-15.39-9.67,42,42,0,0,1-10.11-15.24,68.75,68.75,0,0,1-4.54-18,107.38,107.38,0,0,1-.44-18.61A42.2,42.2,0,0,1,797,418.35a35.34,35.34,0,0,1,5.71-7.47,44.59,44.59,0,0,1,7.47-6,56.56,56.56,0,0,1,21.54-8.21,221.44,221.44,0,0,1,22.42-2.34c.59,0,1.51,0,2.78-.15s2.54-.15,3.81-.15a10.29,10.29,0,0,1,3.22.44,1.65,1.65,0,0,1,1.32,1.61.26.26,0,0,0-.29.29c-.59,1-2.1,1.32-4.54,1a52.54,52.54,0,0,0-6-.44h-5.86a17.12,17.12,0,0,0-2.05.15,26.8,26.8,0,0,1-3.23.15,93,93,0,0,0-20.37,4.1,46.06,46.06,0,0,0-17.44,10,35.27,35.27,0,0,0-10,16.12,40.37,40.37,0,0,0-1.91,8.94,54.67,54.67,0,0,0-.15,8.94,119.49,119.49,0,0,0,1.46,14.8,56.85,56.85,0,0,0,3.81,13.34A51,51,0,0,0,805.92,485,34.62,34.62,0,0,0,816,493.38a39.68,39.68,0,0,0,11.87,4.54,60.72,60.72,0,0,0,25.2.59A108.53,108.53,0,0,0,865.56,495.72Z"/><path d="M977.81,394.61a8,8,0,0,0,1.76-.29,1.07,1.07,0,0,1,1.46.88,6.94,6.94,0,0,1-.88,1.47,4.9,4.9,0,0,1-3.37.59,13.56,13.56,0,0,0-4,0q-20.22.88-43.67.88v9.67q-.3,24.33-.15,44.55t1.32,41c0,.39.1,1.32.29,2.78s-.1,2.39-.88,2.78a3.12,3.12,0,0,1-1.17-1.47,15,15,0,0,1-.73-5.86,52,52,0,0,0-.15-6.74q-.59-20.22-.73-42.06t-.15-44.69q-4.69,0-9.23-.15t-9.23-.15q-5.27,0-10.26-.15a68.57,68.57,0,0,0-10,.44,12.5,12.5,0,0,0-2.93.59q-2.06.59-2.05-1.76v-.29c.19-1,.88-1.42,2.05-1.32s2.05.15,2.64.15a8.92,8.92,0,0,0,2.64.15,11.53,11.53,0,0,1,2.64-.15q9.08.59,17.58.44t16.12-.15v-24q0-9.37.15-18.17T926.52,336a13,13,0,0,0-.29-2.34,14.75,14.75,0,0,1-.29-2.93,9.13,9.13,0,0,1,.29-2.49,1.35,1.35,0,0,1,1.47-1H928c1,.39,1.41,1.61,1.32,3.66s-.15,3.66-.15,4.84v8.79q-.3,13.48-.15,26.38t.15,24.91q13.77.3,25.2.29A193.07,193.07,0,0,0,977.81,394.61Z"/><path d="M1065.44,445.32q0,6.15-.29,12.45a72.83,72.83,0,0,1-1.76,12.75,71.41,71.41,0,0,1-4.1,12.16,29.61,29.61,0,0,1-7.62,10.4,28.88,28.88,0,0,1-11,5.72,57.07,57.07,0,0,1-11.87,1.9,56.22,56.22,0,0,1-12-.73,38.7,38.7,0,0,1-11.72-4q-11.73-5.86-17.29-18.76A49.59,49.59,0,0,1,983.52,465a83.24,83.24,0,0,1-1.61-13.19,74.89,74.89,0,0,1,.73-16.85,41,41,0,0,1,5.42-15.09,47.51,47.51,0,0,1,6.74-8.94,63.62,63.62,0,0,1,8.21-7.18,4.61,4.61,0,0,1,1.17-.88l1.17-.59a71,71,0,0,1,11.72-5.42,22.26,22.26,0,0,1,12-1,5.37,5.37,0,0,1-2.93,1.76A77.54,77.54,0,0,0,1015,400a32.22,32.22,0,0,0-10,5.13l-1.17.59a4.58,4.58,0,0,0-1.17.88,16.25,16.25,0,0,1-1.32,1.17c-.49.39-1.13.88-1.9,1.46a39.5,39.5,0,0,0-9.38,10.7,42.26,42.26,0,0,0-5.28,13.34,63.56,63.56,0,0,0-1.32,14.36A98.87,98.87,0,0,0,984.84,462a74.72,74.72,0,0,0,4.1,13,36.43,36.43,0,0,0,7,11,30,30,0,0,0,9.53,7.77,43.43,43.43,0,0,0,11,4,46.88,46.88,0,0,0,9.67.73q4.68-.14,9.38-.73a29.29,29.29,0,0,0,8.79-2.49,25.37,25.37,0,0,0,7.33-5.13,29.91,29.91,0,0,0,5.42-7.47,42.79,42.79,0,0,0,3.37-8.65,89.15,89.15,0,0,0,2.93-18.46,116.26,116.26,0,0,0-.29-18.46,50,50,0,0,0-4.69-17,36.84,36.84,0,0,0-5.57-8.65,34.83,34.83,0,0,0-7.33-6.3,2.94,2.94,0,0,0-1-.73,2.83,2.83,0,0,1-1-.73,8.44,8.44,0,0,1-1-.59,10.87,10.87,0,0,0-1-.59l-1.17-.59-1.17-.59a21.87,21.87,0,0,0-5.28-2.34,21.47,21.47,0,0,1-5.28-2.34,5.94,5.94,0,0,1,5.72,0q2.78,1.47,5.42,2.64a6.67,6.67,0,0,1,2.34,1.17,10.65,10.65,0,0,1,1,.59,8.44,8.44,0,0,0,1,.59,12.57,12.57,0,0,0,2.64,1.47,43.39,43.39,0,0,1,8.06,7.77,42.18,42.18,0,0,1,6,10.11,58.69,58.69,0,0,1,3.37,11.87A102.17,102.17,0,0,1,1065.44,445.32Z"/><g id="_Group_" data-name="&lt;Group&gt;"><path d="M600,220.74c72.13,7.55,124.15,29.08,124.15,54.45,0,31.7-81.22,57.39-181.43,57.39s-181.43-25.69-181.43-57.39c0-25.2,51.4-46.61,122.81-54.31,0,1.31-.06,2.62-.06,3.93a115.77,115.77,0,0,1,37.63,6.24,162.53,162.53,0,0,0-44.79,55.85q9.66,1.11,19.44,1.91c-.23.4-.43.8-.63,1.2a405.08,405.08,0,0,0,46.35,2.65A404.58,404.58,0,0,0,588.41,290c-.2-.43-.43-.86-.63-1.25,6.36-.51,12.69-1.11,19-1.85a162.6,162.6,0,0,0-44.64-55.73,115.5,115.5,0,0,1,38-6.36C600.07,223.45,600,222.11,600,220.74Z"/><path class="cls-1" d="M600,220.74c0,1.37.06,2.71.06,4.08a115.5,115.5,0,0,0-38,6.36,162.78,162.78,0,0,0-19.41-13.37h.06A545.12,545.12,0,0,1,600,220.74Z"/><path class="cls-1" d="M606.75,286.91c-6.27.74-12.6,1.34-19,1.85a116.27,116.27,0,0,0-45.7-48.44,115.61,115.61,0,0,1,20-9.15A162.6,162.6,0,0,1,606.75,286.91Z"/><polygon points="552.27 151.01 588.41 213.61 578.24 213.61 547.19 159.82 552.27 151.01"/><path class="cls-1" d="M587.79,288.76c.2.4.43.83.63,1.25a404.58,404.58,0,0,1-46.33,2.65A405.08,405.08,0,0,1,495.73,290c.2-.4.4-.8.63-1.2,14.91,1.2,30.1,1.8,45.47,1.8Q565.14,290.61,587.79,288.76Z"/><path class="cls-1" d="M558.4,135.73a115.75,115.75,0,0,1,41.62,85,545.12,545.12,0,0,0-57.27-2.94h-.06l-.86-.51-.86.51a543.36,543.36,0,0,0-56.85,3.08,115.74,115.74,0,0,1,41.65-85.18,18.94,18.94,0,0,0,4.62,4.68v0a19.91,19.91,0,0,0,23.38,0v0A19.32,19.32,0,0,0,558.4,135.73Zm30,77.88L552.27,151l-5.07,8.81-5.1-8.81-4.59,8-4.62-8-36.15,62.6h91.68Z"/><polygon class="cls-1" points="547.19 159.82 578.24 213.61 569.06 213.61 542.57 167.8 547.19 159.82"/><path class="cls-1" d="M542.09,240.33a116.27,116.27,0,0,1,45.7,48.44q-22.62,1.84-46,1.85c-15.37,0-30.56-.6-45.47-1.8A116.31,116.31,0,0,1,542.09,240.33Z"/><polygon points="542.57 167.8 569.06 213.61 516.12 213.61 542.57 167.8"/><path class="cls-1" d="M558.4,135.73a19.32,19.32,0,0,1-4.62,4.65l-2-2.65a15.62,15.62,0,0,0,4-4.11C556.68,134.3,557.54,135,558.4,135.73Z"/><path class="cls-1" d="M555.8,133.62a15.62,15.62,0,0,1-4,4.11L549.87,135a13.14,13.14,0,0,0,3.31-3.45C554.06,132.25,554.95,132.94,555.8,133.62Z"/><path class="cls-1" d="M553.78,140.38v0a19.91,19.91,0,0,1-23.38,0v0l1.94-2.65a16.56,16.56,0,0,0,19.47,0Z"/><path class="cls-1" d="M553.18,131.6a13.14,13.14,0,0,1-3.31,3.45l-1.94-2.71a9.48,9.48,0,0,0,2.54-2.68C551.38,130.28,552.29,130.94,553.18,131.6Z"/><path class="cls-1" d="M549.87,135l1.94,2.68a16.56,16.56,0,0,1-19.47,0l2-2.68a13.21,13.21,0,0,0,15.57,0Z"/><path class="cls-1" d="M547.93,132.34l1.94,2.71a13.21,13.21,0,0,1-15.57,0l1.94-2.71a9.9,9.9,0,0,0,11.69,0Z"/><path class="cls-1" d="M550.47,129.66a9.48,9.48,0,0,1-2.54,2.68L546,129.66a6.74,6.74,0,0,0,1.74-1.85C548.67,128.4,549.56,129,550.47,129.66Z"/><path class="cls-1" d="M546,129.66l1.94,2.68a9.9,9.9,0,0,1-11.69,0l1.94-2.65a6.58,6.58,0,0,0,3.91,1.25A6.67,6.67,0,0,0,546,129.66Z"/><path class="cls-1" d="M547.73,127.8a6.74,6.74,0,0,1-1.74,1.85L544,127a2.42,2.42,0,0,0,.88-1C545.85,126.58,546.82,127.18,547.73,127.8Z"/><polygon class="cls-1" points="547.19 159.82 542.57 167.8 537.5 158.99 542.09 151.01 547.19 159.82"/><path class="cls-1" d="M542.69,217.8a162.78,162.78,0,0,1,19.41,13.37,115.61,115.61,0,0,0-20,9.15,114.51,114.51,0,0,0-20.38-9.27A160.28,160.28,0,0,1,541,217.8Z"/><path class="cls-1" d="M544,127l2,2.68a6.67,6.67,0,0,1-3.91,1.28,6.58,6.58,0,0,1-3.91-1.25l2-2.71a3.19,3.19,0,0,0,3.88,0Z"/><path class="cls-1" d="M542.09,124.3q1.41.81,2.82,1.71a2.42,2.42,0,0,1-.88,1Z"/><path class="cls-1" d="M542.09,124.3,544,127a3.19,3.19,0,0,1-3.88,0Z"/><path class="cls-1" d="M542.69,217.8H541l.86-.51Z"/><polygon class="cls-1" points="537.5 158.99 542.57 167.8 516.12 213.61 505.94 213.61 537.5 158.99"/><path class="cls-1" d="M542.09,124.3,540.15,127a2.71,2.71,0,0,1-.91-1C540.18,125.41,541.12,124.84,542.09,124.3Z"/><path class="cls-1" d="M540.15,127l-2,2.71a6.54,6.54,0,0,1-1.74-1.91c.91-.6,1.85-1.2,2.79-1.77A2.71,2.71,0,0,0,540.15,127Z"/><path class="cls-1" d="M538.18,129.69l-1.94,2.65a9.48,9.48,0,0,1-2.54-2.68q1.37-1,2.74-1.88A6.54,6.54,0,0,0,538.18,129.69Z"/><polygon points="532.88 151.01 537.5 158.99 505.94 213.61 496.73 213.61 532.88 151.01"/><path class="cls-1" d="M536.24,132.34,534.31,135A12.7,12.7,0,0,1,531,131.6c.88-.68,1.8-1.31,2.71-1.94A9.48,9.48,0,0,0,536.24,132.34Z"/><path class="cls-1" d="M534.31,135l-2,2.68a16.07,16.07,0,0,1-4-4.11c.86-.68,1.74-1.37,2.65-2A12.7,12.7,0,0,0,534.31,135Z"/><path class="cls-1" d="M532.34,137.72l-1.94,2.65a18.94,18.94,0,0,1-4.62-4.68c.83-.71,1.68-1.4,2.57-2.08A16.07,16.07,0,0,0,532.34,137.72Z"/><path class="cls-1" d="M541,217.8a160.28,160.28,0,0,0-19.27,13.26,115.77,115.77,0,0,0-37.63-6.24c0-1.31,0-2.62.06-3.93A543.36,543.36,0,0,1,541,217.8Z"/><path class="cls-1" d="M521.71,231.06a114.51,114.51,0,0,1,20.38,9.27,116.31,116.31,0,0,0-45.73,48.49q-9.79-.81-19.44-1.91A162.53,162.53,0,0,1,521.71,231.06Z"/><path class="cls-2" d="M496.36,288.82q-9.79-.81-19.44-1.91"/><path class="cls-2" d="M606.75,286.91c-6.27.74-12.6,1.34-19,1.85"/><path class="cls-2" d="M476.92,286.91a162.53,162.53,0,0,1,44.79-55.85"/><path class="cls-2" d="M606.75,286.91a162.6,162.6,0,0,0-44.64-55.73"/><path class="cls-2" d="M542.09,240.33a116.31,116.31,0,0,0-45.73,48.49c-.23.4-.43.8-.63,1.2a405.08,405.08,0,0,0,46.35,2.65A404.58,404.58,0,0,0,588.41,290c-.2-.43-.43-.86-.63-1.25A116.27,116.27,0,0,0,542.09,240.33Z"/><path class="cls-2" d="M542.09,124.3c-1,.54-1.91,1.11-2.85,1.71s-1.88,1.17-2.79,1.77-1.82,1.23-2.74,1.88-1.82,1.25-2.71,1.94-1.8,1.34-2.65,2-1.74,1.37-2.57,2.08a115.74,115.74,0,0,0-41.65,85.18c0,1.31-.06,2.62-.06,3.93a115.77,115.77,0,0,1,37.63,6.24,114.51,114.51,0,0,1,20.38,9.27,115.44,115.44,0,0,1,58-15.51c0-1.37,0-2.71-.06-4.08a115.75,115.75,0,0,0-41.62-85c-.86-.74-1.71-1.43-2.59-2.11s-1.74-1.37-2.62-2-1.8-1.31-2.71-1.94-1.8-1.25-2.74-1.85-1.88-1.23-2.82-1.8S543,124.84,542.09,124.3Z"/><polyline class="cls-2" points="578.24 213.61 547.19 159.82 542.09 151.01 537.5 158.99 505.94 213.61"/><line class="cls-2" x1="569.06" y1="213.61" x2="542.57" y2="167.8"/><polyline class="cls-2" points="537.5 158.99 532.88 151.01 496.73 213.61 505.94 213.61 516.12 213.61"/><polyline class="cls-2" points="542.57 167.8 516.12 213.61 569.06 213.61 578.24 213.61 588.41 213.61 552.27 151.01 547.19 159.82"/><path class="cls-2" d="M525.78,135.7a19.64,19.64,0,0,1-3.59-11.4,19.9,19.9,0,1,1,36.21,11.43"/><path class="cls-2" d="M536.44,127.78a6.68,6.68,0,0,1-1-3.48,7,7,0,0,1,.31-2.05,6.67,6.67,0,0,1,12.66,0,7,7,0,0,1,.31,2.05,6.7,6.7,0,0,1-1,3.51"/><polyline class="cls-2" points="542.09 124.3 542.09 120.99 542.09 117.68"/><polyline class="cls-2" points="542.09 124.3 538.92 123.27 535.76 122.25"/><polyline class="cls-2" points="542.09 124.3 545.23 123.27 548.42 122.25"/></g><path class="cls-1" d="M534.19,275.73c0-7.09,3.83-12.83,8.55-12.83-13.38,0-24.23,5.74-24.23,12.83s10.85,12.83,24.23,12.83C538,288.56,534.19,282.82,534.19,275.73Z"/><path d="M542.74,289.49c-14.11,0-25.16-6-25.16-13.75S528.64,262,542.74,262v1.85c-4.21,0-7.63,5.34-7.63,11.9s3.42,11.9,7.63,11.9Zm-5.07-25.37c-10.42,1.18-18.24,5.95-18.24,11.62s7.82,10.44,18.24,11.62c-2.65-2.44-4.41-6.74-4.41-11.62S535,266.55,537.68,264.11Z"/><path class="cls-1" d="M542.74,262.9c4.72,0,8.55,5.74,8.55,12.83s-3.83,12.83-8.55,12.83c13.38,0,24.23-5.74,24.23-12.83S556.13,262.9,542.74,262.9Z"/><path d="M542.74,289.49v-1.85c4.21,0,7.63-5.34,7.63-11.9s-3.42-11.9-7.63-11.9V262c14.11,0,25.16,6,25.16,13.75S556.85,289.49,542.74,289.49Zm5.07-25.37c2.65,2.44,4.41,6.74,4.41,11.62s-1.76,9.18-4.41,11.62c10.42-1.18,18.24-5.95,18.24-11.62S558.23,265.3,547.81,264.11Z"/><ellipse cx="542.72" cy="275.73" rx="8.46" ry="12.83"/></svg>