<?xml version="1.0" encoding="utf-8"?>
<!-- Generator: Adobe Illustrator 21.0.2, SVG Export Plug-In . SVG Version: 6.00 Build 0)  -->
<svg version="1.1" id="Layer_1" xmlns="http://www.w3.org/2000/svg" xmlns:xlink="http://www.w3.org/1999/xlink" x="0px" y="0px"
	 viewBox="0 0 1080 680" style="enable-background:new 0 0 1080 680;" xml:space="preserve">
<style type="text/css">
	.st0{fill:#F4F4F4;stroke:#808080;stroke-miterlimit:10;}
	.st1{fill:#4D4D4D;}
	.st2{fill:#5B5B5B;}
	.st3{font-family:'FlowProu';}
	.st4{font-size:158.3095px;}
	.st5{fill:#FFFFFF;}
	.st6{fill:none;stroke:#000000;stroke-miterlimit:10;}
	.st7{fill:#FFFFFF;stroke:#000000;stroke-miterlimit:10;}
</style>
<rect id="XMLID_213_" x="-1100" class="st0" width="1080" height="680"/>
<g id="XMLID_59_">
	<g id="XMLID_14_">
		<g id="XMLID_126_">
			<path id="XMLID_25_" class="st1" d="M-1738.5,111.7c-37.8-10.9-79.4-2.8-112.4,17.9c-33.5,20.9-58.3,53.8-73.5,89.9
				c-31.6,75.2-20.7,168,40.8,224.7c30.4,28,70.4,45.4,112,45.4c0.6,0,3.3-1.1,1.9-1.1c-74.1,0-139.4-54.8-160.6-124.3
				c-22.8-74.8,0.2-164.1,58.4-217c35.1-31.9,84.5-47.8,131-34.5C-1740.2,113-1737.7,111.9-1738.5,111.7L-1738.5,111.7z"/>
		</g>
	</g>
	<g id="XMLID_15_">
		<g id="XMLID_117_">
			<path id="XMLID_26_" class="st1" d="M-1838.3,232.2c-0.7,48.4-1.3,96.8-2,145.2c1-0.2,1.9-0.4,2.9-0.6c-1.2-15-1.1-30.1,0.5-45.1
				c1-9.6,2.3-32.2,16.4-31.8c15.3,0.4,17.8,21.9,19.2,33.1c2,15.1,2,30.4,0.4,45.5c-0.1,1.2,2.8,0.7,2.9-0.4
				c2-17.8,1.5-35.8-1.5-53.5c-2-11.6-7.9-29.1-23.2-26.2c-11.4,2.2-14.7,15.2-16.1,25c-2.6,18-3,36.1-1.5,54.2
				c0.1,1,2.9,0.3,2.9-0.6c0.7-48.4,1.3-96.8,2-145.2C-1835.4,230.6-1838.3,231.2-1838.3,232.2L-1838.3,232.2z"/>
		</g>
	</g>
	<g id="XMLID_16_">
		<g id="XMLID_111_">
			<path id="XMLID_27_" class="st1" d="M-1740.6,306.4c-25.4-0.9-46.4,22-40.5,47.4c2.7,11.6,11.1,23.2,23.3,25.9
				c10.7,2.4,19.1-4,22.8-13.7c6.3-16.7,5-37.3,1.3-54.4c-0.3-1.2-3-0.4-2.9,0.8c2,19.6,9.8,38,22.5,53.1c0.7,0.9,3.5-0.2,2.7-1.2
				c-12.6-15-20.3-33.2-22.2-52.7c-1,0.3-1.9,0.5-2.9,0.8c3.4,15.8,4.1,32.8,0.3,48.6c-1.6,6.8-5,15-12.5,17
				c-7.9,2.2-16.4-3.2-21.4-8.9c-8.5-9.9-11.4-24.4-7.1-36.8c5.1-14.8,20.1-24.6,35.6-24.1C-1740.5,308.3-1738.7,306.5-1740.6,306.4
				L-1740.6,306.4z"/>
		</g>
	</g>
	<g id="XMLID_17_">
		<g id="XMLID_105_">
			<path id="XMLID_28_" class="st1" d="M-1714.5,313.5c0.5,16.9,0.9,33.9,1.4,50.8c0,1.5,2.4,1.1,2.9,0.1
				c5.3-10.7,1.4-22.1-0.5-33.2c-1.7-9.6-1.2-26,11.1-28.2c15.6-2.8,21.5,16.5,21.5,28.3c-0.1,12.4-3,24.9,1.4,37
				c0.5,1.4,3.4,0.6,2.9-0.8c-5.5-15,0.7-30.8-2.1-46.1c-2-10.9-10.8-22.1-23-20.7c-10.2,1.2-14.8,11-15.4,20.2
				c-1,14.5,8.2,29.2,1.3,43.1c1,0,1.9,0.1,2.9,0.1c-0.5-16.9-0.9-33.9-1.4-50.8C-1711.6,311.8-1714.5,312.2-1714.5,313.5
				L-1714.5,313.5z"/>
		</g>
	</g>
	<g id="XMLID_18_">
		<g id="XMLID_99_">
			<path id="XMLID_29_" class="st1" d="M-1640.8,312.6c-13,7.3-26.3,17.2-29.1,32.8c-2.3,12.5,4.3,25.5,17.5,27.7
				c11.2,1.9,20-6.1,22.2-16.7c3.3-15.5-2.6-33.1-9.9-46.6c-0.4-0.8-3.1-0.2-2.9,0.8c4,15.4,8,30.8,12,46.2
				c3.8,14.7,8.8,29.6,10.9,44.6c2,14.5-2,29-15,37.2c-12.9,8.1-29.6,4.8-40-5.7c-0.7-0.7-3.4,0.4-2.7,1.1
				c18.6,18.9,52.6,11.2,59.8-14.9c4.7-16.9-3.2-36.2-7.5-52.4c-4.9-18.9-9.8-37.9-14.8-56.8c-1,0.3-1.9,0.5-2.9,0.8
				c6,11,10.1,23.4,10.7,36c0.6,12.5-5.7,30-21.7,24.1c-11.8-4.4-15.5-17.4-12.3-28.7c3.9-13.5,15.6-22.1,27.3-28.6
				C-1637.3,312.4-1639.9,312.1-1640.8,312.6L-1640.8,312.6z"/>
		</g>
	</g>
	<g id="XMLID_19_">
		<g id="XMLID_93_">
			<path id="XMLID_30_" class="st1" d="M-1594.7,323.8c-9-7.2-19.5,1.5-22.5,10.3c-3.4,9.7-3.9,24.6,5.1,31.6
				c8.2,6.5,19.4,2.3,25.4-5.2c9.5-11.8,4.3-27.9-0.2-40.7c-0.4-1.2-3.3-0.4-2.9,0.8c6.9,20,19.9,37.2,37.1,49.4
				c0.9,0.6,3.5-0.7,2.3-1.5c-17-12-29.7-29-36.5-48.6c-1,0.3-1.9,0.5-2.9,0.8c3.4,9.8,7.4,20.8,4.7,31.2
				c-2.5,9.6-13.5,19.5-23.5,13.2c-6.8-4.3-8.2-13.8-7.7-21.1c0.3-4.3,1.2-8.7,3.1-12.6c2.9-6.2,10.1-11,16.3-6
				C-1596.1,326-1593.5,324.8-1594.7,323.8L-1594.7,323.8z"/>
		</g>
	</g>
	<g id="XMLID_21_">
		<g id="XMLID_20_">
			<g id="XMLID_85_">
				<path id="XMLID_37_" class="st1" d="M-1475.3,118.1c-6.9,95-13.8,190.6-6.3,285.8c2.1,27.1,5.5,54,10.3,80.8
					c0.2,0.9,3.1,0.2,2.9-0.8c-16.8-94.2-15.2-190.4-9.5-285.6c1.6-26.9,3.6-53.8,5.5-80.6C-1472.4,116.6-1475.3,117.2-1475.3,118.1
					L-1475.3,118.1z"/>
			</g>
		</g>
		<g id="XMLID_22_">
			<g id="XMLID_78_">
				<path id="XMLID_39_" class="st1" d="M-1475.2,134.8c18-11.6,40.7-14.3,61.1-7.9c19.6,6.1,35.1,20.8,43.1,39.6
					c7.5,17.7,8.3,38.1,1,55.9c-7.7,18.7-22.8,33.5-40.3,43.1c-24.5,13.5-53.2,16.4-80.7,15.8c-1.2,0-3,1.7-1.1,1.8
					c45.5,1.1,98.5-10.2,121.8-53.9c20.3-38.1,1.7-88.4-39.1-103c-22.2-8-47.7-5.2-67.5,7.6
					C-1478.7,134.8-1476.2,135.4-1475.2,134.8L-1475.2,134.8z"/>
			</g>
		</g>
	</g>
	<g id="XMLID_24_">
		<g id="XMLID_71_">
			<path id="XMLID_40_" class="st1" d="M-1460,327.1c0,16.7,0,33.3,0,50c0,1.5,2.9,1,2.9-0.2c0-16.7,0-33.3,0-50
				C-1457,325.4-1460,325.9-1460,327.1L-1460,327.1z"/>
		</g>
	</g>
	<g id="XMLID_31_">
		<g id="XMLID_65_">
			<path id="XMLID_69_" class="st1" d="M-1412.9,322.2c-15.7,0.4-30.4,14.3-28.9,30.6c1.5,16.7,19.4,27.2,35,23.7
				c1.8-0.4,1.4-1.8-0.4-1.4c-13.6,3.1-28.4-6.9-31.3-20.5c-3.1-14.9,9.4-30.5,24.5-30.9C-1413,323.8-1411,322.2-1412.9,322.2
				L-1412.9,322.2z"/>
		</g>
	</g>
	<g id="XMLID_38_">
		<g id="XMLID_58_">
			<path id="XMLID_63_" class="st1" d="M-1387.9,321.2c-1,17.5-1.9,34.9-2.9,52.4c-0.1,1.5,2.9,1,2.9-0.2c1-17.5,1.9-34.9,2.9-52.4
				C-1384.9,319.5-1387.8,320-1387.9,321.2L-1387.9,321.2z"/>
		</g>
	</g>
	<g id="XMLID_45_">
		<g id="XMLID_51_">
			<path id="XMLID_56_" class="st1" d="M-1401.5,350.8c8-5,16.9-7.5,26.3-7.5c1.1,0,3.1-1.6,1.1-1.6c-10.5-0.1-20.4,2.7-29.3,8.2
				C-1404.9,351-1402.4,351.3-1401.5,350.8L-1401.5,350.8z"/>
		</g>
	</g>
	<g id="XMLID_52_">
		<g id="XMLID_44_">
			<path id="XMLID_49_" class="st1" d="M-1348.6,334.2c-7.6,4.1-14.6,11.2-16.1,20c-1.3,7.5,3.3,14.3,11.3,14.2
				c7.9,0,14-7,14.7-14.5c0.8-8.2-4.1-15.8-11.4-19.2c-1.2-0.6-3.3,1.2-1.7,1.9c5.5,2.6,9.3,7.8,10.1,13.8c1,7.3-3.8,16.9-12.3,15.7
				c-8-1.1-9.1-9.6-6.6-15.9c2.5-6.2,7.6-11.1,13.3-14.3C-1345.5,335-1347.1,333.5-1348.6,334.2L-1348.6,334.2z"/>
		</g>
	</g>
</g>
<text id="XMLID_23_" transform="matrix(1 0 0 1 -1787.0122 547.1855)" style="fill:#CCCCCC; font-family:'AlienLeagueIIExpanded'; font-size:26.9298px;">premium gratis pictograms</text>
<g id="XMLID_75_">
	<g id="XMLID_121_">
		<path id="XMLID_76_" class="st1" d="M-1437.7,138.6c-5.4-0.4-10.8,1.1-15.1,4.5c-3.5,2.8-10.1,10.5-5.1,14.2
			c10.9,8.2,24.7-2.1,33.9-7.6c5.4-3.2,11.9-5.9,18.2-3.6c4.3,1.6,7.1,5.3,7.5,9.7c1.2,11.1-9,18-19.1,18.4
			c-14.5,0.5-31.2-9.6-44.1,1.2c-11.7,9.7-0.2,23.9,12.1,24.3c7.2,0.2,14-2.5,20.3-5.6c9.9-4.9,22.1-12.9,33.1-6.5
			c7.8,4.5,10.4,14.1,3.4,20.7c-8.3,7.8-23,8.5-33.6,7.7c-12.2-0.9-31.1-10.3-40.4,2.7c-4.4,6.1-0.7,12.7,5.2,15.8
			c7.3,3.9,16.1,2.6,23.5,6.3c8.9,4.4,10,18,0.9,23.2c-12.6,7.2-25-3.6-31.1-13.8c-0.5-0.7-3.2,0.3-2.9,0.8
			c6.9,11.5,19.5,20.5,33.2,14.8c12.7-5.3,13.4-22.3,0-27c-7.2-2.5-15.3-1.7-22-5.8c-3.1-1.9-5.7-4.8-5.9-8.6
			c-0.4-8.2,8.9-11.5,15.6-10.9c5.5,0.4,10.9,2.4,16.4,3.3c4.1,0.6,8.3,0.9,12.4,0.9c7.7-0.1,15.8-1.2,23-4.2
			c5.3-2.2,11.2-5.9,12.7-11.9c1.6-6.7-3-12.6-8.7-15.4c-14.9-7.3-30.1,6.1-43.3,10.8c-9.4,3.3-25.1,0.9-25.7-11.8
			c-0.3-5,3.1-9.3,7.4-11.5c6.6-3.4,14.4-1.5,21.2,0c11.8,2.5,28.3,4.5,36.4-7c3.7-5.3,4.8-13.5-0.1-18.5
			c-4.9-4.9-12.7-4.5-18.8-2.6c-9.6,3.1-17.1,12.2-27.3,13.2c-4.6,0.5-13.7-0.9-11.5-7.3c2.3-7,9.1-12.1,16.7-11.6
			C-1438.9,139.8-1436.2,138.7-1437.7,138.6L-1437.7,138.6z"/>
	</g>
</g>
<g id="XMLID_81_">
	<g id="XMLID_134_">
		<path id="XMLID_83_" class="st1" d="M-1713.3,135.4c-28.3-4-59.1-2.6-82.3,15.9c-6.2,4.9-11.4,11-15.3,17.9
			c0.1-0.2,0.7-0.2,0.9-0.5c8.4-15.2,23.2-25.5,39.6-30.5c18.2-5.6,37.7-4.9,56.3-2.3C-1713.9,135.9-1713.5,135.4-1713.3,135.4
			L-1713.3,135.4z"/>
	</g>
</g>
<g id="XMLID_87_">
	<g id="XMLID_41_">
		<path id="XMLID_91_" class="st1" d="M-1825.1,445c32.8-6.5,67.1,4.3,90.2,28.4c6,6.3,11.1,13.4,15.3,21c0,0,0.9-0.5,0.9-0.5
			c-15.5-28.4-44.4-47.7-76.7-50.9c-9.6-0.9-19.4-0.4-28.9,1.4C-1824.6,444.6-1824.8,445-1825.1,445L-1825.1,445z"/>
	</g>
</g>
<g>
	<g id="XMLID_228_">
		<g id="XMLID_97_">
			<g>
				<path class="st2" d="M-642,325.9c-21.6-1.1-44-2-64.2,6.7c-17.6,7.6-31.5,21.7-38.7,39.5c-5.5,13.6-7.3,28.8-5.7,43.4
					c2,18.7,12.2,35.4,27,46.8c18.3,14.1,41.9,19.2,64.1,12.8c0.5-0.1-0.4-4.9,0-5c-34.5,9.9-73.5-8.9-86.8-42.5
					c-13.6-34.2,6.2-74.6,38.8-89.4c20.6-9.4,43.5-8.5,65.6-7.3C-642,330.9-641.9,325.9-642,325.9L-642,325.9z"/>
			</g>
		</g>
		<g id="XMLID_103_">
			<g>
				<path class="st2" d="M-705.4,368.5c0.3,29.3,0.6,58.6,1,87.8c0-1.4,0-2.8,0-4.3c-1.5-11.8-1.8-24,0.6-35.8
					c1.3-6.3,4.7-13.2,12.2-12.4c7.8,0.8,12.1,8.3,14.8,14.8c3.8,9.1,4.9,18.7,3,28.4c-0.1,0.5,0,5,0,5c0.9,0,1.7,0,2.6,0.1
					c0,0,0.1-5,0-5c-0.9,0-1.7,0-2.6-0.1c0,1.7,0,3.3,0,5c1.7-8.1,1.9-17.1,0.7-25.3c-1.5-9.9-6.9-28.4-19.8-27.9
					c-12.4,0.5-12,20-12.4,28.5c-0.4,9.9-0.1,19.9,1.1,29.7c-0.2-1.4,0-2.9,0-4.3c-0.3-29.3-0.6-58.6-1-87.8
					C-705.4,363.1-705.5,367.9-705.4,368.5L-705.4,368.5z"/>
			</g>
		</g>
		<g id="XMLID_109_">
			<g>
				<path class="st2" d="M-638.7,406.6c-11.3-2.2-28.5-4.4-34.1,8.9c-2.7,6.3-1.5,16,1.8,21.7c6.5,11.3,19.9,13.3,28.5,3.2
					c7.3-8.6,6.8-20.8,6.8-31.5c0-0.8-0.1-1.7,0-2.5c-0.7,6.5-0.7,13.6,0.9,20c1.3,5.4,3.8,10.6,7.2,14.9c2.5,3.1,9.4,7.2,10.6,0.7
					c0.3-1.6-0.3-3.4,0-5c-0.6,3.1-3.6,4.2-6.4,3c-2.9-1.2-4.9-4.4-6.5-7c-3.9-6.3-6.7-14.2-5.8-21.7c0-0.8,0-1.7,0-2.5
					c0,10.7-1.1,23.1-10.5,29.9c-7.7,5.6-16.7,3.6-22.6-3.5c-2.5-3-5.1-7.6-4.9-11.5c0.2-3.9,3.2-7.6,6.2-9.8
					c8.4-6.1,19.3-4.2,28.8-2.4C-639,411.6-638.3,406.7-638.7,406.6L-638.7,406.6z"/>
			</g>
		</g>
		<g id="XMLID_115_">
			<g>
				<path class="st2" d="M-620.3,411.2c2,11.1,4.1,22.2,6.1,33.3c-0.2-1.2,0-2.6,0-3.8c-0.1-8.1-3.7-36,11.8-31.1
					c5.3,1.7,7.8,6.9,9.5,11.8c2,6.2,3.7,12.6,5.5,18.9c-0.4-1.5,0.4-3.5,0-5c-2.2-7.6-3.7-16-7.1-23.1c-2.7-5.7-9.8-11.2-15.7-6
					c-4.1,3.6-4.1,9.3-4.1,14.3c0,7.6,0.1,15.2,0.1,22.7c0-1.3,0-2.5,0-3.8c-2-11.1-4.1-22.2-6.1-33.3
					C-620,407.8-620.6,409.6-620.3,411.2L-620.3,411.2z"/>
			</g>
		</g>
		<g id="XMLID_119_">
			<g>
				<path class="st2" d="M-568.1,404.4c-6.4-5.8-14.3,0.2-16.6,6.8c-1.7,4.8-1.9,10-1.8,15c0.1,5.4,1.1,12.2,7.3,13.8
					c7.8,2,13.4-5.4,14.1-12.3c0.3-3.6,0.3-7.5-0.3-11c-0.2-1.4-3.5-13-4.7-12.8c-0.7,0.1-0.5,6-0.5,7.2c0,6.6,1,12.8,3,19.1
					c2.8,8.7,8.1,19,5.4,28.3c-2.3,7.8-8.9,14.6-17.6,13.7c-10.2-1.1-16.3-10.3-20.6-18.6c0.7,1.3-0.7,3.7,0,5
					c5.5,10.4,17.4,25,30.5,16.2c8-5.4,9.1-15.1,8.8-23.9c-0.2-6.5-2-12.7-4.1-18.8c-1.3-3.7-2.6-7.4-3.6-11.3
					c-0.5-1.7-0.9-3.5-1.2-5.3c-0.2-1.4-0.6-3.4-0.3-4.8c0.4-2.1,0-1.8,1.1-0.1c3.5,5.7,5.7,13.7,1.7,19.6
					c-3.1,4.5-9.8,6.9-14.5,3.4c-11.2-8.2,2.2-35.1,14.1-24.2C-568.9,408.7-567.2,405.2-568.1,404.4L-568.1,404.4z"/>
			</g>
		</g>
		<g id="XMLID_124_">
			<g>
				<path class="st2" d="M-535.3,402.8c-7.3-2.3-15.5-0.3-20,6c-3,4.1-3.4,8.7-3.4,13.5c0,5.2,1.2,10.7,6,13.7
					c6.7,4.2,14.4-1.3,17.1-7.7c1.7-4.1,1.5-8.8,1.4-13.1c-0.1-3.2-0.6-6.3-1.2-9.4c-0.3-1.2-0.5-2.4-0.8-3.6
					c-0.3,1-0.6,2.1-0.8,3.2c-0.2,1.1-0.2,2.2-0.3,3.3c-0.5,12,3.7,22.9,15.9,27.3c-0.5-0.2,0.6-4.8,0-5c-6.2-2.3-11.4-6.6-14-12.8
					c-0.2-0.4-2.8-11.5-0.8-11c1.4,0.3,1.8,11.1,1.7,12.1c-0.8,6.1-5.7,12.4-12.1,13.1c-7.3,0.7-11.9-6.6-12-13.1c0,1.4,0,2.8,0,4.3
					c0.9-11.9,11.9-19.5,23.4-15.8C-535.8,407.6-534.8,402.9-535.3,402.8L-535.3,402.8z"/>
			</g>
		</g>
		<g>
			<g>
				<path class="st2" d="M-510.7,329.1c12,22,19.1,46.5,20.3,71.6c1.3,26.8-5.7,54.2-17.5,78.2c-0.7,1.4,0.7,3.7,0,5
					c24.8-49.8,23.7-110.8-2.8-159.7C-510,325.4-511.4,327.8-510.7,329.1L-510.7,329.1z"/>
			</g>
		</g>
		<g>
			<g>
				<path class="st2" d="M-466,402.6c-1.9-7.5-13.4,2.4-15.1,5.8c-1.7,3.4-1.6,7.2-1.5,10.9c0.4,13.1,14.7,20.2,25,11.6
					c0.8-0.7-0.8-4.3,0-5c-9.9,8.2-23.9,2.1-25-10.6c0,1.6,0,3.1,0,4.7c0.1-4.7,2.3-9,6-11.9c2.6-2,9.4-5.2,10.6-0.4
					C-466.4,406-465.6,404.2-466,402.6L-466,402.6z"/>
			</g>
		</g>
		<g>
			<g>
				<path class="st2" d="M-440.3,398.9c-3.6-0.8-8.5,5-10,7.8c-1.6,2.9-1.9,6-1.9,9.2c-0.1,6.9,1.5,17,9.3,19.4
					c9.7,2.9,12.3-9.4,12.4-16.3C-430.5,411-431.5,401.8-440.3,398.9c0.5,0.1-0.5,4.8,0,5c6.5,2.1,10.2,9,9.5,15.7
					c-0.6,6.1-5.9,13.1-12.7,10.4c-5-2-9.4-9.7-8.2-14.9c0.9-3.9,6.5-12.4,11.3-11.3C-440.7,403.8-439.9,399-440.3,398.9z"/>
			</g>
		</g>
		<g>
			<g>
				<path class="st2" d="M-424.2,399.3c-0.4,11.2-0.8,22.4-1.2,33.6c-0.1,1.5,0.3,3.4,0,4.9c1.3-5.5,2.6-11,3.8-16.6
					c1-4.2,1.4-10.8,4.9-13.8c4-3.4,8,0.4,9.1,4.5c1.7,6.3,1,13.3,0,19.7c-0.2,1.6,0.2,3.4,0,5c1.4-8.9,2.4-20.8,0-29.7
					c-0.8-2.8-2.6-6-5.9-5.9c-3.8,0.1-5.3,4-6.2,7c-2.3,8.1-3.8,16.5-5.8,24.8c0,1.6,0,3.3,0,4.9c0.4-11.2,0.8-22.4,1.2-33.6
					C-424.1,402.6-424.2,400.4-424.2,399.3L-424.2,399.3z"/>
			</g>
		</g>
		<g>
			<g>
				<path class="st2" d="M-389.4,399.7c-7,0.9-8.5,6.1-8.2,12.1c0.4,7.8,9.9,10.8,10.6,18.8c0-1.6,0-3.3,0-4.9
					c-0.7,9.3-9.7,6.6-14.8,2.7c0.8,0.6-0.8,4.4,0,5c3.5,2.7,9.4,6.2,13.2,1.9c1.8-2.1,1.6-5,1.6-7.5c0-2.9-0.4-5.4-2-8
					c-2.8-4.3-7.7-6.9-8.5-12.3c0,1.6,0,3.3,0,4.9c0.3-4.6,3.8-7.2,8.2-7.7C-389.2,404.7-389.6,399.8-389.4,399.7L-389.4,399.7z"/>
			</g>
		</g>
	</g>
	<g>
		<g>
			<path class="st2" d="M-439.1,432.6c-6.8-2.5-10.1-9.8-8.6-16.7c0.9-4.3,5.3-10.1,10.2-5.8c2.7,2.3,3,6.2,2.5,9.5
				c-0.2,1.4-0.6,2.9-1.2,4.3c-0.3,0.8-0.7,1.6-1.3,2.2c-2.2,2.2-5.1,0.7-6.3-1.4c-1.4-2.6-1.3-6.8,0.1-9.4c0.2-0.4,0.4-0.8,0.8-1.2
				c0.9,0,1.9-0.1,2.8-0.1c0.8,0.4,1.2,2.3,1.4,3c0.2,1.6,0,3.1-0.6,4.5c-0.2,0.5-0.4,0.9-0.7,1.3c-0.8-0.3-1.5-0.6-2.3-0.8
				c-0.5-0.5-0.3-2.1-0.2-2.7c0.2-0.9,0.6-2.7,2-1.7c0.1,0.2,0.2,0.4,0.3,0.6c0.6,1.1,0.2,1.7-1,1.9c-0.2,0.2,0.7,0.4,0.9,0.2
				c1.8-2-4.2-1.3-1.2,0.5c2.6,1.5,3.4-3.5,0.8-4.2c-3.4-0.9-3.7,6.1-0.9,7.2c4.1,1.6,4.4-6.2,3.5-8.4c-1.5-3.5-5.4-2.8-6.7,0.4
				c-1.6,4-1,10.9,4.1,11.8c5,0.9,6.6-5.4,6.9-9.2c0.4-4.4-1.5-9.5-6.5-10.2c-6-0.8-8.8,6-8.8,10.9c0,6.1,3.6,11.5,9.4,13.7
				C-439.3,433-438.5,432.8-439.1,432.6L-439.1,432.6z"/>
		</g>
	</g>
	<g>
		<g>
			<path class="st2" d="M-576.3,436.3c-5.6-3.7-3.8-11.5-1.8-16.7c1.1-2.8,2.5-5.4,4.2-7.8c1.3-1.8,4-3.7,4.1-6.1c0-0.3-1-0.4-1-0.1
				c-0.1,1.8-1.8,3-2.9,4.4c-1,1.3-2,2.6-2.8,4c-1.5,2.4-2.6,5.1-3.5,7.8c-1.5,5.1-2.2,11.4,2.9,14.7
				C-576.9,436.6-575.9,436.6-576.3,436.3L-576.3,436.3z"/>
		</g>
	</g>
	<g>
		<g>
			<path class="st2" d="M-570.8,406.8c-6.6-0.5-10,6.5-11.8,11.8c-2.1,6-3.8,14.6,2.4,18.7c0.2,0.1,1.2,0.2,0.8-0.1
				c-5.6-3.7-4.4-11.3-2.7-16.8c1.6-5.1,4.9-13.7,11.6-13.2C-569.9,407.3-570.4,406.9-570.8,406.8L-570.8,406.8z"/>
		</g>
	</g>
	<g>
		<g>
			<path class="st2" d="M-570.8,415.8c-4.2,1.1-5.6,6.6-5.9,10.4c-0.3,4.3,1.6,8.6,5.8,10c0.2,0.1,1.2-0.1,0.7-0.3
				c-3.8-1.3-5.6-5.1-5.6-8.9c0-3.6,1.3-9.9,5.5-10.9C-569.7,416-570.5,415.8-570.8,415.8L-570.8,415.8z"/>
		</g>
	</g>
	<g>
		<g>
			<path class="st2" d="M-569.5,423.7c-2.6,3-2.6,7.2,0.1,10.2c0.2,0.2,1.1,0.1,1-0.1c-2.6-2.9-2.7-7-0.1-10
				C-568.4,423.6-569.3,423.5-569.5,423.7L-569.5,423.7z"/>
		</g>
	</g>
	<g>
		<g>
			<path class="st2" d="M-704.7,456.1c-13.4-29,4.2-60.7-1.1-90.8c-0.1-0.3-1-0.3-1,0c5.4,30.1-12.3,61.8,1.2,90.9
				C-705.5,456.5-704.6,456.4-704.7,456.1L-704.7,456.1z"/>
		</g>
	</g>
</g>
<text transform="matrix(1 0 0 1 254.6522 469.5261)" class="st3 st4">changa picto</text>
<g id="XMLID_10_">
	<g>
		<path d="M570.9,319.1c39,4.1,67.1,15.7,67.1,29.4c0,17.1-43.9,31-98,31c-54.1,0-98-13.9-98-31c0-13.6,27.8-25.2,66.3-29.3
			c0,0.7,0,1.4,0,2.1c7.1,0,14,1.2,20.3,3.4c-10.1,8.1-18.4,18.4-24.2,30.2c3.5,0.4,7,0.7,10.5,1c-0.1,0.2-0.2,0.4-0.3,0.6
			c8.1,0.9,16.5,1.4,25,1.4s16.9-0.5,25-1.4c-0.1-0.2-0.2-0.5-0.3-0.7c3.4-0.3,6.9-0.6,10.2-1c-5.7-11.7-14-22-24.1-30.1
			c6.4-2.2,13.3-3.4,20.5-3.4C571,320.6,571,319.8,570.9,319.1z"/>
		<path class="st5" d="M570.9,319.1c0,0.7,0,1.5,0,2.2c-7.2,0-14.1,1.2-20.5,3.4c-3.3-2.6-6.8-5.1-10.5-7.2c0,0,0,0,0,0
			C550.8,317.5,561.2,318.1,570.9,319.1z"/>
		<path class="st5" d="M574.6,354.8c-3.4,0.4-6.8,0.7-10.2,1c-5.5-10.9-14.1-20.1-24.7-26.2c3.4-2,7-3.6,10.8-4.9
			C560.6,332.8,568.8,343.1,574.6,354.8z"/>
		<polygon points="545.1,281.4 564.7,315.2 559.2,315.2 542.4,286.2 		"/>
		<path class="st5" d="M564.3,355.8c0.1,0.2,0.2,0.4,0.3,0.7c-8.1,0.9-16.5,1.4-25,1.4s-16.9-0.5-25-1.4c0.1-0.2,0.2-0.4,0.3-0.6
			c8.1,0.6,16.3,1,24.6,1C547.9,356.8,556.2,356.5,564.3,355.8z"/>
		<path class="st5" d="M548.5,273.2c13.2,11,21.8,27.5,22.5,45.9c-9.7-1-20.1-1.6-30.9-1.6c0,0,0,0,0,0c-0.2-0.1-0.3-0.2-0.5-0.3
			c-0.2,0.1-0.3,0.2-0.5,0.3c-10.7,0-21.1,0.6-30.7,1.7c0.6-18.5,9.2-34.9,22.5-46c0.7,1,1.5,1.8,2.5,2.5v0c1.8,1.3,4,2,6.3,2
			s4.5-0.8,6.3-2v0C546.9,275,547.8,274.1,548.5,273.2z M564.7,315.2l-19.5-33.8l-2.7,4.8l-2.8-4.8l-2.5,4.3l-2.5-4.3l-19.5,33.8h5
			h5.5h28.6h5H564.7z"/>
		<polygon class="st5" points="542.4,286.2 559.2,315.2 554.2,315.2 539.9,290.5 		"/>
		<path class="st5" d="M539.6,329.7c10.6,6.1,19.2,15.2,24.7,26.2c-8.1,0.7-16.4,1-24.8,1c-8.3,0-16.5-0.3-24.6-1
			C520.4,344.9,529.1,335.8,539.6,329.7z"/>
		<polygon points="539.9,290.5 554.2,315.2 525.6,315.2 		"/>
		<path class="st5" d="M548.5,273.2c-0.7,1-1.5,1.8-2.5,2.5l-1.1-1.4c0.8-0.6,1.6-1.4,2.2-2.2C547.5,272.4,548,272.8,548.5,273.2z"
			/>
		<path class="st5" d="M547.1,272c-0.6,0.9-1.3,1.6-2.2,2.2l-1-1.4c0.7-0.5,1.3-1.1,1.8-1.9C546.1,271.3,546.6,271.7,547.1,272z"/>
		<path class="st5" d="M546,275.7L546,275.7c-1.8,1.3-4,2.1-6.3,2.1s-4.5-0.8-6.3-2v0l1-1.4c1.5,1.1,3.3,1.7,5.3,1.7
			s3.8-0.6,5.3-1.7L546,275.7z"/>
		<path class="st5" d="M545.6,270.9c-0.5,0.7-1.1,1.4-1.8,1.9l-1-1.5c0.5-0.4,1-0.9,1.4-1.4C544.7,270.2,545.2,270.6,545.6,270.9z"
			/>
		<path class="st5" d="M543.8,272.8l1,1.4c-1.5,1.1-3.3,1.7-5.3,1.7s-3.8-0.6-5.3-1.7l1.1-1.4c1.2,0.9,2.6,1.4,4.2,1.4
			C541.2,274.2,542.7,273.7,543.8,272.8z"/>
		<path class="st5" d="M542.8,271.3l1,1.5c-1.2,0.9-2.6,1.4-4.2,1.4c-1.6,0-3-0.5-4.2-1.4l1-1.5c0.9,0.6,2,1,3.2,1
			S541.9,272,542.8,271.3z"/>
		<path class="st5" d="M544.2,269.9c-0.4,0.6-0.8,1.1-1.4,1.4l-1-1.4c0.4-0.3,0.7-0.6,0.9-1C543.2,269.2,543.7,269.5,544.2,269.9z"
			/>
		<path class="st5" d="M541.8,269.9l1,1.4c-0.9,0.6-2,1-3.2,1s-2.3-0.4-3.2-1l1-1.4c0.6,0.4,1.3,0.7,2.1,0.7
			S541.2,270.3,541.8,269.9z"/>
		<path class="st5" d="M542.7,268.9c-0.2,0.4-0.6,0.7-0.9,1l-1.1-1.4c0.2-0.1,0.4-0.3,0.5-0.5C541.7,268.2,542.2,268.5,542.7,268.9z
			"/>
		<polygon class="st5" points="542.4,286.2 539.9,290.5 537.2,285.7 539.6,281.4 		"/>
		<path class="st5" d="M540,317.5c3.7,2.2,7.2,4.6,10.5,7.2c-3.8,1.3-7.4,3-10.8,4.9c-3.5-2-7.2-3.7-11-5c3.3-2.6,6.8-5,10.4-7.2
			C539.4,317.5,539.7,317.5,540,317.5z"/>
		<path class="st5" d="M540.7,268.4l1.1,1.4c-0.6,0.4-1.3,0.7-2.1,0.7s-1.5-0.2-2.1-0.7l1.1-1.5c0.3,0.2,0.7,0.4,1,0.4
			C540,268.8,540.4,268.7,540.7,268.4z"/>
		<path class="st5" d="M539.6,267c0.5,0.3,1,0.6,1.5,0.9c-0.1,0.2-0.3,0.4-0.5,0.5L539.6,267z"/>
		<path class="st5" d="M539.6,267l1,1.4c-0.3,0.2-0.7,0.4-1,0.4c-0.4,0-0.8-0.1-1-0.4L539.6,267z"/>
		<path class="st5" d="M540,317.5c-0.3,0-0.6,0-0.9,0c0.2-0.1,0.3-0.2,0.5-0.3C539.7,317.3,539.8,317.4,540,317.5z"/>
		<polygon class="st5" points="537.2,285.7 539.9,290.5 525.6,315.2 520.1,315.2 		"/>
		<path class="st5" d="M539.6,267l-1,1.4c-0.2-0.1-0.4-0.3-0.5-0.5C538.6,267.6,539.1,267.3,539.6,267z"/>
		<path class="st5" d="M538.6,268.4l-1.1,1.5c-0.4-0.3-0.7-0.6-0.9-1c0.5-0.3,1-0.6,1.5-1C538.2,268.1,538.4,268.3,538.6,268.4z"/>
		<path class="st5" d="M537.5,269.9l-1,1.4c-0.5-0.4-1-0.9-1.4-1.4c0.5-0.4,1-0.7,1.5-1C536.8,269.3,537.2,269.6,537.5,269.9z"/>
		<polygon points="534.7,281.4 537.2,285.7 520.1,315.2 515.1,315.2 		"/>
		<path class="st5" d="M536.5,271.3l-1,1.5c-0.7-0.5-1.3-1.1-1.8-1.9c0.5-0.4,1-0.7,1.5-1C535.5,270.5,536,271,536.5,271.3z"/>
		<path class="st5" d="M535.4,272.8l-1.1,1.4c-0.8-0.6-1.6-1.4-2.2-2.2c0.5-0.4,0.9-0.7,1.4-1.1
			C534.1,271.7,534.7,272.3,535.4,272.8z"/>
		<path class="st5" d="M534.4,274.2l-1,1.4c-1-0.7-1.8-1.5-2.5-2.5c0.4-0.4,0.9-0.8,1.4-1.1C532.8,272.9,533.5,273.6,534.4,274.2z"
			/>
		<path class="st5" d="M539,317.5c-3.6,2.1-7.1,4.5-10.4,7.2c-6.4-2.2-13.2-3.4-20.3-3.4c0-0.7,0-1.4,0-2.1
			C518,318.1,528.3,317.5,539,317.5z"/>
		<path class="st5" d="M528.6,324.7c3.8,1.3,7.5,3,11,5c-10.6,6.1-19.2,15.2-24.7,26.2c-3.5-0.3-7-0.6-10.5-1
			C510.2,343.1,518.5,332.7,528.6,324.7z"/>
	</g>
	<g>
		<path class="st6" d="M514.9,355.9c-3.5-0.3-7-0.6-10.5-1"/>
		<path class="st6" d="M574.6,354.8c-3.4,0.4-6.8,0.7-10.2,1"/>
		<path class="st6" d="M504.4,354.8c5.7-11.8,14-22.1,24.2-30.2"/>
		<path class="st6" d="M574.6,354.8c-5.7-11.7-14-22-24.1-30.1"/>
		<path class="st6" d="M539.6,329.7c-10.6,6.1-19.2,15.2-24.7,26.2c-0.1,0.2-0.2,0.4-0.3,0.6c8.1,0.9,16.5,1.4,25,1.4
			s16.9-0.5,25-1.4c-0.1-0.2-0.2-0.5-0.3-0.7C558.8,344.9,550.2,335.8,539.6,329.7z"/>
		<path class="st6" d="M539.6,267c-0.5,0.3-1,0.6-1.5,0.9c-0.5,0.3-1,0.6-1.5,1c-0.5,0.3-1,0.7-1.5,1c-0.5,0.3-1,0.7-1.5,1
			c-0.5,0.4-1,0.7-1.4,1.1c-0.5,0.4-0.9,0.7-1.4,1.1c-13.3,11.1-21.9,27.5-22.5,46c0,0.7,0,1.4,0,2.1c7.1,0,14,1.2,20.3,3.4
			c3.8,1.3,7.5,3,11,5c3.4-2,7-3.6,10.8-4.9c6.4-2.2,13.3-3.4,20.5-3.4c0-0.7,0-1.5,0-2.2c-0.6-18.4-9.2-34.9-22.5-45.9
			c-0.5-0.4-0.9-0.8-1.4-1.1c-0.5-0.4-0.9-0.7-1.4-1.1c-0.5-0.4-1-0.7-1.5-1c-0.5-0.4-1-0.7-1.5-1c-0.5-0.3-1-0.7-1.5-1
			C540.7,267.6,540.2,267.3,539.6,267z"/>
		<polyline class="st6" points="559.2,315.2 542.4,286.2 539.6,281.4 537.2,285.7 520.1,315.2 		"/>
		<line class="st6" x1="554.2" y1="315.2" x2="539.9" y2="290.5"/>
		<polyline class="st6" points="537.2,285.7 534.7,281.4 515.1,315.2 520.1,315.2 525.6,315.2 		"/>
		<polyline class="st6" points="539.9,290.5 525.6,315.2 554.2,315.2 559.2,315.2 564.7,315.2 545.1,281.4 542.4,286.2 		"/>
		<path class="st6" d="M530.8,273.2c-1.2-1.7-1.9-3.9-1.9-6.2c0-1.2,0.2-2.3,0.5-3.3c1.4-4.3,5.4-7.4,10.2-7.4s8.8,3.1,10.2,7.4
			c0.3,1,0.5,2.2,0.5,3.3c0,2.3-0.7,4.4-1.9,6.2"/>
		<path class="st6" d="M536.6,268.9c-0.3-0.6-0.5-1.2-0.5-1.9c0-0.4,0.1-0.8,0.2-1.1c0.5-1.4,1.8-2.5,3.4-2.5c1.6,0,2.9,1,3.4,2.5
			c0.1,0.4,0.2,0.7,0.2,1.1c0,0.7-0.2,1.3-0.5,1.9"/>
		<polyline class="st6" points="539.6,267 539.6,265.2 539.6,263.4 		"/>
		<polyline class="st6" points="539.6,267 537.9,266.4 536.2,265.9 		"/>
		<polyline class="st6" points="539.6,267 541.3,266.4 543.1,265.9 		"/>
	</g>
</g>
<g>
	<path class="st7" d="M535.4,348.8c0-3.8,2.1-6.9,4.6-6.9c-7.2,0-13.1,3.1-13.1,6.9s5.9,6.9,13.1,6.9
		C537.4,355.7,535.4,352.6,535.4,348.8z"/>
	<path class="st7" d="M540,341.9c2.6,0,4.6,3.1,4.6,6.9s-2.1,6.9-4.6,6.9c7.2,0,13.1-3.1,13.1-6.9S547.2,341.9,540,341.9z"/>
</g>
<ellipse cx="540" cy="348.8" rx="4.6" ry="6.9"/>
</svg>
