<svg id="Layer_1" data-name="Layer 1" xmlns="http://www.w3.org/2000/svg" viewBox="0 0 1080 680"><defs><style>.cls-1{fill:#fff;}.cls-2{fill:none;stroke:#000;stroke-miterlimit:10;}</style></defs><title>changa_Artboard 3</title><path d="M294.86,424.33a6.8,6.8,0,0,0,1.9-.55q1.43-.55,1.9-.08a4.52,4.52,0,0,1-.79,1,12.33,12.33,0,0,1-3.72,1.35q-2.46.55-4.67.87a57.07,57.07,0,0,1-9,.55,27.13,27.13,0,0,1-9.18-1.82,22.05,22.05,0,0,1-8.31-5.22,22.67,22.67,0,0,1-5.46-8.23A37.13,37.13,0,0,1,255,402.4a58,58,0,0,1-.24-10.05,22.79,22.79,0,0,1,3-9.81,19.09,19.09,0,0,1,3.09-4,24.08,24.08,0,0,1,4-3.25,30.55,30.55,0,0,1,11.64-4.43,119.61,119.61,0,0,1,12.11-1.27c.32,0,.82,0,1.5-.08s1.37-.08,2.06-.08a5.56,5.56,0,0,1,1.74.24.89.89,0,0,1,.71.87.14.14,0,0,0-.16.16c-.32.53-1.13.71-2.45.55a28.38,28.38,0,0,0-3.25-.24h-3.17a9.25,9.25,0,0,0-1.11.08,14.48,14.48,0,0,1-1.74.08,50.26,50.26,0,0,0-11,2.22,24.88,24.88,0,0,0-9.42,5.38,19.05,19.05,0,0,0-5.38,8.71,21.81,21.81,0,0,0-1,4.83,29.53,29.53,0,0,0-.08,4.83,64.54,64.54,0,0,0,.79,8,30.71,30.71,0,0,0,2.06,7.2,27.54,27.54,0,0,0,3.88,6.25,18.7,18.7,0,0,0,5.46,4.51,21.43,21.43,0,0,0,6.41,2.45,32.8,32.8,0,0,0,13.61.32A58.62,58.62,0,0,0,294.86,424.33Z"/><path d="M355.65,418.95a12.64,12.64,0,0,0,.16,1.58,16.38,16.38,0,0,1,.16,2.29q0,1.19-.08,2.22a2.25,2.25,0,0,1-.4,1.35,4.22,4.22,0,0,1-.79-2.22,43.19,43.19,0,0,1-.48-7.2,84,84,0,0,0-.47-8.94q-.47-4.11-1.19-8.31a65.68,65.68,0,0,0-2-8.31,74.87,74.87,0,0,0-3-8.07,23.35,23.35,0,0,0-4.91-7.12,13.26,13.26,0,0,0-7.44-4,12.58,12.58,0,0,0-8.23,1.9,25.65,25.65,0,0,0-6.73,5.7,47.9,47.9,0,0,0-5.15,7.44,69.89,69.89,0,0,0-5.46,13.77,102.06,102.06,0,0,0-2.93,14.72,4.51,4.51,0,0,1-.08.87,4.32,4.32,0,0,0-.08.87,15,15,0,0,0-.16,2.14v3.4a4,4,0,0,1-.63,2.69q-.79.64-1.11-.32v-6.73q0-2.77-.16-5.46v-3.64q.16-4.75.16-9.42v-9.42q0-12,.16-23.35t-.16-22.72c0-.63-.05-1.58-.16-2.85s-.16-2.53-.16-3.8a30.3,30.3,0,0,1,.16-3.32c.1-.95.37-1.42.79-1.42a.14.14,0,0,1,.16.16,2.23,2.23,0,0,1,.63,1.58,24.11,24.11,0,0,1,.16,2.93q0,1.66-.08,3.4t-.08,2.85v11.4q-.16,11.08-.24,21.69t-.08,21.06v15.51A101.68,101.68,0,0,1,309,399a63.46,63.46,0,0,1,5.78-13.46,48.18,48.18,0,0,1,4.12-5.86,32,32,0,0,1,5.07-4.91,17.42,17.42,0,0,1,6.09-3.25,11.38,11.38,0,0,1,6.89.08,13.14,13.14,0,0,1,5.94,3.4,28.65,28.65,0,0,1,4.19,5.3,35.29,35.29,0,0,1,2.93,6,58.71,58.71,0,0,1,2,6.33,94.06,94.06,0,0,1,2.53,13.06Q355.33,412.3,355.65,418.95Z"/><path d="M410.74,424.81v.79l-.16.16-.16.16c0-.1,0-.13-.08-.08s-.08,0-.08-.24l-.47-.47a2.86,2.86,0,0,0-.32-.79,1.79,1.79,0,0,0-.16-.79q-.16-1.43-.48-4.12-.16-2.37-.08-5.07t-.08-5.38q0-4-.08-7.92t-.08-8.07v-2.37a51.5,51.5,0,0,1-4.43,13.62,43.38,43.38,0,0,1-8.39,11.71,47.61,47.61,0,0,1-6.89,5.7,32.22,32.22,0,0,1-8,4,19.22,19.22,0,0,1-4.51,1,19.87,19.87,0,0,1-4.67-.08,17.54,17.54,0,0,1-4.43-1.27,10.77,10.77,0,0,1-3.8-2.69,11.43,11.43,0,0,1-2.61-4,28.24,28.24,0,0,1-1.35-4.43,26.89,26.89,0,0,1,0-9.18,48.7,48.7,0,0,1,1.74-8.87,79.21,79.21,0,0,1,3-8.39,44,44,0,0,1,5.7-9.74,21.18,21.18,0,0,1,8.87-6.73,19,19,0,0,1,10.92-1.19,38.73,38.73,0,0,1,10.29,3.4,25.46,25.46,0,0,1,2.61,1.11,16.89,16.89,0,0,1,3.09,1.9,13.19,13.19,0,0,1,2.53,1.9q.95.95.47,1.42a.14.14,0,0,1-.16.16,3.91,3.91,0,0,1-1.58-.63q-1.11-.63-2.37-1.5T402,376.13a25.66,25.66,0,0,0-2.29-1.35,26,26,0,0,0-3.17-1.5q-1.11-.39-1.9-.71a13.9,13.9,0,0,0-1.74-.55c-.63-.16-1.64-.34-3-.55a19.86,19.86,0,0,0-10,.63,15,15,0,0,0-4.35,2.3,36.46,36.46,0,0,0-3.72,3.25,29.31,29.31,0,0,0-5.54,8.15,76.49,76.49,0,0,0-3.48,9.1,93.09,93.09,0,0,0-2.06,9.26,30.24,30.24,0,0,0-.16,9.26,18.3,18.3,0,0,0,1.19,4.35,12.58,12.58,0,0,0,2.29,3.72,11.35,11.35,0,0,0,7.44,3.8,15.81,15.81,0,0,0,7-.32,36.3,36.3,0,0,0,17.33-10.77,41.92,41.92,0,0,0,7.36-10.76,53,53,0,0,0,4-12,32.88,32.88,0,0,0,1-6.33v-1.5a7.62,7.62,0,0,1,.16-1.5v-1.42l.16.16v-.47c0-.1,0-.16.08-.16s.08-.05.08-.16H409c.32,0,.48.11.48.32v1.58q.16,3.17.16,6.25v6.25q.16,6.17.24,12.43t.4,12.59c0,.21,0,.63.08,1.27s.13,1.37.24,2.22a7.15,7.15,0,0,0,.08,1A6.61,6.61,0,0,1,410.74,424.81Zm-.63,1.27c0-.1.1-.16.32-.16A.45.45,0,0,0,410.11,426.07Z"/><path d="M473.43,420.53v3.25a10.79,10.79,0,0,1-.16,1.9q-.16.87-.47,1a4.59,4.59,0,0,1-.63-1.9,36.59,36.59,0,0,1-.16-6.17q.16-3.8,0-7.44a137.54,137.54,0,0,0-1.74-14.41,56.16,56.16,0,0,0-4.43-14.09,32.77,32.77,0,0,0-4.2-6.17,14,14,0,0,0-6.09-4.12,12.53,12.53,0,0,0-7.36-.32,21,21,0,0,0-6.89,3.17,36,36,0,0,0-10.61,11.24,80,80,0,0,0-6.81,14.25,72.3,72.3,0,0,0-3.48,15.67q-.16.95-.24,1.9c-.05.63-.13,1.32-.24,2.06a4.15,4.15,0,0,1-.16,1.27,4.87,4.87,0,0,0-.08,1.58,9.76,9.76,0,0,1,0,1.74,1.83,1.83,0,0,1-.4,1.11c-.21.21-.53.16-1-.16s-.42-.71-.32-1.5a16.68,16.68,0,0,0,.16-2.14v-1.74a.14.14,0,0,1,.16-.16q.16-10.29.32-20t.16-19.39c0-.53-.05-1.35-.16-2.45s-.16-2.19-.16-3.25a19.46,19.46,0,0,1,.16-2.69c.1-.74.37-1.11.79-1.11h.16a1.81,1.81,0,0,1,.55,1.42q.08,1.11.08,2.53t-.08,2.85q-.08,1.42-.08,2.37,0,2.22-.08,3.25t-.08,1.9v4.67q-.16,4.59-.16,9.26t-.16,9.26v4.59a77.9,77.9,0,0,1,6-20.42A61.29,61.29,0,0,1,432.43,382a32.55,32.55,0,0,1,9.34-8.31,19.88,19.88,0,0,1,5.62-2.53,14.08,14.08,0,0,1,5.94-.32,11.53,11.53,0,0,1,5.62,2.06,24.15,24.15,0,0,1,4.35,4,32.78,32.78,0,0,1,5.46,10.05,75,75,0,0,1,2.77,11q.95,5.54,1.35,11.16T473.43,420.53Z"/><path d="M531.37,391.4q.79,12.82.47,24.93A110.28,110.28,0,0,1,529,439.05a66.49,66.49,0,0,1-2.69,8.63,49.63,49.63,0,0,1-3.8,7.68,28.46,28.46,0,0,1-5.3,6.41,19.46,19.46,0,0,1-6.89,4,21.17,21.17,0,0,1-7.76,1.66,34.59,34.59,0,0,1-7.76-.71,75.52,75.52,0,0,1-7.52-2,57.9,57.9,0,0,1-7.36-2.93,7.29,7.29,0,0,0-2-1q-1.66-.63-1.66-1.42a1.06,1.06,0,0,1,.71-.08,3.73,3.73,0,0,0,.71.08,13.68,13.68,0,0,1,4,1.58,41.65,41.65,0,0,0,4.67,2.22,52.71,52.71,0,0,0,9.5,2.61,30.15,30.15,0,0,0,10,.08,21,21,0,0,0,9.34-4,22.23,22.23,0,0,0,3.72-3.64,48.9,48.9,0,0,0,3.09-4.27,45.37,45.37,0,0,0,4.27-9.82,91.48,91.48,0,0,0,2.53-10.61,106.84,106.84,0,0,0,1.35-10.84q.39-5.46.55-11a229.61,229.61,0,0,0-.95-24.22q-.16,1.27-.32,2.69t-.32,2.69a57.93,57.93,0,0,1-3.72,12.35,38,38,0,0,1-7.36,11.24A36.18,36.18,0,0,1,507,424.81a26.17,26.17,0,0,1-6.81,2,19.94,19.94,0,0,1-7.28-.24,13.71,13.71,0,0,1-6.57-3.09,16.57,16.57,0,0,1-4.51-5.94,17.79,17.79,0,0,1-1.74-7q-.16-3.64-.32-7.28,0-3.64.24-7.2a45.17,45.17,0,0,1,1-7,31.85,31.85,0,0,1,2.38-7,21.56,21.56,0,0,1,4.27-6,17.05,17.05,0,0,1,7.84-4.75,29.17,29.17,0,0,1,8.94-1.11,57.91,57.91,0,0,1,8.63,1.27,78.17,78.17,0,0,1,8.31,2.38,12.11,12.11,0,0,0,2.06.71,24.68,24.68,0,0,1,2.77,1,10.93,10.93,0,0,1,2.22,1.19q.87.63.55,1.27l-.16.16a2.41,2.41,0,0,1-1.42-.16c-.63-.21-1.32-.48-2.06-.79s-1.48-.66-2.22-1-1.37-.66-1.9-.87q-1.74-.63-2.61-1a8.33,8.33,0,0,0-1.58-.55l-1.58-.32a23.76,23.76,0,0,1-2.45-.63,51.59,51.59,0,0,0-8-1.27,25.55,25.55,0,0,0-8,.63,18.09,18.09,0,0,0-7,3.48,18.41,18.41,0,0,0-4.91,5.86,32.39,32.39,0,0,0-2.69,7,45.8,45.8,0,0,0-1.27,7.36A65.46,65.46,0,0,0,481,403q.08,3.56.4,7a26.46,26.46,0,0,0,1.19,5.62,15.85,15.85,0,0,0,2.61,4.83,13.22,13.22,0,0,0,4,3.48,15.92,15.92,0,0,0,5,1.74,20,20,0,0,0,10.29-1.11,33.36,33.36,0,0,0,8.87-5.07A36.44,36.44,0,0,0,525,403.91a50.54,50.54,0,0,0,3.48-19.31c0-.32-.05-1.05-.16-2.22a6.86,6.86,0,0,1,.16-2.69q0-1.11.63-1.27h.32q.79.32.95,2.61t.32,3.72q.16,1.43.24,2.14c.05.47.1.9.16,1.27s.1.77.16,1.19A19,19,0,0,1,531.37,391.4Z"/><path d="M588.52,424.81v.79l-.16.16-.16.16c0-.1,0-.13-.08-.08s-.08,0-.08-.24l-.47-.47a2.86,2.86,0,0,0-.32-.79,1.79,1.79,0,0,0-.16-.79q-.16-1.43-.48-4.12-.16-2.37-.08-5.07t-.08-5.38q0-4-.08-7.92t-.08-8.07v-2.37a51.5,51.5,0,0,1-4.43,13.62,43.38,43.38,0,0,1-8.39,11.71,47.61,47.61,0,0,1-6.89,5.7,32.22,32.22,0,0,1-8,4,19.22,19.22,0,0,1-4.51,1,19.87,19.87,0,0,1-4.67-.08,17.54,17.54,0,0,1-4.43-1.27,10.77,10.77,0,0,1-3.8-2.69,11.43,11.43,0,0,1-2.61-4,28.24,28.24,0,0,1-1.35-4.43,26.89,26.89,0,0,1,0-9.18,48.7,48.7,0,0,1,1.74-8.87,79.21,79.21,0,0,1,3-8.39,44,44,0,0,1,5.7-9.74,21.18,21.18,0,0,1,8.87-6.73,19,19,0,0,1,10.92-1.19,38.73,38.73,0,0,1,10.29,3.4,25.46,25.46,0,0,1,2.61,1.11,16.89,16.89,0,0,1,3.09,1.9,13.19,13.19,0,0,1,2.53,1.9q.95.95.47,1.42a.14.14,0,0,1-.16.16,3.91,3.91,0,0,1-1.58-.63q-1.11-.63-2.37-1.5t-2.61-1.74a25.66,25.66,0,0,0-2.29-1.35,26,26,0,0,0-3.17-1.5q-1.11-.39-1.9-.71a13.9,13.9,0,0,0-1.74-.55c-.63-.16-1.64-.34-3-.55a19.86,19.86,0,0,0-10,.63,15,15,0,0,0-4.35,2.3,36.46,36.46,0,0,0-3.72,3.25,29.31,29.31,0,0,0-5.54,8.15,76.49,76.49,0,0,0-3.48,9.1,93.09,93.09,0,0,0-2.06,9.26,30.24,30.24,0,0,0-.16,9.26,18.3,18.3,0,0,0,1.19,4.35,12.58,12.58,0,0,0,2.29,3.72,11.35,11.35,0,0,0,7.44,3.8,15.81,15.81,0,0,0,7-.32,36.3,36.3,0,0,0,17.33-10.77A41.92,41.92,0,0,0,581,403.43a53,53,0,0,0,4-12,32.88,32.88,0,0,0,1-6.33v-1.5a7.62,7.62,0,0,1,.16-1.5v-1.42l.16.16v-.47c0-.1,0-.16.08-.16s.08-.05.08-.16h.32c.32,0,.48.11.48.32v1.58q.16,3.17.16,6.25v6.25q.16,6.17.24,12.43t.4,12.59c0,.21,0,.63.08,1.27s.13,1.37.24,2.22a7.15,7.15,0,0,0,.08,1A6.61,6.61,0,0,1,588.52,424.81Zm-.63,1.27c0-.1.1-.16.32-.16A.45.45,0,0,0,587.89,426.07Z"/><path d="M656.44,392.51A27.55,27.55,0,0,1,654.85,408a26.15,26.15,0,0,1-9.18,11.24,32.37,32.37,0,0,1-12.82,5.3,64.17,64.17,0,0,1-13.93.87,6.13,6.13,0,0,1-2.85,0q0,10,.08,18.76t.71,17.81c0,.21.05.74.16,1.58s-.05,1.37-.47,1.58a3.67,3.67,0,0,1-.63-1,5.7,5.7,0,0,1-.47-3.09,20.46,20.46,0,0,0,0-3.56q-.47-13.93-.48-29.29t-.16-30.87q0-4.91.08-9.66t-.08-9.34a4.64,4.64,0,0,0-.24-1.11,5.47,5.47,0,0,1-.24-1.58,4.93,4.93,0,0,1,.16-1.35.73.73,0,0,1,.79-.55,4.1,4.1,0,0,1,2.06-1.42q1.58-.63,2.53-1,1.27-.47,1.82-.71c.37-.16.71-.29,1-.4l1-.32,1.82-.47a25.58,25.58,0,0,1,11.48.08,22.3,22.3,0,0,1,9.89,5,26.62,26.62,0,0,1,6.41,8.39A35.15,35.15,0,0,1,656.44,392.51Zm-40.21,31.66a11.92,11.92,0,0,1,3.88,0,21.46,21.46,0,0,0,4.51.16,54.44,54.44,0,0,0,8.79-1,33.57,33.57,0,0,0,8.47-2.93,24.72,24.72,0,0,0,7.28-5.54,23.3,23.3,0,0,0,4.75-7.92,28.8,28.8,0,0,0,1.66-9.26,29.92,29.92,0,0,0-1.35-9.42,28.46,28.46,0,0,0-4.27-8.47,24.53,24.53,0,0,0-7-6.41,20.06,20.06,0,0,0-11.24-3.25,27.77,27.77,0,0,0-11.24,2.45,9.86,9.86,0,0,0-2.06,1.27,7.53,7.53,0,0,1-2.37,1.27,5.85,5.85,0,0,1,.08,1.66c-.05.58-.08,1.08-.08,1.5V383q-.16,9-.08,17.57t.08,16.15v7.44Z"/><path d="M665.62,424.81a4.23,4.23,0,0,0,.16.95.77.77,0,0,1-.48,1,1,1,0,0,1-.63-.63,2.24,2.24,0,0,1-.47-1.82,7.39,7.39,0,0,0,0-2.14q-.32-8.39-.32-17.65v-18.6q0-3,.08-5.86t-.08-5.54c-.11-.42-.26-1-.47-1.74s.1-1.11,1-1.11h.32c.53.11.74.47.63,1.11a9.85,9.85,0,0,0-.16,1.58,4.82,4.82,0,0,0-.08,1.42,6.27,6.27,0,0,1,.08,1.42q-.16,5.54-.08,10.61t-.08,9.66v14.25Q665,418.16,665.62,424.81Z"/><path d="M714.38,424.33a6.8,6.8,0,0,0,1.9-.55q1.43-.55,1.9-.08a4.52,4.52,0,0,1-.79,1,12.33,12.33,0,0,1-3.72,1.35q-2.46.55-4.67.87a57.07,57.07,0,0,1-9,.55,27.13,27.13,0,0,1-9.18-1.82,22.05,22.05,0,0,1-8.31-5.22,22.67,22.67,0,0,1-5.46-8.23,37.13,37.13,0,0,1-2.45-9.74,58,58,0,0,1-.24-10.05,22.79,22.79,0,0,1,3-9.81,19.09,19.09,0,0,1,3.09-4,24.08,24.08,0,0,1,4-3.25,30.55,30.55,0,0,1,11.64-4.43,119.61,119.61,0,0,1,12.11-1.27c.32,0,.82,0,1.5-.08s1.37-.08,2.06-.08a5.56,5.56,0,0,1,1.74.24.89.89,0,0,1,.71.87.14.14,0,0,0-.16.16c-.32.53-1.13.71-2.45.55a28.38,28.38,0,0,0-3.25-.24h-3.17a9.25,9.25,0,0,0-1.11.08,14.48,14.48,0,0,1-1.74.08,50.26,50.26,0,0,0-11,2.22,24.88,24.88,0,0,0-9.42,5.38,19.05,19.05,0,0,0-5.38,8.71,21.81,21.81,0,0,0-1,4.83,29.53,29.53,0,0,0-.08,4.83,64.54,64.54,0,0,0,.79,8,30.71,30.71,0,0,0,2.06,7.2,27.54,27.54,0,0,0,3.88,6.25,18.7,18.7,0,0,0,5.46,4.51,21.43,21.43,0,0,0,6.41,2.45,32.8,32.8,0,0,0,13.61.32A58.62,58.62,0,0,0,714.38,424.33Z"/><path d="M775,369.71a4.29,4.29,0,0,0,1-.16.58.58,0,0,1,.79.47,3.75,3.75,0,0,1-.47.79,2.65,2.65,0,0,1-1.82.32,7.33,7.33,0,0,0-2.14,0q-10.92.47-23.59.47v5.22q-.16,13.14-.08,24.06t.71,22.16c0,.21.05.71.16,1.5s-.05,1.29-.48,1.5a1.69,1.69,0,0,1-.63-.79,8.08,8.08,0,0,1-.4-3.17,28.1,28.1,0,0,0-.08-3.64q-.32-10.92-.4-22.72t-.08-24.14q-2.53,0-5-.08t-5-.08q-2.85,0-5.54-.08a37,37,0,0,0-5.38.24,6.75,6.75,0,0,0-1.58.32q-1.11.32-1.11-.95v-.16c.1-.53.47-.76,1.11-.71s1.11.08,1.42.08a4.82,4.82,0,0,0,1.42.08,6.23,6.23,0,0,1,1.42-.08q4.9.32,9.5.24t8.71-.08v-13q0-5.06.08-9.81t-.24-9.5a7,7,0,0,0-.16-1.27,8,8,0,0,1-.16-1.58,4.93,4.93,0,0,1,.16-1.35.73.73,0,0,1,.79-.55h.16c.53.21.76.87.71,2s-.08,2-.08,2.61v4.75q-.16,7.28-.08,14.25t.08,13.46q7.44.16,13.61.16A104.29,104.29,0,0,0,775,369.71Z"/><path d="M822.34,397.1q0,3.32-.16,6.73a39.34,39.34,0,0,1-1,6.89,38.57,38.57,0,0,1-2.22,6.57,16,16,0,0,1-4.12,5.62A15.6,15.6,0,0,1,809,426a30.83,30.83,0,0,1-6.41,1,30.37,30.37,0,0,1-6.49-.4,20.91,20.91,0,0,1-6.33-2.14,19.52,19.52,0,0,1-9.34-10.13,26.79,26.79,0,0,1-2.29-6.65,45,45,0,0,1-.87-7.12,40.45,40.45,0,0,1,.4-9.1,22.17,22.17,0,0,1,2.93-8.15,25.66,25.66,0,0,1,3.64-4.83,34.36,34.36,0,0,1,4.43-3.88,2.49,2.49,0,0,1,.63-.47l.63-.32a38.34,38.34,0,0,1,6.33-2.93,12,12,0,0,1,6.49-.55,2.9,2.9,0,0,1-1.58,1,41.88,41.88,0,0,0-6,1.35,17.4,17.4,0,0,0-5.38,2.77l-.63.32a2.47,2.47,0,0,0-.63.47,8.78,8.78,0,0,1-.71.63l-1,.79a21.34,21.34,0,0,0-5.07,5.78,22.82,22.82,0,0,0-2.85,7.2,34.34,34.34,0,0,0-.71,7.76,53.41,53.41,0,0,0,.71,7.76,40.36,40.36,0,0,0,2.22,7,19.68,19.68,0,0,0,3.8,5.94,16.2,16.2,0,0,0,5.15,4.2,23.46,23.46,0,0,0,5.94,2.14,25.32,25.32,0,0,0,5.22.4q2.53-.08,5.07-.4a15.82,15.82,0,0,0,4.75-1.35,13.7,13.7,0,0,0,4-2.77,16.15,16.15,0,0,0,2.93-4,23.11,23.11,0,0,0,1.82-4.67,48.16,48.16,0,0,0,1.58-10,62.8,62.8,0,0,0-.16-10,27,27,0,0,0-2.53-9.18,19.9,19.9,0,0,0-3-4.67,18.82,18.82,0,0,0-4-3.4,1.59,1.59,0,0,0-.55-.4,1.53,1.53,0,0,1-.55-.4,4.56,4.56,0,0,1-.55-.32,5.87,5.87,0,0,0-.55-.32l-.63-.32-.63-.32a11.81,11.81,0,0,0-2.85-1.27,11.59,11.59,0,0,1-2.85-1.27,3.21,3.21,0,0,1,3.09,0q1.5.79,2.93,1.42a3.6,3.6,0,0,1,1.27.63,5.75,5.75,0,0,1,.55.32,4.56,4.56,0,0,0,.55.32,6.79,6.79,0,0,0,1.42.79,23.44,23.44,0,0,1,4.35,4.2,22.78,22.78,0,0,1,3.25,5.46,31.7,31.7,0,0,1,1.82,6.41A55.19,55.19,0,0,1,822.34,397.1Z"/><g id="_Group_" data-name="&lt;Group&gt;"><path d="M570.94,275.79c39,4.08,67.06,15.71,67.06,29.41,0,17.12-43.87,31-98,31s-98-13.87-98-31c0-13.61,27.76-25.18,66.34-29.34,0,.71,0,1.42,0,2.13a62.54,62.54,0,0,1,20.33,3.37,87.79,87.79,0,0,0-24.19,30.17q5.22.6,10.5,1c-.12.22-.23.43-.34.65a219.47,219.47,0,0,0,50.06,0c-.11-.23-.23-.46-.34-.68,3.43-.28,6.85-.6,10.24-1a87.83,87.83,0,0,0-24.12-30.11A62.39,62.39,0,0,1,571,278C571,277.26,571,276.53,570.94,275.79Z"/><path class="cls-1" d="M570.94,275.79c0,.74,0,1.46,0,2.2a62.39,62.39,0,0,0-20.51,3.43A87.93,87.93,0,0,0,540,274.21h0A294.46,294.46,0,0,1,570.94,275.79Z"/><path class="cls-1" d="M574.57,311.54c-3.39.4-6.81.72-10.24,1a62.81,62.81,0,0,0-24.68-26.16,62.45,62.45,0,0,1,10.81-4.94A87.83,87.83,0,0,1,574.57,311.54Z"/><polygon points="545.14 238.13 564.67 271.94 559.17 271.94 542.4 242.89 545.14 238.13"/><path class="cls-1" d="M564.33,312.54c.11.22.23.45.34.68a219.47,219.47,0,0,1-50.06,0c.11-.22.22-.43.34-.65,8.05.65,16.26,1,24.56,1S556.18,313.2,564.33,312.54Z"/><path class="cls-1" d="M548.45,229.87a62.52,62.52,0,0,1,22.48,45.92A294.46,294.46,0,0,0,540,274.21h0l-.46-.28-.46.28a293.51,293.51,0,0,0-30.71,1.66,62.52,62.52,0,0,1,22.5-46,10.23,10.23,0,0,0,2.49,2.53v0a10.76,10.76,0,0,0,12.63,0v0A10.44,10.44,0,0,0,548.45,229.87Zm16.22,42.07-19.53-33.82-2.74,4.76-2.76-4.76-2.48,4.31-2.49-4.31-19.53,33.82h49.52Z"/><polygon class="cls-1" points="542.4 242.89 559.17 271.94 554.21 271.94 539.91 247.2 542.4 242.89"/><path class="cls-1" d="M539.65,286.37a62.81,62.81,0,0,1,24.68,26.16q-12.22,1-24.82,1c-8.3,0-16.51-.32-24.56-1A62.83,62.83,0,0,1,539.65,286.37Z"/><polygon points="539.91 247.2 554.21 271.94 525.62 271.94 539.91 247.2"/><path class="cls-1" d="M548.45,229.87a10.44,10.44,0,0,1-2.49,2.51L544.9,231a8.43,8.43,0,0,0,2.16-2.22C547.53,229.1,548,229.47,548.45,229.87Z"/><path class="cls-1" d="M547.05,228.73A8.43,8.43,0,0,1,544.9,231l-1-1.45a7.1,7.1,0,0,0,1.79-1.86C546.11,228,546.59,228.36,547.05,228.73Z"/><path class="cls-1" d="M546,232.38v0a10.76,10.76,0,0,1-12.63,0v0l1-1.43a8.94,8.94,0,0,0,10.52,0Z"/><path class="cls-1" d="M545.64,227.64a7.1,7.1,0,0,1-1.79,1.86l-1-1.46a5.12,5.12,0,0,0,1.37-1.45C544.67,226.93,545.16,227.29,545.64,227.64Z"/><path class="cls-1" d="M543.85,229.5l1,1.45a8.94,8.94,0,0,1-10.52,0l1.06-1.45a7.13,7.13,0,0,0,8.41,0Z"/><path class="cls-1" d="M542.8,228l1,1.46a7.13,7.13,0,0,1-8.41,0l1-1.46a5.35,5.35,0,0,0,6.31,0Z"/><path class="cls-1" d="M544.17,226.59A5.12,5.12,0,0,1,542.8,228l-1-1.45a3.64,3.64,0,0,0,.94-1C543.2,225.92,543.68,226.24,544.17,226.59Z"/><path class="cls-1" d="M541.76,226.59l1,1.45a5.35,5.35,0,0,1-6.31,0l1-1.43a3.56,3.56,0,0,0,2.11.68A3.6,3.6,0,0,0,541.76,226.59Z"/><path class="cls-1" d="M542.69,225.59a3.64,3.64,0,0,1-.94,1l-1.06-1.45a1.31,1.31,0,0,0,.48-.52C541.68,224.93,542.2,225.25,542.69,225.59Z"/><polygon class="cls-1" points="542.4 242.89 539.91 247.2 537.17 242.44 539.65 238.13 542.4 242.89"/><path class="cls-1" d="M540,274.21a87.93,87.93,0,0,1,10.49,7.22,62.45,62.45,0,0,0-10.81,4.94,61.85,61.85,0,0,0-11-5A86.58,86.58,0,0,1,539,274.21Z"/><path class="cls-1" d="M540.69,225.15l1.06,1.45a3.6,3.6,0,0,1-2.11.69,3.56,3.56,0,0,1-2.11-.68l1.06-1.46a1.73,1.73,0,0,0,2.09,0Z"/><path class="cls-1" d="M539.65,223.7q.76.44,1.52.92a1.31,1.31,0,0,1-.48.52Z"/><path class="cls-1" d="M539.65,223.7l1,1.45a1.73,1.73,0,0,1-2.09,0Z"/><path class="cls-1" d="M540,274.21H539l.46-.28Z"/><polygon class="cls-1" points="537.17 242.44 539.91 247.2 525.62 271.94 520.12 271.94 537.17 242.44"/><path class="cls-1" d="M539.65,223.7l-1,1.45a1.47,1.47,0,0,1-.49-.52C538.61,224.3,539.12,224,539.65,223.7Z"/><path class="cls-1" d="M538.6,225.15l-1.06,1.46a3.53,3.53,0,0,1-.94-1c.49-.32,1-.65,1.51-1A1.47,1.47,0,0,0,538.6,225.15Z"/><path class="cls-1" d="M537.54,226.61l-1,1.43a5.12,5.12,0,0,1-1.37-1.45q.74-.53,1.48-1A3.53,3.53,0,0,0,537.54,226.61Z"/><polygon points="534.67 238.13 537.17 242.44 520.12 271.94 515.15 271.94 534.67 238.13"/><path class="cls-1" d="M536.49,228l-1,1.46a6.86,6.86,0,0,1-1.79-1.86c.48-.37,1-.71,1.46-1A5.12,5.12,0,0,0,536.49,228Z"/><path class="cls-1" d="M535.44,229.5,534.38,231a8.68,8.68,0,0,1-2.16-2.22c.46-.37.94-.74,1.43-1.09A6.86,6.86,0,0,0,535.44,229.5Z"/><path class="cls-1" d="M534.38,231l-1,1.43a10.23,10.23,0,0,1-2.49-2.53c.45-.38.91-.75,1.39-1.12A8.68,8.68,0,0,0,534.38,231Z"/><path class="cls-1" d="M539,274.21a86.58,86.58,0,0,0-10.41,7.16A62.54,62.54,0,0,0,508.31,278c0-.71,0-1.42,0-2.13A293.51,293.51,0,0,1,539,274.21Z"/><path class="cls-1" d="M528.64,281.37a61.85,61.85,0,0,1,11,5,62.83,62.83,0,0,0-24.7,26.19q-5.29-.44-10.5-1A87.79,87.79,0,0,1,528.64,281.37Z"/><path class="cls-2" d="M514.95,312.57q-5.29-.44-10.5-1"/><path class="cls-2" d="M574.57,311.54c-3.39.4-6.81.72-10.24,1"/><path class="cls-2" d="M504.44,311.54a87.79,87.79,0,0,1,24.19-30.17"/><path class="cls-2" d="M574.57,311.54a87.83,87.83,0,0,0-24.12-30.11"/><path class="cls-2" d="M539.65,286.37a62.83,62.83,0,0,0-24.7,26.19c-.12.22-.23.43-.34.65a219.47,219.47,0,0,0,50.06,0c-.11-.23-.23-.46-.34-.68A62.81,62.81,0,0,0,539.65,286.37Z"/><path class="cls-2" d="M539.65,223.7c-.52.29-1,.6-1.54.92s-1,.63-1.51,1-1,.66-1.48,1-1,.68-1.46,1-1,.72-1.43,1.09-.94.74-1.39,1.12a62.52,62.52,0,0,0-22.5,46c0,.71,0,1.42,0,2.13a62.54,62.54,0,0,1,20.33,3.37,61.85,61.85,0,0,1,11,5A62.36,62.36,0,0,1,571,278c0-.74,0-1.46,0-2.2a62.52,62.52,0,0,0-22.48-45.92c-.46-.4-.92-.77-1.4-1.14s-.94-.74-1.42-1.09-1-.71-1.46-1-1-.68-1.48-1-1-.66-1.52-1S540.15,224,539.65,223.7Z"/><polyline class="cls-2" points="559.17 271.94 542.4 242.89 539.65 238.13 537.17 242.44 520.12 271.94"/><line class="cls-2" x1="554.21" y1="271.94" x2="539.91" y2="247.2"/><polyline class="cls-2" points="537.17 242.44 534.67 238.13 515.15 271.94 520.12 271.94 525.62 271.94"/><polyline class="cls-2" points="539.91 247.2 525.62 271.94 554.21 271.94 559.17 271.94 564.67 271.94 545.14 238.13 542.4 242.89"/><path class="cls-2" d="M530.84,229.86a10.61,10.61,0,0,1-1.94-6.16,10.75,10.75,0,1,1,19.56,6.18"/><path class="cls-2" d="M536.6,225.58a3.61,3.61,0,0,1-.54-1.88,3.79,3.79,0,0,1,.17-1.11,3.6,3.6,0,0,1,6.84,0,3.79,3.79,0,0,1,.17,1.11,3.62,3.62,0,0,1-.54,1.89"/><polyline class="cls-2" points="539.65 223.7 539.65 221.91 539.65 220.13"/><polyline class="cls-2" points="539.65 223.7 537.94 223.14 536.23 222.59"/><polyline class="cls-2" points="539.65 223.7 541.34 223.14 543.06 222.59"/></g><path class="cls-1" d="M535.38,305.5c0-3.83,2.07-6.93,4.62-6.93-7.23,0-13.09,3.1-13.09,6.93s5.86,6.93,13.09,6.93C537.45,312.43,535.38,309.33,535.38,305.5Z"/><path d="M540,312.93c-7.62,0-13.59-3.26-13.59-7.43s6-7.43,13.59-7.43v1c-2.27,0-4.12,2.88-4.12,6.43s1.85,6.43,4.12,6.43Zm-2.74-13.71c-5.63.64-9.85,3.21-9.85,6.28s4.22,5.64,9.85,6.28a9.46,9.46,0,0,1,0-12.55Z"/><path class="cls-1" d="M540,298.57c2.55,0,4.62,3.1,4.62,6.93s-2.07,6.93-4.62,6.93c7.23,0,13.09-3.1,13.09-6.93S547.23,298.57,540,298.57Z"/><path d="M540,312.93v-1c2.27,0,4.12-2.88,4.12-6.43s-1.85-6.43-4.12-6.43v-1c7.62,0,13.59,3.26,13.59,7.43S547.62,312.93,540,312.93Zm2.74-13.71a9.46,9.46,0,0,1,0,12.55c5.63-.64,9.85-3.21,9.85-6.28S548.37,299.86,542.74,299.22Z"/><ellipse cx="539.99" cy="305.5" rx="4.57" ry="6.93"/></svg>